<svg xmlns="http://www.w3.org/2000/svg" xml:space="preserve" id="Layer_1" x="0" y="0" viewBox="0 0 854.34 531.34"><style>.st0{fill-rule:evenodd;clip-rule:evenodd}</style><path d="M279.15 183.09c.08 0 .23.89.27 3.08-.37-1.86-.37-3.08-.27-3.08M278.95 194.92c.35.29.59 2.44.47 2.94-.31-.58-.48-1.89-.47-2.94M285.84 200.16c-.32-.61-.55-1.73-.8-2.4-.04-.35 1.06 1.56.8 2.4M286.79 198.92c.08.67.15 1.33.23 1.99-.35.63-.71-2.58-.23-1.99M287.29 196.92c.24 1.2.73 4.32.7 5.14-.47-1.59-.67-3.2-.7-5.14M292.65 229.61c-.49 0-.96-1.52-1.41-2.56.48.1.94 1.66 1.41 2.56M293.54 205.59c.88 1.79.62 5.14 0 0M292.81 219.4c1.08 2.59 1.56 4.62 2.4 7.54-.81-1.09-1.85-5.41-2.4-7.54M296.94 232.17c-.44-.3-.82-2.33-1.24-3.32.42.68 1.22 2.4 1.24 3.32M298.63 227.3c-.44.05.62 2.06-.18 1.64-.33-.88-.02-.86-.47-1.86.18-.17.35.29.53.26-.53-1.85-1.05-2.8-1.49-4.4.17.18.33.35.52.29-1.29-1.9-.96-4.61-2.24-8.95 1.52 4.09 3.87 13.36 5.32 16.86-.68-.35-1.29-3.65-1.99-3.84M302.67 215.37c.52-.35.71 1.58 1.11 2.74-.42-.62-.79-1.77-1.11-2.74M303.58 211.91c.36.21.49 1.97.76 2.79-.52-.75-.55-1.53-.76-2.79M304.74 209.58c.14.85.41.73.52 1.73-.45-.3-1.09-2.91-.24-2.49.18.74-.06.7-.28.76M302.82 195.84l.55-.02c-.17-2.26-.67-5.88-.15-7.41.18 1.32.26 3.41.32 5.41.03 1.99.26 3.88.82 4.78-.09.47.02 1.3-.08 1.77 1.68 6.03 2.08 12.84 4.49 18.89-2.18-2.3-1.93-8.76-3.7-11.87-.06-.12-.12-.23-.2-.33-.02-.5.11-.11.18.24-.24-1.39-.58-3.35-.88-5.4-.29-2.08-.75-4.25-1.35-6.06M304.55 220.94c1.71 4.21 2.47 7.76 4.61 12.3-.7-.94-1.53-2.59-2.26-4.38-.64-1.8-1.17-3.74-1.39-5.15-.2-.33-.42-.29-.61-.97-.53-1.64-1.34-5.35-.35-1.8M309.02 274.06c-.56-.45-1.2-1.2-1.67-1.43-.3-1.39-2.12-3.02-2.85-4.64 1.67 1.46 2.41 3.75 4.52 6.07M309.49 215.2c.8 1.5.82 3.97 1.7 5.67-1.09-1.54-1.34-4.19-1.7-5.67M308.85 219.62c.44.32 1.68 4.79.61 1.67-.14-.38-.2-.17-.14.03-.33-.02-.48-1.48-.47-1.7M311.81 227.55c-.64-.68-1.15-2.58-1.74-3.52.19-1.09 1.21 2.29 1.74 3.52M313.08 225.38c-.61-.5-1.12-2.46-1.68-3.85.61.74 1.12 2.6 1.68 3.85M314.9 229.15c-.38-.41-.76-1.18-1.12-2.18.39.12 1.11 1.76 1.12 2.18M318.28 243.12c-.02-.3.11-.47.33-.53l.64 1.24c-.28.24-.6.14-.97-.71M331.85 285.31c-1.74-1.64-5.5-4.85-6.17-6.56 1.68 2.42 4.46 4.42 6.17 6.56M333.17 268.1c-1.3-1.53-2.52-3.23-3.81-4.44.12-.41.92.59 1.83 1.73.89 1.15 2.02 2.38 2.53 2.59.5.67.82 1.21 1.17 1.79.65.71 1.59 1.08 2 2.05-1.25-.68-2.46-2.17-3.72-3.72M360.8 271.3c-.83-.17-1.85-.94-3.11-2.15.74.07 1.97 1.41 3.11 2.15M358.4 277.26c.32-.14 1.29.97 1.88 1.33-.5-.12-1.58-.77-1.88-1.33M370.95 278.99c-.3.17-1.32-.8-1.91-1.09.26-.31 1.67.71 1.91 1.09M373.09 281.37c-.58-.15-2.27-.88-1.76-1.32.9.5 1.15.89 1.76 1.32M388.39 329.23c-.58.03-1.49-.14-2.5-.5.33-.21 1.74 0 2.5.5"/><path d="M582.76 183.76c-.14 3.21-.12 6.4-.45 9.58-.14 1.59-.27 3.2-.42 4.81-.2 1.59-.41 3.21-.62 4.84-.73 5.79-1.41 11.8-2.82 17.53-.58 2.11-1.64 4.09-2.23 6.19-.36 1.39-.59 2.87-.91 4.08-1.93 6.94-5.84 15.59-9.87 23.12-1.36 2.64-2.87 5.14-4.31 7.66-1.56 2.43-3.02 4.91-4.68 7.29-1.67 2.38-3.31 4.82-5.14 7.19-.91 1.2-1.8 2.43-2.76 3.62-.97 1.2-1.96 2.41-2.96 3.65-6.55 6.82-13.51 14.21-21.94 20.71-10.69 8.19-23.15 15.33-36.37 20.63-7.08 2.85-14.34 5.34-21.74 7.03-7.4 1.73-14.89 2.9-22.3 3.11-.55-.27-1.47-.41-2.46-.52-1.59.06-1.14.67-2.91.62-1.43.14-.67-.49-1.64-.52-6.43.17-12.8-.3-19.04-.97-6.23-.82-12.31-1.88-18.1-3.41-2.05-.45.05-.45-1.44-.89-6.78-1.49-16.27-4.85-24.08-8.14-3.11-1.35-6.59-3.03-9.52-4.75-.79-.45-.7-.03-1.23-.35-.94-.53-.18-.45-.86-.91-.12-.06-1.74-.91-2.49-1.41-7.38-4.49-14.65-8.81-21.23-14.49-1.02-1.26-.94-1.27-2.8-2.94-1.43-1.3-1.27-1.02-2.64-1.97-.18-.09-1.76-1.52-2.02-1.74.02.03.03.05.05.08-.11-.11-.12-.12-.06-.09-.17-.26.33-.11.15-.38-.44-.65-1.68-1.79-3.08-3.03a62 62 0 0 1-3.88-3.82c-.61-.68-1.23-1.39-1.83-2.15-.59-.77-1.2-1.56-1.82-2.38-1.23-1.61-2.55-3.26-3.91-4.97 1.46 1.58 2.94 2.84 4.25 3.71 1.3.86 2.44 1.3 3.35 1.18-.92-1.9-2.97-4.03-4.81-6.32-1.86-2.29-3.73-4.58-4.46-6.53-6.05-7.41-12.22-17.98-16.28-28.14-.29-.8-.56-1.14-.83-.99-3.64-10.49-7.7-21.35-9.29-33.73 2.03 10.99 5.05 21.62 9.17 31.7 4.14 10.08 9.34 19.68 15.9 28.29.64 1 1.58 2.41 2.7 4.05 1.12 1.62 2.53 3.41 3.96 5.28 1.44 1.86 3.08 3.67 4.58 5.41 1.52 1.73 3.08 3.26 4.37 4.58 3.2 3.12 5.59 3.71 5.2 1.17-3.49-4.49-7.43-7.44-10.6-11.77-.18-1.08-.38-2.24.96-1.62 3.81 3.93 7.66 8.31 11.77 12.07 4 3.87 8.19 7.16 12.01 9.32.99 1.2 2.56 1.99 3.96 2.96.94.32 1.65.27 2.52.47-.09-.41-.67-.99-.39-1.29-2.08-1.49-3.97-2.97-5.64-4.61-1.7-1.61-3.29-3.21-4.79-4.93-.77-.83-1.55-1.68-2.32-2.52-.77-.86-1.55-1.73-2.33-2.61-.79-.88-1.64-1.73-2.5-2.62-.83-.89-1.73-1.8-2.67-2.71-.52-1.43-1.05-2.87-1.55-4.38-2.29-2.35-5.31-6.22-8.1-9.4-.65-.76-.17-.73-.27-1.12-6.02-7.82-10.83-15.51-13.54-23.64 3.31 6.67 6.73 13.71 10.92 19.3.7.88 1.26 1.02 1.9 1.39 3.09 5.35 9.23 12.19 14.34 17.62 1.06.39 1.99-.17-.08-2.29.82.39.99.82 1.8 1.74.2-.14.09-.42-.17-.79 1.36 1.44 2.27 2.17 3.09 2.97.85.77 1.64 1.61 3.09 2.9.64.42 1.24.15.96-.42-1.32-.97-2.32-2.17-3.35-3.27-1.02-1.12-2-2.21-2.99-3.31-1.21-1.3-2.4-1.88-3.55-3-.53-.58-.35-.82-.92-1.52-.53-.65-1.67-1.35-2.15-1.91-.62-.73-.73-1.2-1.33-2.08-1.08-1.53-2.46-2.94-3.76-4.43-1.29-1.5-2.61-3.02-3.65-4.62-1.52-2.58-2.27-5.34-4.14-8.17 1.41.71 2.11 3.05 3.41 4.94 4.12 6.37 10.31 12.46 14.52 17.1 1.05.06.24-1.12.26-1.97-1.5-1.43-2.3-2.52-3.55-3.76-.73-.67.02.61-.67.05-1.43-1.83-2.91-3.47-4.34-5.29-1.38-1.83-2.94-3.67-4.37-5.96.15-.71-.56-1.83.53-1.47-.44-.58-.39-.82-.61-1.23-.71-1.21-.14.14-.67-.03.17-1.21-1.59-2.33-1.53-3.47-4-4.96-5.29-10.16-8.93-16.39 2.44 4.06 5.28 9.69 8.51 15.09.7 1.15.26-.41.82.35.94 1.53 1.15 2.97 2.05 4.32 1.06 1.68 1.87 2.06 2.94 3.43 1.36 1.55 2.5 3.61 3.94 5.15 1.46 1.47 2.97 2.2 4.09 4.17.82.36.86-.08 2.08.97.55-.09-.56-1.77.45-1.17.92.79-.26.44.3 1.02.86.83 1.47.92 2.17 1.27.79 1.23 1.8 2.29 2.85 3.35 1.03 1.08 2.2 2.05 3.41 3.05.8.55-.73-1.27.27-.68.33.55 1.27 1.49 2.26 2.32 1.02.82 2.12 1.47 2.7 1.56 2.35 2.55 4.28 3.23 7.08 5.87 1.05.76.5-.49.97-.14 1.15.5 1.94 1.03 2.74 1.62.77.61 1.59 1.24 2.76 1.94 1.53.35 4.08 1.67 5.9 2.9.44-.52-1.05-1.29-2.11-2.05 1.02-.06 2.77 1.71 3.46 2.37 6.66 3.02 12.75 4.12 20.65 6.66 1.17.42 1.91-.17 2.84.58.39.08.39-.17.09-.26 2.26.39 5.76 1.55 9.19 2.18 1.7.41 3.38.61 4.82.7 1.46.08 2.67.09 3.46-.24 1.23.42-.5.14.17.71 1.83-.47 4.5.61 5.75-.2 4.58.18 9.16 1.09 12.8.09 1.02.08 2.35.03 2.79.38 1-.2 2.37-.5 3.76-.68 1.39-.2 2.85-.18 4-.08 14.31-2.26 28.52-6.88 41.39-14.15 12.84-7.23 24.29-17.1 32.81-28.7 4.82-4.93 8.73-12.46 11.46-18.31.83-1.93 2.38-3.34 2.5-5.53 1.91-4.09 3.65-8.9 5.14-13.6.61-2.4 1.35-4.72 1.7-6.99.2-1.12.38-2.23.56-3.29.14-1.06.2-2.09.27-3.06 1.68-5.87 1.61-12.45 1.53-18.88.02-1.32.02-2.58.02-3.81.02-1.24.05-2.47-.15-3.71-.14-.96-.49-1.94-.61-2.99-.21-2.06-.45-4.15-.55-6.28-.21-2.09-.49-4.2-1-6.2-.76-2.4-1.49-4.17-2.14-6.28-1.83-6.91-4.78-16-9.37-22.85-1.23-1.74-1.93-3.81-3.06-5.46-.65-.88-1.58-1.59-2.21-2.5-1.06-1.56-2.4-3.32-3.64-5.19-1.36-1.77-2.7-3.61-4.09-4.97-1.43-1.39-2.47-3.27-3.99-4.79-.79-.8-1.59-1.59-2.4-2.32-.85-.71-1.67-1.41-2.47-2.08-1.56-1.41-3.14-2.61-4.29-4.09-4.11-2.47-10.13-6.99-15.04-10.57-.29-.06-.52-.02-.73.05-3.52-2.68-8.05-3.55-11.7-5.62-.67-.33-.8 0-1.27-.09-1.86-.99-3.27-1.44-5.28-1.8-3.65-1.76-7.07-2.64-10.34-3.29-3.27-.7-6.43-1.14-9.73-2.09-3.87.5-8.07-.5-12.08-.38-1.09.03-2.2.52-3.28.55-1.02.05-1.64-.23-2.61-.24-.73-.02-1.44.27-2.33.29-1.21 0-2.53-.24-3.81-.2-1.26.08-2.33.49-3.46.67-1.35.18-2.59-.11-3.81.03-3.24.45-5.69 2.46-9.72 2.05-1.18.42-2.4.88-3.67 1.3-1.29.44-2.65.83-4.02 1.5-1.62.74-3.21 1.67-4.47 2.23-.76.3-1.74.39-2.5.67-1.91.62-3.56 1.83-5.32 2.82-1.7 1.11-3.44 2.12-5.47 2.76-1.09.94-2.5 1.8-3.99 2.7-1.44.97-3.03 1.86-4.5 2.87-1.43 1.02-2.84 1.99-3.91 3.03-1.06 1.08-1.88 2.11-2.23 3.12.76.74.45 1.85-.39 2.77-.94 1.02-1.9.96-3.41 2-.92.71-2.49 1.94-3.97 3.35-1.43 1.46-2.93 2.94-3.62 4.17-.56.92-.67 2.26-1.27 3.06-.67.88-1.5 1.64-2.43 2.38-.91.77-1.86 1.55-2.46 2.64-.82 1.44-.86 2.99-1.27 3.61-.08.12-.14.23-.23.33-1.18 1.67-3.37 2.94-4.14 3.08-.52.7-.23.85-.74 1.55-2.55 1.38-6.23 7.94-7.97 12.45-.26.68-.83 1.8-1.11 2.33-2.88 5.87-6.17 10.01-8.96 14.52-.44-.03-.74.49-1.11.64-.99 2.24-2.3 3.85-3.18 6.16-.89.26-1.33 2.21-2.35 2.08-1.21 1.18-2.11 2.79-3.21 4.32-.97 1.33-2.03 3.46-2.93 4.55-1.5 1.77-3.29 1.2-4.91 3.59-2.59-.91-5.49.5-8.88.39-.26.15-.38.71-.7.71-.05 0-.09-.02-.15-.05-1.18-3.82-3.38-2.06-5.03-4.21-.44-.58-.7-2.4-1.11-3.2-.86-1.85-1.99-2.55-2.71-3.53-.09-1.35-.23-2.62-.38-3.85-.09-1.21-.23-2.38-.38-3.5-.3-2.26-.71-4.37-1-6.41-.3-2.06-.7-4.12-.89-6.26-.2-2.12-.32-4.37-.3-6.84.02-.23.42-1.43.45-2.03.11-1.93.33-4.26.74-6.63.42-2.37.83-4.82 1.17-7.02-.18-1.5.27-3.44 1-5.75.73-2.3 1.91-4.91 2.99-7.9.79-2 1.11-3.03 2.47-5.96.91-1.99 1.82-3.85 2.62-5.76.8-1.93 1.68-3.78 2.73-5.61 1.17-2.08 2.44-3.94 3.85-5.7 1.39-1.76 2.74-3.55 4.23-5.38 1.24-1.55 2.11-3.5 3.32-4.97.02-.03.05-.05.06-.08l.08-.08c2.77-3.14 5.25-3.99 7.66-6.02 1.67-2.14 3.29-4.23 5.66-5.79 1.74-.09 2.05.8 4.7-.83 2.38-1.65 3.71-4.14 5.02-6.11 1.33-1.93 2.58-3.35 4.5-2.9 5.22-2.11 12.24-7.72 18.75-10.96 4.5-2.35 9.22-4.21 13.69-6.08 4.52-1.86 8.87-4 12.92-4.53 1.73-.96 3.5-1.5 5.31-1.86 1.8-.36 3.62-.71 5.5-1.09 11.05-2.3 22.09-4.97 33.16-4.25 1.62-.18 3.37-.36 5.17-.33 1.79 0 3.64.08 5.44.2 1.82.09 3.59.39 5.28.62 1.67.26 3.24.45 4.64.79 3.7.08 7.22.62 10.55 1.47 3.35.73 6.5 1.8 9.64 2.44 4.15 1.02 7.97 1.58 11.63 2.99 1.2.44 2.2 1.06 3.4 1.47 3.59 1.39 7.25 2.26 10.81 4.14 3.35 1.64 5.99 3.96 9.85 5.17 4.46 2.93 9.98 5.94 15.4 9.72 2.79 1.79 5.44 3.9 8.11 5.96 2.55 2.21 5.14 4.38 7.34 6.84.62.68.91 1.24 1.56 1.9 5.99 6.19 12.05 11.54 15.78 18.31 5.87 7.37 12.02 17.74 15.74 26.85 4.34 7.82 6.82 16.6 8.87 25.11 1.41 6.4 3.46 13.21 4.2 20.13.38 2.46.09 4.99.33 7.37.18 1.79.35 3.55.5 5.31.09 1.73.28 3.5.24 5.32"/><path d="M388.39 329.23c-.58.03-1.49-.14-2.5-.5.33-.21 1.74 0 2.5.5M373.09 281.37c-.58-.15-2.27-.88-1.76-1.32.9.5 1.15.89 1.76 1.32M370.95 278.99c-.3.17-1.32-.8-1.91-1.09.26-.31 1.67.71 1.91 1.09M360.28 278.59c-.5-.12-1.58-.77-1.88-1.33.32-.14 1.29.97 1.88 1.33M360.8 271.3c-.83-.17-1.85-.94-3.11-2.15.74.07 1.97 1.41 3.11 2.15M331.85 285.31c-1.74-1.64-5.5-4.85-6.17-6.56 1.68 2.42 4.46 4.42 6.17 6.56M336.9 271.82c-1.26-.68-2.47-2.17-3.73-3.71-1.3-1.53-2.52-3.23-3.81-4.44.12-.41.92.59 1.83 1.73.89 1.15 2.02 2.38 2.53 2.59.5.67.82 1.21 1.17 1.79.66.7 1.6 1.07 2.01 2.04M319.25 243.83c-.29.24-.61.14-.97-.71-.02-.3.11-.47.33-.53zM309.16 233.23c-.7-.94-1.53-2.59-2.26-4.38-.64-1.8-1.17-3.74-1.39-5.15-.2-.33-.42-.29-.61-.97-.53-1.62-1.33-5.34-.35-1.79 1.71 4.21 2.47 7.76 4.61 12.29M314.9 229.15c-.38-.41-.76-1.18-1.12-2.18.39.12 1.11 1.76 1.12 2.18M296.94 232.17c-.44-.3-.82-2.33-1.24-3.32.42.68 1.22 2.4 1.24 3.32M311.81 227.55c-.64-.68-1.15-2.58-1.74-3.52.19-1.09 1.21 2.29 1.74 3.52M313.08 225.38c-.61-.5-1.12-2.46-1.68-3.85.61.74 1.12 2.6 1.68 3.85M292.65 229.61c-.49 0-.96-1.52-1.41-2.56.48.1.94 1.66 1.41 2.56M295.21 226.94c-.8-1.09-1.85-5.41-2.4-7.54 1.08 2.6 1.56 4.63 2.4 7.54M311.19 220.88c-1.09-1.55-1.33-4.2-1.7-5.67.8 1.5.82 3.97 1.7 5.67M303.77 218.12c-.41-.62-.79-1.77-1.11-2.74.52-.36.72 1.57 1.11 2.74M304.33 214.7c-.52-.76-.55-1.53-.76-2.79.37.22.49 1.98.76 2.79M305.26 211.31c-.45-.3-1.09-2.91-.24-2.49.18.74-.06.7-.27.76.13.85.4.73.51 1.73M293.54 205.59c.88 1.79.62 5.14 0 0M287.99 202.06c-.47-1.59-.67-3.2-.7-5.14.25 1.2.73 4.32.7 5.14M287.02 200.91c-.35.64-.71-2.58-.23-1.99.08.67.15 1.34.23 1.99M279.42 197.86c-.32-.58-.49-1.9-.47-2.94.35.29.6 2.44.47 2.94M279.42 186.17c-.38-1.86-.38-3.08-.27-3.08.08 0 .23.9.27 3.08M309.02 274.06c-.56-.45-1.2-1.2-1.67-1.43-.3-1.39-2.12-3.02-2.85-4.64 1.67 1.46 2.41 3.75 4.52 6.07M298.63 227.3c-.44.05.62 2.06-.18 1.64-.33-.88-.02-.86-.47-1.86.18-.17.35.29.53.26-.53-1.85-1.05-2.8-1.49-4.4.17.18.33.35.52.29-1.29-1.9-.96-4.61-2.24-8.95 1.52 4.09 3.87 13.36 5.32 16.86-.68-.35-1.29-3.65-1.99-3.84M309.46 221.28c-.14-.38-.2-.17-.14.03-.33-.02-.49-1.47-.47-1.7.44.33 1.69 4.8.61 1.67M308.76 219.27c-2.18-2.3-1.93-8.76-3.7-11.87-.06-.12-.12-.23-.2-.33-.02-.5.11-.11.18.24-.24-1.39-.58-3.35-.88-5.4-.29-2.09-.74-4.26-1.35-6.06l.55-.02c-.17-2.26-.67-5.88-.15-7.41.18 1.32.26 3.41.32 5.41.03 1.99.26 3.88.82 4.78-.09.47.02 1.3-.08 1.77 1.69 6.03 2.08 12.84 4.49 18.89M285.84 200.16c-.32-.61-.55-1.73-.8-2.4-.04-.35 1.06 1.56.8 2.4" class="st0"/><path d="M582.7 181.47c-.04-.62-.08-1.24-.14-1.86-.04-.4-.06-.82-.1-1.22-.14-1.76-.32-3.5-.5-5.3-.02-.3-.06-.6-.06-.9-.04-.6-.04-1.22-.04-1.84s0-1.22-.02-1.84c0-.28 0-.54-.02-.82-.02-.66-.08-1.32-.18-1.96-.18-1.74-.46-3.46-.78-5.18q-.48-2.55-1.08-5.1c-.78-3.36-1.64-6.66-2.34-9.86-2.06-8.5-4.54-17.28-8.88-25.1-.52-1.28-1.1-2.58-1.7-3.9-.32-.66-.64-1.32-.96-2a109 109 0 0 0-2.06-4c-.28-.54-.58-1.08-.88-1.64-.16-.28-.3-.54-.46-.82-.34-.58-.66-1.16-1-1.72-.34-.58-.68-1.16-1.04-1.74-1.52-2.52-3.12-4.94-4.74-7.2l-.96-1.32c-.32-.44-.64-.86-.98-1.3-.32-.4-.64-.82-.96-1.22-.58-1.06-1.22-2.08-1.9-3.08-.36-.5-.7-1-1.08-1.48-.36-.48-.74-.96-1.12-1.44-.24-.3-.48-.58-.74-.88-.24-.3-.48-.58-.74-.86-.48-.56-.96-1.1-1.46-1.64-.04-.02-.06-.06-.08-.08-.66-.72-1.32-1.42-2.02-2.12-.66-.7-1.34-1.38-2.04-2.08-.5-.5-1-1.02-1.52-1.52-1.02-1.04-2.06-2.08-3.08-3.14-.64-.64-.94-1.2-1.56-1.88-2.2-2.46-4.78-4.64-7.34-6.84-2.66-2.06-5.32-4.18-8.1-5.96-5.44-3.78-10.96-6.8-15.42-9.72-3.86-1.22-6.5-3.54-9.84-5.18-3.56-1.88-7.22-2.74-10.82-4.14-1.2-.4-2.2-1.02-3.4-1.46-3.64-1.42-7.46-1.98-11.62-3-3.14-.62-6.3-1.7-9.64-2.44-3.34-.84-6.86-1.38-10.56-1.46-1.4-.34-2.96-.54-4.64-.8-1.68-.22-3.46-.52-5.28-.62-1.8-.12-3.64-.18-5.44-.18-1.8-.04-3.54.14-5.16.32-11.08-.72-22.12 1.94-33.16 4.24-1.88.38-3.7.74-5.5 1.1-1.82.36-3.58.92-5.32 1.86-4.04.54-8.4 2.68-12.92 4.54-4.46 1.86-9.18 3.72-13.68 6.08-6.52 3.24-13.54 8.86-18.76 10.96-1.92-.46-3.16.98-4.5 2.9-1.3 1.96-2.64 4.46-5.02 6.1-2.66 1.64-2.96.74-4.7.84-1.18.78-2.18 1.7-3.08 2.68-.46.5-.88 1-1.32 1.54-.2.26-.42.52-.62.78-.22.26-.42.52-.64.8-2.4 2.02-4.88 2.88-7.64 6.02l-.08.06c-.02.04-.04.06-.06.08-1.22 1.48-2.08 3.42-3.32 4.98-.74.9-1.44 1.82-2.16 2.72-.7.9-1.38 1.78-2.08 2.66-1.4 1.76-2.68 3.62-3.84 5.7a48 48 0 0 0-2.74 5.6c-.8 1.92-1.7 3.78-2.62 5.76-1.36 2.94-1.68 3.96-2.46 5.96-1.08 3-2.26 5.6-3 7.9-.72 2.32-1.18 4.26-1 5.76-.34 2.2-.74 4.64-1.16 7.02-.1.58-.2 1.18-.28 1.76-.16 1.16-.28 2.3-.36 3.34-.04.54-.08 1.04-.1 1.52-.04.6-.44 1.8-.46 2.02-.02 2.48.1 4.72.3 6.84.2 2.14.6 4.2.9 6.26.28 2.06.7 4.16 1 6.42.16 1.12.28 2.3.38 3.5.14 1.24.28 2.5.38 3.86.54.74 1.3 1.32 2.02 2.34.24.34.46.72.68 1.18.06.1.1.22.16.34.32.92.58 2.36.96 2.86.1.14.2.26.32.36.1.1.22.2.32.28.12.08.22.16.34.22.1.06.18.1.26.14s.16.08.24.1c.18.06.36.12.52.18.08.02.18.06.26.08.04.02.06.02.1.02.3.1.6.2.9.36.08.04.16.1.24.14.16.1.3.22.46.38.2.2.4.44.58.76.1.16.18.34.26.54s.16.42.22.66h.02c.06.04.1.04.14.04.32 0 .44-.56.7-.7 3.4.1 6.28-1.3 8.88-.4 1.62-2.4 3.42-1.82 4.92-3.6.12-.14.22-.28.34-.46.22-.32.46-.7.72-1.1.12-.2.26-.42.38-.62.24-.4.5-.84.74-1.24.26-.4.5-.78.74-1.12.28-.38.54-.78.8-1.16.52-.76 1.02-1.52 1.56-2.2.28-.34.56-.66.86-.96 1.02.14 1.46-1.82 2.34-2.08.08-.22.16-.44.26-.64.08-.2.18-.4.28-.58q.27-.6.6-1.14c.12-.24.26-.5.42-.74.26-.48.56-.98.84-1.48.26-.5.54-1.02.78-1.58h.02c.1-.04.18-.1.26-.16.08-.08.16-.16.26-.22.08-.08.16-.14.26-.18l.12-.06c.06-.02.12-.02.2-.02 2.78-4.5 6.08-8.64 8.96-14.52.04-.06.06-.14.12-.22l.28-.56c.14-.32.32-.66.46-.98.08-.2.18-.4.24-.58.66-1.7 1.6-3.68 2.62-5.54.34-.64.7-1.24 1.08-1.84.36-.6.74-1.16 1.1-1.7.76-1.08 1.54-2.02 2.24-2.66.16-.14.32-.28.46-.38.16-.12.32-.24.48-.32.52-.7.22-.84.74-1.54.78-.14 2.96-1.42 4.14-3.08.06-.04.1-.1.12-.16.04-.06.06-.12.1-.18s.08-.12.12-.2c0-.02.02-.06.04-.08.04-.14.08-.28.14-.44.02-.1.06-.22.08-.32q.09-.42.24-.96c.08-.26.18-.52.28-.78.1-.28.22-.56.38-.82.3-.54.68-1.02 1.12-1.44.42-.42.88-.82 1.34-1.2.92-.74 1.76-1.5 2.42-2.38.16-.2.28-.44.38-.68.1-.26.18-.52.28-.8.12-.42.26-.84.42-1.22.06-.12.12-.24.2-.36.7-1.24 2.2-2.72 3.62-4.18a47 47 0 0 1 3.98-3.34c1.5-1.06 2.46-1 3.4-2 .86-.94 1.16-2.04.4-2.78.34-1.02 1.16-2.04 2.22-3.12 1.08-1.06 2.5-2.02 3.92-3.04 1.46-1 3.06-1.9 4.5-2.86 1.48-.9 2.9-1.76 3.98-2.7 2.04-.64 3.78-1.66 5.48-2.76 1.76-.98 3.42-2.2 5.32-2.82.76-.28 1.74-.36 2.5-.66 1.26-.56 2.86-1.5 4.48-2.24 1.36-.66 2.72-1.06 4.02-1.5 1.26-.42 2.48-.88 3.66-1.3 4.04.4 6.48-1.6 9.72-2.04 1.22-.14 2.46.14 3.8-.04 1.12-.18 2.2-.58 3.46-.66 1.28-.06 2.6.2 3.82.2.88-.02 1.6-.32 2.32-.3.98.02 1.6.3 2.62.24 1.06-.02 2.18-.5 3.26-.54 4.02-.12 8.22.88 12.1.38 3.3.96 6.44 1.4 9.72 2.1 3.28.64 6.7 1.52 10.34 3.28 2 .36 3.42.82 5.28 1.8.48.1.6-.24 1.28.1 3.64 2.08 8.18 2.94 11.7 5.62.22-.06.44-.1.72-.04 4.92 3.58 10.94 8.1 15.04 10.56.08.1.16.2.24.28.14.18.3.36.46.52.08.1.16.18.26.26.48.5 1.02.98 1.56 1.46.58.52 1.18 1.04 1.78 1.58.8.66 1.62 1.36 2.46 2.08.82.72 1.62 1.52 2.4 2.32.38.38.74.78 1.06 1.2.18.2.34.4.5.62.48.62.94 1.26 1.42 1.84.32.4.66.78 1.02 1.12.18.18.34.36.52.54.34.36.68.76 1.02 1.18.34.4.68.84 1.02 1.26.5.66 1.02 1.34 1.52 2 .94 1.4 1.92 2.74 2.8 3.98.3.4.58.82.84 1.2.64.92 1.56 1.62 2.22 2.5 1.14 1.66 1.84 3.72 3.06 5.46.4.6.78 1.2 1.14 1.82.18.28.34.56.5.84.34.58.66 1.16.96 1.76 2.42 4.62 4.24 9.74 5.62 14.34q.33 1.08.6 2.1c.1.34.2.68.28 1.02s.16.66.26.98c.08.26.16.52.26.78.26.76.52 1.5.78 2.24.34 1.02.72 2.06 1.1 3.24.26 1 .46 2.02.62 3.06.08.52.14 1.06.22 1.58.06.52.12 1.04.16 1.56.02.54.06 1.06.1 1.6.12 1.58.3 3.14.46 4.68.12 1.06.46 2.04.6 3 .08.42.12.86.14 1.28v.04c.04.78.04 1.58.02 2.38 0 1.24 0 2.5-.02 3.82.08 6.42.14 13-1.54 18.86-.08.98-.14 2-.26 3.08-.18 1.06-.38 2.16-.56 3.28-.36 2.28-1.1 4.6-1.7 7-.36 1.18-.76 2.36-1.16 3.54-.4 1.16-.82 2.34-1.26 3.48-.42 1.16-.86 2.28-1.32 3.38a81 81 0 0 1-1.4 3.2c-.12 2.18-1.68 3.6-2.5 5.52-2.74 5.86-6.64 13.4-11.46 18.32-8.54 11.6-19.98 21.46-32.82 28.7-12.88 7.26-27.08 11.88-41.38 14.14-1.16-.1-2.62-.12-4.02.08-1.38.18-2.76.48-3.76.68-.44-.34-1.76-.3-2.78-.38-3.64 1-8.22.1-12.8-.08-1.24.8-3.9-.28-5.74.2-.24-.2-.18-.3-.06-.34.04-.04.08-.06.14-.06.02 0 .04 0 .06-.02.06 0 .1-.02.12-.04.02 0 .02 0 .02-.02 0 0 0-.04-.02-.06-.06-.04-.18-.1-.44-.18-.78.34-2 .32-3.44.24-1.44-.1-3.14-.28-4.82-.7-3.44-.64-6.94-1.78-9.2-2.18.08.02.12.06.16.08q.09.06.06.12c0 .02-.02.04-.04.06-.04.02-.14.02-.26 0-.94-.74-1.68-.16-2.84-.58-7.9-2.54-14-3.64-20.66-6.66a1 1 0 0 0-.14-.12c-.04-.06-.1-.1-.16-.16-.1-.1-.2-.2-.32-.3l-.12-.12a.34.34 0 0 1-.12-.12c-.14-.14-.3-.26-.46-.4-.14-.12-.28-.22-.42-.32l-.06-.06c-.12-.1-.26-.18-.4-.28s-.3-.18-.44-.26c-.12-.06-.22-.1-.32-.14-.04-.02-.08-.02-.1-.02a1 1 0 0 0-.32-.06h-.06c1.06.76 2.54 1.54 2.1 2.04-1.82-1.22-4.36-2.54-5.9-2.88-1.16-.7-1.98-1.34-2.76-1.94-.8-.6-1.6-1.14-2.74-1.64-.1-.06-.16-.08-.18-.04-.02.02-.02.04-.02.06-.02.02-.02.04-.02.06-.04.1-.06.24-.14.3-.04.02-.14.02-.28-.04-.08-.04-.18-.1-.32-.2h-.02c-.32-.3-.64-.58-.94-.84-.32-.26-.6-.5-.9-.74-.18-.14-.38-.28-.56-.44-1.48-1.1-2.78-1.92-4.22-3.38-.16-.14-.3-.3-.46-.46-.56-.1-1.68-.74-2.7-1.56-.48-.42-.96-.86-1.36-1.28-.12-.1-.2-.2-.3-.3-.18-.18-.32-.36-.44-.52-.06-.08-.12-.16-.16-.22-.14-.08-.24-.12-.28-.12s-.06.02-.06.06 0 .12.04.18q.03.12.12.24c.08.16.16.3.16.38 0 .06-.06.06-.24-.06-1.22-1-2.38-1.98-3.42-3.04-1.04-1.08-2.06-2.14-2.84-3.36-.7-.34-1.32-.44-2.18-1.28-.16-.16-.18-.26-.12-.32.04-.06.12-.08.16-.14s.04-.12-.04-.24a1.4 1.4 0 0 0-.3-.3c-.46-.28-.48-.1-.42.22.02.1.06.22.08.32.04.22.08.42 0 .54-.02.04-.06.06-.12.08-1.2-1.04-1.26-.6-2.06-.98-.14-.24-.3-.48-.44-.68-.3-.42-.64-.78-.98-1.12-.84-.82-1.76-1.44-2.68-2.36-1.44-1.54-2.58-3.6-3.94-5.16-1.08-1.36-1.88-1.74-2.94-3.42-.34-.5-.58-1.04-.8-1.56-.22-.54-.42-1.08-.66-1.64-.18-.36-.36-.74-.6-1.12-.06-.08-.1-.14-.14-.18-.26-.2-.16.38-.36.24-.06-.04-.16-.16-.32-.42-.4-.68-.8-1.34-1.18-2.02-2.74-4.74-5.18-9.5-7.32-13.06 3.64 6.24 4.94 11.44 8.94 16.4-.06 1.12 1.7 2.26 1.52 3.46.54.18-.04-1.18.68.04.2.4.16.64.6 1.22-.74-.24-.66.18-.56.72.02.18.06.36.06.54 0 .08-.02.16-.04.22.36.58.72 1.12 1.1 1.64.2.3.42.58.62.86.34.46.7.92 1.04 1.36.28.36.54.7.82 1.06.28.34.54.7.8 1.04q1.08 1.35 2.16 2.64c1.08 1.29 1.44 1.72 2.16 2.64h.02c.14.12.22.16.26.14.08-.02.04-.18.06-.28-.02-.04 0-.06.02-.08.02-.04.12 0 .32.18 1.24 1.24 2.04 2.34 3.54 3.76 0 .26.06.56.14.84.1.38.22.74.08.96 0 .02-.04.06-.06.08s-.06.04-.1.06c-.08.02-.18.02-.3.02h-.02c-1.58-1.74-3.44-3.68-5.34-5.76-.64-.7-1.3-1.42-1.94-2.14s-1.3-1.46-1.94-2.22c-.64-.74-1.26-1.5-1.88-2.26a63 63 0 0 1-3.42-4.72c-1.3-1.88-2-4.22-3.4-4.94.92 1.42 1.58 2.82 2.2 4.18.6 1.38 1.16 2.72 1.92 4 .26.4.54.8.84 1.18.58.78 1.22 1.56 1.86 2.32.32.36.64.74.96 1.12 1.3 1.48 2.68 2.9 3.76 4.42.62.88.72 1.36 1.34 2.08.48.56 1.62 1.26 2.16 1.92.08.08.12.16.18.24.1.16.18.28.22.4.06.12.1.22.14.32.06.12.12.22.2.34.06.06.12.14.18.2 1.14 1.14 2.34 1.7 3.54 3.02q1.47 1.62 3 3.3c1.02 1.1 2.02 2.3 3.34 3.28.28.56-.32.84-.96.42-1.44-1.3-2.24-2.12-3.08-2.9-.82-.8-1.74-1.54-3.1-2.98.08.12.14.22.18.32l.02.02c.08.2.1.34-.04.44-.22-.22-.36-.4-.5-.58l-.02-.02c-.14-.18-.26-.32-.38-.46-.24-.26-.48-.48-.9-.66 2.06 2.12 1.14 2.68.08 2.28-1.2-1.26-2.46-2.62-3.72-4.02-.74-.82-1.5-1.66-2.24-2.52a97 97 0 0 1-3.82-4.58c-.62-.76-1.2-1.52-1.72-2.26-.44-.58-.86-1.16-1.22-1.72-.18-.24-.36-.5-.52-.76-.18-.24-.34-.48-.48-.74-.22-.34-.42-.68-.62-1.02-.64-.38-1.2-.5-1.9-1.38-.52-.7-1.04-1.42-1.54-2.16-1-1.48-1.96-3.04-2.88-4.66-.46-.8-.92-1.62-1.36-2.44-.9-1.64-1.78-3.32-2.62-5-.86-1.68-1.7-3.38-2.52-5.04 2.72 8.12 7.52 15.8 13.54 23.62.02.04.02.08.02.12 0 .18-.14.28-.06.5.02.12.12.28.32.5 2.78 3.2 5.8 7.06 8.1 9.4.5 1.52 1.02 2.96 1.54 4.4.48.46.92.9 1.38 1.34.44.46.86.92 1.28 1.36.88.9 1.72 1.74 2.5 2.62.8.88 1.58 1.76 2.34 2.62.78.82 1.56 1.68 2.32 2.52 1.5 1.7 3.1 3.32 4.8 4.92 1.66 1.64 3.56 3.12 5.64 4.6-.12.12-.08.28-.02.46.06.14.16.28.24.42.04.08.06.14.1.22.02.02.02.06.04.1s.02.08.02.1c-.86-.2-1.56-.16-2.5-.48-1.4-.96-2.98-1.76-3.96-2.94-3.82-2.18-8.02-5.46-12.02-9.34-1.02-.94-2.02-1.9-3.02-2.92-.5-.48-1-1-1.5-1.52-.5-.5-.98-1.02-1.46-1.54-.5-.52-.98-1.02-1.46-1.54-.5-.52-.98-1.04-1.44-1.54l-2.88-3c-.42-.2-.68-.22-.84-.12-.06.04-.1.08-.14.14-.14.24-.12.6-.06 1.02.02.2.04.4.08.58.4.54.82 1.06 1.24 1.56s.84 1 1.28 1.46c.44.48.88.96 1.32 1.42.9.92 1.8 1.84 2.72 2.76 1.36 1.42 2.74 2.88 4.04 4.56.4 2.56-2 1.96-5.2-1.16-1.28-1.32-2.84-2.86-4.36-4.58-1.5-1.74-3.14-3.54-4.58-5.42-1.42-1.86-2.84-3.64-3.96-5.26a172 172 0 0 1-2.7-4.06c-6.56-8.6-11.76-18.2-15.9-28.28-.38-.94-.76-1.9-1.12-2.86q-.42-1.05-.78-2.1l-.12-.3c-.32-.8-.6-1.6-.86-2.42-.46-1.28-.88-2.58-1.3-3.9-.82-2.62-1.58-5.26-2.28-7.94a149 149 0 0 1-1.9-8.1c-.28-1.22-.5-2.46-.74-3.7v-.04c-.02-.02-.02-.02-.02-.04-.02-.1-.04-.22-.06-.32.2 1.54.44 3.08.72 4.58.12.64.24 1.28.36 1.9.12.64.26 1.26.4 1.88.32 1.48.66 2.94 1.04 4.36.24.94.5 1.86.74 2.76.22.78.46 1.56.68 2.32.36 1.14.7 2.26 1.08 3.38.08.28.16.56.26.84.42 1.26.84 2.52 1.26 3.76.92 2.7 1.86 5.34 2.76 7.96.28-.14.54.18.84.98 1.02 2.54 2.16 5.1 3.4 7.64.7 1.44 1.44 2.86 2.2 4.26q.87 1.59 1.74 3.12a125 125 0 0 0 3.34 5.42c.36.54.72 1.08 1.08 1.6.36.56.74 1.1 1.12 1.62q.57.81 1.14 1.56c.24.34.48.66.72.98.24.3.46.58.7.88.28.36.56.72.84 1.06.72 1.96 2.58 4.26 4.46 6.54.22.28.46.58.7.86.46.56.94 1.1 1.38 1.64 1.12 1.36 2.14 2.64 2.72 3.82-.9.12-2.04-.32-3.34-1.18-1.32-.88-2.8-2.14-4.26-3.72 1.36 1.72 2.68 3.38 3.92 4.98.62.82 1.22 1.6 1.82 2.38a40 40 0 0 0 1.84 2.16c1.02 1.1 2.48 2.58 3.88 3.82.7.62 1.34 1.22 1.88 1.74.14.12.26.26.38.38.12.1.24.22.34.34.18.2.34.4.46.56.04.04.04.08.04.12 0 .02 0 .04-.04.04-.02.02-.04.02-.06.04-.02 0-.06.02-.08.04-.02 0-.02.02-.02.04 0 .04 0 .06.02.1-.06-.02-.04 0 .06.1-.02-.04-.04-.04-.04-.08.26.22 1.82 1.66 2 1.74 1.38.96 1.22.68 2.64 1.98 1.88 1.66 1.8 1.68 2.82 2.94 6.58 5.68 13.84 10 21.22 14.5.74.5 2.36 1.34 2.48 1.4.08.06.14.1.2.14.08.08.12.14.12.2.02.02.02.06.04.1-.02.02 0 .04.02.08 0 .02.02.06.06.1.08.08.2.18.42.3.54.3.44-.12 1.24.34 2.92 1.72 6.42 3.4 9.52 4.74 7.8 3.3 17.3 6.66 24.08 8.14.58.18.6.28.56.36-.04.06-.12.14-.06.2-.02.02 0 .02.02.04.1.08.36.18.92.3 5.78 1.54 11.86 2.6 18.1 3.42 6.24.66 12.62 1.12 19.04.96.98.04.22.66 1.64.52 1.78.04 1.32-.56 2.9-.62 1 .1 1.92.24 2.46.52 7.42-.22 14.9-1.38 22.3-3.12 7.4-1.7 14.66-4.18 21.74-7.04h.02c1.64-.66 3.28-1.36 4.9-2.06h.02c1.62-.74 3.22-1.48 4.82-2.24h.02c1.2-.58 2.38-1.18 3.54-1.78.88-.46 1.76-.92 2.64-1.4 1.08-.58 2.14-1.16 3.2-1.76 1.52-.86 3.04-1.76 4.52-2.66 1.1-.68 2.2-1.38 3.28-2.08 2.14-1.4 4.24-2.82 6.26-4.3 1.08-.76 2.12-1.54 3.16-2.34 8.44-6.5 15.38-13.9 21.94-20.72 1-1.24 1.98-2.46 2.96-3.64.96-1.2 1.84-2.44 2.76-3.64.46-.58.9-1.18 1.34-1.78.66-.9 1.28-1.8 1.92-2.7.62-.9 1.26-1.82 1.88-2.7 1.66-2.38 3.12-4.86 4.68-7.3 1.44-2.5 2.94-5.02 4.3-7.64 1-1.9 2-3.84 2.98-5.82.82-1.7 1.64-3.42 2.4-5.14.12-.28.24-.56.36-.82.34-.8.68-1.6 1-2.4.46-1.12.88-2.2 1.28-3.28.2-.54.4-1.08.58-1.6.32-.94.62-1.86.9-2.74.14-.44.26-.88.38-1.32.32-1.22.54-2.7.9-4.08.6-2.1 1.66-4.08 2.24-6.2 1.4-5.72 2.08-11.72 2.82-17.52.2-1.62.42-3.24.62-4.84.14-1.6.28-3.22.42-4.8.34-3.18.32-6.38.46-9.58v-.96c0-.46-.02-.88-.06-1.34m-237.28 90.4c-1.06-.92-2.32-2.1-3.5-3.18-1.2-1.08-2.26-2.16-2.74-3.12-.34-.42-.24.88-.96.32-.54-1.14-1.32-2.36-2.62-4 .74-.78 2.94 2.76 3.8 2.24.98 1.24 1.42 1.9 2.3 2.06 1.98 2.56 2.92 2.66 4.4 4.62-.92.02-.02.66-.68 1.06m.7.28c.16-.06.12-.2-.04-.42.98.04 1.46 1.82.04.42" class="st0"/><path d="M464.18 159.73c-.03.33-.18.56-.27.26.04-.2.15-.25.27-.26M468.47 198.03c-.15.06-.21-.12-.32-.17.08-.17.35-.48.32.17M468.93 198.6c0 .39-.26.3-.32.11.01-.3.23-.03.32-.11M470.23 192.84c-.02.3-.23.03-.32.11.06-.21.24-.37.32-.11M471.06 198.63c-.09.42-.36.29-.56.36.11-.34.31-.46.56-.36M473.19 169.31c-.35-.39-.74.26-1.08-.08.29-.02.86-.56 1.08.08M474.32 181.83c.06.67-.67.08-.8.62-.11-.06-.18-.18-.27-.3-.12.05-.24.5-.36.11.34-.8.98.09 1.43-.43M475.64 159.14c-.24.61-.5-.17-.83.21.08-.18.18-.27.23-.53.15.55.41.06.6.32M477.4 184.26c-.06-.02-.12-.02-.18-.02-.02-.36.02-.59.14-.53.04.13.06.31.04.55M479.57 186.2c-.05.33-.27.39-.33.24q.105-.285.33-.24M480.36 185.72c-.12.33-.38.23-.56.36.09-.41.36-.29.56-.36M480.1 168.49c-.09.18-.32.39-.42.11.06-.3.28-.03.42-.11M480.1 183.65c.12.53-.33.44-.52.5.11-.34.37-.24.52-.5M480.45 164.84c-.02.42-.21.36-.32.52.02-.46.2-.42.32-.52M480.71 183.84c-.06.38-.68.17-.24.12.06-.03.03-.14 0-.14.01-.32.21-.06.24.02M480.69 179.33c-.58.42-1.03 0-1.67.27.29-.61.94-.65 1.3-.17.05-.09.05-.32.14-.26.22-.06.7.18.23.16M481.25 168.46c-.32.3-.58.27-.92.2.15-.39.66-.27.92-.2M481.24 185.66c-.21.36-.53-.3-.79.08.24-.65.59-.15.79-.08M481.43 178.98c.03.59-.21.35-.36.38.09-.24.24-.27.36-.38M481.78 172.04c-.53.79-1.68.2-2.14.38.06-.53.47-.05.52-.64.02-.44-.26-.08-.18-.7.12-.05.11.26.23.15.02.23-.05.23-.05.41.23.11.36-.11.56-.09-.03.11-.06.21-.06.39.27-.72.58.45 1.12.1M481.84 180.65c-.05.3-.26.03-.38.11.13-.34.22-.18.38-.11M482.19 182.73c-.11.05-.09-.21-.09-.42-.11-.06-.11.24-.23.12.05-.37.4-.43.32.3M482.39 183.02c0-.05.02-.09.03-.14.06.06.01.12-.03.14"/><path d="M479.19 186.17c-.62.85-1.47 1.02-2.32 1.18-.18.03.03.42-.11.55-.24.03-.42-.45-.64-.47-.27 0-.38.47-.61.64-.29.2-.61-.03-.89.2-.27.23-.49 1-.79.62-.11.38-.06.71-.29.94-.03.47.24.74.09 1.09-.17.2-.03-.45-.14-.41-.17.09-.24.49-.33.79-.41-.42-.82-.17-1.26.03-.14.17.2.42.05.7-.18-.35-.74-.15-.89.47-.49-.33-.74.24-1.29-.11-.18-.02-.02.68-.11.68-.33.49-.55.14-.92.2-.21.53-.62.82-.92.61-.03.67.21.62.41.71-.12.59-.47-.09-.61-.32-1.05.58-1.91 2.17-3.12 2.35-.18-.03-.26.77-.42.38-.06.03-.05.26 0 .27-.67.44-2.17-.32-2.61 1.29-.2-.27.06-.2-.05-.68-.26.67-.67 0-.83.89-.68.21-1.36-.52-1.91.39-.15-.12-.35-.09-.41-.45-.3.39-.83.76-1.17.18-4.32 1.5-8.87.92-13.24 2.24-1.03-.59-2.3.26-3.29.55-.32.11-.62-.55-.92.21-1.39.14-3.14-.15-4.32.74-.94-.64-1.94.12-2.93.18-.41.03-.77-.24-1.15-.09-.15.06-.32.33-.47.38-.64.17-1.3-.56-1.94-.3-.39.17-.68.61-1.03.61-1.12 0-2.58-.53-3.85.24-.33.2-.67-.2-.97-.08-.17.06-.35.45-.52.5-.59.18-1.38-.17-2 .12-.3.15-.64-.23-.97-.21-.7.02-1.36.8-1.94.12-.74.79-1.94.7-2.88.05-.05.09-.08.24-.09.39-.68-.49-1.38.65-2.05.26-.12-.05-.12.29-.18.39-.33-.27-.58-.08-.89.2-1.27-.91-2.2.45-3.28-.39-.61 1.02-1.29.45-1.91.67-.18.06-.35.58-.52.64s-.26-.26-.42-.3c-.11-.03-.23.24-.36.24-.2.02-.41-.42-.61-.45s-.38.36-.56.36c-.21 0-.39-.42-.59-.45-.52-.06-.97 1.52-1.58.15-.39.36-.82.29-1.3.58-.29.17-.58.61-.79.62-.14.02-.29-.27-.42-.3-.64-.15-1.27 1.21-1.94.39-.92 1-2.44-.77-3.03 1.53.02 1.05-.14 1.76-.35 1.88-.23.14-.33-.52-.64-.73-.38-.27-1.3-.61-1.76-.14-.18.17-.35.97-.52 1.05-.38.18-.76-1-1.15-.77-.27.15-.5 1.03-.62 1.05h-.01c-.36 0-.76-1.21-.85-1.85-.14-.11-.14.23-.27.12-.41-1.36-1.62-1.73-2.4-1.7-.12.02-.32-.11-.42-.17-1.05-.67-1.82-2.82-2.59-4.56-.02-.42-.09-.64-.14-.97-.36-.62-.64-1.5-1-2.12-.06-.86-.35-1.06-.35-2.08-.2-1.02-.44-1.79-.67-2.79-.21-.88-.52-1.73-.67-2.64-.26-1.47-.2-3.27-.52-4.82.11-2.64-.08-5.49-.06-8.88-.03-.26-.09-.38-.09-.71v-.11c.49-1.29.26-3.44.52-5.15.06-.45.29-.74.38-1.2.21-1 .29-2.17.39-2.97 1.27-1.55 1.93-5.09 2.99-7.26.03-.06.17.02.24-.12.42-.86 1.02-1.41 1.5-2.33.3-1.41.86-1.15 1.55-1.65.23-.18.35-.38.7-.5.47-.15.89-.88 1.35-1.12.52-.27.97.26 1.49.26.21 0 .45-.5.65-.5.45.02.71 1.43 1.06 1.73.29-.24.58-.53.88-.06.14 1.12.09 1.99.44 2.62.64.62 1.17-3.94 1.44-.85.61 1.5 1.59.91 2.4 1.15.56.17 1.12.59 1.67.68.55.08 1.08-.35 1.53.39.42-.65.82.08 1.24.23 1.27.47 2.52-.73 3.76.3.73-.65 1.67-.06 2.3.45.83-.73 1.59.44 2.32.32.49-.09.91-.55 1.35-.44.14.03.27.3.41.3.44-.02.85-.49 1.3-.3.41.15.8.94 1.24.23 1.2.71 2.84-.74 4.32.06.11.06.17.27.27.3.97.24 1.86-.86 2.73.21 1.06-.24 2.41-.21 3.52.15 1.02-.67 2.03-.08 3.02.09.74.12 1.55-.47 2.32-.5.29 0 .56.36.83.35.41-.05.8-.49 1.21-.45.73.05 1.44.14 2.18.17.65.03 1.33-.53 1.99-.52.26 0 .5.47.74.47.17-.02.33-.32.47-.38.8-.32 1.86 0 2.82-.05 1.33-.08 2.58-.05 4-.52 1.06.39 2.2-.18 3.38-.27 1.5-.11 3.09-.09 4.68-.32 1.7-.23 3.41-.77 5.06-.27.06.32.15.52.27.7.17.05.12-.62.32-.52.17-.09.08.52.18.56 1.44.14 2.87.41 4.21.74.24-.02 0 .45.18.56.77-.08 1.91.3 2.87.23.39-.03.82.11 1.21.23.09.03.06-.29.14-.26.12.05.05.32.14.41.02.02.23 0 .32.03.99.33 1.94-.15 2.93.09.18.36.17.39.45.45.23.05.18-.08.38-.24.03-.03.23-.06.29-.11.06.06-.02.32.03.39.18.35.77-.12 1.11-.05.42.11.89.61 1.39.52-.49.39-.88 1.11-1 2.65.47 1 1.38-.15 1.85.83 1.12-.53 2.53-.55 3.81-.38.11.03.15-.11.14-.41 1.3.61 2.64-.26 4.08.06-2.59.74-5.11.35-7.66 1.3-.56-.23-2.05-.38-2.91-.23-.53.09-.79 1.21-.55 2.82.68.85 1.26-.11 1.9.29.12.58.24 1.09.08 1.77-1.32.71-2.84-.17-3.9 1.06-.18-.3-.39-.08-.61-.05-.12.29-.18.73-.29 1.06.05.29.14.42.14.83 1.26 0 2.23 2.41 3.55 1.93.18.62.36 1.23.55 1.8.41-.14 1.05-.03 1.58-.41.12-.09.09.29.14.41 1.26-.32 2.4-.8 3.47 0-.94.33-1.94-.02-2.82.33-.15.12-.2.5-.29.79-.79-.39-1.97.09-2.93-.09-.14.49-.17 1.55.23 1.52-.12.32-.17.15-.33.11 0 .24.03.36.09.42-.52.05-.61.09-1.11.05-.11.11-.14.71-.06.96.42-.17.8.33 1.2.36.24.02.39-.44.61-.5.11-.03.11.27.23.3.12 0 .29-.38.38-.38.12-.02.18.24.32.29.5.18 1.03-.67 1.53-.56.39.09.76 1.05 1.21.77-.18.86-.5.32-.8.35-.99.12-2.14 1.18-2.97 1.14-.11.7.09.97.17 1.52.29-.21.47-.11.7-.23.14-.12-.06-.36.06-.53.62-.02 1.18-.36 1.9-.41.08.52.26.52.14 1.24.09-.05.12.11.18.15.18.06-.02-.18.05-.55.14.83.38-.15.52.45.8-.92 1.51.22 2.47-.86M482.84 171.99c-.22.57-.62-.28 0 0M483.74 166.19c-.08 0-.15 0-.24-.02-.06-.42.31-.39.24.02M483.97 166.89c-.15.18-.52.21-.61.09.18-.28.38-.2.61-.09M483.6 165.1c.08-.24.21-.3.29-.53.05.03-.2.89-.29.53M484.27 158.73c-.03.33-.27.39-.33.24.07-.27.21-.35.33-.24M484.88 183.35c-.35.38-1.09-.56-1.35.3-.06-.15-.17-.15-.23-.3-.82.86-1.7-.06-2.55.49.36-1.41 1.18.42 1.64-.82.38-.03 1.03.29 1.52-.56v.54c.3-.03.77-.16.97.35M485.57 159.41c0 .09-.11.21-.35.21.22-.33.35-.3.35-.21"/><path d="M464.18 159.73c-.03.33-.18.56-.27.26.04-.2.15-.25.27-.26M468.47 198.03c-.15.06-.21-.12-.32-.17.08-.17.35-.48.32.17M468.93 198.6c0 .39-.26.3-.32.11.01-.3.23-.03.32-.11M470.23 192.84c-.02.3-.23.03-.32.11.06-.21.24-.37.32-.11M471.06 198.63c-.09.42-.36.29-.56.36.11-.34.31-.46.56-.36M473.19 169.31c-.35-.39-.74.26-1.08-.08.29-.02.86-.56 1.08.08M474.32 181.83c.06.67-.67.08-.8.62-.11-.06-.18-.18-.27-.3-.12.05-.24.5-.36.11.34-.8.98.09 1.43-.43M477.4 184.26c-.06-.02-.12-.02-.18-.02-.02-.36.02-.59.14-.53.04.13.06.31.04.55M480.69 179.33c-.58.42-1.03 0-1.67.27.29-.61.94-.65 1.3-.17.05-.09.05-.32.14-.26.22-.06.7.18.23.16M479.57 186.2c-.05.33-.27.39-.33.24q.105-.285.33-.24M480.1 168.49c-.09.18-.32.39-.42.11.06-.3.28-.03.42-.11M480.1 183.65c.12.53-.33.44-.52.5.11-.34.37-.24.52-.5M480.36 185.72c-.12.33-.38.23-.56.36.09-.41.36-.29.56-.36M480.45 164.84c-.02.42-.21.36-.32.52.02-.46.2-.42.32-.52M481.25 168.46c-.32.3-.58.27-.92.2.15-.39.66-.27.92-.2M481.24 185.66c-.21.36-.53-.3-.79.08.24-.65.59-.15.79-.08M481.43 178.98c.03.59-.21.35-.36.38.09-.24.24-.27.36-.38M481.84 180.65c-.05.3-.26.03-.38.11.13-.34.22-.18.38-.11M482.19 182.73c-.11.05-.09-.21-.09-.42-.11-.06-.11.24-.23.12.05-.37.4-.43.32.3M482.84 171.99c-.22.57-.62-.28 0 0M483.97 166.89c-.15.18-.52.21-.61.09.18-.28.38-.2.61-.09M483.74 166.19c-.08 0-.15 0-.24-.02-.06-.42.31-.39.24.02M484.27 158.73c-.03.33-.27.39-.33.24.07-.27.21-.35.33-.24M485.57 159.41c0 .09-.11.21-.35.21.22-.33.35-.3.35-.21M475.64 159.14c-.24.61-.5-.17-.83.21.08-.18.18-.27.23-.53.15.55.41.06.6.32M481.78 172.04c-.53.79-1.68.2-2.14.38.06-.53.47-.05.52-.64.02-.44-.26-.08-.18-.7.12-.05.11.26.23.15.02.23-.05.23-.05.41.23.11.36-.11.56-.09-.03.11-.06.21-.06.39.27-.72.58.45 1.12.1M480.71 183.84c-.06.38-.68.17-.24.12.06-.03.03-.14 0-.14.01-.32.21-.06.24.02M482.39 183.02c0-.05.02-.09.03-.14.06.06.01.12-.03.14" class="st0"/><path d="M484.88 183.35c-.35.38-1.09-.56-1.35.3-.06-.15-.17-.15-.23-.3-.82.86-1.7-.06-2.55.49.36-1.41 1.18.42 1.64-.82.38-.03 1.03.29 1.52-.56v.54c.3-.03.77-.16.97.35M483.6 165.1c.08-.24.21-.3.29-.53.05.03-.2.89-.29.53M476.68 187.07c-.14-.6-.38.38-.5-.46-.08.36.12.62-.06.56-.06-.06-.08-.2-.18-.16.12-.72-.06-.72-.14-1.24-.7.04-1.26.4-1.88.4-.12.18.06.42-.06.54-.24.12-.42.02-.7.22-.08-.54-.28-.82-.18-1.52.84.06 2-1 2.98-1.12.3-.04.62.5.8-.36-.46.28-.82-.68-1.22-.78-.5-.1-1.02.76-1.52.56-.14-.04-.2-.3-.32-.28-.1 0-.26.38-.38.38-.12-.04-.12-.34-.22-.3-.22.06-.38.52-.62.5-.38-.04-.76-.54-1.2-.36-.06-.24-.04-.86.06-.96.5.04.6 0 1.12-.04-.06-.06-.1-.18-.1-.44.18.06.22.22.34-.1-.4.04-.36-1.02-.22-1.52.94.18 2.12-.3 2.92.1.08-.3.14-.68.28-.8.88-.34 1.88 0 2.82-.32-1.08-.8-2.2-.32-3.46 0-.06-.12-.02-.5-.14-.42-.54.38-1.18.28-1.58.42q-.27-.87-.54-1.8c-1.32.48-2.3-1.94-3.56-1.94 0-.4-.08-.54-.12-.82.1-.34.16-.78.28-1.06.22-.04.42-.26.6.04 1.06-1.24 2.58-.36 3.9-1.06.16-.68.04-1.2-.08-1.78-.64-.4-1.2.56-1.88-.28-.26-1.62 0-2.74.54-2.82.86-.16 2.34 0 2.9.22 2.56-.96 5.08-.56 7.66-1.3-1.44-.32-2.78.54-4.08-.06.02.3-.02.44-.14.4-1.26-.16-2.68-.14-3.8.38-.46-.98-1.38.18-1.84-.84.12-1.54.5-2.24 1-2.64-.5.08-.98-.42-1.4-.52-.34-.08-.92.4-1.1.04-.06-.06.02-.32-.04-.38-.06.04-.26.06-.28.1-.2.16-.16.28-.38.24-.3-.06-.28-.08-.46-.46-.98-.24-1.94.24-2.92-.08-.1-.04-.3-.02-.32-.04-.1-.08-.02-.36-.14-.4-.08-.04-.04.28-.14.26-.4-.12-.82-.26-1.22-.24-.94.08-2.08-.3-2.86-.22-.18-.1.06-.58-.18-.56-1.34-.34-2.78-.6-4.22-.74-.1-.06 0-.66-.18-.56-.2-.12-.14.56-.32.5-.12-.18-.2-.36-.26-.68-1.66-.5-3.38.04-5.06.26-1.6.24-3.2.22-4.7.32-1.18.1-2.32.68-3.38.28-1.42.46-2.66.44-4 .52-.96.04-2.02-.28-2.82.04-.14.06-.3.36-.46.38-.26 0-.5-.48-.76-.48-.64 0-1.32.56-1.98.52-.74-.02-1.46-.12-2.18-.16-.4-.04-.8.4-1.22.44-.26.02-.54-.34-.82-.34-.78.04-1.58.62-2.32.5-1-.16-2-.76-3.02-.08-1.12-.38-2.46-.4-3.52-.16-.86-1.08-1.76.02-2.74-.22-.1-.02-.16-.24-.26-.3-1.48-.8-3.12.66-4.32-.06-.44.72-.84-.08-1.24-.22-.46-.18-.88.28-1.32.3-.12 0-.26-.28-.4-.3-.44-.12-.86.34-1.36.44-.72.12-1.48-1.06-2.3-.32-.64-.52-1.58-1.12-2.32-.46-1.24-1.02-2.48.16-3.76-.3-.42-.16-.82-.88-1.24-.22-.46-.76-.98-.32-1.52-.4-.56-.1-1.12-.52-1.68-.68-.8-.24-1.78.34-2.4-1.16-.26-3.1-.8 1.48-1.44.86-.34-.64-.3-1.5-.44-2.64-.3-.46-.58-.18-.88.06-.34-.3-.6-1.7-1.06-1.72-.18 0-.44.5-.64.5-.52 0-.98-.52-1.5-.26-.44.24-.86.98-1.34 1.12-.34.12-.46.32-.7.5-.68.5-1.24.24-1.54 1.66-.48.92-1.08 1.46-1.5 2.34-.08.12-.22.06-.24.12-1.06 2.16-1.72 5.7-3 7.26-.1.8-.18 1.96-.38 2.96-.1.46-.32.76-.38 1.2-.26 1.72-.04 3.88-.52 5.16v.1c0 .34.06.46.08.72 0 3.4.18 6.24.06 8.88.32 1.56.26 3.36.52 4.82.16.92.46 1.76.68 2.64.22 1 .46 1.78.66 2.8 0 1 .28 1.2.34 2.08.38.62.64 1.5 1 2.12.06.32.12.54.14.96.78 1.74 1.56 3.9 2.6 4.56.1.06.3.18.42.18.78-.04 1.98.32 2.4 1.7.14.1.14-.24.26-.12.1.62.5 1.84.86 1.84h.02c.12-.02.34-.9.62-1.04.38-.24.76.94 1.14.76.18-.06.34-.88.52-1.04.46-.46 1.38-.14 1.76.14.3.2.42.86.64.72.22-.12.36-.82.34-1.88.6-2.3 2.12-.52 3.04-1.52.66.82 1.3-.56 1.94-.4.14.02.28.32.42.3.22-.02.5-.46.8-.62.48-.28.9-.22 1.3-.58.6 1.36 1.06-.2 1.58-.14.2.02.38.44.58.44.18 0 .36-.38.56-.36.2.04.42.48.62.46.12 0 .26-.28.36-.24.16.04.26.36.42.3s.34-.58.52-.64c.62-.2 1.3.36 1.9-.66 1.08.84 2-.52 3.28.38.32-.26.56-.46.9-.18.06-.12.06-.44.18-.4.66.4 1.36-.74 2.04-.26.02-.16.06-.3.1-.4.94.66 2.14.74 2.88-.04.58.68 1.24-.1 1.94-.12.34-.02.66.36.96.22.62-.3 1.42.06 2-.12.18-.06.36-.44.52-.5.3-.14.64.26.98.06 1.26-.76 2.72-.24 3.84-.24.36 0 .64-.44 1.04-.6.64-.26 1.3.46 1.94.3.14-.04.32-.32.46-.38.38-.16.76.12 1.16.1.98-.06 1.98-.82 2.92-.18 1.18-.9 2.94-.62 4.32-.76.32-.76.62-.1.94-.2.98-.3 2.26-1.14 3.28-.56 4.36-1.3 8.92-.74 13.24-2.24.34.58.86.22 1.16-.18.06.36.26.34.42.46.54-.92 1.22-.18 1.9-.4.18-.88.58-.22.84-.88.1.48-.16.4.04.68.44-1.62 1.94-.86 2.62-1.3-.06-.02-.06-.24 0-.26.16.38.24-.42.42-.38 1.2-.2 2.08-1.78 3.12-2.36.14.22.48.92.6.32-.2-.1-.44-.04-.4-.72.3.22.7-.06.92-.6.38-.06.6.28.92-.2.1 0-.06-.7.12-.68.54.36.8-.22 1.28.1.16-.62.72-.82.9-.46.14-.28-.18-.54-.04-.7.42-.2.84-.46 1.24-.04.1-.3.18-.68.34-.78.1-.04-.02.6.14.42.16-.36-.12-.64-.1-1.1.24-.22.18-.56.3-.94.3.38.52-.4.78-.62.3-.22.62 0 .9-.2.22-.16.34-.64.6-.64.22.02.4.5.64.48.14-.12-.08-.52.1-.56.86-.16 1.7-.32 2.32-1.18-.94 1.08-1.66-.06-2.5.9m-4.7 1.54c0 .16 0 .24.06.28-.12.66-.32-.3-.06-.28m1.44.66c-.22-.1-.32-.14-.44.38-.44-.38-.52.32-.88-.08.1-.64-.06-.48-.02-1.22.4-.06.92-.68 1.2-.18.08 0-.06-.78.06-.94.16.32.36.58.64.58.02 1.14-.54.46-.56 1.46M165.09 406.94c-7.05 0-13.21 1.48-18.31 4.41-3.94 2.26-7.75 5.16-11.35 8.65v-35.84c0-2.57-.92-4.8-2.74-6.62-1.82-1.81-4.04-2.74-6.62-2.74-2.52 0-4.7.91-6.49 2.7s-2.69 4.03-2.69 6.66v105.15c0 2.52.91 4.71 2.69 6.49 1.79 1.79 3.97 2.7 6.49 2.7 2.51 0 4.71-.9 6.56-2.68 1.86-1.79 2.8-3.98 2.8-6.51v-49.85c8.18-10.03 16.91-15.12 25.96-15.12 11.33 0 16.85 6.18 16.85 18.9v46.07c0 2.52.91 4.7 2.7 6.49s3.97 2.7 6.49 2.7c2.56 0 4.79-.9 6.64-2.67 1.86-1.79 2.8-3.98 2.8-6.52v-47.8c0-9.72-2.87-17.98-8.52-24.55-5.73-6.65-13.55-10.02-23.26-10.02M281.32 417.95c-2.9-3.36-6.82-6.08-11.68-8.04-4.8-1.96-10.32-2.96-16.42-2.96-10.08 0-20.08 2.08-29.68 6.2-3.58 1.44-5.46 4.18-5.46 7.92 0 2.24.78 4.16 2.34 5.68 1.54 1.5 3.4 2.28 5.54 2.28.74 0 1.6-.14 2.72-.42 7.96-2.62 15.3-3.94 21.84-3.94 7.26 0 12.64 1.52 15.98 4.5 3.26 2.92 4.92 7.8 4.96 14.48h-18.74c-12.94 0-22.96 2.6-29.8 7.72-6.98 5.24-10.5 12.34-10.5 21.1 0 8.14 2.88 14.72 8.56 19.6 5.62 4.82 12.52 7.26 20.5 7.26 11.8 0 21.88-3.56 29.98-10.58v.56c0 2.52.92 4.7 2.7 6.5 1.78 1.78 3.98 2.7 6.5 2.7 2.5 0 4.7-.9 6.54-2.68 1.86-1.8 2.8-3.98 2.8-6.52v-47.64c0-4.44-.74-8.72-2.18-12.7-1.46-4-3.64-7.72-6.5-11.02m-9.86 53.08c-2.9 3.2-6.52 5.94-10.74 8.18-4.38 2.3-8.94 3.46-13.58 3.46-5.9 0-10.14-1.1-12.58-3.28-2.42-2.16-3.6-4.96-3.6-8.56 0-2.88 0-11.66 23.74-11.66h16.76zM382 407.76c-2.51 0-4.71.9-6.56 2.68-1.86 1.79-2.8 3.98-2.8 6.51v49.93c-8.18 9.98-16.91 15.04-25.96 15.04-11.33 0-16.85-6.16-16.85-18.82v-46.16c0-2.52-.91-4.7-2.7-6.49s-3.97-2.7-6.49-2.7c-2.51 0-4.72.9-6.55 2.68-1.86 1.79-2.8 3.98-2.8 6.51v47.8c0 9.72 2.85 17.98 8.48 24.55 5.69 6.65 13.5 10.02 23.21 10.02 7.04 0 13.2-1.48 18.31-4.4 3.94-2.26 7.75-5.16 11.35-8.65v2.88c0 2.57.92 4.8 2.74 6.62s4.04 2.74 6.62 2.74c2.52 0 4.7-.91 6.49-2.7s2.69-4.03 2.69-6.66v-72.19c0-2.52-.91-4.7-2.69-6.49-1.79-1.79-3.97-2.7-6.49-2.7M539.63 418.24c-2.33-3.38-5.52-6.14-9.46-8.2s-8.48-3.1-13.48-3.1c-13.16 0-23.46 5.25-30.66 15.61-2.1-3.92-5.08-7.35-8.89-10.23-4.73-3.57-10.49-5.38-17.12-5.38-3.92 0-7.58.49-10.89 1.46-3.34.98-6.28 2.39-8.72 4.2-2.37 1.75-4.34 3.45-5.84 5.04-.5.53-1 1.08-1.49 1.66v-2.18c0-2.52-.93-4.73-2.78-6.58-1.85-1.84-4.06-2.78-6.57-2.78-2.53 0-4.72.94-6.51 2.8-1.78 1.84-2.68 4.05-2.68 6.55v72.19c0 2.52.91 4.7 2.7 6.49s3.97 2.7 6.49 2.7c2.51 0 4.71-.9 6.55-2.67 1.86-1.79 2.8-3.98 2.8-6.52v-49.97c1.2-1.96 2.42-3.72 3.62-5.22 1.28-1.59 2.87-3.22 4.73-4.84 1.78-1.55 3.9-2.78 6.29-3.63 2.41-.86 5.09-1.3 7.95-1.3 5.67 0 9.7 1.51 11.96 4.49 2.37 3.12 3.57 8.19 3.57 15.07v45.42c0 2.52.91 4.71 2.7 6.49 1.79 1.79 3.97 2.7 6.49 2.7 2.51 0 4.71-.9 6.56-2.68 1.86-1.79 2.8-3.98 2.8-6.51v-49.97c1.2-1.96 2.42-3.72 3.62-5.22 1.27-1.58 2.86-3.21 4.73-4.84 1.78-1.55 3.9-2.78 6.29-3.63 2.41-.86 5.09-1.3 7.95-1.3 5.67 0 9.7 1.51 11.96 4.49 2.37 3.12 3.57 8.19 3.57 15.07v45.42c0 2.52.91 4.71 2.69 6.49 1.79 1.79 3.97 2.7 6.49 2.7 2.56 0 4.79-.9 6.64-2.67 1.86-1.79 2.8-3.98 2.8-6.52v-48.46c0-4.02-.58-8.01-1.71-11.84a37.8 37.8 0 0 0-5.15-10.8M631.1 417.95c-2.9-3.36-6.82-6.08-11.66-8.04-4.8-1.96-10.34-2.96-16.42-2.96-10.1 0-20.1 2.08-29.7 6.2-3.56 1.44-5.46 4.18-5.46 7.92 0 2.24.8 4.16 2.34 5.68 1.56 1.5 3.42 2.28 5.54 2.28.76 0 1.6-.14 2.74-.42 7.94-2.62 15.3-3.94 21.82-3.94 7.28 0 12.66 1.52 16 4.5 3.24 2.92 4.92 7.8 4.96 14.48h-18.74c-12.96 0-22.98 2.6-29.8 7.72-6.98 5.24-10.52 12.34-10.52 21.1 0 8.14 2.88 14.72 8.58 19.6 5.62 4.82 12.5 7.26 20.48 7.26 11.82 0 21.88-3.56 30-10.58v.56c0 2.52.9 4.7 2.7 6.5 1.78 1.78 3.96 2.7 6.48 2.7s4.72-.9 6.56-2.68c1.86-1.8 2.8-3.98 2.8-6.52v-47.64c0-4.44-.74-8.72-2.2-12.7-1.46-4-3.64-7.72-6.5-11.02m-9.84 53.08c-2.9 3.2-6.52 5.94-10.76 8.18-4.36 2.3-8.92 3.46-13.56 3.46-5.92 0-10.16-1.1-12.6-3.28-2.42-2.16-3.6-4.96-3.6-8.56 0-2.88 0-11.66 23.76-11.66h16.76zM720.37 480.12h-39.66l44.81-52.55c1.81-2.31 2.73-4.92 2.73-7.74 0-3.29-1.08-6.01-3.21-8.07-2.11-2.05-4.87-3.09-8.2-3.09h-51c-2.48 0-4.57.87-6.23 2.6-1.64 1.7-2.47 3.81-2.47 6.26 0 2.47.84 4.55 2.49 6.21 1.65 1.65 3.74 2.49 6.21 2.49h38.96l-46.02 52.9c-2.07 2.38-3.11 5.06-3.11 7.97 0 3.36 1.22 6.02 3.63 7.9 2.28 1.78 5.18 2.69 8.6 2.69h52.48c2.45 0 4.56-.83 6.26-2.47 1.72-1.65 2.6-3.75 2.6-6.23 0-2.47-.87-4.58-2.57-6.29-1.72-1.71-3.83-2.58-6.3-2.58M818.14 419.77c-8.16-8.52-19.06-12.82-32.38-12.82-13.38 0-24.3 4.3-32.48 12.78-8.14 8.46-12.28 19.72-12.28 33.44 0 13.74 4.14 24.98 12.28 33.42 8.18 8.44 19.1 12.74 32.48 12.74 13.32 0 24.2-4.3 32.38-12.78 8.14-8.46 12.28-19.7 12.28-33.38s-4.14-24.92-12.28-33.4m-8.64 46.76c-1.58 3.84-3.64 6.86-6.16 9.02-2.58 2.18-5.38 3.84-8.34 4.92a26.8 26.8 0 0 1-9.24 1.62c-3.2 0-6.32-.54-9.32-1.62-2.96-1.08-5.78-2.74-8.36-4.92-2.52-2.14-4.58-5.16-6.12-8.98-1.54-3.86-2.34-8.42-2.34-13.56 0-5.08.8-9.6 2.34-13.42 1.54-3.8 3.6-6.8 6.12-8.94 2.58-2.2 5.38-3.84 8.36-4.88 2.98-1.06 6.12-1.6 9.32-1.6 3.18 0 6.3.54 9.26 1.6 2.94 1.04 5.74 2.68 8.32 4.88 2.52 2.14 4.6 5.14 6.16 8.94 1.58 3.84 2.38 8.34 2.38 13.42s-.8 9.62-2.38 13.52M90.12 404.75c-.08 0-.16.02-.22.1.08.14.2.04.22-.1M93.22 421.51c.08.02.12.1.24.06.02-.28-.18-.14-.24-.06M93.56 421.89c.06.08.26.12.26-.06-.08.04-.24-.08-.26.06M94.58 419.35c.08-.04.24.08.26-.06-.06-.1-.2-.04-.26.06M95.48 421.85c-.2-.04-.34 0-.44.16.16-.04.36.02.44-.16M97.12 408.95c-.14-.28-.6-.04-.82-.04.26.16.56-.14.82.04M96.9 414.65c.1.16.18-.02.28-.04.06.04.14.1.22.12.1-.24.66.02.62-.28-.36.24-.86-.16-1.12.2M100.26 415.51c.06 0 .1.02.16.02 0-.12-.02-.2-.04-.24-.1-.02-.12.08-.12.22M102.98 413.35c.36.02-.02-.1-.18-.06-.08-.02-.08.08-.12.12-.28-.22-.78-.2-1 .06.48-.12.84.08 1.3-.12M102.1 416.37c-.12 0-.2.02-.26.12.04.06.22.04.26-.12M102.5 408.59c-.08.04-.28-.08-.32.06.08.12.26.02.32-.06M102.5 415.25c-.1.12-.3.08-.4.24.14-.04.5 0 .4-.24M102.72 416.17c-.16.04-.38-.02-.44.16.14-.06.34-.02.44-.16M102.78 406.99c-.1.04-.24.02-.24.22.08-.06.22-.04.24-.22M103.42 408.57c-.2-.02-.62-.08-.74.1.28.04.48.04.74-.1M102.78 416.17c.2-.16.44.12.62-.04-.16-.02-.44-.24-.62.04M103.56 413.21c-.1.04-.22.06-.3.16.12-.02.32.1.3-.16M103.86 413.93c-.12-.02-.2-.1-.28.06.08-.04.26.08.28-.06M104.14 414.85c.06-.32-.22-.28-.26-.14.1.06.1-.08.2-.04 0 .1-.02.2.06.18M104.64 410.13c-.48-.12-.16.24 0 0M105.52 407.89c-.18-.04-.32-.08-.48.04.08.06.36.04.48-.04M105.16 407.57c.06 0 .12 0 .18.02.06-.2-.24-.2-.18-.02M105.76 404.29c-.1-.04-.22 0-.26.12.04.06.22.04.26-.12M106.5 404.69c.18 0 .26-.06.26-.08 0-.06-.1-.06-.26.08M99.04 404.47c-.16-.1-.36.12-.46-.14-.04.12-.14.16-.2.24.28-.16.48.18.66-.1M102.96 410.11c0-.08.02-.12.04-.18-.16 0-.26.1-.44.04 0-.06.04-.08.04-.18-.1.06-.1-.08-.18-.06-.06.28.14.12.14.3-.04.28-.36.06-.4.3.36-.08 1.26.16 1.66-.18-.42.16-.66-.36-.86-.04M102.8 415.33c.02 0 .04.06 0 .06-.34.02.14.12.18-.06-.02-.02-.18-.14-.18 0M105.48 414.97v-.24c-.38.38-.88.24-1.18.24.04 0 .06-.02.02-.06-.02.02-.02.04-.04.06-.36.54-1-.24-1.26.38.66-.26 1.34.16 1.98-.22.04.06.14.06.18.12.2-.38.78.04 1.04-.12-.14-.22-.52-.18-.74-.16M105.46 406.87c-.06.1-.16.12-.22.22.08.16.26-.22.22-.22" class="st0"/><path d="M98.26 417.29c.22-.1.46 0 .68-.1.18-.06.26-.28.48-.26.16 0 .32.2.5.2.1-.06-.06-.24.08-.24.58-.06 1.14-.12 1.6-.4-.64.26-1.14-.12-1.74.26-.1-.26-.3.18-.4-.18-.04.14.1.26-.04.24-.04-.04-.06-.1-.14-.08.08-.32-.04-.32-.1-.54-.56.02-1 .16-1.48.18-.1.06.06.18-.04.24-.18.04-.32 0-.54.08-.08-.24-.22-.34-.14-.66.66.02 1.54-.44 2.32-.5.24-.02.48.24.62-.14-.36.1-.64-.32-.94-.36-.4-.04-.82.34-1.2.26-.1-.02-.14-.14-.24-.14-.08 0-.22.18-.3.18-.1-.02-.1-.14-.18-.14-.16.04-.28.24-.46.22-.32 0-.6-.24-.94-.16-.06-.1-.04-.38.04-.42.4.02.46 0 .86-.02q-.06-.03-.06-.18c.12.02.16.1.26-.04-.3 0-.28-.46-.18-.68.74.08 1.66-.12 2.28.04.06-.12.1-.3.22-.34.68-.16 1.46 0 2.2-.14-.84-.36-1.72-.16-2.7 0-.04-.06-.02-.24-.12-.2-.42.18-.9.14-1.22.2-.14-.26-.28-.54-.42-.8-1.04.22-1.78-.84-2.76-.86 0-.18-.08-.22-.1-.36.08-.14.12-.34.22-.46.16-.02.32-.12.46.02.84-.54 2-.16 3.04-.46.12-.3.02-.54-.06-.8-.5-.16-.94.26-1.48-.12-.18-.7.02-1.2.42-1.24.68-.06 1.84 0 2.28.1 1.96-.42 3.92-.24 5.96-.58-1.14-.12-2.18.24-3.18-.02q0 .21-.12.18c-.98-.08-2.08-.06-2.96.16-.36-.42-1.06.08-1.42-.36.08-.68.38-.98.76-1.16-.38.04-.74-.18-1.08-.22-.26-.04-.72.16-.86.02-.04-.04.04-.18-.04-.18-.06 0-.18.02-.2.04-.16.08-.12.12-.3.1-.22-.02-.22-.04-.36-.18-.76-.12-1.5.1-2.26-.04-.08-.02-.24-.02-.26-.02-.08-.04-.02-.16-.1-.18-.06-.02-.04.12-.12.1-.3-.04-.64-.1-.94-.1-.74.04-1.62-.12-2.22-.1-.14-.04.04-.24-.14-.24-1.06-.14-2.16-.26-3.28-.32-.08-.02-.02-.3-.14-.26-.16-.04-.12.26-.26.24a1 1 0 0 1-.22-.32c-1.28-.22-2.6.04-3.92.14-1.24.08-2.48.08-3.64.14-.94.02-1.82.28-2.64.12-1.12.2-2.08.18-3.1.22-.76.02-1.58-.12-2.2.02-.12.02-.24.16-.38.16-.12 0-.24-.08-.36-.14v-17.18c0-2.54-.9-4.74-2.7-6.52a10 10 0 0 0-1.42-1.18c-1.48-1.02-3.2-1.52-5.1-1.52-2.48 0-4.64.88-6.4 2.66-1.76 1.76-2.66 3.96-2.66 6.56v17.22c-.1-.06-.2-.12-.32-.14-.36-.08-.68.12-1.02.12-.1.02-.2-.12-.32-.12-.34-.06-.66.14-1.04.18-.56.06-1.16-.46-1.8-.14-.5-.22-1.24-.48-1.8-.2-.96-.44-1.94.08-2.92-.12-.34-.08-.64-.4-.98-.1-.34-.32-.76-.14-1.18-.18s-.86-.22-1.3-.3c-.62-.1-1.4.16-1.86-.5-.22-1.36-.64.64-1.12.36-.28-.26-.24-.66-.36-1.14-.22-.22-.44-.08-.68.02-.26-.14-.46-.74-.82-.76-.16 0-.34.22-.5.22-.4 0-.76-.22-1.16-.1-.34.1-.68.42-1.04.48-.28.06-.38.14-.56.22-.52.22-.96.1-1.2.72-.38.42-.84.66-1.16 1.04-.06.06-.16.02-.18.04-.84.96-1.36 2.52-2.34 3.2-.08.36-.14.86-.3 1.32-.08.18-.24.32-.3.52-.2.74-.02 1.7-.4 2.26v.06c0 .14.06.2.08.3-.02 1.5.12 2.76.04 3.9.26.7.2 1.48.4 2.12.12.4.36.78.52 1.18.18.42.36.76.52 1.22 0 .44.22.52.28.9.28.28.48.68.78.94.02.16.08.24.1.42.6.78 1.2 1.72 2.02 2.02.06.02.22.08.32.08.6-.02 1.54.14 1.86.74.12.04.1-.1.22-.06.06.3.38.82.66.82h.02c.08-.02.26-.4.46-.46.32-.1.62.42.9.34.14-.04.28-.38.4-.46.36-.22 1.08-.06 1.38.06.24.1.32.38.5.32.16-.06.28-.36.26-.84.46-1 1.64-.22 2.36-.66.52.36 1.02-.24 1.52-.18.1.02.22.14.32.14.16-.02.4-.2.62-.28.38-.12.7-.1 1-.26.48.6.84-.08 1.24-.06.14.02.3.2.46.2.14 0 .28-.18.44-.16s.32.2.46.2c.12 0 .2-.12.3-.1.12.02.2.16.32.14.14-.04.26-.26.4-.3.48-.08 1.02.16 1.48-.28.84.38 1.56-.22 2.56.16.24-.12.42-.2.68-.08.06-.04.06-.18.16-.18.2.08.4.04.62-.02v48.34c0 13.54 5.56 21.78 16.9 24.96 3.38 1.24 7.48 1.9 12.42 1.9 6.1 0 11.78-1.2 16.84-3.56 2.74-1.34 4.32-3.36 4.72-6.02.46-3.06-.96-6.22-3.52-7.86a7 7 0 0 0-3.9-1.14c-.94 0-2.56.3-4.86.92-2.42.62-4.88.92-7.34.94-3.08.04-6.22-.16-8.72-1.42-.42-.26-.84-.52-1.16-.84-.84-.8-1.54-1.98-2.18-3.6-.62-1.6-.92-3.56-.92-5.86v-47.94c.72-.06 1.5-.02 2.18-.08.24-.32.48-.04.72-.08.78-.14 1.76-.5 2.56-.24 3.4-.58 6.94-.34 10.3-.98.26.24.68.08.9-.08.06.14.2.14.32.18.42-.4.96-.06 1.48-.16.14-.4.46-.1.66-.4.08.22-.12.18.04.3.34-.7 1.5-.38 2.02-.56-.04 0-.04-.12 0-.12.14.16.18-.18.34-.18.94-.08 1.62-.76 2.42-1.02.1.1.38.4.48.14-.16-.04-.34-.02-.32-.32.24.1.56-.04.72-.26.3-.04.46.12.72-.1.06.02-.06-.3.08-.28.42.14.62-.12 1 .04.12-.28.56-.36.7-.22.12-.12-.14-.22-.04-.3.34-.08.66-.2.98-.02.08-.12.12-.3.26-.34.08-.02-.02.28.1.18.12-.16-.1-.28-.06-.48.16-.1.14-.24.22-.4.24.16.4-.18.62-.28" class="st0"/></svg>