<svg xmlns="http://www.w3.org/2000/svg" xml:space="preserve" id="Layer_1" x="0" y="0" version="1.1" viewBox="0 0 1343 347"><style>.st0{fill-rule:evenodd;clip-rule:evenodd}</style><path d="M25.53 173.34c.07 0 .21.83.25 2.86-.35-1.74-.35-2.86-.25-2.86M25.35 184.33c.32.27.55 2.27.44 2.73-.3-.54-.45-1.76-.44-2.73M31.75 189.2c-.3-.56-.51-1.61-.75-2.23-.03-.33.99 1.44.75 2.23M32.63 188.05l.21 1.85c-.32.58-.66-2.4-.21-1.85M33.1 186.19c.23 1.11.68 4.02.65 4.78-.44-1.49-.62-2.98-.65-4.78M38.07 216.56c-.45 0-.89-1.41-1.31-2.38.45.1.88 1.55 1.31 2.38M38.9 194.24c.82 1.67.58 4.78 0 0M38.23 207.08c1 2.41 1.45 4.3 2.23 7-.75-1.01-1.73-5.03-2.23-7M42.06 218.94c-.41-.28-.76-2.17-1.16-3.09.4.64 1.14 2.23 1.16 3.09M43.64 214.42c-.41.04.58 1.92-.17 1.52-.31-.82-.01-.8-.44-1.73.17-.16.32.27.49.24-.49-1.72-.97-2.61-1.38-4.09.16.17.31.32.48.27-1.2-1.76-.89-4.28-2.09-8.31 1.41 3.8 3.59 12.41 4.95 15.67-.63-.33-1.19-3.4-1.84-3.57M47.38 203.33c.48-.32.66 1.47 1.03 2.55-.38-.58-.73-1.65-1.03-2.55M48.23 200.12c.34.2.45 1.83.7 2.59-.47-.7-.5-1.42-.7-2.59M49.31 197.95c.13.79.38.68.48 1.61-.42-.28-1.01-2.7-.23-2.31.18.69-.05.64-.25.7M47.53 185.19l.51-.01c-.15-2.1-.62-5.47-.14-6.89.17 1.23.24 3.17.3 5.03.03 1.85.24 3.61.76 4.44-.08.44.01 1.21-.07 1.65 1.56 5.61 1.93 11.93 4.17 17.55-2.03-2.14-1.79-8.14-3.44-11.03-.06-.11-.11-.21-.18-.31-.01-.46.1-.1.17.23-.23-1.3-.54-3.11-.82-5.02-.28-1.95-.7-3.97-1.26-5.64M49.13 208.5c1.59 3.92 2.3 7.21 4.28 11.43-.65-.87-1.42-2.41-2.1-4.07-.59-1.68-1.08-3.48-1.3-4.79-.18-.31-.39-.27-.56-.9-.49-1.51-1.23-4.96-.32-1.67M53.29 257.87c-.52-.42-1.11-1.11-1.55-1.32-.28-1.3-1.97-2.8-2.65-4.31 1.55 1.35 2.24 3.47 4.2 5.63M53.72 203.18c.75 1.39.76 3.69 1.58 5.27-1.01-1.44-1.24-3.91-1.58-5.27M53.13 207.28c.41.3 1.56 4.45.56 1.55-.13-.35-.18-.16-.13.03-.3-.02-.44-1.37-.43-1.58M55.88 214.65c-.59-.63-1.07-2.4-1.62-3.27.18-1.02 1.13 2.12 1.62 3.27M57.06 212.63c-.56-.46-1.04-2.28-1.56-3.58.56.69 1.04 2.43 1.56 3.58M58.75 216.14c-.35-.38-.7-1.1-1.04-2.03.37.11 1.03 1.63 1.04 2.03M61.9 229.11c-.01-.28.1-.44.31-.49l.59 1.16c-.27.22-.57.12-.9-.67M74.5 268.32c-1.62-1.52-5.11-4.51-5.73-6.1 1.56 2.26 4.14 4.12 5.73 6.1M75.73 252.33c-1.21-1.42-2.34-3-3.54-4.13.11-.38.86.55 1.7 1.61.83 1.07 1.87 2.21 2.35 2.41.47.62.76 1.13 1.08 1.66.61.66 1.48 1 1.86 1.9-1.15-.63-2.28-2.01-3.45-3.45M101.4 255.3c-.77-.15-1.72-.87-2.89-2 .69.07 1.83 1.31 2.89 2M99.17 260.84c.3-.13 1.2.9 1.75 1.24-.46-.11-1.46-.72-1.75-1.24M110.84 262.45c-.28.15-1.23-.75-1.78-1.01.24-.29 1.55.66 1.78 1.01M112.83 264.66c-.54-.14-2.11-.82-1.63-1.23.82.47 1.06.83 1.63 1.23M127.04 309.14c-.54.03-1.38-.13-2.32-.46.31-.21 1.62-.01 2.32.46"/><path d="M307.66 173.96c-.13 2.99-.11 5.95-.42 8.9-.13 1.48-.25 2.97-.39 4.47-.18 1.48-.38 2.99-.58 4.49-.68 5.38-1.31 10.96-2.62 16.29-.54 1.96-1.52 3.8-2.07 5.75-.34 1.3-.55 2.66-.85 3.79-1.79 6.45-5.42 14.48-9.17 21.49-1.27 2.45-2.66 4.78-4 7.11-1.45 2.25-2.8 4.56-4.35 6.78-1.55 2.21-3.07 4.48-4.78 6.68-.85 1.11-1.68 2.25-2.56 3.37-.9 1.11-1.82 2.24-2.75 3.4-6.09 6.34-12.55 13.2-20.39 19.24-9.93 7.61-21.51 14.24-33.8 19.17-6.58 2.65-13.33 4.96-20.2 6.54-6.88 1.61-13.83 2.69-20.72 2.89-.51-.25-1.37-.38-2.28-.48-1.48.06-1.06.62-2.71.58-1.32.13-.62-.45-1.52-.48-5.97.15-11.89-.28-17.7-.9-5.79-.76-11.44-1.75-16.82-3.17-1.9-.42.04-.42-1.34-.83-6.3-1.38-15.12-4.51-22.37-7.57-2.89-1.25-6.13-2.82-8.85-4.41-.73-.42-.65-.03-1.14-.32-.87-.49-.17-.42-.8-.85-.11-.06-1.62-.85-2.31-1.31-6.86-4.17-13.61-8.19-19.72-13.47-.94-1.17-.87-1.18-2.61-2.73-1.32-1.21-1.18-.94-2.45-1.83-.17-.08-1.63-1.41-1.87-1.62.01.03.03.04.04.07-.1-.1-.11-.11-.06-.08-.15-.24.31-.1.14-.35-.41-.61-1.56-1.66-2.86-2.82a59 59 0 0 1-3.61-3.55c-.56-.63-1.14-1.3-1.7-2l-1.69-2.21c-1.14-1.49-2.37-3.03-3.63-4.62 1.35 1.47 2.73 2.63 3.94 3.45 1.21.8 2.27 1.21 3.11 1.1-.86-1.76-2.76-3.75-4.47-5.87-1.73-2.13-3.47-4.25-4.14-6.07-5.62-6.89-11.36-16.71-15.13-26.15-.27-.75-.52-1.06-.77-.92-3.38-9.75-7.16-19.84-8.64-31.35 1.89 10.21 4.69 20.09 8.52 29.46 3.85 9.37 8.68 18.29 14.78 26.29.59.93 1.47 2.24 2.51 3.76 1.04 1.51 2.35 3.17 3.68 4.9 1.34 1.73 2.86 3.41 4.25 5.03 1.41 1.61 2.86 3.03 4.06 4.25 2.97 2.9 5.2 3.45 4.83 1.08-3.24-4.17-6.9-6.92-9.85-10.93-.17-1-.35-2.09.89-1.51 3.54 3.65 7.11 7.72 10.93 11.21 3.72 3.59 7.61 6.65 11.16 8.66.92 1.11 2.38 1.85 3.68 2.75.87.3 1.54.25 2.34.44-.08-.38-.62-.92-.37-1.2-1.93-1.38-3.69-2.76-5.24-4.28-1.58-1.49-3.06-2.99-4.45-4.58-.72-.77-1.44-1.56-2.16-2.34-.72-.8-1.44-1.61-2.17-2.42-.73-.82-1.52-1.61-2.32-2.44a65 65 0 0 0-2.48-2.52c-.48-1.32-.97-2.66-1.44-4.07-2.13-2.18-4.93-5.78-7.52-8.73-.61-.7-.16-.68-.25-1.04-5.59-7.27-10.06-14.41-12.58-21.96 3.07 6.2 6.26 12.74 10.14 17.93.65.82 1.17.94 1.76 1.3 2.87 4.97 8.58 11.33 13.33 16.37.99.37 1.85-.15-.07-2.13.76.37.92.76 1.68 1.62.18-.13.08-.39-.16-.73 1.27 1.34 2.11 2.01 2.87 2.76.79.72 1.52 1.49 2.87 2.69.59.39 1.16.14.89-.39-1.23-.9-2.16-2.01-3.11-3.04-.94-1.04-1.86-2.06-2.78-3.07-1.13-1.21-2.23-1.75-3.3-2.79-.49-.54-.32-.76-.86-1.41-.49-.61-1.55-1.25-2-1.78-.58-.68-.68-1.11-1.24-1.93-1-1.42-2.28-2.73-3.49-4.11-1.2-1.39-2.42-2.8-3.4-4.3-1.41-2.4-2.11-4.96-3.85-7.59 1.31.66 1.96 2.83 3.17 4.59 3.83 5.92 9.58 11.58 13.5 15.89.97.06.23-1.04.24-1.83-1.39-1.32-2.14-2.34-3.3-3.49-.68-.62.01.56-.62.04-1.32-1.7-2.71-3.23-4.03-4.92-1.28-1.7-2.73-3.41-4.06-5.54.14-.66-.52-1.7.49-1.37-.41-.54-.37-.76-.56-1.14-.66-1.13-.13.13-.62-.03.15-1.13-1.48-2.17-1.42-3.23-3.72-4.61-4.92-9.44-8.3-15.23 2.27 3.78 4.9 9 7.9 14.02.65 1.07.24-.38.76.32.87 1.42 1.07 2.76 1.9 4.02.99 1.56 1.73 1.92 2.73 3.18 1.27 1.44 2.32 3.35 3.66 4.79 1.35 1.37 2.76 2.04 3.8 3.87.76.34.8-.07 1.93.9.51-.08-.52-1.65.42-1.08.86.73-.24.41.28.94.8.77 1.37.86 2.01 1.18.73 1.14 1.68 2.13 2.65 3.11.96 1 2.04 1.9 3.17 2.83.75.51-.68-1.18.25-.63.31.51 1.18 1.38 2.1 2.16.94.76 1.97 1.37 2.51 1.45 2.18 2.37 3.97 3 6.58 5.45.97.7.47-.45.9-.13 1.07.46 1.8.96 2.55 1.51.72.56 1.48 1.16 2.56 1.8 1.42.32 3.79 1.55 5.48 2.69.41-.48-.97-1.2-1.96-1.9.94-.06 2.58 1.59 3.21 2.2 6.18 2.8 11.85 3.83 19.19 6.18 1.08.39 1.78-.15 2.63.54.37.07.37-.15.08-.24 2.1.37 5.35 1.44 8.54 2.03 1.58.38 3.14.56 4.48.65 1.35.07 2.48.08 3.21-.23 1.14.39-.47.13.15.66 1.7-.44 4.18.56 5.34-.18 4.25.17 8.51 1.01 11.89.08.94.07 2.18.03 2.59.35.93-.18 2.2-.46 3.49-.63 1.3-.18 2.65-.17 3.72-.07 13.3-2.1 26.5-6.4 38.46-13.14 11.93-6.72 22.57-15.89 30.49-26.67 4.48-4.58 8.12-11.58 10.65-17.02.77-1.79 2.21-3.1 2.32-5.14 1.78-3.8 3.4-8.27 4.78-12.64.56-2.23 1.25-4.38 1.58-6.49.18-1.04.35-2.07.52-3.06.13-.99.18-1.94.25-2.85 1.56-5.45 1.49-11.57 1.42-17.54.01-1.23.01-2.4.01-3.54.01-1.16.04-2.3-.14-3.45-.13-.89-.45-1.8-.56-2.78-.2-1.92-.42-3.86-.51-5.83-.2-1.94-.45-3.9-.93-5.76-.7-2.23-1.38-3.87-1.99-5.83-1.7-6.42-4.44-14.86-8.71-21.23-1.14-1.62-1.79-3.54-2.85-5.07-.61-.82-1.47-1.48-2.06-2.32-.99-1.45-2.23-3.09-3.38-4.82-1.27-1.65-2.51-3.35-3.8-4.62-1.32-1.3-2.3-3.04-3.71-4.45-.73-.75-1.48-1.48-2.23-2.16-.79-.66-1.55-1.31-2.3-1.93-1.45-1.31-2.92-2.42-3.99-3.8-3.82-2.3-9.41-6.49-13.98-9.82-.27-.06-.48-.01-.68.04-3.27-2.49-7.48-3.3-10.88-5.23-.62-.31-.75 0-1.18-.08-1.73-.92-3.04-1.34-4.9-1.68-3.4-1.63-6.57-2.45-9.61-3.06-3.04-.65-5.97-1.06-9.04-1.94-3.59.46-7.5-.46-11.23-.35-1.01.03-2.04.48-3.04.51-.94.04-1.52-.21-2.42-.23-.68-.01-1.34.25-2.17.27-1.13 0-2.35-.23-3.54-.18-1.17.07-2.17.45-3.21.62-1.25.17-2.41-.1-3.54.03-3.01.42-5.28 2.28-9.03 1.9-1.1.39-2.23.82-3.41 1.21-1.2.41-2.47.77-3.73 1.39-1.51.69-2.99 1.55-4.16 2.07-.7.28-1.62.37-2.32.62-1.78.58-3.31 1.7-4.95 2.62-1.58 1.03-3.2 1.97-5.09 2.56-1.01.87-2.32 1.68-3.71 2.51-1.34.9-2.82 1.73-4.18 2.66-1.32.94-2.63 1.85-3.63 2.82-.99 1-1.75 1.96-2.07 2.9.7.69.42 1.72-.37 2.58-.87.94-1.76.89-3.17 1.86-.86.66-2.31 1.8-3.69 3.11-1.32 1.35-2.72 2.73-3.37 3.87-.52.86-.62 2.1-1.18 2.85-.62.82-1.39 1.52-2.25 2.21-.85.72-1.73 1.44-2.28 2.45-.76 1.34-.8 2.78-1.18 3.35-.07.11-.13.21-.21.31-1.1 1.55-3.13 2.73-3.85 2.86-.48.65-.21.79-.69 1.44-2.37 1.28-5.79 7.38-7.41 11.57-.24.63-.77 1.68-1.03 2.17-2.68 5.45-5.73 9.3-8.33 13.5-.41-.03-.69.45-1.03.59-.92 2.09-2.14 3.58-2.96 5.72-.83.24-1.24 2.06-2.18 1.93-1.13 1.1-1.96 2.59-2.99 4.02-.9 1.24-1.89 3.21-2.72 4.23-1.39 1.65-3.06 1.11-4.56 3.34-2.41-.85-5.1.46-8.26.37-.24.14-.35.66-.65.66-.04 0-.08-.01-.14-.04-1.1-3.55-3.14-1.92-4.68-3.92-.41-.54-.65-2.23-1.03-2.97-.8-1.72-1.85-2.37-2.52-3.28-.08-1.25-.21-2.44-.35-3.58-.08-1.13-.21-2.21-.35-3.25-.28-2.1-.66-4.06-.93-5.96-.28-1.92-.65-3.83-.83-5.82-.18-1.97-.3-4.06-.28-6.35.01-.21.39-1.32.42-1.89.1-1.79.31-3.96.69-6.16.39-2.2.77-4.48 1.08-6.52-.17-1.39.25-3.2.93-5.34s1.78-4.56 2.78-7.34c.73-1.86 1.03-2.82 2.3-5.54.85-1.85 1.69-3.58 2.44-5.35.75-1.79 1.56-3.51 2.54-5.21 1.08-1.93 2.27-3.66 3.58-5.3 1.3-1.63 2.55-3.3 3.93-5 1.16-1.44 1.96-3.25 3.09-4.62.01-.03.04-.04.06-.07l.07-.07c2.58-2.92 4.87-3.71 7.11-5.59 1.55-1.99 3.06-3.93 5.26-5.38 1.62-.08 1.9.75 4.37-.77 2.21-1.54 3.45-3.85 4.66-5.68 1.24-1.79 2.4-3.11 4.18-2.69 4.85-1.96 11.37-7.17 17.43-10.19 4.18-2.18 8.57-3.92 12.72-5.65 4.2-1.73 8.24-3.72 12-4.21 1.61-.89 3.25-1.39 4.93-1.73s3.37-.66 5.11-1.01c10.27-2.14 20.53-4.62 30.81-3.94 1.51-.17 3.13-.34 4.8-.31 1.66 0 3.38.07 5.06.18 1.69.08 3.34.37 4.9.58 1.55.24 3.01.42 4.31.73 3.44.07 6.71.58 9.81 1.37 3.11.68 6.04 1.68 8.96 2.27 3.86.94 7.41 1.47 10.81 2.78 1.11.41 2.04.99 3.16 1.37 3.34 1.3 6.73 2.1 10.05 3.85 3.11 1.52 5.57 3.68 9.16 4.8 4.14 2.72 9.27 5.52 14.31 9.03 2.59 1.66 5.06 3.62 7.54 5.54 2.37 2.06 4.78 4.07 6.82 6.35.58.63.85 1.16 1.45 1.76 5.56 5.75 11.2 10.72 14.67 17.02 5.45 6.85 11.17 16.48 14.62 24.95 4.03 7.27 6.34 15.43 8.24 23.33 1.31 5.95 3.21 12.27 3.9 18.71.35 2.28.08 4.64.31 6.85.17 1.66.32 3.3.46 4.93.22 1.61.4 3.26.36 4.95"/><path d="M127.04 309.14c-.54.03-1.38-.13-2.32-.46.31-.21 1.62-.01 2.32.46M112.83 264.66c-.54-.14-2.11-.82-1.63-1.23.82.47 1.06.83 1.63 1.23M110.84 262.45c-.28.15-1.23-.75-1.78-1.01.24-.29 1.55.66 1.78 1.01M100.92 262.08c-.46-.11-1.47-.72-1.75-1.24.3-.13 1.2.9 1.75 1.24M101.4 255.3c-.77-.15-1.72-.87-2.89-2 .69.07 1.83 1.31 2.89 2M74.5 268.32c-1.62-1.52-5.11-4.51-5.73-6.1 1.56 2.26 4.14 4.12 5.73 6.1M79.2 255.78c-1.17-.63-2.3-2.01-3.47-3.45-1.21-1.42-2.34-3-3.54-4.13.11-.38.86.55 1.7 1.61.83 1.07 1.87 2.21 2.35 2.41.47.62.76 1.13 1.08 1.66.62.66 1.5 1 1.88 1.9M62.8 229.78c-.27.23-.56.13-.9-.66-.01-.28.1-.44.31-.49zM53.41 219.93c-.65-.87-1.42-2.41-2.1-4.07-.59-1.68-1.08-3.48-1.3-4.79-.18-.31-.39-.27-.56-.9-.49-1.51-1.24-4.96-.32-1.66 1.59 3.91 2.3 7.21 4.28 11.42M58.75 216.14c-.35-.38-.7-1.1-1.04-2.03.37.11 1.03 1.63 1.04 2.03M42.06 218.94c-.41-.28-.76-2.17-1.16-3.09.4.64 1.14 2.23 1.16 3.09M55.88 214.65c-.59-.63-1.07-2.4-1.62-3.27.18-1.02 1.13 2.12 1.62 3.27M57.06 212.63c-.56-.46-1.04-2.28-1.56-3.58.56.69 1.04 2.43 1.56 3.58M38.07 216.56c-.45 0-.89-1.41-1.31-2.38.45.1.88 1.55 1.31 2.38M40.45 214.08c-.75-1.01-1.72-5.03-2.23-7 1.01 2.41 1.46 4.3 2.23 7M55.3 208.45c-1.01-1.44-1.24-3.9-1.58-5.27.75 1.39.77 3.69 1.58 5.27M48.41 205.88c-.38-.58-.73-1.65-1.03-2.55.48-.32.67 1.47 1.03 2.55M48.93 202.71c-.48-.7-.51-1.42-.7-2.59.34.2.45 1.83.7 2.59M49.79 199.56c-.42-.28-1.01-2.7-.23-2.31.17.69-.06.65-.25.7.13.79.39.68.48 1.61M38.9 194.24c.82 1.67.58 4.78 0 0M33.75 190.96c-.44-1.48-.62-2.97-.65-4.78.22 1.12.68 4.02.65 4.78M32.85 189.89c-.32.59-.66-2.4-.21-1.85.06.63.13 1.25.21 1.85M25.79 187.06c-.3-.54-.45-1.76-.44-2.73.32.26.55 2.26.44 2.73M25.79 176.2c-.35-1.73-.35-2.86-.25-2.86.06 0 .2.83.25 2.86M53.29 257.87c-.52-.42-1.11-1.11-1.55-1.32-.28-1.3-1.97-2.8-2.65-4.31 1.55 1.35 2.24 3.47 4.2 5.63M43.64 214.42c-.41.04.58 1.92-.17 1.52-.31-.82-.01-.8-.44-1.73.17-.16.32.27.49.24-.49-1.72-.97-2.61-1.38-4.09.16.17.31.32.48.27-1.2-1.76-.89-4.28-2.09-8.31 1.41 3.8 3.59 12.41 4.95 15.67-.63-.33-1.19-3.4-1.84-3.57M53.7 208.83c-.13-.35-.18-.16-.13.03-.31-.01-.45-1.37-.44-1.58.41.29 1.57 4.45.57 1.55M53.05 206.95c-2.03-2.14-1.79-8.14-3.44-11.03-.06-.11-.11-.21-.18-.31-.01-.46.1-.1.17.23-.23-1.3-.54-3.11-.82-5.02-.27-1.94-.69-3.96-1.25-5.64l.51-.01c-.15-2.1-.62-5.47-.14-6.89.17 1.23.24 3.17.3 5.03.03 1.85.24 3.61.76 4.44-.08.44.01 1.21-.07 1.65 1.55 5.61 1.92 11.93 4.16 17.55M31.75 189.2c-.3-.56-.51-1.61-.75-2.23-.03-.33.99 1.44.75 2.23" class="st0"/><path d="M307.38 168.97c-.14-1.63-.3-3.27-.46-4.93-.23-2.21.04-4.56-.31-6.85-.69-6.44-2.59-12.76-3.9-18.71-1.9-7.9-4.21-16.06-8.24-23.33-3.45-8.47-9.17-18.1-14.62-24.95-3.47-6.3-9.1-11.27-14.67-17.02-.61-.61-.87-1.13-1.45-1.76-2.04-2.28-4.45-4.3-6.82-6.35-2.48-1.92-4.95-3.87-7.54-5.54-5.04-3.51-10.17-6.31-14.31-9.03-3.59-1.13-6.04-3.28-9.16-4.8-3.31-1.75-6.71-2.55-10.05-3.85-1.11-.38-2.04-.96-3.16-1.37-3.4-1.31-6.95-1.83-10.81-2.78-2.92-.59-5.85-1.59-8.96-2.27-3.1-.79-6.37-1.3-9.81-1.37-1.3-.31-2.76-.49-4.31-.73-1.56-.21-3.21-.49-4.9-.58-1.68-.11-3.4-.18-5.06-.18-1.68-.03-3.3.14-4.8.31-10.28-.68-20.54 1.8-30.81 3.94-1.75.35-3.44.68-5.11 1.01-1.68.34-3.32.85-4.93 1.73-3.76.49-7.81 2.48-12 4.21-4.16 1.73-8.54 3.47-12.72 5.65-6.06 3.01-12.58 8.23-17.43 10.19-1.79-.42-2.94.9-4.18 2.69-1.21 1.83-2.45 4.14-4.66 5.68-2.47 1.52-2.75.69-4.37.77-2.2 1.45-3.71 3.4-5.26 5.38-2.24 1.89-4.54 2.68-7.11 5.59l-.07.07c-.01.03-.04.04-.06.07-1.13 1.37-1.93 3.18-3.09 4.62-1.38 1.7-2.63 3.37-3.93 5a39 39 0 0 0-3.58 5.3c-.97 1.7-1.79 3.42-2.54 5.21-.75 1.78-1.59 3.51-2.44 5.35-1.27 2.72-1.56 3.68-2.3 5.54-1 2.78-2.1 5.2-2.78 7.34s-1.1 3.94-.93 5.34c-.31 2.04-.69 4.33-1.08 6.52-.38 2.2-.59 4.37-.69 6.16-.03.56-.41 1.68-.42 1.89-.01 2.3.1 4.38.28 6.35.18 1.99.55 3.9.83 5.82.27 1.9.65 3.86.93 5.96.14 1.04.27 2.13.35 3.25.14 1.14.27 2.32.35 3.58.68.92 1.72 1.56 2.52 3.28.38.75.62 2.44 1.03 2.97 1.54 2 3.58.37 4.68 3.92.06.03.1.04.14.04.3 0 .41-.52.65-.66 3.16.1 5.85-1.21 8.26-.37 1.51-2.23 3.17-1.69 4.56-3.34.83-1.01 1.82-2.99 2.72-4.23 1.03-1.42 1.86-2.92 2.99-4.02.94.13 1.35-1.69 2.18-1.93.82-2.14 2.04-3.63 2.96-5.72.34-.14.62-.62 1.03-.59 2.59-4.2 5.65-8.04 8.33-13.5.25-.49.79-1.54 1.03-2.17 1.62-4.18 5.04-10.28 7.41-11.57.48-.65.21-.79.69-1.44.72-.13 2.75-1.31 3.85-2.86.08-.1.14-.2.21-.31.38-.58.42-2.01 1.18-3.35.55-1.01 1.44-1.73 2.28-2.45.86-.69 1.63-1.39 2.25-2.21.56-.75.66-1.99 1.18-2.85.65-1.14 2.04-2.52 3.37-3.87 1.38-1.31 2.83-2.45 3.69-3.11 1.41-.97 2.3-.92 3.17-1.86.79-.86 1.07-1.89.37-2.58.32-.94 1.08-1.9 2.07-2.9 1-.97 2.31-1.87 3.63-2.82 1.37-.93 2.85-1.76 4.18-2.66 1.38-.83 2.69-1.63 3.71-2.51 1.89-.59 3.51-1.54 5.09-2.56 1.63-.92 3.17-2.04 4.95-2.62.7-.25 1.62-.34 2.32-.62 1.17-.52 2.65-1.38 4.16-2.07 1.27-.62 2.54-.99 3.73-1.39 1.18-.39 2.31-.82 3.41-1.21 3.75.38 6.02-1.48 9.03-1.9 1.13-.13 2.28.14 3.54-.03 1.04-.17 2.04-.55 3.21-.62 1.18-.04 2.41.18 3.54.18.83-.01 1.49-.28 2.17-.27.9.01 1.48.27 2.42.23 1-.03 2.03-.48 3.04-.51 3.73-.11 7.64.82 11.23.35 3.07.89 6 1.3 9.04 1.94 3.04.61 6.21 1.42 9.61 3.06 1.86.34 3.17.76 4.9 1.68.44.08.56-.23 1.18.08 3.4 1.93 7.61 2.73 10.88 5.23.2-.06.41-.1.68-.04 4.56 3.32 10.16 7.52 13.98 9.82 1.07 1.38 2.54 2.49 3.99 3.8.75.62 1.51 1.27 2.3 1.93.75.68 1.49 1.41 2.23 2.16 1.41 1.41 2.38 3.16 3.71 4.45 1.3 1.27 2.54 2.97 3.8 4.62 1.16 1.73 2.39 3.37 3.38 4.82.59.85 1.45 1.51 2.06 2.32 1.06 1.54 1.7 3.45 2.85 5.07 4.27 6.37 7 14.81 8.71 21.23.61 1.96 1.28 3.61 1.99 5.83.48 1.86.73 3.82.93 5.76.08 1.97.31 3.92.51 5.83.11.97.44 1.89.56 2.78.18 1.16.15 2.3.14 3.45 0 1.14 0 2.31-.01 3.54.07 5.97.14 12.09-1.42 17.54-.07.9-.13 1.86-.25 2.85-.17.99-.34 2.01-.52 3.06-.32 2.11-1.01 4.27-1.58 6.49-1.38 4.37-3 8.83-4.78 12.64-.11 2.04-1.55 3.35-2.32 5.14-2.54 5.44-6.17 12.44-10.65 17.02-7.92 10.78-18.55 19.95-30.49 26.67-11.96 6.75-25.16 11.05-38.46 13.14-1.07-.1-2.42-.11-3.72.07-1.3.17-2.56.45-3.49.63-.41-.32-1.65-.28-2.59-.35-3.38.93-7.64.08-11.89-.08-1.16.75-3.63-.25-5.34.18-.62-.54.99-.27-.16-.66-.73.31-1.86.3-3.21.23-1.34-.08-2.9-.27-4.48-.65-3.18-.59-6.44-1.66-8.54-2.03.28.08.28.31-.08.24-.86-.69-1.55-.14-2.63-.54-7.34-2.35-13-3.38-19.19-6.18-.63-.61-2.27-2.25-3.21-2.2.99.7 2.37 1.42 1.96 1.9-1.69-1.14-4.06-2.37-5.48-2.69-1.08-.65-1.85-1.24-2.56-1.8-.75-.55-1.48-1.04-2.55-1.51-.44-.32.07.83-.9.13-2.61-2.45-4.4-3.09-6.58-5.45-.54-.08-1.56-.69-2.51-1.45-.92-.77-1.79-1.65-2.1-2.16-.93-.55.49 1.14-.25.63-1.13-.93-2.21-1.83-3.17-2.83-.97-.99-1.92-1.97-2.65-3.11-.65-.32-1.21-.41-2.01-1.18-.52-.54.58-.21-.28-.94-.94-.56.08 1-.42 1.08-1.13-.97-1.17-.56-1.93-.9-1.04-1.83-2.45-2.51-3.8-3.87-1.34-1.44-2.39-3.35-3.66-4.79-1-1.27-1.75-1.62-2.73-3.18-.83-1.25-1.03-2.59-1.9-4.02-.52-.7-.11.75-.76-.32-3-5.02-5.64-10.24-7.9-14.02 3.38 5.79 4.58 10.62 8.3 15.23-.06 1.06 1.58 2.1 1.42 3.23.49.15-.04-1.1.62.03.2.38.15.61.56 1.14-1.01-.34-.35.7-.49 1.37 1.32 2.13 2.78 3.83 4.06 5.54 1.32 1.69 2.7 3.21 4.03 4.92.63.52-.06-.66.62-.04 1.16 1.16 1.9 2.17 3.3 3.49-.01.79.73 1.89-.24 1.83-3.92-4.31-9.66-9.97-13.5-15.89-1.21-1.76-1.86-3.93-3.17-4.59 1.73 2.63 2.44 5.2 3.85 7.59.97 1.49 2.2 2.9 3.4 4.3 1.21 1.38 2.49 2.69 3.49 4.11.56.82.66 1.25 1.24 1.93.45.52 1.51 1.17 2 1.78.54.65.37.87.86 1.41 1.07 1.04 2.17 1.58 3.3 2.79.92 1.01 1.83 2.03 2.78 3.07.96 1.03 1.89 2.14 3.11 3.04.27.54-.3.79-.89.39-1.35-1.2-2.09-1.97-2.87-2.69-.76-.75-1.61-1.42-2.87-2.76.24.34.34.61.15.73-.76-.86-.92-1.25-1.68-1.62 1.92 1.97 1.06 2.49.07 2.13-4.75-5.04-10.45-11.4-13.33-16.37-.59-.35-1.11-.48-1.76-1.3-3.89-5.2-7.07-11.74-10.14-17.93 2.52 7.55 6.99 14.69 12.58 21.96.1.37-.35.34.25 1.04 2.59 2.96 5.4 6.55 7.52 8.73.46 1.41.96 2.75 1.44 4.07.87.85 1.7 1.69 2.48 2.52.8.83 1.59 1.62 2.32 2.44s1.45 1.62 2.17 2.42c.72.77 1.44 1.56 2.16 2.34 1.39 1.59 2.87 3.09 4.45 4.58 1.55 1.52 3.31 2.9 5.24 4.28-.25.28.28.82.37 1.2-.8-.18-1.47-.14-2.34-.44-1.3-.9-2.76-1.63-3.68-2.75-3.55-2.01-7.44-5.07-11.16-8.66-3.82-3.49-7.4-7.57-10.93-11.21-1.24-.58-1.06.51-.89 1.51 2.94 4.02 6.61 6.76 9.85 10.93.37 2.37-1.86 1.82-4.83-1.08-1.2-1.23-2.65-2.65-4.06-4.25-1.39-1.62-2.92-3.3-4.25-5.03-1.32-1.73-2.63-3.4-3.68-4.9-1.04-1.52-1.92-2.83-2.51-3.76-6.1-8-10.93-16.92-14.78-26.29-3.83-9.37-6.64-19.24-8.52-29.46 1.48 11.51 5.26 21.6 8.64 31.35.25-.14.51.17.77.92 3.78 9.44 9.51 19.26 15.13 26.15.68 1.82 2.41 3.94 4.14 6.07 1.7 2.13 3.61 4.11 4.47 5.87-.85.11-1.9-.3-3.11-1.1-1.21-.82-2.59-1.99-3.94-3.45 1.27 1.59 2.49 3.13 3.63 4.62l1.69 2.21c.56.7 1.14 1.37 1.7 2a59 59 0 0 0 3.61 3.55c1.3 1.16 2.45 2.21 2.86 2.82.17.25-.3.11-.14.35-.06-.03-.04-.01.06.08-.01-.03-.03-.04-.04-.07.24.21 1.7 1.54 1.87 1.62 1.27.89 1.13.62 2.45 1.83 1.73 1.55 1.66 1.56 2.61 2.73 6.11 5.28 12.86 9.3 19.72 13.47.69.46 2.2 1.25 2.31 1.31.63.42-.07.35.8.85.49.3.41-.1 1.14.32 2.72 1.59 5.96 3.16 8.85 4.41 7.26 3.06 16.07 6.18 22.37 7.57 1.38.41-.56.41 1.34.83 5.38 1.42 11.03 2.41 16.82 3.17 5.8.62 11.72 1.06 17.7.9.9.03.2.61 1.52.48 1.65.04 1.23-.52 2.7-.58.92.1 1.78.23 2.28.48 6.89-.2 13.85-1.28 20.72-2.89 6.88-1.58 13.62-3.89 20.2-6.54 12.29-4.93 23.87-11.57 33.8-19.17 7.83-6.04 14.3-12.91 20.39-19.24.93-1.16 1.85-2.28 2.75-3.4.89-1.11 1.72-2.25 2.56-3.37 1.7-2.2 3.23-4.47 4.78-6.68s2.9-4.52 4.35-6.78c1.34-2.34 2.73-4.66 4-7.11 3.75-7 7.38-15.03 9.17-21.49.3-1.13.51-2.49.85-3.79.55-1.94 1.54-3.79 2.07-5.75 1.31-5.33 1.94-10.9 2.62-16.29.2-1.51.39-3.01.58-4.49.14-1.49.27-2.99.39-4.47.31-2.96.3-5.92.42-8.9-.02-1.65-.2-3.3-.33-4.95M87.11 255.83c-.99-.86-2.16-1.94-3.25-2.94-1.11-1.01-2.1-2.01-2.54-2.9-.32-.39-.23.82-.9.3-.49-1.07-1.23-2.2-2.44-3.72.69-.72 2.73 2.56 3.54 2.09.92 1.16 1.32 1.76 2.14 1.9 1.83 2.4 2.7 2.48 4.09 4.3-.86-.01-.03.6-.64.97m.65.26c.15-.06.11-.2-.04-.39.91.03 1.36 1.69.04.39" class="st0"/><path d="M197.47 151.63c-.03.31-.17.52-.25.24.04-.19.14-.23.25-.24M201.46 187.21c-.14.06-.2-.11-.3-.15.07-.16.33-.45.3.15M201.88 187.75c0 .37-.24.28-.3.1.02-.28.21-.03.3-.1M203.09 182.4c-.01.28-.21.03-.3.1.06-.2.23-.34.3-.1M203.87 187.78c-.08.39-.34.27-.52.34.09-.33.28-.44.52-.34M205.84 160.53c-.32-.37-.69.24-1-.07.27-.03.8-.52 1 .07M206.89 172.17c.06.62-.62.07-.75.58-.1-.06-.17-.17-.25-.28-.11.04-.23.46-.34.1.33-.75.92.08 1.34-.4M208.12 151.08c-.23.56-.47-.16-.77.2.07-.17.17-.25.21-.49.14.5.38.05.56.29M209.75 174.42c-.06-.01-.11-.01-.17-.01-.01-.34.01-.55.13-.49.04.11.06.28.04.5M211.77 176.23c-.04.31-.25.37-.31.23.07-.19.17-.26.31-.23M212.5 175.77c-.11.31-.35.21-.52.34.09-.38.34-.26.52-.34M212.26 159.77c-.08.17-.3.37-.39.1.05-.28.27-.03.39-.1M212.26 173.86c.11.49-.31.41-.48.46.1-.32.34-.22.48-.46M212.59 156.37c-.01.39-.2.34-.3.48.01-.42.18-.38.3-.48M212.83 174.03c-.06.35-.63.15-.23.11.06-.03.03-.13 0-.13.01-.29.2-.05.23.02M212.81 169.84c-.54.39-.96 0-1.55.25.27-.56.87-.61 1.21-.16.04-.08.04-.3.13-.24.2-.06.65.17.21.15M213.33 159.74c-.3.28-.54.25-.86.18.14-.36.62-.25.86-.18M213.32 175.72c-.2.34-.49-.28-.73.07.22-.59.55-.13.73-.07M213.5 169.52c.03.55-.2.32-.34.35.09-.22.23-.25.34-.35M213.83 163.07c-.49.73-1.56.18-1.99.35.06-.49.44-.04.48-.59.01-.41-.24-.07-.17-.65.11-.04.1.24.21.14.01.21-.04.21-.04.38.21.1.34-.1.52-.08-.03.1-.06.2-.06.37.26-.68.54.4 1.05.08M213.88 171.07c-.04.28-.24.03-.35.1.11-.31.2-.17.35-.1M214.21 173c-.1.04-.08-.2-.08-.39-.1-.06-.1.23-.21.11.03-.34.36-.4.29.28M214.39 173.27c0-.04.01-.08.03-.13.05.06.01.11-.03.13"/><path d="M211.41 176.2c-.58.79-1.37.94-2.16 1.1-.17.03.03.39-.1.51-.23.03-.39-.42-.59-.44-.25 0-.35.44-.56.59-.27.18-.56-.03-.83.18-.25.21-.45.93-.73.58-.1.35-.06.66-.27.87-.03.44.23.69.08 1.01-.15.18-.03-.42-.13-.38-.15.08-.23.45-.31.73-.38-.39-.76-.15-1.17.03-.13.15.18.39.04.65-.17-.32-.69-.14-.83.44-.45-.31-.69.23-1.2-.1-.17-.01-.01.63-.1.63-.31.45-.51.13-.86.18-.2.49-.58.76-.86.56-.03.62.2.58.38.66-.11.55-.44-.08-.56-.3-.97.54-1.78 2.01-2.9 2.18-.17-.03-.24.72-.39.35-.06.03-.04.24 0 .25-.62.41-2.01-.3-2.42 1.2-.18-.25.06-.18-.04-.63-.24.62-.62 0-.77.83-.63.2-1.27-.48-1.78.37-.14-.11-.32-.08-.38-.42-.28.37-.77.7-1.08.17-4.02 1.39-8.24.86-12.3 2.09-.96-.55-2.14.24-3.06.51-.3.1-.58-.51-.86.2-1.3.13-2.92-.14-4.02.69-.87-.59-1.8.11-2.72.17-.38.03-.72-.23-1.07-.08-.14.06-.3.31-.44.35-.59.15-1.21-.52-1.8-.28-.37.15-.63.56-.96.56-1.04 0-2.4-.49-3.58.23-.31.18-.62-.18-.9-.07-.15.06-.32.42-.48.46-.55.17-1.28-.15-1.86.11-.28.14-.59-.21-.9-.2-.65.01-1.27.75-1.8.11-.69.73-1.8.65-2.68.04-.04.08-.07.23-.08.37-.63-.45-1.28.61-1.9.24-.11-.04-.11.27-.17.37-.31-.25-.54-.07-.83.18-1.18-.85-2.04.42-3.04-.37-.56.94-1.2.42-1.78.62-.17.06-.32.54-.48.59-.16.06-.24-.24-.39-.28-.1-.03-.21.23-.34.23-.18.01-.38-.39-.56-.42s-.35.34-.52.34c-.2 0-.37-.39-.55-.42-.48-.06-.9 1.41-1.47.14-.37.34-.76.27-1.21.54-.27.15-.54.56-.73.58-.13.01-.27-.25-.39-.28-.59-.14-1.18 1.13-1.8.37-.86.93-2.27-.72-2.82 1.42.01.97-.13 1.63-.32 1.75-.21.13-.31-.48-.59-.68-.35-.25-1.21-.56-1.63-.13-.17.15-.32.9-.48.97-.35.17-.7-.93-1.07-.72-.25.14-.47.96-.58.97h-.01c-.34 0-.7-1.13-.79-1.72-.13-.1-.13.21-.25.11-.38-1.27-1.51-1.61-2.23-1.58-.11.01-.3-.1-.39-.15-.97-.62-1.69-2.62-2.41-4.24-.01-.39-.08-.59-.13-.9-.34-.58-.59-1.39-.93-1.97-.06-.8-.32-.99-.32-1.93-.18-.94-.41-1.66-.62-2.59-.2-.82-.48-1.61-.62-2.45-.24-1.37-.18-3.04-.48-4.48.1-2.45-.07-5.1-.06-8.26-.03-.24-.08-.35-.08-.66v-.1c.45-1.2.24-3.2.48-4.79.06-.42.27-.69.35-1.11.2-.93.27-2.01.37-2.76 1.18-1.44 1.79-4.73 2.78-6.75.03-.06.15.01.23-.11.39-.8.94-1.31 1.39-2.17.28-1.31.8-1.07 1.44-1.54.21-.17.32-.35.65-.46.44-.14.83-.82 1.25-1.04.48-.25.9.24 1.38.24.2 0 .42-.46.61-.46.42.01.66 1.32.99 1.61.27-.23.54-.49.82-.06.13 1.04.08 1.85.41 2.44.59.58 1.08-3.66 1.34-.79.56 1.39 1.48.85 2.23 1.07.52.15 1.04.55 1.55.63.51.07 1-.32 1.42.37.39-.61.76.07 1.16.21 1.18.44 2.34-.68 3.49.28.68-.61 1.55-.06 2.14.42.77-.68 1.48.41 2.16.3.45-.08.85-.51 1.25-.41.13.03.25.28.38.28.41-.01.79-.45 1.21-.28.38.14.75.87 1.16.21 1.11.66 2.63-.69 4.02.06.1.06.16.25.25.28.9.23 1.73-.8 2.54.2.99-.23 2.24-.2 3.27.14.94-.62 1.89-.07 2.8.08.69.11 1.44-.44 2.16-.46.27 0 .52.34.77.32.38-.04.75-.45 1.13-.42.68.04 1.34.13 2.03.15.61.03 1.24-.49 1.85-.48.24 0 .46.44.69.44.15-.01.31-.3.44-.35.75-.3 1.73 0 2.62-.04 1.24-.07 2.39-.04 3.72-.48.99.37 2.04-.17 3.14-.25 1.39-.1 2.87-.08 4.35-.3 1.58-.21 3.17-.72 4.71-.25.06.3.14.48.25.65.15.04.11-.58.3-.48.15-.08.07.48.17.52 1.34.13 2.66.38 3.92.69.23-.01 0 .42.17.52.72-.07 1.78.28 2.66.21.37-.03.76.1 1.13.21.08.03.06-.27.13-.24.11.04.04.3.13.38.01.01.21 0 .3.03.92.31 1.8-.14 2.72.08.17.34.15.37.42.42.21.04.17-.07.35-.23.03-.03.21-.06.27-.1.06.06-.01.3.03.37.17.32.72-.11 1.03-.04.39.1.83.56 1.3.48-.45.37-.82 1.03-.93 2.47.44.93 1.28-.14 1.72.77 1.04-.49 2.35-.51 3.54-.35.1.03.14-.1.13-.38 1.21.56 2.45-.24 3.79.06-2.41.69-4.75.32-7.11 1.21-.52-.21-1.9-.35-2.7-.21-.49.08-.73 1.13-.51 2.62.63.79 1.17-.1 1.76.27.11.54.23 1.01.07 1.65-1.23.66-2.63-.15-3.62.99-.17-.28-.37-.07-.56-.04-.11.27-.17.68-.27.99.04.27.13.39.13.77 1.17 0 2.07 2.24 3.3 1.79q.255.87.51 1.68c.38-.13.97-.03 1.47-.38.11-.08.08.27.13.38 1.17-.3 2.23-.75 3.23 0-.87.31-1.8-.01-2.62.31-.14.11-.18.46-.27.73-.73-.37-1.83.08-2.72-.08-.13.45-.16 1.44.21 1.41-.11.3-.15.14-.31.1 0 .23.03.34.08.39-.48.04-.56.08-1.03.04-.1.1-.13.66-.06.89.39-.15.75.31 1.11.34.23.01.37-.41.56-.46.1-.03.1.25.21.28.11 0 .27-.35.35-.35.11-.01.17.23.3.27.46.17.96-.62 1.42-.52.37.08.7.97 1.13.72-.17.8-.46.3-.75.32-.92.11-1.99 1.1-2.76 1.06-.1.65.08.9.16 1.41.27-.2.44-.1.65-.21.13-.11-.06-.34.06-.49.58-.01 1.1-.34 1.76-.38.07.48.24.48.13 1.16.08-.04.11.1.17.14.17.06-.01-.17.04-.51.13.77.35-.14.48.42.66-.93 1.33.13 2.21-.87M214.81 163.02c-.21.53-.57-.26 0 0M215.64 157.63c-.07 0-.14 0-.23-.01-.05-.4.3-.37.23.01M215.86 158.28c-.14.17-.48.2-.56.08.16-.25.34-.18.56-.08M215.52 156.61c.07-.23.2-.28.27-.49.04.03-.19.83-.27.49M216.14 150.7c-.03.31-.25.37-.31.23.07-.26.19-.33.31-.23M216.7 173.58c-.32.35-1.01-.52-1.25.28-.06-.14-.15-.14-.21-.28-.76.8-1.58-.06-2.37.45.34-1.31 1.1.39 1.52-.76.35-.03.96.27 1.41-.52v.51c.28-.04.72-.16.9.32M217.35 151.33c0 .08-.1.2-.32.2.19-.31.32-.28.32-.2"/><path d="M197.47 151.63c-.03.31-.17.52-.25.24.04-.19.14-.23.25-.24M201.46 187.21c-.14.06-.2-.11-.3-.15.07-.16.33-.45.3.15M201.88 187.75c0 .37-.24.28-.3.1.02-.28.21-.03.3-.1M203.09 182.4c-.01.28-.21.03-.3.1.06-.2.23-.34.3-.1M203.87 187.78c-.08.39-.34.27-.52.34.09-.33.28-.44.52-.34M205.84 160.53c-.32-.37-.69.24-1-.07.27-.03.8-.52 1 .07M206.89 172.17c.06.62-.62.07-.75.58-.1-.06-.17-.17-.25-.28-.11.04-.23.46-.34.1.33-.75.92.08 1.34-.4M209.75 174.42c-.06-.01-.11-.01-.17-.01-.01-.34.01-.55.13-.49.04.11.06.28.04.5M212.81 169.84c-.54.39-.96 0-1.55.25.27-.56.87-.61 1.21-.16.04-.08.04-.3.13-.24.2-.06.65.17.21.15M211.77 176.23c-.04.31-.25.37-.31.23.07-.19.17-.26.31-.23M212.26 159.77c-.08.17-.3.37-.39.1.05-.28.27-.03.39-.1M212.26 173.86c.11.49-.31.41-.48.46.1-.32.34-.22.48-.46M212.5 175.77c-.11.31-.35.21-.52.34.09-.38.34-.26.52-.34M212.59 156.37c-.01.39-.2.34-.3.48.01-.42.18-.38.3-.48M213.33 159.74c-.3.28-.54.25-.86.18.14-.36.62-.25.86-.18M213.32 175.72c-.2.34-.49-.28-.73.07.22-.59.55-.13.73-.07M213.5 169.52c.03.55-.2.32-.34.35.09-.22.23-.25.34-.35M213.88 171.07c-.04.28-.24.03-.35.1.11-.31.2-.17.35-.1M214.21 173c-.1.04-.08-.2-.08-.39-.1-.06-.1.23-.21.11.03-.34.36-.4.29.28M214.81 163.02c-.21.53-.57-.26 0 0M215.86 158.28c-.14.17-.48.2-.56.08.16-.25.34-.18.56-.08M215.64 157.63c-.07 0-.14 0-.23-.01-.05-.4.3-.37.23.01M216.14 150.7c-.03.31-.25.37-.31.23.07-.26.19-.33.31-.23M217.35 151.33c0 .08-.1.2-.32.2.19-.31.32-.28.32-.2M208.12 151.08c-.23.56-.47-.16-.77.2.07-.17.17-.25.21-.49.14.5.38.05.56.29M213.83 163.07c-.49.73-1.56.18-1.99.35.06-.49.44-.04.48-.59.01-.41-.24-.07-.17-.65.11-.04.1.24.21.14.01.21-.04.21-.04.38.21.1.34-.1.52-.08-.03.1-.06.2-.06.37.26-.68.54.4 1.05.08M212.83 174.03c-.06.35-.63.15-.23.11.06-.03.03-.13 0-.13.01-.29.2-.05.23.02M214.39 173.27c0-.04.01-.08.03-.13.05.06.01.11-.03.13" class="st0"/><path d="M216.7 173.58c-.32.35-1.01-.52-1.25.28-.06-.14-.15-.14-.21-.28-.76.8-1.58-.06-2.37.45.34-1.31 1.1.39 1.52-.76.35-.03.96.27 1.41-.52v.51c.28-.04.72-.16.9.32M215.52 156.61c.07-.23.2-.28.27-.49.04.03-.19.83-.27.49M209.09 177.03c-.13-.56-.35.35-.48-.42-.06.34.13.56-.04.51-.06-.04-.08-.18-.17-.14.11-.68-.06-.68-.13-1.16-.66.04-1.18.37-1.76.38-.11.16.07.38-.06.49-.21.11-.38.01-.65.21-.07-.51-.25-.76-.16-1.41.77.04 1.85-.94 2.76-1.06.28-.03.58.48.75-.32-.42.25-.76-.63-1.13-.72-.46-.1-.96.69-1.42.52-.13-.04-.18-.28-.3-.27-.08 0-.24.35-.35.35-.11-.03-.11-.31-.21-.28-.2.06-.34.48-.56.46-.37-.03-.72-.49-1.11-.34-.07-.23-.04-.79.06-.89.46.04.55 0 1.03-.04-.06-.06-.08-.17-.08-.39.15.04.2.2.31-.1-.37.03-.34-.96-.21-1.41.89.17 1.99-.28 2.72.08.08-.27.13-.62.27-.73.82-.32 1.75 0 2.62-.31-1-.75-2.06-.3-3.23 0-.04-.11-.01-.46-.13-.38-.49.35-1.08.25-1.47.38q-.255-.81-.51-1.68c-1.23.45-2.13-1.79-3.3-1.79 0-.38-.08-.51-.13-.77.1-.31.15-.72.27-.99.2-.03.39-.24.56.04.99-1.14 2.4-.32 3.62-.99.15-.63.04-1.11-.07-1.65-.59-.37-1.13.52-1.76-.27-.23-1.49.01-2.54.51-2.62.8-.14 2.18 0 2.7.21 2.37-.89 4.71-.52 7.11-1.21-1.34-.3-2.58.51-3.79-.06.01.28-.03.41-.13.38-1.18-.15-2.49-.14-3.54.35-.44-.92-1.28.16-1.72-.77.11-1.44.48-2.1.93-2.47-.46.08-.9-.38-1.3-.48-.31-.07-.86.37-1.03.04-.04-.07.03-.31-.03-.37-.06.04-.24.07-.27.1-.18.15-.14.27-.35.23-.27-.06-.25-.08-.42-.42-.92-.23-1.8.23-2.72-.08-.08-.03-.28-.01-.3-.03-.08-.08-.01-.34-.13-.38-.07-.03-.04.27-.13.24-.37-.11-.76-.24-1.13-.21-.89.07-1.94-.28-2.66-.21-.17-.1.06-.54-.17-.52-1.25-.31-2.58-.56-3.92-.69-.1-.04-.01-.61-.17-.52-.18-.1-.14.52-.3.48-.11-.17-.2-.35-.25-.65-1.54-.46-3.13.04-4.71.25-1.48.21-2.96.2-4.35.3-1.1.08-2.16.62-3.14.25-1.32.44-2.48.41-3.72.48-.89.04-1.87-.25-2.62.04-.13.06-.28.34-.44.35-.23 0-.45-.44-.69-.44-.61-.01-1.24.51-1.85.48-.69-.03-1.35-.11-2.03-.15-.38-.03-.75.38-1.13.42-.25.01-.51-.32-.77-.32-.72.03-1.47.58-2.16.46-.92-.15-1.86-.7-2.8-.08-1.03-.34-2.28-.37-3.27-.14-.8-1-1.63.03-2.54-.2-.1-.03-.15-.23-.25-.28-1.38-.75-2.9.61-4.02-.06-.41.66-.77-.07-1.16-.21-.42-.17-.8.27-1.21.28-.13 0-.25-.25-.38-.28-.41-.1-.8.32-1.25.41-.68.11-1.38-.97-2.16-.3-.59-.48-1.47-1.03-2.14-.42-1.16-.96-2.31.15-3.49-.28-.39-.14-.76-.82-1.16-.21-.42-.69-.92-.3-1.42-.37-.51-.08-1.03-.48-1.55-.63-.75-.23-1.66.32-2.23-1.07-.25-2.87-.75 1.37-1.34.79-.32-.59-.28-1.39-.41-2.44-.28-.44-.55-.17-.82.06-.32-.28-.56-1.59-.99-1.61-.18 0-.41.46-.61.46-.48 0-.9-.49-1.38-.24-.42.23-.82.9-1.25 1.04-.32.11-.44.3-.65.46-.63.46-1.16.23-1.44 1.54-.45.86-1 1.37-1.39 2.17-.07.13-.2.06-.23.11-.99 2.01-1.59 5.31-2.78 6.75-.1.75-.17 1.83-.37 2.76-.08.42-.3.69-.35 1.11-.24 1.59-.03 3.59-.48 4.79v.1c0 .31.06.42.08.66-.01 3.16.15 5.8.06 8.26.3 1.44.24 3.11.48 4.48.14.85.42 1.63.62 2.45.21.93.44 1.65.62 2.59 0 .94.27 1.13.32 1.93.34.58.59 1.39.93 1.97.04.31.11.51.13.9.72 1.62 1.44 3.62 2.41 4.24.1.06.28.17.39.15.72-.03 1.85.31 2.23 1.58.13.1.13-.21.25-.11.08.59.45 1.72.79 1.72h.01c.11-.01.32-.83.58-.97.37-.21.72.89 1.07.72.15-.07.31-.82.48-.97.42-.44 1.28-.13 1.63.13.28.2.38.8.59.68.2-.11.34-.77.32-1.75.55-2.14 1.96-.49 2.82-1.42.62.76 1.21-.51 1.8-.37.13.03.27.3.39.28.2-.01.47-.42.73-.58.45-.27.85-.2 1.21-.54.56 1.27.99-.2 1.47-.14.18.03.35.42.55.42.17 0 .34-.37.52-.34s.38.44.56.42c.13 0 .24-.25.34-.23.15.04.24.34.39.28s.31-.54.48-.59c.58-.2 1.21.32 1.78-.62 1 .79 1.86-.48 3.04.37.3-.25.52-.44.83-.18.06-.1.06-.41.17-.37.62.37 1.27-.69 1.9-.24.01-.14.04-.28.08-.37.87.61 1.99.69 2.68-.04.54.63 1.16-.1 1.8-.11.31-.01.62.34.9.2.58-.27 1.31.06 1.86-.11.15-.04.32-.41.48-.46.28-.11.59.25.9.07 1.18-.72 2.54-.23 3.58-.23.32 0 .59-.41.96-.56.59-.24 1.21.44 1.8.28.14-.04.3-.3.44-.35.35-.14.69.11 1.07.08.92-.06 1.85-.76 2.72-.17 1.1-.83 2.72-.56 4.02-.69.28-.7.56-.1.86-.2.92-.27 2.1-1.06 3.06-.51 4.06-1.23 8.28-.69 12.3-2.09.31.54.8.2 1.08-.17.06.34.24.31.38.42.51-.85 1.14-.17 1.78-.37.15-.83.54-.21.77-.83.1.45-.14.38.04.63.41-1.49 1.8-.79 2.42-1.2-.04-.01-.06-.23 0-.25.15.37.23-.38.39-.35 1.13-.17 1.93-1.65 2.9-2.18.13.21.45.85.56.3-.18-.08-.41-.04-.38-.66.28.2.66-.07.86-.56.35-.06.55.27.86-.18.08 0-.07-.65.1-.63.51.32.75-.21 1.2.1.14-.58.66-.76.83-.44.14-.25-.17-.49-.04-.65.41-.18.79-.42 1.17-.03.08-.28.15-.65.31-.73.1-.04-.03.56.13.38.14-.32-.11-.58-.08-1.01.21-.21.17-.52.27-.87.28.35.48-.37.73-.58.27-.21.56 0 .83-.18.21-.15.31-.59.56-.59.2.01.37.46.59.44.13-.11-.07-.48.1-.51.79-.15 1.58-.31 2.16-1.1-.77 1.04-1.44-.02-2.21.87m-4.37 1.44c-.01.14 0 .23.04.25-.09.61-.29-.28-.04-.25m1.33.6c-.2-.08-.3-.13-.39.35-.41-.35-.49.3-.82-.07.08-.59-.06-.45-.03-1.14.37-.06.86-.62 1.13-.17.07.01-.07-.72.04-.87.15.31.34.55.61.55.01 1.06-.52.42-.54 1.35M520.2 133.4c-8.45 0-15.83 1.78-21.94 5.28-4.73 2.71-9.29 6.19-13.61 10.37V106.1c0-3.08-1.1-5.75-3.28-7.93-2.18-2.17-4.85-3.28-7.93-3.28-3.02 0-5.64 1.09-7.78 3.23s-3.23 4.83-3.23 7.98v126.03c0 3.02 1.09 5.64 3.23 7.78s4.76 3.23 7.78 3.23c3.01 0 5.65-1.08 7.86-3.21 2.23-2.15 3.35-4.77 3.35-7.81v-59.75c9.81-12.03 20.27-18.13 31.12-18.13 13.59 0 20.19 7.41 20.19 22.65v55.22c0 3.02 1.09 5.64 3.23 7.78s4.76 3.23 7.78 3.23c3.07 0 5.75-1.08 7.95-3.21 2.23-2.15 3.35-4.77 3.35-7.81v-57.29c0-11.65-3.44-21.55-10.22-29.43-6.84-7.94-16.22-11.98-27.85-11.98M659.51 146.59c-3.48-4.03-8.17-7.29-14-9.64-5.75-2.35-12.37-3.55-19.68-3.55-12.08 0-24.07 2.49-35.57 7.43-4.29 1.73-6.54 5.01-6.54 9.49 0 2.68.93 4.99 2.8 6.81 1.85 1.8 4.08 2.73 6.64 2.73.89 0 1.92-.17 3.26-.5 9.54-3.14 18.34-4.72 26.18-4.72 8.7 0 15.15 1.82 19.15 5.39 3.91 3.5 5.9 9.35 5.94 17.36h-22.46c-15.51 0-27.52 3.12-35.72 9.25-8.37 6.28-12.59 14.79-12.59 25.29 0 9.76 3.45 17.64 10.26 23.49 6.74 5.78 15.01 8.7 24.57 8.7 14.14 0 26.23-4.27 35.93-12.68v.67c0 3.02 1.1 5.63 3.24 7.79 2.13 2.13 4.77 3.24 7.79 3.24 3 0 5.63-1.08 7.84-3.21 2.23-2.16 3.36-4.77 3.36-7.81v-57.1c0-5.32-.89-10.45-2.61-15.22a42.5 42.5 0 0 0-7.79-13.21m-11.82 63.62c-3.48 3.84-7.81 7.12-12.87 9.8-5.25 2.76-10.72 4.15-16.28 4.15-7.07 0-12.15-1.32-15.08-3.93-2.9-2.59-4.31-5.94-4.31-10.26 0-3.45 0-13.98 28.45-13.98h20.09zM780.18 134.39c-3.01 0-5.65 1.08-7.86 3.21-2.23 2.15-3.35 4.77-3.35 7.81v59.85c-9.81 11.97-20.27 18.03-31.12 18.03-13.59 0-20.19-7.38-20.19-22.55V145.4c0-3.02-1.09-5.64-3.23-7.78s-4.76-3.23-7.78-3.23c-3.01 0-5.65 1.08-7.85 3.21-2.23 2.15-3.36 4.77-3.36 7.81v57.29c0 11.65 3.42 21.55 10.17 29.43 6.82 7.97 16.18 12.01 27.82 12.01 8.44 0 15.83-1.78 21.94-5.28 4.73-2.71 9.29-6.19 13.61-10.37v3.45c0 3.09 1.1 5.75 3.28 7.93s4.85 3.28 7.93 3.28c3.02 0 5.64-1.09 7.78-3.23s3.23-4.83 3.23-7.98V145.4c0-3.02-1.09-5.64-3.23-7.78-2.15-2.15-4.77-3.23-7.79-3.23M969.12 146.95c-2.8-4.05-6.61-7.36-11.34-9.83s-10.16-3.72-16.16-3.72c-15.77 0-28.12 6.29-36.74 18.71-2.51-4.7-6.09-8.81-10.66-12.26-5.67-4.28-12.58-6.45-20.52-6.45-4.69 0-9.08.59-13.05 1.75-4.01 1.18-7.53 2.87-10.45 5.03-2.85 2.1-5.2 4.13-7 6.04-.59.63-1.19 1.29-1.79 1.99v-2.61c0-3.02-1.12-5.67-3.33-7.88s-4.86-3.33-7.88-3.33c-3.03 0-5.66 1.13-7.81 3.36-2.13 2.21-3.21 4.85-3.21 7.86v86.53c0 3.02 1.09 5.64 3.23 7.78s4.76 3.23 7.78 3.23c3.01 0 5.65-1.08 7.85-3.21 2.23-2.15 3.35-4.77 3.35-7.81v-59.9c1.44-2.35 2.9-4.46 4.34-6.26 1.53-1.9 3.44-3.86 5.67-5.81 2.14-1.86 4.67-3.33 7.54-4.36 2.89-1.03 6.1-1.56 9.53-1.56 6.8 0 11.62 1.81 14.34 5.38 2.84 3.74 4.28 9.81 4.28 18.06v54.44c0 3.02 1.09 5.64 3.23 7.78s4.76 3.23 7.78 3.23c3.01 0 5.65-1.08 7.86-3.21 2.23-2.15 3.35-4.77 3.35-7.81v-59.9c1.44-2.35 2.9-4.46 4.34-6.26 1.52-1.9 3.43-3.85 5.67-5.8 2.13-1.86 4.67-3.33 7.54-4.36 2.89-1.03 6.1-1.56 9.53-1.56 6.8 0 11.63 1.81 14.34 5.38 2.84 3.74 4.28 9.81 4.28 18.06v54.44c0 3.02 1.09 5.64 3.23 7.78s4.76 3.23 7.78 3.23c3.07 0 5.75-1.08 7.95-3.21 2.23-2.15 3.36-4.77 3.36-7.81v-58.08c0-4.82-.69-9.6-2.05-14.19a45.2 45.2 0 0 0-6.16-12.88M1078.75 146.59c-3.48-4.03-8.17-7.29-13.98-9.64-5.75-2.35-12.39-3.55-19.68-3.55-12.11 0-24.09 2.49-35.6 7.43-4.27 1.73-6.54 5.01-6.54 9.49 0 2.68.96 4.99 2.8 6.81 1.87 1.8 4.1 2.73 6.64 2.73.91 0 1.92-.17 3.28-.5 9.52-3.14 18.34-4.72 26.15-4.72 8.73 0 15.17 1.82 19.18 5.39 3.88 3.5 5.9 9.35 5.95 17.36h-22.46c-15.53 0-27.54 3.12-35.72 9.25-8.37 6.28-12.61 14.79-12.61 25.29 0 9.76 3.45 17.64 10.28 23.49 6.74 5.78 14.98 8.7 24.55 8.7 14.17 0 26.23-4.27 35.96-12.68v.67c0 3.02 1.08 5.63 3.24 7.79 2.13 2.13 4.75 3.24 7.77 3.24s5.66-1.08 7.86-3.21c2.23-2.16 3.36-4.77 3.36-7.81v-57.1c0-5.32-.89-10.45-2.64-15.22a42.3 42.3 0 0 0-7.79-13.21m-11.8 63.62c-3.48 3.84-7.81 7.12-12.9 9.8-5.23 2.76-10.69 4.15-16.25 4.15-7.1 0-12.18-1.32-15.1-3.93-2.9-2.59-4.31-5.94-4.31-10.26 0-3.45 0-13.98 28.48-13.98h20.09v14.22zM1185.75 221.11h-47.54l53.71-62.99c2.17-2.77 3.27-5.89 3.27-9.28 0-3.95-1.3-7.2-3.84-9.67-2.53-2.46-5.84-3.7-9.83-3.7h-61.13c-2.97 0-5.48 1.05-7.47 3.11-1.96 2.04-2.96 4.57-2.96 7.51 0 2.96 1 5.46 2.99 7.44 1.98 1.98 4.48 2.99 7.44 2.99h46.69l-55.16 63.4c-2.48 2.85-3.73 6.06-3.73 9.55 0 4.03 1.46 7.22 4.35 9.47 2.74 2.14 6.2 3.22 10.31 3.22h62.9c2.94 0 5.47-1 7.51-2.96 2.06-1.98 3.11-4.49 3.11-7.47 0-2.96-1.04-5.49-3.08-7.54-2.05-2.04-4.59-3.08-7.54-3.08M1302.93 148.77c-9.78-10.21-22.85-15.37-38.81-15.37-16.04 0-29.13 5.15-38.93 15.32-9.76 10.14-14.72 23.64-14.72 40.08 0 16.47 4.96 29.94 14.72 40.06 9.8 10.12 22.89 15.27 38.93 15.27 15.97 0 29.01-5.15 38.81-15.32 9.76-10.14 14.72-23.61 14.72-40.01 0-16.39-4.96-29.86-14.72-40.03m-10.35 56.05c-1.89 4.6-4.36 8.22-7.38 10.81-3.09 2.61-6.45 4.6-10 5.9a32.1 32.1 0 0 1-11.07 1.94c-3.84 0-7.58-.65-11.17-1.94-3.55-1.29-6.93-3.28-10.02-5.9-3.02-2.56-5.49-6.18-7.34-10.76-1.85-4.63-2.8-10.09-2.8-16.25 0-6.09.96-11.51 2.8-16.09 1.85-4.55 4.31-8.15 7.34-10.71 3.09-2.64 6.45-4.6 10.02-5.85a33.3 33.3 0 0 1 11.17-1.92c3.81 0 7.55.65 11.1 1.92 3.52 1.25 6.88 3.21 9.97 5.85 3.02 2.56 5.51 6.16 7.38 10.71 1.89 4.6 2.85 10 2.85 16.09 0 6.08-.96 11.52-2.85 16.2M430.34 130.77c-.1 0-.19.02-.26.12.09.17.23.05.26-.12M434.05 150.86c.1.02.14.12.29.07.02-.34-.22-.17-.29-.07M434.46 151.31c.07.1.31.14.31-.07-.09.05-.29-.09-.31.07M435.68 148.27c.1-.05.29.1.31-.07-.07-.12-.24-.05-.31.07M436.76 151.27c-.24-.05-.41 0-.53.19.2-.05.43.02.53-.19M438.73 135.8c-.17-.34-.72-.05-.98-.05.31.2.66-.16.98.05M438.46 142.64c.12.19.22-.02.34-.07.07.07.17.14.26.17.12-.29.79.02.74-.34-.43.28-1.03-.2-1.34.24M442.49 143.67c.07 0 .12.02.19.02 0-.14-.02-.24-.05-.29-.12-.02-.14.07-.14.27M445.75 141.08c.43.02-.02-.12-.22-.07-.1-.02-.1.1-.14.14-.34-.26-.93-.24-1.2.07.58-.14 1.01.1 1.56-.14M444.7 144.7c-.14 0-.24.02-.31.14.04.07.26.05.31-.14M445.17 135.37c-.1.05-.34-.1-.38.05.1.17.31.05.38-.05M445.17 143.35c-.12.14-.36.1-.48.26.17-.02.6.03.48-.26M445.44 144.46c-.19.05-.46-.02-.53.19.17-.07.41-.02.53-.19M445.51 133.45c-.12.05-.29.02-.29.26.1-.06.27-.04.29-.26M446.28 135.35c-.24-.02-.74-.1-.89.12.34.05.58.05.89-.12M445.51 144.46c.24-.19.53.14.74-.05-.19-.02-.52-.29-.74.05M446.45 140.91c-.12.05-.26.07-.36.19.14-.02.38.12.36-.19M446.8 141.77c-.14-.02-.24-.12-.34.07.11-.04.32.1.34-.07M447.14 142.88c.07-.38-.26-.34-.31-.17.12.07.12-.1.24-.05 0 .12-.03.24.07.22M447.74 137.22c-.58-.15-.19.29 0 0M448.79 134.53c-.22-.07-.38-.1-.58.05.11.05.44.05.58-.05M448.36 134.15h.22c.07-.22-.29-.22-.22 0M449.08 130.22c-.12-.05-.26 0-.31.14.05.07.26.05.31-.14M449.97 130.7c.22 0 .31-.07.31-.1 0-.07-.12-.07-.31.1M441.03 130.43c-.19-.12-.43.12-.55-.17-.05.14-.17.19-.24.29.33-.19.57.22.79-.12M445.73 137.19c0-.1.02-.14.05-.22-.19 0-.31.12-.53.05 0-.07.05-.1.05-.22-.12.07-.12-.1-.22-.07-.07.34.17.14.17.36-.05.34-.43.07-.48.34.43-.07 1.51.22 1.99-.19-.51.19-.79-.43-1.03-.05M445.53 143.45c.02 0 .05.07 0 .07-.41.02.17.14.22-.07-.02-.02-.22-.17-.22 0M447.36 142.95c-.02.02-.02.05-.05.07.05 0 .12-.02.05-.07" class="st0"/><path d="M448.75 143.02v-.29c-.46.46-1.08.29-1.44.29-.43.65-1.2-.29-1.51.43.79-.29 1.61.22 2.37-.24.05.07.17.07.22.14.24-.46.93.05 1.25-.14-.17-.26-.63-.21-.89-.19M448.72 133.33c-.07.1-.19.12-.26.24.09.17.26-.19.26-.24" class="st0"/><path d="M444.1 144.84c-.77.31-1.37-.14-2.09.31-.12-.31-.36.22-.48-.22-.05.17.12.31-.05.29-.05-.05-.07-.12-.17-.1.1-.38-.05-.38-.12-.65-.67.02-1.2.19-1.77.22-.12.07.07.22-.05.29-.22.05-.38 0-.65.1-.1-.29-.26-.41-.17-.79.79.02 1.85-.53 2.78-.6.29-.02.58.29.74-.17-.43.12-.77-.38-1.13-.43-.48-.05-.98.41-1.44.31-.12-.02-.17-.17-.29-.17-.1 0-.26.22-.36.22-.12-.02-.12-.17-.22-.17-.19.05-.34.29-.55.26-.38 0-.72-.29-1.13-.19-.07-.12-.05-.46.05-.5.48.02.55 0 1.03-.02-.05-.02-.07-.1-.07-.22.14.02.19.12.31-.07-.36.02-.34-.53-.22-.79.89.1 1.99-.14 2.73.05.07-.14.12-.36.26-.41.82-.19 1.75 0 2.64-.17-1.01-.43-2.06-.19-3.24 0-.05-.07-.02-.29-.14-.24-.5.22-1.08.17-1.46.24-.17-.31-.34-.65-.5-.96-1.25.26-2.13-1.01-3.31-1.03 0-.22-.1-.26-.12-.43.1-.17.14-.41.26-.55.19-.02.38-.14.55.02 1.01-.65 2.4-.19 3.64-.58.14-.34.02-.62-.07-.94-.6-.19-1.13.31-1.77-.14-.22-.84.02-1.44.5-1.49.82-.07 2.21 0 2.73.12 2.35-.5 4.7-.29 7.14-.7-1.37-.14-2.61.29-3.81-.02 0 .17-.05.24-.14.22-1.17-.1-2.49-.07-3.55.19-.43-.5-1.27.1-1.7-.43.1-.82.46-1.17.91-1.39-.46.05-.89-.22-1.29-.29-.31-.02-.86.22-1.03.05-.05-.05.05-.22-.05-.24-.07.02-.22.05-.24.07-.19.1-.14.14-.36.12-.26-.02-.26-.05-.43-.22-.91-.14-1.8.12-2.71-.07h-.31c-.1-.05-.02-.19-.12-.22-.07-.02-.05.14-.14.12-.36-.05-.77-.12-1.13-.12-.89.05-1.94-.14-2.66-.12-.17-.05.05-.29-.17-.29a49 49 0 0 0-3.93-.38c-.1-.02-.02-.36-.17-.31-.19-.05-.14.31-.31.29-.1-.1-.19-.22-.26-.38-1.53-.26-3.12.02-4.7.17-1.49.1-2.97.1-4.36.14-1.13.05-2.18.36-3.16.17-1.34.24-2.49.22-3.72.26-.91.02-1.89-.14-2.64.02-.14.02-.29.19-.46.19-.14 0-.29-.1-.43-.17v-20.59c0-3.04-1.08-5.68-3.24-7.81-.53-.53-1.1-1.01-1.7-1.41-1.77-1.22-3.84-1.82-6.11-1.82-2.97 0-5.56 1.05-7.67 3.19-2.11 2.11-3.19 4.75-3.19 7.86v20.62c-.14-.07-.26-.12-.38-.14-.43-.1-.82.14-1.22.14-.12 0-.24-.14-.38-.14-.41-.07-.79.17-1.25.22-.67.07-1.39-.55-2.16-.17-.6-.26-1.49-.58-2.16-.24-1.15-.53-2.33.1-3.5-.14-.41-.1-.77-.48-1.17-.12-.41-.41-.91-.17-1.41-.22s-1.03-.26-1.56-.36c-.74-.12-1.68.19-2.23-.6-.26-1.63-.77.77-1.34.43-.34-.31-.29-.79-.43-1.37-.26-.26-.53-.1-.82.02-.31-.17-.55-.89-.98-.91-.19 0-.41.26-.6.26-.48 0-.91-.26-1.39-.12-.41.12-.82.5-1.25.58-.34.07-.46.17-.67.26-.62.26-1.15.12-1.44.86-.46.5-1.01.79-1.39 1.25-.07.07-.19.02-.22.05-1.01 1.15-1.63 3.02-2.8 3.84-.1.43-.17 1.03-.36 1.58-.1.22-.29.38-.36.62-.24.89-.02 2.04-.48 2.71v.07c0 .17.07.24.1.36-.02 1.8.14 3.31.05 4.67.31.81.24 1.77.48 2.54.14.48.43.93.62 1.39.22.53.43.94.62 1.49 0 .53.26.62.34 1.08.34.34.58.79.93 1.13.02.19.1.29.12.5.72.94 1.44 2.06 2.42 2.42.07.02.26.1.38.1.72-.02 1.85.17 2.23.89.14.05.12-.12.26-.07.07.36.46.98.79.98h.02c.1-.02.31-.48.55-.55.38-.12.74.5 1.08.41.17-.05.34-.46.48-.55.43-.26 1.29-.07 1.65.07.29.12.38.46.6.38.19-.07.34-.43.31-1.01.55-1.2 1.97-.26 2.83-.79.62.43 1.22-.29 1.82-.22.12.02.26.17.38.17.19-.02.48-.24.74-.34.46-.14.84-.12 1.2-.31.58.72 1.01-.1 1.49-.07.17.02.36.24.55.24.17 0 .34-.22.53-.19.19.02.38.24.55.24.14 0 .24-.14.36-.12.14.02.24.19.38.17.17-.05.31-.31.48-.36.58-.1 1.22.19 1.77-.34 1.01.43 1.87-.29 3.07.19.29-.14.5-.24.81-.1.07-.05.07-.22.19-.22.24.1.48.05.74-.02v57.94c0 16.23 6.66 26.11 20.26 29.92 4.05 1.49 8.97 2.28 14.89 2.28 7.31 0 14.12-1.44 20.18-4.27 3.28-1.61 5.18-4.03 5.66-7.21.55-3.67-1.15-7.46-4.22-9.42a8.4 8.4 0 0 0-4.67-1.37c-1.13 0-3.07.36-5.83 1.1-2.9.74-5.85 1.1-8.8 1.13-3.69.05-7.46-.19-10.45-1.7-.5-.31-1.01-.62-1.39-1.01-1.01-.96-1.85-2.37-2.61-4.31-.74-1.92-1.1-4.27-1.1-7.02v-57.46c.86-.1 1.8-.05 2.61-.1.29-.38.58-.05.86-.1.93-.17 2.11-.6 3.07-.29 4.08-.7 8.32-.41 12.35-1.17.31.29.81.1 1.08-.1.07.17.24.17.38.22.5-.48 1.15-.1 1.77-.19.17-.48.55-.12.79-.48.1.26-.14.22.05.36.41-.84 1.8-.46 2.42-.67-.05 0-.05-.14 0-.14.17.19.22-.22.41-.22 1.13-.1 1.94-.91 2.9-1.22.12.12.46.48.58.17-.19-.05-.41-.02-.38-.38.29.12.67-.05.86-.31.36-.05.55.14.86-.12.07.02-.07-.36.1-.36.5.19.74-.12 1.2.07.14-.34.67-.43.84-.26.14-.14-.17-.26-.05-.36.41-.1.79-.24 1.17-.02.1-.14.14-.36.31-.41.1-.02-.02.34.12.22.14-.19-.12-.34-.07-.58.19-.12.17-.29.26-.48.29.19.48-.22.74-.34s.55 0 .81-.12c.22-.07.31-.34.58-.31.19 0 .38.24.6.24.12-.07-.07-.29.1-.29.75-.07 1.42-.14 1.98-.48" class="st0"/></svg>