<?xml version="1.0" encoding="utf-8"?>
<svg version="1.1" id="Layer_1" xmlns="http://www.w3.org/2000/svg" xmlns:xlink="http://www.w3.org/1999/xlink" x="0px" y="0px"
	 viewBox="0 0 1343 347" style="enable-background:new 0 0 1343 347;" xml:space="preserve">
<style type="text/css">
	.st0{fill:#FFFFFF;fill-rule:evenodd;clip-rule:evenodd;}
</style>
<g>
	<g>
		<g>
			<path d="M25.53,173.34c0.07,0,0.21,0.83,0.25,2.86C25.43,174.46,25.43,173.34,25.53,173.34z"/>
			<path d="M25.35,184.33c0.32,0.27,0.55,2.27,0.44,2.73C25.49,186.52,25.34,185.3,25.35,184.33z"/>
			<path d="M31.75,189.2c-0.3-0.56-0.51-1.61-0.75-2.23C30.97,186.64,31.99,188.41,31.75,189.2z"/>
			<path d="M32.63,188.05c0.07,0.62,0.14,1.24,0.21,1.85C32.52,190.48,32.18,187.5,32.63,188.05z"/>
			<path d="M33.1,186.19c0.23,1.11,0.68,4.02,0.65,4.78C33.31,189.48,33.13,187.99,33.1,186.19z"/>
			<path d="M38.07,216.56c-0.45,0-0.89-1.41-1.31-2.38C37.21,214.28,37.64,215.73,38.07,216.56z"/>
			<path d="M38.9,194.24C39.72,195.91,39.48,199.02,38.9,194.24L38.9,194.24z"/>
			<path d="M38.23,207.08c1,2.41,1.45,4.3,2.23,7C39.71,213.07,38.73,209.05,38.23,207.08z"/>
			<path d="M42.06,218.94c-0.41-0.28-0.76-2.17-1.16-3.09C41.3,216.49,42.04,218.08,42.06,218.94z"/>
			<path d="M43.64,214.42c-0.41,0.04,0.58,1.92-0.17,1.52c-0.31-0.82-0.01-0.8-0.44-1.73c0.17-0.16,0.32,0.27,0.49,0.24
				c-0.49-1.72-0.97-2.61-1.38-4.09c0.16,0.17,0.31,0.32,0.48,0.27c-1.2-1.76-0.89-4.28-2.09-8.31c1.41,3.8,3.59,12.41,4.95,15.67
				C44.85,217.66,44.29,214.59,43.64,214.42z"/>
			<path d="M47.38,203.33c0.48-0.32,0.66,1.47,1.03,2.55C48.03,205.3,47.68,204.23,47.38,203.33z"/>
			<path d="M48.23,200.12c0.34,0.2,0.45,1.83,0.7,2.59C48.46,202.01,48.43,201.29,48.23,200.12z"/>
			<path d="M49.31,197.95c0.13,0.79,0.38,0.68,0.48,1.61c-0.42-0.28-1.01-2.7-0.23-2.31C49.74,197.94,49.51,197.89,49.31,197.95z"/>
			<path d="M47.53,185.19l0.51-0.01c-0.15-2.1-0.62-5.47-0.14-6.89c0.17,1.23,0.24,3.17,0.3,5.03c0.03,1.85,0.24,3.61,0.76,4.44
				c-0.08,0.44,0.01,1.21-0.07,1.65c1.56,5.61,1.93,11.93,4.17,17.55c-2.03-2.14-1.79-8.14-3.44-11.03
				c-0.06-0.11-0.11-0.21-0.18-0.31c-0.01-0.46,0.1-0.1,0.17,0.23c-0.23-1.3-0.54-3.11-0.82-5.02
				C48.51,188.88,48.09,186.86,47.53,185.19z"/>
			<path d="M49.13,208.5c1.59,3.92,2.3,7.21,4.28,11.43c-0.65-0.87-1.42-2.41-2.1-4.07c-0.59-1.68-1.08-3.48-1.3-4.79
				c-0.18-0.31-0.39-0.27-0.56-0.9C48.96,208.66,48.22,205.21,49.13,208.5z"/>
			<path d="M53.29,257.87c-0.52-0.42-1.11-1.11-1.55-1.32c-0.28-1.3-1.97-2.8-2.65-4.31C50.64,253.59,51.33,255.71,53.29,257.87z"/>
			<path d="M53.72,203.18c0.75,1.39,0.76,3.69,1.58,5.27C54.29,207.01,54.06,204.54,53.72,203.18z"/>
			<path d="M53.13,207.28c0.41,0.3,1.56,4.45,0.56,1.55c-0.13-0.35-0.18-0.16-0.13,0.03C53.26,208.84,53.12,207.49,53.13,207.28z"/>
			<path d="M55.88,214.65c-0.59-0.63-1.07-2.4-1.62-3.27C54.44,210.36,55.39,213.5,55.88,214.65z"/>
			<path d="M57.06,212.63c-0.56-0.46-1.04-2.28-1.56-3.58C56.06,209.74,56.54,211.48,57.06,212.63z"/>
			<path d="M58.75,216.14c-0.35-0.38-0.7-1.1-1.04-2.03C58.08,214.22,58.74,215.74,58.75,216.14z"/>
			<path d="M61.9,229.11c-0.01-0.28,0.1-0.44,0.31-0.49l0.59,1.16C62.53,230,62.23,229.9,61.9,229.11z"/>
			<path d="M74.5,268.32c-1.62-1.52-5.11-4.51-5.73-6.1C70.33,264.48,72.91,266.34,74.5,268.32z"/>
			<path d="M75.73,252.33c-1.21-1.42-2.34-3-3.54-4.13c0.11-0.38,0.86,0.55,1.7,1.61c0.83,1.07,1.87,2.21,2.35,2.41
				c0.47,0.62,0.76,1.13,1.08,1.66c0.61,0.66,1.48,1,1.86,1.9C78.03,255.15,76.9,253.77,75.73,252.33z"/>
			<path d="M101.4,255.3c-0.77-0.15-1.72-0.87-2.89-2C99.2,253.37,100.34,254.61,101.4,255.3z"/>
			<path d="M99.17,260.84c0.3-0.13,1.2,0.9,1.75,1.24C100.46,261.97,99.46,261.36,99.17,260.84z"/>
			<path d="M110.84,262.45c-0.28,0.15-1.23-0.75-1.78-1.01C109.3,261.15,110.61,262.1,110.84,262.45z"/>
			<path d="M112.83,264.66c-0.54-0.14-2.11-0.82-1.63-1.23C112.02,263.9,112.26,264.26,112.83,264.66z"/>
			<path d="M127.04,309.14c-0.54,0.03-1.38-0.13-2.32-0.46C125.03,308.47,126.34,308.67,127.04,309.14z"/>
			<path d="M307.66,173.96c-0.13,2.99-0.11,5.95-0.42,8.9c-0.13,1.48-0.25,2.97-0.39,4.47c-0.18,1.48-0.38,2.99-0.58,4.49
				c-0.68,5.38-1.31,10.96-2.62,16.29c-0.54,1.96-1.52,3.8-2.07,5.75c-0.34,1.3-0.55,2.66-0.85,3.79
				c-1.79,6.45-5.42,14.48-9.17,21.49c-1.27,2.45-2.66,4.78-4,7.11c-1.45,2.25-2.8,4.56-4.35,6.78c-1.55,2.21-3.07,4.48-4.78,6.68
				c-0.85,1.11-1.68,2.25-2.56,3.37c-0.9,1.11-1.82,2.24-2.75,3.4c-6.09,6.34-12.55,13.2-20.39,19.24
				c-9.93,7.61-21.51,14.24-33.8,19.17c-6.58,2.65-13.33,4.96-20.2,6.54c-6.88,1.61-13.83,2.69-20.72,2.89
				c-0.51-0.25-1.37-0.38-2.28-0.48c-1.48,0.06-1.06,0.62-2.71,0.58c-1.32,0.13-0.62-0.45-1.52-0.48c-5.97,0.15-11.89-0.28-17.7-0.9
				c-5.79-0.76-11.44-1.75-16.82-3.17c-1.9-0.42,0.04-0.42-1.34-0.83c-6.3-1.38-15.12-4.51-22.37-7.57
				c-2.89-1.25-6.13-2.82-8.85-4.41c-0.73-0.42-0.65-0.03-1.14-0.32c-0.87-0.49-0.17-0.42-0.8-0.85c-0.11-0.06-1.62-0.85-2.31-1.31
				c-6.86-4.17-13.61-8.19-19.72-13.47c-0.94-1.17-0.87-1.18-2.61-2.73c-1.32-1.21-1.18-0.94-2.45-1.83
				c-0.17-0.08-1.63-1.41-1.87-1.62c0.01,0.03,0.03,0.04,0.04,0.07c-0.1-0.1-0.11-0.11-0.06-0.08c-0.15-0.24,0.31-0.1,0.14-0.35
				c-0.41-0.61-1.56-1.66-2.86-2.82c-1.3-1.16-2.65-2.52-3.61-3.55c-0.56-0.63-1.14-1.3-1.7-2c-0.55-0.72-1.11-1.45-1.69-2.21
				c-1.14-1.49-2.37-3.03-3.63-4.62c1.35,1.47,2.73,2.63,3.94,3.45c1.21,0.8,2.27,1.21,3.11,1.1c-0.86-1.76-2.76-3.75-4.47-5.87
				c-1.73-2.13-3.47-4.25-4.14-6.07c-5.62-6.89-11.36-16.71-15.13-26.15c-0.27-0.75-0.52-1.06-0.77-0.92
				c-3.38-9.75-7.16-19.84-8.64-31.35c1.89,10.21,4.69,20.09,8.52,29.46c3.85,9.37,8.68,18.29,14.78,26.29
				c0.59,0.93,1.47,2.24,2.51,3.76c1.04,1.51,2.35,3.17,3.68,4.9c1.34,1.73,2.86,3.41,4.25,5.03c1.41,1.61,2.86,3.03,4.06,4.25
				c2.97,2.9,5.2,3.45,4.83,1.08c-3.24-4.17-6.9-6.92-9.85-10.93c-0.17-1-0.35-2.09,0.89-1.51c3.54,3.65,7.11,7.72,10.93,11.21
				c3.72,3.59,7.61,6.65,11.16,8.66c0.92,1.11,2.38,1.85,3.68,2.75c0.87,0.3,1.54,0.25,2.34,0.44c-0.08-0.38-0.62-0.92-0.37-1.2
				c-1.93-1.38-3.69-2.76-5.24-4.28c-1.58-1.49-3.06-2.99-4.45-4.58c-0.72-0.77-1.44-1.56-2.16-2.34c-0.72-0.8-1.44-1.61-2.17-2.42
				c-0.73-0.82-1.52-1.61-2.32-2.44c-0.77-0.83-1.61-1.68-2.48-2.52c-0.48-1.32-0.97-2.66-1.44-4.07c-2.13-2.18-4.93-5.78-7.52-8.73
				c-0.61-0.7-0.16-0.68-0.25-1.04c-5.59-7.27-10.06-14.41-12.58-21.96c3.07,6.2,6.26,12.74,10.14,17.93
				c0.65,0.82,1.17,0.94,1.76,1.3c2.87,4.97,8.58,11.33,13.33,16.37c0.99,0.37,1.85-0.15-0.07-2.13c0.76,0.37,0.92,0.76,1.68,1.62
				c0.18-0.13,0.08-0.39-0.16-0.73c1.27,1.34,2.11,2.01,2.87,2.76c0.79,0.72,1.52,1.49,2.87,2.69c0.59,0.39,1.16,0.14,0.89-0.39
				c-1.23-0.9-2.16-2.01-3.11-3.04c-0.94-1.04-1.86-2.06-2.78-3.07c-1.13-1.21-2.23-1.75-3.3-2.79c-0.49-0.54-0.32-0.76-0.86-1.41
				c-0.49-0.61-1.55-1.25-2-1.78c-0.58-0.68-0.68-1.11-1.24-1.93c-1-1.42-2.28-2.73-3.49-4.11c-1.2-1.39-2.42-2.8-3.4-4.3
				c-1.41-2.4-2.11-4.96-3.85-7.59c1.31,0.66,1.96,2.83,3.17,4.59c3.83,5.92,9.58,11.58,13.5,15.89c0.97,0.06,0.23-1.04,0.24-1.83
				c-1.39-1.32-2.14-2.34-3.3-3.49c-0.68-0.62,0.01,0.56-0.62,0.04c-1.32-1.7-2.71-3.23-4.03-4.92c-1.28-1.7-2.73-3.41-4.06-5.54
				c0.14-0.66-0.52-1.7,0.49-1.37c-0.41-0.54-0.37-0.76-0.56-1.14c-0.66-1.13-0.13,0.13-0.62-0.03c0.15-1.13-1.48-2.17-1.42-3.23
				c-3.72-4.61-4.92-9.44-8.3-15.23c2.27,3.78,4.9,9,7.9,14.02c0.65,1.07,0.24-0.38,0.76,0.32c0.87,1.42,1.07,2.76,1.9,4.02
				c0.99,1.56,1.73,1.92,2.73,3.18c1.27,1.44,2.32,3.35,3.66,4.79c1.35,1.37,2.76,2.04,3.8,3.87c0.76,0.34,0.8-0.07,1.93,0.9
				c0.51-0.08-0.52-1.65,0.42-1.08c0.86,0.73-0.24,0.41,0.28,0.94c0.8,0.77,1.37,0.86,2.01,1.18c0.73,1.14,1.68,2.13,2.65,3.11
				c0.96,1,2.04,1.9,3.17,2.83c0.75,0.51-0.68-1.18,0.25-0.63c0.31,0.51,1.18,1.38,2.1,2.16c0.94,0.76,1.97,1.37,2.51,1.45
				c2.18,2.37,3.97,3,6.58,5.45c0.97,0.7,0.47-0.45,0.9-0.13c1.07,0.46,1.8,0.96,2.55,1.51c0.72,0.56,1.48,1.16,2.56,1.8
				c1.42,0.32,3.79,1.55,5.48,2.69c0.41-0.48-0.97-1.2-1.96-1.9c0.94-0.06,2.58,1.59,3.21,2.2c6.18,2.8,11.85,3.83,19.19,6.18
				c1.08,0.39,1.78-0.15,2.63,0.54c0.37,0.07,0.37-0.15,0.08-0.24c2.1,0.37,5.35,1.44,8.54,2.03c1.58,0.38,3.14,0.56,4.48,0.65
				c1.35,0.07,2.48,0.08,3.21-0.23c1.14,0.39-0.47,0.13,0.15,0.66c1.7-0.44,4.18,0.56,5.34-0.18c4.25,0.17,8.51,1.01,11.89,0.08
				c0.94,0.07,2.18,0.03,2.59,0.35c0.93-0.18,2.2-0.46,3.49-0.63c1.3-0.18,2.65-0.17,3.72-0.07c13.3-2.1,26.5-6.4,38.46-13.14
				c11.93-6.72,22.57-15.89,30.49-26.67c4.48-4.58,8.12-11.58,10.65-17.02c0.77-1.79,2.21-3.1,2.32-5.14
				c1.78-3.8,3.4-8.27,4.78-12.64c0.56-2.23,1.25-4.38,1.58-6.49c0.18-1.04,0.35-2.07,0.52-3.06c0.13-0.99,0.18-1.94,0.25-2.85
				c1.56-5.45,1.49-11.57,1.42-17.54c0.01-1.23,0.01-2.4,0.01-3.54c0.01-1.16,0.04-2.3-0.14-3.45c-0.13-0.89-0.45-1.8-0.56-2.78
				c-0.2-1.92-0.42-3.86-0.51-5.83c-0.2-1.94-0.45-3.9-0.93-5.76c-0.7-2.23-1.38-3.87-1.99-5.83c-1.7-6.42-4.44-14.86-8.71-21.23
				c-1.14-1.62-1.79-3.54-2.85-5.07c-0.61-0.82-1.47-1.48-2.06-2.32c-0.99-1.45-2.23-3.09-3.38-4.82c-1.27-1.65-2.51-3.35-3.8-4.62
				c-1.32-1.3-2.3-3.04-3.71-4.45c-0.73-0.75-1.48-1.48-2.23-2.16c-0.79-0.66-1.55-1.31-2.3-1.93c-1.45-1.31-2.92-2.42-3.99-3.8
				c-3.82-2.3-9.41-6.49-13.98-9.82c-0.27-0.06-0.48-0.01-0.68,0.04c-3.27-2.49-7.48-3.3-10.88-5.23c-0.62-0.31-0.75,0-1.18-0.08
				c-1.73-0.92-3.04-1.34-4.9-1.68c-3.4-1.63-6.57-2.45-9.61-3.06c-3.04-0.65-5.97-1.06-9.04-1.94c-3.59,0.46-7.5-0.46-11.23-0.35
				c-1.01,0.03-2.04,0.48-3.04,0.51c-0.94,0.04-1.52-0.21-2.42-0.23c-0.68-0.01-1.34,0.25-2.17,0.27c-1.13,0-2.35-0.23-3.54-0.18
				c-1.17,0.07-2.17,0.45-3.21,0.62c-1.25,0.17-2.41-0.1-3.54,0.03c-3.01,0.42-5.28,2.28-9.03,1.9c-1.1,0.39-2.23,0.82-3.41,1.21
				c-1.2,0.41-2.47,0.77-3.73,1.39c-1.51,0.69-2.99,1.55-4.16,2.07c-0.7,0.28-1.62,0.37-2.32,0.62c-1.78,0.58-3.31,1.7-4.95,2.62
				c-1.58,1.03-3.2,1.97-5.09,2.56c-1.01,0.87-2.32,1.68-3.71,2.51c-1.34,0.9-2.82,1.73-4.18,2.66c-1.32,0.94-2.63,1.85-3.63,2.82
				c-0.99,1-1.75,1.96-2.07,2.9c0.7,0.69,0.42,1.72-0.37,2.58c-0.87,0.94-1.76,0.89-3.17,1.86c-0.86,0.66-2.31,1.8-3.69,3.11
				c-1.32,1.35-2.72,2.73-3.37,3.87c-0.52,0.86-0.62,2.1-1.18,2.85c-0.62,0.82-1.39,1.52-2.25,2.21c-0.85,0.72-1.73,1.44-2.28,2.45
				c-0.76,1.34-0.8,2.78-1.18,3.35c-0.07,0.11-0.13,0.21-0.21,0.31c-1.1,1.55-3.13,2.73-3.85,2.86c-0.48,0.65-0.21,0.79-0.69,1.44
				c-2.37,1.28-5.79,7.38-7.41,11.57c-0.24,0.63-0.77,1.68-1.03,2.17c-2.68,5.45-5.73,9.3-8.33,13.5c-0.41-0.03-0.69,0.45-1.03,0.59
				c-0.92,2.09-2.14,3.58-2.96,5.72c-0.83,0.24-1.24,2.06-2.18,1.93c-1.13,1.1-1.96,2.59-2.99,4.02c-0.9,1.24-1.89,3.21-2.72,4.23
				c-1.39,1.65-3.06,1.11-4.56,3.34c-2.41-0.85-5.1,0.46-8.26,0.37c-0.24,0.14-0.35,0.66-0.65,0.66c-0.04,0-0.08-0.01-0.14-0.04
				c-1.1-3.55-3.14-1.92-4.68-3.92c-0.41-0.54-0.65-2.23-1.03-2.97c-0.8-1.72-1.85-2.37-2.52-3.28c-0.08-1.25-0.21-2.44-0.35-3.58
				c-0.08-1.13-0.21-2.21-0.35-3.25c-0.28-2.1-0.66-4.06-0.93-5.96c-0.28-1.92-0.65-3.83-0.83-5.82c-0.18-1.97-0.3-4.06-0.28-6.35
				c0.01-0.21,0.39-1.32,0.42-1.89c0.1-1.79,0.31-3.96,0.69-6.16c0.39-2.2,0.77-4.48,1.08-6.52c-0.17-1.39,0.25-3.2,0.93-5.34
				c0.68-2.14,1.78-4.56,2.78-7.34c0.73-1.86,1.03-2.82,2.3-5.54c0.85-1.85,1.69-3.58,2.44-5.35c0.75-1.79,1.56-3.51,2.54-5.21
				c1.08-1.93,2.27-3.66,3.58-5.3c1.3-1.63,2.55-3.3,3.93-5c1.16-1.44,1.96-3.25,3.09-4.62c0.01-0.03,0.04-0.04,0.06-0.07l0.07-0.07
				c2.58-2.92,4.87-3.71,7.11-5.59c1.55-1.99,3.06-3.93,5.26-5.38c1.62-0.08,1.9,0.75,4.37-0.77c2.21-1.54,3.45-3.85,4.66-5.68
				c1.24-1.79,2.4-3.11,4.18-2.69c4.85-1.96,11.37-7.17,17.43-10.19c4.18-2.18,8.57-3.92,12.72-5.65c4.2-1.73,8.24-3.72,12-4.21
				c1.61-0.89,3.25-1.39,4.93-1.73c1.68-0.34,3.37-0.66,5.11-1.01c10.27-2.14,20.53-4.62,30.81-3.94c1.51-0.17,3.13-0.34,4.8-0.31
				c1.66,0,3.38,0.07,5.06,0.18c1.69,0.08,3.34,0.37,4.9,0.58c1.55,0.24,3.01,0.42,4.31,0.73c3.44,0.07,6.71,0.58,9.81,1.37
				c3.11,0.68,6.04,1.68,8.96,2.27c3.86,0.94,7.41,1.47,10.81,2.78c1.11,0.41,2.04,0.99,3.16,1.37c3.34,1.3,6.73,2.1,10.05,3.85
				c3.11,1.52,5.57,3.68,9.16,4.8c4.14,2.72,9.27,5.52,14.31,9.03c2.59,1.66,5.06,3.62,7.54,5.54c2.37,2.06,4.78,4.07,6.82,6.35
				c0.58,0.63,0.85,1.16,1.45,1.76c5.56,5.75,11.2,10.72,14.67,17.02c5.45,6.85,11.17,16.48,14.62,24.95
				c4.03,7.27,6.34,15.43,8.24,23.33c1.31,5.95,3.21,12.27,3.9,18.71c0.35,2.28,0.08,4.64,0.31,6.85c0.17,1.66,0.32,3.3,0.46,4.93
				C307.52,170.62,307.7,172.27,307.66,173.96z"/>
			<path class="st0" d="M127.04,309.14c-0.54,0.03-1.38-0.13-2.32-0.46C125.03,308.47,126.34,308.67,127.04,309.14z"/>
			<path class="st0" d="M112.83,264.66c-0.54-0.14-2.11-0.82-1.63-1.23C112.02,263.9,112.26,264.26,112.83,264.66z"/>
			<path class="st0" d="M110.84,262.45c-0.28,0.15-1.23-0.75-1.78-1.01C109.3,261.15,110.61,262.1,110.84,262.45z"/>
			<path class="st0" d="M100.92,262.08c-0.46-0.11-1.47-0.72-1.75-1.24C99.47,260.71,100.37,261.74,100.92,262.08z"/>
			<path class="st0" d="M101.4,255.3c-0.77-0.15-1.72-0.87-2.89-2C99.2,253.37,100.34,254.61,101.4,255.3z"/>
			<path class="st0" d="M74.5,268.32c-1.62-1.52-5.11-4.51-5.73-6.1C70.33,264.48,72.91,266.34,74.5,268.32z"/>
			<path class="st0" d="M79.2,255.78c-1.17-0.63-2.3-2.01-3.47-3.45c-1.21-1.42-2.34-3-3.54-4.13c0.11-0.38,0.86,0.55,1.7,1.61
				c0.83,1.07,1.87,2.21,2.35,2.41c0.47,0.62,0.76,1.13,1.08,1.66C77.94,254.54,78.82,254.88,79.2,255.78z"/>
			<path class="st0" d="M62.8,229.78c-0.27,0.23-0.56,0.13-0.9-0.66c-0.01-0.28,0.1-0.44,0.31-0.49L62.8,229.78z"/>
			<path class="st0" d="M53.41,219.93c-0.65-0.87-1.42-2.41-2.1-4.07c-0.59-1.68-1.08-3.48-1.3-4.79c-0.18-0.31-0.39-0.27-0.56-0.9
				c-0.49-1.51-1.24-4.96-0.32-1.66C50.72,212.42,51.43,215.72,53.41,219.93z"/>
			<path class="st0" d="M58.75,216.14c-0.35-0.38-0.7-1.1-1.04-2.03C58.08,214.22,58.74,215.74,58.75,216.14z"/>
			<path class="st0" d="M42.06,218.94c-0.41-0.28-0.76-2.17-1.16-3.09C41.3,216.49,42.04,218.08,42.06,218.94z"/>
			<path class="st0" d="M55.88,214.65c-0.59-0.63-1.07-2.4-1.62-3.27C54.44,210.36,55.39,213.5,55.88,214.65z"/>
			<path class="st0" d="M57.06,212.63c-0.56-0.46-1.04-2.28-1.56-3.58C56.06,209.74,56.54,211.48,57.06,212.63z"/>
			<path class="st0" d="M38.07,216.56c-0.45,0-0.89-1.41-1.31-2.38C37.21,214.28,37.64,215.73,38.07,216.56z"/>
			<path class="st0" d="M40.45,214.08c-0.75-1.01-1.72-5.03-2.23-7C39.23,209.49,39.68,211.38,40.45,214.08z"/>
			<path class="st0" d="M55.3,208.45c-1.01-1.44-1.24-3.9-1.58-5.27C54.47,204.57,54.49,206.87,55.3,208.45z"/>
			<path class="st0" d="M48.41,205.88c-0.38-0.58-0.73-1.65-1.03-2.55C47.86,203.01,48.05,204.8,48.41,205.88z"/>
			<path class="st0" d="M48.93,202.71c-0.48-0.7-0.51-1.42-0.7-2.59C48.57,200.32,48.68,201.95,48.93,202.71z"/>
			<path class="st0" d="M49.79,199.56c-0.42-0.28-1.01-2.7-0.23-2.31c0.17,0.69-0.06,0.65-0.25,0.7
				C49.44,198.74,49.7,198.63,49.79,199.56z"/>
			<path class="st0" d="M38.9,194.24C39.72,195.91,39.48,199.02,38.9,194.24L38.9,194.24z"/>
			<path class="st0" d="M33.75,190.96c-0.44-1.48-0.62-2.97-0.65-4.78C33.32,187.3,33.78,190.2,33.75,190.96z"/>
			<path class="st0" d="M32.85,189.89c-0.32,0.59-0.66-2.4-0.21-1.85C32.7,188.67,32.77,189.29,32.85,189.89z"/>
			<path class="st0" d="M25.79,187.06c-0.3-0.54-0.45-1.76-0.44-2.73C25.67,184.59,25.9,186.59,25.79,187.06z"/>
			<path class="st0" d="M25.79,176.2c-0.35-1.73-0.35-2.86-0.25-2.86C25.6,173.34,25.74,174.17,25.79,176.2z"/>
			<path class="st0" d="M53.29,257.87c-0.52-0.42-1.11-1.11-1.55-1.32c-0.28-1.3-1.97-2.8-2.65-4.31
				C50.64,253.59,51.33,255.71,53.29,257.87z"/>
			<path class="st0" d="M43.64,214.42c-0.41,0.04,0.58,1.92-0.17,1.52c-0.31-0.82-0.01-0.8-0.44-1.73c0.17-0.16,0.32,0.27,0.49,0.24
				c-0.49-1.72-0.97-2.61-1.38-4.09c0.16,0.17,0.31,0.32,0.48,0.27c-1.2-1.76-0.89-4.28-2.09-8.31c1.41,3.8,3.59,12.41,4.95,15.67
				C44.85,217.66,44.29,214.59,43.64,214.42z"/>
			<path class="st0" d="M53.7,208.83c-0.13-0.35-0.18-0.16-0.13,0.03c-0.31-0.01-0.45-1.37-0.44-1.58
				C53.54,207.57,54.7,211.73,53.7,208.83z"/>
			<path class="st0" d="M53.05,206.95c-2.03-2.14-1.79-8.14-3.44-11.03c-0.06-0.11-0.11-0.21-0.18-0.31
				c-0.01-0.46,0.1-0.1,0.17,0.23c-0.23-1.3-0.54-3.11-0.82-5.02c-0.27-1.94-0.69-3.96-1.25-5.64l0.51-0.01
				c-0.15-2.1-0.62-5.47-0.14-6.89c0.17,1.23,0.24,3.17,0.3,5.03c0.03,1.85,0.24,3.61,0.76,4.44c-0.08,0.44,0.01,1.21-0.07,1.65
				C50.44,195.01,50.81,201.33,53.05,206.95z"/>
			<path class="st0" d="M31.75,189.2c-0.3-0.56-0.51-1.61-0.75-2.23C30.97,186.64,31.99,188.41,31.75,189.2z"/>
			<path class="st0" d="M307.38,168.97c-0.14-1.63-0.3-3.27-0.46-4.93c-0.23-2.21,0.04-4.56-0.31-6.85
				c-0.69-6.44-2.59-12.76-3.9-18.71c-1.9-7.9-4.21-16.06-8.24-23.33c-3.45-8.47-9.17-18.1-14.62-24.95
				c-3.47-6.3-9.1-11.27-14.67-17.02c-0.61-0.61-0.87-1.13-1.45-1.76c-2.04-2.28-4.45-4.3-6.82-6.35c-2.48-1.92-4.95-3.87-7.54-5.54
				c-5.04-3.51-10.17-6.31-14.31-9.03c-3.59-1.13-6.04-3.28-9.16-4.8c-3.31-1.75-6.71-2.55-10.05-3.85
				c-1.11-0.38-2.04-0.96-3.16-1.37c-3.4-1.31-6.95-1.83-10.81-2.78c-2.92-0.59-5.85-1.59-8.96-2.27c-3.1-0.79-6.37-1.3-9.81-1.37
				c-1.3-0.31-2.76-0.49-4.31-0.73c-1.56-0.21-3.21-0.49-4.9-0.58c-1.68-0.11-3.4-0.18-5.06-0.18c-1.68-0.03-3.3,0.14-4.8,0.31
				c-10.28-0.68-20.54,1.8-30.81,3.94c-1.75,0.35-3.44,0.68-5.11,1.01c-1.68,0.34-3.32,0.85-4.93,1.73c-3.76,0.49-7.81,2.48-12,4.21
				c-4.16,1.73-8.54,3.47-12.72,5.65c-6.06,3.01-12.58,8.23-17.43,10.19c-1.79-0.42-2.94,0.9-4.18,2.69
				c-1.21,1.83-2.45,4.14-4.66,5.68c-2.47,1.52-2.75,0.69-4.37,0.77c-2.2,1.45-3.71,3.4-5.26,5.38c-2.24,1.89-4.54,2.68-7.11,5.59
				l-0.07,0.07c-0.01,0.03-0.04,0.04-0.06,0.07c-1.13,1.37-1.93,3.18-3.09,4.62c-1.38,1.7-2.63,3.37-3.93,5
				c-1.31,1.63-2.49,3.37-3.58,5.3c-0.97,1.7-1.79,3.42-2.54,5.21c-0.75,1.78-1.59,3.51-2.44,5.35c-1.27,2.72-1.56,3.68-2.3,5.54
				c-1,2.78-2.1,5.2-2.78,7.34c-0.68,2.14-1.1,3.94-0.93,5.34c-0.31,2.04-0.69,4.33-1.08,6.52c-0.38,2.2-0.59,4.37-0.69,6.16
				c-0.03,0.56-0.41,1.68-0.42,1.89c-0.01,2.3,0.1,4.38,0.28,6.35c0.18,1.99,0.55,3.9,0.83,5.82c0.27,1.9,0.65,3.86,0.93,5.96
				c0.14,1.04,0.27,2.13,0.35,3.25c0.14,1.14,0.27,2.32,0.35,3.58c0.68,0.92,1.72,1.56,2.52,3.28c0.38,0.75,0.62,2.44,1.03,2.97
				c1.54,2,3.58,0.37,4.68,3.92c0.06,0.03,0.1,0.04,0.14,0.04c0.3,0,0.41-0.52,0.65-0.66c3.16,0.1,5.85-1.21,8.26-0.37
				c1.51-2.23,3.17-1.69,4.56-3.34c0.83-1.01,1.82-2.99,2.72-4.23c1.03-1.42,1.86-2.92,2.99-4.02c0.94,0.13,1.35-1.69,2.18-1.93
				c0.82-2.14,2.04-3.63,2.96-5.72c0.34-0.14,0.62-0.62,1.03-0.59c2.59-4.2,5.65-8.04,8.33-13.5c0.25-0.49,0.79-1.54,1.03-2.17
				c1.62-4.18,5.04-10.28,7.41-11.57c0.48-0.65,0.21-0.79,0.69-1.44c0.72-0.13,2.75-1.31,3.85-2.86c0.08-0.1,0.14-0.2,0.21-0.31
				c0.38-0.58,0.42-2.01,1.18-3.35c0.55-1.01,1.44-1.73,2.28-2.45c0.86-0.69,1.63-1.39,2.25-2.21c0.56-0.75,0.66-1.99,1.18-2.85
				c0.65-1.14,2.04-2.52,3.37-3.87c1.38-1.31,2.83-2.45,3.69-3.11c1.41-0.97,2.3-0.92,3.17-1.86c0.79-0.86,1.07-1.89,0.37-2.58
				c0.32-0.94,1.08-1.9,2.07-2.9c1-0.97,2.31-1.87,3.63-2.82c1.37-0.93,2.85-1.76,4.18-2.66c1.38-0.83,2.69-1.63,3.71-2.51
				c1.89-0.59,3.51-1.54,5.09-2.56c1.63-0.92,3.17-2.04,4.95-2.62c0.7-0.25,1.62-0.34,2.32-0.62c1.17-0.52,2.65-1.38,4.16-2.07
				c1.27-0.62,2.54-0.99,3.73-1.39c1.18-0.39,2.31-0.82,3.41-1.21c3.75,0.38,6.02-1.48,9.03-1.9c1.13-0.13,2.28,0.14,3.54-0.03
				c1.04-0.17,2.04-0.55,3.21-0.62c1.18-0.04,2.41,0.18,3.54,0.18c0.83-0.01,1.49-0.28,2.17-0.27c0.9,0.01,1.48,0.27,2.42,0.23
				c1-0.03,2.03-0.48,3.04-0.51c3.73-0.11,7.64,0.82,11.23,0.35c3.07,0.89,6,1.3,9.04,1.94c3.04,0.61,6.21,1.42,9.61,3.06
				c1.86,0.34,3.17,0.76,4.9,1.68c0.44,0.08,0.56-0.23,1.18,0.08c3.4,1.93,7.61,2.73,10.88,5.23c0.2-0.06,0.41-0.1,0.68-0.04
				c4.56,3.32,10.16,7.52,13.98,9.82c1.07,1.38,2.54,2.49,3.99,3.8c0.75,0.62,1.51,1.27,2.3,1.93c0.75,0.68,1.49,1.41,2.23,2.16
				c1.41,1.41,2.38,3.16,3.71,4.45c1.3,1.27,2.54,2.97,3.8,4.62c1.16,1.73,2.39,3.37,3.38,4.82c0.59,0.85,1.45,1.51,2.06,2.32
				c1.06,1.54,1.7,3.45,2.85,5.07c4.27,6.37,7,14.81,8.71,21.23c0.61,1.96,1.28,3.61,1.99,5.83c0.48,1.86,0.73,3.82,0.93,5.76
				c0.08,1.97,0.31,3.92,0.51,5.83c0.11,0.97,0.44,1.89,0.56,2.78c0.18,1.16,0.15,2.3,0.14,3.45c0,1.14,0,2.31-0.01,3.54
				c0.07,5.97,0.14,12.09-1.42,17.54c-0.07,0.9-0.13,1.86-0.25,2.85c-0.17,0.99-0.34,2.01-0.52,3.06c-0.32,2.11-1.01,4.27-1.58,6.49
				c-1.38,4.37-3,8.83-4.78,12.64c-0.11,2.04-1.55,3.35-2.32,5.14c-2.54,5.44-6.17,12.44-10.65,17.02
				c-7.92,10.78-18.55,19.95-30.49,26.67c-11.96,6.75-25.16,11.05-38.46,13.14c-1.07-0.1-2.42-0.11-3.72,0.07
				c-1.3,0.17-2.56,0.45-3.49,0.63c-0.41-0.32-1.65-0.28-2.59-0.35c-3.38,0.93-7.64,0.08-11.89-0.08c-1.16,0.75-3.63-0.25-5.34,0.18
				c-0.62-0.54,0.99-0.27-0.16-0.66c-0.73,0.31-1.86,0.3-3.21,0.23c-1.34-0.08-2.9-0.27-4.48-0.65c-3.18-0.59-6.44-1.66-8.54-2.03
				c0.28,0.08,0.28,0.31-0.08,0.24c-0.86-0.69-1.55-0.14-2.63-0.54c-7.34-2.35-13-3.38-19.19-6.18c-0.63-0.61-2.27-2.25-3.21-2.2
				c0.99,0.7,2.37,1.42,1.96,1.9c-1.69-1.14-4.06-2.37-5.48-2.69c-1.08-0.65-1.85-1.24-2.56-1.8c-0.75-0.55-1.48-1.04-2.55-1.51
				c-0.44-0.32,0.07,0.83-0.9,0.13c-2.61-2.45-4.4-3.09-6.58-5.45c-0.54-0.08-1.56-0.69-2.51-1.45c-0.92-0.77-1.79-1.65-2.1-2.16
				c-0.93-0.55,0.49,1.14-0.25,0.63c-1.13-0.93-2.21-1.83-3.17-2.83c-0.97-0.99-1.92-1.97-2.65-3.11c-0.65-0.32-1.21-0.41-2.01-1.18
				c-0.52-0.54,0.58-0.21-0.28-0.94c-0.94-0.56,0.08,1-0.42,1.08c-1.13-0.97-1.17-0.56-1.93-0.9c-1.04-1.83-2.45-2.51-3.8-3.87
				c-1.34-1.44-2.39-3.35-3.66-4.79c-1-1.27-1.75-1.62-2.73-3.18c-0.83-1.25-1.03-2.59-1.9-4.02c-0.52-0.7-0.11,0.75-0.76-0.32
				c-3-5.02-5.64-10.24-7.9-14.02c3.38,5.79,4.58,10.62,8.3,15.23c-0.06,1.06,1.58,2.1,1.42,3.23c0.49,0.15-0.04-1.1,0.62,0.03
				c0.2,0.38,0.15,0.61,0.56,1.14c-1.01-0.34-0.35,0.7-0.49,1.37c1.32,2.13,2.78,3.83,4.06,5.54c1.32,1.69,2.7,3.21,4.03,4.92
				c0.63,0.52-0.06-0.66,0.62-0.04c1.16,1.16,1.9,2.17,3.3,3.49c-0.01,0.79,0.73,1.89-0.24,1.83c-3.92-4.31-9.66-9.97-13.5-15.89
				c-1.21-1.76-1.86-3.93-3.17-4.59c1.73,2.63,2.44,5.2,3.85,7.59c0.97,1.49,2.2,2.9,3.4,4.3c1.21,1.38,2.49,2.69,3.49,4.11
				c0.56,0.82,0.66,1.25,1.24,1.93c0.45,0.52,1.51,1.17,2,1.78c0.54,0.65,0.37,0.87,0.86,1.41c1.07,1.04,2.17,1.58,3.3,2.79
				c0.92,1.01,1.83,2.03,2.78,3.07c0.96,1.03,1.89,2.14,3.11,3.04c0.27,0.54-0.3,0.79-0.89,0.39c-1.35-1.2-2.09-1.97-2.87-2.69
				c-0.76-0.75-1.61-1.42-2.87-2.76c0.24,0.34,0.34,0.61,0.15,0.73c-0.76-0.86-0.92-1.25-1.68-1.62c1.92,1.97,1.06,2.49,0.07,2.13
				c-4.75-5.04-10.45-11.4-13.33-16.37c-0.59-0.35-1.11-0.48-1.76-1.3c-3.89-5.2-7.07-11.74-10.14-17.93
				c2.52,7.55,6.99,14.69,12.58,21.96c0.1,0.37-0.35,0.34,0.25,1.04c2.59,2.96,5.4,6.55,7.52,8.73c0.46,1.41,0.96,2.75,1.44,4.07
				c0.87,0.85,1.7,1.69,2.48,2.52c0.8,0.83,1.59,1.62,2.32,2.44c0.73,0.82,1.45,1.62,2.17,2.42c0.72,0.77,1.44,1.56,2.16,2.34
				c1.39,1.59,2.87,3.09,4.45,4.58c1.55,1.52,3.31,2.9,5.24,4.28c-0.25,0.28,0.28,0.82,0.37,1.2c-0.8-0.18-1.47-0.14-2.34-0.44
				c-1.3-0.9-2.76-1.63-3.68-2.75c-3.55-2.01-7.44-5.07-11.16-8.66c-3.82-3.49-7.4-7.57-10.93-11.21c-1.24-0.58-1.06,0.51-0.89,1.51
				c2.94,4.02,6.61,6.76,9.85,10.93c0.37,2.37-1.86,1.82-4.83-1.08c-1.2-1.23-2.65-2.65-4.06-4.25c-1.39-1.62-2.92-3.3-4.25-5.03
				c-1.32-1.73-2.63-3.4-3.68-4.9c-1.04-1.52-1.92-2.83-2.51-3.76c-6.1-8-10.93-16.92-14.78-26.29c-3.83-9.37-6.64-19.24-8.52-29.46
				c1.48,11.51,5.26,21.6,8.64,31.35c0.25-0.14,0.51,0.17,0.77,0.92c3.78,9.44,9.51,19.26,15.13,26.15
				c0.68,1.82,2.41,3.94,4.14,6.07c1.7,2.13,3.61,4.11,4.47,5.87c-0.85,0.11-1.9-0.3-3.11-1.1c-1.21-0.82-2.59-1.99-3.94-3.45
				c1.27,1.59,2.49,3.13,3.63,4.62c0.58,0.76,1.14,1.49,1.69,2.21c0.56,0.7,1.14,1.37,1.7,2c0.96,1.03,2.31,2.39,3.61,3.55
				c1.3,1.16,2.45,2.21,2.86,2.82c0.17,0.25-0.3,0.11-0.14,0.35c-0.06-0.03-0.04-0.01,0.06,0.08c-0.01-0.03-0.03-0.04-0.04-0.07
				c0.24,0.21,1.7,1.54,1.87,1.62c1.27,0.89,1.13,0.62,2.45,1.83c1.73,1.55,1.66,1.56,2.61,2.73c6.11,5.28,12.86,9.3,19.72,13.47
				c0.69,0.46,2.2,1.25,2.31,1.31c0.63,0.42-0.07,0.35,0.8,0.85c0.49,0.3,0.41-0.1,1.14,0.32c2.72,1.59,5.96,3.16,8.85,4.41
				c7.26,3.06,16.07,6.18,22.37,7.57c1.38,0.41-0.56,0.41,1.34,0.83c5.38,1.42,11.03,2.41,16.82,3.17c5.8,0.62,11.72,1.06,17.7,0.9
				c0.9,0.03,0.2,0.61,1.52,0.48c1.65,0.04,1.23-0.52,2.7-0.58c0.92,0.1,1.78,0.23,2.28,0.48c6.89-0.2,13.85-1.28,20.72-2.89
				c6.88-1.58,13.62-3.89,20.2-6.54c12.29-4.93,23.87-11.57,33.8-19.17c7.83-6.04,14.3-12.91,20.39-19.24
				c0.93-1.16,1.85-2.28,2.75-3.4c0.89-1.11,1.72-2.25,2.56-3.37c1.7-2.2,3.23-4.47,4.78-6.68c1.55-2.21,2.9-4.52,4.35-6.78
				c1.34-2.34,2.73-4.66,4-7.11c3.75-7,7.38-15.03,9.17-21.49c0.3-1.13,0.51-2.49,0.85-3.79c0.55-1.94,1.54-3.79,2.07-5.75
				c1.31-5.33,1.94-10.9,2.62-16.29c0.2-1.51,0.39-3.01,0.58-4.49c0.14-1.49,0.27-2.99,0.39-4.47c0.31-2.96,0.3-5.92,0.42-8.9
				C307.69,172.27,307.51,170.62,307.38,168.97z M87.11,255.83c-0.99-0.86-2.16-1.94-3.25-2.94c-1.11-1.01-2.1-2.01-2.54-2.9
				c-0.32-0.39-0.23,0.82-0.9,0.3c-0.49-1.07-1.23-2.2-2.44-3.72c0.69-0.72,2.73,2.56,3.54,2.09c0.92,1.16,1.32,1.76,2.14,1.9
				c1.83,2.4,2.7,2.48,4.09,4.3C86.89,254.85,87.72,255.46,87.11,255.83z M87.76,256.09c0.15-0.06,0.11-0.2-0.04-0.39
				C88.63,255.73,89.08,257.39,87.76,256.09z"/>
		</g>
		<g>
			<path d="M197.47,151.63c-0.03,0.31-0.17,0.52-0.25,0.24C197.26,151.68,197.36,151.64,197.47,151.63z"/>
			<path d="M201.46,187.21c-0.14,0.06-0.2-0.11-0.3-0.15C201.23,186.9,201.49,186.61,201.46,187.21z"/>
			<path d="M201.88,187.75c0,0.37-0.24,0.28-0.3,0.1C201.6,187.57,201.79,187.82,201.88,187.75z"/>
			<path d="M203.09,182.4c-0.01,0.28-0.21,0.03-0.3,0.1C202.85,182.3,203.02,182.16,203.09,182.4z"/>
			<path d="M203.87,187.78c-0.08,0.39-0.34,0.27-0.52,0.34C203.44,187.79,203.63,187.68,203.87,187.78z"/>
			<path d="M205.84,160.53c-0.32-0.37-0.69,0.24-1-0.07C205.11,160.43,205.64,159.94,205.84,160.53z"/>
			<path d="M206.89,172.17c0.06,0.62-0.62,0.07-0.75,0.58c-0.1-0.06-0.17-0.17-0.25-0.28c-0.11,0.04-0.23,0.46-0.34,0.1
				C205.88,171.82,206.47,172.65,206.89,172.17z"/>
			<path d="M208.12,151.08c-0.23,0.56-0.47-0.16-0.77,0.2c0.07-0.17,0.17-0.25,0.21-0.49C207.7,151.29,207.94,150.84,208.12,151.08z
				"/>
			<path d="M209.75,174.42c-0.06-0.01-0.11-0.01-0.17-0.01c-0.01-0.34,0.01-0.55,0.13-0.49
				C209.75,174.03,209.77,174.2,209.75,174.42z"/>
			<path d="M211.77,176.23c-0.04,0.31-0.25,0.37-0.31,0.23C211.53,176.27,211.63,176.2,211.77,176.23z"/>
			<path d="M212.5,175.77c-0.11,0.31-0.35,0.21-0.52,0.34C212.07,175.73,212.32,175.85,212.5,175.77z"/>
			<path d="M212.26,159.77c-0.08,0.17-0.3,0.37-0.39,0.1C211.92,159.59,212.14,159.84,212.26,159.77z"/>
			<path d="M212.26,173.86c0.11,0.49-0.31,0.41-0.48,0.46C211.88,174,212.12,174.1,212.26,173.86z"/>
			<path d="M212.59,156.37c-0.01,0.39-0.2,0.34-0.3,0.48C212.3,156.43,212.47,156.47,212.59,156.37z"/>
			<path d="M212.83,174.03c-0.06,0.35-0.63,0.15-0.23,0.11c0.06-0.03,0.03-0.13,0-0.13C212.61,173.72,212.8,173.96,212.83,174.03z"
				/>
			<path d="M212.81,169.84c-0.54,0.39-0.96,0-1.55,0.25c0.27-0.56,0.87-0.61,1.21-0.16c0.04-0.08,0.04-0.3,0.13-0.24
				C212.8,169.63,213.25,169.86,212.81,169.84z"/>
			<path d="M213.33,159.74c-0.3,0.28-0.54,0.25-0.86,0.18C212.61,159.56,213.09,159.67,213.33,159.74z"/>
			<path d="M213.32,175.72c-0.2,0.34-0.49-0.28-0.73,0.07C212.81,175.2,213.14,175.66,213.32,175.72z"/>
			<path d="M213.5,169.52c0.03,0.55-0.2,0.32-0.34,0.35C213.25,169.65,213.39,169.62,213.5,169.52z"/>
			<path d="M213.83,163.07c-0.49,0.73-1.56,0.18-1.99,0.35c0.06-0.49,0.44-0.04,0.48-0.59c0.01-0.41-0.24-0.07-0.17-0.65
				c0.11-0.04,0.1,0.24,0.21,0.14c0.01,0.21-0.04,0.21-0.04,0.38c0.21,0.1,0.34-0.1,0.52-0.08c-0.03,0.1-0.06,0.2-0.06,0.37
				C213.04,162.31,213.32,163.39,213.83,163.07z"/>
			<path d="M213.88,171.07c-0.04,0.28-0.24,0.03-0.35,0.1C213.64,170.86,213.73,171,213.88,171.07z"/>
			<path d="M214.21,173c-0.1,0.04-0.08-0.2-0.08-0.39c-0.1-0.06-0.1,0.23-0.21,0.11C213.95,172.38,214.28,172.32,214.21,173z"/>
			<path d="M214.39,173.27c0-0.04,0.01-0.08,0.03-0.13C214.47,173.2,214.43,173.25,214.39,173.27z"/>
			<path d="M211.41,176.2c-0.58,0.79-1.37,0.94-2.16,1.1c-0.17,0.03,0.03,0.39-0.1,0.51c-0.23,0.03-0.39-0.42-0.59-0.44
				c-0.25,0-0.35,0.44-0.56,0.59c-0.27,0.18-0.56-0.03-0.83,0.18c-0.25,0.21-0.45,0.93-0.73,0.58c-0.1,0.35-0.06,0.66-0.27,0.87
				c-0.03,0.44,0.23,0.69,0.08,1.01c-0.15,0.18-0.03-0.42-0.13-0.38c-0.15,0.08-0.23,0.45-0.31,0.73c-0.38-0.39-0.76-0.15-1.17,0.03
				c-0.13,0.15,0.18,0.39,0.04,0.65c-0.17-0.32-0.69-0.14-0.83,0.44c-0.45-0.31-0.69,0.23-1.2-0.1c-0.17-0.01-0.01,0.63-0.1,0.63
				c-0.31,0.45-0.51,0.13-0.86,0.18c-0.2,0.49-0.58,0.76-0.86,0.56c-0.03,0.62,0.2,0.58,0.38,0.66c-0.11,0.55-0.44-0.08-0.56-0.3
				c-0.97,0.54-1.78,2.01-2.9,2.18c-0.17-0.03-0.24,0.72-0.39,0.35c-0.06,0.03-0.04,0.24,0,0.25c-0.62,0.41-2.01-0.3-2.42,1.2
				c-0.18-0.25,0.06-0.18-0.04-0.63c-0.24,0.62-0.62,0-0.77,0.83c-0.63,0.2-1.27-0.48-1.78,0.37c-0.14-0.11-0.32-0.08-0.38-0.42
				c-0.28,0.37-0.77,0.7-1.08,0.17c-4.02,1.39-8.24,0.86-12.3,2.09c-0.96-0.55-2.14,0.24-3.06,0.51c-0.3,0.1-0.58-0.51-0.86,0.2
				c-1.3,0.13-2.92-0.14-4.02,0.69c-0.87-0.59-1.8,0.11-2.72,0.17c-0.38,0.03-0.72-0.23-1.07-0.08c-0.14,0.06-0.3,0.31-0.44,0.35
				c-0.59,0.15-1.21-0.52-1.8-0.28c-0.37,0.15-0.63,0.56-0.96,0.56c-1.04,0-2.4-0.49-3.58,0.23c-0.31,0.18-0.62-0.18-0.9-0.07
				c-0.15,0.06-0.32,0.42-0.48,0.46c-0.55,0.17-1.28-0.15-1.86,0.11c-0.28,0.14-0.59-0.21-0.9-0.2c-0.65,0.01-1.27,0.75-1.8,0.11
				c-0.69,0.73-1.8,0.65-2.68,0.04c-0.04,0.08-0.07,0.23-0.08,0.37c-0.63-0.45-1.28,0.61-1.9,0.24c-0.11-0.04-0.11,0.27-0.17,0.37
				c-0.31-0.25-0.54-0.07-0.83,0.18c-1.18-0.85-2.04,0.42-3.04-0.37c-0.56,0.94-1.2,0.42-1.78,0.62c-0.17,0.06-0.32,0.54-0.48,0.59
				c-0.16,0.06-0.24-0.24-0.39-0.28c-0.1-0.03-0.21,0.23-0.34,0.23c-0.18,0.01-0.38-0.39-0.56-0.42c-0.18-0.03-0.35,0.34-0.52,0.34
				c-0.2,0-0.37-0.39-0.55-0.42c-0.48-0.06-0.9,1.41-1.47,0.14c-0.37,0.34-0.76,0.27-1.21,0.54c-0.27,0.15-0.54,0.56-0.73,0.58
				c-0.13,0.01-0.27-0.25-0.39-0.28c-0.59-0.14-1.18,1.13-1.8,0.37c-0.86,0.93-2.27-0.72-2.82,1.42c0.01,0.97-0.13,1.63-0.32,1.75
				c-0.21,0.13-0.31-0.48-0.59-0.68c-0.35-0.25-1.21-0.56-1.63-0.13c-0.17,0.15-0.32,0.9-0.48,0.97c-0.35,0.17-0.7-0.93-1.07-0.72
				c-0.25,0.14-0.47,0.96-0.58,0.97h-0.01c-0.34,0-0.7-1.13-0.79-1.72c-0.13-0.1-0.13,0.21-0.25,0.11
				c-0.38-1.27-1.51-1.61-2.23-1.58c-0.11,0.01-0.3-0.1-0.39-0.15c-0.97-0.62-1.69-2.62-2.41-4.24c-0.01-0.39-0.08-0.59-0.13-0.9
				c-0.34-0.58-0.59-1.39-0.93-1.97c-0.06-0.8-0.32-0.99-0.32-1.93c-0.18-0.94-0.41-1.66-0.62-2.59c-0.2-0.82-0.48-1.61-0.62-2.45
				c-0.24-1.37-0.18-3.04-0.48-4.48c0.1-2.45-0.07-5.1-0.06-8.26c-0.03-0.24-0.08-0.35-0.08-0.66v-0.1c0.45-1.2,0.24-3.2,0.48-4.79
				c0.06-0.42,0.27-0.69,0.35-1.11c0.2-0.93,0.27-2.01,0.37-2.76c1.18-1.44,1.79-4.73,2.78-6.75c0.03-0.06,0.15,0.01,0.23-0.11
				c0.39-0.8,0.94-1.31,1.39-2.17c0.28-1.31,0.8-1.07,1.44-1.54c0.21-0.17,0.32-0.35,0.65-0.46c0.44-0.14,0.83-0.82,1.25-1.04
				c0.48-0.25,0.9,0.24,1.38,0.24c0.2,0,0.42-0.46,0.61-0.46c0.42,0.01,0.66,1.32,0.99,1.61c0.27-0.23,0.54-0.49,0.82-0.06
				c0.13,1.04,0.08,1.85,0.41,2.44c0.59,0.58,1.08-3.66,1.34-0.79c0.56,1.39,1.48,0.85,2.23,1.07c0.52,0.15,1.04,0.55,1.55,0.63
				c0.51,0.07,1-0.32,1.42,0.37c0.39-0.61,0.76,0.07,1.16,0.21c1.18,0.44,2.34-0.68,3.49,0.28c0.68-0.61,1.55-0.06,2.14,0.42
				c0.77-0.68,1.48,0.41,2.16,0.3c0.45-0.08,0.85-0.51,1.25-0.41c0.13,0.03,0.25,0.28,0.38,0.28c0.41-0.01,0.79-0.45,1.21-0.28
				c0.38,0.14,0.75,0.87,1.16,0.21c1.11,0.66,2.63-0.69,4.02,0.06c0.1,0.06,0.16,0.25,0.25,0.28c0.9,0.23,1.73-0.8,2.54,0.2
				c0.99-0.23,2.24-0.2,3.27,0.14c0.94-0.62,1.89-0.07,2.8,0.08c0.69,0.11,1.44-0.44,2.16-0.46c0.27,0,0.52,0.34,0.77,0.32
				c0.38-0.04,0.75-0.45,1.13-0.42c0.68,0.04,1.34,0.13,2.03,0.15c0.61,0.03,1.24-0.49,1.85-0.48c0.24,0,0.46,0.44,0.69,0.44
				c0.15-0.01,0.31-0.3,0.44-0.35c0.75-0.3,1.73,0,2.62-0.04c1.24-0.07,2.39-0.04,3.72-0.48c0.99,0.37,2.04-0.17,3.14-0.25
				c1.39-0.1,2.87-0.08,4.35-0.3c1.58-0.21,3.17-0.72,4.71-0.25c0.06,0.3,0.14,0.48,0.25,0.65c0.15,0.04,0.11-0.58,0.3-0.48
				c0.15-0.08,0.07,0.48,0.17,0.52c1.34,0.13,2.66,0.38,3.92,0.69c0.23-0.01,0,0.42,0.17,0.52c0.72-0.07,1.78,0.28,2.66,0.21
				c0.37-0.03,0.76,0.1,1.13,0.21c0.08,0.03,0.06-0.27,0.13-0.24c0.11,0.04,0.04,0.3,0.13,0.38c0.01,0.01,0.21,0,0.3,0.03
				c0.92,0.31,1.8-0.14,2.72,0.08c0.17,0.34,0.15,0.37,0.42,0.42c0.21,0.04,0.17-0.07,0.35-0.23c0.03-0.03,0.21-0.06,0.27-0.1
				c0.06,0.06-0.01,0.3,0.03,0.37c0.17,0.32,0.72-0.11,1.03-0.04c0.39,0.1,0.83,0.56,1.3,0.48c-0.45,0.37-0.82,1.03-0.93,2.47
				c0.44,0.93,1.28-0.14,1.72,0.77c1.04-0.49,2.35-0.51,3.54-0.35c0.1,0.03,0.14-0.1,0.13-0.38c1.21,0.56,2.45-0.24,3.79,0.06
				c-2.41,0.69-4.75,0.32-7.11,1.21c-0.52-0.21-1.9-0.35-2.7-0.21c-0.49,0.08-0.73,1.13-0.51,2.62c0.63,0.79,1.17-0.1,1.76,0.27
				c0.11,0.54,0.23,1.01,0.07,1.65c-1.23,0.66-2.63-0.15-3.62,0.99c-0.17-0.28-0.37-0.07-0.56-0.04c-0.11,0.27-0.17,0.68-0.27,0.99
				c0.04,0.27,0.13,0.39,0.13,0.77c1.17,0,2.07,2.24,3.3,1.79c0.17,0.58,0.34,1.14,0.51,1.68c0.38-0.13,0.97-0.03,1.47-0.38
				c0.11-0.08,0.08,0.27,0.13,0.38c1.17-0.3,2.23-0.75,3.23,0c-0.87,0.31-1.8-0.01-2.62,0.31c-0.14,0.11-0.18,0.46-0.27,0.73
				c-0.73-0.37-1.83,0.08-2.72-0.08c-0.13,0.45-0.16,1.44,0.21,1.41c-0.11,0.3-0.15,0.14-0.31,0.1c0,0.23,0.03,0.34,0.08,0.39
				c-0.48,0.04-0.56,0.08-1.03,0.04c-0.1,0.1-0.13,0.66-0.06,0.89c0.39-0.15,0.75,0.31,1.11,0.34c0.23,0.01,0.37-0.41,0.56-0.46
				c0.1-0.03,0.1,0.25,0.21,0.28c0.11,0,0.27-0.35,0.35-0.35c0.11-0.01,0.17,0.23,0.3,0.27c0.46,0.17,0.96-0.62,1.42-0.52
				c0.37,0.08,0.7,0.97,1.13,0.72c-0.17,0.8-0.46,0.3-0.75,0.32c-0.92,0.11-1.99,1.1-2.76,1.06c-0.1,0.65,0.08,0.9,0.16,1.41
				c0.27-0.2,0.44-0.1,0.65-0.21c0.13-0.11-0.06-0.34,0.06-0.49c0.58-0.01,1.1-0.34,1.76-0.38c0.07,0.48,0.24,0.48,0.13,1.16
				c0.08-0.04,0.11,0.1,0.17,0.14c0.17,0.06-0.01-0.17,0.04-0.51c0.13,0.77,0.35-0.14,0.48,0.42
				C209.86,176.14,210.53,177.2,211.41,176.2z"/>
			<path d="M214.81,163.02C214.6,163.55,214.24,162.76,214.81,163.02L214.81,163.02z"/>
			<path d="M215.64,157.63c-0.07,0-0.14,0-0.23-0.01C215.36,157.22,215.71,157.25,215.64,157.63z"/>
			<path d="M215.86,158.28c-0.14,0.17-0.48,0.2-0.56,0.08C215.46,158.11,215.64,158.18,215.86,158.28z"/>
			<path d="M215.52,156.61c0.07-0.23,0.2-0.28,0.27-0.49C215.83,156.15,215.6,156.95,215.52,156.61z"/>
			<path d="M216.14,150.7c-0.03,0.31-0.25,0.37-0.31,0.23C215.9,150.67,216.02,150.6,216.14,150.7z"/>
			<path d="M216.7,173.58c-0.32,0.35-1.01-0.52-1.25,0.28c-0.06-0.14-0.15-0.14-0.21-0.28c-0.76,0.8-1.58-0.06-2.37,0.45
				c0.34-1.31,1.1,0.39,1.52-0.76c0.35-0.03,0.96,0.27,1.41-0.52v0.51C216.08,173.22,216.52,173.1,216.7,173.58z"/>
			<path d="M217.35,151.33c0,0.08-0.1,0.2-0.32,0.2C217.22,151.22,217.35,151.25,217.35,151.33z"/>
			<path class="st0" d="M197.47,151.63c-0.03,0.31-0.17,0.52-0.25,0.24C197.26,151.68,197.36,151.64,197.47,151.63z"/>
			<path class="st0" d="M201.46,187.21c-0.14,0.06-0.2-0.11-0.3-0.15C201.23,186.9,201.49,186.61,201.46,187.21z"/>
			<path class="st0" d="M201.88,187.75c0,0.37-0.24,0.28-0.3,0.1C201.6,187.57,201.79,187.82,201.88,187.75z"/>
			<path class="st0" d="M203.09,182.4c-0.01,0.28-0.21,0.03-0.3,0.1C202.85,182.3,203.02,182.16,203.09,182.4z"/>
			<path class="st0" d="M203.87,187.78c-0.08,0.39-0.34,0.27-0.52,0.34C203.44,187.79,203.63,187.68,203.87,187.78z"/>
			<path class="st0" d="M205.84,160.53c-0.32-0.37-0.69,0.24-1-0.07C205.11,160.43,205.64,159.94,205.84,160.53z"/>
			<path class="st0" d="M206.89,172.17c0.06,0.62-0.62,0.07-0.75,0.58c-0.1-0.06-0.17-0.17-0.25-0.28c-0.11,0.04-0.23,0.46-0.34,0.1
				C205.88,171.82,206.47,172.65,206.89,172.17z"/>
			<path class="st0" d="M209.75,174.42c-0.06-0.01-0.11-0.01-0.17-0.01c-0.01-0.34,0.01-0.55,0.13-0.49
				C209.75,174.03,209.77,174.2,209.75,174.42z"/>
			<path class="st0" d="M212.81,169.84c-0.54,0.39-0.96,0-1.55,0.25c0.27-0.56,0.87-0.61,1.21-0.16c0.04-0.08,0.04-0.3,0.13-0.24
				C212.8,169.63,213.25,169.86,212.81,169.84z"/>
			<path class="st0" d="M211.77,176.23c-0.04,0.31-0.25,0.37-0.31,0.23C211.53,176.27,211.63,176.2,211.77,176.23z"/>
			<path class="st0" d="M212.26,159.77c-0.08,0.17-0.3,0.37-0.39,0.1C211.92,159.59,212.14,159.84,212.26,159.77z"/>
			<path class="st0" d="M212.26,173.86c0.11,0.49-0.31,0.41-0.48,0.46C211.88,174,212.12,174.1,212.26,173.86z"/>
			<path class="st0" d="M212.5,175.77c-0.11,0.31-0.35,0.21-0.52,0.34C212.07,175.73,212.32,175.85,212.5,175.77z"/>
			<path class="st0" d="M212.59,156.37c-0.01,0.39-0.2,0.34-0.3,0.48C212.3,156.43,212.47,156.47,212.59,156.37z"/>
			<path class="st0" d="M213.33,159.74c-0.3,0.28-0.54,0.25-0.86,0.18C212.61,159.56,213.09,159.67,213.33,159.74z"/>
			<path class="st0" d="M213.32,175.72c-0.2,0.34-0.49-0.28-0.73,0.07C212.81,175.2,213.14,175.66,213.32,175.72z"/>
			<path class="st0" d="M213.5,169.52c0.03,0.55-0.2,0.32-0.34,0.35C213.25,169.65,213.39,169.62,213.5,169.52z"/>
			<path class="st0" d="M213.88,171.07c-0.04,0.28-0.24,0.03-0.35,0.1C213.64,170.86,213.73,171,213.88,171.07z"/>
			<path class="st0" d="M214.21,173c-0.1,0.04-0.08-0.2-0.08-0.39c-0.1-0.06-0.1,0.23-0.21,0.11
				C213.95,172.38,214.28,172.32,214.21,173z"/>
			<path class="st0" d="M214.81,163.02C214.6,163.55,214.24,162.76,214.81,163.02L214.81,163.02z"/>
			<path class="st0" d="M215.86,158.28c-0.14,0.17-0.48,0.2-0.56,0.08C215.46,158.11,215.64,158.18,215.86,158.28z"/>
			<path class="st0" d="M215.64,157.63c-0.07,0-0.14,0-0.23-0.01C215.36,157.22,215.71,157.25,215.64,157.63z"/>
			<path class="st0" d="M216.14,150.7c-0.03,0.31-0.25,0.37-0.31,0.23C215.9,150.67,216.02,150.6,216.14,150.7z"/>
			<path class="st0" d="M217.35,151.33c0,0.08-0.1,0.2-0.32,0.2C217.22,151.22,217.35,151.25,217.35,151.33z"/>
			<path class="st0" d="M208.12,151.08c-0.23,0.56-0.47-0.16-0.77,0.2c0.07-0.17,0.17-0.25,0.21-0.49
				C207.7,151.29,207.94,150.84,208.12,151.08z"/>
			<path class="st0" d="M213.83,163.07c-0.49,0.73-1.56,0.18-1.99,0.35c0.06-0.49,0.44-0.04,0.48-0.59
				c0.01-0.41-0.24-0.07-0.17-0.65c0.11-0.04,0.1,0.24,0.21,0.14c0.01,0.21-0.04,0.21-0.04,0.38c0.21,0.1,0.34-0.1,0.52-0.08
				c-0.03,0.1-0.06,0.2-0.06,0.37C213.04,162.31,213.32,163.39,213.83,163.07z"/>
			<path class="st0" d="M212.83,174.03c-0.06,0.35-0.63,0.15-0.23,0.11c0.06-0.03,0.03-0.13,0-0.13
				C212.61,173.72,212.8,173.96,212.83,174.03z"/>
			<path class="st0" d="M214.39,173.27c0-0.04,0.01-0.08,0.03-0.13C214.47,173.2,214.43,173.25,214.39,173.27z"/>
			<path class="st0" d="M216.7,173.58c-0.32,0.35-1.01-0.52-1.25,0.28c-0.06-0.14-0.15-0.14-0.21-0.28
				c-0.76,0.8-1.58-0.06-2.37,0.45c0.34-1.31,1.1,0.39,1.52-0.76c0.35-0.03,0.96,0.27,1.41-0.52v0.51
				C216.08,173.22,216.52,173.1,216.7,173.58z"/>
			<path class="st0" d="M215.52,156.61c0.07-0.23,0.2-0.28,0.27-0.49C215.83,156.15,215.6,156.95,215.52,156.61z"/>
			<path class="st0" d="M209.09,177.03c-0.13-0.56-0.35,0.35-0.48-0.42c-0.06,0.34,0.13,0.56-0.04,0.51
				c-0.06-0.04-0.08-0.18-0.17-0.14c0.11-0.68-0.06-0.68-0.13-1.16c-0.66,0.04-1.18,0.37-1.76,0.38c-0.11,0.16,0.07,0.38-0.06,0.49
				c-0.21,0.11-0.38,0.01-0.65,0.21c-0.07-0.51-0.25-0.76-0.16-1.41c0.77,0.04,1.85-0.94,2.76-1.06c0.28-0.03,0.58,0.48,0.75-0.32
				c-0.42,0.25-0.76-0.63-1.13-0.72c-0.46-0.1-0.96,0.69-1.42,0.52c-0.13-0.04-0.18-0.28-0.3-0.27c-0.08,0-0.24,0.35-0.35,0.35
				c-0.11-0.03-0.11-0.31-0.21-0.28c-0.2,0.06-0.34,0.48-0.56,0.46c-0.37-0.03-0.72-0.49-1.11-0.34c-0.07-0.23-0.04-0.79,0.06-0.89
				c0.46,0.04,0.55,0,1.03-0.04c-0.06-0.06-0.08-0.17-0.08-0.39c0.15,0.04,0.2,0.2,0.31-0.1c-0.37,0.03-0.34-0.96-0.21-1.41
				c0.89,0.17,1.99-0.28,2.72,0.08c0.08-0.27,0.13-0.62,0.27-0.73c0.82-0.32,1.75,0,2.62-0.31c-1-0.75-2.06-0.3-3.23,0
				c-0.04-0.11-0.01-0.46-0.13-0.38c-0.49,0.35-1.08,0.25-1.47,0.38c-0.17-0.54-0.34-1.1-0.51-1.68c-1.23,0.45-2.13-1.79-3.3-1.79
				c0-0.38-0.08-0.51-0.13-0.77c0.1-0.31,0.15-0.72,0.27-0.99c0.2-0.03,0.39-0.24,0.56,0.04c0.99-1.14,2.4-0.32,3.62-0.99
				c0.15-0.63,0.04-1.11-0.07-1.65c-0.59-0.37-1.13,0.52-1.76-0.27c-0.23-1.49,0.01-2.54,0.51-2.62c0.8-0.14,2.18,0,2.7,0.21
				c2.37-0.89,4.71-0.52,7.11-1.21c-1.34-0.3-2.58,0.51-3.79-0.06c0.01,0.28-0.03,0.41-0.13,0.38c-1.18-0.15-2.49-0.14-3.54,0.35
				c-0.44-0.92-1.28,0.16-1.72-0.77c0.11-1.44,0.48-2.1,0.93-2.47c-0.46,0.08-0.9-0.38-1.3-0.48c-0.31-0.07-0.86,0.37-1.03,0.04
				c-0.04-0.07,0.03-0.31-0.03-0.37c-0.06,0.04-0.24,0.07-0.27,0.1c-0.18,0.15-0.14,0.27-0.35,0.23c-0.27-0.06-0.25-0.08-0.42-0.42
				c-0.92-0.23-1.8,0.23-2.72-0.08c-0.08-0.03-0.28-0.01-0.3-0.03c-0.08-0.08-0.01-0.34-0.13-0.38c-0.07-0.03-0.04,0.27-0.13,0.24
				c-0.37-0.11-0.76-0.24-1.13-0.21c-0.89,0.07-1.94-0.28-2.66-0.21c-0.17-0.1,0.06-0.54-0.17-0.52c-1.25-0.31-2.58-0.56-3.92-0.69
				c-0.1-0.04-0.01-0.61-0.17-0.52c-0.18-0.1-0.14,0.52-0.3,0.48c-0.11-0.17-0.2-0.35-0.25-0.65c-1.54-0.46-3.13,0.04-4.71,0.25
				c-1.48,0.21-2.96,0.2-4.35,0.3c-1.1,0.08-2.16,0.62-3.14,0.25c-1.32,0.44-2.48,0.41-3.72,0.48c-0.89,0.04-1.87-0.25-2.62,0.04
				c-0.13,0.06-0.28,0.34-0.44,0.35c-0.23,0-0.45-0.44-0.69-0.44c-0.61-0.01-1.24,0.51-1.85,0.48c-0.69-0.03-1.35-0.11-2.03-0.15
				c-0.38-0.03-0.75,0.38-1.13,0.42c-0.25,0.01-0.51-0.32-0.77-0.32c-0.72,0.03-1.47,0.58-2.16,0.46c-0.92-0.15-1.86-0.7-2.8-0.08
				c-1.03-0.34-2.28-0.37-3.27-0.14c-0.8-1-1.63,0.03-2.54-0.2c-0.1-0.03-0.15-0.23-0.25-0.28c-1.38-0.75-2.9,0.61-4.02-0.06
				c-0.41,0.66-0.77-0.07-1.16-0.21c-0.42-0.17-0.8,0.27-1.21,0.28c-0.13,0-0.25-0.25-0.38-0.28c-0.41-0.1-0.8,0.32-1.25,0.41
				c-0.68,0.11-1.38-0.97-2.16-0.3c-0.59-0.48-1.47-1.03-2.14-0.42c-1.16-0.96-2.31,0.15-3.49-0.28c-0.39-0.14-0.76-0.82-1.16-0.21
				c-0.42-0.69-0.92-0.3-1.42-0.37c-0.51-0.08-1.03-0.48-1.55-0.63c-0.75-0.23-1.66,0.32-2.23-1.07c-0.25-2.87-0.75,1.37-1.34,0.79
				c-0.32-0.59-0.28-1.39-0.41-2.44c-0.28-0.44-0.55-0.17-0.82,0.06c-0.32-0.28-0.56-1.59-0.99-1.61c-0.18,0-0.41,0.46-0.61,0.46
				c-0.48,0-0.9-0.49-1.38-0.24c-0.42,0.23-0.82,0.9-1.25,1.04c-0.32,0.11-0.44,0.3-0.65,0.46c-0.63,0.46-1.16,0.23-1.44,1.54
				c-0.45,0.86-1,1.37-1.39,2.17c-0.07,0.13-0.2,0.06-0.23,0.11c-0.99,2.01-1.59,5.31-2.78,6.75c-0.1,0.75-0.17,1.83-0.37,2.76
				c-0.08,0.42-0.3,0.69-0.35,1.11c-0.24,1.59-0.03,3.59-0.48,4.79v0.1c0,0.31,0.06,0.42,0.08,0.66c-0.01,3.16,0.15,5.8,0.06,8.26
				c0.3,1.44,0.24,3.11,0.48,4.48c0.14,0.85,0.42,1.63,0.62,2.45c0.21,0.93,0.44,1.65,0.62,2.59c0,0.94,0.27,1.13,0.32,1.93
				c0.34,0.58,0.59,1.39,0.93,1.97c0.04,0.31,0.11,0.51,0.13,0.9c0.72,1.62,1.44,3.62,2.41,4.24c0.1,0.06,0.28,0.17,0.39,0.15
				c0.72-0.03,1.85,0.31,2.23,1.58c0.13,0.1,0.13-0.21,0.25-0.11c0.08,0.59,0.45,1.72,0.79,1.72h0.01c0.11-0.01,0.32-0.83,0.58-0.97
				c0.37-0.21,0.72,0.89,1.07,0.72c0.15-0.07,0.31-0.82,0.48-0.97c0.42-0.44,1.28-0.13,1.63,0.13c0.28,0.2,0.38,0.8,0.59,0.68
				c0.2-0.11,0.34-0.77,0.32-1.75c0.55-2.14,1.96-0.49,2.82-1.42c0.62,0.76,1.21-0.51,1.8-0.37c0.13,0.03,0.27,0.3,0.39,0.28
				c0.2-0.01,0.47-0.42,0.73-0.58c0.45-0.27,0.85-0.2,1.21-0.54c0.56,1.27,0.99-0.2,1.47-0.14c0.18,0.03,0.35,0.42,0.55,0.42
				c0.17,0,0.34-0.37,0.52-0.34c0.18,0.03,0.38,0.44,0.56,0.42c0.13,0,0.24-0.25,0.34-0.23c0.15,0.04,0.24,0.34,0.39,0.28
				c0.15-0.06,0.31-0.54,0.48-0.59c0.58-0.2,1.21,0.32,1.78-0.62c1,0.79,1.86-0.48,3.04,0.37c0.3-0.25,0.52-0.44,0.83-0.18
				c0.06-0.1,0.06-0.41,0.17-0.37c0.62,0.37,1.27-0.69,1.9-0.24c0.01-0.14,0.04-0.28,0.08-0.37c0.87,0.61,1.99,0.69,2.68-0.04
				c0.54,0.63,1.16-0.1,1.8-0.11c0.31-0.01,0.62,0.34,0.9,0.2c0.58-0.27,1.31,0.06,1.86-0.11c0.15-0.04,0.32-0.41,0.48-0.46
				c0.28-0.11,0.59,0.25,0.9,0.07c1.18-0.72,2.54-0.23,3.58-0.23c0.32,0,0.59-0.41,0.96-0.56c0.59-0.24,1.21,0.44,1.8,0.28
				c0.14-0.04,0.3-0.3,0.44-0.35c0.35-0.14,0.69,0.11,1.07,0.08c0.92-0.06,1.85-0.76,2.72-0.17c1.1-0.83,2.72-0.56,4.02-0.69
				c0.28-0.7,0.56-0.1,0.86-0.2c0.92-0.27,2.1-1.06,3.06-0.51c4.06-1.23,8.28-0.69,12.3-2.09c0.31,0.54,0.8,0.2,1.08-0.17
				c0.06,0.34,0.24,0.31,0.38,0.42c0.51-0.85,1.14-0.17,1.78-0.37c0.15-0.83,0.54-0.21,0.77-0.83c0.1,0.45-0.14,0.38,0.04,0.63
				c0.41-1.49,1.8-0.79,2.42-1.2c-0.04-0.01-0.06-0.23,0-0.25c0.15,0.37,0.23-0.38,0.39-0.35c1.13-0.17,1.93-1.65,2.9-2.18
				c0.13,0.21,0.45,0.85,0.56,0.3c-0.18-0.08-0.41-0.04-0.38-0.66c0.28,0.2,0.66-0.07,0.86-0.56c0.35-0.06,0.55,0.27,0.86-0.18
				c0.08,0-0.07-0.65,0.1-0.63c0.51,0.32,0.75-0.21,1.2,0.1c0.14-0.58,0.66-0.76,0.83-0.44c0.14-0.25-0.17-0.49-0.04-0.65
				c0.41-0.18,0.79-0.42,1.17-0.03c0.08-0.28,0.15-0.65,0.31-0.73c0.1-0.04-0.03,0.56,0.13,0.38c0.14-0.32-0.11-0.58-0.08-1.01
				c0.21-0.21,0.17-0.52,0.27-0.87c0.28,0.35,0.48-0.37,0.73-0.58c0.27-0.21,0.56,0,0.83-0.18c0.21-0.15,0.31-0.59,0.56-0.59
				c0.2,0.01,0.37,0.46,0.59,0.44c0.13-0.11-0.07-0.48,0.1-0.51c0.79-0.15,1.58-0.31,2.16-1.1
				C210.53,177.2,209.86,176.14,209.09,177.03z M204.72,178.47c-0.01,0.14,0,0.23,0.04,0.25
				C204.67,179.33,204.47,178.44,204.72,178.47z M206.05,179.07c-0.2-0.08-0.3-0.13-0.39,0.35c-0.41-0.35-0.49,0.3-0.82-0.07
				c0.08-0.59-0.06-0.45-0.03-1.14c0.37-0.06,0.86-0.62,1.13-0.17c0.07,0.01-0.07-0.72,0.04-0.87c0.15,0.31,0.34,0.55,0.61,0.55
				C206.6,178.78,206.07,178.14,206.05,179.07z"/>
		</g>
	</g>
	<g>
		<path class="st0" d="M520.2,133.4c-8.45,0-15.83,1.78-21.94,5.28c-4.73,2.71-9.29,6.19-13.61,10.37V106.1
			c0-3.08-1.1-5.75-3.28-7.93c-2.18-2.17-4.85-3.28-7.93-3.28c-3.02,0-5.64,1.09-7.78,3.23c-2.14,2.14-3.23,4.83-3.23,7.98v126.03
			c0,3.02,1.09,5.64,3.23,7.78c2.14,2.14,4.76,3.23,7.78,3.23c3.01,0,5.65-1.08,7.86-3.21c2.23-2.15,3.35-4.77,3.35-7.81v-59.75
			c9.81-12.03,20.27-18.13,31.12-18.13c13.59,0,20.19,7.41,20.19,22.65v55.22c0,3.02,1.09,5.64,3.23,7.78
			c2.14,2.14,4.76,3.23,7.78,3.23c3.07,0,5.75-1.08,7.95-3.21c2.23-2.15,3.35-4.77,3.35-7.81v-57.29c0-11.65-3.44-21.55-10.22-29.43
			C541.21,137.44,531.83,133.4,520.2,133.4z"/>
		<path class="st0" d="M659.51,146.59c-3.48-4.03-8.17-7.29-14-9.64c-5.75-2.35-12.37-3.55-19.68-3.55
			c-12.08,0-24.07,2.49-35.57,7.43c-4.29,1.73-6.54,5.01-6.54,9.49c0,2.68,0.93,4.99,2.8,6.81c1.85,1.8,4.08,2.73,6.64,2.73
			c0.89,0,1.92-0.17,3.26-0.5c9.54-3.14,18.34-4.72,26.18-4.72c8.7,0,15.15,1.82,19.15,5.39c3.91,3.5,5.9,9.35,5.94,17.36h-22.46
			c-15.51,0-27.52,3.12-35.72,9.25c-8.37,6.28-12.59,14.79-12.59,25.29c0,9.76,3.45,17.64,10.26,23.49
			c6.74,5.78,15.01,8.7,24.57,8.7c14.14,0,26.23-4.27,35.93-12.68v0.67c0,3.02,1.1,5.63,3.24,7.79c2.13,2.13,4.77,3.24,7.79,3.24
			c3,0,5.63-1.08,7.84-3.21c2.23-2.16,3.36-4.77,3.36-7.81v-57.1c0-5.32-0.89-10.45-2.61-15.22
			C665.55,155.01,662.93,150.55,659.51,146.59z M647.69,210.21c-3.48,3.84-7.81,7.12-12.87,9.8c-5.25,2.76-10.72,4.15-16.28,4.15
			c-7.07,0-12.15-1.32-15.08-3.93c-2.9-2.59-4.31-5.94-4.31-10.26c0-3.45,0-13.98,28.45-13.98h20.09V210.21z"/>
		<path class="st0" d="M780.18,134.39c-3.01,0-5.65,1.08-7.86,3.21c-2.23,2.15-3.35,4.77-3.35,7.81v59.85
			c-9.81,11.97-20.27,18.03-31.12,18.03c-13.59,0-20.19-7.38-20.19-22.55V145.4c0-3.02-1.09-5.64-3.23-7.78
			c-2.14-2.14-4.76-3.23-7.78-3.23c-3.01,0-5.65,1.08-7.85,3.21c-2.23,2.15-3.36,4.77-3.36,7.81v57.29
			c0,11.65,3.42,21.55,10.17,29.43c6.82,7.97,16.18,12.01,27.82,12.01c8.44,0,15.83-1.78,21.94-5.28
			c4.73-2.71,9.29-6.19,13.61-10.37v3.45c0,3.09,1.1,5.75,3.28,7.93c2.18,2.18,4.85,3.28,7.93,3.28c3.02,0,5.64-1.09,7.78-3.23
			c2.14-2.14,3.23-4.83,3.23-7.98V145.4c0-3.02-1.09-5.64-3.23-7.78C785.82,135.47,783.2,134.39,780.18,134.39z"/>
		<path class="st0" d="M969.12,146.95c-2.8-4.05-6.61-7.36-11.34-9.83c-4.73-2.47-10.16-3.72-16.16-3.72
			c-15.77,0-28.12,6.29-36.74,18.71c-2.51-4.7-6.09-8.81-10.66-12.26c-5.67-4.28-12.58-6.45-20.52-6.45
			c-4.69,0-9.08,0.59-13.05,1.75c-4.01,1.18-7.53,2.87-10.45,5.03c-2.85,2.1-5.2,4.13-7,6.04c-0.59,0.63-1.19,1.29-1.79,1.99v-2.61
			c0-3.02-1.12-5.67-3.33-7.88c-2.21-2.21-4.86-3.33-7.88-3.33c-3.03,0-5.66,1.13-7.81,3.36c-2.13,2.21-3.21,4.85-3.21,7.86v86.53
			c0,3.02,1.09,5.64,3.23,7.78c2.14,2.14,4.76,3.23,7.78,3.23c3.01,0,5.65-1.08,7.85-3.21c2.23-2.15,3.35-4.77,3.35-7.81v-59.9
			c1.44-2.35,2.9-4.46,4.34-6.26c1.53-1.9,3.44-3.86,5.67-5.81c2.14-1.86,4.67-3.33,7.54-4.36c2.89-1.03,6.1-1.56,9.53-1.56
			c6.8,0,11.62,1.81,14.34,5.38c2.84,3.74,4.28,9.81,4.28,18.06v54.44c0,3.02,1.09,5.64,3.23,7.78c2.14,2.14,4.76,3.23,7.78,3.23
			c3.01,0,5.65-1.08,7.86-3.21c2.23-2.15,3.35-4.77,3.35-7.81v-59.9c1.44-2.35,2.9-4.46,4.34-6.26c1.52-1.9,3.43-3.85,5.67-5.8
			c2.13-1.86,4.67-3.33,7.54-4.36c2.89-1.03,6.1-1.56,9.53-1.56c6.8,0,11.63,1.81,14.34,5.38c2.84,3.74,4.28,9.81,4.28,18.06v54.44
			c0,3.02,1.09,5.64,3.23,7.78c2.14,2.14,4.76,3.23,7.78,3.23c3.07,0,5.75-1.08,7.95-3.21c2.23-2.15,3.36-4.77,3.36-7.81v-58.08
			c0-4.82-0.69-9.6-2.05-14.19C973.93,155.25,971.85,150.91,969.12,146.95z"/>
		<path class="st0" d="M1078.75,146.59c-3.48-4.03-8.17-7.29-13.98-9.64c-5.75-2.35-12.39-3.55-19.68-3.55
			c-12.11,0-24.09,2.49-35.6,7.43c-4.27,1.73-6.54,5.01-6.54,9.49c0,2.68,0.96,4.99,2.8,6.81c1.87,1.8,4.1,2.73,6.64,2.73
			c0.91,0,1.92-0.17,3.28-0.5c9.52-3.14,18.34-4.72,26.15-4.72c8.73,0,15.17,1.82,19.18,5.39c3.88,3.5,5.9,9.35,5.95,17.36h-22.46
			c-15.53,0-27.54,3.12-35.72,9.25c-8.37,6.28-12.61,14.79-12.61,25.29c0,9.76,3.45,17.64,10.28,23.49
			c6.74,5.78,14.98,8.7,24.55,8.7c14.17,0,26.23-4.27,35.96-12.68v0.67c0,3.02,1.08,5.63,3.24,7.79c2.13,2.13,4.75,3.24,7.77,3.24
			c3.02,0,5.66-1.08,7.86-3.21c2.23-2.16,3.36-4.77,3.36-7.81v-57.1c0-5.32-0.89-10.45-2.64-15.22
			C1084.79,155.01,1082.18,150.55,1078.75,146.59z M1066.95,210.21c-3.48,3.84-7.81,7.12-12.9,9.8c-5.23,2.76-10.69,4.15-16.25,4.15
			c-7.1,0-12.18-1.32-15.1-3.93c-2.9-2.59-4.31-5.94-4.31-10.26c0-3.45,0-13.98,28.48-13.98h20.09V210.21z"/>
		<path class="st0" d="M1185.75,221.11h-47.54l53.71-62.99c2.17-2.77,3.27-5.89,3.27-9.28c0-3.95-1.3-7.2-3.84-9.67
			c-2.53-2.46-5.84-3.7-9.83-3.7h-61.13c-2.97,0-5.48,1.05-7.47,3.11c-1.96,2.04-2.96,4.57-2.96,7.51c0,2.96,1,5.46,2.99,7.44
			c1.98,1.98,4.48,2.99,7.44,2.99h46.69l-55.16,63.4c-2.48,2.85-3.73,6.06-3.73,9.55c0,4.03,1.46,7.22,4.35,9.47
			c2.74,2.14,6.2,3.22,10.31,3.22h62.9c2.94,0,5.47-1,7.51-2.96c2.06-1.98,3.11-4.49,3.11-7.47c0-2.96-1.04-5.49-3.08-7.54
			C1191.24,222.15,1188.7,221.11,1185.75,221.11z"/>
		<path class="st0" d="M1302.93,148.77c-9.78-10.21-22.85-15.37-38.81-15.37c-16.04,0-29.13,5.15-38.93,15.32
			c-9.76,10.14-14.72,23.64-14.72,40.08c0,16.47,4.96,29.94,14.72,40.06c9.8,10.12,22.89,15.27,38.93,15.27
			c15.97,0,29.01-5.15,38.81-15.32c9.76-10.14,14.72-23.61,14.72-40.01C1317.65,172.41,1312.69,158.94,1302.93,148.77z
			 M1292.58,204.82c-1.89,4.6-4.36,8.22-7.38,10.81c-3.09,2.61-6.45,4.6-10,5.9c-3.52,1.29-7.26,1.94-11.07,1.94
			c-3.84,0-7.58-0.65-11.17-1.94c-3.55-1.29-6.93-3.28-10.02-5.9c-3.02-2.56-5.49-6.18-7.34-10.76c-1.85-4.63-2.8-10.09-2.8-16.25
			c0-6.09,0.96-11.51,2.8-16.09c1.85-4.55,4.31-8.15,7.34-10.71c3.09-2.64,6.45-4.6,10.02-5.85c3.57-1.27,7.34-1.92,11.17-1.92
			c3.81,0,7.55,0.65,11.1,1.92c3.52,1.25,6.88,3.21,9.97,5.85c3.02,2.56,5.51,6.16,7.38,10.71c1.89,4.6,2.85,10,2.85,16.09
			C1295.43,194.7,1294.47,200.14,1292.58,204.82z"/>
		<path class="st0" d="M430.34,130.77c-0.1,0-0.19,0.02-0.26,0.12C430.17,131.06,430.31,130.94,430.34,130.77z"/>
		<path class="st0" d="M434.05,150.86c0.1,0.02,0.14,0.12,0.29,0.07C434.36,150.59,434.12,150.76,434.05,150.86z"/>
		<path class="st0" d="M434.46,151.31c0.07,0.1,0.31,0.14,0.31-0.07C434.68,151.29,434.48,151.15,434.46,151.31z"/>
		<path class="st0" d="M435.68,148.27c0.1-0.05,0.29,0.1,0.31-0.07C435.92,148.08,435.75,148.15,435.68,148.27z"/>
		<path class="st0" d="M436.76,151.27c-0.24-0.05-0.41,0-0.53,0.19C436.43,151.41,436.66,151.48,436.76,151.27z"/>
		<path class="st0" d="M438.73,135.8c-0.17-0.34-0.72-0.05-0.98-0.05C438.06,135.95,438.41,135.59,438.73,135.8z"/>
		<path class="st0" d="M438.46,142.64c0.12,0.19,0.22-0.02,0.34-0.07c0.07,0.07,0.17,0.14,0.26,0.17c0.12-0.29,0.79,0.02,0.74-0.34
			C439.37,142.68,438.77,142.2,438.46,142.64z"/>
		<path class="st0" d="M442.49,143.67c0.07,0,0.12,0.02,0.19,0.02c0-0.14-0.02-0.24-0.05-0.29
			C442.51,143.38,442.49,143.47,442.49,143.67z"/>
		<path class="st0" d="M445.75,141.08c0.43,0.02-0.02-0.12-0.22-0.07c-0.1-0.02-0.1,0.1-0.14,0.14c-0.34-0.26-0.93-0.24-1.2,0.07
			C444.77,141.08,445.2,141.32,445.75,141.08z"/>
		<path class="st0" d="M444.7,144.7c-0.14,0-0.24,0.02-0.31,0.14C444.43,144.91,444.65,144.89,444.7,144.7z"/>
		<path class="st0" d="M445.17,135.37c-0.1,0.05-0.34-0.1-0.38,0.05C444.89,135.59,445.1,135.47,445.17,135.37z"/>
		<path class="st0" d="M445.17,143.35c-0.12,0.14-0.36,0.1-0.48,0.26C444.86,143.59,445.29,143.64,445.17,143.35z"/>
		<path class="st0" d="M445.44,144.46c-0.19,0.05-0.46-0.02-0.53,0.19C445.08,144.58,445.32,144.63,445.44,144.46z"/>
		<path class="st0" d="M445.51,133.45c-0.12,0.05-0.29,0.02-0.29,0.26C445.32,133.65,445.49,133.67,445.51,133.45z"/>
		<path class="st0" d="M446.28,135.35c-0.24-0.02-0.74-0.1-0.89,0.12C445.73,135.52,445.97,135.52,446.28,135.35z"/>
		<path class="st0" d="M445.51,144.46c0.24-0.19,0.53,0.14,0.74-0.05C446.06,144.39,445.73,144.12,445.51,144.46z"/>
		<path class="st0" d="M446.45,140.91c-0.12,0.05-0.26,0.07-0.36,0.19C446.23,141.08,446.47,141.22,446.45,140.91z"/>
		<path class="st0" d="M446.8,141.77c-0.14-0.02-0.24-0.12-0.34,0.07C446.57,141.8,446.78,141.94,446.8,141.77z"/>
		<path class="st0" d="M447.14,142.88c0.07-0.38-0.26-0.34-0.31-0.17c0.12,0.07,0.12-0.1,0.24-0.05
			C447.07,142.78,447.04,142.9,447.14,142.88z"/>
		<path class="st0" d="M447.74,137.22C447.16,137.07,447.55,137.51,447.74,137.22L447.74,137.22z"/>
		<path class="st0" d="M448.79,134.53c-0.22-0.07-0.38-0.1-0.58,0.05C448.32,134.63,448.65,134.63,448.79,134.53z"/>
		<path class="st0" d="M448.36,134.15h0.22C448.65,133.93,448.29,133.93,448.36,134.15z"/>
		<path class="st0" d="M449.08,130.22c-0.12-0.05-0.26,0-0.31,0.14C448.82,130.43,449.03,130.41,449.08,130.22z"/>
		<path class="st0" d="M449.97,130.7c0.22,0,0.31-0.07,0.31-0.1C450.28,130.53,450.16,130.53,449.97,130.7z"/>
		<path class="st0" d="M441.03,130.43c-0.19-0.12-0.43,0.12-0.55-0.17c-0.05,0.14-0.17,0.19-0.24,0.29
			C440.57,130.36,440.81,130.77,441.03,130.43z"/>
		<path class="st0" d="M445.73,137.19c0-0.1,0.02-0.14,0.05-0.22c-0.19,0-0.31,0.12-0.53,0.05c0-0.07,0.05-0.1,0.05-0.22
			c-0.12,0.07-0.12-0.1-0.22-0.07c-0.07,0.34,0.17,0.14,0.17,0.36c-0.05,0.34-0.43,0.07-0.48,0.34c0.43-0.07,1.51,0.22,1.99-0.19
			C446.25,137.43,445.97,136.81,445.73,137.19z"/>
		<path class="st0" d="M445.53,143.45c0.02,0,0.05,0.07,0,0.07c-0.41,0.02,0.17,0.14,0.22-0.07
			C445.73,143.43,445.53,143.28,445.53,143.45z"/>
		<path class="st0" d="M447.36,142.95c-0.02,0.02-0.02,0.05-0.05,0.07C447.36,143.02,447.43,143,447.36,142.95z"/>
		<path class="st0" d="M448.75,143.02v-0.29c-0.46,0.46-1.08,0.29-1.44,0.29c-0.43,0.65-1.2-0.29-1.51,0.43
			c0.79-0.29,1.61,0.22,2.37-0.24c0.05,0.07,0.17,0.07,0.22,0.14c0.24-0.46,0.93,0.05,1.25-0.14
			C449.47,142.95,449.01,143,448.75,143.02z"/>
		<path class="st0" d="M448.72,133.33c-0.07,0.1-0.19,0.12-0.26,0.24C448.55,133.74,448.72,133.38,448.72,133.33z"/>
		<path class="st0" d="M444.1,144.84c-0.77,0.31-1.37-0.14-2.09,0.31c-0.12-0.31-0.36,0.22-0.48-0.22
			c-0.05,0.17,0.12,0.31-0.05,0.29c-0.05-0.05-0.07-0.12-0.17-0.1c0.1-0.38-0.05-0.38-0.12-0.65c-0.67,0.02-1.2,0.19-1.77,0.22
			c-0.12,0.07,0.07,0.22-0.05,0.29c-0.22,0.05-0.38,0-0.65,0.1c-0.1-0.29-0.26-0.41-0.17-0.79c0.79,0.02,1.85-0.53,2.78-0.6
			c0.29-0.02,0.58,0.29,0.74-0.17c-0.43,0.12-0.77-0.38-1.13-0.43c-0.48-0.05-0.98,0.41-1.44,0.31c-0.12-0.02-0.17-0.17-0.29-0.17
			c-0.1,0-0.26,0.22-0.36,0.22c-0.12-0.02-0.12-0.17-0.22-0.17c-0.19,0.05-0.34,0.29-0.55,0.26c-0.38,0-0.72-0.29-1.13-0.19
			c-0.07-0.12-0.05-0.46,0.05-0.5c0.48,0.02,0.55,0,1.03-0.02c-0.05-0.02-0.07-0.1-0.07-0.22c0.14,0.02,0.19,0.12,0.31-0.07
			c-0.36,0.02-0.34-0.53-0.22-0.79c0.89,0.1,1.99-0.14,2.73,0.05c0.07-0.14,0.12-0.36,0.26-0.41c0.82-0.19,1.75,0,2.64-0.17
			c-1.01-0.43-2.06-0.19-3.24,0c-0.05-0.07-0.02-0.29-0.14-0.24c-0.5,0.22-1.08,0.17-1.46,0.24c-0.17-0.31-0.34-0.65-0.5-0.96
			c-1.25,0.26-2.13-1.01-3.31-1.03c0-0.22-0.1-0.26-0.12-0.43c0.1-0.17,0.14-0.41,0.26-0.55c0.19-0.02,0.38-0.14,0.55,0.02
			c1.01-0.65,2.4-0.19,3.64-0.58c0.14-0.34,0.02-0.62-0.07-0.94c-0.6-0.19-1.13,0.31-1.77-0.14c-0.22-0.84,0.02-1.44,0.5-1.49
			c0.82-0.07,2.21,0,2.73,0.12c2.35-0.5,4.7-0.29,7.14-0.7c-1.37-0.14-2.61,0.29-3.81-0.02c0,0.17-0.05,0.24-0.14,0.22
			c-1.17-0.1-2.49-0.07-3.55,0.19c-0.43-0.5-1.27,0.1-1.7-0.43c0.1-0.82,0.46-1.17,0.91-1.39c-0.46,0.05-0.89-0.22-1.29-0.29
			c-0.31-0.02-0.86,0.22-1.03,0.05c-0.05-0.05,0.05-0.22-0.05-0.24c-0.07,0.02-0.22,0.05-0.24,0.07c-0.19,0.1-0.14,0.14-0.36,0.12
			c-0.26-0.02-0.26-0.05-0.43-0.22c-0.91-0.14-1.8,0.12-2.71-0.07h-0.31c-0.1-0.05-0.02-0.19-0.12-0.22
			c-0.07-0.02-0.05,0.14-0.14,0.12c-0.36-0.05-0.77-0.12-1.13-0.12c-0.89,0.05-1.94-0.14-2.66-0.12c-0.17-0.05,0.05-0.29-0.17-0.29
			c-1.27-0.17-2.59-0.31-3.93-0.38c-0.1-0.02-0.02-0.36-0.17-0.31c-0.19-0.05-0.14,0.31-0.31,0.29c-0.1-0.1-0.19-0.22-0.26-0.38
			c-1.53-0.26-3.12,0.02-4.7,0.17c-1.49,0.1-2.97,0.1-4.36,0.14c-1.13,0.05-2.18,0.36-3.16,0.17c-1.34,0.24-2.49,0.22-3.72,0.26
			c-0.91,0.02-1.89-0.14-2.64,0.02c-0.14,0.02-0.29,0.19-0.46,0.19c-0.14,0-0.29-0.1-0.43-0.17v-3.57v-17.02
			c0-3.04-1.08-5.68-3.24-7.81c-0.53-0.53-1.1-1.01-1.7-1.41c-1.77-1.22-3.84-1.82-6.11-1.82c-2.97,0-5.56,1.05-7.67,3.19
			c-2.11,2.11-3.19,4.75-3.19,7.86v5.85v11.17v3.6c-0.14-0.07-0.26-0.12-0.38-0.14c-0.43-0.1-0.82,0.14-1.22,0.14
			c-0.12,0-0.24-0.14-0.38-0.14c-0.41-0.07-0.79,0.17-1.25,0.22c-0.67,0.07-1.39-0.55-2.16-0.17c-0.6-0.26-1.49-0.58-2.16-0.24
			c-1.15-0.53-2.33,0.1-3.5-0.14c-0.41-0.1-0.77-0.48-1.17-0.12c-0.41-0.41-0.91-0.17-1.41-0.22c-0.5-0.05-1.03-0.26-1.56-0.36
			c-0.74-0.12-1.68,0.19-2.23-0.6c-0.26-1.63-0.77,0.77-1.34,0.43c-0.34-0.31-0.29-0.79-0.43-1.37c-0.26-0.26-0.53-0.1-0.82,0.02
			c-0.31-0.17-0.55-0.89-0.98-0.91c-0.19,0-0.41,0.26-0.6,0.26c-0.48,0-0.91-0.26-1.39-0.12c-0.41,0.12-0.82,0.5-1.25,0.58
			c-0.34,0.07-0.46,0.17-0.67,0.26c-0.62,0.26-1.15,0.12-1.44,0.86c-0.46,0.5-1.01,0.79-1.39,1.25c-0.07,0.07-0.19,0.02-0.22,0.05
			c-1.01,1.15-1.63,3.02-2.8,3.84c-0.1,0.43-0.17,1.03-0.36,1.58c-0.1,0.22-0.29,0.38-0.36,0.62c-0.24,0.89-0.02,2.04-0.48,2.71
			v0.07c0,0.17,0.07,0.24,0.1,0.36c-0.02,1.8,0.14,3.31,0.05,4.67c0.31,0.81,0.24,1.77,0.48,2.54c0.14,0.48,0.43,0.93,0.62,1.39
			c0.22,0.53,0.43,0.94,0.62,1.49c0,0.53,0.26,0.62,0.34,1.08c0.34,0.34,0.58,0.79,0.93,1.13c0.02,0.19,0.1,0.29,0.12,0.5
			c0.72,0.94,1.44,2.06,2.42,2.42c0.07,0.02,0.26,0.1,0.38,0.1c0.72-0.02,1.85,0.17,2.23,0.89c0.14,0.05,0.12-0.12,0.26-0.07
			c0.07,0.36,0.46,0.98,0.79,0.98h0.02c0.1-0.02,0.31-0.48,0.55-0.55c0.38-0.12,0.74,0.5,1.08,0.41c0.17-0.05,0.34-0.46,0.48-0.55
			c0.43-0.26,1.29-0.07,1.65,0.07c0.29,0.12,0.38,0.46,0.6,0.38c0.19-0.07,0.34-0.43,0.31-1.01c0.55-1.2,1.97-0.26,2.83-0.79
			c0.62,0.43,1.22-0.29,1.82-0.22c0.12,0.02,0.26,0.17,0.38,0.17c0.19-0.02,0.48-0.24,0.74-0.34c0.46-0.14,0.84-0.12,1.2-0.31
			c0.58,0.72,1.01-0.1,1.49-0.07c0.17,0.02,0.36,0.24,0.55,0.24c0.17,0,0.34-0.22,0.53-0.19c0.19,0.02,0.38,0.24,0.55,0.24
			c0.14,0,0.24-0.14,0.36-0.12c0.14,0.02,0.24,0.19,0.38,0.17c0.17-0.05,0.31-0.31,0.48-0.36c0.58-0.1,1.22,0.19,1.77-0.34
			c1.01,0.43,1.87-0.29,3.07,0.19c0.29-0.14,0.5-0.24,0.81-0.1c0.07-0.05,0.07-0.22,0.19-0.22c0.24,0.1,0.48,0.05,0.74-0.02v3.31
			v54.63c0,16.23,6.66,26.11,20.26,29.92c4.05,1.49,8.97,2.28,14.89,2.28c7.31,0,14.12-1.44,20.18-4.27
			c3.28-1.61,5.18-4.03,5.66-7.21c0.55-3.67-1.15-7.46-4.22-9.42c-1.41-0.91-2.95-1.37-4.67-1.37c-1.13,0-3.07,0.36-5.83,1.1
			c-2.9,0.74-5.85,1.1-8.8,1.13c-3.69,0.05-7.46-0.19-10.45-1.7c-0.5-0.31-1.01-0.62-1.39-1.01c-1.01-0.96-1.85-2.37-2.61-4.31
			c-0.74-1.92-1.1-4.27-1.1-7.02v-52.74v-4.72c0.86-0.1,1.8-0.05,2.61-0.1c0.29-0.38,0.58-0.05,0.86-0.1
			c0.93-0.17,2.11-0.6,3.07-0.29c4.08-0.7,8.32-0.41,12.35-1.17c0.31,0.29,0.81,0.1,1.08-0.1c0.07,0.17,0.24,0.17,0.38,0.22
			c0.5-0.48,1.15-0.1,1.77-0.19c0.17-0.48,0.55-0.12,0.79-0.48c0.1,0.26-0.14,0.22,0.05,0.36c0.41-0.84,1.8-0.46,2.42-0.67
			c-0.05,0-0.05-0.14,0-0.14c0.17,0.19,0.22-0.22,0.41-0.22c1.13-0.1,1.94-0.91,2.9-1.22c0.12,0.12,0.46,0.48,0.58,0.17
			c-0.19-0.05-0.41-0.02-0.38-0.38c0.29,0.12,0.67-0.05,0.86-0.31c0.36-0.05,0.55,0.14,0.86-0.12c0.07,0.02-0.07-0.36,0.1-0.36
			c0.5,0.19,0.74-0.12,1.2,0.07c0.14-0.34,0.67-0.43,0.84-0.26c0.14-0.14-0.17-0.26-0.05-0.36c0.41-0.1,0.79-0.24,1.17-0.02
			c0.1-0.14,0.14-0.36,0.31-0.41c0.1-0.02-0.02,0.34,0.12,0.22c0.14-0.19-0.12-0.34-0.07-0.58c0.19-0.12,0.17-0.29,0.26-0.48
			c0.29,0.19,0.48-0.22,0.74-0.34c0.26-0.12,0.55,0,0.81-0.12c0.22-0.07,0.31-0.34,0.58-0.31c0.19,0,0.38,0.24,0.6,0.24
			c0.12-0.07-0.07-0.29,0.1-0.29C442.87,145.25,443.54,145.18,444.1,144.84z"/>
	</g>
</g>
</svg>
