<svg xmlns="http://www.w3.org/2000/svg" xml:space="preserve" id="Layer_1" x="0" y="0" version="1.1" viewBox="0 0 653.5 653.5"><style>.st0{fill-rule:evenodd;clip-rule:evenodd}</style><path d="M23.34 326.4c.15 0 .46 1.79.55 6.16-.77-3.74-.77-6.16-.55-6.16M22.94 350.05c.7.58 1.18 4.88.94 5.88-.64-1.15-.97-3.79-.94-5.88M36.71 360.54c-.64-1.21-1.09-3.46-1.61-4.79-.06-.73 2.12 3.09 1.61 4.79M38.62 358.05c.15 1.33.3 2.67.45 3.97-.69 1.28-1.42-5.15-.45-3.97M39.62 354.05c.48 2.4 1.46 8.64 1.39 10.28-.94-3.18-1.33-6.4-1.39-10.28M50.32 419.43c-.97 0-1.91-3.03-2.82-5.12.97.21 1.88 3.33 2.82 5.12M52.11 371.4c1.76 3.57 1.25 10.28 0 0M50.66 399.02c2.15 5.19 3.12 9.25 4.79 15.07-1.61-2.18-3.7-10.82-4.79-15.07M58.9 424.55c-.88-.61-1.64-4.67-2.49-6.64.86 1.37 2.46 4.79 2.49 6.64M62.3 414.82c-.88.09 1.24 4.12-.36 3.27-.67-1.76-.03-1.73-.94-3.73.36-.33.7.58 1.06.52-1.06-3.7-2.09-5.61-2.97-8.79.33.36.67.7 1.03.58-2.58-3.79-1.91-9.22-4.49-17.89 3.03 8.19 7.73 26.71 10.64 33.72-1.36-.71-2.57-7.32-3.97-7.68M70.37 390.95c1.03-.7 1.43 3.15 2.21 5.49-.82-1.24-1.58-3.55-2.21-5.49M72.19 384.04c.73.42.97 3.94 1.52 5.58-1.04-1.52-1.1-3.06-1.52-5.58M74.52 379.37c.27 1.7.82 1.46 1.03 3.46-.91-.61-2.18-5.82-.49-4.97.37 1.48-.12 1.39-.54 1.51M70.67 351.9l1.09-.03c-.33-4.52-1.33-11.77-.3-14.83.36 2.64.52 6.82.64 10.83.06 3.97.52 7.76 1.64 9.55-.18.94.03 2.61-.15 3.55 3.37 12.07 4.15 25.68 8.98 37.78-4.37-4.61-3.85-17.53-7.4-23.74-.12-.24-.24-.45-.39-.67-.03-1 .21-.21.36.49-.48-2.79-1.15-6.7-1.76-10.79-.59-4.2-1.5-8.53-2.71-12.14M74.13 402.08c3.43 8.43 4.94 15.53 9.22 24.59-1.39-1.88-3.06-5.19-4.52-8.76-1.27-3.61-2.33-7.49-2.79-10.31-.39-.67-.85-.58-1.21-1.94-1.07-3.24-2.67-10.67-.7-3.58M83.07 508.33c-1.12-.91-2.4-2.4-3.34-2.85-.61-2.79-4.25-6.03-5.7-9.28 3.34 2.92 4.83 7.49 9.04 12.13M84.01 390.62c1.61 3 1.64 7.94 3.4 11.34-2.19-3.09-2.67-8.4-3.4-11.34M82.74 399.44c.88.64 3.37 9.58 1.21 3.34-.27-.76-.39-.33-.27.06-.67-.03-.97-2.94-.94-3.4M88.65 415.3c-1.27-1.36-2.3-5.15-3.49-7.03.4-2.18 2.43 4.58 3.49 7.03M91.2 410.97c-1.21-1-2.24-4.91-3.37-7.7 1.22 1.48 2.25 5.21 3.37 7.7M94.84 418.52c-.76-.82-1.52-2.37-2.24-4.37.78.24 2.21 3.52 2.24 4.37M101.6 446.44c-.03-.61.21-.94.67-1.06l1.27 2.49c-.58.49-1.21.27-1.94-1.43M128.74 530.83c-3.49-3.27-11.01-9.7-12.34-13.13 3.36 4.85 8.91 8.86 12.34 13.13M131.38 496.42c-2.61-3.06-5.03-6.46-7.61-8.88.24-.82 1.85 1.18 3.67 3.46 1.79 2.3 4.03 4.76 5.06 5.19 1 1.33 1.64 2.43 2.33 3.58 1.3 1.43 3.18 2.15 4 4.09-2.51-1.38-4.94-4.35-7.45-7.44M186.62 502.81c-1.67-.33-3.7-1.88-6.22-4.31 1.49.16 3.95 2.83 6.22 4.31M181.83 514.73c.64-.27 2.58 1.94 3.76 2.67-1-.24-3.15-1.55-3.76-2.67M206.94 518.19c-.61.33-2.64-1.61-3.82-2.18.51-.61 3.33 1.42 3.82 2.18M211.21 522.95c-1.15-.3-4.55-1.76-3.52-2.64 1.8 1 2.31 1.79 3.52 2.64M241.81 618.68c-1.15.06-2.97-.27-5-1 .66-.43 3.48 0 5 1"/><path d="M630.55 327.73c-.27 6.43-.24 12.8-.91 19.16-.27 3.18-.55 6.4-.85 9.61-.39 3.18-.82 6.43-1.24 9.67-1.46 11.58-2.82 23.59-5.64 35.05-1.15 4.21-3.28 8.19-4.46 12.37-.73 2.79-1.18 5.73-1.82 8.16-3.85 13.89-11.67 31.17-19.74 46.24-2.73 5.28-5.73 10.28-8.61 15.31-3.12 4.85-6.03 9.82-9.37 14.59-3.34 4.76-6.61 9.64-10.28 14.37-1.82 2.4-3.61 4.85-5.52 7.25-1.94 2.4-3.91 4.82-5.91 7.31-13.1 13.65-27.02 28.41-43.88 41.42-21.38 16.37-46.3 30.66-72.74 41.27-14.16 5.7-28.69 10.67-43.48 14.07-14.8 3.46-29.78 5.79-44.6 6.22-1.09-.55-2.94-.82-4.91-1.03-3.18.12-2.27 1.33-5.82 1.24-2.85.27-1.33-.97-3.27-1.03-12.86.33-25.59-.61-38.09-1.94-12.46-1.64-24.62-3.76-36.21-6.82-4.09-.91.09-.91-2.88-1.79-13.55-2.97-32.54-9.7-48.15-16.28-6.22-2.7-13.19-6.06-19.04-9.49-1.58-.91-1.39-.06-2.46-.7-1.88-1.06-.36-.91-1.73-1.82-.24-.12-3.49-1.82-4.97-2.82-14.77-8.98-29.29-17.62-42.45-28.99-2.03-2.52-1.88-2.55-5.61-5.88-2.85-2.61-2.55-2.03-5.28-3.94-.36-.18-3.52-3.03-4.03-3.49.03.06.06.09.09.15-.21-.21-.24-.24-.12-.18-.33-.52.67-.21.3-.76-.88-1.3-3.37-3.58-6.16-6.06-2.79-2.49-5.7-5.43-7.76-7.64-1.21-1.36-2.46-2.79-3.67-4.31-1.18-1.55-2.4-3.12-3.64-4.76-2.46-3.21-5.09-6.52-7.82-9.95 2.91 3.15 5.88 5.67 8.49 7.43 2.61 1.73 4.88 2.61 6.7 2.37-1.85-3.79-5.94-8.07-9.61-12.64-3.73-4.58-7.46-9.16-8.92-13.07-12.1-14.83-24.44-35.96-32.57-56.28-.58-1.61-1.12-2.27-1.67-1.97-7.28-20.98-15.4-42.69-18.59-67.47 4.06 21.98 10.1 43.24 18.35 63.4 8.28 20.16 18.68 39.36 31.81 56.58 1.27 2 3.15 4.82 5.4 8.1 2.24 3.24 5.06 6.82 7.91 10.55 2.88 3.73 6.16 7.34 9.16 10.83 3.03 3.46 6.16 6.52 8.73 9.16 6.4 6.25 11.19 7.43 10.4 2.33-6.97-8.98-14.86-14.89-21.2-23.53-.36-2.15-.76-4.49 1.91-3.24 7.61 7.85 15.31 16.62 23.53 24.14 8.01 7.73 16.37 14.31 24.02 18.65 1.97 2.4 5.12 3.97 7.91 5.91 1.88.64 3.31.55 5.03.94-.18-.82-1.33-1.97-.79-2.58-4.15-2.97-7.94-5.94-11.28-9.22-3.4-3.21-6.58-6.43-9.58-9.85-1.55-1.67-3.09-3.37-4.64-5.03-1.55-1.73-3.09-3.46-4.67-5.22s-3.27-3.46-5-5.25c-1.67-1.79-3.46-3.61-5.34-5.43-1.03-2.85-2.09-5.73-3.09-8.76-4.58-4.7-10.61-12.43-16.19-18.8-1.3-1.52-.33-1.46-.55-2.24-12.04-15.65-21.65-31.02-27.08-47.27 6.61 13.34 13.46 27.41 21.83 38.6 1.4 1.76 2.52 2.03 3.79 2.79 6.19 10.7 18.47 24.38 28.69 35.23 2.12.79 3.97-.33-.15-4.58 1.64.79 1.97 1.64 3.61 3.49.39-.27.18-.85-.33-1.58 2.73 2.88 4.55 4.34 6.19 5.94 1.7 1.55 3.28 3.21 6.19 5.79 1.27.85 2.49.3 1.91-.85-2.64-1.94-4.64-4.34-6.7-6.55-2.03-2.24-4-4.43-5.97-6.61-2.43-2.61-4.79-3.76-7.1-6-1.06-1.15-.7-1.64-1.85-3.03-1.06-1.3-3.34-2.7-4.31-3.82-1.24-1.46-1.46-2.4-2.67-4.15-2.15-3.06-4.91-5.88-7.52-8.85-2.58-3-5.22-6.03-7.31-9.25-3.03-5.15-4.55-10.67-8.28-16.34 2.82 1.43 4.21 6.09 6.82 9.89 8.25 12.74 20.62 24.93 29.05 34.2 2.09.12.49-2.24.52-3.94-3-2.85-4.61-5.03-7.1-7.52-1.46-1.33.03 1.21-1.33.09-2.85-3.67-5.82-6.94-8.67-10.58-2.76-3.67-5.88-7.34-8.73-11.92.3-1.43-1.12-3.67 1.06-2.94-.88-1.15-.79-1.64-1.21-2.46-1.43-2.43-.27.27-1.33-.06.33-2.43-3.18-4.67-3.06-6.94-8.01-9.92-10.58-20.32-17.86-32.78 4.88 8.13 10.55 19.38 17.01 30.17 1.39 2.3.52-.82 1.64.7 1.88 3.06 2.3 5.94 4.09 8.64 2.12 3.37 3.73 4.12 5.88 6.85 2.73 3.09 5 7.22 7.88 10.31 2.91 2.94 5.94 4.4 8.19 8.34 1.64.73 1.73-.15 4.15 1.94 1.09-.18-1.12-3.55.91-2.33 1.85 1.58-.52.88.61 2.03 1.73 1.67 2.94 1.85 4.34 2.55 1.58 2.46 3.61 4.58 5.7 6.7 2.06 2.15 4.4 4.09 6.82 6.09 1.61 1.09-1.46-2.55.55-1.36.67 1.09 2.55 2.97 4.52 4.64 2.03 1.64 4.25 2.94 5.4 3.12 4.7 5.09 8.55 6.46 14.16 11.73 2.09 1.52 1-.97 1.94-.27 2.3 1 3.88 2.06 5.49 3.24 1.55 1.21 3.18 2.49 5.52 3.88 3.06.7 8.16 3.34 11.8 5.79.88-1.03-2.09-2.58-4.21-4.09 2.03-.12 5.55 3.43 6.91 4.73 13.31 6.03 25.5 8.25 41.3 13.31 2.33.85 3.82-.33 5.67 1.15.79.15.79-.33.18-.52 4.52.79 11.52 3.09 18.38 4.37 3.4.82 6.76 1.21 9.64 1.39 2.91.15 5.34.18 6.91-.49 2.46.85-1 .27.33 1.43 3.67-.94 9.01 1.21 11.49-.39 9.16.36 18.32 2.18 25.59.18 2.03.15 4.7.06 5.58.76 2-.39 4.73-1 7.52-1.36 2.79-.39 5.7-.36 8.01-.15 28.62-4.52 57.04-13.77 82.78-28.29 25.68-14.46 48.58-34.2 65.62-57.4 9.64-9.85 17.47-24.93 22.92-36.63 1.67-3.85 4.76-6.67 5-11.07 3.82-8.19 7.31-17.8 10.28-27.2 1.21-4.79 2.7-9.43 3.4-13.98.39-2.24.76-4.46 1.12-6.58.27-2.12.39-4.18.55-6.13 3.37-11.73 3.21-24.89 3.06-37.75.03-2.64.03-5.15.03-7.61.03-2.49.09-4.94-.3-7.43-.27-1.91-.97-3.88-1.21-5.97-.42-4.12-.91-8.31-1.09-12.55-.42-4.18-.97-8.4-2-12.4-1.52-4.79-2.97-8.34-4.28-12.55-3.67-13.83-9.55-31.99-18.74-45.7-2.46-3.49-3.85-7.61-6.13-10.92-1.3-1.76-3.15-3.18-4.43-5-2.12-3.12-4.79-6.64-7.28-10.37-2.73-3.55-5.4-7.22-8.19-9.95-2.85-2.79-4.94-6.55-7.97-9.58a115 115 0 0 0-4.79-4.64c-1.7-1.43-3.34-2.82-4.94-4.15-3.12-2.82-6.28-5.22-8.58-8.19-8.22-4.94-20.26-13.98-30.08-21.13-.58-.12-1.03-.03-1.46.09-7.04-5.37-16.1-7.1-23.41-11.25-1.33-.67-1.61 0-2.55-.18-3.73-1.97-6.55-2.88-10.55-3.61-7.31-3.52-14.13-5.28-20.68-6.58-6.55-1.39-12.86-2.27-19.47-4.18-7.73 1-16.13-1-24.17-.76-2.18.06-4.4 1.03-6.55 1.09-2.03.09-3.27-.45-5.22-.49-1.46-.03-2.88.55-4.67.58-2.43 0-5.06-.49-7.61-.39-2.52.15-4.67.97-6.91 1.33-2.7.36-5.19-.21-7.61.06-6.49.91-11.37 4.91-19.44 4.09-2.37.85-4.79 1.76-7.34 2.61-2.58.88-5.31 1.67-8.04 3-3.24 1.49-6.43 3.34-8.95 4.46-1.52.61-3.49.79-5 1.33-3.82 1.24-7.13 3.67-10.64 5.64-3.4 2.21-6.88 4.25-10.95 5.52-2.18 1.88-5 3.61-7.97 5.4-2.88 1.94-6.06 3.73-9.01 5.73-2.85 2.03-5.67 3.97-7.82 6.06-2.12 2.15-3.76 4.21-4.46 6.25 1.52 1.49.91 3.7-.79 5.55-1.88 2.03-3.79 1.91-6.82 4-1.85 1.43-4.97 3.88-7.94 6.7-2.85 2.91-5.85 5.88-7.25 8.34-1.12 1.85-1.33 4.52-2.55 6.13-1.33 1.76-3 3.27-4.85 4.76-1.82 1.55-3.73 3.09-4.91 5.28-1.64 2.88-1.73 5.97-2.55 7.22-.15.24-.27.45-.45.67-2.37 3.34-6.73 5.88-8.28 6.16-1.03 1.39-.45 1.7-1.49 3.09-5.09 2.76-12.46 15.89-15.95 24.89-.52 1.36-1.67 3.61-2.21 4.67-5.76 11.73-12.34 20.01-17.92 29.05-.88-.06-1.49.97-2.21 1.27-1.97 4.49-4.61 7.7-6.37 12.31-1.79.52-2.67 4.43-4.7 4.15-2.43 2.37-4.21 5.58-6.43 8.64-1.94 2.67-4.06 6.91-5.85 9.1-3 3.55-6.58 2.4-9.82 7.19-5.19-1.82-10.98 1-17.77.79-.52.3-.76 1.43-1.39 1.43a.7.7 0 0 1-.3-.09c-2.37-7.64-6.76-4.12-10.07-8.43-.88-1.15-1.39-4.79-2.21-6.4-1.73-3.7-3.97-5.09-5.43-7.07-.18-2.7-.45-5.25-.76-7.7-.18-2.43-.45-4.76-.76-7-.61-4.52-1.43-8.73-2-12.83-.61-4.12-1.39-8.25-1.79-12.52-.39-4.25-.64-8.73-.61-13.68.03-.45.85-2.85.91-4.06.21-3.85.67-8.52 1.49-13.25.85-4.73 1.67-9.64 2.33-14.04-.36-3 .55-6.88 2-11.49 1.46-4.61 3.82-9.82 5.97-15.8 1.58-4 2.21-6.06 4.94-11.92 1.82-3.97 3.64-7.7 5.25-11.52 1.61-3.85 3.37-7.55 5.46-11.22 2.33-4.15 4.88-7.88 7.7-11.4 2.79-3.52 5.49-7.1 8.46-10.76 2.49-3.09 4.21-7 6.64-9.95.03-.06.09-.09.12-.15l.15-.15c5.55-6.28 10.49-7.97 15.31-12.04 3.34-4.28 6.58-8.46 11.31-11.58 3.49-.18 4.09 1.61 9.4-1.67 4.76-3.31 7.43-8.28 10.04-12.22 2.67-3.85 5.16-6.7 9.01-5.79 10.43-4.21 24.47-15.43 37.51-21.92 9.01-4.7 18.44-8.43 27.38-12.16 9.04-3.73 17.74-8.01 25.83-9.07 3.46-1.91 7-3 10.61-3.73s7.25-1.43 11.01-2.18c22.1-4.61 44.18-9.95 66.32-8.49 3.24-.36 6.73-.73 10.34-.67 3.58 0 7.28.15 10.89.39 3.64.18 7.19.79 10.55 1.24 3.34.52 6.49.91 9.28 1.58 7.4.15 14.43 1.24 21.1 2.94 6.7 1.46 13.01 3.61 19.29 4.88 8.31 2.03 15.95 3.15 23.26 5.97 2.4.88 4.4 2.12 6.79 2.94 7.19 2.79 14.49 4.52 21.62 8.28 6.7 3.27 11.98 7.91 19.71 10.34 8.92 5.85 19.95 11.89 30.81 19.44 5.58 3.58 10.89 7.79 16.22 11.92 5.09 4.43 10.28 8.76 14.68 13.68 1.24 1.36 1.82 2.49 3.12 3.79 11.98 12.37 24.11 23.08 31.57 36.63 11.74 14.74 24.05 35.48 31.48 53.7 8.67 15.65 13.65 33.2 17.74 50.21 2.82 12.8 6.91 26.41 8.4 40.27.76 4.91.18 9.98.67 14.74.36 3.58.7 7.1 1 10.61.25 3.53.65 7.07.56 10.71"/><path d="M241.81 618.68c-1.15.06-2.97-.27-5-1 .66-.43 3.48 0 5 1M211.21 522.95c-1.15-.3-4.55-1.76-3.52-2.64 1.8 1 2.31 1.79 3.52 2.64M206.94 518.19c-.61.33-2.64-1.61-3.82-2.18.51-.61 3.33 1.42 3.82 2.18M185.59 517.4c-1-.24-3.15-1.55-3.76-2.67.64-.27 2.58 1.94 3.76 2.67M186.62 502.81c-1.67-.33-3.7-1.88-6.22-4.31 1.49.16 3.95 2.83 6.22 4.31M128.74 530.83c-3.49-3.27-11.01-9.7-12.34-13.13 3.36 4.85 8.91 8.86 12.34 13.13M138.83 503.85c-2.52-1.36-4.94-4.34-7.46-7.43-2.61-3.06-5.03-6.46-7.61-8.88.24-.82 1.85 1.18 3.67 3.46 1.79 2.3 4.03 4.76 5.06 5.19 1 1.33 1.64 2.43 2.33 3.58 1.32 1.41 3.2 2.14 4.01 4.08M103.54 447.87c-.58.49-1.21.27-1.94-1.43-.03-.61.21-.94.67-1.06zM83.34 426.67c-1.39-1.88-3.06-5.19-4.52-8.76-1.27-3.61-2.33-7.49-2.79-10.31-.39-.67-.85-.58-1.21-1.94-1.06-3.24-2.67-10.67-.7-3.58 3.43 8.43 4.95 15.53 9.22 24.59M94.84 418.52c-.76-.82-1.52-2.37-2.24-4.37.78.24 2.21 3.52 2.24 4.37M58.9 424.55c-.88-.61-1.64-4.67-2.49-6.64.86 1.37 2.46 4.79 2.49 6.64M88.65 415.3c-1.27-1.36-2.3-5.15-3.49-7.03.4-2.18 2.43 4.58 3.49 7.03M91.2 410.97c-1.21-1-2.24-4.91-3.37-7.7 1.22 1.48 2.25 5.21 3.37 7.7M50.32 419.43c-.97 0-1.91-3.03-2.82-5.12.97.21 1.88 3.33 2.82 5.12M55.45 414.09c-1.61-2.18-3.7-10.83-4.79-15.07 2.15 5.19 3.12 9.25 4.79 15.07M87.41 401.96c-2.18-3.09-2.67-8.4-3.4-11.34 1.61 3 1.64 7.95 3.4 11.34M72.58 396.44c-.82-1.24-1.58-3.55-2.21-5.49 1.03-.69 1.42 3.16 2.21 5.49M73.7 389.62c-1.03-1.52-1.09-3.06-1.52-5.58.73.43.98 3.94 1.52 5.58M75.55 382.83c-.91-.61-2.18-5.82-.49-4.97.36 1.49-.12 1.39-.55 1.52.28 1.69.83 1.45 1.04 3.45M52.11 371.4c1.76 3.57 1.25 10.28 0 0M41.01 364.33c-.94-3.18-1.33-6.4-1.39-10.28.48 2.4 1.45 8.64 1.39 10.28M39.07 362.03c-.7 1.27-1.43-5.15-.45-3.97.15 1.33.3 2.66.45 3.97M23.88 355.93c-.64-1.15-.97-3.79-.94-5.88.7.58 1.18 4.88.94 5.88M23.88 332.55c-.76-3.73-.76-6.16-.55-6.16.16.01.46 1.8.55 6.16M83.07 508.33c-1.12-.91-2.4-2.4-3.34-2.85-.61-2.79-4.25-6.03-5.7-9.28 3.34 2.92 4.83 7.49 9.04 12.13M62.3 414.82c-.88.09 1.24 4.12-.36 3.27-.67-1.76-.03-1.73-.94-3.73.36-.33.7.58 1.06.52-1.06-3.7-2.09-5.61-2.97-8.79.33.36.67.7 1.03.58-2.58-3.79-1.91-9.22-4.49-17.89 3.03 8.19 7.73 26.71 10.64 33.72-1.36-.71-2.57-7.32-3.97-7.68M83.95 402.78c-.27-.76-.39-.33-.27.06-.67-.03-.97-2.94-.94-3.4.88.64 3.36 9.59 1.21 3.34M82.56 398.75c-4.37-4.61-3.85-17.53-7.4-23.74-.12-.24-.24-.45-.39-.67-.03-1 .21-.21.36.49-.48-2.79-1.15-6.7-1.76-10.79-.58-4.18-1.49-8.52-2.7-12.13l1.09-.03c-.33-4.52-1.33-11.77-.3-14.83.36 2.64.52 6.82.64 10.83.06 3.97.52 7.76 1.64 9.55-.18.94.03 2.61-.15 3.55 3.36 12.05 4.14 25.67 8.97 37.77M36.71 360.54c-.64-1.21-1.09-3.46-1.61-4.79-.06-.73 2.12 3.09 1.61 4.79" class="st0"/><path d="M630.43 323.14c-.08-1.24-.16-2.48-.28-3.72-.08-.8-.12-1.64-.2-2.44-.28-3.52-.64-7-1-10.6-.04-.6-.12-1.2-.12-1.8-.08-1.2-.08-2.44-.08-3.68s0-2.44-.04-3.68c0-.56 0-1.08-.04-1.64-.04-1.32-.16-2.64-.36-3.92-.36-3.48-.92-6.92-1.56-10.36q-.96-5.1-2.16-10.2c-1.56-6.72-3.28-13.32-4.68-19.72-4.12-17-9.08-34.56-17.76-50.2-1.04-2.56-2.2-5.16-3.4-7.8-.64-1.32-1.28-2.64-1.92-4-1.28-2.64-2.68-5.32-4.12-8-.56-1.08-1.16-2.16-1.76-3.28-.32-.56-.6-1.08-.92-1.64-.68-1.16-1.32-2.32-2-3.44-.68-1.16-1.36-2.32-2.08-3.48-3.04-5.04-6.24-9.88-9.48-14.4l-1.92-2.64c-.64-.88-1.28-1.72-1.96-2.6-.64-.8-1.28-1.64-1.92-2.44-1.16-2.12-2.44-4.16-3.8-6.16-.72-1-1.4-2-2.16-2.96-.72-.96-1.48-1.92-2.24-2.88-.48-.6-.96-1.16-1.48-1.76-.48-.6-.96-1.16-1.48-1.72-.96-1.12-1.92-2.2-2.92-3.28-.08-.04-.12-.12-.16-.16-1.32-1.44-2.64-2.84-4.04-4.24-1.32-1.4-2.68-2.76-4.08-4.16-1-1-2-2.04-3.04-3.04-2.04-2.08-4.12-4.16-6.16-6.28-1.28-1.28-1.88-2.4-3.12-3.76-4.4-4.92-9.56-9.28-14.68-13.68-5.32-4.12-10.64-8.36-16.2-11.92-10.88-7.56-21.92-13.6-30.84-19.44-7.72-2.44-13-7.08-19.68-10.36-7.12-3.76-14.44-5.48-21.64-8.28-2.4-.8-4.4-2.04-6.8-2.92-7.28-2.84-14.92-3.96-23.24-6-6.28-1.24-12.6-3.4-19.28-4.88-6.68-1.68-13.72-2.76-21.12-2.92-2.8-.68-5.92-1.08-9.28-1.6-3.36-.44-6.92-1.04-10.56-1.24-3.6-.24-7.28-.36-10.88-.36-3.6-.08-7.08.28-10.32.64-22.16-1.44-44.24 3.88-66.32 8.48-3.76.76-7.4 1.48-11 2.2-3.64.72-7.16 1.84-10.64 3.72-8.08 1.08-16.8 5.36-25.84 9.08-8.92 3.72-18.36 7.44-27.36 12.16-13.04 6.48-27.08 17.72-37.52 21.92-3.84-.92-6.32 1.96-9 5.8-2.6 3.92-5.28 8.92-10.04 12.2-5.32 3.28-5.92 1.48-9.4 1.68-2.36 1.56-4.36 3.4-6.16 5.36-.92 1-1.76 2-2.64 3.08-.4.52-.84 1.04-1.24 1.56-.44.52-.84 1.04-1.28 1.6-4.8 4.04-9.76 5.76-15.28 12.04l-.16.12c-.04.08-.08.12-.12.16-2.44 2.96-4.16 6.84-6.64 9.96-1.48 1.8-2.88 3.64-4.32 5.44-1.4 1.8-2.76 3.56-4.16 5.32-2.8 3.52-5.36 7.24-7.68 11.4-2.12 3.68-3.88 7.36-5.48 11.2s-3.4 7.56-5.24 11.52c-2.72 5.88-3.36 7.92-4.92 11.92-2.16 6-4.52 11.2-6 15.8-1.44 4.64-2.36 8.52-2 11.52-.68 4.4-1.48 9.28-2.32 14.04-.2 1.16-.4 2.36-.56 3.52-.32 2.32-.56 4.6-.72 6.68-.08 1.08-.16 2.08-.2 3.04-.08 1.2-.88 3.6-.92 4.04-.04 4.96.2 9.44.6 13.68.4 4.28 1.2 8.4 1.8 12.52.56 4.12 1.4 8.32 2 12.84.32 2.24.56 4.6.76 7 .28 2.48.56 5 .76 7.72 1.08 1.48 2.6 2.64 4.04 4.68.48.68.92 1.44 1.36 2.36.12.2.2.44.32.68.64 1.84 1.16 4.72 1.92 5.72.2.28.4.52.64.72.2.2.44.4.64.56.24.16.44.32.68.44.2.12.36.2.52.28s.32.16.48.2c.36.12.72.24 1.04.36.16.04.36.12.52.16.08.04.12.04.2.04.6.2 1.2.4 1.8.72.16.08.32.2.48.28.32.2.6.44.92.76.4.4.8.88 1.16 1.52.2.32.36.68.52 1.08s.32.84.44 1.32h.04c.12.08.2.08.28.08.64 0 .88-1.12 1.4-1.4 6.8.2 12.56-2.6 17.76-.8 3.24-4.8 6.84-3.64 9.84-7.2.24-.28.44-.56.68-.92.44-.64.92-1.4 1.44-2.2.24-.4.52-.84.76-1.24.48-.8 1-1.68 1.48-2.48.52-.8 1-1.56 1.48-2.24.56-.76 1.08-1.56 1.6-2.32 1.04-1.52 2.04-3.04 3.12-4.4.56-.68 1.12-1.32 1.72-1.92 2.04.28 2.92-3.64 4.68-4.16.16-.44.32-.88.52-1.28.16-.4.36-.8.56-1.16q.54-1.2 1.2-2.28c.24-.48.52-1 .84-1.48.52-.96 1.12-1.96 1.68-2.96.52-1 1.08-2.04 1.56-3.16h.04c.2-.08.36-.2.52-.32.16-.16.32-.32.52-.44.16-.16.32-.28.52-.36l.24-.12c.12-.04.24-.04.4-.04 5.56-9 12.16-17.28 17.92-29.04.08-.12.12-.28.24-.44l.56-1.12c.28-.64.64-1.32.92-1.96.16-.4.36-.8.48-1.16 1.32-3.4 3.2-7.36 5.24-11.08.68-1.28 1.4-2.48 2.16-3.68.72-1.2 1.48-2.32 2.2-3.4 1.52-2.16 3.08-4.04 4.48-5.32.32-.28.64-.56.92-.76.32-.24.64-.48.96-.64 1.04-1.4.44-1.68 1.48-3.08 1.56-.28 5.92-2.84 8.28-6.16.12-.08.2-.2.24-.32.08-.12.12-.24.2-.36s.16-.24.24-.4c0-.04.04-.12.08-.16.08-.28.16-.56.28-.88.04-.2.12-.44.16-.64q.18-.84.48-1.92c.16-.52.36-1.04.56-1.56.2-.56.44-1.12.76-1.64.6-1.08 1.36-2.04 2.24-2.88.84-.84 1.76-1.64 2.68-2.4 1.84-1.48 3.52-3 4.84-4.76.32-.4.56-.88.76-1.36.2-.52.36-1.04.56-1.6.24-.84.52-1.68.84-2.44.12-.24.24-.48.4-.72 1.4-2.48 4.4-5.44 7.24-8.36 2.96-2.8 6.08-5.28 7.96-6.68 3-2.12 4.92-2 6.8-4 1.72-1.88 2.32-4.08.8-5.56.68-2.04 2.32-4.08 4.44-6.24 2.16-2.12 5-4.04 7.84-6.08 2.92-2 6.12-3.8 9-5.72 2.96-1.8 5.8-3.52 7.96-5.4 4.08-1.28 7.56-3.32 10.96-5.52 3.52-1.96 6.84-4.4 10.64-5.64 1.52-.56 3.48-.72 5-1.32 2.52-1.12 5.72-3 8.96-4.48 2.72-1.32 5.44-2.12 8.04-3 2.52-.84 4.96-1.76 7.32-2.6 8.08.8 12.96-3.2 19.44-4.08 2.44-.28 4.92.28 7.6-.08 2.24-.36 4.4-1.16 6.92-1.32 2.56-.12 5.2.4 7.64.4 1.76-.04 3.2-.64 4.64-.6 1.96.04 3.2.6 5.24.48 2.12-.04 4.36-1 6.52-1.08 8.04-.24 16.44 1.76 24.2.76 6.6 1.92 12.88 2.8 19.44 4.2 6.56 1.28 13.4 3.04 20.68 6.56 4 .72 6.84 1.64 10.56 3.6.96.2 1.2-.48 2.56.2 7.28 4.16 16.36 5.88 23.4 11.24.44-.12.88-.2 1.44-.08 9.84 7.16 21.88 16.2 30.08 21.12.16.2.32.4.48.56.28.36.6.72.92 1.04.16.2.32.36.52.52.96 1 2.04 1.96 3.12 2.92 1.16 1.04 2.36 2.08 3.56 3.16 1.6 1.32 3.24 2.72 4.92 4.16 1.64 1.44 3.24 3.04 4.8 4.64.76.76 1.48 1.56 2.12 2.4.36.4.68.8 1 1.24.96 1.24 1.88 2.52 2.84 3.68.64.8 1.32 1.56 2.04 2.24.36.36.68.72 1.04 1.08.68.72 1.36 1.52 2.04 2.36.68.8 1.36 1.68 2.04 2.52 1 1.32 2.04 2.68 3.04 4 1.88 2.8 3.84 5.48 5.6 7.96.6.8 1.16 1.64 1.68 2.4 1.28 1.84 3.12 3.24 4.44 5 2.28 3.32 3.68 7.44 6.12 10.92.8 1.2 1.56 2.4 2.28 3.64.36.56.68 1.12 1 1.68a60 60 0 0 1 1.92 3.52c4.84 9.24 8.48 19.48 11.24 28.68q.66 2.16 1.2 4.2c.2.68.4 1.36.56 2.04s.32 1.32.52 1.96c.16.52.32 1.04.52 1.56.52 1.52 1.04 3 1.56 4.48.68 2.04 1.44 4.12 2.2 6.48.52 2 .92 4.04 1.24 6.12.16 1.04.28 2.12.44 3.16.12 1.04.24 2.08.32 3.12.04 1.08.12 2.12.2 3.2.24 3.16.6 6.28.92 9.36.24 2.12.92 4.08 1.2 6 .16.84.24 1.72.28 2.56v.08c.08 1.56.08 3.16.04 4.76 0 2.48 0 5-.04 7.64.16 12.84.28 26-3.08 37.72-.16 1.96-.28 4-.52 6.16-.36 2.12-.76 4.32-1.12 6.56-.72 4.56-2.2 9.2-3.4 14-.72 2.36-1.52 4.72-2.32 7.08-.8 2.32-1.64 4.68-2.52 6.96-.84 2.32-1.72 4.56-2.64 6.76s-1.84 4.36-2.8 6.4c-.24 4.36-3.36 7.2-5 11.04-5.48 11.72-13.28 26.8-22.92 36.64-17.08 23.2-39.96 42.92-65.64 57.4-25.76 14.52-54.16 23.76-82.76 28.28-2.32-.2-5.24-.24-8.04.16-2.76.36-5.52.96-7.52 1.36-.88-.68-3.52-.6-5.56-.76-7.28 2-16.44.2-25.6-.16-2.48 1.6-7.8-.56-11.48.4-.48-.4-.36-.6-.12-.68.08-.08.16-.12.28-.12.04 0 .08 0 .12-.04.12 0 .2-.04.24-.08.04 0 .04 0 .04-.04 0 0 0-.08-.04-.12-.12-.08-.36-.2-.88-.36-1.56.68-4 .64-6.88.48-2.88-.2-6.28-.56-9.64-1.4-6.88-1.28-13.88-3.56-18.4-4.36.16.04.24.12.32.16q.18.12.12.24c0 .04-.04.08-.08.12-.08.04-.28.04-.52 0-1.88-1.48-3.36-.32-5.68-1.16-15.8-5.08-28-7.28-41.32-13.32a1.7 1.7 0 0 0-.28-.24c-.08-.12-.2-.2-.32-.32-.2-.2-.4-.4-.64-.6l-.24-.24a.7.7 0 0 1-.24-.24c-.28-.28-.6-.52-.92-.8-.28-.24-.56-.44-.84-.64l-.12-.12c-.24-.2-.52-.36-.8-.56s-.6-.36-.88-.52c-.24-.12-.44-.2-.64-.28-.08-.04-.16-.04-.2-.04a2 2 0 0 0-.64-.12h-.12c2.12 1.52 5.08 3.08 4.2 4.08-3.64-2.44-8.72-5.08-11.8-5.76-2.32-1.4-3.96-2.68-5.52-3.88-1.6-1.2-3.2-2.28-5.48-3.28-.2-.12-.32-.16-.36-.08-.04.04-.04.08-.04.12-.04.04-.04.08-.04.12-.08.2-.12.48-.28.6-.08.04-.28.04-.56-.08-.16-.08-.36-.2-.64-.4h-.04c-.64-.6-1.28-1.16-1.88-1.68-.64-.52-1.2-1-1.8-1.48-.36-.28-.76-.56-1.12-.88-2.96-2.2-5.56-3.84-8.44-6.76-.32-.28-.6-.6-.92-.92-1.12-.2-3.36-1.48-5.4-3.12-.96-.84-1.92-1.72-2.72-2.56-.24-.2-.4-.4-.6-.6-.36-.36-.64-.72-.88-1.04-.12-.16-.24-.32-.32-.44-.28-.16-.48-.24-.56-.24s-.12.04-.12.12 0 .24.08.36q.06.24.24.48c.16.32.32.6.32.76 0 .12-.12.12-.48-.12-2.44-2-4.76-3.96-6.84-6.08-2.08-2.16-4.12-4.28-5.68-6.72-1.4-.68-2.64-.88-4.36-2.56-.32-.32-.36-.52-.24-.64.08-.12.24-.16.32-.28s.08-.24-.08-.48c-.12-.16-.28-.36-.6-.6-.92-.56-.96-.2-.84.44.04.2.12.44.16.64.08.44.16.84 0 1.08-.04.08-.12.12-.24.16-2.4-2.08-2.52-1.2-4.12-1.96-.28-.48-.6-.96-.88-1.36-.6-.84-1.28-1.56-1.96-2.24-1.68-1.64-3.52-2.88-5.36-4.72-2.88-3.08-5.16-7.2-7.88-10.32-2.16-2.72-3.76-3.48-5.88-6.84-.68-1-1.16-2.08-1.6-3.12-.44-1.08-.84-2.16-1.32-3.28-.36-.72-.72-1.48-1.2-2.24-.12-.16-.2-.28-.28-.36-.52-.4-.32.76-.72.48-.12-.08-.32-.32-.64-.84-.8-1.36-1.6-2.68-2.36-4.04-5.48-9.48-10.36-19-14.64-26.12 7.28 12.48 9.88 22.88 17.88 32.8-.12 2.24 3.4 4.52 3.04 6.92 1.08.36-.08-2.36 1.36.08.4.8.32 1.28 1.2 2.44-1.48-.48-1.32.36-1.12 1.44.04.36.12.72.12 1.08 0 .16-.04.32-.08.44a52 52 0 0 0 2.2 3.28c.4.6.84 1.16 1.24 1.72.68.92 1.4 1.84 2.08 2.72.56.72 1.08 1.4 1.64 2.12.56.68 1.08 1.4 1.6 2.08q2.16 2.7 4.32 5.28c2.16 2.58 2.88 3.44 4.32 5.28h.04c.28.24.44.32.52.28.16-.04.08-.36.12-.56-.04-.08 0-.12.04-.16.04-.08.24 0 .64.36 2.48 2.48 4.08 4.68 7.08 7.52 0 .52.12 1.12.28 1.68.2.76.44 1.48.16 1.92 0 .04-.08.12-.12.16s-.12.08-.2.12c-.16.04-.36.04-.6.04h-.04c-3.16-3.48-6.88-7.36-10.68-11.52-1.28-1.4-2.6-2.84-3.88-4.28s-2.6-2.92-3.88-4.44c-1.28-1.48-2.52-3-3.76-4.52-2.44-3.08-4.76-6.24-6.84-9.44-2.6-3.76-4-8.44-6.8-9.88 1.84 2.84 3.16 5.64 4.4 8.36 1.2 2.76 2.32 5.44 3.84 8 .52.8 1.08 1.6 1.68 2.36 1.16 1.56 2.44 3.12 3.72 4.64.64.72 1.28 1.48 1.92 2.24 2.6 2.96 5.36 5.8 7.52 8.84 1.24 1.76 1.44 2.72 2.68 4.16.96 1.12 3.24 2.52 4.32 3.84.16.16.24.32.36.48.2.32.36.56.44.8.12.24.2.44.28.64.12.24.24.44.4.68.12.12.24.28.36.4 2.28 2.28 4.68 3.4 7.08 6.04q2.94 3.24 6 6.6c2.04 2.2 4.04 4.6 6.68 6.56.56 1.12-.64 1.68-1.92.84-2.88-2.6-4.48-4.24-6.16-5.8-1.64-1.6-3.48-3.08-6.2-5.96.16.24.28.44.36.64l.04.04c.16.4.2.68-.08.88-.44-.44-.72-.8-1-1.16l-.04-.04c-.28-.36-.52-.64-.76-.92-.48-.52-.96-.96-1.8-1.32 4.12 4.24 2.28 5.36.16 4.56-2.4-2.52-4.92-5.24-7.44-8.04-1.48-1.64-3-3.32-4.48-5.04-2.68-3.04-5.28-6.12-7.64-9.16a80 80 0 0 1-3.44-4.52c-.88-1.16-1.72-2.32-2.44-3.44-.36-.48-.72-1-1.04-1.52-.36-.48-.68-.96-.96-1.48-.44-.68-.84-1.36-1.24-2.04-1.28-.76-2.4-1-3.8-2.76-1.04-1.4-2.08-2.84-3.08-4.32-2-2.96-3.92-6.08-5.76-9.32-.92-1.6-1.84-3.24-2.72-4.88-1.8-3.28-3.56-6.64-5.24-10-1.72-3.36-3.4-6.76-5.04-10.08 5.44 16.24 15.04 31.6 27.08 47.24.04.08.04.16.04.24 0 .36-.28.56-.12 1 .04.24.24.56.64 1 5.56 6.4 11.6 14.12 16.2 18.8 1 3.04 2.04 5.92 3.08 8.8.96.92 1.84 1.8 2.76 2.68.88.92 1.72 1.84 2.56 2.72 1.76 1.8 3.44 3.48 5 5.24 1.6 1.76 3.16 3.52 4.68 5.24 1.56 1.64 3.12 3.36 4.64 5.04 3 3.4 6.2 6.64 9.6 9.84 3.32 3.28 7.12 6.24 11.28 9.2-.24.24-.16.56-.04.92.12.28.32.56.48.84.08.16.12.28.2.44.04.04.04.12.08.2s.04.16.04.2c-1.72-.4-3.12-.32-5-.96-2.8-1.92-5.96-3.52-7.92-5.88-7.64-4.36-16.04-10.92-24.04-18.68-2.04-1.88-4.04-3.8-6.04-5.84-1-.96-2-2-3-3.04-1-1-1.96-2.04-2.92-3.08-1-1.04-1.96-2.04-2.92-3.08-1-1.04-1.96-2.08-2.88-3.08q-2.94-3.06-5.76-6c-.84-.4-1.36-.44-1.68-.24-.12.08-.2.16-.28.28-.28.48-.24 1.2-.12 2.04.04.4.08.8.16 1.16.8 1.08 1.64 2.12 2.48 3.12s1.68 2 2.56 2.92c.88.96 1.76 1.92 2.64 2.84 1.8 1.84 3.6 3.68 5.44 5.52 2.72 2.84 5.48 5.76 8.08 9.12.8 5.12-4 3.92-10.4-2.32-2.56-2.64-5.68-5.72-8.72-9.16-3-3.48-6.28-7.08-9.16-10.84-2.84-3.72-5.68-7.28-7.92-10.52-2.24-3.28-4.12-6.12-5.4-8.12-13.12-17.2-23.52-36.4-31.8-56.56-.76-1.88-1.52-3.8-2.24-5.72q-.84-2.1-1.56-4.2l-.24-.6c-.64-1.6-1.2-3.2-1.72-4.84-.92-2.56-1.76-5.16-2.6-7.8-1.64-5.24-3.16-10.52-4.56-15.88-1.4-5.32-2.68-10.72-3.8-16.2-.56-2.44-1-4.92-1.48-7.4v-.08c-.04-.04-.04-.04-.04-.08-.04-.2-.08-.44-.12-.64.4 3.08.88 6.16 1.44 9.16.24 1.28.48 2.56.72 3.8.24 1.28.52 2.52.8 3.76.64 2.96 1.32 5.88 2.08 8.72.48 1.88 1 3.72 1.48 5.52.44 1.56.92 3.12 1.36 4.64.72 2.28 1.4 4.52 2.16 6.76.16.56.32 1.12.52 1.68.84 2.52 1.68 5.04 2.52 7.52 1.84 5.4 3.72 10.68 5.52 15.92.56-.28 1.08.36 1.68 1.96 2.04 5.08 4.32 10.2 6.8 15.28 1.4 2.88 2.88 5.72 4.4 8.52q1.74 3.18 3.48 6.24a251 251 0 0 0 6.68 10.84c.72 1.08 1.44 2.16 2.16 3.2.72 1.12 1.48 2.2 2.24 3.24q1.14 1.62 2.28 3.12c.48.68.96 1.32 1.44 1.96.48.6.92 1.16 1.4 1.76.56.72 1.12 1.44 1.68 2.12 1.44 3.92 5.16 8.52 8.92 13.08.44.56.92 1.16 1.4 1.72.92 1.12 1.88 2.2 2.76 3.28 2.24 2.72 4.28 5.28 5.44 7.64-1.8.24-4.08-.64-6.68-2.36-2.64-1.76-5.6-4.28-8.52-7.44 2.72 3.44 5.36 6.76 7.84 9.96 1.24 1.64 2.44 3.2 3.64 4.76 1.2 1.52 2.44 2.96 3.68 4.32 2.04 2.2 4.96 5.16 7.76 7.64 1.4 1.24 2.68 2.44 3.76 3.48.28.24.52.52.76.76.24.2.48.44.68.68.36.4.68.8.92 1.12.08.08.08.16.08.24 0 .04 0 .08-.08.08-.04.04-.08.04-.12.08-.04 0-.12.04-.16.08-.04 0-.04.04-.04.08 0 .08 0 .12.04.2-.12-.04-.08 0 .12.2-.04-.08-.08-.08-.08-.16.52.44 3.64 3.32 4 3.48 2.76 1.92 2.44 1.36 5.28 3.96 3.76 3.32 3.6 3.36 5.64 5.88 13.16 11.36 27.68 20 42.44 29 1.48 1 4.72 2.68 4.96 2.8.16.12.28.2.4.28.16.16.24.28.24.4.04.04.04.12.08.2-.04.04 0 .08.04.16 0 .04.04.12.12.2.16.16.4.36.84.6 1.08.6.88-.24 2.48.68 5.84 3.44 12.84 6.8 19.04 9.48 15.6 6.6 34.6 13.32 48.16 16.28 1.16.36 1.2.56 1.12.72-.08.12-.24.28-.12.4-.04.04 0 .04.04.08.2.16.72.36 1.84.6 11.56 3.08 23.72 5.2 36.2 6.84 12.48 1.32 25.24 2.24 38.08 1.92 1.96.08.44 1.32 3.28 1.04 3.56.08 2.64-1.12 5.8-1.24 2 .2 3.84.48 4.92 1.04 14.84-.44 29.8-2.76 44.6-6.24 14.8-3.4 29.32-8.36 43.48-14.08h.04c3.28-1.32 6.56-2.72 9.8-4.12h.04c3.24-1.48 6.44-2.96 9.64-4.48h.04c2.4-1.16 4.76-2.36 7.08-3.56 1.76-.92 3.52-1.84 5.28-2.8 2.16-1.16 4.28-2.32 6.4-3.52 3.04-1.72 6.08-3.52 9.04-5.32 2.2-1.36 4.4-2.76 6.56-4.16 4.28-2.8 8.48-5.64 12.52-8.6 2.16-1.52 4.24-3.08 6.32-4.68 16.88-13 30.76-27.8 43.88-41.44 2-2.48 3.96-4.92 5.92-7.28 1.92-2.4 3.68-4.88 5.52-7.28.92-1.16 1.8-2.36 2.68-3.56 1.32-1.8 2.56-3.6 3.84-5.4 1.24-1.8 2.52-3.64 3.76-5.4 3.32-4.76 6.24-9.72 9.36-14.6 2.88-5 5.88-10.04 8.6-15.28 2-3.8 4-7.68 5.96-11.64 1.64-3.4 3.28-6.84 4.8-10.28.24-.56.48-1.12.72-1.64.68-1.6 1.36-3.2 2-4.8.92-2.24 1.76-4.4 2.56-6.56.4-1.08.8-2.16 1.16-3.2.64-1.88 1.24-3.72 1.8-5.48.28-.88.52-1.76.76-2.64.64-2.44 1.08-5.4 1.8-8.16 1.2-4.2 3.32-8.16 4.48-12.4 2.8-11.44 4.16-23.44 5.64-35.04.4-3.24.84-6.48 1.24-9.68.28-3.2.56-6.44.84-9.6.68-6.36.64-12.76.92-19.16v-1.92c0-.92-.04-1.76-.12-2.68m-474.56 180.8c-2.12-1.84-4.64-4.2-7-6.36-2.4-2.16-4.52-4.32-5.48-6.24-.68-.84-.48 1.76-1.92.64-1.08-2.28-2.64-4.72-5.24-8 1.48-1.56 5.88 5.52 7.6 4.48 1.96 2.48 2.84 3.8 4.6 4.12 3.96 5.12 5.84 5.32 8.8 9.24-1.84.04-.04 1.32-1.36 2.12m1.4.56c.32-.12.24-.4-.08-.84 1.96.08 2.92 3.64.08.84" class="st0"/><path d="M393.39 279.67c-.06.67-.36 1.12-.55.52.1-.4.31-.49.55-.52M401.98 356.27c-.3.12-.42-.24-.64-.33.15-.34.7-.98.64.33M402.88 357.42c0 .79-.52.61-.64.21.04-.61.46-.06.64-.21M405.49 345.89c-.03.61-.45.06-.64.21.13-.42.49-.72.64-.21M407.16 357.48c-.18.85-.73.58-1.12.73.21-.7.6-.94 1.12-.73M411.41 298.83c-.7-.79-1.49.52-2.15-.15.57-.06 1.72-1.12 2.15.15M413.68 323.88c.12 1.33-1.33.15-1.61 1.24-.21-.12-.36-.36-.55-.61-.24.09-.48 1-.73.21.71-1.6 1.98.19 2.89-.84M416.32 278.49c-.49 1.21-1-.33-1.67.42.15-.36.36-.55.45-1.06.31 1.09.82.12 1.22.64M419.83 328.73c-.12-.03-.24-.03-.36-.03-.03-.73.03-1.18.27-1.06.09.24.13.61.09 1.09M424.17 332.61c-.09.67-.55.79-.67.49.16-.4.37-.55.67-.49M425.75 331.64c-.24.67-.76.45-1.12.73.18-.82.72-.58 1.12-.73M425.23 297.2c-.18.36-.64.79-.85.21.12-.61.58-.06.85-.21M425.23 327.52c.24 1.06-.67.88-1.03 1 .21-.7.73-.49 1.03-1M425.93 289.89c-.03.85-.42.73-.64 1.03.03-.91.4-.82.64-1.03M426.45 327.88c-.12.76-1.36.33-.49.24.12-.06.06-.27 0-.27.03-.63.42-.12.49.03M426.41 318.88c-1.15.85-2.06 0-3.34.55.58-1.21 1.88-1.3 2.61-.33.09-.18.09-.64.27-.52.43-.16 1.4.33.46.3M427.54 297.14c-.64.61-1.15.55-1.85.39.3-.79 1.33-.55 1.85-.39M427.51 331.52c-.42.73-1.06-.61-1.58.15.48-1.27 1.18-.27 1.58-.15M427.9 318.18c.06 1.18-.42.7-.73.76.18-.49.49-.55.73-.76M428.6 304.29c-1.06 1.58-3.37.39-4.28.76.12-1.06.94-.09 1.03-1.27.03-.88-.52-.15-.36-1.39.24-.09.21.52.45.3.03.45-.09.45-.09.82.45.21.73-.21 1.12-.18-.06.21-.12.42-.12.79.55-1.47 1.16.87 2.25.17M428.72 321.52c-.09.61-.52.06-.76.21.24-.67.43-.37.76-.21M429.42 325.67c-.21.09-.18-.42-.18-.85-.21-.12-.21.49-.45.24.08-.72.78-.85.63.61M429.81 326.25c0-.09.03-.18.06-.27.12.11.03.24-.06.27"/><path d="M423.41 332.55c-1.24 1.7-2.94 2.03-4.64 2.37-.36.06.06.85-.21 1.09-.48.06-.85-.91-1.27-.94-.55 0-.76.94-1.21 1.27-.58.39-1.21-.06-1.79.39-.55.45-.97 2-1.58 1.24-.21.76-.12 1.43-.58 1.88-.06.94.48 1.49.18 2.18-.33.39-.06-.91-.27-.82-.33.18-.49.97-.67 1.58-.82-.85-1.64-.33-2.52.06-.27.33.39.85.09 1.39-.36-.7-1.49-.3-1.79.94-.97-.67-1.49.49-2.58-.21-.36-.03-.03 1.36-.21 1.36-.67.97-1.09.27-1.85.39-.42 1.06-1.24 1.64-1.85 1.21-.06 1.33.42 1.24.82 1.43-.24 1.18-.94-.18-1.21-.64-2.09 1.15-3.82 4.34-6.25 4.7-.36-.06-.52 1.55-.85.76-.12.06-.09.52 0 .55-1.33.88-4.34-.64-5.22 2.58-.39-.55.12-.39-.09-1.36-.52 1.33-1.33 0-1.67 1.79-1.36.42-2.73-1.03-3.82.79-.3-.24-.7-.18-.82-.91-.61.79-1.67 1.52-2.33.36-8.64 3-17.74 1.85-26.47 4.49-2.06-1.18-4.61.52-6.58 1.09-.64.21-1.24-1.09-1.85.42-2.79.27-6.28-.3-8.64 1.49-1.88-1.27-3.88.24-5.85.36-.82.06-1.55-.49-2.3-.18-.3.12-.64.67-.94.76-1.27.33-2.61-1.12-3.88-.61-.79.33-1.36 1.21-2.06 1.21-2.24 0-5.16-1.06-7.7.49-.67.39-1.33-.39-1.94-.15-.33.12-.7.91-1.03 1-1.18.36-2.76-.33-4 .24-.61.3-1.27-.45-1.94-.42-1.4.03-2.73 1.61-3.88.24-1.49 1.58-3.88 1.39-5.76.09-.09.18-.15.49-.18.79-1.36-.97-2.76 1.3-4.09.52-.24-.09-.24.58-.36.79-.67-.55-1.15-.15-1.79.39-2.55-1.82-4.4.91-6.55-.79-1.21 2.03-2.58.91-3.82 1.33-.36.12-.7 1.15-1.03 1.27s-.52-.52-.85-.61c-.21-.06-.45.49-.73.49-.39.03-.82-.85-1.21-.91s-.76.73-1.12.73c-.42 0-.79-.85-1.18-.91-1.03-.12-1.94 3.03-3.15.3-.79.73-1.64.58-2.61 1.15-.58.33-1.15 1.21-1.58 1.24-.27.03-.58-.55-.85-.61-1.27-.3-2.55 2.43-3.88.79-1.85 2-4.88-1.55-6.06 3.06.03 2.09-.27 3.52-.7 3.76-.45.27-.67-1.03-1.27-1.46-.76-.55-2.61-1.21-3.52-.27-.36.33-.7 1.94-1.03 2.09-.76.36-1.52-2-2.3-1.55-.55.3-1 2.06-1.24 2.09h-.03c-.73 0-1.52-2.43-1.7-3.7-.27-.21-.27.45-.55.24-.82-2.73-3.24-3.46-4.79-3.4-.24.03-.64-.21-.85-.33-2.09-1.33-3.64-5.64-5.19-9.13-.03-.85-.18-1.27-.27-1.94-.73-1.24-1.27-3-2-4.25-.12-1.73-.7-2.12-.7-4.15-.39-2.03-.88-3.58-1.33-5.58-.42-1.76-1.03-3.46-1.33-5.28-.52-2.94-.39-6.55-1.03-9.64.21-5.28-.15-10.98-.12-17.77-.06-.52-.18-.76-.18-1.43v-.21c.97-2.58.52-6.88 1.03-10.31.12-.91.58-1.49.76-2.4.42-2 .58-4.34.79-5.94 2.55-3.09 3.85-10.19 5.97-14.52.06-.12.33.03.48-.24.85-1.73 2.03-2.82 3-4.67.61-2.82 1.73-2.3 3.09-3.31.45-.36.7-.76 1.39-1 .94-.3 1.79-1.76 2.7-2.24 1.03-.55 1.94.52 2.97.52.42 0 .91-1 1.3-1 .91.03 1.43 2.85 2.12 3.46.58-.49 1.15-1.06 1.76-.12.27 2.24.18 3.97.88 5.25 1.27 1.24 2.33-7.88 2.88-1.7 1.21 3 3.18 1.82 4.79 2.3 1.12.33 2.24 1.18 3.34 1.36 1.09.15 2.15-.7 3.06.79.85-1.3 1.64.15 2.49.45 2.55.94 5.03-1.46 7.52.61 1.46-1.3 3.34-.12 4.61.91 1.67-1.46 3.18.88 4.64.64.97-.18 1.82-1.09 2.7-.88.27.06.55.61.82.61.88-.03 1.7-.97 2.61-.61.82.3 1.61 1.88 2.49.45 2.4 1.43 5.67-1.49 8.64.12.21.12.33.55.55.61 1.94.49 3.73-1.73 5.46.42 2.12-.49 4.82-.42 7.04.3 2.03-1.33 4.06-.15 6.03.18 1.49.24 3.09-.94 4.64-1 .58 0 1.12.73 1.67.7.82-.09 1.61-.97 2.43-.91 1.46.09 2.88.27 4.37.33 1.3.06 2.67-1.06 3.97-1.03.52 0 1 .94 1.49.94.33-.03.67-.64.94-.76 1.61-.64 3.73 0 5.64-.09 2.67-.15 5.15-.09 8-1.03 2.12.79 4.4-.36 6.76-.55 3-.21 6.19-.18 9.37-.64 3.4-.45 6.82-1.55 10.13-.55.12.64.3 1.03.55 1.39.33.09.24-1.24.64-1.03.33-.18.15 1.03.36 1.12 2.88.27 5.73.82 8.43 1.49.49-.03 0 .91.36 1.12 1.55-.15 3.82.61 5.73.45.79-.06 1.64.21 2.43.45.18.06.12-.58.27-.52.24.09.09.64.27.82.03.03.45 0 .64.06 1.97.67 3.88-.3 5.85.18.36.73.33.79.91.91.45.09.36-.15.76-.49.06-.06.45-.12.58-.21.12.12-.03.64.06.79.36.7 1.55-.24 2.21-.09.85.21 1.79 1.21 2.79 1.03-.97.79-1.76 2.21-2 5.31.94 2 2.76-.3 3.7 1.67 2.24-1.06 5.06-1.09 7.61-.76.21.06.3-.21.27-.82 2.61 1.21 5.28-.52 8.16.12-5.19 1.49-10.22.7-15.31 2.61-1.12-.45-4.09-.76-5.82-.45-1.06.18-1.58 2.43-1.09 5.64 1.36 1.7 2.52-.21 3.79.58.24 1.15.49 2.18.15 3.55-2.64 1.43-5.67-.33-7.79 2.12-.36-.61-.79-.15-1.21-.09-.24.58-.36 1.46-.58 2.12.09.58.27.85.27 1.67 2.52 0 4.46 4.82 7.1 3.85.36 1.24.73 2.46 1.09 3.61.82-.27 2.09-.06 3.15-.82.24-.18.18.58.27.82 2.52-.64 4.79-1.61 6.94 0-1.88.67-3.88-.03-5.64.67-.3.24-.39 1-.58 1.58-1.58-.79-3.94.18-5.85-.18-.27.97-.33 3.09.45 3.03-.24.64-.33.3-.67.21 0 .49.06.73.18.85-1.03.09-1.21.18-2.21.09-.21.21-.27 1.43-.12 1.91.85-.33 1.61.67 2.4.73.48.03.79-.88 1.21-1 .21-.06.21.55.45.61.24 0 .58-.76.76-.76.24-.03.36.49.64.58 1 .36 2.06-1.33 3.06-1.12.79.18 1.52 2.09 2.43 1.55-.36 1.73-1 .64-1.61.7-1.97.24-4.28 2.37-5.94 2.27-.21 1.39.18 1.94.33 3.03.58-.42.94-.21 1.39-.45.27-.24-.12-.73.12-1.06 1.24-.03 2.37-.73 3.79-.82.15 1.03.52 1.03.27 2.49.18-.09.24.21.36.3.36.12-.03-.36.09-1.09.27 1.67.76-.3 1.03.91 1.64-1.86 3.06.42 4.98-1.74M430.72 304.2c-.45 1.12-1.24-.57 0 0M432.51 292.59c-.15 0-.3 0-.49-.03-.12-.85.64-.79.49.03M432.96 293.98c-.3.36-1.03.42-1.21.18.37-.54.76-.39 1.21-.18M432.24 290.4c.15-.49.42-.61.58-1.06.08.06-.4 1.79-.58 1.06M433.57 277.67c-.06.67-.55.79-.67.49.16-.55.43-.7.67-.49M434.78 326.91c-.7.76-2.18-1.12-2.7.61-.12-.3-.33-.3-.45-.61-1.64 1.73-3.4-.12-5.09.97.73-2.82 2.36.85 3.27-1.64.76-.06 2.06.58 3.03-1.12v1.09c.61-.06 1.55-.33 1.94.7M436.18 279.03c0 .18-.21.42-.7.42.43-.66.7-.6.7-.42"/><path d="M393.39 279.67c-.06.67-.36 1.12-.55.52.1-.4.31-.49.55-.52M401.98 356.27c-.3.12-.42-.24-.64-.33.15-.34.7-.98.64.33M402.88 357.42c0 .79-.52.61-.64.21.04-.61.46-.06.64-.21M405.49 345.89c-.03.61-.45.06-.64.21.13-.42.49-.72.64-.21M407.16 357.48c-.18.85-.73.58-1.12.73.21-.7.6-.94 1.12-.73M411.41 298.83c-.7-.79-1.49.52-2.15-.15.57-.06 1.72-1.12 2.15.15M413.68 323.88c.12 1.33-1.33.15-1.61 1.24-.21-.12-.36-.36-.55-.61-.24.09-.48 1-.73.21.71-1.6 1.98.19 2.89-.84M419.83 328.73c-.12-.03-.24-.03-.36-.03-.03-.73.03-1.18.27-1.06.09.24.13.61.09 1.09M426.41 318.88c-1.15.85-2.06 0-3.34.55.58-1.21 1.88-1.3 2.61-.33.09-.18.09-.64.27-.52.43-.16 1.4.33.46.3M424.17 332.61c-.09.67-.55.79-.67.49.16-.4.37-.55.67-.49M425.23 297.2c-.18.36-.64.79-.85.21.12-.61.58-.06.85-.21M425.23 327.52c.24 1.06-.67.88-1.03 1 .21-.7.73-.49 1.03-1M425.75 331.64c-.24.67-.76.45-1.12.73.18-.82.72-.58 1.12-.73M425.93 289.89c-.03.85-.42.73-.64 1.03.03-.91.4-.82.64-1.03M427.54 297.14c-.64.61-1.15.55-1.85.39.3-.79 1.33-.55 1.85-.39M427.51 331.52c-.42.73-1.06-.61-1.58.15.48-1.27 1.18-.27 1.58-.15M427.9 318.18c.06 1.18-.42.7-.73.76.18-.49.49-.55.73-.76M428.72 321.52c-.09.61-.52.06-.76.21.24-.67.43-.37.76-.21M429.42 325.67c-.21.09-.18-.42-.18-.85-.21-.12-.21.49-.45.24.08-.72.78-.85.63.61M430.72 304.2c-.45 1.12-1.24-.57 0 0M432.96 293.98c-.3.36-1.03.42-1.21.18.37-.54.76-.39 1.21-.18M432.51 292.59c-.15 0-.3 0-.49-.03-.12-.85.64-.79.49.03M433.57 277.67c-.06.67-.55.79-.67.49.16-.55.43-.7.67-.49M436.18 279.03c0 .18-.21.42-.7.42.43-.66.7-.6.7-.42M416.32 278.49c-.49 1.21-1-.33-1.67.42.15-.36.36-.55.45-1.06.31 1.09.82.12 1.22.64M428.6 304.29c-1.06 1.58-3.37.39-4.28.76.12-1.06.94-.09 1.03-1.27.03-.88-.52-.15-.36-1.39.24-.09.21.52.45.3.03.45-.09.45-.09.82.45.21.73-.21 1.12-.18-.06.21-.12.42-.12.79.55-1.47 1.16.87 2.25.17M426.45 327.88c-.12.76-1.36.33-.49.24.12-.06.06-.27 0-.27.03-.63.42-.12.49.03M429.81 326.25c0-.09.03-.18.06-.27.12.11.03.24-.06.27" class="st0"/><path d="M434.78 326.91c-.7.76-2.18-1.12-2.7.61-.12-.3-.33-.3-.45-.61-1.64 1.73-3.4-.12-5.09.97.73-2.82 2.36.85 3.27-1.64.76-.06 2.06.58 3.03-1.12v1.09c.61-.06 1.55-.33 1.94.7M432.24 290.4c.15-.49.42-.61.58-1.06.08.06-.4 1.79-.58 1.06M418.39 334.34c-.28-1.2-.76.76-1-.92-.16.72.24 1.24-.12 1.12-.12-.12-.16-.4-.36-.32.24-1.44-.12-1.44-.28-2.48-1.4.08-2.52.8-3.76.8-.24.36.12.84-.12 1.08-.48.24-.84.04-1.4.44-.16-1.08-.56-1.64-.36-3.04 1.68.12 4-2 5.96-2.24.6-.08 1.24 1 1.6-.72-.92.56-1.64-1.36-2.44-1.56-1-.2-2.04 1.52-3.04 1.12-.28-.08-.4-.6-.64-.56-.2 0-.52.76-.76.76-.24-.08-.24-.68-.44-.6-.44.12-.76 1.04-1.24 1-.76-.08-1.52-1.08-2.4-.72-.12-.48-.08-1.72.12-1.92 1 .08 1.2 0 2.24-.08-.12-.12-.2-.36-.2-.88.36.12.44.44.68-.2-.8.08-.72-2.04-.44-3.04 1.88.36 4.24-.6 5.84.2.16-.6.28-1.36.56-1.6 1.76-.68 3.76 0 5.64-.64-2.16-1.6-4.4-.64-6.92 0-.12-.24-.04-1-.28-.84-1.08.76-2.36.56-3.16.84q-.54-1.74-1.08-3.6c-2.64.96-4.6-3.88-7.12-3.88 0-.8-.16-1.08-.24-1.64.2-.68.32-1.56.56-2.12.44-.08.84-.52 1.2.08 2.12-2.48 5.16-.72 7.8-2.12.32-1.36.08-2.4-.16-3.56-1.28-.8-2.4 1.12-3.76-.56-.52-3.24 0-5.48 1.08-5.64 1.72-.32 4.68 0 5.8.44 5.12-1.92 10.16-1.12 15.32-2.6-2.88-.64-5.56 1.08-8.16-.12.04.6-.04.88-.28.8-2.52-.32-5.36-.28-7.6.76-.92-1.96-2.76.36-3.68-1.68.24-3.08 1-4.48 2-5.28-1 .16-1.96-.84-2.8-1.04-.68-.16-1.84.8-2.2.08-.12-.12.04-.64-.08-.76-.12.08-.52.12-.56.2-.4.32-.32.56-.76.48-.6-.12-.56-.16-.92-.92-1.96-.48-3.88.48-5.84-.16-.2-.08-.6-.04-.64-.08-.2-.16-.04-.72-.28-.8-.16-.08-.08.56-.28.52-.8-.24-1.64-.52-2.44-.48-1.88.16-4.16-.6-5.72-.44-.36-.2.12-1.16-.36-1.12-2.68-.68-5.56-1.2-8.44-1.48-.2-.12 0-1.32-.36-1.12-.4-.24-.28 1.12-.64 1-.24-.36-.4-.72-.52-1.36-3.32-1-6.76.08-10.12.52-3.2.48-6.4.44-9.4.64-2.36.2-4.64 1.36-6.76.56-2.84.92-5.32.88-8 1.04-1.92.08-4.04-.56-5.64.08-.28.12-.6.72-.92.76-.52 0-1-.96-1.52-.96-1.28 0-2.64 1.12-3.96 1.04-1.48-.04-2.92-.24-4.36-.32-.8-.08-1.6.8-2.44.88-.52.04-1.08-.68-1.64-.68-1.56.08-3.16 1.24-4.64 1-2-.32-4-1.52-6.04-.16-2.24-.76-4.92-.8-7.04-.32-1.72-2.16-3.52.04-5.48-.44-.2-.04-.32-.48-.52-.6-2.96-1.6-6.24 1.32-8.64-.12-.88 1.44-1.68-.16-2.48-.44-.92-.36-1.76.56-2.64.6-.24 0-.52-.56-.8-.6-.88-.24-1.72.68-2.72.88-1.44.24-2.96-2.12-4.6-.64-1.28-1.04-3.16-2.24-4.64-.92-2.48-2.04-4.96.32-7.52-.6-.84-.32-1.64-1.76-2.48-.44-.92-1.52-1.96-.64-3.04-.8-1.12-.2-2.24-1.04-3.36-1.36-1.6-.48-3.56.68-4.8-2.32-.52-6.2-1.6 2.96-2.88 1.72-.68-1.28-.6-3-.88-5.28-.6-.92-1.16-.36-1.76.12-.68-.6-1.2-3.4-2.12-3.44-.36 0-.88 1-1.28 1-1.04 0-1.96-1.04-3-.52-.88.48-1.72 1.96-2.68 2.24-.68.24-.92.64-1.4 1-1.36 1-2.48.48-3.08 3.32-.96 1.84-2.16 2.92-3 4.68-.16.24-.44.12-.48.24-2.12 4.32-3.44 11.4-6 14.52-.2 1.6-.36 3.92-.76 5.92-.2.92-.64 1.52-.76 2.4-.52 3.44-.08 7.76-1.04 10.32v.2c0 .68.12.92.16 1.44 0 6.8.36 12.48.12 17.76.64 3.12.52 6.72 1.04 9.64.32 1.84.92 3.52 1.36 5.28.44 2 .92 3.56 1.32 5.6 0 2 .56 2.4.68 4.16.76 1.24 1.28 3 2 4.24.12.64.24 1.08.28 1.92 1.56 3.48 3.12 7.8 5.2 9.12.2.12.6.36.84.36 1.56-.08 3.96.64 4.8 3.4.28.2.28-.48.52-.24.2 1.24 1 3.68 1.72 3.68h.04c.24-.04.68-1.8 1.24-2.08.76-.48 1.52 1.88 2.28 1.52.36-.12.68-1.76 1.04-2.08.92-.92 2.76-.28 3.52.28.6.4.84 1.72 1.28 1.44.44-.24.72-1.64.68-3.76 1.2-4.6 4.24-1.04 6.08-3.04 1.32 1.64 2.6-1.12 3.88-.8.28.04.56.64.84.6.44-.04 1-.92 1.6-1.24.96-.56 1.8-.44 2.6-1.16 1.2 2.72 2.12-.4 3.16-.28.4.04.76.88 1.16.88.36 0 .72-.76 1.12-.72.4.08.84.96 1.24.92.24 0 .52-.56.72-.48.32.08.52.72.84.6s.68-1.16 1.04-1.28c1.24-.4 2.6.72 3.8-1.32 2.16 1.68 4-1.04 6.56.76.64-.52 1.12-.92 1.8-.36.12-.24.12-.88.36-.8 1.32.8 2.72-1.48 4.08-.52.04-.32.12-.6.2-.8 1.88 1.32 4.28 1.48 5.76-.08 1.16 1.36 2.48-.2 3.88-.24.68-.04 1.32.72 1.92.44 1.24-.6 2.84.12 4-.24.36-.12.72-.88 1.04-1 .6-.28 1.28.52 1.96.12 2.52-1.52 5.44-.48 7.68-.48.72 0 1.28-.88 2.08-1.2 1.28-.52 2.6.92 3.88.6.28-.08.64-.64.92-.76.76-.32 1.52.24 2.32.2 1.96-.12 3.96-1.64 5.84-.36 2.36-1.8 5.88-1.24 8.64-1.52.64-1.52 1.24-.2 1.88-.4 1.96-.6 4.52-2.28 6.56-1.12 8.72-2.6 17.84-1.48 26.48-4.48.68 1.16 1.72.44 2.32-.36.12.72.52.68.84.92 1.08-1.84 2.44-.36 3.8-.8.36-1.76 1.16-.44 1.68-1.76.2.96-.32.8.08 1.36.88-3.24 3.88-1.72 5.24-2.6-.12-.04-.12-.48 0-.52.32.76.48-.84.84-.76 2.4-.4 4.16-3.56 6.24-4.72.28.44.96 1.84 1.2.64-.4-.2-.88-.08-.8-1.44.6.44 1.4-.12 1.84-1.2.76-.12 1.2.56 1.84-.4.2 0-.12-1.4.24-1.36 1.08.72 1.6-.44 2.56.2.32-1.24 1.44-1.64 1.8-.92.28-.56-.36-1.08-.08-1.4.84-.4 1.68-.92 2.48-.08.2-.6.36-1.36.68-1.56.2-.08-.04 1.2.28.84.32-.72-.24-1.28-.2-2.2.48-.44.36-1.12.6-1.88.6.76 1.04-.8 1.56-1.24.6-.44 1.24 0 1.8-.4.44-.32.68-1.28 1.2-1.28.44.04.8 1 1.28.96.28-.24-.16-1.04.2-1.12 1.72-.32 3.4-.64 4.64-2.36-1.88 2.16-3.32-.12-5 1.8m-9.4 3.08c0 .32 0 .48.12.56-.24 1.32-.64-.6-.12-.56m2.88 1.32c-.44-.2-.64-.28-.88.76-.88-.76-1.04.64-1.76-.16.2-1.28-.12-.96-.04-2.44.8-.12 1.84-1.36 2.4-.36.16 0-.12-1.56.12-1.88.32.64.72 1.16 1.28 1.16.04 2.28-1.08.92-1.12 2.92" class="st0"/></svg>