<svg xmlns="http://www.w3.org/2000/svg" xml:space="preserve" viewBox="0 0 1500 1500"><path fill="#E5243B" d="M870 1501H1V1h1500v1500zM577.76 902.174l-34.663 125.517h43.062v6.509c0 36.998-.168 73.999.2 110.994.049 5.008 1.815 10.604 4.495 14.849 4.742 7.51 14.672 9.892 23.141 6.933 8.515-2.975 13.825-10.729 13.833-20.493.031-37.665.013-75.33.013-112.995v-5.58h11.318v6.33c0 36.832-.048 73.664.077 110.496.012 3.584.487 7.403 1.79 10.702 3.687 9.34 13.367 14.274 23.127 12.368 9.745-1.903 16.654-10.393 16.667-20.84.051-37.832.02-75.664.02-113.496v-6.305h42.73c-.354-1.74-.517-2.884-.821-3.99-9.103-33.022-18.222-66.04-27.332-99.062-5.794-20.999-11.601-41.995-17.346-63.008-1.014-3.712-2.39-8.25 2.457-9.877 5.369-1.801 6.135 3.262 7.187 6.775 7.156 23.89 14.109 47.842 21.296 71.723 2.293 7.618 4.45 15.39 7.852 22.53 3.528 7.403 10.137 9.784 17.525 8.013 7.964-1.909 12.362-6.705 12.714-15.082.177-4.222-.393-8.674-1.615-12.724-10.08-33.423-20.025-66.896-30.892-100.066-2.715-8.287-7.808-16.173-13.274-23.085-6.772-8.563-16.386-12.493-27.706-12.39-26.997.242-53.998.061-80.997.105-2.481.004-5.046.057-7.43.654-17.085 4.279-26.917 16.548-31.983 32.166-11.865 36.583-22.75 73.484-34.029 110.249-9.815-5.427-15.332-3.818-21.41 6.074-5.486 8.932-11.023 17.836-16.696 26.65-3.594 5.587-8.687 8.27-15.567 8.089-10.992-.29-22.01-.39-32.993.029-7.706.293-13.122-2.773-17.165-8.978-2.09-3.207-4.267-6.36-6.272-9.62-3.749-6.094-7.248-12.346-11.132-18.35-4.958-7.666-11.612-8.966-19.21-4.108-.43.275-.983.362-1.728.625 0-37.262.006-74.09-.003-110.92-.007-30.722-24.835-55.548-55.623-55.58q-43.998-.046-87.997-.001c-30.105.03-55.144 24.1-55.448 54.183-.394 39.161-.204 78.33.075 117.494.026 3.669 2.539 7.303 3.792 10.989.573 1.686 1.531 3.578 1.233 5.175-12.068 64.767-24.255 129.512-36.444 194.257-1.225 6.505 1.045 11.052 6.201 12.18 5.846 1.279 9.94-1.994 11.244-8.937a240675 240675 0 0 1 37.009-196.677c.187-.99.823-2.192 1.627-2.72 6.092-3.996 7.918-9.765 7.892-16.745-.117-31.332-.06-62.664-.03-93.997.003-2.153-.422-4.829.652-6.333 1.523-2.132 4.04-4.103 6.523-4.867 3.38-1.041 5.148 1.738 5.822 4.698.473 2.076.452 4.292.453 6.446.019 97.163.016 194.326.018 291.49 0 1.666-.058 3.337.049 4.997.926 14.45 14.156 24.48 28.33 21.505 11.67-2.448 18.609-11.847 18.615-25.437.023-55.164.01-110.329.01-165.494 0-7.824 1.77-10.731 6.49-10.661 4.829.072 6.504 2.836 6.504 10.742 0 55.498.034 110.996-.038 166.494-.01 7.62 2.28 14.165 8.079 19.103 7.536 6.419 16.215 7.812 25.173 3.651 9.125-4.238 13.641-11.785 13.64-21.975-.017-97.33-.012-194.66-.003-291.99 0-2.33-.067-4.683.204-6.989.405-3.458 1.325-6.683 5.777-6.77 4.414-.086 6.86 2.1 7.298 6.47.2 1.985.342 3.985.347 5.978.032 11.833.016 23.666.016 35.499 0 19.666-.018 39.332.01 58.998.01 8.087 3.517 13.69 10.04 16.268 6.882 2.718 13.523 1.032 18.929-4.89.544-.596.738-1.511 1.414-2.964 11.037 19.956 21.096 38.684 31.707 57.093 5.217 9.053 5.66 18.38 3.238 27.929-4.211 16.603-8.996 33.059-13.498 49.588-.976 3.583-1.777 7.214-2.785 11.34h17.452v5.262c0 15.5-.042 31 .016 46.499.038 10.036 6.796 17.137 16.212 17.219 9.662.084 16.531-7.025 16.598-17.353.074-11.332.018-22.665.018-33.998v-17.376h9.322c0 17.536-.132 34.699.05 51.858.106 10.01 7.166 16.918 16.63 16.863 9.376-.054 16.141-7.22 16.154-17.177.02-15.666.006-31.332.006-46.998v-5.034h17.55c-.466-1.967-.801-3.572-1.227-5.152-5.193-19.266-10.64-38.468-15.484-57.82-1.953-7.805-1.76-15.804 2.387-23.255 10.897-19.582 21.702-39.216 32.676-59.07.614.581 1.314 1.234 2.002 1.898 8.718 8.412 20.588 6.94 26.588-3.476 1.556-2.7 2.604-5.757 3.506-8.763 8.644-28.825 17.21-57.673 25.787-86.518.999-3.36 2.247-6.923 6.63-5.584 4.106 1.254 3.735 4.947 2.968 8.373a73 73 0 0 1-.865 3.387c-3.524 12.824-7.052 25.647-10.762 39.264m570.07 169.326c0 24.498-.088 48.996.034 73.493.071 14.25 13.002 24.826 27.01 22.383 12.129-2.116 19.622-11.394 19.628-24.507.024-55.328.009-110.656.018-165.984 0-1.83.018-3.668.192-5.487.357-3.74 2.545-5.73 6.246-5.802 3.676-.071 6.026 1.73 6.467 5.51.25 2.142.387 4.31.388 6.466.02 55.494-.001 110.988.028 166.483.008 15.804 13.739 26.606 29.043 22.96 10.888-2.595 17.623-11.99 17.624-24.69.008-97.323.002-194.646.024-291.97 0-2.49-.28-5.204.6-7.401.8-1.995 3.062-4.848 4.578-4.788 2.516.1 5.435 1.771 7.248 3.673 1.196 1.254.999 4.072 1.002 6.19.054 32.163.014 64.327.052 96.49.012 10.46 6.676 17.606 16.261 17.648 9.66.042 16.535-7.054 16.549-17.397.052-38.496.152-76.993-.021-115.488-.137-30.49-25.162-55.242-55.541-55.278-29.498-.035-58.994-.04-88.492.002-28.23.04-52.457 21.91-54.816 50.014-.847 10.098-.432 20.31-.447 30.47q-.068 44.994 0 89.99c.018 11.08 6.856 18.048 17.128 17.684 9.213-.327 15.504-7.436 15.52-17.843.052-31.996.012-63.993.04-95.99.002-1.813.094-3.673.495-5.43.827-3.626 3.374-5.098 6.981-5.103 3.578-.004 5.031 2.253 5.534 5.284.406 2.447.6 4.958.601 7.44.03 73.326.025 146.652.025 220.978M789.74 994.108l-9.296 33.672h43.046v6.52c0 36.995-.033 73.989.019 110.983.02 13.618 8.677 22.9 21.025 22.845 11.624-.052 20.808-10.006 20.642-22.747-.485-37.32-.172-74.652-.172-111.98v-5.495h11.486v6.308c0 36.495-.007 72.989.017 109.483.002 2.324.073 4.672.397 6.969 1.717 12.189 14.095 20.115 25.952 16.69 9.983-2.883 15.288-10.518 15.301-22.374.04-36.994.015-73.989.015-110.983v-6.561h42.903c-.328-1.358-.462-1.985-.632-2.601-14.9-54.184-29.82-108.363-44.654-162.566-.684-2.497-1.048-5.271-.684-7.79.194-1.34 2.15-3.171 3.529-3.386 1.377-.214 3.305 1.026 4.467 2.165.977.956 1.316 2.648 1.739 4.074 6.427 21.671 12.773 43.366 19.245 65.024 2.759 9.233 5.248 18.597 8.804 27.526 3.613 9.07 10.819 12.436 19.091 10.311 8.706-2.235 13.418-8.73 12.778-18.24-.231-3.446-1.054-6.916-2.07-10.234-10.112-33.056-20.05-66.172-30.71-99.052-2.453-7.566-6.726-14.858-11.498-21.283-7.32-9.856-17.549-14.637-30.262-14.485-26.659.318-53.324.077-79.986.126-2.646.005-5.384.06-7.923.705-17.084 4.338-26.801 16.738-31.89 32.312-11.197 34.27-21.407 68.865-31.839 103.382-1.132 3.747-1.57 7.869-1.46 11.792.214 7.547 4.801 12.887 11.895 14.828 7.482 2.046 13.498.063 17.776-6.514 1.958-3.01 3.362-6.505 4.406-9.965 8.543-28.332 16.922-56.714 25.408-85.064 1.1-3.677 1.565-9.095 7.22-7.25 5.116 1.669 3.38 6.453 2.326 10.296-12.054 43.928-24.137 87.848-36.41 132.56m198.701 63.928c4.04-12.841 8.046-25.693 12.159-38.51.517-1.613 1.596-3.045 2.415-4.56l1.14.505v5.97c0 41.829-.068 83.657.105 125.485.017 4.204.73 8.749 2.454 12.527 3.104 6.803 11.264 10.007 18.63 8.327 7.735-1.764 13.056-8.492 13.129-17.256.138-16.83-.007-33.663.081-50.494.02-3.802-1.168-9.057 4.818-9.138 5.94-.081 5.05 5.134 5.071 8.971.093 16.998-.036 33.997.07 50.994.068 11.118 9.04 18.73 19.85 17.089 8.642-1.312 14.139-8.368 14.144-18.349.022-42.828.004-85.657.028-128.485.001-1.962.269-3.924.413-5.886 1.868 1.617 2.493 3.285 3.109 4.957 5.979 16.215 12.018 32.407 17.894 48.659 1.633 4.517 4.875 5.552 9.051 4.974 8.26-1.143 13.17-9.392 10.104-17.131-8.637-21.792-17.36-43.55-26.063-65.317-4.19-10.479-11.566-16.886-23.094-17.862-3.15-.267-6.313-.477-9.47-.49-12.829-.055-25.717.758-38.47-.215-16.908-1.29-27.667 5.933-34.055 20.99-.52 1.224-1.216 2.374-1.717 3.604-7.401 18.162-14.835 36.31-22.134 54.514-1.852 4.62-3.62 9.33-4.776 14.155-1.5 6.259 1.99 11.513 7.944 12.96 5.709 1.386 10.847-1.523 12.83-7.398 1.436-4.251 2.714-8.556 4.34-13.59M129.907 140.468l-39.66 21.602v39.83l41.5-14.902V416.11h54.81V129.482c-10.409 0-20.555.35-30.663-.114-7.62-.35-14.427.329-19.746 6.604-1.458 1.72-3.745 2.735-6.24 4.496m186.029 592.81c.248-.616.512-1.226.742-1.85 6.335-17.117 1.428-35.876-12.41-47.453-13.158-11.009-32.482-12.67-47.646-4.097-15.43 8.723-23.578 26.237-20.518 44.103 2.916 17.022 17.21 31.115 34.34 33.855 18.798 3.008 35.852-5.993 45.492-24.557m843.232-14.064c.224 1.48.428 2.964.677 4.44 2.966 17.546 17.21 31.657 34.533 34.217 18.147 2.682 35.678-6.096 43.9-21.982 8.414-16.258 5.506-36.087-7.177-48.949-11.904-12.07-30.082-15.889-45.635-9.585-16.655 6.75-26.312 21.783-26.298 41.86m-322.99-.457c-10.138 19.805-4.437 42.105 13.646 53.379 17.37 10.83 40.418 6.574 52.756-9.74 13.606-17.992 9.403-44.05-9.175-56.884-18.932-13.079-44.112-7.483-57.227 13.245m-232.424 45.965c13.26 14.345 33.74 17.589 49.979 7.916 16.324-9.722 23.752-29.31 17.368-47.087-5.927-16.507-18.017-25.389-35.47-26.93-14.62-1.29-30.128 7.204-37.018 20.81-7.999 15.793-6.306 30.82 5.14 45.29M437.85 349.507c0-3.33.068-6.662-.013-9.99-.491-20.176-9.375-30.847-27.927-32.154-19.318-1.36-33.911 4.949-35.004 28.98-.83 18.263-.767 36.63.12 54.89.914 18.82 10.93 27.743 29.732 28.607 18.952.872 30.511-8.115 32.25-26.943 1.297-14.037.633-28.255.842-43.39m1.324-184.978c-.08-2.328-.098-4.66-.247-6.984-1.108-17.355-9.176-27.276-25.08-29.06-23.2-2.602-34.561 5.885-37.539 25.009-.407 2.616-.457 5.307-.465 7.964-.042 14.983-.103 29.967.036 44.95.036 3.964.372 8.009 1.236 11.868 2.335 10.425 7.677 18.578 18.879 20.856 12.567 2.557 24.981 2.94 34.973-7.12 2.154-2.169 3.973-5.102 4.848-8.013 1.516-5.041 2.889-10.319 3.055-15.537.454-14.303.25-28.627.304-43.933m180.81 145.826-41.683-2.667V417.85h20.13v-49.46h8.169c.508 1.722 1.011 3.282 1.429 4.864 3.648 13.828 7.219 27.677 11.014 41.464.37 1.341 2.044 3.226 3.204 3.294 5.787.339 11.605.155 17.882.155l-15.062-53.733c6.022-2.904 10.426-7.262 11.322-13.487 1.03-7.15 1.503-14.567.814-21.733-.933-9.724-7.095-15.812-17.22-18.86M364.006 190.5v-60.926h-17.054v58.419c-1.479-1.497-2.263-3.089-2.968-4.715-7.275-16.774-14.504-33.568-21.862-50.306-.64-1.454-2.003-3.478-3.225-3.626-3.877-.468-7.845-.173-11.654-.173v109.664h16.703v-61.332c1.574 1.437 2.333 3.01 3.003 4.62 7.34 17.65 14.625 35.322 22.066 52.929.669 1.581 2.18 3.713 3.55 3.917 3.667.548 7.47.187 11.44.187zm-57.183 209.999v17.267h20.128v-47.983c5.327-.244 10.278-.38 15.216-.714 12.39-.837 21.355-7.614 23.076-19.576 1.13-7.852.532-16.268-.989-24.102-1.723-8.874-8.332-15.129-17.282-15.817-13.183-1.014-26.502-.262-40.15-.262zm172.2-19.62c-.129.106-.244.238-.389.309-.076.036-.288-.02-.297-.062-.78-3.734-1.592-7.461-2.304-11.207-3.664-19.268-7.256-38.55-11.044-57.792-.266-1.351-1.844-3.386-2.937-3.47-4.924-.377-9.894-.164-15.38-.164.334 2.18.519 3.787.831 5.368 1.484 7.5 2.991 14.996 4.51 22.49 5.316 26.222 10.618 52.446 16.033 78.648.24 1.161 1.493 2.973 2.34 3.01 5.915.265 11.848.14 17.916.14l22.243-109.359h-18.337c-4.344 23.98-8.637 47.68-13.186 72.088m2.13 551.672c.12-1.157.306-2.312.346-3.472.471-13.709-5.026-24.4-17.054-30.968-11.784-6.435-23.834-5.802-34.873 1.91-11.258 7.866-15.523 19.106-13.621 32.65 2.084 14.84 15.361 26.754 30.48 27.465 17.211.81 30.445-9.423 34.723-27.585m533.722-22.085c-8.796 16.548-3.893 35.873 11.408 44.965 15.33 9.109 34.806 4.89 44.63-9.668 10.209-15.13 6.356-35.709-8.604-45.961-15.673-10.74-35.775-6.469-47.434 10.664M520.993 382.5v35.391h45.8v-13.93h-25.407v-35.646h19.752v-14.438h-19.89v-31.106h25.519v-13.99h-45.775zm192.856-37.646c10.43 23.32 12.142 47.956 9.82 73.006h19.861c0-10.78-.305-21.254.12-31.698.24-5.883 1.045-11.906 2.71-17.536 4.003-13.528 8.674-26.857 13.054-40.273 2.089-6.397 4.129-12.81 6.405-19.882-5.215 0-9.69.264-14.12-.081-3.742-.292-5.047 1.146-6.02 4.674-3.408 12.359-7.27 24.592-11.307 38.026-.98-2.701-1.595-4.205-2.075-5.75-3.451-11.1-6.804-22.232-10.395-33.286-.452-1.391-2.044-3.333-3.217-3.412-5.396-.366-10.83-.162-16.83-.162 4.071 12.373 7.896 24 11.994 36.374m-30.67-1.353v-20.065h17.564v-14.673h-55.719v14.66h18.068v94.371h20.087z"/><path fill="#FFFEFE" d="M577.85 901.777c3.619-13.22 7.147-26.043 10.67-38.867.31-1.124.611-2.25.866-3.387.767-3.426 1.138-7.12-2.968-8.373-4.383-1.339-5.631 2.224-6.63 5.584-8.577 28.845-17.143 57.693-25.787 86.518-.902 3.006-1.95 6.062-3.506 8.763-6 10.417-17.87 11.888-26.588 3.476-.688-.664-1.388-1.317-2.002-1.898-10.974 19.854-21.78 39.488-32.676 59.07-4.146 7.451-4.34 15.45-2.387 23.255 4.844 19.352 10.291 38.554 15.484 57.82.426 1.58.76 3.185 1.226 5.152h-17.55v5.034c0 15.666.016 31.332-.005 46.998-.013 9.956-6.778 17.123-16.153 17.177-9.465.055-16.525-6.852-16.631-16.863-.182-17.159-.05-34.322-.05-51.858h-9.322v17.376c0 11.333.056 22.666-.018 33.998-.067 10.328-6.936 17.437-16.598 17.353-9.416-.082-16.174-7.183-16.212-17.22-.058-15.499-.015-30.998-.016-46.498v-5.263h-17.452c1.008-4.125 1.809-7.756 2.785-11.339 4.502-16.529 9.287-32.985 13.498-49.588 2.422-9.55 1.979-18.876-3.238-27.929-10.611-18.41-20.67-37.137-31.707-57.093-.676 1.453-.87 2.368-1.414 2.964-5.406 5.922-12.047 7.608-18.929 4.89-6.523-2.577-10.03-8.18-10.04-16.268-.028-19.666-.01-39.332-.01-58.998 0-11.833.016-23.666-.016-35.499-.005-1.993-.148-3.993-.347-5.977-.438-4.37-2.884-6.557-7.298-6.47-4.452.086-5.372 3.311-5.777 6.77-.27 2.305-.204 4.657-.204 6.989-.009 97.33-.014 194.659.002 291.989.002 10.19-4.514 17.737-13.639 21.975-8.958 4.161-17.637 2.768-25.173-3.65-5.799-4.939-8.09-11.485-8.08-19.104.073-55.498.04-110.996.04-166.494 0-7.906-1.676-10.67-6.504-10.742-4.72-.07-6.491 2.837-6.491 10.661 0 55.165.013 110.33-.01 165.494-.006 13.59-6.945 22.99-18.614 25.437-14.175 2.974-27.405-7.055-28.331-21.505-.107-1.66-.049-3.331-.049-4.998-.002-97.163.001-194.326-.018-291.489 0-2.154.02-4.37-.453-6.446-.674-2.96-2.442-5.74-5.822-4.698-2.484.764-5 2.735-6.523 4.867-1.074 1.504-.65 4.18-.652 6.333-.03 31.333-.087 62.665.03 93.997.026 6.98-1.8 12.75-7.892 16.746-.804.527-1.44 1.73-1.627 2.719a240675 240675 0 0 0-37.01 196.677c-1.304 6.943-5.397 10.216-11.243 8.937-5.156-1.128-7.426-5.675-6.201-12.18 12.189-64.745 24.376-129.49 36.444-194.257.298-1.597-.66-3.489-1.233-5.175-1.253-3.686-3.766-7.32-3.792-10.99-.279-39.163-.47-78.332-.075-117.493.304-30.084 25.343-54.153 55.448-54.183q44-.045 87.997 0c30.788.033 55.616 24.86 55.623 55.582.01 36.829.003 73.657.003 110.92.745-.264 1.297-.35 1.729-.626 7.597-4.858 14.25-3.558 19.209 4.107 3.884 6.005 7.383 12.257 11.132 18.351 2.005 3.26 4.182 6.413 6.272 9.62 4.043 6.205 9.46 9.27 17.165 8.978 10.984-.418 22-.319 32.993-.03 6.88.182 11.973-2.501 15.567-8.087 5.673-8.815 11.21-17.719 16.697-26.651 6.077-9.892 11.594-11.5 21.409-6.074 11.28-36.765 22.164-73.666 34.03-110.25 5.065-15.617 14.897-27.886 31.982-32.165 2.384-.597 4.949-.65 7.43-.654 27-.044 54 .137 80.997-.106 11.32-.102 20.934 3.828 27.706 12.391 5.466 6.912 10.559 14.798 13.274 23.085 10.867 33.17 20.812 66.643 30.892 100.066 1.222 4.05 1.792 8.502 1.615 12.724-.352 8.377-4.75 13.173-12.714 15.082-7.388 1.77-13.997-.61-17.525-8.014-3.401-7.139-5.559-14.911-7.852-22.53-7.187-23.88-14.14-47.832-21.296-71.722-1.052-3.513-1.818-8.576-7.187-6.775-4.847 1.627-3.471 6.165-2.457 9.877 5.745 21.013 11.552 42.009 17.346 63.008 9.11 33.021 18.23 66.04 27.332 99.063.304 1.105.467 2.25.82 3.99h-42.728v6.304c0 37.832.03 75.664-.02 113.496-.014 10.447-6.923 18.937-16.668 20.84-9.76 1.906-19.44-3.028-23.127-12.368-1.303-3.299-1.778-7.118-1.79-10.702-.125-36.832-.077-73.664-.077-110.496v-6.33h-11.318v5.58c0 37.665.018 75.33-.013 112.995-.008 9.764-5.318 17.518-13.833 20.493-8.47 2.959-18.399.576-23.14-6.933-2.681-4.245-4.447-9.84-4.497-14.85-.367-36.994-.199-73.995-.199-110.993v-6.51h-43.062c11.704-42.38 23.183-83.948 34.753-125.913"/><path fill="#FFFDFE" d="M1147.828 1071c0-73.826.006-147.152-.025-220.478a46 46 0 0 0-.6-7.44c-.504-3.031-1.957-5.288-5.535-5.284-3.607.005-6.154 1.477-6.981 5.103-.401 1.757-.493 3.617-.495 5.43-.028 31.997.012 63.994-.04 95.99-.016 10.407-6.307 17.516-15.52 17.843-10.272.364-17.11-6.605-17.127-17.684q-.069-44.996 0-89.99c.014-10.16-.401-20.372.446-30.47 2.359-28.103 26.586-49.974 54.816-50.014 29.498-.042 58.994-.037 88.492-.002 30.38.036 55.404 24.788 55.541 55.278.173 38.495.073 76.992.021 115.488-.014 10.343-6.889 17.44-16.549 17.397-9.585-.042-16.25-7.188-16.261-17.648-.038-32.163.002-64.327-.052-96.49-.003-2.118.194-4.936-1.002-6.19-1.813-1.902-4.732-3.573-7.248-3.673-1.516-.06-3.778 2.793-4.578 4.788-.88 2.197-.6 4.912-.6 7.401-.022 97.324-.016 194.647-.024 291.97 0 12.7-6.736 22.095-17.624 24.69-15.304 3.646-29.035-7.156-29.043-22.96-.03-55.495-.008-110.989-.028-166.483a56 56 0 0 0-.388-6.465c-.441-3.781-2.79-5.582-6.467-5.51-3.701.071-5.889 2.061-6.246 5.801-.174 1.819-.191 3.658-.192 5.487-.009 55.328.006 110.656-.018 165.984-.006 13.113-7.5 22.391-19.628 24.507-14.008 2.443-26.939-8.133-27.01-22.383-.122-24.497-.034-48.995-.035-73.993"/><path fill="#FFFEFE" d="M789.839 993.714c12.174-44.317 24.257-88.237 36.311-132.165 1.055-3.843 2.79-8.627-2.326-10.296-5.655-1.845-6.12 3.573-7.22 7.25-8.486 28.35-16.865 56.732-25.408 85.064-1.044 3.46-2.448 6.956-4.406 9.965-4.278 6.577-10.294 8.56-17.776 6.514-7.094-1.94-11.681-7.281-11.894-14.828-.11-3.923.327-8.045 1.46-11.792 10.43-34.517 20.64-69.112 31.838-103.382 5.089-15.574 14.806-27.974 31.89-32.312 2.54-.644 5.277-.7 7.923-.705 26.662-.049 53.327.192 79.986-.126 12.713-.152 22.942 4.629 30.262 14.485 4.772 6.425 9.045 13.717 11.498 21.283 10.66 32.88 20.598 65.996 30.71 99.052 1.016 3.318 1.839 6.788 2.07 10.234.64 9.51-4.072 16.005-12.778 18.24-8.272 2.125-15.478-1.242-19.09-10.311-3.557-8.929-6.046-18.293-8.805-27.526-6.472-21.658-12.818-43.353-19.245-65.024-.423-1.426-.762-3.118-1.74-4.074-1.161-1.139-3.09-2.38-4.466-2.165-1.378.215-3.335 2.046-3.53 3.387-.363 2.518.001 5.292.685 7.79 14.834 54.202 29.754 108.38 44.654 162.565.17.616.304 1.243.632 2.601h-42.903v6.561c0 36.994.025 73.989-.015 110.983-.013 11.856-5.318 19.491-15.3 22.374-11.858 3.425-24.236-4.501-25.953-16.69-.324-2.297-.395-4.645-.397-6.969-.024-36.494-.016-72.988-.017-109.483v-6.308h-11.486v5.495c0 37.328-.313 74.66.172 111.98.166 12.741-9.018 22.695-20.642 22.747-12.348.056-21.006-9.227-21.025-22.845-.052-36.994-.018-73.988-.019-110.982v-6.52h-43.046c3.244-11.748 6.27-22.71 9.396-34.067"/><path fill="#FFFCFD" d="M988.302 1058.414c-1.487 4.657-2.765 8.962-4.2 13.213-1.984 5.875-7.122 8.784-12.83 7.397-5.954-1.446-9.445-6.7-7.945-12.959 1.156-4.824 2.924-9.536 4.776-14.155 7.299-18.203 14.733-36.352 22.134-54.514.501-1.23 1.198-2.38 1.717-3.604 6.388-15.057 17.147-22.28 34.054-20.99 12.754.973 25.642.16 38.47.215 3.158.013 6.322.223 9.47.49 11.53.976 18.906 7.383 23.095 17.862 8.702 21.766 17.426 43.525 26.063 65.317 3.067 7.739-1.844 15.988-10.104 17.131-4.176.578-7.418-.457-9.051-4.974-5.876-16.252-11.915-32.444-17.894-48.659-.616-1.672-1.241-3.34-3.11-4.957-.143 1.962-.41 3.924-.412 5.886-.024 42.828-.006 85.657-.028 128.485-.005 9.98-5.502 17.037-14.144 18.349-10.81 1.64-19.782-5.97-19.85-17.089-.106-16.997.023-33.996-.07-50.994-.02-3.837.869-9.052-5.07-8.971-5.987.081-4.799 5.336-4.819 9.138-.088 16.83.057 33.663-.081 50.494-.073 8.764-5.394 15.492-13.129 17.256-7.366 1.68-15.526-1.524-18.63-8.327-1.724-3.778-2.437-8.323-2.454-12.527-.173-41.828-.105-83.656-.105-125.485v-5.97l-1.14-.505c-.819 1.515-1.898 2.947-2.415 4.56-4.113 12.817-8.12 25.669-12.298 38.887"/><path fill="#FFFCFC" d="M130.202 140.257c2.2-1.55 4.488-2.566 5.946-4.285 5.32-6.275 12.126-6.954 19.746-6.604 10.108.464 20.254.114 30.663.114v286.629h-54.81V186.998l-41.5 14.902v-39.83c13.42-7.31 26.54-14.456 39.955-21.813"/><path fill="#FFFEFE" d="M315.791 733.63c-9.494 18.213-26.548 27.214-45.346 24.206-17.13-2.74-31.424-16.833-34.34-33.855-3.06-17.866 5.088-35.38 20.518-44.103 15.164-8.573 34.488-6.912 47.647 4.097 13.837 11.577 18.744 30.336 12.41 47.454-.231.623-.495 1.233-.889 2.202M1159.165 718.76c-.01-19.621 9.647-34.654 26.302-41.404 15.553-6.304 33.73-2.486 45.635 9.585 12.683 12.862 15.59 32.691 7.177 48.949-8.222 15.886-25.753 24.664-43.9 21.982-17.322-2.56-31.567-16.671-34.533-34.217a97 97 0 0 1-.681-4.894M836.38 718.451c12.914-20.42 38.094-26.016 57.026-12.937 18.578 12.835 22.781 38.892 9.175 56.884-12.338 16.314-35.386 20.57-52.756 9.74-18.083-11.274-23.784-33.574-13.445-53.687M603.52 764.456c-11.212-14.203-12.905-29.23-4.906-45.024 6.89-13.605 22.398-22.1 37.018-20.809 17.453 1.541 29.543 10.423 35.47 26.93 6.384 17.778-1.044 37.365-17.368 47.087-16.24 9.673-36.718 6.429-50.214-8.184"/><path fill="#FEFBFB" d="M437.85 350.005c-.21 14.636.455 28.854-.842 42.89-1.739 18.83-13.298 27.816-32.25 26.944-18.803-.864-28.818-9.788-29.732-28.606-.887-18.261-.95-36.628-.12-54.891 1.093-24.031 15.686-30.34 35.004-28.98 18.552 1.307 27.436 11.978 27.927 32.154.081 3.328.012 6.66.013 10.489M417.153 370.5c-.036-12.313.13-24.632-.181-36.938-.191-7.557-3.883-11.177-10.477-11.378-6.71-.204-10.25 3.103-11.296 10.599-.137.985-.182 1.99-.182 2.986-.01 18.305-.044 36.61.037 54.915.01 2.295.491 4.622 1.022 6.871.942 3.992 3.626 6.14 7.652 6.82 7.707 1.299 12.739-2.58 13.206-10.917.409-7.3.17-14.637.219-22.958"/><path fill="#FFFCFC" d="M439.175 165.023c-.055 14.811.15 29.135-.305 43.438-.166 5.218-1.539 10.496-3.055 15.537-.875 2.911-2.694 5.844-4.848 8.013-9.992 10.06-22.406 9.677-34.973 7.12-11.202-2.278-16.544-10.431-18.879-20.856-.864-3.86-1.2-7.904-1.236-11.869-.14-14.982-.078-29.966-.036-44.949.008-2.657.058-5.348.465-7.964 2.978-19.124 14.34-27.611 37.539-25.01 15.904 1.785 23.972 11.706 25.08 29.061.149 2.324.168 4.656.248 7.48m-24.852-20.002c-9.685-4.826-16.338-1.435-17.874 9.149-.215 1.475-.266 2.985-.268 4.479-.018 17-.056 34 .033 51a37.3 37.3 0 0 0 1.008 8.4c.972 4.064 3.535 6.552 7.924 7.18 8.734 1.252 13.238-3.252 13.31-14.068.122-17.999.238-36.003-.128-53.995-.08-3.905-2.207-7.768-4.005-12.145"/><path fill="#FFFDFD" d="M620.353 310.514c9.755 2.888 15.917 8.976 16.85 18.7.689 7.166.215 14.583-.814 21.733-.896 6.225-5.3 10.583-11.322 13.487l15.062 53.733c-6.277 0-12.095.184-17.882-.155-1.16-.068-2.835-1.953-3.204-3.294-3.795-13.787-7.366-27.636-11.014-41.464-.418-1.582-.921-3.142-1.429-4.864h-8.17v49.46H578.3V307.687c13.932.892 27.808 1.78 42.053 2.827m-4.212 39.977c4.067-6.816 3.869-14.076 1.244-21.106-.898-2.405-3.747-4.932-6.232-5.701-3.955-1.225-8.35-1.023-12.655-1.433v32.801c6.312.141 12.378.91 17.643-4.561"/><path fill="#FFFCFD" d="M364.006 191v48.158c-3.971 0-7.774.361-11.44-.187-1.37-.204-2.882-2.336-3.55-3.917-7.442-17.607-14.727-35.28-22.067-52.929-.67-1.61-1.43-3.183-3.003-4.62v61.332h-16.703V129.173c3.81 0 7.777-.295 11.654.173 1.222.148 2.585 2.172 3.225 3.626 7.358 16.738 14.587 33.532 21.862 50.306.705 1.626 1.49 3.218 2.968 4.715v-58.419h17.054z"/><path fill="#FFFBFC" d="M306.822 400v-90.688c13.647 0 26.966-.752 40.149.262 8.95.688 15.56 6.943 17.282 15.817 1.521 7.834 2.118 16.25.989 24.102-1.721 11.962-10.686 18.739-23.076 19.576-4.938.333-9.889.47-15.216.714v47.983h-20.128zm20.022-63.493v18.558c7.073-.546 14.302 1.9 18.733-5.114 3.117-4.932 2.581-19.877-.847-23.54-5.021-5.364-11.559-3.056-17.886-3.601z"/><path fill="#FEFBFB" d="M479.148 380.524c4.421-24.054 8.714-47.755 13.058-71.734h18.337L488.3 418.15c-6.068 0-12 .124-17.916-.14-.847-.038-2.1-1.85-2.34-3.011-5.415-26.202-10.717-52.426-16.033-78.648a4846 4846 0 0 1-4.51-22.49c-.312-1.581-.497-3.189-.83-5.368 5.485 0 10.455-.213 15.38.164 1.092.084 2.67 2.119 2.936 3.47 3.788 19.243 7.38 38.524 11.044 57.792.712 3.746 1.524 7.473 2.304 11.207.01.043.221.098.297.062.145-.07.26-.203.516-.664"/><path fill="#FFFDFD" d="M481.087 932.966c-4.214 17.746-17.448 27.98-34.66 27.17-15.118-.712-28.395-12.626-30.48-27.466-1.901-13.544 2.364-24.784 13.622-32.65 11.039-7.712 23.09-8.345 34.873-1.91 12.028 6.567 17.525 17.259 17.054 30.968-.04 1.16-.227 2.315-.409 3.888M1015.04 910.138c11.492-16.806 31.594-21.078 47.267-10.337 14.96 10.252 18.813 30.832 8.603 45.961-9.823 14.558-29.298 18.777-44.629 9.668-15.3-9.092-20.204-28.417-11.24-45.292"/><path fill="#FFFBFC" d="M520.992 382v-73.22h45.775v13.99h-25.52v31.107h19.89v14.438h-19.751v35.645h25.407v13.931h-45.8z"/><path fill="#FEFAFA" d="M713.712 344.48c-3.962-12-7.787-23.627-11.857-36 5.999 0 11.433-.204 16.83.162 1.172.079 2.764 2.02 3.216 3.412 3.59 11.054 6.944 22.185 10.395 33.285.48 1.546 1.095 3.05 2.075 5.75 4.036-13.433 7.899-25.666 11.307-38.025.973-3.528 2.278-4.966 6.02-4.674 4.43.345 8.905.08 14.12.08-2.276 7.072-4.316 13.486-6.405 19.883-4.38 13.416-9.05 26.745-13.053 40.273-1.666 5.63-2.472 11.653-2.711 17.536-.425 10.444-.12 20.918-.12 31.698h-19.862c2.323-25.05.61-49.685-9.955-73.38"/><path fill="#FFFBFC" d="M683.178 344v73.794H663.09v-94.372h-18.068v-14.659h55.72v14.673h-17.565z"/><path fill="#E5253C" d="M417.153 371c-.048 7.82.19 15.157-.22 22.458-.466 8.337-5.498 12.216-13.205 10.916-4.026-.679-6.71-2.827-7.652-6.819-.53-2.249-1.012-4.576-1.022-6.87-.081-18.305-.048-36.61-.037-54.916 0-.996.045-2.001.182-2.986 1.047-7.496 4.586-10.803 11.296-10.599 6.594.2 10.286 3.82 10.477 11.378.31 12.306.145 24.625.18 37.438"/><path fill="#E5273D" d="M414.63 145.27c1.491 4.13 3.618 7.992 3.698 11.897.366 17.992.25 35.996.129 53.995-.073 10.816-4.577 15.32-13.311 14.069-4.389-.629-6.952-3.117-7.924-7.181a37.3 37.3 0 0 1-1.008-8.4c-.09-17-.05-34-.033-51 .002-1.494.053-3.004.268-4.48 1.536-10.583 8.189-13.974 18.181-8.9"/><path fill="#E62A40" d="M615.917 350.8c-5.04 5.163-11.107 4.393-17.42 4.252v-32.8c4.305.41 8.701.207 12.656 1.432 2.485.77 5.334 3.296 6.232 5.701 2.625 7.03 2.823 14.29-1.468 21.416"/><path fill="#E5263C" d="M326.844 336.007V322.81c6.327.545 12.865-1.763 17.886 3.6 3.428 3.664 3.964 18.609.847 23.541-4.43 7.013-11.66 4.568-18.733 5.114z"/></svg>