<svg xmlns="http://www.w3.org/2000/svg" xml:space="preserve" viewBox="0 0 1500 1500"><path fill="#DD1367" d="M1 557V1h1500v1500H1zm246.07-421.471c-12.543 7.398-20.965 18.27-26.514 31.54-5.344 12.78-7.509 26.2-7.531 39.96-.074 43.988-.124 87.977.064 131.964.032 7.618.6 15.362 2.07 22.822 4.607 23.393 15.958 42.235 38.347 52.75 12.635 5.935 26.194 7.313 39.973 6.928 28.56-.797 50.744-12.282 63.88-38.58 6.603-13.218 9.095-27.423 9.12-42.064.078-44.488.16-88.977-.09-133.463-.046-8.268-.876-16.693-2.648-24.76-5.12-23.31-16.532-42.621-40.006-51.13-25.532-9.255-51.228-8.64-76.665 4.033m622.43 940.639c5.997 0 12.006-.232 17.988.073 4.783.243 6.456-1.515 6.426-6.324-.162-25.82-.069-51.644-.082-77.466-.003-6.177-.426-6.613-6.47-6.613q-135.192-.012-270.383 0c-6.198 0-6.474.28-6.477 6.497-.014 25.322-.008 50.645-.005 75.967 0 7.864.005 7.866 8.112 7.866zM610.497 821.553c0 23.656-.007 47.313.005 70.97.003 6.254.232 6.475 6.468 6.475q135.192.007 270.384 0c6.126-.001 6.477-.352 6.48-6.576.011-25.323.006-50.645.004-75.968 0-7.62-.005-7.622-7.859-7.622-87.962 0-175.924-.027-263.887.03-13.01.008-11.475-2.105-11.595 12.691m396.993 50.947c0 66.465-.015 132.93.076 199.396.002 1.922 1.126 3.841 1.727 5.761 1.617-.98 3.51-1.684 4.81-2.981 42.689-42.592 85.292-85.268 128.01-127.83 3.416-3.404 3.284-5.723-.064-9.059-42.714-42.565-85.318-85.24-128.014-127.824-1.28-1.277-3.248-1.865-4.896-2.774-.55 1.78-1.567 3.558-1.577 5.342-.114 19.655-.072 39.312-.072 59.969m-529.165-50.676q-57.787 57.785-115.57 115.574c-4.572 4.573-4.56 5.403.097 10.062q63.44 63.444 126.882 126.884c.707.707 1.32 1.566 2.148 2.077.916.566 2.382 1.412 2.974 1.063.935-.554 1.569-1.935 1.906-3.09.314-1.076.077-2.313.077-3.48V814.001c0-1.166.225-2.398-.078-3.481-.328-1.175-.929-2.798-1.825-3.14-.848-.323-2.503.478-3.337 1.273-4.34 4.138-8.531 8.432-13.274 13.171M780.5 687.001h100.48c1.165 0 2.337.062 3.497-.027 3.306-.252 3.425-2.178 2.071-4.479-.654-1.113-1.824-1.924-2.766-2.866q-63.09-63.096-126.183-126.19c-5.076-5.075-5.798-5.09-10.81-.079q-63.272 63.267-126.54 126.538c-.59.589-1.36 1.09-1.718 1.797-.629 1.24-1.421 2.65-1.297 3.906.056.569 2.108 1.103 3.317 1.349 1.12.228 2.322.05 3.489.05zm17.674 603.674c28.619-28.62 57.252-57.226 85.812-85.906 1.4-1.406 2.147-3.46 3.199-5.212-1.897-.574-3.794-1.649-5.692-1.65-86.277-.083-172.555-.08-258.832-.02-1.84.001-3.681.787-5.521 1.206.902 1.782 1.423 3.944 2.763 5.29 42.448 42.584 84.974 85.092 127.493 127.606 4.396 4.396 5.079 4.38 9.645-.182 13.55-13.539 27.09-27.087 41.133-41.132m-626.69-874.168h13.331V129.494c-11.634 0-23.097.235-34.544-.102-5.445-.16-9.576 1.291-13.871 4.839-13.311 10.997-28.894 18.231-44.449 25.452-1.574.73-3.589 2.747-3.623 4.208-.287 12.471-.164 24.951-.164 38.098l41.942-15.039v229.556zM690.47 439.85c.879-2.846 1.543-5.782 2.693-8.514 1.378-3.27.859-5.589-2.178-7.578-2.768-1.814-5.305-3.978-8.486-6.4 10.701-6.094 15.219-14.277 15.56-24.001.678-19.282 1.474-38.665.237-57.878-1.209-18.79-9.725-26.818-26.927-28.097-20.044-1.49-34.346 5.408-35.418 29.122-.767 16.954-.902 33.988-.239 50.944.99 25.307 13.15 32.048 31.35 32.514 1.445.037 3.02 1.506 4.24 2.63 6.19 5.706 12.282 11.518 19.168 17.258M518.018 226.633l3.292 12.236h20.007c-.35-1.627-.556-2.9-.9-4.135-4.243-15.2-8.553-30.382-12.685-45.612-.392-1.447-.264-4.156.575-4.644 10.454-6.085 11.488-16.331 11.353-26.565-.219-16.674-6.727-25.294-21.81-27.357-12.422-1.699-25.125-1.346-38.056-1.918v110.187h20.16v-49.134c8.132-1.188 8.119-1.184 10.064 6.254 2.605 9.965 5.234 19.924 8 30.688m87.143-94.741V238.63c12.36 0 24.237.95 35.896-.237 15.028-1.53 23.234-10.204 23.846-25.35.798-19.765.754-39.609-.035-59.375-.55-13.763-9.184-22.252-22.783-23.464-11.25-1.003-22.611-.791-33.926-.963-.979-.015-1.975 1.123-2.998 2.651m285.335-2.735h-17.269v109.386c12.158 0 24.18.954 35.983-.246 14.133-1.437 21.97-8.505 22.923-22.74 1.408-21.024 1.436-42.26.21-63.299-.813-13.959-9.78-20.898-23.913-22.268-5.62-.545-11.29-.57-17.934-.833M552.03 366.222c-7.699-17.847-15.346-35.716-23.182-53.502-.739-1.678-2.511-3.79-4.07-4.04-3.7-.594-7.56-.19-11.555-.19v109.27h17.197v-60.95c1.483 1.25 2.172 2.67 2.777 4.126 7.4 17.795 14.74 35.614 22.258 53.36.653 1.54 2.316 3.484 3.742 3.7 3.538.534 7.212.175 11.006.175V308.806h-16.38v5.763c-.001 16.319.028 32.638-.064 48.957-.007 1.118-.917 2.231-1.729 2.696m218.825-50.57v-6.774h-19.708v5.871c0 22.995.084 45.99-.07 68.983-.03 4.616-.54 9.325-1.599 13.81-1.068 4.521-4.63 6.802-9.305 6.871-4.842.072-8.41-2.128-9.93-6.793-.815-2.498-1.306-5.216-1.327-7.84-.204-24.987-.277-49.976-.385-74.964-.009-1.937-.001-3.874-.001-5.942H709.14c-.065 1.222-.147 2.047-.147 2.872-.007 24.827-.135 49.655.033 74.482.15 22.097 8.61 32.467 28.426 33.406 21.474 1.017 29.295-7.566 32.312-23.614.794-4.227 1.023-8.61 1.042-12.924.1-22.16.047-44.322.047-67.445m-75.332-159.15v-27.025H675.82c0 3.294-.006 6.268.001 9.241.057 23.828-.139 47.661.299 71.482.18 9.796 2.348 19.411 11.24 25.512 20.908 14.346 48.542 1.646 49.586-23.491 1.126-27.11.62-54.289.797-81.437.003-.434-.376-.87-.578-1.308H717.99v5.742c0 23.497.052 46.995-.052 70.491-.017 3.8-.4 7.667-1.202 11.376-1.192 5.513-4.588 8.032-9.865 8.063-5.437.032-8.707-2.247-10.047-7.796-.85-3.518-1.218-7.228-1.247-10.857-.127-16.33-.055-32.662-.055-49.994m51.956 21.009c.17 11.49-.123 23.012.638 34.464.793 11.918 5.075 22.218 17.6 26.526 8.593 2.955 17.392 2.793 26.045.18 6.59-1.991 11.17-6.421 13.782-12.813 3.623-8.864 3.44-18.128 3.189-27.74h-19.581c0 2.016.026 3.802-.005 5.588-.075 4.163.066 8.349-.327 12.483-.554 5.84-3.874 8.934-9.265 9.22-5.845.309-9.4-2.346-10.506-8.367-.657-3.58-.96-7.27-.993-10.915-.117-12.497-.104-24.996-.018-37.494.037-5.32.015-10.685.673-15.947.876-6.994 4.59-9.966 10.96-9.668 6.102.285 9.034 3.51 9.284 10.637.179 5.102.035 10.215.035 15.52H809.1c-.328-5.982-.38-11.627-.994-17.21-1.57-14.277-8.502-21.872-22.769-23.478-24.979-2.812-36.227 7.819-37.471 30.54-.318 5.816-.27 11.652-.389 18.474m49.372 142.697-19.954 97.678h19.098l4.538-24.698h18.658c1.287 7.294 2.481 14.495 3.894 21.652.236 1.195 1.376 3.11 2.175 3.15 5.57.277 11.16.146 16.683.146.061-1.041.154-1.388.09-1.703-7.04-35.057-14.07-70.116-21.259-105.142-.227-1.107-2.086-2.62-3.241-2.671-5.976-.27-11.97-.126-18.27-.126-.796 3.77-1.545 7.324-2.412 11.714m300.83 98.784c1.653.216 3.302.454 4.957.642 17.48 1.99 30.513-9.784 30.572-27.368.045-13.306-6.767-22.964-16.075-31.397-6.045-5.476-12.203-10.828-18.176-16.38-3.779-3.513-5.146-8.103-4.742-13.172.397-5 3.328-8.037 8.097-8.66 4.87-.634 8.336 1.409 9.844 6.374 1.095 3.601 1.602 7.381 2.433 11.379l16.34-3.285c.085-17.563-8.069-27.775-23.201-29.78-19.878-2.633-34.077 10.426-32.582 29.779.75 9.724 5.114 17.396 12.34 23.683 6.281 5.464 12.558 10.936 18.74 16.51 4.635 4.18 7.382 9.403 7.724 15.713.305 5.636-2.071 9.654-6.193 10.75-4.81 1.28-9.417-.94-11.875-5.937-.868-1.766-1.492-3.703-1.9-5.632-.645-3.053-1.014-6.165-1.584-9.782l-16.893 3.523c-1.119 16.531 6.742 28.448 22.175 33.04M582.99 374.5v43.482h46.2v-13.928h-25.61v-35.789h19.932V353.8h-19.928v-31.133h25.298v-13.889h-45.891zm471.525 29.653H1044.4v-35.848h19.71v-14.46h-19.827v-31.07h25.279v-13.96h-45.406v109.087h45.642v-13.749zM550.995 180.5v58.29H597.2v-13.684h-25.628v-36.202h20.013v-13.929h-20.103v-31.32h25.43v-14.222h-45.917zm267.832 41.999v16.397h45.959v-13.94H839.29v-35.747h19.808V174.84h-19.811v-31.165h25.325v-14.263h-45.785zM967.177 350.5v-27.06h17.556v-14.67h-55.706v14.673H947.1v94.34h20.077zm-90.614 53.64h-6.88v-95.282h-19.841v109.144h45.881v-13.861zm114.25-13.642v27.393h19.354v-109.08h-19.353zM923.177 359.5v-50.697H903.47v108.99h19.707zm-423.175-33.998v-16.714h-19.644V417.93h19.644z"/><path fill="#FFFEFE" d="M247.379 135.33c25.128-12.473 50.824-13.09 76.356-3.834 23.474 8.509 34.886 27.82 40.006 51.13 1.772 8.067 2.602 16.492 2.648 24.76.25 44.486.168 88.975.09 133.463-.025 14.64-2.517 28.846-9.12 42.064-13.136 26.298-35.32 37.783-63.88 38.58-13.779.385-27.338-.993-39.973-6.927-22.389-10.516-33.74-29.358-38.347-52.751-1.47-7.46-2.038-15.204-2.07-22.822-.188-43.987-.138-87.976-.064-131.964.022-13.76 2.187-27.18 7.531-39.96 5.55-13.27 13.97-24.142 26.823-31.738m48.831 236.762c5.596-2.002 9.507-6.019 10.824-11.571 1.789-7.547 3.571-15.323 3.635-23.015.345-42.162.364-84.33-.006-126.492-.073-8.37-1.69-16.885-3.76-25.037-2.156-8.488-8.235-12.05-17.35-11.977-9.133.072-15.033 3.823-17.336 12.117-1.635 5.888-3.037 12.071-3.077 18.132a11798 11798 0 0 0-.144 135.987c.032 6.546 1.19 13.343 3.226 19.567 3.585 10.962 11.784 14.947 23.988 12.29"/><path fill="#FFFEFF" d="M869 1076.168H618.609c-8.107 0-8.112-.002-8.112-7.866-.003-25.322-.01-50.645.005-75.967.003-6.216.279-6.497 6.477-6.497q135.191-.012 270.382 0c6.045 0 6.468.436 6.47 6.613.014 25.822-.08 51.645.083 77.466.03 4.809-1.643 6.567-6.426 6.324-5.982-.305-11.99-.073-18.488-.073M610.496 821.064c.12-14.307-1.414-12.194 11.595-12.203 87.963-.056 175.925-.03 263.887-.029 7.854 0 7.858.003 7.859 7.622.002 25.323.007 50.645-.005 75.968-.002 6.224-.353 6.575-6.48 6.575q-135.19.008-270.383.001c-6.236 0-6.465-.221-6.468-6.476-.012-23.656-.005-47.313-.005-71.458"/><path fill="#FFFDFE" d="M1007.489 872c0-20.157-.042-39.814.072-59.47.01-1.783 1.028-3.56 1.577-5.34 1.648.908 3.616 1.496 4.896 2.773 42.696 42.584 85.3 85.259 128.014 127.824 3.348 3.336 3.48 5.655.064 9.059-42.718 42.562-85.321 85.238-128.01 127.83-1.3 1.297-3.193 2-4.81 2.981-.601-1.92-1.725-3.84-1.727-5.76-.091-66.466-.076-132.932-.076-199.897"/><path fill="#FFFEFE" d="M478.574 821.574c4.493-4.49 8.684-8.783 13.024-12.92.834-.796 2.489-1.597 3.337-1.273.896.341 1.497 1.964 1.825 3.139.303 1.083.078 2.315.078 3.48v256.914c0 1.167.237 2.404-.077 3.48-.337 1.155-.97 2.536-1.906 3.09-.592.35-2.058-.497-2.974-1.063-.828-.511-1.441-1.37-2.148-2.077q-63.442-63.44-126.882-126.884c-4.658-4.659-4.67-5.49-.097-10.062 38.521-38.527 77.046-77.05 115.82-115.824"/><path fill="#FFFEFF" d="M780 687H624.04c-1.167 0-2.37.178-3.49-.05-1.208-.246-3.26-.78-3.316-1.35-.124-1.255.668-2.665 1.297-3.905.359-.708 1.128-1.208 1.717-1.797q63.269-63.27 126.541-126.538c5.012-5.01 5.734-4.996 10.81.08l126.183 126.189c.942.942 2.112 1.753 2.766 2.866 1.354 2.301 1.235 4.227-2.071 4.48-1.16.088-2.332.025-3.498.025z"/><path fill="#FFF" d="M797.924 1290.924c-13.794 13.795-27.333 27.343-40.883 40.882-4.566 4.562-5.249 4.578-9.645.182-42.52-42.514-85.045-85.022-127.493-127.607-1.34-1.345-1.86-3.507-2.763-5.289 1.84-.42 3.68-1.205 5.52-1.206 86.278-.06 172.556-.063 258.833.02 1.898.001 3.795 1.076 5.692 1.65-1.052 1.752-1.8 3.806-3.2 5.212-28.559 28.68-57.192 57.285-86.06 86.156"/><path fill="#FFFEFE" d="M170.987 416.506h-40.881V186.95L88.164 201.99c0-13.147-.123-25.627.164-38.098.034-1.46 2.05-3.477 3.623-4.208 15.555-7.22 31.138-14.455 44.449-25.452 4.295-3.548 8.426-5 13.871-4.84 11.447.338 22.91.103 34.544.103v287.012z"/><path fill="#FEFCFD" d="M690.091 439.868c-6.506-5.758-12.598-11.57-18.788-17.277-1.22-1.123-2.795-2.592-4.24-2.629-18.2-.466-30.36-7.207-31.35-32.514-.663-16.956-.528-33.99.239-50.944 1.072-23.714 15.374-30.613 35.418-29.122 17.202 1.28 25.718 9.308 26.927 28.097 1.237 19.213.441 38.596-.236 57.878-.342 9.724-4.86 17.907-15.56 24 3.18 2.423 5.717 4.587 8.485 6.4 3.037 1.99 3.556 4.309 2.178 7.58-1.15 2.73-1.814 5.667-3.073 8.53m-12.1-107.97c-1.934-7.508-5.03-10.112-11.558-9.723-6.37.38-9.387 3.674-10.231 11.26-.166 1.487-.195 2.995-.196 4.492-.013 17-.055 34 .038 50.999.015 2.803.425 5.65 1.033 8.394.926 4.178 3.701 6.473 7.99 7.104 7.8 1.148 12.844-2.72 12.96-11.215.273-20.148.056-40.303-.037-61.31"/><path fill="#FEF9FB" d="M517.944 226.232c-2.692-10.363-5.32-20.322-7.926-30.287-1.945-7.438-1.932-7.442-10.063-6.254v49.134h-20.161V128.638c12.93.572 25.634.22 38.057 1.918 15.082 2.063 21.59 10.683 21.81 27.357.134 10.234-.9 20.48-11.354 26.565-.839.488-.967 3.197-.575 4.644 4.132 15.23 8.442 30.412 12.684 45.612.345 1.235.55 2.508.9 4.135H521.31c-1.064-3.956-2.178-8.096-3.366-12.637M506.12 143.19h-5.95v32.604c13.236 1.314 18.862-2.176 20.08-12.219 1.616-13.326-1.814-18.575-14.13-20.385"/><path fill="#FEFBFC" d="M605.178 131.43c1.006-1.066 2.002-2.204 2.981-2.19 11.315.173 22.676-.04 33.926.964 13.599 1.212 22.234 9.701 22.783 23.464.79 19.766.833 39.61.035 59.374-.612 15.147-8.818 23.82-23.846 25.351-11.659 1.187-23.535.237-35.896.237 0-35.535 0-71.137.017-107.2m39.995 59.07c0-4.499.02-8.997-.005-13.496-.04-6.996.026-13.997-.211-20.987-.239-7.04-2.919-10.809-8.601-11.68-3.374-.517-6.893-.094-10.609-.094v80.313c14.31 1.902 18.944-1.88 19.25-15.568.129-5.828.121-11.659.176-18.488"/><path fill="#FFFDFD" d="M890.994 129.157c6.146.262 11.816.288 17.436.833 14.134 1.37 23.1 8.31 23.913 22.268 1.226 21.039 1.198 42.275-.21 63.3-.953 14.234-8.79 21.302-22.923 22.739-11.803 1.2-23.825.246-35.983.246V129.157zm22.011 56.343c-.235-10.793-.35-21.59-.768-32.375-.161-4.163-2.371-7.475-6.644-8.318-3.934-.776-8.016-.801-12.106-1.164v81.166c1.464.076 2.61.184 3.756.188 11.508.047 15.24-3.475 15.563-15.055.217-7.81.143-15.628.2-24.442"/><path fill="#FEFBFC" d="M552.19 366.547c.65-.79 1.561-1.903 1.568-3.021.092-16.319.063-32.638.063-48.957v-5.763h16.381V418.17c-3.794 0-7.468.359-11.006-.175-1.426-.216-3.09-2.16-3.742-3.7-7.517-17.746-14.859-35.565-22.258-53.36-.605-1.455-1.294-2.875-2.777-4.127v60.95h-17.197V308.49c3.995 0 7.855-.403 11.554.191 1.56.25 3.332 2.362 4.071 4.04 7.836 17.786 15.483 35.655 23.343 53.827"/><path fill="#FEF9FB" d="M770.854 316.132c0 22.642.053 44.803-.047 66.964-.019 4.314-.248 8.697-1.042 12.924-3.017 16.048-10.838 24.63-32.312 23.614-19.816-.939-28.277-11.31-28.426-33.406-.168-24.827-.04-49.655-.033-74.482 0-.825.082-1.65.147-2.872h19.388c0 2.068-.008 4.005 0 5.942.11 24.988.182 49.977.386 74.965.021 2.623.512 5.34 1.326 7.839 1.52 4.665 5.09 6.865 9.931 6.793 4.675-.069 8.237-2.35 9.305-6.871 1.06-4.485 1.568-9.194 1.6-13.81.153-22.993.07-45.988.07-68.983v-5.87h19.707z"/><path fill="#FEFAFC" d="M695.522 157c0 16.832-.072 33.164.055 49.494.029 3.629.397 7.339 1.247 10.857 1.34 5.549 4.61 7.828 10.047 7.796 5.277-.03 8.673-2.55 9.865-8.063.803-3.709 1.185-7.576 1.202-11.376.104-23.496.052-46.994.052-70.491v-5.742h19.175c.202.438.58.874.578 1.308-.177 27.148.329 54.327-.797 81.437-1.044 25.137-28.678 37.837-49.586 23.491-8.892-6.1-11.06-15.716-11.24-25.512-.438-23.82-.242-47.654-.299-71.482-.007-2.973 0-5.947 0-9.241h19.7zM747.478 177.011c.12-6.324.07-12.16.389-17.976 1.244-22.721 12.492-33.352 37.471-30.54 14.267 1.606 21.199 9.2 22.77 23.478.613 5.583.665 11.228.993 17.21H788.99c0-5.305.144-10.418-.035-15.52-.25-7.127-3.182-10.352-9.284-10.637-6.37-.298-10.084 2.674-10.96 9.668-.658 5.262-.636 10.626-.673 15.947-.086 12.498-.1 24.997.018 37.494.034 3.645.336 7.334.993 10.915 1.105 6.021 4.661 8.676 10.506 8.366 5.39-.285 8.71-3.379 9.265-9.219.393-4.134.252-8.32.327-12.483.031-1.786.005-3.572.005-5.587h19.581c.25 9.61.434 18.875-3.189 27.74-2.612 6.39-7.192 10.82-13.782 12.811-8.653 2.614-17.452 2.776-26.046-.18-12.524-4.307-16.806-14.607-17.599-26.525-.76-11.452-.468-22.973-.638-34.962"/><path fill="#FEFCFD" d="M796.908 319.788c.809-3.972 1.558-7.526 2.354-11.296 6.3 0 12.294-.144 18.27.126 1.155.052 3.014 1.564 3.241 2.671 7.19 35.026 14.218 70.085 21.26 105.142.063.315-.03.662-.091 1.703-5.522 0-11.113.13-16.683-.146-.8-.04-1.939-1.955-2.175-3.15-1.413-7.157-2.607-14.358-3.894-21.652h-18.658l-4.538 24.698h-19.098c6.677-32.687 13.315-65.183 20.012-98.096m8.126 44.73-2.206 14.943h14.15l-6.769-40.95-.865.15c-1.399 8.33-2.798 16.659-4.31 25.858"/><path fill="#FEFBFC" d="M1097.267 418.933c-15.02-4.535-22.88-16.452-21.761-32.983 5.474-1.141 11.082-2.31 16.893-3.523.57 3.617.939 6.729 1.584 9.782.408 1.929 1.032 3.866 1.9 5.632 2.458 4.996 7.064 7.216 11.875 5.937 4.122-1.096 6.498-5.114 6.193-10.75-.342-6.31-3.089-11.533-7.724-15.713-6.182-5.574-12.459-11.046-18.74-16.51-7.226-6.287-11.59-13.959-12.34-23.683-1.495-19.353 12.704-32.412 32.582-29.778 15.132 2.004 23.286 12.216 23.202 29.78l-16.341 3.284c-.831-3.998-1.338-7.778-2.433-11.38-1.508-4.964-4.974-7.007-9.844-6.372-4.769.622-7.7 3.66-8.097 8.659-.404 5.07.963 9.659 4.742 13.172 5.973 5.552 12.131 10.904 18.176 16.38 9.308 8.433 16.12 18.09 16.075 31.397-.059 17.584-13.091 29.358-30.572 27.368-1.655-.188-3.304-.426-5.37-.7M582.992 374v-65.223h45.89v13.89h-25.297v31.132h19.928v14.466h-19.932v35.79h25.61v13.927h-46.2zM1055.014 404.153h14.783v13.749h-45.642V308.815h45.406v13.96h-25.28v31.07h19.827v14.46h-19.71v35.848z"/><path fill="#FFFDFD" d="M550.995 180v-50.567h45.916v14.222h-25.429v31.32h20.103v13.93h-20.013v36.201H597.2v13.684h-46.205z"/><path fill="#FFFDFE" d="M818.827 221.999v-92.587h45.785v14.263h-25.325v31.165h19.81v14.37H839.29v35.746h25.496v13.94h-45.959z"/><path fill="#FEFBFC" d="M967.177 351v66.783H947.1v-94.34h-18.073v-14.672h55.706v14.669h-17.556z"/><path fill="#FEF7FA" d="M877.057 404.14h18.666v13.862h-45.881V308.858h19.842v95.283z"/><path fill="#FEF8FB" d="M990.814 389.999v-81.188h19.353v109.081h-19.353z"/><path fill="#FEFBFC" d="M923.177 360v57.793H903.47v-108.99h19.707z"/><path fill="#FFFEFE" d="M500.002 326.002v91.928h-19.644V308.788h19.644z"/><path fill="#DD1568" d="M295.819 372.214c-11.813 2.537-20.012-1.448-23.597-12.41-2.036-6.224-3.194-13.021-3.226-19.567-.222-45.328-.157-90.66.144-135.987.04-6.06 1.442-12.244 3.077-18.132 2.303-8.294 8.203-12.045 17.335-12.117 9.116-.072 15.195 3.49 17.35 11.977 2.071 8.152 3.688 16.667 3.761 25.037.37 42.162.351 84.33.006 126.492-.064 7.692-1.846 15.468-3.635 23.015-1.317 5.552-5.228 9.57-11.215 11.692"/><path fill="#DE186A" d="M678.028 332.325c.055 20.58.272 40.735-.002 60.883-.115 8.494-5.16 12.363-12.96 11.215-4.288-.631-7.063-2.926-7.989-7.104-.608-2.743-1.018-5.59-1.033-8.394-.093-17-.051-33.999-.038-50.999 0-1.497.03-3.005.196-4.491.844-7.587 3.86-10.88 10.23-11.26 6.529-.39 9.625 2.214 11.596 10.15M506.554 143.235c11.882 1.765 15.312 7.014 13.696 20.34-1.218 10.043-6.844 13.533-20.08 12.219V143.19c2.079 0 4.014 0 6.384.045"/><path fill="#DE1A6C" d="M645.173 191c-.055 6.33-.047 12.16-.177 17.988-.305 13.688-4.938 17.47-19.249 15.568v-80.313c3.716 0 7.235-.423 10.609.095 5.682.87 8.362 4.638 8.601 11.68.237 6.99.17 13.99.21 20.986.027 4.499.006 8.997.006 13.996"/><path fill="#DE186A" d="M913.005 186c-.056 8.314.018 16.132-.2 23.942-.322 11.58-4.054 15.102-15.562 15.055-1.146-.004-2.292-.112-3.756-.188v-81.166c4.09.363 8.172.388 12.106 1.164 4.273.843 6.483 4.155 6.644 8.318.418 10.785.533 21.582.768 32.875"/><path fill="#DE1A6C" d="M805.09 364.084c1.456-8.764 2.855-17.094 4.254-25.423l.865-.15 6.77 40.95h-14.15c.74-5.014 1.472-9.978 2.262-15.377"/></svg>