<svg xmlns="http://www.w3.org/2000/svg" xml:space="preserve" viewBox="0 0 1500 1500"><path fill="#FD9D24" d="M1 542V1h1500v1500H1zm517.998 727.5v77.483c.001 8.462 1.042 9.537 9.437 9.538q106.478.01 212.954 0c8.206 0 9.45-1.288 9.45-9.661V601.02c0-8.514-1.336-9.86-9.812-9.86q-105.976-.003-211.954 0c-8.95 0-10.074 1.119-10.074 9.984zm432.688-474.317c-55.482 70.38-110.954 140.77-166.476 211.119-2.757 3.493-4.492 6.922-4.487 11.676.136 110.15.104 220.298.108 330.447 0 8.212.912 9.1 9.264 9.1q106.233.004 212.467 0c9.007 0 9.607-.61 9.607-9.679v-436.93q-.002-86.236.004-172.473c0-3.592-.002-7.23-4.297-8.571-4.058-1.267-5.997 1.635-8.104 4.314-15.861 20.162-31.766 40.29-48.086 60.997m86.47 449.317c0 35.152-.004 70.304.005 105.456.001 7.052 1.424 8.556 8.44 8.558q109.953.03 219.908 0c6.97-.002 8.487-1.587 8.488-8.576q.012-110.705.001-221.409c0-7.42-1.285-8.696-8.751-8.697q-109.705-.009-219.41 0c-7.447.001-8.677 1.248-8.678 8.716-.005 38.317-.002 76.634-.002 115.952m-789.69-38c0 46.979-.006 93.957.008 140.936.003 7.4 1.341 8.725 8.763 8.73 21.824.02 43.647.013 65.47-.005 1.446-.001 2.89-.177 4.823-.304v-6.228c0-33.818-.01-67.636.007-101.454.004-8.49 1.148-9.638 9.384-9.64 20.324-.008 40.648-.013 60.972.002 7.552.006 8.567 1.049 8.57 8.767.009 34.151.003 68.302.003 102.453v5.917c1.184.232 1.818.464 2.452.465 23.99.022 47.978.063 71.967-.006 5.061-.014 6.928-2.094 6.931-7.628q.057-87.21.002-174.42c-.003-5.62-1.961-7.591-7.489-7.594q-112.2-.044-224.398 0c-5.78.002-7.407 1.688-7.443 7.523-.067 10.495-.02 20.99-.021 32.486M315.5 1146c54.796 0 109.592.042 164.387-.127 2.617-.008 6.561-1.227 7.47-3.073.934-1.893-.364-5.819-1.95-7.883-36.613-47.66-73.397-95.19-110.154-142.74-5.69-7.36-8.524-7.349-14.148.03-36.432 47.8-72.889 95.58-109.184 143.482-1.367 1.804-2.256 5.343-1.385 7.081.865 1.729 4.222 3.066 6.505 3.095 19.15.238 38.305.135 58.459.135m-65.67-795.5v65.712h54.86V129.507c-13.938 0-27.57-.031-41.201.063-1.02.007-2.223.705-3.02 1.433-11.839 10.826-25.705 18.749-40.345 24.507-10.236 4.025-13.322 9.44-12.162 19.764.968 8.62.198 17.436.198 26.755l41.67-14.974zm-64.988-115V130.277c-.9-.347-1.357-.675-1.816-.677-12.99-.057-25.982-.12-38.973-.05-1.19.006-2.626.615-3.527 1.416-13.24 11.774-28.82 19.73-44.832 26.722-5.94 2.595-8.146 5.448-7.72 12 .685 10.523.184 21.123.184 32.317l41.759-14.987v229.153h54.925zm934.658 811.498c-24.655 0-49.31-.009-73.965.006-5.965.003-7.029 1.017-7.047 6.937a7470 7470 0 0 0-.004 40.48c.014 6.211 1.144 7.406 7.21 7.407 73.797.02 147.596.018 221.394.003 6.244-.001 7.722-1.457 7.74-7.587.04-12.994.024-25.988.009-38.982-.009-7.224-1.08-8.263-8.406-8.263-48.644-.003-97.287-.001-146.931-.001M884.009 385.612l6.923 32.374h12.037l14.25-67.713 1.843.058v67.493h16.082l-1.884-109.047h-20.327l-15.685 73.606-.981-.134c-5.08-24.542-10.158-49.085-15.2-73.452h-20.822l-1.732 108.955h16.05v-69.671l1.435-.14c2.63 12.279 5.261 24.557 8.01 37.67m-53.537-35.856.941-1.456 1.221.177v69.362h15.652l-1.81-109.14h-20.334l-15.533 72.73c-1.691-2.058-2.172-3.948-2.567-5.856-4.346-21.012-8.641-42.036-13.094-63.026-.312-1.47-1.695-3.8-2.692-3.86-6.08-.36-12.192-.18-18.848-.18l-1.702 109.355H787.6v-70.348l1.478-.126 15.045 70.79c3.157 0 6.034.36 8.751-.144 1.471-.273 3.572-1.824 3.855-3.131 4.65-21.46 9.054-42.972 13.742-65.147m-279.957-41.3h-13.022v109.37c12.137 0 24.004.829 35.704-.214 13.89-1.238 22.65-9.357 23.367-23.085 1.099-21.065.935-42.252.091-63.338-.472-11.794-8.027-19.225-19.81-21.165-8.306-1.367-16.881-1.104-26.33-1.569m367.248-69.894c12.923-2.929 20.646-10.252 21.91-22.62.715-6.98.174-14.305-1.149-21.217-1.429-7.465-7.367-11.737-15.41-14.602 8.381-2.857 12.673-8.191 13.426-15.686a67.2 67.2 0 0 0-.382-16.354c-1.223-8.311-6.466-13.768-14.417-16.286-14.285-4.523-28.927-2.033-43.461-2.588v109.538c13.06 0 25.84 0 39.483-.185m-173.366 70.435c-3.103-.584-6.182-1.415-9.311-1.711-20.43-1.936-33.806 7.629-34.801 26.647-1.016 19.417-.805 38.953-.04 58.393.576 14.602 8.692 24.087 20.944 26.313 5.162.938 10.637 1.158 15.853.607 14.89-1.573 23.76-9.138 24.756-24.043 1.35-20.214 1.257-40.586.584-60.85-.374-11.28-5.321-20.991-17.985-25.356m312.421 7.587v50.28c-1.767-1.249-2.38-2.588-2.966-3.94-7.273-16.794-14.498-33.609-21.886-50.352-.701-1.59-2.281-3.7-3.686-3.895-3.869-.537-7.861-.185-11.864-.185v109.373h17.392V357.59c1.512 1.001 2.016 2.028 2.454 3.082 7.42 17.814 14.79 35.648 22.318 53.416.67 1.58 2.219 3.685 3.605 3.89 3.681.546 7.497.186 11.434.186V308.816h-16.801zm-551.563 82.72c2.191 5.21 4.25 10.483 6.662 15.588.641 1.358 2.268 2.96 3.615 3.136 3.414.447 6.927.148 10.54.148V308.766h-16.428v58.193c-1.436-1.052-2.053-2.188-2.565-3.37-7.396-17.081-14.73-34.19-22.244-51.22-.685-1.552-2.369-3.512-3.812-3.718-3.713-.528-7.55-.176-11.563-.176v109.422h17.187V357.65l1.24-.237c5.705 13.723 11.41 27.445 17.368 41.89M777.917 172.54c-5.686-13.126-11.315-26.277-17.134-39.343-.703-1.578-2.296-3.638-3.716-3.846-3.706-.543-7.544-.183-11.536-.183v109.7H762.3v-61.673c1.569 1.355 2.253 2.82 2.874 4.31 7.41 17.814 14.759 35.653 22.3 53.411.712 1.677 2.448 3.774 4.006 4.061 3.363.62 6.919.191 10.714.191V129.535H785.65v58.41l-.956.194c-2.182-4.957-4.363-9.915-6.777-15.599M986.991 351.5c0 10.497.165 20.998-.075 31.49a77.5 77.5 0 0 1-1.665 14.31c-1.036 4.856-4.723 7.121-9.593 7.095-4.812-.026-8.576-2.144-9.658-7.03-.999-4.515-1.708-9.192-1.742-13.804-.171-23.159-.073-46.32-.09-69.48-.002-1.748-.169-3.496-.257-5.21h-19.09c0 8.887-.019 17.368.004 25.848.049 18.66-.25 37.33.292 55.976.473 16.225 7.966 25.899 21.136 28.086 5.178.86 10.642.928 15.871.376 13.1-1.385 20.053-7.93 22.856-20.716.532-2.429 1.04-4.926 1.058-7.396.204-26.817.313-53.636.415-80.454.002-.601-.38-1.204-.586-1.82H986.99zm-460.455-186v-35.938h-19.543v5.884c0 23.332.058 46.665-.056 69.997-.02 3.965-.438 8-1.276 11.872-1.13 5.216-4.542 7.724-9.556 7.832-5.486.117-8.774-2.157-10.253-7.56-.74-2.704-1.24-5.565-1.264-8.36-.212-24.658-.287-49.318-.421-73.977-.01-1.92-.163-3.84-.246-5.693h-19.098c0 4.888-.009 9.375.002 13.862.053 22.33-.143 44.666.288 66.99.187 9.634 2.133 19.405 11.052 25.036 11.397 7.196 23.914 6.895 35.954 1.802 10.593-4.481 13.379-14.527 13.846-24.776.697-15.3.428-30.645.57-46.97m145.058 235.43c-2.938 3.945-6.982 4.07-11.256 3.167-4.196-.887-5.966-3.984-6.59-7.851-.449-2.78-.843-5.606-.857-8.413a4852 4852 0 0 1 .004-49.498c.016-2.97.316-6.001.972-8.894.991-4.37 4.004-6.72 8.484-7.204 7.047-.762 11.003 2.932 11.405 11.098.241 4.91.044 9.841.044 14.83h19.37c0-4.68.1-8.997-.018-13.31-.464-17.116-8.867-26.482-25.872-27.52-20.832-1.274-33.176 6.624-34.3 28.165a528 528 0 0 0 .094 56.899c1.072 19.144 14.145 29.035 33.366 27.335 10.77-.953 19.813-4.379 24.113-15.442 3.422-8.804 2.708-17.852 2.39-26.99H674.74c-.944 7.887-1.845 15.406-3.147 23.628m466.251-244.19c-1.374-18.273-8.207-26.84-24.026-28.361-23.312-2.243-34.768 6.854-36.11 25.881-1.4 19.866-1.042 39.938-.103 59.856.6 12.707 7.068 22.88 20.787 25.21 6.559 1.115 13.594.77 20.222-.208 8.594-1.266 14.724-6.868 16.682-15.28 1.922-8.258 2.33-16.868 3.442-25.64h-20.585c0 2.996.01 5.63-.003 8.264-.013 2.83.065 5.667-.093 8.49-.381 6.824-3.61 10.295-9.571 10.47-6.136.178-9.544-2.825-10.53-9.575-.456-3.117-.76-6.29-.742-9.435.1-17.638.025-35.286.634-52.91.263-7.637 4.475-10.89 11.147-10.465 6.14.392 8.949 3.787 9.124 11.31.115 4.909.022 9.824.022 14.736h19.705c0-4.101 0-7.753-.002-12.344m-313.95 1.48-16.415 80.558h19.08l4.532-24.647h18.637l4.475 24.711h18.81l-22.237-109.687c-5.999 0-11.644.133-17.278-.056-2.904-.097-4.072.92-4.586 3.806-1.458 8.188-3.242 16.319-5.018 25.314m-122.796 44.006c-4.65-22.977-9.257-45.963-14.049-68.91-.32-1.533-1.964-3.887-3.116-3.962-6.107-.397-12.252-.186-18.624-.186l-22.276 109.535c1.036.183 1.825.438 2.616.443 5.31.036 10.62.019 16.334.019.717-3.82 1.46-7.36 2.037-10.929 2.404-14.852 2.384-14.777 17.517-14.455 2.88.062 4.125.861 4.516 3.812.786 5.93 1.851 11.831 3.043 17.695.28 1.377 1.457 3.608 2.33 3.66 5.53.337 11.089.171 17.205.171-2.587-12.623-4.988-24.34-7.533-36.893M406.965 377.367l-8.216 40.488h19.037l4.54-24.63h18.618l4.437 24.564h18.403c.064-.718.174-1.064.111-1.375-7.037-34.869-14.107-69.73-21.097-104.609-.533-2.662-1.803-3.5-4.421-3.388-4.32.185-8.674.296-12.978-.028-3.636-.274-4.8 1.197-5.466 4.593-4.16 21.205-8.55 42.366-12.968 64.385m161.056-231.904 5.833 15.636 15.974-3.327c-.376-2.886-.566-5.044-.948-7.168-2.38-13.232-9.302-20.403-21.45-22.296-16.568-2.582-30.547 5.605-33.091 19.926-2.235 12.58.602 23.804 10.665 32.544 6.785 5.894 13.567 11.798 20.18 17.882 5.354 4.924 7.682 11.16 6.89 18.457-.634 5.84-5.472 9.058-11.114 7.458-4.321-1.225-6.632-4.44-7.73-8.438-1.13-4.118-1.733-8.38-2.623-12.863l-17.527 3.683c1.164 5.598 1.816 10.87 3.373 15.859 6.942 22.243 39.159 22.023 48.977 8.642 2.571-3.504 4.679-7.794 5.543-12.02 2.646-12.938-1.763-24.02-10.915-33.136-6.006-5.982-12.695-11.275-18.773-17.19-2.923-2.843-5.86-6.087-7.495-9.73-1.996-4.447-2.35-9.688 1.714-13.484 3.471-3.243 7.721-3.642 12.517-.435m681.9 179.257c-3.271 14.103-.516 26.33 10.915 36.033 6.595 5.599 13.114 11.303 19.43 17.213 5.281 4.943 7.66 11.2 6.739 18.5-.631 4.998-3.822 7.65-8.846 7.52-4.79-.123-8.346-3.002-10.053-8.876-1.18-4.059-1.713-8.306-2.581-12.705l-17.423 3.741c.94 4.991 1.375 9.645 2.716 14.021 6.3 20.564 34.342 27.02 48.85 11.06 3.067-3.373 5.33-8.198 6.216-12.699 2.793-14.173-2.768-25.76-12.997-35.313-6.2-5.789-12.689-11.266-18.982-16.956-4.434-4.009-6.883-8.922-6.23-15.062.545-5.135 3.27-7.95 8.169-8.516 4.902-.565 8.396 1.535 9.814 6.474.996 3.469 1.375 7.115 2.14 11.283l16.708-3.393c-1.26-18.302-7.855-27.065-21.588-29.392-15.34-2.6-27.28 3.322-32.997 17.067M454.145 158.703c1.185-.853 3.292-1.595 3.41-2.576 1.076-8.978-5.992-21.897-13.924-25.347-9.882-4.298-19.815-3.805-29.415.947-5.806 2.874-9.675 7.706-11.2 13.99-3.262 13.452-.825 25.425 9.937 34.962 6.851 6.071 13.799 12.039 20.506 18.265 4.88 4.53 7.169 10.293 6.763 17.035-.252 4.182-1.772 7.516-6.162 8.638-4.336 1.109-8.235-.224-10.452-3.952-1.815-3.053-2.672-6.726-3.644-10.21-.64-2.296-.73-4.744-1.084-7.241l-17.112 3.582c.39 11.486 2.264 22.176 12.292 28.807 10.026 6.63 21.143 6.754 31.934 1.786 7.38-3.398 11.663-9.703 13.113-17.775 2.61-14.523-3.013-26.052-13.307-35.717-5.577-5.238-11.484-10.124-17.194-15.222-4.598-4.106-8.172-8.746-7.938-15.402.203-5.787 3.053-9.207 8.495-9.912 4.653-.602 8.298 1.967 9.757 7.317.898 3.297 1.281 6.734 1.97 10.513 4.342-.81 8.394-1.566 13.255-2.488m898.124 2.102 13.739-2.994c-.22-14.718-6.223-24.816-16.622-28.168-8.216-2.649-16.46-2.32-24.415 1.022-7.763 3.262-12.466 9.193-14.051 17.507-2.601 13.648 1.452 24.884 12.052 33.899 6.591 5.605 13.126 11.297 19.388 17.262 4.8 4.573 7.06 10.467 6.473 17.163-.322 3.679-1.925 6.766-5.783 7.97-4.078 1.272-7.8.313-10.283-3.066-1.716-2.336-2.88-5.225-3.69-8.04-.903-3.14-1.125-6.475-1.697-10.065-5.1 1.015-10.01 1.812-14.795 3.085-1.031.275-2.37 2.332-2.276 3.46 1.707 20.473 12.154 32.82 35.073 30.306 13.125-1.439 21.903-11.167 22.77-24.331.886-13.449-4.966-23.827-14.402-32.588-5.974-5.548-12.26-10.758-18.304-16.232-4.276-3.873-6.692-8.66-6.248-14.602.384-5.131 3.302-8.323 8.384-8.973 4.858-.622 8.071 1.704 9.507 6.196.901 2.821 1.032 5.883 1.858 8.736.293 1.013 1.617 1.727 3.322 2.453m-124.706 243.347h-8.362c0-11.377-.09-22.159.163-32.932.022-.92 2.305-2.485 3.602-2.554 5.439-.288 10.902-.122 16.498-.122v-14.837h-19.969v-30.871h25.363v-14.064h-45.607V417.81h45.964v-13.658zM1039.53 180.635v-5.902h-20.25V143.72h25.303v-14.268H999.2v109.374h45.683v-13.691h-25.456V188.96h20.104zm242.274 44.293c-.267-7.744-.58-15.485-.782-23.23-.106-4.075-.018-8.155-.018-12.71h20.154v-14.1h-19.863v-31.125h25.172v-14.305h-45.263v109.363h45.674v-13.715c-8.232 0-16.18 0-25.074-.178m-159.295 83.508h-14.11v15.13c4.272 0 8.408.275 12.49-.076 4.354-.373 5.68 1.043 5.647 5.52-.204 27.639-.102 55.28-.102 82.921v6.03h20.506v-94.396h7.446c10.312-.004 10.094-.008 10.283-10.265.076-4.162-1.443-4.998-5.198-4.937-11.986.196-23.977.073-36.962.073M608.143 229.45v9.399h20.459v-94.698h17.296v-14.709h-55.549V144.3h17.794zm600.416-81.76c-.318-3.01 1.35-3.615 3.951-3.538 4.426.131 8.86.036 13.376.036v-14.753h-55.685v14.958h18.105v94.469h20.246c0-30.283 0-60.246.007-91.171M947.823 178.5v60.353h45.764v-13.828h-25.82v-95.583h-19.944zm198.613-38.946v99.397h19.757V129.423h-19.757zm21.562 190.947v87.267h19.809V308.782h-19.809zM721.604 129.153h-7.127v109.75h19.232v-109.75zm517.9 0h-9.248V238.8h19.133V129.153zm-154.233 179.932c-.149 1.14-.428 2.28-.428 3.422a92579 92579 0 0 0-.002 102.352c0 .95.18 1.9.28 2.887h19.496V308.642c-6.325 0-12.434 0-19.346.443"/><path fill="#FFFFFE" d="M518.998 1269V601.145c0-8.865 1.125-9.984 10.075-9.984q105.978-.003 211.954 0c8.476 0 9.812 1.346 9.812 9.86v745.839c0 8.373-1.244 9.66-9.45 9.661q-106.477.01-212.954 0c-8.395-.001-9.436-1.076-9.436-9.538-.002-25.828 0-51.655 0-77.983m193.784-571.851c-1.642-.994-3.272-2.827-4.928-2.851-15.305-.222-30.615-.037-45.921-.196-4.002-.042-5.178 1.551-5.15 5.333.122 16.971.16 33.945-.022 50.914-.047 4.366 1.442 5.795 5.795 5.733 14.805-.21 29.619-.236 44.423.01 4.712.078 5.985-1.657 5.934-6.126-.198-17.303-.087-34.608-.131-52.817m-154.948 7.414c0 15.138.134 30.278-.082 45.413-.063 4.452 1.115 6.209 5.881 6.123 14.8-.266 29.61-.217 44.413-.023 4.315.057 5.9-1.369 5.856-5.742q-.255-25.201.002-50.403c.044-4.302-1.37-5.903-5.759-5.839-13.638.2-27.28.075-40.921.072-10.395-.002-9.35-.71-9.39 10.4m155 519.97c0-2.328-.22-4.682.046-6.981.555-4.821-1.438-6.52-6.224-6.457-14.638.192-29.28.151-43.918.018-4.136-.038-6.025 1.197-5.977 5.702.184 16.967.17 33.938.005 50.905-.04 4.132 1.394 5.554 5.506 5.508 14.97-.166 29.946-.187 44.916.01 4.375.058 5.79-1.454 5.725-5.794-.213-13.971-.079-27.947-.079-42.91m-123.335 48.63c6.32 0 12.646-.18 18.956.061 4.228.161 5.469-1.62 5.436-5.62a3093 3093 0 0 1 .001-50.889c.035-4.154-1.656-5.614-5.635-5.588-14.966.095-29.935.104-44.901-.006-3.985-.03-5.631 1.342-5.59 5.538.167 17.127.156 34.258.005 51.386-.034 3.964 1.448 5.258 5.285 5.174 8.477-.186 16.961-.057 26.443-.056M703.376 1144c9.457-.001 9.457-.001 9.457-9.522 0-15.476-.128-30.954.08-46.426.06-4.493-1.29-6.208-5.963-6.136-14.806.228-29.62.211-44.428.006-4.394-.06-5.8 1.492-5.755 5.804.175 16.805.21 33.615-.017 50.419-.065 4.774 1.854 5.98 6.22 5.92 13.144-.182 26.292-.065 40.406-.065m-140.55-.002c15.145 0 30.29-.05 45.433.04 3.597.02 5.64-.935 5.615-5.032-.104-17.473-.067-34.947-.027-52.421.007-3.067-1.164-4.615-4.407-4.603-15.81.053-31.62.044-47.43.005-2.925-.007-4.2 1.24-4.19 4.206.05 17.807.054 35.614-.006 53.42-.01 2.915 1.163 4.369 5.013 4.385m94.01-295.498c.002 10.657.08 21.315-.04 31.97-.038 3.394 1.162 4.763 4.655 4.737 15.651-.112 31.304-.098 46.956-.008 3.23.019 4.462-1.265 4.45-4.438-.063-17.65-.05-35.3-.013-52.95.006-2.894-1.186-4.295-4.153-4.29-15.818.032-31.637.04-47.456-.01-3.16-.01-4.49 1.309-4.43 4.508.121 6.491.033 12.987.032 20.481m-61.34-24.979c-10.823.002-21.648.095-32.47-.045-3.824-.05-5.292 1.287-5.256 5.241.156 17.15.134 34.303.012 51.453-.025 3.57 1.029 5.086 4.825 5.05 15.485-.145 30.973-.123 46.458-.01 3.408.025 4.812-1.18 4.797-4.628-.077-17.484-.087-34.97.007-52.453.02-3.565-1.64-4.693-4.885-4.623-4.161.09-8.326.018-13.488.015m81.003 129.317c-4.83 0-9.668.177-14.486-.054-3.92-.189-5.269 1.329-5.237 5.227.141 17.151.127 34.305.009 51.457-.025 3.61 1.18 5.085 4.897 5.056a2720 2720 0 0 1 45.962.009c3.891.036 5.276-1.367 5.245-5.26-.138-16.984-.151-33.972.008-50.957.038-4.055-1.203-5.65-5.424-5.552-9.987.232-19.983.074-30.974.074M557.838 990.5c0 6.494.098 12.99-.038 19.48-.066 3.178 1.138 4.531 4.36 4.518 15.652-.065 31.304-.072 46.955.01 3.399.018 4.768-1.316 4.752-4.74-.082-17.317-.086-34.634.003-51.95.019-3.58-1.25-5.064-4.971-5.032-15.318.13-30.638.151-45.955-.014-3.962-.043-5.236 1.396-5.168 5.26.184 10.486.062 20.978.062 32.468"/><path fill="#FFFEFE" d="M951.901 794.898c16.106-20.422 32.01-40.55 47.872-60.712 2.107-2.68 4.046-5.58 8.104-4.314 4.295 1.34 4.297 4.979 4.297 8.571-.005 57.491-.003 114.982-.003 172.473v436.93c0 9.069-.601 9.68-9.608 9.68q-106.234.003-212.467-.001c-8.352 0-9.263-.888-9.264-9.1-.004-110.149.028-220.298-.108-330.447-.005-4.754 1.73-8.183 4.487-11.676 55.522-70.35 110.994-140.738 166.69-211.404m-142.059 235.976c0 2.499-.036 4.998.005 7.496.088 5.381 1.847 7.404 7.076 7.424 20.656.081 41.313.076 61.969.006 5.334-.018 7.223-1.916 7.234-7.278.057-29.652.116-59.305-.146-88.954-.02-2.254-2.095-5.708-4.001-6.383-1.885-.667-5.662.759-7.077 2.507-21.05 26.016-41.872 52.22-62.642 78.462-1.254 1.585-1.624 3.87-2.418 6.72m143.658 242.96c8.495 0 16.99.044 25.485-.016 5.755-.041 7.43-1.669 7.467-7.48a2880 2880 0 0 0-.002-36.979c-.037-5.672-1.803-7.334-7.629-7.345q-30.482-.056-60.964 0c-6.013.011-7.665 1.715-7.681 7.758a8427 8427 0 0 0-.004 35.98c.01 6.574 1.553 8.065 8.348 8.077 11.326.019 22.653.005 34.98.005m-67.503-6.812c0-12.662.045-25.325-.021-37.987-.026-5.03-1.938-6.992-6.96-7.007-20.826-.06-41.653-.021-62.479-.025-4.422-.001-6.78 1.85-6.736 6.612.117 12.828.105 25.658.004 38.486-.037 4.651 2.125 6.733 6.635 6.731 20.827-.007 41.653-.016 62.48.009 4.073.004 6.769-1.493 7.077-6.819m-23.498-145.19c5.33-.001 10.661.082 15.989-.027 5.594-.115 7.473-2.026 7.495-7.592.05-12.325.053-24.65-.002-36.975-.024-5.454-1.773-7.215-7.124-7.224q-30.979-.049-61.958 0c-5.67.01-7.033 1.41-7.05 7.114a9083 9083 0 0 0-.006 36.476c.009 6.721 1.439 8.197 8.186 8.215 14.49.04 28.98.013 44.47.013m81.001.002c11.826-.001 23.653.062 35.479-.032 5.449-.043 7.425-1.914 7.463-7.096a2390 2390 0 0 0-.006-37.977c-.043-5.16-1.788-6.708-7.1-6.717q-30.981-.046-61.963 0c-5.488.01-7.172 1.684-7.192 7.137-.045 12.325-.04 24.652-.003 36.978.018 5.88 1.783 7.634 7.837 7.688 8.16.072 16.323.019 25.485.02m22.997 24.164c-16.328 0-32.655.05-48.982-.033-4.304-.022-7.291 1.3-7.317 6.07-.071 13.162-.03 26.324-.02 39.485.002 4.092 2.203 6.256 6.167 6.268 21.325.066 42.651.06 63.976 0 3.715-.01 6.055-2.03 6.082-5.846.094-13.327.103-26.656.005-39.983-.03-4.022-2.349-6.013-6.418-5.969-4.165.046-8.33.01-13.493.008m-80.498 35.48c0-9.496-.038-18.992.016-28.487.025-4.417-1.789-6.985-6.45-6.986-21.157-.004-42.314 0-63.47-.005-4.356-.001-6.307 2.138-6.281 6.504.077 12.993.08 25.988-.001 38.98-.027 4.222 2.144 6.276 6.047 6.292 21.322.087 42.646.082 63.968.002 3.954-.015 6.128-2.253 6.16-6.316.024-2.998.01-5.997.011-9.985m24.17-245.963c.001 9.157.02 18.315-.005 27.472-.01 3.999 1.775 6.43 5.9 6.44 21.48.053 42.958.04 64.437.006 3.833-.006 5.904-2.125 5.92-5.915.055-13.32.063-26.64-.032-39.958-.025-3.498-1.943-5.675-5.595-5.681-21.645-.038-43.29-.05-64.935.02-3.86.013-5.66 2.365-5.68 6.134-.02 3.496-.008 6.993-.01 11.482m76.294 103.68c.003-12.655.058-25.31-.016-37.963-.034-5.704-1.563-7.21-7.075-7.218-20.813-.03-41.625.032-62.438-.046-4.586-.018-6.787 1.936-6.774 6.542.036 12.82.047 25.641-.007 38.461-.019 4.356 2.028 6.493 6.345 6.494 21.145.004 42.291-.01 63.437.013 3.695.004 6.072-1.45 6.528-6.284M965.12 827.626c-14.468 18.073-29.015 36.083-43.285 54.31-1.465 1.871-2.431 5.613-1.525 7.445.927 1.874 4.43 3.423 6.833 3.463 17.156.288 34.32.183 51.48.137 5.509-.015 7.508-2.014 7.518-7.543.04-21.992.117-43.985-.142-65.975-.026-2.163-1.879-5.637-3.558-6.11-2.096-.59-5.53.626-7.252 2.258-3.598 3.408-6.452 7.6-10.069 12.015"/><path fill="#FFFEFD" d="M1038.158 1244c0-38.818-.003-77.135.002-115.452.001-7.468 1.23-8.715 8.678-8.715q109.705-.01 219.41 0c7.466 0 8.75 1.277 8.751 8.696q.01 110.704 0 221.409c-.002 6.99-1.519 8.574-8.489 8.576q-109.955.03-219.909 0c-7.015-.002-8.438-1.506-8.44-8.558-.008-35.152-.003-70.304-.003-105.956m170.342-21.836c-9.981.001-19.962-.06-29.943.025-6.186.052-8.01 1.884-8.049 8.11a2635 2635 0 0 0 .003 35.93c.043 5.916 1.855 7.588 7.92 7.596 20.794.027 41.587.024 62.381.002 6.32-.006 7.99-1.656 8.012-7.953.04-11.81.036-23.621.001-35.432-.018-6.417-1.821-8.22-8.384-8.26-10.313-.062-20.627-.017-31.941-.018m-132.604.001c-7.033.473-8.05 1.51-8.057 8.36-.013 11.976-.023 23.952.005 35.928.013 5.775 1.573 7.36 7.41 7.369q31.437.048 62.874.001c6.018-.008 7.676-1.683 7.696-7.714.038-11.644.02-23.287.009-34.931-.008-7.419-1.575-8.996-9.13-9.005-19.961-.025-39.922-.009-60.807-.008m149.604-24.006c5.164 0 10.328.042 15.492-.012 6.068-.064 7.795-1.725 7.821-7.687.052-11.994.048-23.988.003-35.982-.024-6.045-1.645-7.624-7.73-7.63q-31.234-.028-62.47-.001c-6.76.006-8.048 1.304-8.076 8.295a4312 4312 0 0 0 0 34.483c.028 7.139 1.397 8.509 8.482 8.524 15.16.032 30.319.01 46.478.01m-116 0c9.493 0 18.987.037 28.48-.014 6.052-.033 7.815-1.75 7.836-7.642a4628 4628 0 0 0-.003-36.473c-.024-5.508-1.672-7.165-7.127-7.174a18339 18339 0 0 0-63.954.002c-5.72.01-6.869 1.267-6.883 7.233a8256 8256 0 0 0 0 36.473c.013 6.246 1.298 7.548 7.675 7.58 10.992.053 21.984.015 33.976.015M248.469 1206c0-10.995-.046-21.491.02-31.986.037-5.835 1.664-7.52 7.444-7.523q112.2-.044 224.398 0c5.528.003 7.486 1.973 7.49 7.593q.053 87.21-.003 174.42c-.003 5.535-1.87 7.615-6.93 7.63-23.99.068-47.979.027-71.968.005-.634 0-1.268-.233-2.452-.465v-5.917c0-34.15.006-68.302-.004-102.453-.002-7.718-1.017-8.76-8.57-8.767-20.323-.015-40.647-.01-60.971-.003-8.236.003-9.38 1.15-9.384 9.641-.017 33.818-.007 67.636-.007 101.454v6.228c-1.932.127-3.377.303-4.822.304-21.824.018-43.647.024-65.47.006-7.423-.006-8.761-1.33-8.764-8.731-.014-46.979-.007-93.957-.007-141.436"/><path fill="#FFFFFE" d="M315 1146c-19.654 0-38.808.103-57.959-.135-2.283-.029-5.64-1.366-6.505-3.095-.87-1.738.018-5.277 1.385-7.08 36.295-47.903 72.752-95.684 109.184-143.483 5.624-7.379 8.458-7.39 14.148-.03 36.757 47.55 73.541 95.08 110.154 142.74 1.586 2.064 2.884 5.99 1.95 7.883-.909 1.846-4.853 3.065-7.47 3.073-54.795.17-109.591.127-164.887.127M249.83 350V187.055l-41.67 14.974c0-9.319.77-18.134-.198-26.755-1.16-10.325 1.926-15.74 12.162-19.764 14.64-5.758 28.506-13.681 40.346-24.507.796-.728 2-1.426 3.019-1.433 13.631-.094 27.263-.063 41.201-.063v286.705h-54.86z"/><path fill="#FFFEFD" d="M184.842 236v180.171h-54.925V187.018l-41.76 14.987c0-11.194.502-21.794-.183-32.318-.426-6.55 1.78-9.404 7.72-11.999 16.011-6.992 31.592-14.948 44.832-26.722.901-.801 2.336-1.41 3.527-1.416 12.99-.07 25.982-.007 38.973.05.459.002.916.33 1.816.677z"/><path fill="#FFFEFE" d="M1120 1046.998c49.144 0 97.787-.002 146.43 0 7.328.001 8.398 1.04 8.407 8.264.015 12.994.03 25.988-.008 38.982-.019 6.13-1.497 7.586-7.741 7.587q-110.697.024-221.395-.003c-6.065-.001-7.195-1.196-7.21-7.406a7470 7470 0 0 1 .005-40.481c.018-5.92 1.082-6.934 7.047-6.937 24.655-.015 49.31-.006 74.465-.006"/><path fill="#FFFDFA" d="M883.95 385.194c-2.69-12.696-5.321-24.974-7.952-37.252l-1.435.139v69.671h-16.05l1.732-108.955h20.822c5.042 24.367 10.12 48.91 15.2 73.452l.98.134 15.686-73.606h20.327l1.884 109.047h-16.082v-67.493l-1.843-.058-14.25 67.713h-12.037c-2.295-10.73-4.609-21.552-6.983-32.792M830.357 350.092c-4.574 21.838-8.978 43.35-13.628 64.81-.283 1.307-2.384 2.858-3.855 3.131-2.717.505-5.594.144-8.751.144l-15.045-70.79-1.478.126v70.348h-15.895l1.702-109.355c6.656 0 12.768-.18 18.848.18.997.06 2.38 2.39 2.692 3.86 4.453 20.99 8.748 42.014 13.094 63.026.395 1.908.876 3.798 2.567 5.856l15.533-72.73h20.335l1.809 109.14h-15.652v-69.362l-1.22-.177c-.314.485-.628.97-1.056 1.793M551.01 308.455c8.953.464 17.528.2 25.834 1.568 11.783 1.94 19.338 9.371 19.81 21.165.844 21.086 1.008 42.273-.091 63.338-.717 13.728-9.476 21.847-23.367 23.085-11.7 1.043-23.567.214-35.704.214v-109.37zm6.532 60.045v35.094c15.431 1.457 19.303-1.934 19.43-16.44.13-14.653.161-29.307.146-43.96-.004-3.652-.178-7.324-.587-10.951-.609-5.39-4.003-8.323-9.205-8.93-3.066-.357-6.207-.065-9.784-.065z"/><path fill="#FFFEFD" d="M917.33 238.653c-13.21.092-25.99.092-39.051.092V129.207c14.534.555 29.176-1.935 43.461 2.588 7.95 2.518 13.194 7.975 14.417 16.286.79 5.365.924 10.96.382 16.354-.753 7.495-5.045 12.83-13.426 15.686 8.043 2.865 13.981 7.137 15.41 14.602 1.323 6.912 1.864 14.237 1.15 21.217-1.265 12.368-8.988 19.691-22.343 22.713m-18.28-14.11c17.458 1.625 22.385-2.824 21.95-19.822-.333-13.01-9.727-19.556-22.573-15.663 0 11.594 0 23.21.623 35.485m-.886-72.902v22.412c7.643-.374 15.593 1.771 19.397-6.09 3.085-6.376 3.931-13.98-.655-19.919-4.545-5.884-11.874-4.194-18.742-4.328z"/><path fill="#FFFDFB" d="M744.778 309.098c12.282 4.262 17.229 13.973 17.603 25.253.673 20.264.767 40.636-.584 60.85-.996 14.905-9.866 22.47-24.756 24.043-5.216.55-10.691.331-15.853-.607-12.252-2.226-20.368-11.71-20.943-26.313-.766-19.44-.977-38.976.039-58.393.995-19.018 14.372-28.583 34.8-26.647 3.13.296 6.21 1.127 9.694 1.814m-2.541 24.75c-.99-8.532-4.175-11.836-11.249-11.667-6.754.162-9.9 3.603-10.735 11.804-.118 1.155-.078 2.328-.078 3.492-.004 17.148-.034 34.295.032 51.442.01 2.475.26 4.996.783 7.413 1.259 5.813 4.726 8.403 10.67 8.292 5.483-.102 9.013-2.962 10.147-8.474.433-2.105.627-4.295.629-6.447.017-18.31-.036-36.622-.2-55.856"/><path fill="#FFFDFA" d="M1056.817 316.098v-7.282h16.801v109.349c-3.937 0-7.753.36-11.434-.186-1.386-.205-2.935-2.31-3.605-3.89-7.528-17.768-14.898-35.602-22.318-53.416-.438-1.054-.942-2.08-2.454-3.082v60.272h-17.392V308.49c4.003 0 7.995-.352 11.864.185 1.405.195 2.985 2.306 3.686 3.895 7.388 16.743 14.613 33.558 21.886 50.352.586 1.352 1.199 2.691 2.966 3.94z"/><path fill="#FFFCF8" d="M505.128 398.941a30821 30821 0 0 0-17.242-41.53l-1.24.238v60.248h-17.187V308.475c4.013 0 7.85-.352 11.563.176 1.443.206 3.127 2.166 3.812 3.718 7.513 17.03 14.848 34.139 22.244 51.22.512 1.182 1.129 2.318 2.565 3.37v-58.193h16.427v109.408c-3.612 0-7.125.299-10.54-.148-1.346-.176-2.973-1.778-3.614-3.136-2.412-5.105-4.47-10.378-6.788-15.949"/><path fill="#FFFDFA" d="M778.034 172.903c2.297 5.321 4.478 10.279 6.66 15.236l.956-.194v-58.41h16.544v109.633c-3.795 0-7.351.43-10.714-.19-1.558-.288-3.294-2.385-4.006-4.062-7.541-17.758-14.89-35.597-22.3-53.41-.62-1.492-1.305-2.956-2.874-4.31v61.672H745.53v-109.7c3.992 0 7.83-.36 11.536.183 1.42.208 3.013 2.268 3.716 3.846 5.819 13.066 11.448 26.217 17.25 39.706"/><path fill="#FFFDFB" d="M986.991 351v-42.228h18.876c.207.615.588 1.218.586 1.819-.102 26.818-.21 53.637-.415 80.454-.019 2.47-.526 4.967-1.058 7.396-2.803 12.785-9.757 19.331-22.856 20.716-5.23.552-10.693.484-15.87-.376-13.171-2.187-20.664-11.861-21.137-28.086-.543-18.646-.243-37.316-.292-55.976-.023-8.48-.004-16.961-.004-25.848h19.09c.088 1.714.255 3.462.257 5.21.017 23.16-.081 46.321.09 69.48.034 4.612.743 9.29 1.742 13.804 1.082 4.886 4.846 7.004 9.658 7.03 4.87.026 8.557-2.239 9.593-7.095a77.5 77.5 0 0 0 1.665-14.31c.24-10.492.075-20.993.075-31.99"/><path fill="#FFFEFC" d="M526.536 166c-.143 15.826.126 31.17-.571 46.47-.467 10.25-3.253 20.296-13.846 24.777-12.04 5.093-24.557 5.394-35.954-1.802-8.92-5.63-10.865-15.402-11.052-25.036-.431-22.324-.235-44.66-.288-66.99-.01-4.487-.002-8.974-.002-13.862h19.098c.083 1.853.235 3.773.246 5.693.134 24.66.209 49.319.42 73.978.025 2.794.524 5.655 1.265 8.359 1.479 5.403 4.767 7.677 10.253 7.56 5.014-.108 8.426-2.616 9.556-7.832.838-3.872 1.256-7.907 1.276-11.872.114-23.332.056-46.665.056-69.997v-5.884h19.543z"/><path fill="#FFFDFB" d="M671.794 400.58c1.101-7.87 2.002-15.39 2.946-23.277h18.202c.318 9.138 1.032 18.186-2.39 26.99-4.3 11.063-13.342 14.489-24.113 15.442-19.221 1.7-32.294-8.19-33.366-27.335a528 528 0 0 1-.094-56.899c1.124-21.54 13.468-29.44 34.3-28.166 17.005 1.04 25.408 10.405 25.872 27.521.118 4.313.018 8.63.018 13.31H673.8c0-4.989.197-9.92-.044-14.83-.402-8.166-4.358-11.86-11.405-11.098-4.48.485-7.493 2.835-8.484 7.204-.656 2.893-.956 5.923-.972 8.894a4852 4852 0 0 0-.004 49.498c.014 2.807.408 5.633.857 8.413.624 3.867 2.394 6.964 6.59 7.851 4.274.904 8.318.778 11.457-3.518"/><path fill="#FFFEFC" d="m1137.845 157.21.001 11.874h-19.705c0-4.912.093-9.827-.022-14.737-.175-7.522-2.983-10.917-9.124-11.309-6.672-.425-10.884 2.828-11.147 10.466-.609 17.623-.534 35.27-.634 52.909-.018 3.145.286 6.318.741 9.435.987 6.75 4.395 9.753 10.53 9.574 5.961-.174 9.19-3.645 9.572-10.47.158-2.822.08-5.658.093-8.489.012-2.634.003-5.268.003-8.264h20.585c-1.113 8.772-1.52 17.382-3.442 25.64-1.958 8.412-8.088 14.014-16.682 15.28-6.628.977-13.663 1.323-20.222.209-13.719-2.332-20.188-12.504-20.787-25.211-.94-19.918-1.296-39.99.104-59.856 1.34-19.027 12.797-28.124 36.11-25.881 15.818 1.522 22.65 10.088 24.026 28.83M823.954 157.798c1.716-8.574 3.5-16.705 4.958-24.893.514-2.886 1.682-3.903 4.586-3.806 5.634.189 11.28.056 17.278.056l22.238 109.687h-18.811c-1.489-8.22-2.96-16.352-4.475-24.71h-18.637l-4.531 24.646h-19.081c5.496-26.974 10.956-53.766 16.475-80.98m12.22 42.753h11.375l-6.737-41.453c-3.016 13.065-5.17 26.122-7.175 39.2-.098.64 1.11 1.479 2.537 2.253M701.17 202.644c2.473 12.135 4.874 23.851 7.46 36.474-6.115 0-11.675.166-17.204-.17-.873-.053-2.05-2.284-2.33-3.661-1.192-5.864-2.257-11.765-3.043-17.695-.391-2.95-1.635-3.75-4.516-3.812-15.133-.322-15.113-.397-17.517 14.455-.577 3.568-1.32 7.11-2.037 10.929-5.714 0-11.025.017-16.334-.019-.79-.005-1.58-.26-2.616-.443l22.276-109.535c6.372 0 12.517-.21 18.624.186 1.152.075 2.796 2.43 3.116 3.961 4.792 22.948 9.399 45.934 14.121 69.33m-20.542-17.775-4.288-25.329-.987.153-6.576 40.57h14.214c-.769-5.076-1.485-9.808-2.363-15.394M407.017 376.945c4.366-21.597 8.756-42.758 12.916-63.963.667-3.396 1.83-4.867 5.466-4.593 4.304.324 8.657.213 12.978.028 2.618-.112 3.888.726 4.421 3.388 6.99 34.878 14.06 69.74 21.097 104.609.063.31-.047.657-.11 1.375H445.38l-4.437-24.564h-18.619l-4.54 24.63H398.75c2.77-13.647 5.493-27.067 8.268-40.91m18.447-3.964-.8 6.48h14.095l-6.782-41.346-.84.066a7292 7292 0 0 1-5.673 34.8"/><path fill="#FFFDFB" d="M567.73 145.218c-4.505-2.962-8.755-2.563-12.226.68-4.064 3.796-3.71 9.037-1.714 13.483 1.635 3.644 4.572 6.888 7.495 9.732 6.078 5.914 12.767 11.207 18.773 17.19 9.152 9.115 13.56 20.197 10.915 33.134-.864 4.227-2.972 8.517-5.543 12.021-9.818 13.38-42.035 13.601-48.977-8.642-1.557-4.99-2.21-10.261-3.373-15.859l17.527-3.683c.89 4.482 1.493 8.745 2.624 12.863 1.097 3.998 3.408 7.213 7.73 8.438 5.641 1.6 10.48-1.617 11.113-7.458.792-7.297-1.536-13.533-6.89-18.457-6.613-6.084-13.395-11.988-20.18-17.882-10.063-8.74-12.9-19.964-10.665-32.544 2.544-14.321 16.523-22.508 33.092-19.926 12.147 1.893 19.069 9.064 21.449 22.296.382 2.124.572 4.282.948 7.168l-15.974 3.327c-2.103-5.636-3.968-10.636-6.124-15.88M1250.017 324.322c5.621-13.347 17.56-19.268 32.901-16.669 13.733 2.327 20.327 11.09 21.588 29.392l-16.708 3.393c-.765-4.168-1.144-7.814-2.14-11.283-1.418-4.939-4.912-7.04-9.814-6.474-4.9.565-7.624 3.38-8.17 8.516-.652 6.14 1.797 11.053 6.231 15.062 6.293 5.69 12.782 11.167 18.982 16.956 10.23 9.553 15.79 21.14 12.997 35.313-.886 4.5-3.15 9.326-6.216 12.7-14.508 15.96-42.55 9.503-48.85-11.061-1.34-4.376-1.776-9.03-2.716-14.02l17.423-3.742c.868 4.4 1.401 8.646 2.581 12.705 1.707 5.874 5.263 8.753 10.053 8.877 5.024.13 8.215-2.523 8.846-7.522.92-7.299-1.458-13.556-6.74-18.5-6.315-5.91-12.834-11.613-19.43-17.212-11.43-9.703-14.185-21.93-10.818-36.43M453.74 158.786a7588 7588 0 0 1-12.85 2.405c-.689-3.78-1.072-7.216-1.97-10.513-1.459-5.35-5.104-7.919-9.757-7.317-5.442.705-8.292 4.125-8.495 9.912-.234 6.656 3.34 11.296 7.938 15.402 5.71 5.098 11.617 9.984 17.194 15.222 10.294 9.665 15.917 21.194 13.307 35.717-1.45 8.072-5.732 14.377-13.113 17.775-10.79 4.968-21.908 4.843-31.934-1.786-10.028-6.631-11.902-17.32-12.292-28.807l17.112-3.582c.353 2.497.444 4.945 1.084 7.24.972 3.485 1.829 7.158 3.644 10.21 2.217 3.729 6.116 5.062 10.452 3.953 4.39-1.122 5.91-4.456 6.162-8.638.406-6.742-1.883-12.506-6.763-17.035-6.707-6.226-13.655-12.194-20.506-18.265-10.762-9.537-13.2-21.51-9.936-34.962 1.524-6.284 5.393-11.116 11.2-13.99 9.599-4.752 19.532-5.245 29.414-.947 7.932 3.45 15 16.37 13.923 25.347-.117.98-2.224 1.723-3.813 2.659M1351.843 160.867c-1.279-.788-2.603-1.502-2.896-2.515-.826-2.853-.957-5.915-1.858-8.736-1.436-4.492-4.649-6.818-9.507-6.196-5.082.65-8 3.842-8.384 8.973-.444 5.941 1.972 10.729 6.248 14.602 6.044 5.474 12.33 10.684 18.304 16.232 9.436 8.76 15.288 19.14 14.402 32.588-.867 13.164-9.645 22.892-22.77 24.331-22.92 2.514-33.366-9.833-35.073-30.306-.094-1.128 1.245-3.185 2.276-3.46 4.784-1.273 9.695-2.07 14.795-3.085.572 3.59.794 6.926 1.697 10.066.81 2.814 1.974 5.703 3.69 8.039 2.483 3.38 6.205 4.338 10.283 3.066 3.858-1.204 5.46-4.291 5.783-7.97.587-6.696-1.673-12.59-6.473-17.163-6.262-5.965-12.797-11.657-19.388-17.262-10.6-9.015-14.653-20.251-12.052-33.899 1.585-8.314 6.288-14.245 14.05-17.507 7.957-3.342 16.2-3.671 24.416-1.022 10.399 3.352 16.403 13.45 16.622 28.168-4.483.977-9.111 1.985-14.165 3.056M1228.055 404.152h17.16v13.658h-45.964V308.772h45.607v14.064h-25.363v30.871h19.97v14.837c-5.597 0-11.06-.166-16.5.122-1.296.07-3.579 1.635-3.6 2.554-.255 10.773-.164 21.555-.164 32.932z"/><path fill="#FFFEFD" d="M1039.531 181.093v7.868h-20.104v36.173h25.456v13.69H999.2V129.452h45.384v14.268h-25.302v31.014h20.25zM1282.277 225.017c8.421.089 16.37.089 24.602.089v13.715h-45.674V129.458h45.263v14.305h-25.172v31.125h19.863v14.1h-20.154c0 4.555-.088 8.635.018 12.71.202 7.745.515 15.486 1.254 23.319"/><path fill="#FFFBF5" d="M1123.008 308.436c12.487 0 24.478.123 36.464-.073 3.755-.061 5.274.775 5.198 4.937-.189 10.257.029 10.261-10.283 10.265h-7.446v94.396h-20.506v-6.03c0-27.64-.102-55.282.102-82.921.034-4.477-1.293-5.893-5.646-5.52-4.083.35-8.219.075-12.492.075v-15.13z"/><path fill="#FFFCF8" d="M608.143 228.959v-84.66H590.35v-14.856h55.549v14.71h-17.296v94.697h-20.459zM1208.556 148.173c-.004 30.444-.004 60.407-.004 90.69h-20.246v-94.47h-18.105v-14.957h55.685v14.753c-4.516 0-8.95.095-13.376-.036-2.602-.077-4.27.528-3.954 4.02"/><path fill="#FFFEFC" d="M947.823 178v-48.558h19.943v95.583h25.821v13.828h-45.764z"/><path fill="#FFFBF5" d="M1146.436 139.066v-9.643h19.757V238.95h-19.757z"/><path fill="#FFFFFE" d="M1167.998 330v-21.218h19.809v108.985h-19.809z"/><path fill="#FFFEFC" d="M722.083 129.153h11.626v109.75h-19.232v-109.75zM1239.987 129.153h9.402V238.8h-19.133V129.153z"/><path fill="#FFFDFB" d="M1085.673 308.863c6.51-.22 12.619-.22 18.944-.22v109.103h-19.496c-.1-.987-.28-1.937-.28-2.887-.016-34.118-.02-68.235.002-102.352 0-1.141.28-2.282.83-3.644"/><path fill="#FD9E26" d="M712.803 697.6c.024 17.758-.087 35.063.11 52.366.052 4.47-1.22 6.204-5.933 6.126-14.804-.246-29.618-.22-44.423-.01-4.353.062-5.842-1.367-5.795-5.733.183-16.97.144-33.943.022-50.914-.028-3.782 1.148-5.375 5.15-5.333 15.306.159 30.616-.026 45.92.196 1.657.024 3.287 1.857 4.95 3.303M557.835 704.075c.04-10.621-1.005-9.913 9.39-9.91 13.64.002 27.283.127 40.921-.073 4.39-.064 5.803 1.537 5.759 5.839q-.257 25.202-.002 50.403c.044 4.373-1.54 5.799-5.856 5.742-14.802-.194-29.612-.243-44.413.023-4.766.086-5.944-1.67-5.881-6.123.216-15.135.082-30.275.082-45.901M712.835 1225.03c0 14.468-.134 28.444.079 42.415.066 4.34-1.35 5.852-5.725 5.795-14.97-.198-29.945-.177-44.916-.01-4.112.045-5.546-1.377-5.506-5.51.166-16.966.18-33.937-.005-50.904-.048-4.505 1.84-5.74 5.977-5.702 14.638.133 29.28.174 43.918-.018 4.786-.063 6.78 1.636 6.224 6.457-.265 2.299-.046 4.653-.046 7.476M589 1273.165c-8.982 0-17.466-.13-25.943.056-3.837.084-5.32-1.21-5.285-5.174.15-17.128.162-34.259-.005-51.386-.041-4.196 1.605-5.568 5.59-5.538 14.966.11 29.935.101 44.901.006 3.98-.026 5.67 1.434 5.635 5.588a3093 3093 0 0 0 0 50.888c.032 4-1.21 5.782-5.437 5.621-6.31-.241-12.636-.062-19.456-.061"/><path fill="#FD9D25" d="M702.892 1144c-13.63 0-26.778-.117-39.921.065-4.367.06-6.286-1.146-6.221-5.92.227-16.804.192-33.614.017-50.42-.046-4.311 1.36-5.863 5.755-5.803 14.807.205 29.622.222 44.428-.006 4.674-.072 6.023 1.643 5.962 6.136-.207 15.472-.08 30.95-.08 46.426 0 9.521 0 9.521-9.94 9.522M562.361 1143.993c-3.384-.011-4.557-1.465-4.547-4.38.06-17.806.056-35.613.005-53.42-.008-2.966 1.266-4.213 4.191-4.206 15.81.039 31.62.048 47.43-.005 3.243-.012 4.414 1.536 4.407 4.603-.04 17.474-.077 34.948.027 52.421.025 4.097-2.018 5.052-5.615 5.031-15.144-.09-30.288-.038-45.898-.044M656.838 848c.001-6.994.09-13.49-.032-19.981-.06-3.2 1.27-4.518 4.43-4.508 15.819.05 31.638.042 47.456.01 2.967-.005 4.16 1.396 4.153 4.29-.037 17.65-.05 35.3.013 52.95.012 3.173-1.22 4.457-4.45 4.438-15.652-.09-31.305-.104-46.956.008-3.493.026-4.693-1.343-4.655-4.737.12-10.655.042-21.313.04-32.47M595.998 823.521c4.662.003 8.827.075 12.988-.015 3.246-.07 4.904 1.058 4.885 4.623a5365 5365 0 0 0-.007 52.453c.015 3.448-1.39 4.653-4.797 4.628-15.485-.113-30.973-.135-46.458.01-3.796.036-4.85-1.48-4.825-5.05.122-17.15.144-34.303-.012-51.453-.036-3.954 1.432-5.29 5.256-5.241 10.822.14 21.647.047 32.97.045M677 952.838c10.492 0 20.488.158 30.475-.074 4.221-.098 5.462 1.497 5.424 5.552-.16 16.985-.146 33.973-.008 50.958.031 3.892-1.354 5.295-5.245 5.259a2720 2720 0 0 0-45.962-.009c-3.717.029-4.922-1.446-4.897-5.056.118-17.152.132-34.306-.009-51.457-.032-3.898 1.316-5.416 5.237-5.227 4.818.231 9.656.054 14.986.054M557.838 990c0-10.99.122-21.482-.062-31.969-.068-3.863 1.206-5.302 5.168-5.259 15.317.165 30.637.143 45.955.014 3.722-.032 4.99 1.452 4.971 5.032-.089 17.316-.085 34.633-.003 51.95.016 3.424-1.353 4.758-4.752 4.74a5002 5002 0 0 0-46.955-.01c-3.222.013-4.426-1.34-4.36-4.518.136-6.49.039-12.986.038-19.98M809.848 1030.429c.788-2.405 1.158-4.69 2.412-6.275 20.77-26.242 41.591-52.446 62.642-78.462 1.415-1.748 5.192-3.174 7.077-2.507 1.906.675 3.981 4.129 4.001 6.383.262 29.65.203 59.302.146 88.954-.01 5.362-1.9 7.26-7.234 7.278-20.656.07-41.313.075-61.969-.006-5.23-.02-6.988-2.043-7.076-7.424-.04-2.498-.006-4.997.001-7.941"/><path fill="#FD9E26" d="M953 1273.834c-11.827 0-23.154.014-34.48-.005-6.795-.012-8.337-1.503-8.348-8.078-.02-11.993-.028-23.986.004-35.98.016-6.042 1.668-7.746 7.68-7.757q30.483-.056 60.965 0c5.826.011 7.592 1.673 7.629 7.345q.12 18.49.002 36.979c-.036 5.811-1.712 7.439-7.467 7.48-8.495.06-16.99.016-25.985.016"/><path fill="#FD9D25" d="M885.993 1267.47c-.304 4.878-3 6.375-7.074 6.37-20.826-.024-41.652-.015-62.479-.008-4.51.002-6.672-2.08-6.635-6.73.101-12.83.113-25.66-.004-38.487-.043-4.761 2.314-6.613 6.736-6.612 20.826.004 41.653-.035 62.479.025 5.022.015 6.934 1.976 6.96 7.007.066 12.662.021 25.325.017 38.435M862 1121.832c-14.99 0-29.48.027-43.97-.013-6.748-.018-8.178-1.494-8.187-8.215a9083 9083 0 0 1 .007-36.476c.016-5.703 1.38-7.104 7.05-7.114q30.978-.049 61.957 0c5.351.009 7.1 1.77 7.124 7.224.055 12.325.052 24.65.002 36.975-.022 5.566-1.901 7.477-7.495 7.592-5.328.11-10.66.026-16.489.027"/><path fill="#FD9E26" d="M943 1121.834c-8.662 0-16.824.053-24.985-.02-6.054-.053-7.82-1.806-7.837-7.687-.037-12.326-.042-24.653.003-36.978.02-5.453 1.704-7.127 7.192-7.136q30.982-.049 61.963 0c5.312.008 7.057 1.556 7.1 6.716.108 12.658.1 25.318.006 37.977-.038 5.182-2.014 7.053-7.463 7.096-11.826.094-23.653.031-35.979.032M966.995 1146c4.664 0 8.83.037 12.995-.009 4.07-.044 6.388 1.947 6.418 5.969.098 13.327.089 26.656-.005 39.983-.027 3.815-2.367 5.836-6.082 5.846-21.325.06-42.65.066-63.976 0-3.964-.012-6.165-2.176-6.168-6.268-.009-13.161-.05-26.323.02-39.485.027-4.77 3.014-6.092 7.318-6.07 16.327.084 32.654.034 49.48.033"/><path fill="#FD9D25" d="M886 1181.973c-.003 3.493.012 6.492-.012 9.49-.032 4.063-2.206 6.3-6.16 6.316-21.322.08-42.646.085-63.968-.002-3.903-.016-6.074-2.07-6.048-6.291q.12-19.49.002-38.981c-.026-4.366 1.925-6.505 6.28-6.504 21.157.006 42.314.001 63.47.005 4.662.001 6.476 2.569 6.45 6.986-.053 9.495-.015 18.99-.015 28.98M910.17 935.019c.001-3.993-.01-7.49.009-10.986.02-3.769 1.82-6.121 5.68-6.134 21.645-.07 43.29-.058 64.935-.02 3.652.006 5.57 2.183 5.595 5.68.095 13.32.087 26.64.032 39.959-.016 3.79-2.087 5.909-5.92 5.915-21.479.035-42.958.047-64.436-.006-4.126-.01-5.911-2.441-5.9-6.44.024-9.157.005-18.315.004-27.968M986.444 1039.66c-.437 4.369-2.814 5.822-6.51 5.818-21.145-.023-42.29-.009-63.436-.013-4.317-.001-6.364-2.138-6.345-6.494.054-12.82.043-25.64.007-38.461-.013-4.606 2.188-6.56 6.774-6.542 20.813.078 41.625.016 62.438.046 5.512.008 7.041 1.514 7.075 7.218.074 12.654.019 25.308-.003 38.429M965.35 827.354c3.388-4.142 6.242-8.335 9.84-11.743 1.723-1.632 5.156-2.849 7.252-2.258 1.679.473 3.532 3.947 3.558 6.11.259 21.99.182 43.983.142 65.975-.01 5.529-2.01 7.528-7.518 7.543-17.16.046-34.324.151-51.48-.137-2.403-.04-5.906-1.59-6.833-3.463-.906-1.832.06-5.574 1.525-7.444 14.27-18.228 28.817-36.238 43.514-54.583"/><path fill="#FD9E27" d="M1209 1222.164c10.814 0 21.128-.044 31.44.018 6.564.04 8.367 1.843 8.385 8.26.035 11.81.038 23.622-.001 35.432-.021 6.297-1.692 7.947-8.012 7.953-20.794.022-41.587.025-62.381-.002-6.065-.008-7.877-1.68-7.92-7.595a2635 2635 0 0 1-.003-35.931c.04-6.226 1.863-8.058 8.05-8.11 9.98-.085 19.961-.024 30.442-.025M1076.359 1222.165c20.422 0 40.383-.017 60.343.008 7.556.01 9.123 1.586 9.13 9.005.012 11.644.03 23.287-.008 34.93-.02 6.032-1.678 7.707-7.696 7.715q-31.437.047-62.875-.001c-5.836-.01-7.396-1.594-7.41-7.369-.027-11.976-.017-23.952-.004-35.928.007-6.85 1.024-7.887 8.52-8.36"/><path fill="#FD9D25" d="M1225 1198.16c-15.66 0-30.819.021-45.978-.011-7.085-.015-8.454-1.385-8.482-8.524a4312 4312 0 0 1 0-34.483c.028-6.991 1.316-8.29 8.077-8.295q31.234-.027 62.47.002c6.084.005 7.705 1.584 7.729 7.629.045 11.994.05 23.988-.003 35.982-.026 5.962-1.753 7.623-7.82 7.687-5.165.054-10.33.012-15.993.012M1109 1198.16c-11.492-.001-22.484.037-33.476-.017-6.377-.03-7.662-1.333-7.675-7.579q-.04-18.236 0-36.473c.014-5.966 1.163-7.223 6.883-7.233 21.318-.04 42.636-.036 63.954-.002 5.455.009 7.103 1.666 7.127 7.174.052 12.158.046 24.316.003 36.473-.021 5.893-1.784 7.609-7.837 7.642-9.492.05-18.986.014-28.979.014M557.543 368v-44.752c3.577 0 6.718-.292 9.784.066 5.202.606 8.596 3.54 9.205 8.929.41 3.627.583 7.299.587 10.95.015 14.654-.017 29.308-.145 43.96-.128 14.507-4 17.898-19.43 16.44z"/><path fill="#FD9E27" d="M898.738 224.213c-.311-11.945-.311-23.56-.311-35.155 12.846-3.893 22.24 2.654 22.573 15.663.435 16.998-4.492 21.447-22.262 19.492M898.164 151.164v-7.448c6.868.134 14.197-1.556 18.742 4.328 4.586 5.939 3.74 13.543.655 19.919-3.804 7.861-11.754 5.716-19.397 6.09zM742.302 334.308c.098 18.773.15 37.084.134 55.395-.002 2.152-.196 4.342-.63 6.447-1.133 5.512-4.663 8.372-10.146 8.474-5.944.11-9.411-2.479-10.67-8.292a36 36 0 0 1-.783-7.413c-.066-17.147-.036-34.294-.032-51.442 0-1.164-.04-2.337.078-3.492.835-8.201 3.981-11.642 10.735-11.804 7.074-.17 10.26 3.135 11.314 12.127"/><path fill="#FDA331" d="M835.76 200.537c-1.013-.76-2.221-1.6-2.123-2.238 2.005-13.08 4.16-26.136 7.175-39.2l6.737 41.452c-4.238 0-7.807 0-11.788-.014M680.709 185.296c.797 5.16 1.513 9.891 2.282 14.968h-14.214l6.576-40.57.987-.154c1.429 8.443 2.858 16.886 4.369 25.756M425.564 372.548c1.923-11.744 3.748-23.056 5.572-34.367l.841-.066 6.782 41.346h-14.095c.285-2.309.543-4.395.9-6.913"/></svg>