<svg xmlns="http://www.w3.org/2000/svg" xml:space="preserve" viewBox="0 0 1500 1500"><path fill="#BF8B2E" d="M1 550V1h1500v1500H1zm967.377-225.99c-4.554-11.26-13.592-15.368-25-15.5-9.33-.108-18.663-.04-27.995-.007-1.42.005-2.84.245-4.282.378v109.002h19.993v-48.115c5.53-.25 10.52-.355 15.49-.72 13.391-.982 22.284-8.928 23.385-22.212.622-7.5-.617-15.155-.192-23.239h18.175v94.245h20.237v-94.55h17.305v-14.398h-56.417c0 5.388 0 10.361-.699 15.116M650.21 1044.807c-30.283 8.442-60.587 16.813-90.82 25.428-3.246.925-7.512 2.546-8.8 5.106-2.154 4.278 2.802 6.497 5.46 8.96 9.01 8.355 18.202 16.512 27.382 24.797-.623.676-.89 1.113-1.277 1.36-1.824 1.165-3.654 2.326-5.53 3.402-38.67 22.173-80.08 25.83-122.267 14.755-55.762-14.638-93.015-50.09-107.667-106.427-8.573-32.962-7.132-66.743-1.096-100.178 4.718-26.131 13.76-50.768 31.766-70.637 39.793-43.912 90.492-57.785 147.673-49.322 38.618 5.716 71.077 24.599 98.444 52.286 19.998 20.232 36.91 42.884 52.367 66.69 19.981 30.775 36.237 63.596 53.273 96.01 21.28 40.486 47.266 77.621 80.59 109.3 25.478 24.221 54.428 43.073 86.432 57.612 44.284 20.118 90.46 29.324 138.622 21.626 79.649-12.732 135.331-57.285 163.815-132.708 23.558-62.38 23.82-126.698 4.966-190.405-17.493-59.113-54.403-103.06-110.905-128.67-74.403-33.726-148.467-32.785-220.907 6.404-38.607 20.885-68.993 51.37-96.26 85.233-2.66 3.304-1.896 6.239.056 9.59a4647 4647 0 0 1 28.368 49.351c4.204 7.422 8.22 7.78 13.307.825 16.273-22.251 34.111-43.067 55.099-61.09 29.14-25.023 62.837-39.892 100.823-44.463 19.35-2.328 38.58.695 57.402 5.451 58.524 14.789 96.422 50.615 110.088 110.051 8.753 38.065 8.28 76.402-.786 114.402-17.3 72.512-79.543 116.379-153.507 108.165-45.062-5.004-84.263-23.938-118.749-52.72-30.605-25.544-53.3-57.59-72.46-92.209-17.001-30.717-32.756-62.15-50.52-92.412-23.695-40.367-51.685-77.555-86.685-109.138-36.8-33.207-80.288-51.726-128.73-59.274-28.31-4.41-56.586-2.257-84.367 4.141-82.546 19.01-137.84 67.892-161.963 149.99-11.813 40.206-13.032 81.33-9 122.793 4.31 44.319 20.789 83.787 49.919 117.109 48.87 55.903 111.513 80.57 185.357 77.424 38.482-1.64 74.498-11.746 107.267-32.396 6.864-4.326 13.548-8.937 20.56-13.579 10.226 9.214 20.273 18.445 30.582 27.373 1.622 1.405 4.688 2.363 6.607 1.823 1.564-.44 3.142-3.307 3.47-5.303 7.604-46.15 15.051-92.326 22.491-138.503 1.52-9.432-1.065-11.721-10.193-9.177-12.98 3.618-25.952 7.263-39.697 11.154m-334.22-916.314c-10.592-.807-21.21-2.502-31.773-2.22-17.323.465-33.581 5.033-46.714 17.297-9.095 8.494-14.88 19.052-18.806 30.757-5.81 17.326-6.204 35.138-5.473 53.108h52.948c0-3.551-.108-6.71.02-9.858.465-11.465.477-23.023 5.747-33.665 4.036-8.151 12.269-12.527 21.928-11.716 8.802.739 14.592 5.665 17.25 14.887 2.646 9.182 2.134 18.461.367 27.7-2.917 15.248-11.186 28.04-19.37 40.76-25.395 39.477-51.01 78.812-76.502 118.226-1.058 1.635-2.453 3.5-2.484 5.278-.218 12.294-.115 24.593-.115 37.048h146.401V372.86h-84.522c3.9-5.868 7.315-10.98 10.703-16.108 21.749-32.915 43.925-65.558 65.086-98.847 14.312-22.516 19.335-47.481 15.386-74.16-4.237-28.63-21.882-48.572-50.076-55.252M127.83 364.5v51.646h54.744v-286c-.706-.248-1.167-.551-1.63-.553-12.993-.05-25.986-.105-38.979-.036-1.206.006-2.703.508-3.569 1.314-11.762 10.94-25.665 18.77-40.3 24.552-10.198 4.028-13.307 9.478-12.135 19.808.977 8.616.2 17.43.2 26.756l41.668-14.961zm698.853 53.68h11.843v-69.927l1.327-.07c.348 1.412.737 2.814 1.038 4.236 4.34 20.505 8.622 41.023 13.09 61.5.34 1.56 1.799 3.82 3.052 4.051 3.158.584 6.496.194 9.753.194l14.387-68.275 1.96.187v67.84h15.877c-.64-36.475-1.273-72.679-1.917-109.443-5.434 0-10.409.193-15.36-.065-3.577-.186-5.207.782-5.957 4.64-3.05 15.672-6.513 31.265-9.848 46.882-1.597 7.48-3.25 14.947-4.877 22.42l-.933-.121-15.206-73.459H824.57c-.25.594-.483.89-.487 1.19-.565 35.134-1.076 70.27-1.73 105.403-.055 2.922 1.477 2.823 4.33 2.817M968.154 208.5v30.677c10.012 0 19.316.025 28.618-.014 3.16-.014 6.357.077 9.473-.345 8.264-1.12 15.921-4.22 19.614-12.006 2.697-5.687 4.548-12.298 4.715-18.552.334-12.535-2.315-22.653-15.791-27.585-.125-.046-.099-.502-.185-1.023 10.172-3.484 12.388-11.915 12.882-21.377.79-15.099-5.616-25.326-19.561-27.44-12.858-1.949-26.062-1.612-39.765-2.315zm-355.004 357v31.552c11.919 0 23.386.531 34.784-.134 14.389-.84 24.053-9.555 24.74-23.949.981-20.571.88-41.247.06-61.832-.503-12.599-8.096-20.621-20.62-22.036-12.49-1.41-25.21-.782-37.83-1.018-.25-.005-.508.359-1.134.831zm308.999 8v23.59c11.766 0 23.067.493 34.308-.122 14.96-.818 24.64-9.572 25.312-24.487.921-20.416.802-40.928-.001-61.354-.494-12.565-8.11-20.543-20.63-22.05-11.67-1.406-23.568-.928-35.368-1.23-1.09-.029-2.188.291-3.621.498zm-122.62 8.989V548.31c8.124-1.653 8.23-1.614 10 5.116 3.508 13.344 6.935 26.71 10.555 40.024.405 1.488 1.767 3.789 2.801 3.854 5.91.372 11.856.18 18.375.18-.637-2.572-1.053-4.472-1.578-6.342-4.049-14.4-8.162-28.783-12.119-43.208-.424-1.546-.617-4.377.157-4.848 12.074-7.347 11.934-19.112 11.368-30.922-.59-12.316-7.13-21.083-19.206-22.735-13.227-1.81-26.736-1.555-40.41-2.214v109.968h20.057zm382.678-164.306h10.328v-95.407c0-15.686 0-15.686-15.702-14.08-.146.014-.28.138-1.116.576v56.63l-1.262.307c-.822-1.694-1.708-3.36-2.457-5.085-7.008-16.17-13.948-32.37-21.055-48.497-.704-1.598-2.252-3.745-3.647-3.94-3.868-.542-7.862-.188-11.779-.188v109.36h17.294v-60.215c1.68 1.48 2.456 3.065 3.133 4.692 7.149 17.194 14.229 34.416 21.504 51.557.713 1.681 2.596 2.866 4.76 4.29m-705.056-276.66v97.331h20.618v-49.281c8.31-.815 8.312-.816 10.132 6.2.376 1.447.726 2.901 1.106 4.348 3.408 12.965 6.82 25.928 10.18 38.704h20.122c-.491-2.014-.833-3.62-1.276-5.198-3.995-14.241-7.9-28.51-12.088-42.694-1.114-3.773-.977-5.912 2.726-8.565 3.232-2.316 5.889-6.551 6.99-10.45 1.504-5.331 1.962-11.179 1.691-16.748-.747-15.359-8.876-23.88-24.316-25.088-11.256-.88-22.6-.637-33.905-.847-.586-.011-1.181.428-1.98.739zM857.252 493.74c-2.468 4.813-6.895 9.556-7.07 14.45-.802 22.556-1.55 45.23-.054 67.71.953 14.31 9.478 20.968 23.838 22.556 21.384 2.363 35.946-4.938 37.298-28.062 1.144-19.554.374-39.26-.368-58.866-.322-8.517-4.314-15.954-11.947-20.902-8.691-5.635-32.306-6.355-41.697 3.114m229.92-74.384c24.143 2.622 36.8-8.044 37.634-32.249.447-12.972.267-25.971.152-38.956-.05-5.64-.202-11.349-1.096-16.9-1.866-11.586-7.646-20.39-19.887-22.792-5.46-1.072-11.297-1.36-16.822-.742-15.327 1.714-24.097 9.79-24.833 25.062-.976 20.248-1.025 40.62.028 60.86.802 15.426 9.691 23.652 24.824 25.717m135.125 81.543c-.96 3.177-2.715 6.345-2.751 9.533-.243 21.279-1.242 42.641.258 63.817 1.105 15.58 10.007 22.972 25.072 24.328 20.92 1.884 34.81-5.083 36.438-27.491 1.371-18.878 1.413-38.013.026-56.886-1.47-20.01-11.639-27.81-31.854-27.706-2.157.01-4.322.189-6.467.43-9.016 1.013-16.104 5.01-20.722 13.975m-637.04-81.983c13.183-3.375 20.888-10.913 21.538-24.662.956-20.243 1.188-40.61.08-60.835-.918-16.751-9.884-24.354-26.69-26.123-19.75-2.08-33.736 6.95-34.825 24.805-1.253 20.544-1.076 41.262-.059 61.832.761 15.39 9.937 23.665 25.212 25.374 4.565.51 9.261-.157 14.743-.391m148.755-278.343c-1.394 4.407-3.856 8.78-3.998 13.227-.602 18.96-.614 37.942-.595 56.915.003 3.437.876 6.953 1.832 10.294 2.968 10.373 9.695 16.986 20.473 18.73 4.395.71 8.988.887 13.425.516 16.25-1.36 25.82-9.95 26.613-26.25.97-19.925.933-39.967-.007-59.896-.73-15.457-9.745-24.154-24.936-25.699-12.39-1.26-24.529-.457-32.807 12.163m575.519 445.868v-49.824c1.953 1.394 2.676 2.85 3.3 4.348 7.274 17.498 14.502 35.015 21.855 52.48.636 1.51 1.945 3.676 3.161 3.833 3.85.496 7.806.183 11.717.183V488.238h-16.672v58.581c-1.396-1.238-2.137-2.635-2.764-4.082-7.334-16.93-14.61-33.887-22.042-50.773-.7-1.59-2.228-3.74-3.607-3.931-3.869-.538-7.861-.188-11.98-.188v109.317h17.032zM658.916 309.965v57.095c-1.754-1.088-2.427-2.33-2.987-3.622-7.336-16.932-14.614-33.89-22.051-50.78-.705-1.6-2.244-3.764-3.635-3.958-3.882-.544-7.891-.19-11.945-.19v109.315h16.956v-61.384c1.555 1.248 2.228 2.679 2.835 4.137 7.412 17.81 14.772 35.64 22.287 53.406.677 1.601 2.183 3.769 3.563 3.98 3.66.559 7.462.19 11.115.19V308.208c-5.596.319-10.7.61-16.138 1.758M601 490.7c-.623-.943-1.207-2.672-1.873-2.704-4.893-.232-9.802-.125-15.284-.125v58.168c-1.226-1-1.742-2.024-2.197-3.074-7.4-17.092-14.746-34.208-22.265-51.248-.68-1.54-2.334-3.5-3.757-3.7-3.706-.523-7.535-.176-11.465-.176v109.187h16.814v-61.15c1.54 1.37 2.334 2.912 2.998 4.509 7.347 17.654 14.618 35.34 22.096 52.938.707 1.666 2.507 3.701 4.087 3.99 3.352.614 6.893.188 10.85.188 0-35.629 0-70.73-.004-106.803m219.004-262.225v-51.377c1.364.847 1.796 1.727 2.172 2.63 7.661 18.421 15.288 36.856 23.024 55.246.648 1.538 1.884 3.799 3.08 3.958 3.839.51 7.787.19 11.522.19V129.393h-16.47v58c-1.773-1.356-2.511-2.788-3.151-4.264-7.28-16.777-14.518-33.573-21.864-50.322-.597-1.36-1.803-3.335-2.888-3.445-4.036-.412-8.14-.165-12.135-.165v109.586h16.71zm191.844 269.078v-9.315H992.15c0 20.708-.076 41.002.038 61.294.045 7.98.113 15.996.877 23.927 1.492 15.499 9.416 23.307 24.761 25.21 19.054 2.362 31.3-5.166 34.833-21.625.798-3.72 1.272-7.586 1.289-11.387.113-24.815.06-49.63.051-74.445 0-.96-.12-1.919-.194-3.016h-19.334v6.291c0 22.65.083 45.3-.069 67.95-.03 4.615-.538 9.316-1.553 13.814-1.112 4.931-5.182 7.608-9.893 7.478-4.677-.13-8.553-3.095-9.748-7.876-.68-2.722-1.15-5.574-1.167-8.37-.137-22.982-.146-45.964-.193-69.93m-220.027-178.02c0 21.16.09 42.322-.07 63.482-.036 4.618-.56 9.326-1.602 13.82-1.22 5.264-4.757 7.64-9.721 7.61-5.11-.032-8.892-2.754-10.003-8.036-.883-4.202-1.326-8.568-1.357-12.866-.138-19.327-.06-38.655-.06-57.983v-16.728H750.02c-.223.8-.467 1.268-.465 1.734.108 26.984-.3 53.986.54 80.948.622 19.901 12.807 29.73 32.68 28.27 11.687-.858 21.875-4.339 25.557-16.886 1.664-5.67 2.646-11.74 2.72-17.645.298-23.99.13-47.984.111-71.977 0-1.443-.183-2.886-.292-4.479h-19.05zm271.655 243.677c.197 2.99.276 5.993.61 8.967 1.586 14.165 9 23.62 21.252 25.613 6.122.995 12.61.774 18.804.031 6.869-.824 12.488-4.505 15.923-10.83 5.256-9.679 4.748-20.067 4.134-30.513h-19.378c0 6.112.315 11.932-.086 17.702-.432 6.22-3.903 9.42-9.414 9.633-5.714.221-9.179-2.517-10.388-8.552-.552-2.755-.871-5.604-.885-8.413-.08-16.492-.089-32.986.007-49.479.017-2.97.307-6.022 1.05-8.886 1.106-4.267 3.979-6.707 8.623-6.956 7.106-.382 10.677 2.451 11.093 9.663.312 5.408.062 10.848.062 16.36h20.517c-1.06-8.602-1.62-16.845-3.225-24.88-1.1-5.51-4.829-9.767-9.903-12.598-22.242-12.41-47.046.585-48.284 25.734-.761 15.456-.381 30.969-.512 47.404m-547.64-236.126c.635 6.908 1.27 13.817 1.926 20.937h19.435c-.482-6.827-.522-13.173-1.478-19.379-1.063-6.9-4.01-13.029-10.228-17.017-21.361-13.699-48.35-.563-49.406 24.565-.762 18.106-.64 36.286-.028 54.403.62 18.42 10.498 28.236 28.778 29.099 10.562.498 20.935-1.127 27.003-11.466 5.644-9.618 4.958-20.308 4.865-30.826h-19.796c0 6.046.263 11.704-.07 17.326-.37 6.235-3.65 9.447-9.182 9.819-6.043.406-9.465-2.222-10.716-8.662-.598-3.08-.873-6.268-.89-9.41a4897 4897 0 0 1-.01-46.96c.011-2.815.235-5.658.685-8.436.681-4.212 2.62-7.567 7.239-8.484 4.521-.898 8.644-.484 11.873 4.49m.155 256.584 2.439 13.53h18.79l-22.13-109.133h-21.254L471.681 597.16h19.081l4.534-24.882h18.598c.692 3.674 1.338 7.102 2.098 11.388M691.77 409.673c7.427 9.158 17.438 11.043 28.346 9.617 13.724-1.795 22.317-11.497 22.838-25.344.381-10.13-2.761-19.201-9.798-26.406-6.842-7.007-14.354-13.362-21.616-19.955-4.748-4.31-8.196-9.165-7.615-16.013.432-5.1 3.047-8.122 7.84-8.84 5.124-.766 8.64 1.312 10.189 6.546 1.018 3.443 1.45 7.059 2.244 11.103l16.501-3.261c-.017-17.458-8.07-28.023-23.112-29.667-18.152-1.984-33.388 7.058-32.683 28.452.344 10.466 4.907 18.394 12.484 25.063 6.619 5.826 13.29 11.6 19.719 17.63 4.895 4.592 7.295 10.575 6.082 17.157-.52 2.817-2.798 6.118-5.245 7.571-3.255 1.934-7.394.977-9.947-2.138-1.827-2.229-3.148-5.071-3.997-7.852-1.037-3.397-1.344-7.017-2.033-10.914l-17.026 3.572c.129 8.594 1.745 16.259 6.829 23.679m200.183-264.28c3.304-.448 7.131-2.184 9.811-1.096 7.133 2.896 5.404 10.583 7.191 16.979l16.897-3.484c-.385-2.983-.576-5.307-.998-7.588-2.379-12.847-9.312-19.94-21.292-21.874-16.94-2.735-31.224 5.997-33.39 20.764-1.8 12.261 1.048 23.108 10.814 31.567 7.043 6.1 14.051 12.256 20.822 18.655 4.836 4.57 6.984 10.416 6.384 17.155-.336 3.77-1.77 6.793-5.646 8-4.075 1.27-8.02.405-10.253-3.072-2.08-3.24-3.131-7.201-4.293-10.952-.703-2.268-.754-4.739-1.115-7.235l-17.08 3.58c.31 11.524 2.253 22.197 12.277 28.822 10.024 6.626 21.113 6.668 31.947 1.775 6.164-2.784 10.293-7.841 12.215-14.425 3.656-12.518.93-23.855-7.436-33.546-4.756-5.51-10.518-10.147-15.8-15.205-3.835-3.673-7.998-7.087-11.341-11.169-4.177-5.1-3.954-11.72.286-17.651M632.88 200.71c3.53 4.467 5.484 9.456 5.108 15.238-.272 4.187-1.913 7.506-6.197 8.667-4.066 1.102-7.838-.024-10.162-3.52-1.7-2.556-2.757-5.644-3.602-8.636-.829-2.934-1.026-6.045-1.534-9.287l-17.34 3.789c.312 2.79.514 4.928.794 7.055 2.73 20.733 19.532 31.388 39.655 25.083 8.377-2.625 14.193-8.141 16.438-16.636 3.676-13.91-.121-26.088-10.18-36.102-6.833-6.801-14.592-12.69-21.227-19.661-3.004-3.156-5.118-7.752-6.146-12.05-1.387-5.802 2.334-10.257 7.915-11.214 4.999-.857 9.052 2.022 10.428 7.716.77 3.186 1.115 6.474 1.722 10.137l16.441-3.337c.305-16.666-7.538-27.229-21.512-29.575-15.823-2.656-29.794 4.74-32.964 18.074-3.155 13.272-.285 25.084 10.295 34.44a2044 2044 0 0 1 22.068 19.82m52.124 2.802v-13.515c5.332 0 10.134.26 14.899-.05 12.624-.825 21.718-7.533 23.387-19.21 1.146-8.019.555-16.592-.948-24.6-1.628-8.673-8.107-14.75-16.838-15.667-13.3-1.398-26.76-1.255-40.305-1.772v110.086h19.805zM712.995 573.5v23.712h20.18v-48.703c4.29 0 8.066.086 11.837-.014 17.034-.452 26.187-8.704 27.677-25.175.327-3.618.22-7.35-.254-10.953-2.27-17.226-10.678-24.52-27.96-24.538-6.995-.007-13.99-.001-20.984-.001h-10.496zM568.541 160.498v-16.79h25.584v-14.222h-45.392v109.381h45.652v-13.894h-25.351v-35.977h19.626v-14.17h-20.119zm543.96 78.674h25.633V224.93h-25.604v-35.938h20.041v-14.03h-20.03v-31.254h25.24v-14.138h-45.48v109.603zm52.504 313.328v-49.825h17.548v-14.559h-55.66v14.988h18.024v94.108h20.088zm-125.86-384v70.283h46.371v-13.72h-26.215v-95.46h-20.155zm-83.304-24.99v-13.924h-19.715v109.162h19.715zm75.19 273.765 19.611 1.221V308.85h-19.774c0 35.976 0 71.72.164 108.424m161.736 180.247h14.667V488.144h-19.04c-.238.612-.454.91-.455 1.207-.048 34.943-.047 69.887-.169 104.83-.011 3.233 1.672 3.495 4.997 3.34"/><path fill="#FFFFFE" d="M650.593 1044.678c13.36-3.762 26.333-7.407 39.313-11.025 9.128-2.544 11.713-.255 10.193 9.177-7.44 46.177-14.887 92.353-22.49 138.503-.33 1.996-1.907 4.863-3.471 5.303-1.919.54-4.985-.418-6.607-1.823-10.309-8.928-20.356-18.16-30.581-27.373-7.013 4.642-13.697 9.253-20.561 13.579-32.769 20.65-68.785 30.755-107.267 32.396-73.844 3.147-136.486-21.521-185.357-77.424-29.13-33.322-45.609-72.79-49.919-117.11-4.032-41.461-2.813-82.586 9-122.792 24.123-82.098 79.417-130.98 161.963-149.99 27.781-6.398 56.058-8.551 84.366-4.14 48.443 7.547 91.932 26.066 128.73 59.273 35 31.583 62.991 68.771 86.687 109.138 17.763 30.262 33.518 61.695 50.52 92.412 19.16 34.619 41.854 66.665 72.46 92.21 34.485 28.781 73.686 47.715 118.748 52.719 73.964 8.214 136.207-35.653 153.507-108.165 9.065-38 9.54-76.337.786-114.402-13.666-59.436-51.564-95.262-110.088-110.05-18.823-4.757-38.052-7.78-57.402-5.452-37.986 4.571-71.683 19.44-100.823 44.463-20.988 18.023-38.826 38.839-55.1 61.09-5.086 6.955-9.102 6.597-13.306-.825a4647 4647 0 0 0-28.368-49.352c-1.952-3.35-2.716-6.285-.055-9.59 27.266-33.861 57.652-64.347 96.259-85.232 72.44-39.189 146.504-40.13 220.907-6.404 56.502 25.61 93.412 69.557 110.905 128.67 18.854 63.707 18.592 128.025-4.966 190.405-28.484 75.423-84.166 119.976-163.815 132.708-48.162 7.698-94.338-1.508-138.622-21.626-32.004-14.54-60.954-33.39-86.433-57.612-33.323-31.679-59.31-68.814-80.589-109.3-17.036-32.414-33.292-65.235-53.273-96.01-15.456-23.806-32.369-46.458-52.367-66.69-27.367-27.687-59.826-46.57-98.444-52.286-57.18-8.463-107.88 5.41-147.673 49.322-18.005 19.869-27.048 44.506-31.766 70.637-6.036 33.435-7.477 67.216 1.096 100.178 14.652 56.337 51.905 91.79 107.667 106.427 42.188 11.075 83.598 7.418 122.266-14.755 1.877-1.076 3.707-2.237 5.531-3.401.388-.248.654-.685 1.277-1.361-9.18-8.285-18.372-16.442-27.383-24.796-2.657-2.464-7.613-4.683-5.459-8.961 1.288-2.56 5.554-4.181 8.8-5.106 30.233-8.615 60.537-16.986 91.204-25.557"/><path fill="#FEFEFD" d="M316.385 128.619c27.799 6.554 45.444 26.497 49.681 55.126 3.95 26.679-1.074 51.644-15.386 74.16-21.161 33.289-43.337 65.932-65.086 98.847-3.388 5.129-6.803 10.24-10.703 16.108h84.522v43.235h-146.4c0-12.455-.104-24.754.114-37.048.031-1.779 1.426-3.643 2.484-5.278 25.492-39.414 51.107-78.75 76.502-118.225 8.184-12.722 16.453-25.513 19.37-40.762 1.767-9.238 2.279-18.517-.368-27.7-2.657-9.22-8.447-14.147-17.25-14.886-9.658-.811-17.89 3.565-21.927 11.716-5.27 10.642-5.282 22.2-5.747 33.665-.128 3.149-.02 6.307-.02 9.858h-52.948c-.731-17.97-.337-35.782 5.473-53.108 3.926-11.705 9.711-22.263 18.806-30.757 13.133-12.264 29.391-16.832 46.714-17.296 10.564-.283 21.18 1.412 32.17 2.345M127.83 364V187.026l-41.669 14.96c0-9.325.777-18.14-.2-26.755-1.172-10.33 1.937-15.78 12.135-19.808 14.635-5.781 28.538-13.611 40.3-24.552.866-.806 2.363-1.308 3.57-1.314 12.992-.069 25.985-.014 38.978.036.463.002.924.305 1.63.553v286H127.83z"/><path fill="#FEFCFA" d="M826.21 418.178c-2.38.008-3.912.107-3.857-2.815.654-35.133 1.165-70.269 1.73-105.403.004-.3.236-.596.487-1.19h20.34l15.207 73.459.933.122c1.628-7.474 3.28-14.941 4.877-22.421 3.335-15.617 6.797-31.21 9.848-46.883.75-3.857 2.38-4.825 5.958-4.639 4.95.258 9.925.065 15.359.065l1.917 109.444H883.13v-67.841l-1.96-.187-14.386 68.275c-3.257 0-6.595.39-9.753-.194-1.253-.231-2.711-2.49-3.052-4.05-4.468-20.478-8.75-40.996-13.09-61.501-.3-1.422-.69-2.824-1.038-4.236l-1.327.07v69.927c-4.609 0-8.226 0-12.315-.002"/><path fill="#FEFDFB" d="M968.155 208v-79.48c13.703.703 26.907.366 39.765 2.315 13.945 2.114 20.35 12.341 19.561 27.44-.494 9.462-2.71 17.893-12.882 21.377.086.52.06.977.185 1.023 13.476 4.932 16.125 15.05 15.791 27.585-.167 6.254-2.018 12.865-4.715 18.553-3.693 7.785-11.35 10.885-19.614 12.005-3.116.422-6.312.331-9.473.345-9.302.04-18.606.014-28.618.014zm20.57-18.719v35.463c3.763 0 7.09.29 10.348-.058 7.851-.835 11.41-5.081 12.02-13.823.908-12.964-2.17-19.982-10.09-21.665-3.81-.809-7.862-.477-12.278.083m-.206-32.779v17.544c7.42-.303 14.92 1.562 18.884-5.487 3.541-6.298 4.289-13.834.058-20.022-4.337-6.345-11.78-4.496-18.942-4.893z"/><path fill="#FEFCFA" d="M613.151 565v-76.086c.626-.472.883-.836 1.134-.831 12.62.236 25.34-.392 37.83 1.018 12.524 1.415 20.117 9.437 20.62 22.036.82 20.585.921 41.26-.06 61.832-.687 14.394-10.351 23.109-24.74 23.949-11.398.665-22.865.134-34.784.134zm36.87 14.465c.989-3.799 2.762-7.583 2.83-11.398.309-17.317.162-34.642.103-51.964-.006-1.974-.422-3.959-.762-5.919-.706-4.072-3.218-6.617-7.198-7.275-3.53-.584-7.154-.608-11.056-.904v80.954c5.692.183 11.053 1.019 16.084-3.494"/><path fill="#FDFCFA" d="M922.15 573v-84.655c1.433-.207 2.531-.527 3.621-.499 11.8.303 23.698-.175 35.368 1.23 12.52 1.508 20.136 9.486 20.63 22.051.803 20.426.922 40.938.001 61.354-.672 14.915-10.352 23.669-25.312 24.487-11.241.615-22.542.122-34.308.122zm20.376-2.506v12.138c14.818 1.892 19.35-1.897 19.452-15.666.107-14.645.169-29.29.141-43.934-.007-3.98-.227-7.98-.673-11.934-.555-4.926-3.567-7.806-8.438-8.427-3.23-.412-6.516-.384-10.482-.59zM799.53 582.985v14.2h-20.056v-109.97c13.673.66 27.182.406 40.41 2.215 12.075 1.652 18.616 10.42 19.205 22.735.566 11.81.706 23.575-11.368 30.922-.774.47-.581 3.302-.157 4.848 3.957 14.425 8.07 28.808 12.119 43.208.525 1.87.941 3.77 1.578 6.342-6.519 0-12.464.192-18.375-.18-1.034-.065-2.396-2.366-2.801-3.854-3.62-13.314-7.047-26.68-10.555-40.024-1.77-6.73-1.876-6.77-10-5.116zm-.004-59.49v10.747c7.124.223 14.26 1.252 18.097-5.274 4.166-7.084 4.253-15.362-.053-22.406-4.052-6.629-11.29-4.551-17.556-4.537-.22 1.037-.407 1.516-.41 1.997-.042 6.157-.056 12.314-.078 19.472"/><path fill="#FDFBF9" d="M1181.797 418.18c-1.752-1.42-3.635-2.606-4.348-4.287-7.275-17.14-14.355-34.363-21.504-51.557-.677-1.627-1.454-3.213-3.132-4.692v60.215h-17.295v-109.36c3.917 0 7.911-.354 11.78.188 1.394.195 2.942 2.342 3.646 3.94 7.107 16.126 14.047 32.326 21.055 48.497.749 1.725 1.635 3.391 2.457 5.085l1.262-.308v-56.629c.835-.438.97-.562 1.116-.577 15.702-1.605 15.702-1.605 15.702 14.08v95.408c-3.75 0-7.039 0-10.74-.004"/><path fill="#FEFDFB" d="M477.153 141.029v-11.055c.799-.31 1.394-.75 1.98-.74 11.305.21 22.65-.031 33.905.848 15.44 1.207 23.57 9.73 24.316 25.088.271 5.57-.187 11.417-1.692 16.748-1.1 3.899-3.757 8.134-6.989 10.45-3.703 2.653-3.84 4.792-2.726 8.565 4.188 14.185 8.093 28.453 12.088 42.694.443 1.578.785 3.184 1.276 5.198H519.19c-3.36-12.776-6.772-25.74-10.18-38.704-.38-1.447-.73-2.9-1.106-4.348-1.82-7.016-1.821-7.015-10.132-6.2v49.281h-20.618zm35.178 33.036c5.909-4.336 8.066-15.076 4.74-23.596-2.335-5.98-8.54-8.252-19.232-6.862v33.17c4.847-.83 9.32-1.596 14.492-2.712M857.511 493.495c9.132-9.224 32.747-8.504 41.438-2.87 7.633 4.95 11.625 12.386 11.947 20.903.742 19.607 1.512 39.312.368 58.866-1.352 23.124-15.914 30.425-37.298 28.062-14.36-1.588-22.885-8.245-23.838-22.556-1.496-22.48-.748-45.154.055-67.71.174-4.894 4.6-9.637 7.328-14.695m28.695 9.321c-10.582-3.715-16.556.204-17.152 11.263-.054.997-.045 1.997-.045 2.996-.002 16.983-.04 33.966.038 50.949.012 2.635.31 5.325.899 7.892 1.225 5.343 4.525 7.82 9.985 7.902 7.02.106 11.068-4.068 11.141-12.378.17-19.312.257-38.63-.137-57.936-.071-3.454-2.614-6.856-4.73-10.688M1086.74 419.275c-14.7-1.984-23.59-10.21-24.392-25.636-1.053-20.24-1.004-40.612-.028-60.86.736-15.272 9.506-23.348 24.833-25.062 5.525-.618 11.362-.33 16.822.742 12.241 2.403 18.021 11.206 19.887 22.792.894 5.551 1.045 11.26 1.096 16.9.115 12.985.295 25.984-.152 38.956-.834 24.205-13.49 34.87-38.066 32.168m16.569-21.955c.28-1.965.8-3.93.806-5.896.062-18.82.128-37.64.002-56.458-.068-10.185-6.171-14.921-15.077-12.121-6.035 1.896-6.826 7.063-6.889 12.036-.239 18.816-.121 37.636-.085 56.455.002 1.48.375 2.963.617 4.438.826 5.015 3.515 8.09 8.786 8.688 5.65.64 9.009-1.13 11.84-7.142M1222.48 500.572c4.435-8.637 11.523-12.635 20.539-13.648 2.145-.241 4.31-.42 6.467-.43 20.215-.105 30.384 7.697 31.854 27.706 1.387 18.873 1.345 38.008-.026 56.886-1.627 22.408-15.519 29.375-36.438 27.491-15.065-1.356-23.967-8.749-25.072-24.328-1.5-21.176-.5-42.538-.258-63.817.036-3.188 1.79-6.356 2.934-9.86m16.528 35.928c.191 12.466-.046 24.96.738 37.388.458 7.252 4.715 10.28 11.188 9.92 6.207-.347 9.922-3.67 10.029-10.75.307-20.453.334-40.916-.01-61.367-.125-7.489-4.47-10.628-11.883-10.139-6.309.416-9.328 3.591-9.79 11.491-.438 7.465-.209 14.97-.272 23.457M584.833 418.97c-5.059.18-9.755.847-14.32.337-15.275-1.709-24.45-9.983-25.212-25.374-1.017-20.57-1.194-41.288.059-61.832 1.089-17.855 15.075-26.884 34.825-24.805 16.806 1.77 25.772 9.372 26.69 26.123 1.108 20.224.876 40.592-.08 60.835-.65 13.749-8.355 21.287-21.962 24.715m-19.827-77.408c0 15.972-.029 31.944.033 47.916.01 2.304.235 4.658.752 6.899 1.327 5.742 4.43 8.139 10.199 8.223 5.586.081 9.082-2.467 10.392-8.048.6-2.555.733-5.264.743-7.905.062-16.97.056-33.94.005-50.91-.007-2.482-.085-5.026-.624-7.43-1.253-5.583-4.618-8.08-10.363-8.124-5.781-.044-9.165 2.33-10.343 8.01-.7 3.373-.557 6.922-.794 11.369M734.199 140.259c8.09-12.306 20.23-13.11 32.62-11.849 15.19 1.545 24.206 10.242 24.935 25.699.94 19.929.976 39.971.007 59.897-.792 16.3-10.364 24.89-26.613 26.249-4.437.371-9.03.194-13.425-.517-10.778-1.743-17.505-8.356-20.473-18.729-.956-3.341-1.83-6.857-1.832-10.294-.019-18.973-.007-37.955.595-56.915.142-4.447 2.604-8.82 4.186-13.541m37.197 11.325c-.93-4.756-3.598-7.722-8.547-8.437-7.782-1.125-12.592 2.82-12.837 11.376-.328 11.481-.158 22.977-.16 34.466-.001 8.326-.162 16.66.17 24.973.311 7.845 4.06 11.497 10.918 11.468 6.603-.028 10.674-3.484 10.784-11.11.299-20.635-.025-41.278-.328-62.736"/><path fill="#FDFCFA" d="M1309.53 586.928v10.234h-17.032V487.845c4.119 0 8.111-.35 11.98.188 1.38.192 2.907 2.34 3.607 3.93 7.433 16.887 14.708 33.844 22.042 50.774.627 1.447 1.368 2.844 2.764 4.082v-58.581h16.672V597.46c-3.911 0-7.866.313-11.717-.183-1.216-.157-2.525-2.322-3.16-3.834-7.354-17.464-14.582-34.981-21.857-52.479-.623-1.498-1.346-2.954-3.3-4.348z"/><path fill="#FEFDFB" d="M659.083 309.538c5.271-.72 10.375-1.011 15.97-1.33v109.947c-3.652 0-7.454.369-11.114-.19-1.38-.211-2.886-2.379-3.563-3.98-7.515-17.766-14.875-35.596-22.287-53.406-.607-1.458-1.28-2.89-2.835-4.137v61.384h-16.956V308.512c4.054 0 8.063-.355 11.945.189 1.391.194 2.93 2.357 3.635 3.959 7.437 16.888 14.715 33.847 22.051 50.78.56 1.29 1.233 2.533 2.987 3.621 0-19.031 0-38.063.167-57.523"/><path fill="#FEFEFC" d="M601.003 491.184c.002 35.587.002 70.69.002 106.318-3.957 0-7.498.426-10.85-.187-1.58-.29-3.38-2.325-4.087-3.99-7.478-17.6-14.75-35.285-22.096-52.94-.664-1.596-1.458-3.138-2.998-4.507v61.15H544.16V487.84c3.93 0 7.759-.347 11.465.176 1.423.2 3.077 2.16 3.757 3.7 7.519 17.04 14.865 34.156 22.265 51.248.455 1.05.97 2.074 2.197 3.074V487.87c5.482 0 10.391-.107 15.284.125.666.032 1.25 1.76 1.875 3.189M820.005 228.968v9.816h-16.71V129.198c3.995 0 8.099-.247 12.135.165 1.085.11 2.291 2.084 2.888 3.445 7.346 16.75 14.584 33.545 21.864 50.322.64 1.476 1.378 2.908 3.15 4.264v-58h16.471V239.12c-3.735 0-7.683.32-11.521-.189-1.197-.159-2.433-2.42-3.08-3.958-7.737-18.39-15.364-36.825-23.025-55.245-.376-.904-.808-1.784-2.172-2.631z"/><path fill="#FEFCFA" d="M1011.849 498.044c.047 23.474.056 46.456.193 69.437.017 2.797.486 5.65 1.167 8.371 1.195 4.781 5.071 7.747 9.748 7.876 4.711.13 8.78-2.547 9.893-7.478 1.015-4.498 1.522-9.199 1.553-13.815.152-22.649.07-45.3.07-67.949v-6.291h19.333c.074 1.097.194 2.057.194 3.016.01 24.815.062 49.63-.051 74.445-.017 3.801-.49 7.666-1.29 11.387-3.532 16.459-15.778 23.987-34.832 21.624-15.345-1.902-23.269-9.71-24.761-25.209-.764-7.931-.832-15.947-.877-23.927-.114-20.292-.038-40.586-.038-61.294h19.698z"/><path fill="#FEFDFB" d="M791.822 319.039v-10.243h19.05c.109 1.593.291 3.036.292 4.479.018 23.993.187 47.988-.111 71.977-.074 5.904-1.056 11.974-2.72 17.645-3.682 12.547-13.87 16.028-25.558 16.886-19.872 1.46-32.057-8.369-32.678-28.27-.842-26.962-.433-53.964-.541-80.948-.002-.466.242-.933.465-1.734h18.988v16.728c0 19.328-.078 38.656.06 57.983.031 4.298.474 8.664 1.357 12.866 1.111 5.282 4.892 8.004 10.003 8.035 4.964.03 8.502-2.345 9.721-7.608 1.042-4.495 1.566-9.203 1.601-13.821.162-21.16.071-42.321.071-63.975M1063.477 562.735c.13-15.961-.25-31.474.512-46.93 1.238-25.15 26.042-38.144 48.284-25.734 5.074 2.83 8.803 7.089 9.903 12.598 1.604 8.035 2.165 16.278 3.225 24.88h-20.517c0-5.512.25-10.952-.062-16.36-.416-7.212-3.987-10.045-11.093-9.663-4.644.249-7.517 2.689-8.623 6.956-.743 2.864-1.033 5.916-1.05 8.886a4636 4636 0 0 0-.007 49.48c.014 2.808.333 5.657.885 8.412 1.21 6.035 4.674 8.773 10.388 8.552 5.511-.213 8.982-3.413 9.414-9.633.401-5.77.086-11.59.086-17.702h19.378c.614 10.446 1.122 20.834-4.134 30.513-3.435 6.325-9.054 10.006-15.923 10.83-6.194.743-12.682.964-18.804-.031-12.251-1.993-19.666-11.448-21.253-25.613-.333-2.974-.412-5.977-.61-9.44M515.64 326.73c-3.032-4.622-7.155-5.036-11.676-4.138-4.62.917-6.558 4.272-7.24 8.484a54.4 54.4 0 0 0-.684 8.436 4897 4897 0 0 0 .01 46.96c.017 3.142.292 6.33.89 9.41 1.251 6.44 4.673 9.068 10.716 8.662 5.532-.372 8.812-3.584 9.182-9.819.333-5.622.07-11.28.07-17.326h19.796c.093 10.518.78 21.208-4.865 30.826-6.068 10.339-16.44 11.964-27.003 11.466-18.28-.863-28.157-10.68-28.778-29.099-.612-18.117-.734-36.297.028-54.403 1.057-25.128 28.045-38.264 49.406-24.565 6.219 3.988 9.165 10.116 10.228 17.017.956 6.206.996 12.552 1.478 19.379h-19.435c-.655-7.12-1.29-14.029-2.123-21.29M515.934 583.237a1825 1825 0 0 0-2.04-10.959h-18.598l-4.534 24.882h-19.081l22.156-109.097h21.254l22.13 109.134h-18.79c-.811-4.499-1.625-9.015-2.497-13.96m-9.706-57.996-1.36-7.881-.748.078-6.622 41.017h14.171a13926 13926 0 0 0-5.441-33.214M691.549 409.387c-4.863-7.134-6.479-14.8-6.608-23.393l17.026-3.572c.689 3.897.996 7.517 2.033 10.914.85 2.781 2.17 5.623 3.997 7.852 2.553 3.115 6.692 4.072 9.947 2.138 2.447-1.453 4.725-4.754 5.245-7.571 1.213-6.582-1.187-12.565-6.082-17.156-6.43-6.03-13.1-11.805-19.719-17.63-7.577-6.67-12.14-14.598-12.484-25.064-.705-21.394 14.53-30.436 32.683-28.452 15.042 1.644 23.095 12.209 23.112 29.667l-16.501 3.26c-.794-4.043-1.226-7.66-2.244-11.102-1.549-5.234-5.065-7.312-10.189-6.546-4.793.718-7.408 3.74-7.84 8.84-.581 6.848 2.867 11.703 7.615 16.013 7.262 6.593 14.774 12.948 21.616 19.955 7.037 7.205 10.18 16.276 9.798 26.406-.521 13.847-9.114 23.55-22.838 25.344-10.908 1.426-20.92-.459-28.567-9.903M891.662 145.661c-3.949 5.662-4.172 12.284.005 17.383 3.343 4.082 7.506 7.496 11.341 11.17 5.282 5.057 11.044 9.695 15.8 15.204 8.366 9.691 11.092 21.028 7.436 33.546-1.922 6.584-6.05 11.64-12.215 14.425-10.834 4.893-21.923 4.85-31.947-1.775s-11.967-17.298-12.277-28.822l17.08-3.58c.36 2.496.412 4.967 1.115 7.235 1.162 3.75 2.212 7.712 4.293 10.952 2.233 3.477 6.178 4.342 10.253 3.072 3.876-1.207 5.31-4.23 5.646-8 .6-6.739-1.548-12.585-6.384-17.155-6.77-6.4-13.779-12.554-20.822-18.655-9.766-8.46-12.613-19.306-10.814-31.567 2.166-14.767 16.45-23.499 33.39-20.764 11.98 1.934 18.913 9.027 21.292 21.874.422 2.281.613 4.605.998 7.588l-16.897 3.484c-1.787-6.396-.058-14.083-7.19-16.98-2.68-1.087-6.508.649-10.103 1.365M632.648 200.434c-7.432-6.7-14.608-13.15-21.836-19.542-10.58-9.357-13.45-21.17-10.295-34.441 3.17-13.333 17.14-20.73 32.964-18.074 13.974 2.346 21.817 12.909 21.512 29.575l-16.441 3.337c-.607-3.663-.953-6.951-1.722-10.137-1.376-5.694-5.43-8.573-10.428-7.716-5.58.957-9.302 5.412-7.915 11.214 1.028 4.298 3.142 8.894 6.146 12.05 6.635 6.971 14.394 12.86 21.226 19.661 10.06 10.014 13.857 22.193 10.181 36.102-2.245 8.495-8.061 14.01-16.438 16.636-20.123 6.305-36.925-4.35-39.655-25.083-.28-2.127-.482-4.265-.794-7.055l17.34-3.79c.508 3.243.705 6.354 1.534 9.288.845 2.992 1.902 6.08 3.602 8.637 2.324 3.495 6.096 4.62 10.162 3.52 4.284-1.162 5.925-4.48 6.197-8.668.376-5.782-1.578-10.771-5.34-15.514"/><path fill="#FEFEFC" d="M968.95 324.097c.401 7.584 1.64 15.239 1.018 22.739-1.101 13.284-9.994 21.23-23.384 22.212-4.971.365-9.961.47-15.49.72v48.115H911.1V308.881c1.442-.133 2.862-.373 4.282-.378 9.332-.033 18.664-.1 27.995.007 11.408.132 20.446 4.24 25.328 15.567.328.067.245.02.245.02m-17.486 10.196c-1.446-10.344-8.338-13.97-20.073-10.668v31.152c17.65 1.083 21.521-2.777 20.073-20.484"/><path fill="#FEFEFD" d="M685.004 204.01v34.775h-19.805V128.7c13.545.517 27.006.374 40.305 1.772 8.731.918 15.21 6.994 16.838 15.667 1.503 8.008 2.094 16.581.948 24.6-1.669 11.677-10.763 18.385-23.387 19.21-4.765.31-9.567.05-14.9.05zm-.001-51.46v23.563c7.192-.64 15.16 1.952 18.604-5.628 3.35-7.373 3.862-16.023-.848-23.016-4.162-6.18-11.42-2.965-17.756-3.685zM712.995 573v-85.172h10.496c6.995 0 13.989-.006 20.983 0 17.283.018 25.691 7.313 27.96 24.539.475 3.604.582 7.335.255 10.953-1.49 16.471-10.643 24.723-27.677 25.175-3.771.1-7.547.014-11.838.014v48.703h-20.179zm40.854-52.79c.013-16.351-3.482-19.62-19.352-18.076-.293.029-.563.278-1.034.523v30.963c14.079 2.314 18.825-.66 20.386-13.41"/><path fill="#FDFBF7" d="M568.541 160.996v13.83h20.12v14.17h-19.627v35.977h25.35v13.894h-45.65V129.486h45.39v14.222h-25.583z"/><path fill="#FEFEFD" d="M1112 239.172h-19.699V129.57h45.48v14.138h-25.24v31.254h20.03v14.03h-20.041v35.938h25.604v14.243z"/><path fill="#FEFDFB" d="M969.055 324.186c.021-4.93.021-9.904.021-15.292h56.417v14.398h-17.305v94.55H987.95v-94.245c-6.377 0-12.276 0-18.588.25-.413.25-.33.297-.308.34"/><path fill="#FEFEFD" d="M1165.005 553v44.212h-20.088v-94.108h-18.023v-14.988h55.66v14.559h-17.55z"/><path fill="#FDFBF9" d="M1039.146 168v-38.397h20.155v95.46h26.215v13.72h-46.37z"/><path fill="#FEFEFC" d="M955.842 144.008v94.74h-19.715V129.586h19.715z"/><path fill="#FEFDFB" d="M1030.95 416.794c-.081-36.224-.081-71.968-.081-107.944h19.774v109.645c-6.695-.417-13.153-.819-19.692-1.7M1192.303 597.52c-2.859.156-4.542-.106-4.53-3.339.121-34.943.12-69.887.168-104.83 0-.298.217-.595.456-1.207h19.039V597.52z"/><path fill="#C18F36" d="M988.962 188.909c4.18-.188 8.231-.52 12.04.29 7.921 1.682 10.999 8.7 10.092 21.664-.612 8.742-4.17 12.988-12.02 13.823-3.26.347-6.586.058-10.349.058 0-12.018 0-23.74.237-35.835"/><path fill="#BF8C2F" d="M988.519 156.003v-12.36c7.163.398 14.605-1.45 18.942 4.894 4.23 6.188 3.483 13.724-.058 20.022-3.963 7.049-11.465 5.184-18.884 5.487zM649.76 579.76c-4.769 4.218-10.13 3.382-15.822 3.199v-80.954c3.902.296 7.525.32 11.056.904 3.98.658 6.492 3.203 7.198 7.275.34 1.96.756 3.945.762 5.92.059 17.321.206 34.646-.103 51.963-.068 3.815-1.841 7.6-3.09 11.693M942.526 569.995V502.08c3.966.206 7.252.178 10.482.59 4.871.621 7.883 3.5 8.438 8.427.446 3.954.666 7.954.673 11.934.028 14.644-.034 29.29-.141 43.934-.102 13.769-4.634 17.558-19.452 15.666zM799.526 522.994c.022-6.658.036-12.815.078-18.972.003-.48.19-.96.41-1.997 6.266-.014 13.504-2.092 17.556 4.537 4.306 7.044 4.22 15.322.053 22.406-3.837 6.526-10.973 5.497-18.097 5.274z"/><path fill="#C18F36" d="M511.982 174.24c-4.823.94-9.296 1.707-14.143 2.538v-33.17c10.692-1.39 16.897.88 19.232 6.86 3.326 8.52 1.169 19.26-5.09 23.772"/><path fill="#BF8C2F" d="M886.563 503.019c1.758 3.629 4.301 7.031 4.372 10.485.394 19.305.307 38.624.137 57.936-.073 8.31-4.122 12.484-11.141 12.378-5.46-.083-8.76-2.559-9.985-7.902a36.3 36.3 0 0 1-.899-7.892c-.078-16.983-.04-33.966-.038-50.949 0-.999-.009-2 .045-2.996.596-11.059 6.57-14.978 17.509-11.06M1103.19 397.717c-2.712 5.615-6.071 7.385-11.721 6.745-5.271-.597-7.96-3.673-8.786-8.688-.242-1.475-.615-2.958-.617-4.438-.036-18.819-.154-37.64.085-56.455.063-4.973.854-10.14 6.889-12.036 8.906-2.8 15.01 1.936 15.077 12.12.126 18.82.06 37.64-.002 56.459-.007 1.966-.525 3.93-.925 6.293M1239.008 536c.063-7.987-.166-15.492.271-22.957.463-7.9 3.482-11.075 9.79-11.49 7.414-.49 11.759 2.649 11.885 10.138.343 20.45.316 40.914.009 61.367-.107 7.08-3.822 10.403-10.03 10.75-6.472.36-10.73-2.668-11.187-9.92-.784-12.429-.547-24.922-.738-37.888M565.006 341.073c.237-3.959.094-7.508.794-10.882 1.178-5.68 4.562-8.053 10.343-8.009 5.745.045 9.11 2.541 10.363 8.123.54 2.405.617 4.949.624 7.43.05 16.97.057 33.941-.005 50.911-.01 2.64-.143 5.35-.743 7.905-1.31 5.581-4.806 8.13-10.392 8.048-5.769-.084-8.872-2.481-10.199-8.223-.517-2.24-.743-4.595-.752-6.899-.062-15.972-.033-31.944-.033-48.404M771.509 151.993c.19 21.049.514 41.692.215 62.326-.11 7.627-4.18 11.083-10.784 11.11-6.857.03-10.607-3.622-10.919-11.467-.33-8.313-.17-16.647-.169-24.973.002-11.489-.168-22.985.16-34.466.245-8.556 5.055-12.5 12.837-11.376 4.95.715 7.616 3.681 8.66 8.846"/><path fill="#C18F36" d="M506.31 525.657c1.816 11.06 3.55 21.702 5.36 32.798h-14.172l6.622-41.017.748-.078c.454 2.627.907 5.254 1.441 8.297"/><path fill="#BF8C2F" d="M951.477 334.72c1.435 17.28-2.436 21.14-20.086 20.057v-31.152c11.735-3.303 18.627.324 20.086 11.096M685.002 152.06v-8.276c6.336.72 13.594-2.495 17.756 3.685 4.71 6.993 4.198 15.643.848 23.016-3.444 7.58-11.412 4.988-18.604 5.628z"/><path fill="#C18F36" d="M753.844 520.656c-1.556 12.304-6.302 15.278-20.38 12.964v-30.963c.47-.245.74-.494 1.033-.523 15.87-1.544 19.365 1.725 19.347 18.522"/></svg>