<svg xmlns="http://www.w3.org/2000/svg" xml:space="preserve" viewBox="0 0 1500 1500"><path fill="#3F7E44" d="M1 526V1h1500v1500H1zm580.864 159.333c-48.686 13.01-95.488 30.91-140.016 54.542-93.986 49.88-173.274 116.924-236.36 202.855-2.405 3.275-2.27 5.364.037 8.582 32.513 45.343 70.693 85.385 113.452 121.078 108.762 90.793 233.566 143.64 374.677 157.375 61.78 6.013 123.418 4.068 184.68-6.01 100.045-16.458 191.853-53.588 275.22-111.294 63.787-44.154 119.393-96.844 165.024-159.81 2.2-3.037 2.396-4.992.126-8.165-22.948-32.073-48.973-61.436-77.359-88.76-56.133-54.036-119.324-97.829-190.047-130.584-101.311-46.923-208.055-66.231-319.302-62.052-50.566 1.9-100.362 9.265-150.132 22.243M369.17 338.483c-.386-8.308-.159-16.7-1.28-24.907-2.639-19.302-10.295-35.775-28.43-45.542-1.62-.874-3.29-1.657-5.319-2.673 19.299-7.75 28.595-22.784 32.96-41.572 3.057-13.157 2.931-26.493.803-39.72-4.485-27.873-19.815-46.854-47.284-54.777-17.405-5.02-35.245-5.209-52.875-1.083-23.06 5.397-39.083 19.25-47.319 41.631-5.929 16.111-5.804 32.886-5.264 49.797h54.679c0-3.84-.362-7.364.07-10.788 1.178-9.357 2.293-18.755 4.219-27.972 1.156-5.532 5.426-9.41 10.99-10.558 12.115-2.499 24.08-.201 27.787 15.984 2.83 12.358 2.839 24.81.41 37.191-3.34 17.038-11.976 24.021-29.463 24.326-3.29.058-6.583.009-10.107.009v39.858c4.882.368 9.524.603 14.14 1.089 13.444 1.416 20.619 7.133 24.043 20.213 4.42 16.88 4.256 33.992.327 50.929-2.65 11.418-8.428 15.428-20.039 15.24-9.875-.16-16.014-4.563-18.914-13.937-1.076-3.48-1.92-7.108-2.25-10.724-.764-8.401-1.15-16.836-1.702-25.434h-54.235c-.612 21.51.756 42.408 10.387 61.961 7.806 15.85 20.27 26.238 37.259 30.822 18.327 4.944 36.888 5.187 55.35.744 18.603-4.477 32.021-15.603 40.514-32.767 7.236-14.622 10.057-30.211 10.543-47.34M187.002 287.5V129.49c-11.355 0-22.01.295-32.638-.107-6.607-.25-11.486 1.952-17.103 5.61-13.875 9.037-28.79 16.474-43.245 24.627-1.424.803-3.65 2.084-3.673 3.18-.258 12.894-.165 25.796-.165 39.251l41.793-15.059v229.222h55.03zm467.521-103.329v-14.267l1.266-.106 14.705 69.382c2.83 0 5.485-.208 8.094.053 3.216.322 4.237-1.019 4.768-4.08 1.306-7.534 3.066-14.988 4.641-22.475l9.202-43.737 1.446.089v69.858h15.996l-1.85-109.734c-6.284 0-11.93-.183-17.547.147-1.178.07-2.931 1.854-3.25 3.138-1.837 7.42-3.337 14.925-4.926 22.406-3.435 16.173-6.856 32.35-10.282 48.525l-.911.041-15.313-73.992H639.83l-1.852 109.405h16.528c0-18.137 0-35.926.016-54.653m101.704 129.034c-5.909-1.994-11.724-5.31-17.744-5.737-19.547-1.386-33.318 5.057-34.66 27.656a457 457 0 0 0 .164 56.9c1.224 18.643 10.025 26.633 28.424 27.617 17.926.958 31.933-5.243 33.48-27.642 1.26-18.23.68-36.61.408-54.917-.13-8.817-2.696-17.095-10.072-23.877m77.95 22.295v-26.569h-17.114v57.69c-1.505-1.44-2.24-2.902-2.887-4.402-7.182-16.62-14.303-33.266-21.6-49.834-.682-1.546-2.333-3.518-3.756-3.718-3.725-.525-7.573-.177-11.44-.177v109.29h17.03v-60.91c1.44 1.286 2.126 2.731 2.74 4.206 7.334 17.642 14.617 35.306 22.052 52.905.677 1.601 2.167 3.779 3.54 3.988 3.663.558 7.468.19 11.435.19zm-247.16 65.981c-7.012 6.014-15.455 3.45-17.496-5.395-.482-2.086-.635-4.288-.64-6.437-.05-17.832-.067-35.665.017-53.497.012-2.462.308-5.023 1.041-7.36 1.51-4.813 5.66-7.182 10.924-6.555 4.9.584 8.026 3.11 8.356 8.284.37 5.797.613 11.6.924 17.647h18.894c0-4.837.184-9.327-.032-13.797-.83-17.123-8.85-25.91-25.837-27.02-20.203-1.32-32.975 6.237-34.168 27.144a499 499 0 0 0 .087 58.378c1.062 17.612 10.396 25.452 28.178 26.898 15.602 1.269 27.237-5.68 30.262-19.23 1.67-7.478 1.526-15.362 2.21-23.18H590.9c-1.175 8.152-2.279 15.811-3.884 24.12m-105.194-229.98c0 10.663-.26 21.335.1 31.986.206 6.105.776 12.344 2.32 18.225 2.647 10.077 9.696 16.312 19.957 17.956 11.415 1.83 22.715 1.822 31.64-7.431 1.139-1.181 2.106-2.614 2.838-4.087 4.765-9.59 4.536-19.814 4.152-30.075h-19.747c0 5.863.179 11.501-.046 17.123-.261 6.52-3.514 9.912-9.27 10.217-6.122.325-9.727-2.698-10.753-9.314-.483-3.113-.815-6.289-.794-9.433.12-17.814.095-35.636.7-53.436.25-7.334 4.326-10.478 10.876-10.205 6.2.26 9.15 3.673 9.326 11.076.121 5.07.023 10.144.023 15.115h20.133c-.343-6.123-.268-11.974-1.069-17.703-2.095-14.98-9.754-22.204-24.627-23.269-4.433-.318-9.004.005-13.402.716-10.554 1.707-17.807 7.842-20.032 18.3-1.61 7.569-1.608 15.48-2.325 24.239m284.489 60.737c1.08 2.305 1.9 6.396 3.287 6.598 5.347.78 10.876.317 16.865.317-2.569-12.656-5.02-24.691-7.454-36.73-4.681-23.152-9.316-46.313-14.118-69.44-.292-1.41-1.817-3.59-2.866-3.648-6.253-.344-12.534-.17-18.866-.17L720.84 238.94h19.075l4.556-24.869h18.715c1.005 5.874 1.984 11.595 3.126 18.166M526.197 333.193c-1.415-7.17-2.7-14.372-4.366-21.484-.296-1.265-2.133-3.014-3.335-3.078-5.966-.317-11.958-.144-18.316-.144l-22.24 109.408h19.091l4.5-24.711h18.665c1.277 7.209 2.427 14.407 3.928 21.531.275 1.306 1.917 3.225 3.031 3.3 5.262.349 10.56.155 16.363.155-5.8-28.488-11.467-56.318-17.321-84.977m344.301-204.047h-28.03v109.692h45.95v-13.964h-25.51v-35.692h19.73v-14.381H862.86v-31.08h24.935v-14.575zM648.5 308.45h-37.3v15.227h18.447v94.247h20.387v-94.61h17.173v-14.864zm136.305-164.282h15.142v94.752h20.142v-94.836h17.367v-14.57H781.51c0 4.32-.133 8.3.107 12.255.051.84 1.469 1.596 3.187 2.399m-214.302 95.027h28.033v-14.128H572.38v-95.644h-19.604v109.772zm101.95 91.304v87.363h19.682V308.792H672.45zm-66.472-92.174 19.496 1.169V129.417H605.85c0 36.153 0 72.045.129 108.909"/><path fill="#FEFFFE" d="M582.257 685.22c49.377-12.865 99.173-20.23 149.74-22.13 111.246-4.18 217.99 15.129 319.301 62.052 70.723 32.755 133.914 76.548 190.047 130.583 28.386 27.325 54.41 56.688 77.359 88.76 2.27 3.174 2.074 5.129-.126 8.165-45.63 62.967-101.237 115.657-165.024 159.81-83.367 57.707-175.175 94.837-275.22 111.295-61.262 10.078-122.9 12.023-184.68 6.01-141.111-13.735-265.915-66.582-374.677-157.375-42.759-35.693-80.939-75.735-113.452-121.078-2.307-3.218-2.442-5.307-.038-8.582 63.087-85.931 142.375-152.974 236.361-202.855 44.528-23.633 91.33-41.532 140.409-54.656m23.69 229.345c-14.445-6.714-29.689-11.183-45.377-12.975-5.431-.62-12.275 2.347-16.886 5.797-4.54 3.398-7.191 9.406-10.422 14.428-1.383 2.15-2.856 4.644-3.068 7.088-3.18 36.59 1.989 72.001 15.53 106.165 2.367 5.973 9.759 8.462 15.466 5.28 5.373-2.996 10.738-6.012 16.186-8.868 6.066-3.18 8.958-2.578 13.674 2.274 1.497 1.541 3.099 3.105 4.937 4.165 5.088 2.934 7.633 7.269 7.844 13.033.163 4.444 2.107 5.303 6.152 3.76 5.77-2.2 7.911-.848 9.09 5.136 1.06 5.383 1.805 10.845 3.195 16.14.935 3.558 2.532 7.156 7.695 5.79.196 3.525.13 6.7.59 9.798 1.362 9.175 2.647 18.38 4.565 27.445.738 3.487 2.924 7.106 7.372 7.066 12.83-.116 24.292-3.893 32.919-13.888 6.672-7.73 10.044-17.139 12.609-26.86 1.503-5.698 3.016-11.325 9.162-14.06.916-.407 1.8-1.66 2.048-2.682 2.727-11.224 8.062-21.898 6.547-34.016-.974-7.792 1.184-14.846 6.971-20.503 3.57-3.491 7.21-6.915 10.69-10.493 5.93-6.095 8.627-16.346-1.741-21.491-3.125-1.551-6.267-3.168-9.112-5.166-13.061-9.168-21.136-21.44-22.496-37.598-.15-1.781.896-3.663 1.387-5.499 1.652.923 3.656 1.513 4.897 2.824 6.751 7.135 13.259 14.5 19.964 21.679 3.679 3.939 7.791 8.062 13.564 7.347 9.916-1.228 18.48-5.54 24.174-14.174 2.84-4.306 2.918-8.823-.659-12.896-2.742-3.123-5.597-6.152-8.503-9.124-8.608-8.803-17.372-17.457-25.782-26.444-1.18-1.26-.723-4.054-1.024-6.137 2.147.016 4.347-.25 6.42.147 1.372.264 2.555 1.491 3.833 2.27 8.488 5.168 16.842 10.576 25.515 15.413 6.15 3.43 9.864 8.158 11.032 15.066 1.483 8.764 6.574 14.732 14.667 18.173 2.748 1.17 5.55 2.266 8.417 3.089 14.862 4.269 29.08 9.558 39.464 21.968 2.482 2.966 6.2 3.394 8.584-.066 6.023-8.741 12.654-17.421 9.163-29.245-1.337-4.53.532-7.645 4.658-9.798 8.389-4.38 16.638-1.503 20.407 7.571 4.273 10.288 7.83 20.896 12.545 30.968 2.826 6.037 6.57 11.994 11.174 16.757 5.498 5.688 12.324 10.105 18.65 14.974 1.568 1.206 3.32 2.446 5.18 2.925 2.096.54 5.071 1.094 6.429.045 1.175-.91 1.412-4.376.686-6.147-2.07-5.05-4.41-10.1-7.426-14.629-7.732-11.615-5.066-22.597 1.868-33.04 1.886-2.841 5.76-5.333 9.126-6.031 8.21-1.703 15.42-5.14 22.147-9.871 6.196-4.358 6.685-6.255 2.539-12.673-3.715-5.75-5.063-11.9-4.18-18.566.58-4.386 3.468-5.803 7.047-3.225 2.377 1.712 4.279 4.132 6.235 6.373 7.089 8.124 20.296 7.631 24.449-1.675 2.017-4.52 2.703-10.638 1.532-15.43-34.012-139.16-188.205-214.872-319.165-156.83-10.233 4.536-20.005 10.113-29.991 15.207l.526 1.342c1.732-.148 3.462-.322 5.196-.441 13.115-.904 26.224-2.308 39.35-2.489 7.182-.099 14.573 1.215 21.537 3.112 6.261 1.705 8.433 6.1 7.01 12.436-1.514 6.744.9 11.803 5.6 16.036 3.452 3.109 7.39 5.67 11.006 8.606 4.7 3.817 4.606 6.535-.5 9.584-9.138 5.457-18.334 10.824-27.618 16.027-2.874 1.61-6.031 3.179-9.216 3.611-2.159.294-4.592-1.428-6.903-2.249.864-1.973 1.23-4.525 2.702-5.791 2.606-2.243 5.848-3.768 8.89-5.476 3.77-2.115 7.682-3.985 11.373-6.226 1.295-.786 2.116-2.353 3.154-3.563-1.373-1.059-2.64-2.813-4.14-3.04-3.89-.588-8.09-1.399-11.8-.537-18.5 4.297-37.075 7.732-56.093 8.761-10.252.555-19.35 4.82-27.314 11.165-8.08 6.437-7.73 12.57 1.305 17.433 5.65 3.042 11.983 4.804 17.97 7.236 11.3 4.589 19.954.883 27.21-8.19 2.132-2.669 4.73-5.27 7.666-6.924 5.214-2.936 11.047-.598 12.91 4.615-2.785 2.024-5.714 3.926-8.375 6.15-2.8 2.339-5.512 4.834-7.971 7.526-7.418 8.12-14.244 9.266-24.658 5.706-13.73-4.696-27.405-4.57-40.277 3.397-4.23 2.618-8.467 5.335-12.998 7.33-4.206 1.85-6.958 3.56-4.648 8.801 1.749 3.97-.428 6.998-3.491 9.516-2.986 2.454-6.239 3.305-9.693 1.362-5.291-2.977-10.801-2.644-16.504-1.819-11.18 1.618-13.39 7.729-10.35 18.482 1.833 6.49 6.32 7.762 12.49 4.829 4.14-1.969 8.515-3.748 12.98-4.667 11.361-2.336 22.336-5.223 31.196-13.378 2.8-2.578 6.386-2.5 9.196-.23 2.506 2.027 4.64 4.71 6.367 7.462 3.353 5.343 6.165 11.025 9.499 16.382 1.2 1.927 3.253 3.324 4.917 4.963l1.59-.93-5.171-18.88 1.684-1.184c1.828 1.107 3.91 1.947 5.42 3.386 2.034 1.935 3.814 4.209 5.366 6.559 2.309 3.496 4.5 4.503 8.523 1.951 4.54-2.88 9.383-2 11.873 1.047 3.14 3.84 3.237 10.629-.354 14.322-5.362 5.516-11.949 10.257-19.743 8.988-9.88-1.61-19.443-5.156-29.852-8.17m323.272 197.362c19.59-20.32 34.852-43.483 46.832-69.054 4.734-10.104 4.32-18.956-.873-28.35-3.748-6.782-4.544-7.331-10.817-2.94-11.5 8.054-24.106 13.025-37.89 15.785-11.042 2.21-21.918 5.428-32.681 8.796-15.834 4.955-34.22 29.536-24.761 51.632 1.752 4.094 2.76 8.54 3.801 12.897 3.548 14.863 5.281 15.567 18.322 7.416 2.804-1.753 5.874-3.078 9.764-5.087-.227 2.613-.539 3.754-.37 4.82.282 1.794.87 3.54 1.33 5.306 1.763-.469 3.533-.915 5.289-1.412 2.155-.61 4.41-2.022 6.42-1.724 3.208.476 6.182 2.369 9.384 3.085 1.776.398 3.814-.377 6.25-1.17m-60.94 44.848c11.983-6.359 23.66-13.182 34.762-22.143-12.58-6.356-25.02-7.378-36.853-2.01-8.63 3.915-16.722 9.673-23.9 15.932-6.242 5.441-11.989 6.51-19.506 3.991-15.754-5.276-31.524-10.587-47.532-15-19.119-5.268-38.41-6.31-57.327 1.437-10.528 4.311-19.067 10.88-23.69 21.629-2.858 6.645-.52 11.446 6.384 13.253 57.738 15.112 113.427 9.774 167.663-17.089m106.99-215.883c-8.149 17.33-.1 46.786 15.041 55.046 3.879-11.668 6.763-48.282 4.738-60.132-1.776-10.394-10.778-17.434-20.216-15.484.504 1.232.79 2.546 1.499 3.567 3.926 5.656 4.73 11.12-1.061 17.003m-407.937-90.057c7.185-7.406 14.357-14.752 23.711-19.637 2.487-1.299 4.081-4.306 6.085-6.528-2.824-1.794-5.57-3.733-8.512-5.303-1.072-.572-2.626-.446-3.934-.334-10.894.936-20.446 3.686-25.32 15.2-3.905 9.225-8.87 18.001-13.365 26.976l1.316 1.744c2.975-.846 6.343-1.078 8.833-2.679 3.875-2.491 7.154-5.912 11.186-9.44m164.099 159.342c-7.753 1.192-13.338 6.152-14.788 13.098-2.8 13.406-4.033 27.147-5.647 40.781-.236 1.992 1.003 4.158 1.56 6.244l1.718.286c1.315-1.945 2.964-3.747 3.876-5.865 2.03-4.71 3.665-9.588 5.505-14.38 3.555-9.256 7.084-18.523 10.732-27.742 2.74-6.924 2.338-9.625-2.956-12.422m-135.417-228.93c-2.399 1.667-5.216 2.96-7.107 5.08-3.87 4.335-7.381 9.015-10.742 13.765-1.197 1.692-2.715 4.991-2.019 5.82 1.617 1.927 4.412 3.718 6.873 3.935 11.378 1 24.784-9.729 26.562-20.741.998-6.183-2.154-9.546-8.378-8.866-1.483.163-2.941.55-5.19 1.007m220.306 189.6c-5.8-1.787-10.404-.433-13.074 4.604-.832 1.569-.68 4.722.39 6.041 3.448 4.253 15.01 6.002 20.039 3.703 3.371-1.541 4.173-4.096 1.898-6.697-2.45-2.8-5.65-4.946-9.253-7.651m131.49 37.421c3.113-.542 6.642-.865 6.677-5.073.031-3.845-7.608-10.105-12.977-11.09-3.91-.717-8.992 2.154-10.984 6.13-1.378 2.75-.675 5.317 1.921 6.248 4.72 1.693 9.707 2.645 15.363 3.785m-7.353-27.333c-3.733-4.031-7.07-8.563-11.332-11.924-3.004-2.369-7.746.358-6.875 3.741 1.036 4.019 3.152 8.418 6.177 11.096 3.696 3.271 10.078 1.454 12.03-2.913"/><path fill="#FEFEFE" d="M369.17 338.978c-.486 16.634-3.307 32.223-10.543 46.845-8.493 17.164-21.911 28.29-40.515 32.767-18.461 4.443-37.022 4.2-55.35-.744-16.988-4.584-29.452-14.973-37.258-30.822-9.631-19.553-10.999-40.451-10.387-61.961h54.235c.552 8.598.938 17.033 1.703 25.434.329 3.616 1.173 7.245 2.249 10.724 2.9 9.374 9.04 13.776 18.914 13.937 11.611.188 17.39-3.822 20.039-15.24 3.929-16.937 4.093-34.048-.327-50.929-3.424-13.08-10.6-18.797-24.044-20.213-4.615-.486-9.257-.72-14.139-1.089V247.83c3.524 0 6.816.049 10.107-.009 17.487-.305 26.123-7.288 29.464-24.326 2.428-12.382 2.419-24.833-.411-37.191-3.707-16.185-15.672-18.483-27.787-15.984-5.564 1.148-9.834 5.026-10.99 10.558-1.926 9.217-3.041 18.615-4.22 27.972-.43 3.424-.07 6.947-.07 10.788h-54.678c-.54-16.911-.665-33.686 5.264-49.797 8.236-22.381 24.26-36.234 47.32-41.63 17.629-4.127 35.47-3.938 52.874 1.082 27.469 7.923 42.799 26.904 47.284 54.777 2.128 13.227 2.254 26.563-.802 39.72-4.366 18.788-13.662 33.823-32.96 41.572 2.028 1.016 3.697 1.8 5.318 2.673 18.135 9.767 25.791 26.24 28.43 45.542 1.121 8.208.894 16.599 1.28 25.402M187.002 288v128.214h-55.03V186.992c-14.072 5.07-27.589 9.94-41.794 15.06 0-13.456-.093-26.358.165-39.252.022-1.096 2.25-2.377 3.673-3.18 14.456-8.153 29.37-15.59 43.245-24.627 5.617-3.658 10.496-5.86 17.103-5.61 10.628.402 21.283.108 32.638.108z"/><path fill="#FBFCFB" d="M654.514 184.64c-.008 18.258-.008 36.047-.008 54.184h-16.528l1.852-109.405h20.731l15.313 73.992.91-.04c3.427-16.176 6.848-32.353 10.283-48.526 1.59-7.481 3.09-14.986 4.927-22.406.318-1.284 2.071-3.068 3.249-3.138 5.616-.33 11.263-.147 17.547-.147l1.85 109.734h-15.996V169.03l-1.446-.09-9.202 43.738c-1.575 7.487-3.335 14.941-4.641 22.474-.53 3.062-1.552 4.403-4.768 4.081-2.609-.261-5.264-.053-8.094-.053l-14.705-69.382-1.266.106c0 4.756 0 9.512-.008 14.737"/><path fill="#FCFDFC" d="M756.5 313.44c7.102 6.547 9.667 14.825 9.798 23.642.271 18.306.852 36.686-.407 54.917-1.548 22.4-15.555 28.6-33.48 27.642-18.4-.984-27.2-8.974-28.425-27.616a457 457 0 0 1-.164-56.901c1.342-22.599 15.113-29.042 34.66-27.656 6.02.427 11.835 3.743 18.017 5.971m-32.654 72.999c.097 2.826-.058 5.689.34 8.472.93 6.51 4.535 9.69 10.578 9.716 7.22.032 11.118-4.204 11.182-12.9.14-18.977.054-37.955.021-56.933-.002-1.317-.214-2.657-.508-3.945-1.537-6.74-6.09-9.707-12.883-8.458-5.958 1.096-8.564 4.546-8.646 12.626-.17 16.812-.072 33.627-.084 51.422M834.176 336v82.159c-3.967 0-7.772.368-11.436-.19-1.372-.21-2.862-2.387-3.539-3.988-7.435-17.599-14.718-35.263-22.053-52.905-.613-1.475-1.299-2.92-2.738-4.206v60.91h-17.031V308.49c3.867 0 7.715-.348 11.44.177 1.423.2 3.074 2.172 3.755 3.718 7.298 16.568 14.42 33.215 21.6 49.834.649 1.5 1.383 2.962 2.888 4.401v-57.689h17.114z"/><path fill="#FBFCFB" d="M587.267 401.156c1.354-7.984 2.458-15.643 3.633-23.794h18.836c-.684 7.817-.54 15.7-2.21 23.18-3.025 13.549-14.66 20.498-30.262 19.23-17.782-1.447-27.116-9.287-28.178-26.9a499 499 0 0 1-.087-58.377c1.193-20.907 13.965-28.464 34.168-27.144 16.987 1.11 25.007 9.897 25.837 27.02.216 4.47.032 8.96.032 13.797h-18.894c-.311-6.046-.555-11.85-.924-17.647-.33-5.174-3.457-7.7-8.356-8.284-5.264-.627-9.414 1.742-10.924 6.556-.733 2.336-1.029 4.897-1.04 7.359-.085 17.832-.067 35.665-.018 53.497.005 2.15.158 4.35.64 6.437 2.041 8.845 10.484 11.409 17.747 5.07"/><path fill="#FCFDFC" d="M481.822 171.001c.717-8.258.715-16.17 2.325-23.74 2.225-10.457 9.478-16.592 20.032-18.299 4.398-.711 8.969-1.034 13.402-.716 14.873 1.065 22.532 8.29 24.627 23.27.801 5.728.726 11.579 1.069 17.702h-20.133c0-4.971.098-10.046-.023-15.115-.176-7.403-3.126-10.817-9.326-11.076-6.55-.273-10.626 2.871-10.876 10.205-.605 17.8-.58 35.622-.7 53.436-.021 3.144.31 6.32.794 9.433 1.026 6.616 4.631 9.639 10.754 9.314 5.755-.305 9.008-3.696 9.269-10.217.225-5.622.046-11.26.046-17.123h19.747c.384 10.261.613 20.484-4.152 30.075-.732 1.473-1.7 2.906-2.838 4.087-8.925 9.253-20.225 9.26-31.64 7.431-10.26-1.644-17.31-7.879-19.957-17.956-1.544-5.88-2.114-12.12-2.32-18.225-.36-10.651-.1-21.323-.1-32.486M766.23 231.813c-1.061-6.146-2.04-11.867-3.045-17.74H744.47l-4.556 24.868h-19.075l22.32-109.776c6.332 0 12.613-.174 18.866.17 1.049.058 2.574 2.239 2.866 3.649 4.802 23.126 9.437 46.287 14.118 69.439 2.434 12.039 4.885 24.074 7.454 36.73-5.99 0-11.518.463-16.865-.317-1.387-.202-2.207-4.293-3.369-7.023m-13.672-67.671-5.894 36.057h14.245l-6.81-41.358-.79.106c-.2 1.478-.4 2.955-.75 5.195M526.29 333.608c5.761 28.244 11.428 56.074 17.228 84.562-5.803 0-11.1.194-16.363-.156-1.114-.074-2.756-1.993-3.031-3.299-1.501-7.124-2.651-14.322-3.928-21.531h-18.665l-4.5 24.711h-19.09c7.42-36.51 14.808-72.85 22.24-109.408 6.357 0 12.349-.173 18.315.144 1.202.064 3.039 1.813 3.335 3.078 1.666 7.112 2.951 14.314 4.46 21.899m-21.902 41.285-.486 4.536h14.093l-6.78-40.878-.928.151c-1.889 11.782-3.778 23.564-5.899 36.19"/><path fill="#FAFCFA" d="M870.998 129.146h16.797v14.575H862.86v31.08h19.778v14.381h-19.73v35.692h25.51v13.964h-45.95V129.146z"/><path fill="#F7F9F7" d="M648.999 308.451h18.207v14.865h-17.173v94.609h-20.387v-94.247h-18.448V308.45z"/><path fill="#FEFEFE" d="M784.339 144.164c-1.253-.798-2.67-1.554-2.722-2.394-.24-3.956-.107-7.934-.107-12.255h55.945v14.57h-17.367v94.836h-20.142v-94.752c-5.302 0-10.222 0-15.607-.005"/><path fill="#F7F9F7" d="M570.003 239.196h-17.228V129.424h19.604v95.644h26.156v14.128zM672.451 330v-21.208h19.683v109.07H672.45z"/><path fill="#FCFDFC" d="M605.914 237.84c-.064-36.378-.064-72.27-.064-108.423h19.625v110.078c-6.548-.393-13.022-.781-19.56-1.655"/><path fill="#407E45" d="M606.301 914.715c10.055 2.863 19.619 6.41 29.498 8.019 7.794 1.27 14.38-3.472 19.743-8.988 3.59-3.693 3.493-10.481.354-14.322-2.49-3.047-7.333-3.926-11.873-1.047-4.023 2.552-6.214 1.545-8.523-1.951-1.552-2.35-3.332-4.624-5.365-6.559-1.512-1.439-3.593-2.28-5.421-3.386l-1.684 1.185 5.172 18.878-1.591.93c-1.664-1.638-3.717-3.035-4.917-4.962-3.334-5.357-6.146-11.04-9.5-16.382-1.726-2.752-3.86-5.435-6.366-7.461-2.81-2.272-6.395-2.35-9.196.229-8.86 8.155-19.835 11.042-31.196 13.378-4.465.919-8.84 2.698-12.98 4.667-6.17 2.933-10.657 1.66-12.49-4.83-3.04-10.752-.83-16.863 10.35-18.48 5.703-.826 11.213-1.16 16.504 1.818 3.454 1.943 6.707 1.092 9.693-1.362 3.063-2.518 5.24-5.546 3.49-9.516-2.309-5.24.443-6.95 4.649-8.802 4.531-1.994 8.767-4.71 12.998-7.329 12.872-7.967 26.546-8.093 40.277-3.397 10.414 3.56 17.24 2.414 24.658-5.706 2.46-2.692 5.17-5.187 7.971-7.527 2.661-2.223 5.59-4.125 8.374-6.15-1.862-5.212-7.695-7.55-12.91-4.614-2.935 1.653-5.533 4.255-7.666 6.923-7.255 9.074-15.91 12.78-27.208 8.19-5.988-2.431-12.32-4.193-17.971-7.235-9.035-4.863-9.385-10.996-1.305-17.433 7.964-6.346 17.062-10.61 27.314-11.165 19.018-1.03 37.594-4.464 56.093-8.761 3.71-.862 7.91-.05 11.8.537 1.5.227 2.767 1.981 4.14 3.04-1.038 1.21-1.859 2.777-3.154 3.563-3.69 2.24-7.603 4.11-11.373 6.226-3.042 1.708-6.284 3.233-8.89 5.476-1.472 1.266-1.838 3.818-2.702 5.791 2.31.82 4.744 2.543 6.903 2.25 3.185-.433 6.342-2.002 9.216-3.612 9.284-5.203 18.48-10.57 27.618-16.027 5.106-3.049 5.2-5.767.5-9.584-3.616-2.936-7.554-5.497-11.006-8.606-4.7-4.233-7.114-9.292-5.6-16.036 1.423-6.337-.749-10.73-7.01-12.436-6.964-1.897-14.355-3.21-21.537-3.112-13.126.18-26.235 1.585-39.35 2.489-1.734.119-3.464.293-5.196.441l-.526-1.342c9.986-5.094 19.758-10.67 29.991-15.206 130.96-58.043 285.153 17.668 319.165 156.828 1.171 4.793.485 10.911-1.532 15.431-4.153 9.306-17.36 9.8-24.45 1.675-1.955-2.241-3.857-4.661-6.234-6.373-3.58-2.578-6.466-1.161-7.047 3.225-.883 6.667.465 12.816 4.18 18.566 4.146 6.418 3.657 8.315-2.539 12.673-6.727 4.731-13.937 8.168-22.147 9.87-3.367.7-7.24 3.19-9.126 6.033-6.933 10.442-9.6 21.424-1.868 33.04 3.015 4.529 5.355 9.578 7.426 14.628.726 1.77.49 5.237-.686 6.147-1.358 1.05-4.333.495-6.43-.045-1.859-.479-3.611-1.719-5.178-2.925-6.327-4.87-13.153-9.286-18.651-14.974-4.604-4.763-8.348-10.72-11.174-16.757-4.715-10.072-8.272-20.68-12.545-30.968-3.769-9.074-12.018-11.95-20.407-7.571-4.126 2.153-5.995 5.269-4.658 9.798 3.49 11.824-3.14 20.504-9.163 29.245-2.385 3.46-6.102 3.032-8.584.066-10.385-12.41-24.602-17.699-39.464-21.968-2.866-.823-5.67-1.92-8.417-3.089-8.093-3.441-13.184-9.409-14.667-18.173-1.168-6.908-4.883-11.636-11.032-15.066-8.673-4.837-17.027-10.245-25.515-15.414-1.278-.778-2.46-2.005-3.833-2.269-2.073-.398-4.273-.131-6.42-.147.301 2.083-.156 4.877 1.024 6.137 8.41 8.987 17.174 17.64 25.782 26.444 2.906 2.972 5.761 6 8.503 9.124 3.577 4.073 3.499 8.59.66 12.896-5.695 8.635-14.26 12.946-24.175 14.174-5.773.715-9.885-3.408-13.564-7.347-6.705-7.18-13.213-14.544-19.964-21.679-1.24-1.311-3.245-1.9-4.897-2.824-.491 1.836-1.537 3.718-1.387 5.5 1.36 16.158 9.435 28.43 22.496 37.597 2.845 1.998 5.987 3.615 9.112 5.166 10.368 5.145 7.672 15.396 1.742 21.491-3.481 3.578-7.12 7.002-10.691 10.493-5.787 5.657-7.945 12.71-6.971 20.503 1.515 12.118-3.82 22.792-6.547 34.016-.248 1.021-1.132 2.275-2.048 2.683-6.146 2.734-7.66 8.36-9.162 14.058-2.565 9.722-5.937 19.13-12.61 26.861-8.626 9.995-20.089 13.772-32.918 13.888-4.448.04-6.634-3.579-7.372-7.066-1.918-9.066-3.203-18.27-4.565-27.445-.46-3.098-.394-6.273-.59-9.797-5.163 1.365-6.76-2.233-7.695-5.791-1.39-5.295-2.135-10.757-3.195-16.14-1.179-5.984-3.32-7.337-9.09-5.136-4.045 1.543-5.99.684-6.152-3.76-.21-5.764-2.756-10.099-7.844-13.033-1.838-1.06-3.44-2.624-4.937-4.165-4.716-4.852-7.608-5.455-13.674-2.274-5.448 2.856-10.813 5.872-16.186 8.868-5.707 3.182-13.1.693-15.467-5.28-13.54-34.164-18.71-69.574-15.529-106.165.212-2.444 1.685-4.937 3.068-7.088 3.231-5.022 5.882-11.03 10.422-14.428 4.61-3.45 11.455-6.417 16.886-5.797 15.688 1.792 30.932 6.261 45.731 13.126"/><path fill="#407F45" d="M928.96 1112.2c-2.177.52-4.215 1.294-5.99.896-3.203-.716-6.177-2.61-9.384-3.085-2.01-.298-4.266 1.113-6.421 1.724-1.756.497-3.526.943-5.29 1.412-.459-1.766-1.047-3.512-1.33-5.306-.168-1.066.144-2.207.371-4.82-3.89 2.009-6.96 3.334-9.764 5.087-13.04 8.15-14.774 7.447-18.322-7.416-1.04-4.357-2.049-8.803-3.801-12.897-9.46-22.096 8.927-46.677 24.761-51.632 10.763-3.368 21.64-6.586 32.68-8.796 13.785-2.76 26.391-7.731 37.891-15.784 6.273-4.392 7.069-3.843 10.817 2.939 5.192 9.394 5.607 18.246.873 28.35-11.98 25.571-27.241 48.734-47.09 69.327M867.935 1156.916c-53.89 26.72-109.58 32.06-167.318 16.947-6.904-1.807-9.242-6.608-6.384-13.253 4.623-10.748 13.162-17.318 23.69-21.629 18.917-7.747 38.208-6.705 57.327-1.436 16.008 4.412 31.778 9.723 47.532 15 7.517 2.517 13.264 1.45 19.505-3.992 7.18-6.259 15.271-12.017 23.901-15.933 11.832-5.367 24.273-4.345 36.853 2.011-11.102 8.961-22.78 15.784-35.106 22.285M975.476 940.577c5.586-5.57 4.782-11.033.856-16.689-.709-1.02-.995-2.335-1.499-3.567 9.438-1.95 18.44 5.09 20.216 15.484 2.025 11.85-.86 48.464-4.738 60.132-15.141-8.26-23.19-37.715-14.835-55.36"/><path fill="#438047" d="M567.084 851.084c-3.782 3.277-7.06 6.698-10.936 9.19-2.49 1.6-5.858 1.832-8.833 2.678l-1.316-1.744c4.495-8.975 9.46-17.75 13.365-26.975 4.874-11.515 14.426-14.265 25.32-15.201 1.308-.112 2.862-.238 3.934.334 2.942 1.57 5.688 3.51 8.512 5.302-2.004 2.223-3.598 5.23-6.085 6.529-9.354 4.885-16.526 12.23-23.961 19.887M731.822 1010.208c4.905 2.764 5.307 5.465 2.567 12.389-3.648 9.219-7.177 18.486-10.732 27.742-1.84 4.792-3.476 9.67-5.505 14.38-.912 2.118-2.561 3.92-3.876 5.865l-1.718-.286c-.557-2.086-1.796-4.252-1.56-6.244 1.614-13.634 2.848-27.375 5.647-40.78 1.45-6.947 7.035-11.907 15.177-13.066M596.405 781.158c1.859-.37 3.317-.757 4.8-.92 6.224-.68 9.376 2.683 8.378 8.866-1.778 11.012-15.184 21.74-26.562 20.74-2.46-.216-5.256-2.007-6.873-3.933-.696-.83.822-4.129 2.02-5.821 3.36-4.75 6.872-9.43 10.74-13.766 1.892-2.12 4.71-3.412 7.497-5.166M816.686 970.982c3.238 2.568 6.438 4.713 8.888 7.514 2.275 2.601 1.473 5.156-1.898 6.697-5.028 2.3-16.591.55-20.04-3.703-1.069-1.319-1.221-4.472-.389-6.041 2.67-5.037 7.274-6.39 13.439-4.467M947.42 1008.327c-5.265-1.201-10.251-2.153-14.972-3.846-2.596-.93-3.299-3.499-1.921-6.248 1.992-3.976 7.074-6.847 10.984-6.13 5.369.985 13.008 7.245 12.977 11.09-.035 4.208-3.564 4.53-7.067 5.134M940.561 981.293c-2.055 4.007-8.437 5.824-12.133 2.553-3.025-2.678-5.14-7.077-6.177-11.096-.871-3.383 3.871-6.11 6.875-3.741 4.261 3.361 7.6 7.893 11.435 12.284"/><path fill="#407F45" d="M723.845 385.947c.012-17.304-.086-34.119.084-50.93.082-8.081 2.688-11.53 8.646-12.627 6.792-1.25 11.346 1.717 12.883 8.458.294 1.288.506 2.628.508 3.945.033 18.978.12 37.956-.02 56.932-.065 8.697-3.963 12.933-11.183 12.9-6.043-.026-9.648-3.205-10.578-9.715-.398-2.783-.243-5.646-.34-8.963"/><path fill="#438047" d="M752.632 163.76c.275-1.858.476-3.335.677-4.813l.79-.106 6.809 41.358h-14.245c1.994-12.196 3.944-24.127 5.97-36.438M504.505 374.47a9309 9309 0 0 0 5.783-35.768l.928-.15 6.78 40.877h-14.093c.174-1.623.33-3.08.602-4.959"/></svg>