<svg xmlns="http://www.w3.org/2000/svg" xml:space="preserve" viewBox="0 0 1500 1500"><path fill="#00689D" d="M1 551V1h1500v1500H1zm986.39 226.895c-9.87 12.746-16.966 26.85-20.413 42.438-6.744-6.513-13.532-12.648-19.831-19.249-10.086-10.569-21.905-15.26-36.482-12.256-12.17 2.508-23.022 8.123-32.56 15.64-16.329 12.87-32.088 26.47-47.891 39.991-17.394 14.883-36.632 25.922-59.55 29.518-26.772 4.201-51.07-2.923-73.935-16.447-18.112-10.712-32.73-25.518-47.706-40.005-39.9-38.599-85.59-65.899-142.242-71-16.837-1.517-33.672-1.084-51.427.837 1.149.785 1.516 1.124 1.949 1.319 16.352 7.35 26.96 20.237 34.425 36.028 9.806 20.743 15.118 42.92 20.284 65.115 5.122 22.007 9.086 44.305 17.871 65.327 11.509 27.54 27.979 51.002 53.949 66.821 16.254 9.902 34.095 15.075 54.328 17.525-2.635.757-3.84 1.225-5.09 1.443-11.26 1.964-21.942 5.633-31.7 11.563-10.096 6.133-19.879 12.778-29.9 19.036-9.01 5.627-17.688 12.1-27.334 16.328-24.763 10.857-50.83 10.501-77.047 6.662-2.12-.31-4.269-.426-6.405-.633 22.46 10.143 42.75 23.476 63.088 36.618 28.297 18.287 58.492 31.555 91.882 36.989 10.32 1.68 20.696 3.02 31.058 4.518v67.234l-219.474-4.696v47.53c37.7-.757 74.994-1.428 112.283-2.273 50.598-1.146 101.193-2.454 151.79-3.635 32.958-.77 65.916-1.531 98.877-2.106 14.791-.257 29.618-.6 44.38.114 13.112.635 26.159 2.65 39.229 4.108 11.014 1.227 22.02 2.528 33.203 3.816 0 12.004-.038 23.487.012 34.97.036 8.26 4 12.387 12.224 12.399q59.495.085 118.99.001c8.036-.011 11.93-4.018 11.934-12.012q.037-59.246-.001-118.492c-.005-7.657-4.015-11.784-11.66-11.794-39.996-.05-79.993-.053-119.99.005-7.162.01-11.409 4.37-11.482 11.63-.104 10.332-.018 20.665-.037 30.998-.004 1.605-.14 3.21-.219 4.898-16.488 1.801-32.527 3.58-48.573 5.297-10.75 1.15-21.512 3.155-32.264 3.13-27.798-.063-55.593-1.098-83.392-1.622-10.101-.19-20.21-.03-30.491-.03v-71.232c1.934-.377 3.689-.806 5.468-1.052 20.998-2.9 41.45-8.03 61.364-15.245 28.833-10.447 55.23-24.905 76.2-47.822 28.868-31.548 38.08-69.673 36.616-111.252-.647-18.384.187-36.612 5.39-54.414 8.802-30.12 37.57-52.65 67.427-52.373.81 19.092 4.75 37.644 10.933 56.111l7.959-1.071c-5.942-18.97-10.73-37.377-10.695-57.228l24.632-1.16c-7.032-5.186-13.75-10.275-20.628-15.14-2.43-1.719-2.808-3.467-2.205-6.318 3.862-18.28 12.942-33.781 25.257-47.471 12.248-13.616 24.917-26.852 37.22-40.42 3.275-3.612 5.883-7.83 8.985-12.022l-6.634-4.263c-4.503 5.643-8.497 11.19-13.043 16.241-12.695 14.104-25.618 28.003-38.906 42.535M265.066 128.472c-19.129 4.311-32.876 15.2-41.065 33.152-7.09 15.543-10.644 31.982-10.852 48.853-.508 41.307-.614 82.627-.072 123.932.145 11.003 2.142 22.272 5.155 32.89 6.978 24.588 21.06 43.25 47.14 50.225 11.547 3.087 23.306 3.474 35.17 2.504 26.94-2.203 46.708-14.602 56.567-40.432 11.607-30.41 12.645-61.684 6.082-93.291-2.744-13.214-7.857-25.644-18.126-34.867-15.16-13.614-33.424-15.183-52.537-11.796-9.286 1.645-17.36 5.892-24.1 13.613 0-14.73-.566-28.54.185-42.278.567-10.376 2.375-20.752 4.491-30.95 1.198-5.768 5.385-10.01 11.542-11.249 13-2.615 22.473 1.303 24.282 15.397.82 6.396 1.266 12.84 1.893 19.382h52.609c-1.515-11.231-2.147-22.233-4.603-32.812-5.199-22.395-19.143-36.696-41.922-41.867-16.978-3.854-33.981-3.876-51.839-.406M86.191 200.524c.91.152 1.952.671 2.71.4 11.574-4.13 23.109-8.367 34.657-12.567 1.296-.471 2.62-.867 4.559-1.505v229.374h54.418v-286.74c-11.593 0-22.896.258-34.178-.108-5.632-.183-9.596 1.924-14.315 4.918-14.262 9.049-29.24 16.985-44.101 25.056-2.69 1.46-3.923 2.678-3.865 5.86.211 11.49.086 22.984.115 35.312M956.5 1134.52h55.985c10.663-.002 21.333.205 31.99-.07 11.2-.289 18.808-8.4 18.593-19.257-.205-10.349-8.3-18.157-19.218-18.172-43.489-.061-86.977-.027-130.465-.022-5.612 0-10.507 1.877-14.23 6.113-5.19 5.905-6.486 12.688-3.385 19.967 3.287 7.718 9.483 11.364 17.74 11.415 13.997.086 27.993.025 42.99.026m94.092 203.857c9.441-4.125 14.024-12.155 12.239-21.448-1.723-8.972-9.525-14.915-19.692-14.928-16.482-.022-32.964-.006-49.445-.006-26.804 0-53.608-.059-80.412.026-12.743.04-21.423 11.128-18.442 23.267 2.246 9.145 9.54 14.213 20.738 14.22 42.12.028 84.24.026 126.36-.024 2.64-.003 5.279-.511 8.654-1.107M622.774 308.483l-4.41.226v109.394c10.854 0 21.347.286 31.818-.066 15.948-.537 25.936-7.998 27.04-23.684 1.475-20.998 1.34-42.235.058-63.257-.848-13.907-10.204-21.082-24.624-22.021-9.617-.627-19.287-.424-29.882-.592m381.551 285.428c7.825-5.6 11.248-13.819 11.5-22.838.53-18.965.69-37.975.009-56.93-.56-15.565-9.485-25.412-23.03-27.052a69 69 0 0 0-14.43-.195c-13.447 1.227-21.404 8.356-24.103 21.377a59 59 0 0 0-1.223 11.396c-.136 15.164-.427 30.343.12 45.489.23 6.346 1.87 12.795 3.846 18.88 1.914 5.898 6.376 10.167 12.395 12.212 11.656 3.96 23.17 4.061 34.916-2.339m-32.416-264.2c-4.325-15.311-11-21.329-26.642-22.354-19.873-1.302-32.99 5.309-34.414 24.495-1.595 21.48-.808 43.233.384 64.787.637 11.505 7.984 19.716 19.924 21.99 5.151.98 10.633 1.174 15.856.646 14.839-1.5 23.313-9.041 24.9-23.946 1.422-13.352 1.124-26.909 1.183-40.377.036-8.13-.695-16.264-1.19-25.241M859.173 398.5v-30.07h8.701l12.998 49.363h20.3l-14.956-53.282c9.634-4.695 12.461-13.069 12.89-22.713a85 85 0 0 0-.06-8.485c-.718-12.806-7.235-21.448-19.91-23.159-13.086-1.766-26.432-1.602-39.78-2.288v109.94h19.817zm195.863 158.053c5.174 12.429 10.298 24.879 15.592 37.256.615 1.44 2.058 3.37 3.314 3.53 3.696.473 7.492.169 11.167.169V488.214h-16.403v60.09c-1.325-2.54-2.055-3.747-2.61-5.03-7.392-17.083-14.704-34.2-22.215-51.231-.737-1.671-2.496-3.78-4.046-4.027-3.7-.59-7.559-.19-11.593-.19v109.431h17.108v-61.47l.974-.103c2.823 6.713 5.647 13.425 8.712 20.87M564.184 360.918v-4.686c1.524 1.251 2.227 2.67 2.835 4.128 6.646 15.95 13.273 31.91 19.913 47.862 4.476 10.752 4.482 10.752 16.149 9.889.312-.023.612-.233 1.17-.457V308.76h-16.665v58.489c-1.493-1.259-2.126-2.59-2.71-3.941-7.32-16.934-14.587-33.89-22.018-50.773-.696-1.58-2.283-3.67-3.685-3.864-3.859-.533-7.84-.184-11.637-.184v109.437h16.648zm-50.36 219.58v16.627h17.32v-61.999c1.373 1.48 2.119 3.077 2.794 4.704 7.452 17.955 14.858 35.93 22.403 53.846.62 1.472 2.038 3.48 3.296 3.646 3.69.489 7.488.174 11.185.174V488.214h-16.698v57.64c-1.654-1.547-2.43-3.158-3.139-4.798-7.052-16.321-14.052-32.665-21.2-48.944-.712-1.622-2.165-3.891-3.516-4.074-4.011-.544-8.144-.195-12.445-.195zM1042.176 345.5v-36.58h-17.004v57.886c-1.635-1.426-2.441-2.987-3.138-4.597-7.193-16.622-14.32-33.273-21.627-49.845-.68-1.542-2.346-3.497-3.774-3.697-3.724-.522-7.57-.176-11.556-.176v109.451h16.892v-61.816c1.315.94 1.82 2.089 2.303 3.247 7.597 18.253 15.15 36.525 22.86 54.73.666 1.576 2.22 3.67 3.605 3.876 3.67.544 7.474.185 11.44.185zM811.007 552.5v-64.26h-19.856c0 20.378-.082 40.341.04 60.303.05 8.143.163 16.318.91 24.417 1.453 15.737 9.417 23.737 24.846 25.733 18.773 2.427 31.01-4.941 34.725-21.1.777-3.38 1.26-6.908 1.281-10.372.157-25.64.167-51.28.196-76.92.001-.766-.285-1.532-.436-2.29h-19.237v5.553c0 23.811.037 47.622-.044 71.433-.01 3.304-.278 6.678-.996 9.892-1.312 5.872-5.296 9.045-10.415 8.865-5.198-.182-9.227-3.483-9.92-9.372-.812-6.908-.767-13.917-1.094-21.882m263.798-160.132c0-19.79-.266-39.584.134-59.364.159-7.873 4.4-11.21 11.386-10.816 6.637.375 9.586 3.896 9.804 11.877.098 3.582.016 7.17.016 10.56h19.68c0-2.866.136-5.357-.021-7.83-1.239-19.456-8.52-28.01-26.326-29.396-19.947-1.553-32.797 5.226-34.637 26.504-1.43 16.532-1.136 33.256-.788 49.878.147 7.003 1.696 14.191 3.868 20.887 3.25 10.022 11.507 14.144 21.504 15.094 9.138.869 16.834-1.532 21.589-10.128.078-.141.555-.06.79-.079l1.403 8.38h12.727v-55.122h-29.545v12.787h11.49c0 5.296.088 9.941-.043 14.58-.05 1.808-.444 3.644-.937 5.395-1.23 4.369-3.289 7.916-8.382 8.774-7.95 1.338-12.179-2.019-13.712-11.981M891.48 145.504c0 19.665-.281 39.336.153 58.992.152 6.877 1.255 13.977 3.355 20.515 3.78 11.77 13.81 15.044 24.91 15.42 11.509.39 22.518-1.026 28.846-12.656.946-1.738 1.853-3.63 2.171-5.551.92-5.558 2.107-11.161 2.163-16.757.237-23.663.105-47.329.091-70.994 0-1.618-.136-3.236-.219-5.075h-19.127v5.58c0 22.999.077 45.997-.066 68.995-.027 4.455-.514 8.995-1.496 13.336-1.302 5.756-4.815 8.068-10.463 7.838-5.088-.207-8.594-3.032-9.58-8.496-.765-4.233-1.138-8.591-1.159-12.896-.108-22.997-.05-45.996-.05-68.994v-5.367h-19.529zm229.275-2.197c-.208.454-.525.888-.608 1.364-1.019 5.868-2.797 11.735-2.848 17.616-.151 17.627-.165 35.29.842 52.878.6 10.476 5.599 19.374 16.376 22.96 12.01 3.995 23.949 4.102 34.638-3.931 2.149-1.615 3.704-4.26 5.014-6.706 4.94-9.226 4.017-19.24 3.902-29.328h-18.888c-.372 6.633-.418 12.956-1.167 19.194-.682 5.68-4.44 8.352-10.08 8.077-6.308-.306-9.752-3.96-9.915-11.938-.363-17.802-.337-35.612-.392-53.419-.01-2.818.134-5.683.636-8.448 1.07-5.892 5.064-8.904 10.945-8.606 5.696.288 8.62 2.914 9.063 9.155.396 5.591.083 11.233.083 16.954h19.496c0-5.873.484-11.4-.093-16.814-1.55-14.568-8.71-21.8-22.963-23.964-15.636-2.374-27.654 2.697-34.041 14.956M684.6 238.027c6.382.741 12.773 2.158 19.142 2.066 9.792-.141 17.737-4.245 21.863-13.789 3.943-9.122 3.695-18.681 3.15-28.233h-19.278c0 2.874.04 5.51-.012 8.145-.055 2.826-.097 5.659-.322 8.475-.597 7.466-3.573 10.69-9.768 10.752-6.21.062-9.998-3.1-10.326-10.308-.649-14.292-.734-28.615-.819-42.926-.04-6.644.177-13.32.81-19.93.611-6.405 4.596-9.516 10.78-9.263 6.063.247 8.964 3.19 9.275 10.02.247 5.4.05 10.82.05 16.214h20.143c-.337-6.242-.205-12.254-1.07-18.12-2.11-14.313-8.835-21.295-22.93-22.71-25.177-2.525-35.425 7.894-36.675 26.935-1.263 19.227-.777 38.62-.062 57.905.39 10.523 4.81 19.72 16.05 24.767m-29.252-30.977-15.743-77.896c-5.985 0-11.629.134-17.261-.056-2.855-.096-3.985.767-4.566 3.722-4.489 22.83-9.197 45.619-13.835 68.42-2.538 12.474-5.072 24.949-7.712 37.937 5.592 0 10.569-.161 15.529.06 3.002.134 3.936-.989 4.354-3.888 1.032-7.16 2.502-14.259 3.77-21.235h18.668l4.507 24.807h18.72c-2.094-10.551-4.13-20.806-6.43-31.871M509.352 308.48h-13.335l-22.245 109.392h19.088l4.504-24.711h18.623l4.496 24.753h18.518c-.09-1.08-.077-1.898-.236-2.681-6.781-33.393-13.75-66.75-20.2-100.207-1.057-5.488-3.007-7.513-9.213-6.547m242.131 94.829c-7.508 1.717-12.03-.782-14.259-8.43-1.137-3.902-1.509-8.026-2.305-12.487l-16.886 3.627c-.198 20.703 9.62 32.277 28.077 33.76 17.064 1.373 29.698-10.279 29.754-27.322.035-10.602-4.031-19.502-11.432-26.776-6.281-6.174-13.028-11.875-19.596-17.756-5.03-4.503-8.781-9.56-7.932-16.846.551-4.724 2.941-7.621 7.762-8.335 4.978-.737 8.593 1.184 10.06 6 1.098 3.605 1.539 7.41 2.378 11.664l16.693-3.344c-.994-18.735-8.63-28.029-23.954-29.785-16.413-1.88-29.42 6.736-31.585 21.34-1.795 12.103 1.22 22.793 10.72 31.122 6.13 5.374 12.529 10.477 18.31 16.203 3.222 3.192 6.24 7.09 7.887 11.248 2.157 5.443 2.885 11.46-3.692 16.117m-251.63-209.584c-.263-2.384.363-3.713 3.206-3.596 3.986.164 8.005.133 11.981-.179 13.186-1.033 22.024-8.662 23.521-21.621.787-6.816.33-14.032-1.018-20.777-1.884-9.42-8.201-16.38-17.847-17.162-13.155-1.066-26.46-.266-39.872-.266v108.743h20.027zm120.604 376.42c.786 6.74-1.1 11.187-5.352 12.62-4.763 1.605-9.566-.382-12.159-5.246a22 22 0 0 1-2.029-5.58c-.699-3.211-1.096-6.489-1.714-10.328l-16.917 3.479c-1.072 18.514 8.596 31.257 25.132 33.549 21.357 2.96 35.991-12.483 32.066-33.593-1.764-9.487-6.899-16.821-13.724-23.158-5.607-5.206-11.48-10.126-17.19-15.222-4.773-4.258-8.177-9.178-7.564-16.025.431-4.819 3.117-8.053 7.42-8.703 5.364-.81 8.931 1.045 10.502 6.076 1.123 3.596 1.581 7.399 2.424 11.544l16.36-3.255c.746-18.995-9.982-30.087-28.388-29.823-15.296.219-25.344 8.441-27.088 22.498-1.443 11.634 1.81 21.745 10.697 29.714 6.812 6.109 14.066 11.781 20.395 18.35 3.17 3.292 4.714 8.152 7.13 13.102m476.158-61.902c-1.865 12.302 1.686 22.69 11.042 30.974 6.23 5.516 12.548 10.932 18.778 16.447 4.503 3.985 7.534 8.847 8.35 14.909.843 6.273-1.497 11.089-5.939 12.333-5.469 1.532-10.623-1.27-12.728-7.588-1.4-4.2-1.935-8.688-2.98-13.626l-16.685 3.344c-1.244 17.969 8.195 30.811 24.443 33.5 20.003 3.312 34.337-9.62 33.17-29.814-.707-12.248-7.546-20.997-16.114-28.787-5.785-5.26-11.714-10.361-17.464-15.659-3.887-3.58-5.661-8.129-5.308-13.45.334-5.023 3.23-8.342 7.78-8.913 5.41-.68 8.646 1.174 10.233 6.441 1.08 3.587 1.57 7.353 2.361 11.228l16.178-3.219c1.032-14.101-6.418-26.56-18.208-28.785-6.178-1.166-13.017-.897-19.188.436-10 2.16-15.935 9.08-17.72 20.23m-96.443-358.575 2.395 11.61 16.593-3.448c-.097-1.865-.048-3.046-.234-4.189-1.734-10.602-5.01-20.25-16.553-23.99-8.38-2.716-16.779-2.337-24.866 1.232-7.536 3.324-12.05 9.191-13.591 17.298-2.597 13.652 1.453 24.892 12.067 33.898 6.473 5.493 12.854 11.106 19.054 16.904 4.852 4.537 7.23 10.346 6.846 17.038-.223 3.876-1.768 7.17-5.84 8.455-4.3 1.356-8.078.134-10.625-3.43-1.593-2.229-2.63-4.995-3.35-7.672-.852-3.169-1.095-6.502-1.66-10.136l-16.981 3.536c.01 24.747 14.021 36.184 35.758 33.306 11.993-1.589 20.758-11.046 21.88-23.07 1.29-13.824-4.448-24.602-14.178-33.656-5.604-5.215-11.538-10.073-17.248-15.177-4.202-3.756-7.417-8.08-7.476-14.098-.055-5.6 2.124-9.005 6.761-10.288 5.09-1.408 7.806-.142 11.248 5.877m-433 57.833v-18.392h20.36v-14.262h-20.017V143.7h25.185v-14.189H547.38v109.372h45.738v-13.969h-25.945zm621.821-65.983v97.324h46.082v-13.965h-25.59v-35.798h20.038v-14.245h-20.011v-31.087h25.388v-14.332h-45.907zm-415.503 83.64h-13.237v-36.085h19.927V174.75h-19.815v-31.094h25.368V129.45h-45.56v109.437h45.615v-13.73zm-93.634 360.317v-82.761h17.292v-14.731h-55.913v14.965h18.457v94.26h20.164zm89-24.974v-57.784h17.294V487.98h-55.918v14.961h18.452v94.269h20.172zM876.461 574.5v22.679h20.583v-94.341H914.2v-14.78h-55.925v14.958h18.186zM822.44 308.454h-45.244v15.092h17.877v94.339h20.702v-94.511h17.014v-14.92zm247.09-164.281h8.94V129.54h-56.038v14.706h18.487v94.628h20.242v-94.702zM403.193 1252.044c6.839-1.91 11.42-6.688 11.744-13.388.673-13.924.808-27.946-.093-41.846-.56-8.642-7.653-13.567-16.336-13.65-1.999-.02-3.998-.013-5.998-.003-10.083.053-17.243 6.625-17.45 16.611-.25 11.99-.231 23.993-.007 35.985.181 9.667 7.25 16.52 16.853 16.73 3.487.078 6.981-.196 11.287-.439M878.507 220.012c.117-1.66.334-3.319.335-4.978q.032-40.981-.003-81.963c-.001-1.252-.276-2.504-.42-3.727h-19.958v6.054c0 25.821.01 51.643-.005 77.465-.007 11.58-1.732 13.403-13.382 14.403-.27.024-.515.334-.845.56v13.214c23.337 2.309 32.479-2.97 34.278-21.028m60.701 267.854h-18.042v109.219h19.525c.067-1.256.149-2.08.15-2.905.006-34.1.013-68.201-.025-102.302 0-1.259-.447-2.517-1.608-4.012m165.793-253.48V129.493h-19.65v109.676c5.676 0 11.01-.185 16.324.069 3.187.152 3.629-1.378 3.326-4.852M703.821 566.5v30.713h19.715V488.19h-19.714zm-223.824-46v76.61h19.68V488.206h-19.68zm575.283 193.135c2.153-.214 4.31-.396 6.459-.649 29.115-3.428 40.652-26.795 37.674-52.155-33.48-1.9-54.023 17.09-50.831 52.98 1.898 0 3.851 0 6.698-.176m-60.456 5.02c5.158 6.888 11.67 12.147 19.144 16.278 19.31-26.597 14.14-52.96-15.496-68.55-13.228 17.628-14.716 36.4-3.648 52.271m-15.337 51.314c2.16-7.088 5.498-14.055 6.238-21.287 1.615-15.789-9.69-31.885-26.417-39.702-19.601 26.011-13.832 52.956 15.735 68.313 1.341-2.208 2.7-4.445 4.444-7.324m107.16-6.79 12.671-11.697c-20.68-20.25-45.874-20.636-64.067 5.352 16.483 15.909 33.494 18.183 51.395 6.345m-24.271 38.842c-.157-.713-.102-1.583-.5-2.116-17.068-22.827-39.798-26-62.976-5.442 3.004 3.271 5.792 6.772 9.046 9.767 10.617 9.773 22.828 13.818 36.7 8.108 6.067-2.498 11.517-6.494 17.73-10.317m-262.54-545.697c5.405-2.121 9.07-6.184 9.77-11.72.971-7.682.858-15.501 1.212-23.308h-18.593v17.701l9.16.424c.14 6.326-3.676 9.247-8.56 11.53l2.14 6.872c1.723-.465 2.979-.804 4.871-1.499"/><path fill="#FEFEFF" d="M987.618 777.62c13.06-14.257 25.983-28.156 38.678-42.26 4.546-5.05 8.54-10.598 13.043-16.241l6.634 4.263c-3.102 4.193-5.71 8.41-8.986 12.022-12.302 13.568-24.971 26.804-37.22 40.42-12.314 13.69-21.394 29.192-25.256 47.47-.603 2.852-.225 4.6 2.205 6.32 6.877 4.864 13.596 9.953 20.628 15.14l-24.632 1.16c-.035 19.85 4.753 38.257 10.695 57.227l-7.96 1.071c-6.182-18.467-10.121-37.019-10.932-56.111-29.857-.277-58.625 22.253-67.427 52.373-5.203 17.802-6.037 36.03-5.39 54.414 1.464 41.579-7.748 79.704-36.616 111.252-20.97 22.917-47.367 37.375-76.2 47.822-19.915 7.215-40.366 12.345-61.364 15.245-1.78.246-3.534.675-5.468 1.052v71.231c10.282 0 20.39-.16 30.491.03 27.799.525 55.594 1.56 83.392 1.624 10.752.024 21.514-1.98 32.264-3.131 16.046-1.717 32.085-3.496 48.573-5.297.079-1.689.215-3.293.219-4.898.02-10.333-.067-20.666.037-30.998.073-7.26 4.32-11.62 11.482-11.63 39.997-.058 79.994-.055 119.99-.005 7.645.01 11.655 4.137 11.66 11.794q.038 59.246.001 118.492c-.005 7.994-3.898 12.001-11.933 12.012q-59.496.084-118.991-.001c-8.223-.012-12.188-4.139-12.224-12.4-.05-11.482-.012-22.965-.012-34.969-11.183-1.288-22.189-2.589-33.203-3.816-13.07-1.457-26.117-3.473-39.23-4.108-14.761-.714-29.588-.371-44.38-.114-32.96.575-65.918 1.336-98.875 2.106-50.598 1.18-101.193 2.49-151.791 3.635-37.29.845-74.582 1.516-112.283 2.273v-47.53l219.474 4.696v-67.234c-10.362-1.498-20.737-2.839-31.058-4.518-33.39-5.434-63.585-18.702-91.882-36.989-20.337-13.142-40.627-26.475-63.088-36.618 2.136.207 4.285.322 6.405.633 26.217 3.84 52.284 4.195 77.047-6.662 9.646-4.228 18.325-10.701 27.334-16.328 10.021-6.258 19.804-12.903 29.9-19.036 9.758-5.93 20.44-9.599 31.7-11.563 1.25-.218 2.455-.686 5.09-1.443-20.233-2.45-38.074-7.623-54.328-17.525-25.97-15.82-42.44-39.281-53.949-66.821-8.785-21.022-12.749-43.32-17.871-65.327-5.166-22.195-10.478-44.372-20.284-65.115-7.465-15.791-18.073-28.678-34.425-36.028-.433-.195-.8-.534-1.95-1.319 17.756-1.921 34.59-2.354 51.428-.837 56.653 5.101 102.341 32.401 142.242 71 14.976 14.487 29.594 29.293 47.706 40.005 22.866 13.524 47.163 20.648 73.936 16.447 22.917-3.596 42.155-14.635 59.549-29.518 15.803-13.521 31.562-27.122 47.89-39.99 9.539-7.518 20.39-13.133 32.561-15.641 14.577-3.005 26.396 1.687 36.482 12.256 6.3 6.601 13.087 12.736 19.831 19.25 3.447-15.589 10.543-29.693 20.64-42.715m-295.456 359.006-.23-3.917h-25.026v67.085h25.256z"/><path fill="#FEFEFE" d="M265.467 128.355c17.457-3.353 34.46-3.33 51.438.523 22.779 5.171 36.723 19.472 41.922 41.867 2.456 10.579 3.088 21.58 4.603 32.812H310.82c-.627-6.542-1.072-12.986-1.893-19.382-1.809-14.094-11.283-18.012-24.282-15.397-6.157 1.239-10.344 5.481-11.542 11.25-2.116 10.197-3.924 20.573-4.49 30.949-.752 13.738-.186 27.547-.186 42.278 6.74-7.721 14.814-11.968 24.1-13.613 19.113-3.387 37.377-1.818 52.537 11.796 10.269 9.223 15.382 21.653 18.126 34.867 6.563 31.607 5.525 62.882-6.082 93.291-9.86 25.83-29.628 38.23-56.567 40.432-11.864.97-23.623.583-35.17-2.504-26.08-6.974-40.162-25.637-47.14-50.225-3.013-10.618-5.01-21.887-5.155-32.89-.542-41.305-.436-82.625.072-123.932.208-16.87 3.762-33.31 10.852-48.853 8.19-17.951 21.936-28.841 41.466-33.27m43.674 166.224c-4.533-16.283-20.598-16.813-30.454-11.268-2.983 1.678-5.735 4.081-7.95 6.697-1.454 1.716-2.431 4.4-2.462 6.666-.208 15.487-.295 30.98-.038 46.466.15 8.997 1.158 17.952 5.557 26.108 3.97 7.36 10.21 10.707 18.486 10.186 8.44-.53 13.577-5.522 15.516-13.263 1.767-7.053 2.951-14.352 3.431-21.606 1.088-16.438 1.431-32.908-2.086-49.986"/><path fill="#FDFEFE" d="M86.177 200.107c-.015-11.91.11-23.406-.1-34.894-.059-3.183 1.174-4.4 3.864-5.861 14.861-8.07 29.84-16.007 44.101-25.056 4.72-2.994 8.683-5.101 14.315-4.918 11.282.366 22.585.108 34.178.108v286.74h-54.418V186.852c-1.94.638-3.263 1.034-4.56 1.505-11.547 4.2-23.082 8.437-34.655 12.567-.76.271-1.8-.248-2.725-.817"/><path fill="#FCFDFE" d="M956 1134.519c-14.497-.001-28.493.06-42.49-.026-8.257-.051-14.453-3.697-17.74-11.415-3.101-7.279-1.805-14.062 3.384-19.967 3.724-4.236 8.619-6.112 14.23-6.113 43.489-.005 86.977-.04 130.466.022 10.918.015 19.013 7.823 19.218 18.172.215 10.857-7.392 18.968-18.593 19.257-10.657.275-21.327.068-31.99.07zM1050.224 1338.537c-3.007.435-5.646.943-8.286.946-42.12.05-84.24.052-126.36.025-11.198-.008-18.492-5.076-20.738-14.22-2.981-12.14 5.7-23.228 18.442-23.268 26.804-.085 53.608-.026 80.412-.026 16.481 0 32.963-.016 49.445.006 10.167.013 17.969 5.956 19.692 14.928 1.785 9.293-2.798 17.323-12.607 21.609M623.248 308.483c10.121.168 19.791-.035 29.408.592 14.42.939 23.776 8.114 24.624 22.021 1.282 21.022 1.417 42.259-.059 63.257-1.103 15.686-11.091 23.147-27.04 23.684-10.47.352-20.963.066-31.816.066V308.71c1.476-.076 2.943-.15 4.883-.226m32.827 89.753c.586-3.416 1.624-6.824 1.68-10.248.24-14.643.238-29.29.213-43.936-.006-3.811-.152-7.66-.697-11.424-.883-6.109-3.72-8.8-9.735-9.41-2.923-.297-5.902-.052-9.11-.052v80.349c9.4 1.315 13.652.174 17.65-5.28"/><path fill="#FAFCFD" d="M1004.013 594.097c-11.434 6.214-22.948 6.112-34.604 2.153-6.019-2.045-10.48-6.314-12.395-12.212-1.976-6.085-3.617-12.534-3.846-18.88-.547-15.146-.256-30.325-.12-45.49.034-3.805.45-7.668 1.223-11.395 2.699-13.021 10.656-20.15 24.104-21.377a69 69 0 0 1 14.43.195c13.544 1.64 22.469 11.487 23.029 27.052.682 18.955.52 37.965-.009 56.93-.252 9.02-3.675 17.238-11.812 23.024m-9.202-85.945c-2.926-5.892-6.333-7.59-12.933-6.447-4.94.856-7.275 3.731-7.994 9.968-.21 1.817-.354 3.652-.356 5.479-.027 16.83-.056 33.662.022 50.493.013 2.81.243 5.688.886 8.413 1.28 5.421 4.958 7.95 10.615 7.768 5.455-.177 8.79-2.748 9.92-8.043.55-2.581.81-5.272.822-7.914.071-16.831.075-33.663-.002-50.494-.013-2.808-.526-5.615-.98-9.223"/><path fill="#FBFDFD" d="M971.964 330.134c.441 8.554 1.172 16.688 1.136 24.818-.06 13.468.239 27.025-1.183 40.377-1.587 14.905-10.061 22.446-24.9 23.946-5.223.528-10.705.334-15.856-.647-11.94-2.273-19.287-10.484-19.924-21.99-1.192-21.553-1.979-43.306-.384-64.786 1.424-19.186 14.541-25.797 34.414-24.495 15.643 1.025 22.317 7.043 26.697 22.777M952.492 347.5c-.123-5.155.062-10.34-.445-15.457-.679-6.849-3.945-9.723-10.256-9.87-6.558-.152-9.86 2.682-11.023 9.632-.355 2.122-.567 4.294-.573 6.444-.046 16.655-.066 33.31.014 49.965.013 2.81.303 5.669.89 8.415 1.144 5.363 4.863 8.099 10.421 8.06 5.472-.039 9.214-2.907 10.287-8.276.518-2.59.644-5.29.656-7.941.062-13.324.028-26.648.029-40.972"/><path fill="#FCFDFE" d="M859.174 399v18.806h-19.817v-109.94c13.348.686 26.694.522 39.78 2.288 12.675 1.711 19.192 10.353 19.91 23.159.158 2.821.186 5.662.06 8.485-.429 9.644-3.256 18.018-12.89 22.713l14.957 53.282h-20.301l-12.998-49.363h-8.7zm10.309-76.149h-10.015v32.166c3.104 0 5.93.208 8.714-.042 6.585-.593 10.6-4.032 11.49-10.475.54-3.905.422-8-.077-11.924-.673-5.287-3.738-8.789-10.112-9.725"/><path fill="#FAFCFD" d="M1054.916 556.188c-2.944-7.079-5.768-13.791-8.591-20.504l-.974.103v61.47h-17.108V487.825c4.034 0 7.893-.4 11.593.191 1.55.247 3.31 2.356 4.046 4.027 7.51 17.03 14.823 34.148 22.214 51.23.556 1.284 1.286 2.492 2.611 5.03v-60.09h16.403v109.295c-3.675 0-7.47.304-11.167-.169-1.256-.16-2.699-2.09-3.314-3.53-5.294-12.377-10.418-24.827-15.713-37.621"/><path fill="#F9FBFD" d="M564.184 361.368v56.555h-16.648V308.486c3.798 0 7.778-.349 11.637.184 1.402.194 2.99 2.284 3.685 3.864 7.431 16.884 14.698 33.84 22.017 50.773.585 1.351 1.218 2.682 2.71 3.941v-58.489h16.666v108.896c-.558.224-.858.434-1.17.457-11.667.863-11.673.863-16.149-9.889-6.64-15.953-13.267-31.911-19.913-47.862-.608-1.458-1.31-2.877-2.835-4.128z"/><path fill="#FCFDFE" d="M513.824 579.999v-92.156c4.301 0 8.434-.349 12.445.195 1.351.183 2.804 2.452 3.516 4.074 7.148 16.279 14.148 32.623 21.2 48.944.709 1.64 1.485 3.25 3.14 4.797v-57.64h16.697v109.284c-3.697 0-7.494.315-11.185-.174-1.258-.167-2.677-2.174-3.296-3.646-7.545-17.916-14.951-35.89-22.403-53.846-.675-1.627-1.421-3.224-2.794-4.704v61.999h-17.32zM1042.176 346v72.164c-3.965 0-7.769.36-11.44-.185-1.385-.206-2.938-2.3-3.605-3.875-7.709-18.206-15.262-36.478-22.86-54.731-.481-1.158-.987-2.307-2.302-3.247v61.816h-16.892v-109.45c3.986 0 7.832-.347 11.556.175 1.428.2 3.094 2.155 3.774 3.697 7.307 16.572 14.434 33.223 21.627 49.845.697 1.61 1.503 3.171 3.138 4.597V308.92h17.004z"/><path fill="#FAFCFD" d="M811.008 552.999c.327 7.465.282 14.474 1.095 21.382.692 5.89 4.721 9.19 9.919 9.372 5.119.18 9.103-2.993 10.415-8.865.718-3.214.985-6.588.996-9.892.08-23.81.043-47.622.043-71.433v-5.553h19.238c.15.758.437 1.524.436 2.29-.03 25.64-.04 51.28-.196 76.92-.021 3.464-.504 6.991-1.281 10.373-3.714 16.158-15.952 23.526-34.725 21.099-15.43-1.996-23.393-9.996-24.845-25.733-.748-8.099-.862-16.274-.911-24.417-.122-19.962-.04-39.925-.04-60.304h19.856z"/><path fill="#FBFDFD" d="M1074.845 392.798c1.494 9.531 5.722 12.888 13.673 11.55 5.093-.858 7.152-4.405 8.382-8.774.493-1.751.886-3.587.937-5.395.13-4.639.044-9.284.044-14.58h-11.491v-12.787h29.545v55.122h-12.727l-1.403-8.38c-.235.019-.712-.062-.79.079-4.755 8.596-12.451 10.997-21.59 10.128-9.996-.95-18.253-5.072-21.503-15.094-2.172-6.696-3.721-13.884-3.868-20.887-.348-16.622-.642-33.346.788-49.878 1.84-21.278 14.69-28.057 34.637-26.504 17.805 1.387 25.087 9.94 26.326 29.395.157 2.474.021 4.965.021 7.83h-19.68c0-3.39.082-6.977-.016-10.56-.218-7.98-3.167-11.501-9.804-11.876-6.985-.394-11.227 2.943-11.386 10.816-.4 19.78-.133 39.575-.095 59.795M891.48 145.005v-15.61h19.527v5.366c0 22.998-.057 45.997.051 68.994.02 4.305.394 8.663 1.158 12.896.987 5.464 4.493 8.29 9.581 8.496 5.648.23 9.161-2.082 10.463-7.838.982-4.341 1.469-8.88 1.496-13.336.143-22.998.066-45.996.066-68.995v-5.58h19.127c.083 1.84.218 3.457.22 5.075.013 23.665.145 47.331-.092 70.994-.056 5.596-1.243 11.2-2.163 16.757-.318 1.921-1.225 3.813-2.17 5.55-6.33 11.631-17.338 13.046-28.847 12.657-11.1-.376-21.13-3.65-24.91-15.42-2.1-6.538-3.203-13.638-3.355-20.515-.434-19.656-.153-39.327-.153-59.49"/><path fill="#F9FCFD" d="M1120.89 142.953c6.251-11.905 18.269-16.976 33.905-14.602 14.254 2.164 21.413 9.396 22.963 23.964.577 5.414.093 10.94.093 16.814h-19.496c0-5.721.313-11.363-.083-16.954-.442-6.241-3.367-8.867-9.063-9.155-5.881-.298-9.876 2.714-10.945 8.606-.502 2.765-.645 5.63-.636 8.448.055 17.807.03 35.617.392 53.419.163 7.979 3.607 11.632 9.914 11.938 5.641.275 9.4-2.398 10.081-8.077.75-6.238.795-12.561 1.167-19.194h18.888c.115 10.088 1.039 20.102-3.902 29.328-1.31 2.447-2.865 5.091-5.014 6.706-10.689 8.033-22.628 7.926-34.638 3.93-10.777-3.585-15.776-12.483-16.376-22.96-1.007-17.587-.993-35.25-.842-52.877.05-5.88 1.83-11.748 2.848-17.616.083-.476.4-.91.744-1.718"/><path fill="#FAFCFD" d="M684.243 237.887c-10.882-4.906-15.302-14.104-15.692-24.627-.715-19.284-1.2-38.678.062-57.905 1.25-19.041 11.498-29.46 36.676-26.934 14.094 1.414 20.82 8.396 22.93 22.71.864 5.865.732 11.877 1.07 18.119h-20.144c0-5.395.197-10.815-.05-16.215-.31-6.83-3.212-9.772-9.275-10.02-6.184-.252-10.169 2.86-10.78 9.264-.633 6.61-.85 13.286-.81 19.93.085 14.311.17 28.634.82 42.926.327 7.208 4.114 10.37 10.325 10.308 6.195-.062 9.17-3.286 9.768-10.752.225-2.816.267-5.649.322-8.475.052-2.635.012-5.271.012-8.145h19.277c.546 9.552.794 19.111-3.149 28.233-4.126 9.544-12.071 13.648-21.863 13.79-6.369.09-12.76-1.326-19.499-2.207"/><path fill="#FBFDFD" d="M655.481 207.455c2.169 10.66 4.205 20.915 6.3 31.466h-18.72l-4.508-24.807h-18.668c-1.268 6.976-2.738 14.074-3.77 21.235-.418 2.9-1.352 4.022-4.354 3.888-4.96-.221-9.937-.06-15.529-.06 2.64-12.988 5.174-25.463 7.712-37.936 4.638-22.802 9.346-45.59 13.835-68.421.581-2.955 1.711-3.818 4.566-3.722 5.632.19 11.276.056 17.261.056 5.29 26.17 10.516 52.033 15.875 78.301m-25.403-45.463-.41-2.568-.955-.037-6.702 40.892h14.335c-2.09-12.703-4.133-25.124-6.268-38.287M509.823 308.48c5.736-.967 7.686 1.058 8.744 6.546 6.449 33.457 13.418 66.814 20.199 100.207.159.783.145 1.601.236 2.681h-18.518l-4.496-24.753h-18.623l-4.504 24.711h-19.088l22.245-109.393zm-8.78 61.103-1.358 9.996h14.17l-6.83-41.482-.768.12c-1.707 10.164-3.413 20.328-5.214 31.366"/><path fill="#FAFCFD" d="M751.856 403.153c6.205-4.501 5.477-10.52 3.32-15.962-1.648-4.158-4.665-8.056-7.887-11.248-5.781-5.726-12.18-10.829-18.31-16.203-9.5-8.329-12.515-19.019-10.72-31.121 2.165-14.605 15.172-23.22 31.585-21.34 15.325 1.755 22.96 11.05 23.954 29.784l-16.693 3.344c-.84-4.253-1.28-8.059-2.378-11.664-1.467-4.816-5.082-6.737-10.06-6-4.82.714-7.21 3.61-7.762 8.335-.85 7.285 2.901 12.343 7.932 16.846 6.568 5.88 13.315 11.582 19.596 17.756 7.401 7.274 11.467 16.174 11.432 26.776-.056 17.043-12.69 28.695-29.754 27.323-18.457-1.484-28.275-13.058-28.077-33.761l16.886-3.627c.796 4.461 1.168 8.585 2.305 12.486 2.229 7.65 6.75 10.148 14.631 8.276"/><path fill="#F9FBFD" d="M499.853 194.203v44.663h-20.028V130.123c13.411 0 26.717-.8 39.872.266 9.646.782 15.963 7.742 17.847 17.162 1.349 6.745 1.805 13.96 1.018 20.777-1.497 12.96-10.335 20.588-23.52 21.621-3.977.312-7.996.343-11.982.179-2.843-.117-3.469 1.212-3.207 4.075m20.253-37.47c-.687-11.77-5.18-14.58-19.856-12.374v31.487c17.15.695 19.921-1.895 19.856-19.112"/><path fill="#FBFDFD" d="M620.39 569.743c-2.348-4.55-3.891-9.41-7.062-12.701-6.329-6.57-13.583-12.242-20.395-18.351-8.886-7.969-12.14-18.08-10.697-29.714 1.744-14.057 11.792-22.28 27.088-22.498 18.406-.264 29.134 10.828 28.387 29.823l-16.359 3.255c-.843-4.145-1.3-7.948-2.424-11.544-1.57-5.031-5.138-6.886-10.502-6.076-4.303.65-6.989 3.884-7.42 8.703-.613 6.847 2.79 11.767 7.563 16.025 5.711 5.096 11.584 10.016 17.19 15.222 6.826 6.337 11.96 13.67 13.725 23.158 3.925 21.11-10.709 36.553-32.066 33.593-16.536-2.292-26.204-15.035-25.132-33.549l16.917-3.479c.618 3.839 1.015 7.117 1.714 10.329a22 22 0 0 0 2.03 5.579c2.592 4.864 7.395 6.85 12.158 5.246 4.252-1.433 6.138-5.88 5.285-13.02M1096.714 507.822c1.688-10.73 7.623-17.65 17.623-19.81 6.17-1.333 13.01-1.602 19.188-.436 11.79 2.225 19.24 14.684 18.208 28.785l-16.178 3.22c-.792-3.876-1.28-7.642-2.361-11.229-1.587-5.267-4.824-7.12-10.234-6.441-4.55.57-7.445 3.89-7.779 8.913-.353 5.321 1.421 9.87 5.308 13.45 5.75 5.298 11.68 10.4 17.464 15.66 8.568 7.79 15.407 16.538 16.114 28.786 1.167 20.194-13.167 33.126-33.17 29.815-16.248-2.69-25.687-15.532-24.443-33.5l16.686-3.345c1.044 4.938 1.58 9.426 2.979 13.626 2.105 6.318 7.26 9.12 12.728 7.588 4.442-1.244 6.782-6.06 5.938-12.333-.815-6.062-3.846-10.924-8.349-14.91-6.23-5.514-12.548-10.93-18.778-16.446-9.356-8.285-12.907-18.672-10.944-31.393M1000.05 149.29c-3.318-5.642-6.034-6.908-11.124-5.5-4.637 1.283-6.816 4.688-6.76 10.288.058 6.017 3.273 10.342 7.475 14.098 5.71 5.104 11.644 9.962 17.248 15.177 9.73 9.054 15.468 19.832 14.178 33.655-1.122 12.025-9.887 21.482-21.88 23.07-21.737 2.88-35.747-8.558-35.758-33.305l16.981-3.536c.565 3.634.808 6.967 1.66 10.136.72 2.677 1.757 5.443 3.35 7.672 2.547 3.564 6.325 4.786 10.626 3.43 4.071-1.284 5.616-4.58 5.839-8.455.385-6.692-1.994-12.501-6.846-17.038-6.2-5.798-12.58-11.411-19.054-16.904-10.614-9.006-14.664-20.246-12.067-33.898 1.542-8.107 6.055-13.974 13.59-17.298 8.088-3.569 16.487-3.948 24.867-1.232 11.542 3.74 14.82 13.388 16.553 23.99.186 1.143.137 2.324.234 4.189l-16.593 3.448c-.865-4.192-1.63-7.9-2.518-11.986"/><path fill="#FCFDFE" d="M567.174 208v16.914h25.945v13.969H547.38V129.51h45.32v14.19h-25.184v31.145h20.017v14.262h-20.36zM1188.995 141.021v-11.607h45.907v14.332h-25.388v31.087h20.011v14.245h-20.038v35.798h25.59v13.965h-46.082zM773.986 225.157h11.804v13.73h-45.615V129.45h45.56v14.206h-25.368v31.094h19.815v14.322h-19.927v36.085z"/><path fill="#F6FAFC" d="M679.858 585.968v11.239h-20.164v-94.26h-18.457v-14.965h55.913v14.73h-17.292zM768.858 561v36.21h-20.172v-94.268h-18.452v-14.961h55.918v14.735h-17.294zM876.461 574v-70.984h-18.186v-14.957H914.2v14.779h-17.156v94.34h-20.583z"/><path fill="#F5F9FB" d="M822.925 308.454h9.863v14.92h-17.014v94.51h-20.702v-94.338h-17.877v-15.092z"/><path fill="#FDFEFE" d="M1069.049 144.173h-7.889v94.702h-20.242v-94.628h-18.487v-14.706h56.038v14.632z"/><path fill="#FCFDFE" d="M402.786 1252.108c-3.899.179-7.393.453-10.88.376-9.604-.212-16.672-7.064-16.853-16.73-.224-11.993-.244-23.995.006-35.986.208-9.986 7.368-16.558 17.451-16.61 2-.011 3.999-.018 5.998.001 8.683.084 15.776 5.01 16.336 13.651.9 13.9.766 27.922.093 41.846-.324 6.7-4.905 11.479-12.151 13.452"/><path fill="#F6FAFC" d="M878.434 220.455c-1.726 17.616-10.868 22.894-34.205 20.585v-13.213c.33-.227.575-.537.845-.56 11.65-1 13.375-2.825 13.382-14.404.016-25.822.005-51.644.005-77.465v-6.054h19.958c.144 1.223.419 2.475.42 3.727q.035 40.98.003 81.963c-.001 1.66-.218 3.319-.408 5.42"/><path fill="#FBFDFD" d="M939.67 487.984c.7 1.377 1.145 2.635 1.146 3.894.038 34.1.03 68.201.024 102.302 0 .824-.082 1.649-.149 2.905h-19.525v-109.22c5.897 0 11.97 0 18.504.119"/><path fill="#FEFEFF" d="M1105.001 234.873c.303 2.987-.14 4.517-3.326 4.365-5.314-.254-10.648-.07-16.325-.07V129.494h19.651z"/><path fill="#FBFDFD" d="M703.822 566v-77.81h19.714v109.023h-19.714z"/><path fill="#FEFEFF" d="M479.998 520v-31.794h19.68V597.11h-19.68z"/><path fill="#FCFDFE" d="M1054.834 713.723c-2.4.088-4.353.088-6.251.088-3.192-35.89 17.35-54.88 50.83-52.98 2.98 25.36-8.558 48.727-37.673 52.155-2.149.253-4.306.435-6.906.737M994.6 718.376c-10.843-15.593-9.355-34.365 3.873-51.993 29.637 15.59 34.806 41.953 15.496 68.55-7.473-4.131-13.986-9.39-19.37-16.557M979.296 770.289c-1.552 2.558-2.91 4.795-4.252 7.003-29.567-15.357-35.336-42.302-15.735-68.313 16.727 7.817 28.032 23.913 26.417 39.702-.74 7.232-4.078 14.2-6.43 21.608M1086.365 763.402c-17.619 11.614-34.63 9.34-51.113-6.57 18.193-25.987 43.387-25.6 64.067-5.351a3955 3955 0 0 1-12.954 11.921M1062.135 802.274c-5.972 3.57-11.422 7.565-17.49 10.063-13.871 5.71-26.082 1.665-36.699-8.108-3.254-2.995-6.042-6.496-9.046-9.767 23.178-20.557 45.908-17.385 62.976 5.442.398.533.343 1.403.259 2.37"/><path fill="#F6FAFC" d="M799.518 256.501c-1.574.517-2.83.856-4.552 1.32l-2.142-6.872c4.885-2.282 8.702-5.203 8.56-11.53l-9.159-.423v-17.701h18.593c-.354 7.807-.24 15.626-1.212 23.309-.7 5.535-4.365 9.598-10.088 11.897"/><path fill="#00689D" d="M692.161 1137.114v62.68h-25.256v-67.086h25.026c.06 1.033.145 2.475.23 4.406"/><path fill="#02699E" d="M309.252 294.967c3.406 16.689 3.063 33.16 1.975 49.597-.48 7.254-1.664 14.553-3.43 21.606-1.94 7.741-7.076 12.732-15.517 13.263-8.277.521-14.515-2.826-18.486-10.186-4.399-8.156-5.408-17.111-5.557-26.108-.257-15.485-.17-30.98.038-46.466.03-2.266 1.008-4.95 2.461-6.666 2.216-2.616 4.968-5.02 7.951-6.697 9.856-5.545 25.921-5.015 30.565 11.657"/><path fill="#036A9E" d="M655.92 398.601c-3.842 5.088-8.095 6.23-17.494 4.914v-80.35c3.208 0 6.187-.244 9.11.052 6.014.61 8.852 3.302 9.735 9.41.545 3.765.69 7.614.697 11.425.025 14.646.027 29.293-.213 43.936-.056 3.424-1.094 6.832-1.835 10.613M994.897 508.552c.368 3.208.881 6.015.894 8.823.077 16.831.073 33.663.002 50.494-.011 2.642-.271 5.333-.822 7.914-1.13 5.295-4.465 7.866-9.92 8.043-5.657.182-9.335-2.347-10.615-7.768-.643-2.725-.873-5.603-.886-8.413-.078-16.83-.05-33.662-.022-50.493.002-1.827.146-3.662.356-5.479.719-6.237 3.053-9.112 7.994-9.968 6.6-1.143 10.007.555 13.02 6.847M952.492 348.001c0 13.824.033 27.148-.03 40.472-.011 2.651-.137 5.352-.655 7.94-1.073 5.37-4.815 8.238-10.287 8.277-5.558.039-9.277-2.697-10.422-8.06a41.5 41.5 0 0 1-.89-8.415c-.08-16.655-.06-33.31-.013-49.965.006-2.15.218-4.322.573-6.444 1.163-6.95 4.465-9.784 11.023-9.632 6.311.147 9.577 3.021 10.256 9.87.507 5.117.322 10.302.445 15.957M869.89 322.91c5.968.877 9.033 4.38 9.706 9.666.5 3.923.617 8.019.077 11.924-.89 6.443-4.905 9.882-11.49 10.475-2.784.25-5.61.042-8.714.042V322.85c3.452 0 6.733 0 10.42.06"/><path fill="#1071A3" d="M630.124 162.362c2.09 12.793 4.132 25.214 6.222 37.917H622.01l6.702-40.892.955.037c.137.856.273 1.712.456 2.938M501.09 369.145c1.754-10.601 3.46-20.765 5.167-30.928l.768-.121 6.83 41.482h-14.17c.475-3.5.917-6.748 1.405-10.433"/><path fill="#02699E" d="M520.126 157.194c.045 16.757-2.727 19.347-19.876 18.652V144.36c14.676-2.207 19.169.605 19.876 12.835"/></svg>