<svg xmlns="http://www.w3.org/2000/svg" xml:space="preserve" viewBox="0 0 1500 1500"><path fill="#19486A" d="M1 549V1h1500v1500H1zm770.358 35.087c-14.277.704-28.848-.185-42.782 2.38-73.512 13.534-124.436 55.408-152.809 124.585-1.124 2.742-2.277 4.008-5.584 4.236-49.036 3.377-91.727 21.57-126.596 56.397-46.095 46.04-65.203 102.033-57.119 166.487 6.43 51.26 30.949 93.223 70.644 126.24 2.59 2.154 3.085 3.868 2.236 7.103-7.33 27.93-8.377 56.109-3.562 84.631 15.59 92.338 98.515 162.569 192.59 162.66 39.432.037 75.859-10.545 108.929-32.168 2.608-1.705 4.35-1.818 7.027-.128 39.12 24.698 81.755 34.609 127.728 29.569 45.875-5.03 85.625-23.827 117.546-56.906 51.07-52.923 67.742-115.993 51.188-187.684-.805-3.486-.183-5.213 2.437-7.499 59.854-52.236 83.587-117.708 66.867-195.366-18.68-86.761-91.954-147.62-180.641-153.336-3.43-.22-4.317-1.705-5.422-4.335-32.086-76.304-89.256-118.696-172.677-126.866M242.5 129.484h-24.986v42.165h77.5l-60.137 244.864c17.261 0 33.905.074 50.545-.151 1.245-.017 3.24-1.992 3.577-3.375 18.395-75.572 36.331-151.257 55.145-226.723 4.671-18.736 4.978-37.337 4.455-56.78zM129.83 354.5v61.626h54.93V129.49c-11.373 0-22.519.271-33.642-.109-5.958-.204-10.27 1.95-15.281 5.124-14.271 9.041-29.345 16.811-44.033 25.205-1.46.836-3.455 2.496-3.482 3.81-.264 12.624-.158 25.255-.158 38.481l41.666-14.961zm689.03 8v-53.679h-20.546v45.05h-21.88V308.74h-20.043v109.158h20.252v-48.695h21.984v48.612h20.232zm80.3-135.02 3.11 11.28h20.121c-.385-1.576-.629-2.706-.94-3.818-4.246-15.2-8.432-30.418-12.82-45.578-.793-2.742-.484-4.006 1.89-6.111 3.44-3.052 7.07-7.103 8.127-11.349 1.608-6.462 1.727-13.495 1.313-20.214-.655-10.623-6.843-17.59-17.031-20.314-13.824-3.696-27.973-1.86-42.109-2.227v109.654h19.92v-49.138c8.385-1.126 8.35-1.117 10.221 6.146 2.653 10.296 5.364 20.577 8.198 31.668m142.445 11.7h17.172V129.4h-20.014v45.364h-22.133v-45.357h-19.838v109.493h20.11v-48.93h21.918c0 15.25-.05 30.056.078 44.86.013 1.449 1.125 2.888 2.707 4.348m-55.691 162.327c4.031 12.55 13.471 17.463 25.808 18.131 20.232 1.096 32.914-6.89 34.258-27.19 1.217-18.38 1.431-36.942.377-55.325-1.146-19.98-9.09-28.148-26.89-29.68-20.479-1.761-34.441 5.586-35.557 28.227-.898 18.236-.288 36.553-.103 54.831.034 3.42 1.22 6.83 2.107 11.006M546.96 417.74c3.926.693 7.842 1.922 11.778 1.988 17.559.294 31.618-4.999 33.139-28.114 1.243-18.9.871-37.978.002-56.922-.794-17.298-9.831-26.075-27.147-27.317-20.382-1.46-33.735 5.723-34.942 27.408-1.117 20.06-.527 40.279.49 60.368.506 10.008 5.672 18.406 16.68 22.59m94.349-12.49c.9 3.37 1.646 6.794 2.784 10.081.388 1.12 1.729 2.666 2.69 2.706 5.956.25 11.929.126 18.297.126l-15.084-53.766c6.47-2.938 10.751-7.812 11.613-14.346.945-7.158 1.146-14.592.344-21.757-.993-8.876-6.763-14.695-15.276-17.3-14.293-4.375-28.934-1.895-43.369-2.483v109.3h19.996v-49.481c8.258-.347 8.292-.356 10.276 7.174 2.54 9.643 5.02 19.303 7.729 29.747m15.448-271.592c-15.395-7.104-31.655-3.527-47.555-4.622v109.78h20.09v-49.323h8.334c4.1 15.577 8.081 30.861 12.212 46.105.357 1.32 1.65 3.345 2.592 3.394 6.055.309 12.133.157 18.56.157-5.17-18.422-10.136-36.125-15.134-53.938 8.62-3.89 11.876-11.002 12.664-19.356 1.154-12.223 1.196-24.248-11.763-32.197m101.17 15.879c-2.53-5.784-4.964-11.612-7.665-17.315-.593-1.252-2.065-2.811-3.256-2.925-3.892-.37-7.841-.139-11.674-.139v109.68h17.034v-61.76c1.419 1.351 2.068 2.83 2.69 4.32 7.545 18.086 15.05 36.189 22.701 54.23.595 1.403 2.103 3.218 3.375 3.382 3.575.463 7.249.162 11.086.162V129.457h-16.521v58.772l-.984.202c-5.525-12.72-11.05-25.44-16.787-38.892m198.066 233.916c-.264 3.64-.154 7.355-.87 10.904-1.531 7.594-5.164 10.511-11.834 10.189-6.338-.307-10.071-3.538-10.22-11.143-.401-20.455-.35-40.926-.003-61.383.113-6.665 4.438-9.944 10.793-9.838 6.466.109 9.713 3.363 10.214 10.372.292 4.081.451 8.172.664 12.148h19.103c0-2.933.116-5.573-.019-8.2-.975-18.991-8.702-27.868-26.584-29.145-19.195-1.37-32.623 4.817-34.259 26.363-1.458 19.198-.557 38.58-.48 57.88.013 3.098.936 6.259 1.83 9.274 3.185 10.761 10.138 17.242 21.53 18.689 9.985 1.268 18.417-.883 23.776-10.945l1.652 9.203h12.518V362.76h-29.286v12.839h11.475zm115.831-65.36-20.392 99.696h19.135l4.47-24.577h18.643l4.457 24.537h18.797l-22.176-109.27h-12.03c-9.092 0-9.092 0-10.904 9.614M542.905 203.239c-2.405 11.81-4.81 23.62-7.263 35.658h19.056l4.563-24.808h18.662l4.432 24.828h18.847l-22.207-109.502h-21.099c-4.988 24.455-9.936 48.72-14.99 73.824m621.294-28.707c3.08-9.138 2.84-18.443.448-27.56-2.443-9.316-8.72-15.995-18.382-16.7-13.018-.95-26.158-.235-39.49-.235v108.88h20.182v-48.925c5.388 0 10.221.359 14.982-.075 9.874-.9 17.927-4.89 22.26-15.385m-177.149 31.025c-1.96-10.204-8.364-17.534-15.727-24.22-5.789-5.255-11.7-10.377-17.443-15.68-3.615-3.338-5.232-7.59-5.039-12.55.217-5.59 2.868-8.825 8.108-9.703 4.675-.783 8.491 1.642 10.007 6.885.993 3.434 1.368 7.048 2.089 10.959l18.009-3.538c-2.235-6.67-3.762-13.137-6.608-18.96-1.546-3.163-4.925-6.103-8.186-7.63-10.607-4.966-21.327-4.324-31.496 1.588-5.28 3.07-8.519 7.895-9.824 13.844-2.933 13.367-.171 25.078 10.42 34.377 6.375 5.598 12.835 11.102 19.122 16.8 5.588 5.064 8.651 11.313 7.854 19.054-.387 3.755-1.981 6.7-5.922 7.77-4.11 1.114-7.727.046-10.268-3.265-1.469-1.914-2.511-4.33-3.126-6.683-.948-3.626-1.363-7.39-2.059-11.408l-17.241 3.72c.944 12.538 2.952 24.197 14.987 30.109 11.087 5.446 22.711 5.63 33.095-1.974 9.712-7.114 11.316-17.433 9.248-29.495m186.436 16.34c5.782 14.587 16.646 20.463 33.603 18.176 12.56-1.695 21.367-11.904 21.994-24.55.723-14.54-6.237-25.078-16.478-34.187-5.843-5.197-11.726-10.354-17.467-15.663-3.905-3.611-5.515-8.263-5.057-13.541.445-5.116 3.575-8.386 8.596-8.789 4.75-.38 8.086 1.83 9.36 6.462.995 3.623 1.556 7.364 2.399 11.483l16.632-3.435c-.849-17.737-8.142-27.262-22.102-29.551-17.722-2.907-31.854 6.553-33.676 22.772-1.333 11.865 2.282 22.008 11.407 29.969 6.27 5.47 12.628 10.843 18.809 16.413 5.436 4.9 8.693 10.965 8.25 18.475-.238 4.033-1.76 7.556-6.213 8.66-4.542 1.124-8.323-.282-10.77-4.26-1.28-2.077-2.2-4.48-2.779-6.86-.801-3.293-1.129-6.702-1.696-10.296l-17.777 3.828c.956 5.065 1.814 9.61 2.965 14.895M479.47 208.5v30.414h20.496v-48.922c5.393 0 10.216.288 14.994-.056 13.38-.96 22.294-8.884 23.692-22.016.694-6.516.327-13.38-.938-19.815-1.933-9.83-8.32-16.996-18.425-17.807-13.009-1.044-26.165-.254-39.82-.254zm695.78 190.637c.172.469.35.936.516 1.407 5.388 15.29 19.078 22.25 36.098 18.352 13.4-3.07 20.884-15.12 19.403-30.577-1.153-12.031-8.143-20.42-16.56-28.043-5.673-5.139-11.926-9.755-16.917-15.48-2.805-3.217-4.445-8.092-5.04-12.435-.764-5.567 2.676-9.011 7.795-9.7 5.237-.707 8.797 1.632 10.271 7.194.879 3.315 1.224 6.771 1.88 10.574l16.526-3.3c-.266-17.941-7.978-27.734-23.005-29.762-15.848-2.139-29.375 5.947-31.958 19.574-2.463 12.991.587 24.413 10.959 33.339 6.307 5.427 12.58 10.896 18.77 16.456 5.616 5.044 9.124 11.307 7.867 18.958-.46 2.805-2.764 6.107-5.197 7.593-3.235 1.974-7.349 1.077-9.98-1.99-1.775-2.069-3.146-4.722-3.937-7.343-1.087-3.606-1.454-7.43-2.198-11.535l-17.39 3.693c.686 4.418 1.293 8.328 2.097 13.025M859.55 353.992h-8.124v-31.197h25.494v-14.07H831.34v109.223h45.853v-13.912h-25.677v-35.672h20.092v-14.372zm-33.703-181.656v-28.654h25.688v-14.16H806.06V238.94h45.677v-13.832H826.21v-36.054h19.709v-14.061c-5.548 0-10.85.11-16.142-.077-1.321-.047-2.609-1.048-3.929-2.58M479.452 349.5v68.325h20.691v-49.487h19.444v-14.26h-19.375v-31.706h24.29v-13.584h-45.05zM705.5 129.14h-32.088v15.152h18.083v94.695h20.369v-94.836h17.353v-15.01zm4.856 194.393c4.142-.506 3.458 2.428 3.458 4.862q.002 41.976.001 83.954v5.525h20.124v-94.57h17.616v-14.522h-56.212v14.749c4.806 0 9.426 0 15.013.002m422.269 94.658h37.161v-14.203h-26.104V308.88h-19.84v109.312zm-59.627-190.708v11.376h19.635V129.407h-19.635z"/><path fill="#FEFEFE" d="M771.837 584.115c82.942 8.142 140.112 50.534 172.198 126.838 1.105 2.63 1.992 4.114 5.422 4.335 88.687 5.715 161.961 66.575 180.64 153.336 16.72 77.658-7.012 143.13-66.866 195.366-2.62 2.286-3.242 4.013-2.437 7.5 16.554 71.69-.117 134.76-51.188 187.683-31.921 33.079-71.67 51.876-117.546 56.906-45.973 5.04-88.609-4.871-127.728-29.569-2.677-1.69-4.42-1.577-7.027.128-33.07 21.623-69.497 32.205-108.93 32.167-94.074-.09-177-70.321-192.589-162.659-4.815-28.522-3.768-56.702 3.562-84.631.849-3.235.354-4.95-2.236-7.104-39.695-33.016-64.214-74.978-70.644-126.24-8.084-64.453 11.024-120.446 57.12-166.486 34.868-34.828 77.559-53.02 126.595-56.397 3.307-.228 4.46-1.494 5.584-4.236 28.373-69.177 79.297-111.05 152.81-124.585 13.933-2.565 28.504-1.676 43.26-2.352M644.274 725.166c52.307 18.317 90.497 52.616 115.551 102.564 30.54-59.67 78.263-96.439 143.597-109.982-22.04-52.044-78.362-96.496-149.522-93.922-66.646 2.41-118.25 46.882-137.267 93.741 8.947 2.464 17.91 4.931 27.64 7.6M518.62 768.052q-1.582.74-3.164 1.474c-90.366 41.852-119.385 156.49-59.595 235.994 6.052 8.049 13.166 15.298 20.13 23.312 16.03-28.985 36.811-52.006 63.119-69.982 26.25-17.938 55.3-28.6 87.39-32.793-48.18-46.998-68.902-103.411-62.277-170.17-15.871 1.724-30.673 5.672-45.603 12.165m204.308 492.408 5.364-3.037c-45-49.114-62.512-106.43-52.23-172.653-28.195 15.2-57.76 23.217-89.219 24.07-31.637.858-61.732-5.701-90.525-19.225-.48 1.807-1 3.22-1.22 4.676-8.523 56.084 7.263 104.201 48.664 143.004 46.822 43.884 117.723 55.257 179.166 23.165m371.387-366.201c-9.706-84.979-82.101-134.7-138.636-137.732 6.47 65.56-13.85 121.495-60.978 168.181 66.475 10.316 115.965 44.696 149.508 103.03 37.79-36.632 54.942-80.44 50.106-133.48m-87.009 302.487c18.457-33.64 23.959-69.243 16.793-107.182-61.178 27.37-121.07 25.788-180.552-4.59 10.608 65.643-6.268 122.692-50.256 171.933.706.515 1.185.955 1.739 1.256 31.35 17.03 64.762 23.222 99.9 17.262 49.412-8.382 86.58-34.944 112.376-78.68m.324-151.739c-49.834-87.878-151.743-97.633-209.632-63.183 44.214 87.76 147.85 106.538 212.457 68.678-.824-1.599-1.654-3.208-2.825-5.495M720.925 1169.52c8.093 24.2 21.228 45.187 39.52 63.02 63.963-62.324 59.897-166.112-1.314-222.552-37.377 35.176-58.497 98.077-38.206 159.532m-141.382-100.52c68.901.887 121.253-42.685 141.652-86.464-74.075-40.891-174.563-9.222-211.04 68.884 16.691 9.925 45.413 17.306 69.388 17.58m157.478-179.41c-11.16-77.919-76.428-126.375-131.858-132.2-14.847 79.993 43.302 165.965 131.362 178.214 2.74-15.014 2.77-30.052.496-46.014m154.622-127.493c-85.098 27.406-120.41 110.988-108.06 173.455 93.593-13.188 146.403-105.943 130.595-179.054a5313 5313 0 0 1-22.535 5.599"/><path fill="#FCFDFD" d="M243 129.484H348.6c.523 19.443.216 38.044-4.455 56.78-18.814 75.466-36.75 151.151-55.145 226.723-.336 1.383-2.332 3.358-3.577 3.375-16.64.225-33.284.15-50.545.15l60.137-244.863h-77.5v-42.165z"/><path fill="#FEFEFE" d="M129.83 354V187.04l-41.666 14.962c0-13.226-.106-25.857.158-38.481.027-1.314 2.021-2.974 3.482-3.81 14.688-8.394 29.762-16.164 44.033-25.205 5.01-3.174 9.323-5.328 15.281-5.124 11.123.38 22.269.11 33.641.11v286.634H129.83z"/><path fill="#F7F8FA" d="M818.86 363v54.814h-20.233v-48.612h-21.984v48.695H756.39V308.74h20.043v45.133h21.88V308.82h20.545z"/><path fill="#F9FAFB" d="M899.085 227.077c-2.76-10.69-5.471-20.97-8.124-31.266-1.87-7.263-1.836-7.272-10.22-6.146v49.138h-19.92V129.149c14.135.366 28.284-1.469 42.108 2.227 10.188 2.724 16.376 9.69 17.03 20.314.415 6.719.296 13.752-1.312 20.214-1.056 4.246-4.686 8.297-8.127 11.349-2.374 2.105-2.683 3.37-1.89 6.111 4.388 15.16 8.574 30.378 12.82 45.578.311 1.112.555 2.242.94 3.819H902.27c-1.003-3.637-2.056-7.46-3.184-11.684m.108-56.592c3.011-5.979 3.163-12.384 1.245-18.466-.923-2.927-3.717-6.254-6.483-7.373-3.915-1.583-8.588-1.29-13.245-1.836v33.271c6.679.022 13.21.806 18.483-5.596"/><path fill="#FAFBFC" d="M1041.114 239.17c-1.092-1.451-2.204-2.89-2.217-4.339-.128-14.804-.078-29.61-.078-44.86H1016.9v48.93h-20.11V129.408h19.838v45.357h22.133v-45.364h20.014V239.18c-5.683 0-11.427 0-17.662-.008"/><path fill="#FBFCFC" d="M985.796 401.125c-.77-3.796-1.956-7.204-1.99-10.625-.185-18.278-.795-36.595.103-54.831 1.116-22.641 15.078-29.988 35.557-28.227 17.8 1.532 25.744 9.7 26.89 29.68 1.054 18.383.84 36.945-.377 55.324-1.344 20.3-14.026 28.287-34.258 27.191-12.337-.668-21.777-5.581-25.925-18.512m37.76-.159c.814-2.67 1.671-5.328 2.42-8.017.217-.784.168-1.655.168-2.486.007-18.164.066-36.327-.036-54.49-.028-5.06-.467-10.279-5.913-12.787-7.22-3.326-14.29.426-15.857 8.223-.26 1.295-.316 2.649-.317 3.975-.019 18.83-.092 37.66.048 56.49.033 4.534.686 9.346 5.48 11.504 4.655 2.095 9.411 1.986 14.006-2.412M546.612 417.562c-10.66-4.005-15.826-12.403-16.332-22.411-1.017-20.09-1.607-40.308-.49-60.368 1.207-21.685 14.56-28.869 34.942-27.408 17.316 1.242 26.353 10.019 27.147 27.317.869 18.944 1.24 38.023-.002 56.922-1.521 23.115-15.58 28.408-33.14 28.114-3.935-.066-7.851-1.295-12.125-2.166m3.233-71.059c0 14.317-.025 28.634.025 42.95.008 2.317.082 4.692.588 6.935 1.264 5.605 4.711 8.265 10.258 8.296 5.645.032 9.005-2.459 10.375-8.074.584-2.394.854-4.92.864-7.389.072-17.313.059-34.626.011-51.94-.005-2.145-.155-4.339-.616-6.427-1.393-6.313-5.12-9.067-11.388-8.667-5.93.379-9.266 3.48-9.85 9.847-.41 4.46-.2 8.979-.267 14.47"/><path fill="#FCFDFD" d="M641.207 404.856c-2.607-10.048-5.086-19.708-7.627-29.35-1.984-7.53-2.018-7.522-10.276-7.175v49.482h-19.996V308.512c14.435.588 29.076-1.892 43.37 2.483 8.512 2.605 14.282 8.424 15.275 17.3.802 7.165.6 14.6-.344 21.757-.862 6.534-5.143 11.408-11.613 14.346l15.084 53.766c-6.368 0-12.34.124-18.298-.126-.96-.04-2.301-1.586-2.689-2.706-1.138-3.287-1.884-6.71-2.886-10.476m2.43-71.576c-2.511-9.508-6.97-11.82-20.331-10.409v32.032c16.655 1.198 21.443-3.479 20.575-19.784-.017-.331-.07-.66-.243-1.839"/><path fill="#FDFDFE" d="M657.093 133.82c12.623 7.789 12.58 19.814 11.427 32.037-.788 8.354-4.045 15.466-12.664 19.356l15.133 53.938c-6.426 0-12.504.152-18.559-.157-.942-.049-2.235-2.074-2.592-3.394-4.13-15.244-8.112-30.528-12.212-46.105h-8.334v49.324h-20.09v-109.78c15.9 1.094 32.16-2.483 47.89 4.78m-28.09 33.642v8.606c7.068-.059 14.447 1.242 18.343-5.607 4.057-7.133 4.166-15.332-.268-22.317-4.046-6.374-11.283-4.705-18.075-4.935z"/><path fill="#FBFCFC" d="M758.032 149.906c5.631 13.086 11.156 25.805 16.68 38.525l.985-.202v-58.772h16.52v109.717c-3.836 0-7.51.3-11.085-.162-1.272-.164-2.78-1.98-3.375-3.382-7.651-18.041-15.156-36.144-22.701-54.23-.622-1.49-1.271-2.969-2.69-4.32v61.76h-17.034V129.16c3.833 0 7.782-.232 11.674.14 1.191.113 2.663 1.672 3.256 2.924 2.7 5.703 5.135 11.531 7.77 17.682M955.992 382.969v-7.371h-11.475v-12.839h29.286v55.064h-12.518l-1.652-9.203c-5.36 10.062-13.791 12.213-23.775 10.945-11.393-1.447-18.346-7.928-21.532-18.689-.893-3.015-1.816-6.176-1.828-9.273-.078-19.3-.979-38.683.48-57.88 1.635-21.547 15.063-27.734 34.258-26.364 17.882 1.277 25.61 10.154 26.584 29.145.135 2.627.019 5.267.019 8.2h-19.103c-.213-3.976-.372-8.067-.664-12.148-.501-7.009-3.748-10.263-10.214-10.372-6.355-.106-10.68 3.173-10.793 9.838-.348 20.457-.398 40.928.003 61.383.149 7.605 3.882 10.836 10.22 11.143 6.67.322 10.303-2.595 11.834-10.189.716-3.549.606-7.264.87-11.39"/><path fill="#FCFCFD" d="M1071.882 317.678c1.753-9.198 1.753-9.198 10.845-9.198h12.03l22.176 109.271h-18.797l-4.457-24.537h-18.643l-4.47 24.577h-19.135c6.824-33.362 13.608-66.53 20.451-100.113m8.104 44.714-2.766 17.142h14.247l-6.714-41.447-.743-.057c-1.317 7.83-2.634 15.658-4.024 24.362M542.958 202.819c5.002-24.685 9.95-48.949 14.938-73.404h21.099l22.207 109.502h-18.847l-4.432-24.828h-18.662l-4.563 24.808h-19.056c2.452-12.039 4.858-23.848 7.316-36.078M574.291 192l-5.396-33.31q-.39.043-.778.087l-6.647 41.341h14.06c-.392-2.727-.72-5.01-1.24-8.118"/><path fill="#F9FAFB" d="M1164.09 174.908c-4.223 10.118-12.276 14.11-22.15 15.01-4.76.433-9.594.074-14.982.074v48.924h-20.182v-108.88c13.332 0 26.472-.713 39.49.236 9.662.705 15.94 7.384 18.382 16.7 2.391 9.117 2.633 18.422-.558 27.936m-16.941-13.533c0-15.956-1.867-17.813-17.644-17.51-.777.015-1.552.169-2.427.27v31.38c14.637 1.903 19.507-1.347 20.07-14.14"/><path fill="#FBFCFC" d="M987.111 205.982c2.008 11.637.404 21.956-9.308 29.07-10.384 7.605-22.008 7.42-33.095 1.974-12.035-5.912-14.043-17.571-14.987-30.11l17.241-3.719c.696 4.018 1.111 7.782 2.06 11.408.614 2.352 1.656 4.77 3.125 6.683 2.541 3.31 6.158 4.38 10.268 3.264 3.94-1.068 5.535-4.014 5.922-7.769.797-7.74-2.266-13.99-7.854-19.055-6.287-5.697-12.747-11.201-19.123-16.8-10.59-9.298-13.352-21.009-10.42-34.376 1.306-5.949 4.545-10.774 9.825-13.844 10.169-5.912 20.89-6.554 31.496-1.588 3.26 1.527 6.64 4.467 8.186 7.63 2.846 5.823 4.373 12.29 6.608 18.96l-18.01 3.538c-.72-3.911-1.095-7.525-2.088-10.959-1.516-5.243-5.332-7.668-10.007-6.885-5.24.878-7.89 4.112-8.108 9.703-.193 4.96 1.424 9.212 5.039 12.55 5.744 5.303 11.654 10.425 17.443 15.68 7.363 6.686 13.768 14.016 15.787 24.645M1173.34 221.527c-1.004-4.915-1.862-9.46-2.818-14.524l17.777-3.828c.567 3.594.895 7.003 1.696 10.296.58 2.38 1.5 4.783 2.778 6.86 2.448 3.978 6.229 5.384 10.771 4.26 4.452-1.104 5.975-4.627 6.213-8.66.443-7.51-2.814-13.576-8.25-18.475-6.18-5.57-12.538-10.943-18.809-16.413-9.125-7.96-12.74-18.104-11.407-29.97 1.822-16.218 15.954-25.678 33.676-22.771 13.96 2.29 21.253 11.814 22.102 29.551l-16.632 3.435c-.843-4.119-1.404-7.86-2.4-11.483-1.273-4.632-4.609-6.843-9.359-6.462-5.021.403-8.15 3.673-8.596 8.789-.458 5.278 1.152 9.93 5.057 13.541 5.741 5.31 11.624 10.466 17.467 15.663 10.24 9.109 17.2 19.646 16.478 34.187-.627 12.646-9.433 22.855-21.994 24.55-16.957 2.287-27.82-3.589-33.75-18.546"/><path fill="#F9FAFB" d="M479.469 208v-77.956c13.654 0 26.81-.79 39.819.254 10.105.811 16.492 7.977 18.425 17.807 1.265 6.435 1.632 13.299.938 19.815-1.398 13.132-10.311 21.056-23.692 22.016-4.778.344-9.6.056-14.994.056v48.922h-20.496zm37.537-61.54c-5.156-4.031-11.035-2.3-16.914-2.47v32.315c4.366-.426 8.591-.3 12.457-1.416 2.383-.688 5.434-2.91 6.078-5.072 2.252-7.559 2.933-15.352-1.621-23.357"/><path fill="#FBFCFC" d="M1175.149 398.743c-.705-4.303-1.312-8.213-1.997-12.63l17.389-3.694c.744 4.106 1.111 7.929 2.198 11.535.79 2.621 2.162 5.274 3.937 7.344 2.631 3.066 6.745 3.963 9.98 1.989 2.433-1.486 4.736-4.788 5.197-7.593 1.257-7.65-2.251-13.914-7.866-18.958-6.19-5.56-12.464-11.029-18.771-16.456-10.372-8.926-13.422-20.348-10.959-33.34 2.583-13.626 16.11-21.712 31.958-19.573 15.027 2.028 22.74 11.82 23.005 29.763l-16.526 3.3c-.656-3.804-1.001-7.26-1.88-10.575-1.474-5.562-5.034-7.9-10.271-7.195-5.119.69-8.559 4.134-7.795 9.701.595 4.343 2.235 9.218 5.04 12.435 4.99 5.725 11.244 10.341 16.917 15.48 8.417 7.623 15.407 16.012 16.56 28.043 1.481 15.458-6.002 27.507-19.403 30.577-17.02 3.898-30.71-3.062-36.098-18.352-.166-.471-.344-.938-.615-1.8M860.04 353.992h11.568v14.372h-20.092v35.672h25.677v13.912H831.34V308.725h45.58v14.07h-25.493v31.197z"/><path fill="#FCFCFD" d="M825.857 172.821c1.311 1.047 2.599 2.048 3.92 2.095 5.292.186 10.594.077 16.142.077v14.06H826.21v36.055h25.528v13.832h-45.677V129.522h45.475v14.16h-25.688c0 9.808 0 19.23.009 29.139"/><path fill="#F5F7F9" d="M479.452 349v-40.212h45.05v13.584h-24.29v31.707h19.375v14.259h-19.444v49.487h-20.691z"/><path fill="#F7F8FA" d="M706 129.14h23.217v15.011h-17.353v94.836h-20.369v-94.695h-18.083V129.14z"/><path fill="#F9FAFB" d="m709.873 323.533-14.53-.001v-14.75h56.212v14.523h-17.616v94.57h-20.124v-5.525l-.001-83.954c0-2.434.684-5.368-3.941-4.863"/><path fill="#F7F8FA" d="M1132.148 418.192h-8.306V308.88h19.84v95.109h26.104v14.203z"/><path fill="#FEFEFE" d="M1072.998 226.987v-97.58h19.635V238.86h-19.635z"/><path fill="#1A486A" d="M643.89 725.066c-9.347-2.568-18.31-5.035-27.257-7.499 19.016-46.859 70.62-91.33 137.267-93.741 71.16-2.574 127.482 41.878 149.522 93.922-65.334 13.543-113.057 50.313-143.597 109.982-25.054-49.948-63.244-84.247-115.935-102.664M518.98 767.932c14.57-6.372 29.372-10.32 45.243-12.044-6.625 66.759 14.096 123.172 62.276 170.17-32.089 4.193-61.138 14.855-87.39 32.793-26.307 17.976-47.088 40.997-63.118 69.982-6.964-8.014-14.078-15.263-20.13-23.312-59.79-79.504-30.77-194.142 59.595-235.994 1.055-.489 2.109-.982 3.524-1.595"/><path fill="#19486A" d="M722.619 1260.663c-61.134 31.89-132.035 20.517-178.857-23.367-41.4-38.803-57.187-86.92-48.665-143.004.222-1.457.74-2.869 1.22-4.676 28.794 13.524 58.889 20.083 90.526 19.225 31.46-.853 61.024-8.87 89.219-24.07-10.282 66.222 7.23 123.54 52.23 172.653a624 624 0 0 0-5.673 3.239"/><path fill="#1A486A" d="M1094.385 894.709c4.766 52.59-12.386 96.398-50.176 133.03-33.543-58.334-83.033-92.714-149.508-103.03 47.129-46.686 67.449-102.62 60.978-168.181 56.535 3.033 128.93 52.753 138.706 138.18"/><path fill="#19486A" d="M1007.133 1197.07c-25.623 43.41-62.791 69.973-112.203 78.355-35.138 5.96-68.55-.232-99.9-17.262-.554-.301-1.033-.74-1.74-1.256 43.99-49.24 60.865-106.29 50.257-171.933 59.482 30.378 119.374 31.96 180.552 4.59 7.166 37.94 1.664 73.542-16.966 107.505"/><path fill="#1A496B" d="M1007.8 1045.345c1 1.948 1.83 3.557 2.655 5.156-64.607 37.86-168.243 19.082-212.457-68.678 57.889-34.45 159.798-24.695 209.803 63.522M720.811 1169.138c-20.177-61.074.943-123.975 38.32-159.15 61.21 56.439 65.277 160.227 1.315 222.551-18.293-17.833-31.428-38.82-39.635-63.4M579.055 1068.999c-23.487-.274-52.209-7.655-68.9-17.58 36.477-78.106 136.965-109.775 211.04-68.884-20.399 43.78-72.75 87.351-142.14 86.464M737.084 890.03c2.21 15.521 2.182 30.56-.559 45.573-88.06-12.249-146.209-98.22-131.362-178.215 55.43 5.826 120.697 54.282 131.921 132.643M892.038 762.015a10055 10055 0 0 0 22.14-5.518c15.808 73.11-37.002 165.866-130.596 179.054-12.35-62.467 22.963-146.049 108.456-173.536"/><path fill="#235070" d="M899.006 170.82c-5.086 6.067-11.617 5.283-18.296 5.261V142.81c4.657.545 9.33.253 13.245 1.836 2.766 1.119 5.56 4.446 6.483 7.373 1.918 6.082 1.766 12.487-1.432 18.8"/><path fill="#1A496B" d="M1023.286 401.266c-4.326 4.098-9.082 4.207-13.737 2.112-4.794-2.158-5.447-6.97-5.48-11.504-.14-18.83-.067-37.66-.048-56.49.001-1.326.057-2.68.317-3.975 1.567-7.797 8.636-11.55 15.857-8.223 5.446 2.508 5.885 7.728 5.913 12.787.102 18.163.043 36.326.036 54.49 0 .83.05 1.702-.169 2.486a109 109 0 0 1-2.689 8.317M549.845 346.004c.067-4.991-.143-9.51.267-13.97.584-6.367 3.92-9.468 9.85-9.847 6.267-.4 9.995 2.354 11.388 8.667.46 2.088.61 4.282.616 6.428.048 17.313.06 34.626-.01 51.94-.011 2.467-.281 4.994-.865 7.388-1.37 5.615-4.73 8.106-10.375 8.074-5.547-.031-8.994-2.691-10.258-8.296-.506-2.243-.58-4.618-.588-6.934-.05-14.317-.025-28.634-.025-43.45M643.706 333.704c.104.755.158 1.084.175 1.415.868 16.305-3.92 20.982-20.575 19.784v-32.032c13.36-1.41 17.82.901 20.4 10.833M629.002 166.965v-23.757c6.792.23 14.029-1.439 18.075 4.935 4.434 6.985 4.325 15.184.268 22.317-3.896 6.85-11.275 5.548-18.343 5.607z"/><path fill="#235070" d="M1080.022 361.954a5521 5521 0 0 1 3.988-23.924l.743.057 6.714 41.447h-14.247a3206 3206 0 0 0 2.802-17.58M574.386 192.413c.424 2.695.752 4.978 1.144 7.705h-14.06l6.647-41.341.778-.088c1.799 11.104 3.597 22.207 5.491 33.724"/><path fill="#1A496B" d="M1147.148 161.84c-.563 12.328-5.433 15.578-20.07 13.674v-31.38c.875-.1 1.65-.254 2.427-.269 15.777-.303 17.644 1.554 17.643 17.974M517.266 146.764c4.294 7.701 3.613 15.494 1.361 23.053-.644 2.161-3.695 4.384-6.078 5.072-3.866 1.117-8.09.99-12.457 1.416v-32.314c5.879.17 11.758-1.562 17.174 2.773"/></svg>