<svg xmlns="http://www.w3.org/2000/svg" xml:space="preserve" viewBox="0 0 1500 1500"><path fill="#DDA83A" d="M1501 570v930.961H1.101V1.163H1501zM441.5 966.162c-35.5 0-71-.032-106.499.021-10.207.015-14.344 4.962-12.48 14.961 1.525 8.177 3.05 16.378 5.133 24.423 24.692 95.396 80.384 168.417 161.53 222.867 32.413 21.75 67.498 38.11 104.699 49.88 3.398 1.075 4.348 2.658 4.187 5.999-.263 5.487-.15 10.998-.047 16.496.12 6.418 3.774 10.2 10.139 10.672 1.16.087 2.332.047 3.498.047q121.25.003 242.5 0c1.167 0 2.337.038 3.5-.039 6.786-.444 10.278-4.1 10.335-10.92.053-6.334.2-12.676-.073-18.997-.14-3.234 1.091-4.43 4-5.631 19.676-8.123 39.856-15.323 58.727-25.045 79.018-40.708 139.274-100.222 177.698-180.945 13.748-28.883 22.94-59.237 28.373-90.739 1.231-7.139-2.512-12.072-9.73-12.897-2.141-.245-4.326-.148-6.49-.148-226-.006-452-.005-679-.005M205.954 244.395c-2.52 4.117-4.955 8.29-7.577 12.34-25.332 39.133-50.702 78.24-76.025 117.379-.968 1.495-2.208 3.221-2.233 4.856-.188 12.304-.102 24.612-.102 37.138h146.38v-43.073h-84.6c6.56-9.872 12.618-18.962 18.647-28.072 18.653-28.19 37.607-56.186 55.834-84.648 13.164-20.554 19.762-43.175 17.707-67.882-1.703-20.484-8.006-38.786-24.851-51.99-8.841-6.931-19.055-10.798-30.047-12.707-15.264-2.65-30.476-2.558-45.628.918-18.992 4.356-33.061 15.107-42.159 32.338-11.055 20.939-12.1 43.476-11.05 66.4h52.92c0-4.266-.413-8.14.081-11.893 1.276-9.679 2.035-19.568 4.713-28.881 3.01-10.466 12.165-15.383 22.972-14.412 9.605.862 15.869 7.027 17.934 17.89.558 2.929.82 5.94.931 8.924.61 16.439-5.082 31.002-13.847 45.375m381.07 554.043c-17.665-23.131-23.193-49.323-19.379-77.771 3.443-25.682 13.079-49.066 26.902-70.825 6.303-9.92 4.377-20.84-4.994-27.772-12.208-9.033-30.591-6.232-38.866 6.46a244 244 0 0 0-14.527 25.584c-13.01 26.49-20.817 54.415-20.616 84.106.241 35.855 13.164 66.799 37.093 93.423 6.205 6.903 11.964 14.36 16.919 22.2 11.175 17.685 16.717 36.987 13.329 58.045-1.174 7.299-3.535 14.407-5.442 21.953 15.385 0 30.7-.222 46 .131 4.809.11 6.577-1.415 7.621-6 7.401-32.496 2.303-63.1-15.079-91.177-8.272-13.363-18.937-25.243-28.96-38.357m278.15 28.883c5.691 6.956 11.853 13.583 16.982 20.932 13.505 19.348 20.766 40.579 16.763 64.485-1.168 6.978-3.483 13.764-5.386 21.075 16.658 0 33.269.082 49.874-.18 1.13-.017 2.83-2.444 3.238-4.017 4.365-16.84 5.09-33.86 1.8-50.978-5.35-27.85-19.282-51.253-38.172-71.83-23.866-25.999-31.392-56.464-25.75-90.668 3.956-23.99 13.27-45.938 26.296-66.377 5.282-8.287 4.904-16.87-1.032-24.049-10.499-12.7-33.209-11.572-42.705 2.404-12.345 18.168-21.487 37.944-27.619 59.009-14.754 50.687-9.403 97.845 25.71 140.194M748.28 656.831q2.376-3.815 4.756-7.628c5.718-9.15 3.991-19.562-4.37-26.34-12.254-9.932-31.239-7.318-40.056 5.826-12.804 19.089-22.257 39.815-28.281 61.97-13.45 49.468-7.46 95.338 26.057 135.872 6.15 7.438 12.738 14.587 18.2 22.506 13.08 18.964 20.15 39.784 16.328 63.142-1.168 7.144-3.498 14.099-5.326 21.258.314.093.755.337 1.197.338 15.829.035 31.659-.045 47.486.136 3.288.038 3.83-1.888 4.404-4.21 4.545-18.403 5.038-36.87.789-55.39-6.133-26.732-20.357-48.946-38.511-68.989-18.686-20.629-27.282-44.884-26.174-72.71 1.08-27.124 10.128-51.726 23.5-75.78M508.443 139.555v99.2h20.43v-49.028c8.222-1.151 8.204-1.146 10.08 6.1 3.375 13.039 6.724 26.085 10.23 39.089.415 1.536 1.678 3.975 2.67 4.037 6.039.378 12.112.188 18.586.188-.526-2.167-.798-3.45-1.15-4.712-4.201-15.053-8.34-30.124-12.69-45.133-.828-2.854-.089-4.068 2.084-6.127 3.356-3.181 6.926-7.199 8.006-11.469 1.592-6.296 1.79-13.18 1.3-19.716-.852-11.347-7.104-19.11-18.27-20.73-13.372-1.942-27.018-2.01-41.275-2.935zm265.11 272.73v-43.57c8.282-1.05 8.288-1.051 10.073 5.77 3.785 14.464 7.565 28.93 11.352 43.415h20.278c-.705-2.604-1.285-4.818-1.903-7.02-3.957-14.096-8.005-28.167-11.77-42.314-.428-1.612.102-4.574 1.24-5.33 7.28-4.842 9.767-11.916 10.303-20.074 1.549-23.589-6.264-32.87-29.873-34.464-9.878-.666-19.84-.11-29.805-.11V417.87h19.8c.112-1.707.208-3.174.305-5.584M630.896 236.539c8.39-4.94 12.442-13.013 12.754-22.015.695-20.11 1.108-40.305-.005-60.375-.93-16.78-11.095-25.172-27.894-26.068-22.34-1.192-33.77 8.993-34.593 31.436-.452 12.31-.256 24.648-.12 36.971.074 6.643.074 13.369 1.106 19.9 1.854 11.743 7.747 20.57 20.27 23.078 9.476 1.898 18.87 1.74 28.482-2.927m-41.91 110.96V367c-1.614-1.22-2.302-2.51-2.88-3.847-6.8-15.723-13.905-31.326-20.205-47.248-2.346-5.93-5.346-8.103-11.661-7.653-4.378.312-5.935 1.139-5.905 5.856.207 32.803.105 65.607.121 98.412.001 1.763.177 3.526.27 5.245h17.39v-60.58c1.27 1.032 1.76 2.08 2.204 3.146 7.481 17.959 14.914 35.938 22.51 53.847.662 1.56 2.252 3.583 3.657 3.8 3.526.547 7.193.181 11.007.181V308.775h-16.507zm-151.992 25.19v45.17h19.83v-109h-20.09v44.94h-21.714v-45.001h-19.859v108.998h19.987v-48.943c6.665 0 12.804-.13 18.926.13 1.009.042 1.945 1.786 2.92 3.706m34.992-18.19c.048 11.498-.312 23.015.233 34.49.979 20.62 9.442 29.979 28.576 30.691 20.562.766 28.651-7.025 31.886-23.002.82-4.052 1.104-8.272 1.123-12.417.103-23.332.055-46.664.04-69.996-.002-1.764-.15-3.528-.234-5.37h-19.466v5.906c0 23.165.082 46.33-.072 69.495a58.7 58.7 0 0 1-1.627 13.302c-1.099 4.542-4.624 6.761-9.33 6.792-4.888.032-8.361-2.244-9.847-6.912a29.7 29.7 0 0 1-1.345-7.84c-.267-7.323-.337-14.655-.355-21.984-.043-18.166.004-36.331-.043-54.497-.005-1.983.813-4.682-2.74-4.684-5.46-.004-10.92-.001-16.799-.001zm196.57-43.697c-7.959-3.782-16.297-4.189-24.895-3.074-11.557 1.5-18.792 7.872-21.84 18.987-.918 3.348-1.737 6.84-1.81 10.283-.336 15.654-.672 31.318-.403 46.969.105 6.075 1.242 12.282 2.909 18.146 2.665 9.378 8.973 15.317 18.89 17.068 10.047 1.775 18.957.586 25.043-8.81.082-.126.574.013.874.03 2.006 8.459 4.307 9.582 14.456 6.96v-54.556h-29.526v12.755c2.888 0 5.558-.267 8.13.116 1.23.184 3.288 1.658 3.244 2.451-.368 6.609-.58 13.316-1.97 19.749-1.065 4.937-5.554 6.96-10.966 6.66-5.183-.289-9.286-2.92-9.383-7.936-.43-22.265-.448-44.545-.02-66.81.045-2.36 3.556-5.681 6.195-6.765 7.072-2.904 13.07.867 14.122 8.438.607 4.366.466 8.836.66 13.25h19.661c-.639-6.1-.914-11.887-1.923-17.543-1.212-6.8-4.555-12.471-11.449-16.368m-181.11-181.659H451.46v109.647h46.048v-13.765h-25.928c0-11.313.042-21.956-.028-32.599-.018-2.767 1.413-3.306 3.78-3.266 5.427.09 10.857.029 16.305.029v-14.401h-19.765v-30.885h25.317v-14.76zm208.752 286.99c.771.668 1.538 1.912 2.314 1.918 14.46.117 28.922.086 43.643.086v-14.221H716.55v-35.56h19.93v-14.612h-19.96v-30.94h25.356v-13.918h-45.718c0 35.73 0 71.018.039 107.248M413.253 162.616c-6.951 19.768-14.15 39.454-20.686 59.359-1.73 5.268-1.411 11.21-2.035 16.855h50.203v-13.674h-30.108c.79-2.425 1.307-4.133 1.902-5.813 8.986-25.396 18.104-50.747 26.858-76.223 1.436-4.181 1.285-8.908 1.893-13.573h-48.83v7.3c.006 6.695.007 6.698 6.769 6.702 6.583.003 13.167 0 20.622 0-2.325 6.791-4.303 12.569-6.588 19.067"/><path fill="#FFF" d="M442 966.162c226.5 0 452.5 0 678.5.005 2.164 0 4.349-.097 6.49.148 7.218.825 10.961 5.758 9.73 12.897-5.433 31.502-14.625 61.856-28.373 90.739-38.424 80.723-98.68 140.237-177.698 180.945-18.87 9.722-39.05 16.922-58.726 25.045-2.91 1.201-4.14 2.397-4.001 5.63.272 6.322.126 12.664.073 18.997-.057 6.821-3.549 10.477-10.336 10.921-1.162.077-2.332.04-3.499.04h-242.5c-1.166 0-2.337.039-3.498-.048-6.365-.472-10.02-4.254-10.14-10.672-.102-5.498-.215-11.009.048-16.496.16-3.341-.789-4.924-4.187-6-37.2-11.769-72.286-28.13-104.7-49.88-81.145-54.449-136.837-127.47-161.53-222.866-2.082-8.045-3.607-16.246-5.132-24.423-1.864-10 2.273-14.946 12.48-14.961 35.5-.053 71-.021 107-.021"/><path fill="#FFFEFD" d="M206.13 244.075c8.589-14.053 14.281-28.616 13.671-45.055-.11-2.984-.373-5.995-.93-8.924-2.066-10.863-8.33-17.028-17.935-17.89-10.807-.97-19.962 3.946-22.972 14.412-2.678 9.313-3.437 19.202-4.713 28.881-.494 3.754-.08 7.627-.08 11.893H120.25c-1.05-22.924-.005-45.461 11.05-66.4 9.098-17.23 23.167-27.982 42.16-32.338 15.15-3.476 30.363-3.569 45.627-.918 10.992 1.909 21.206 5.776 30.047 12.706 16.845 13.205 23.148 31.507 24.851 51.991 2.055 24.707-4.543 47.328-17.707 67.882-18.227 28.462-37.181 56.459-55.834 84.648-6.029 9.11-12.088 18.2-18.647 28.072h84.6v43.073h-146.38c0-12.526-.086-24.834.102-37.138.025-1.635 1.265-3.36 2.233-4.856 25.323-39.139 50.693-78.246 76.025-117.379 2.622-4.05 5.056-8.223 7.754-12.66"/><path fill="#FFFEFE" d="M587.245 798.72c9.803 12.832 20.468 24.712 28.74 38.075 17.382 28.077 22.48 58.681 15.08 91.176-1.045 4.586-2.813 6.112-7.621 6.001-15.301-.353-30.616-.13-46.001-.13 1.907-7.547 4.268-14.655 5.442-21.954 3.388-21.058-2.154-40.36-13.33-58.045-4.954-7.84-10.713-15.297-16.918-22.2-23.93-26.624-36.852-57.568-37.093-93.423-.2-29.691 7.607-57.617 20.616-84.106a244 244 0 0 1 14.527-25.583c8.275-12.693 26.658-15.494 38.866-6.461 9.37 6.933 11.297 17.852 4.994 27.772-13.823 21.759-23.459 45.143-26.902 70.825-3.814 28.448 1.714 54.64 19.6 78.052M864.95 827.047c-34.889-42.075-40.24-89.233-25.486-139.92 6.132-21.065 15.274-40.841 27.619-59.01 9.496-13.975 32.206-15.102 42.705-2.403 5.936 7.18 6.314 15.762 1.032 24.05-13.027 20.438-22.34 42.386-26.297 66.376-5.64 34.204 1.885 64.67 25.75 90.667 18.891 20.578 32.822 43.981 38.173 71.83 3.29 17.119 2.565 34.139-1.8 50.979-.408 1.573-2.107 4-3.238 4.018-16.605.26-33.216.18-49.874.18 1.903-7.312 4.218-14.098 5.386-21.076 4.003-23.906-3.258-45.137-16.763-64.485-5.129-7.349-11.29-13.976-17.206-21.206M748.105 657.154c-13.198 23.732-22.245 48.334-23.326 75.458-1.108 27.826 7.488 52.081 26.174 72.71 18.154 20.043 32.378 42.257 38.51 68.989 4.25 18.52 3.757 36.987-.788 55.39-.573 2.322-1.116 4.248-4.404 4.21-15.827-.18-31.657-.101-47.486-.136-.442 0-.883-.245-1.197-.338 1.828-7.16 4.158-14.114 5.326-21.258 3.821-23.358-3.248-44.178-16.328-63.142-5.462-7.92-12.05-15.068-18.2-22.506-33.517-40.534-39.508-86.404-26.057-135.873 6.024-22.154 15.477-42.88 28.281-61.969 8.817-13.144 27.802-15.758 40.056-5.825 8.361 6.777 10.088 17.188 4.37 26.339a1163 1163 0 0 0-4.93 7.951"/><path fill="#FEFCF9" d="M508.442 139.067V128.32c14.258.926 27.904.993 41.277 2.934 11.165 1.62 17.417 9.384 18.268 20.73.49 6.538.293 13.421-1.3 19.717-1.079 4.27-4.65 8.288-8.005 11.469-2.173 2.059-2.912 3.273-2.085 6.127 4.351 15.01 8.49 30.08 12.691 45.133.352 1.262.624 2.545 1.15 4.712-6.474 0-12.547.19-18.585-.188-.993-.062-2.256-2.501-2.67-4.037-3.507-13.004-6.856-26.05-10.232-39.09-1.875-7.245-1.857-7.25-10.078-6.1v49.03h-20.43zm20.111 25.42v11.487c7.035.148 13.803 1.116 17.828-4.647 4.728-6.77 4.204-14.747 1.086-22.012-2.794-6.51-9.465-5.692-15.233-6.151-2.938-.235-3.756 1.151-3.704 3.833.105 5.497.026 10.996.023 17.49"/><path fill="#FEFDFA" d="M773.552 412.757c-.096 1.94-.192 3.406-.304 5.113h-19.8V308.587c9.966 0 19.927-.555 29.805.111 23.61 1.593 31.422 10.875 29.873 34.464-.536 8.158-3.022 15.232-10.304 20.074-1.137.756-1.667 3.718-1.238 5.33 3.764 14.147 7.812 28.218 11.769 42.313.618 2.203 1.198 4.417 1.903 7.021h-20.278c-3.787-14.485-7.567-28.95-11.352-43.415-1.785-6.821-1.79-6.82-10.073-5.77zm15.443-60.004c5.65-4.22 5.274-10.38 5.111-16.368-.347-12.804-7.722-14.333-18.318-13.65-.76.05-2.05 1.386-2.06 2.14-.14 9.913-.093 19.83-.093 31.098 5.472-1.059 10.072-1.949 15.36-3.22"/><path fill="#FEFDFB" d="M630.568 236.72c-9.284 4.485-18.678 4.644-28.154 2.746-12.523-2.508-18.416-11.335-20.27-23.078-1.032-6.531-1.032-13.257-1.106-19.9-.136-12.323-.332-24.662.12-36.971.822-22.443 12.253-32.628 34.593-31.436 16.799.896 26.963 9.288 27.894 26.068 1.113 20.07.7 40.266.005 60.375-.312 9.002-4.365 17.075-13.082 22.196m-6.575-34.24c0-14.14.055-28.279-.044-42.418-.022-3.133-.377-6.304-.957-9.386-.931-4.95-4.342-7.235-9.179-7.61-7.202-.557-11.675 3.105-11.809 10.896-.332 19.281-.211 38.57-.189 57.857.003 2.131.313 4.327.885 6.38 1.413 5.08 4.932 7.394 10.49 7.211 5.255-.172 8.852-2.605 9.71-7.575.811-4.71.763-9.57 1.093-15.355"/><path fill="#FEFDFA" d="M588.987 347v-38.225h16.507v109.383c-3.814 0-7.481.366-11.007-.18-1.405-.218-2.995-2.241-3.657-3.801-7.596-17.91-15.029-35.888-22.51-53.847-.444-1.066-.934-2.114-2.203-3.146v60.58h-17.392c-.092-1.719-.268-3.482-.269-5.245-.016-32.805.086-65.61-.12-98.412-.03-4.717 1.526-5.544 5.904-5.856 6.315-.45 9.315 1.724 11.661 7.653 6.3 15.922 13.405 31.525 20.204 47.248.579 1.337 1.267 2.627 2.882 3.848z"/><path fill="#FFFEFE" d="M436.992 372.21c-.972-1.44-1.908-3.184-2.917-3.227-6.122-.258-12.261-.129-18.926-.129v48.943h-19.987V308.8h19.86v45h21.713V308.86h20.09v109h-19.83c0-15.022 0-30.096-.003-45.65"/><path fill="#FEFDFA" d="M471.987 354v-45.527c5.878 0 11.339-.003 16.8 0 3.552.003 2.734 2.702 2.739 4.685.047 18.166 0 36.331.043 54.497.018 7.329.088 14.66.355 21.984a29.7 29.7 0 0 0 1.345 7.84c1.486 4.668 4.959 6.944 9.848 6.912 4.705-.03 8.23-2.25 9.329-6.792a58.7 58.7 0 0 0 1.627-13.302c.154-23.164.072-46.33.072-69.495v-5.906h19.466c.083 1.842.232 3.606.233 5.37.016 23.332.064 46.664-.04 69.996-.018 4.145-.301 8.365-1.122 12.417-3.235 15.977-11.324 23.768-31.886 23.002-19.134-.712-27.597-10.071-28.576-30.691-.545-11.475-.185-22.992-.233-34.99"/><path fill="#FEFDFB" d="M668.896 310.954c6.554 3.746 9.897 9.417 11.11 16.217 1.008 5.656 1.283 11.444 1.922 17.543h-19.66c-.195-4.414-.054-8.884-.661-13.25-1.053-7.571-7.05-11.342-14.122-8.438-2.64 1.084-6.15 4.406-6.195 6.766-.428 22.264-.41 44.544.02 66.81.097 5.015 4.2 7.646 9.383 7.935 5.412.3 9.9-1.723 10.967-6.66 1.389-6.433 1.6-13.14 1.969-19.749.044-.793-2.014-2.267-3.243-2.45-2.573-.384-5.243-.117-8.131-.117v-12.755h29.526v54.556c-10.149 2.622-12.45 1.499-14.456-6.96-.3-.017-.792-.156-.874-.03-6.086 9.396-14.996 10.585-25.044 8.81-9.916-1.751-16.224-7.69-18.89-17.068-1.666-5.864-2.803-12.071-2.908-18.146-.27-15.65.067-31.315.402-46.969.074-3.443.893-6.935 1.81-10.283 3.05-11.115 10.284-17.487 21.841-18.987 8.598-1.115 16.936-.708 25.234 3.225"/><path fill="#FEFDF9" d="M487.934 129.144h9.254v14.76h-25.317v30.885h19.765v14.4c-5.448 0-10.878.063-16.305-.028-2.367-.04-3.798.499-3.78 3.266.07 10.643.028 21.286.028 32.599h25.928v13.765h-46.048V129.144z"/><path fill="#FEFDFA" d="M696.178 415.664c-.02-35.76-.02-71.048-.02-106.777h45.719v13.919H716.52v30.939h19.96v14.612h-19.93v35.56h25.604v14.22c-14.72 0-29.182.032-43.643-.085-.776-.006-1.543-1.25-2.334-2.388"/><path fill="#FEFDFB" d="M413.407 162.256c2.131-6.138 4.109-11.916 6.434-18.707-7.455 0-14.039.003-20.622 0-6.762-.004-6.763-.007-6.768-6.701-.002-2.303 0-4.605 0-7.301h48.829c-.608 4.665-.457 9.392-1.893 13.573-8.754 25.476-17.872 50.827-26.858 76.223-.595 1.68-1.111 3.388-1.902 5.813h30.108v13.674h-50.203c.624-5.646.306-11.587 2.035-16.855 6.535-19.905 13.735-39.59 20.84-59.72"/><path fill="#DDA83B" d="M528.554 163.989c.003-5.996.082-11.495-.023-16.992-.052-2.682.766-4.068 3.704-3.833 5.768.46 12.44-.36 15.233 6.15 3.118 7.266 3.642 15.243-1.086 22.013-4.025 5.763-10.793 4.795-17.828 4.647zM788.652 352.944c-4.944 1.08-9.544 1.97-15.016 3.029 0-11.267-.046-21.185.093-31.099.01-.753 1.3-2.09 2.06-2.139 10.596-.683 17.971.846 18.318 13.65.163 5.988.539 12.148-5.455 16.559M623.993 202.975c-.33 5.29-.282 10.15-1.094 14.86-.857 4.97-4.454 7.403-9.71 7.575-5.557.183-9.076-2.13-10.49-7.21a24.2 24.2 0 0 1-.884-6.381c-.022-19.286-.143-38.576.19-57.857.133-7.791 4.606-11.453 11.808-10.895 4.837.374 8.248 2.66 9.18 7.61.58 3.081.934 6.252.956 9.385.1 14.14.043 28.279.044 42.913"/></svg>