<svg xmlns="http://www.w3.org/2000/svg" xml:space="preserve" viewBox="0 0 1500 1500"><path fill="#4C9F38" d="M1 554V1h1500v1500H1zm558.704 359.277 27.885-62.722c.55 2.262.96 3.491 1.14 4.753 4.41 30.812 8.8 61.627 13.184 92.442 6.752 47.458 13.404 94.93 20.414 142.35.59 4 2.762 8.426 5.575 11.314 8.333 8.555 21.914 5.669 27.972-5.541 25.941-48.003 51.826-96.035 77.74-144.052.776-1.436 1.656-2.816 2.96-5.021 4.9 28.301 9.621 55.346 14.26 82.405 13.102 76.431 26.17 152.868 39.25 229.304 1.017 5.938 3.947 10.59 9.365 13.391 9.989 5.165 22.01-.283 25.802-12.933 61.09-203.71 122.465-407.334 183.78-610.977 1.649-5.473 3.358-10.928 5.253-17.089.819 1.46 1.258 2.154 1.612 2.888 16.387 34.009 32.76 68.024 49.15 102.031 8.232 17.078 16.435 34.169 24.762 51.2 4.521 9.245 13.51 13.095 22.338 9.832 9.963-3.683 14.265-14.593 9.38-24.753a97707 97707 0 0 0-94.714-196.385c-1.267-2.62-3.133-5.234-5.37-7.05-10.25-8.325-24.194-3.321-28.248 10.086-10.156 33.583-20.191 67.202-30.308 100.797a6990728 6990728 0 0 1-148.752 493.89c-.42 1.395-.913 2.77-1.372 4.153-2.978-12.118-4.963-24.088-7.018-36.046-9.583-55.757-19.193-111.51-28.775-167.267-4.735-27.554-9.38-55.123-14.167-82.668-1.867-10.744-9.264-16.63-19.587-15.703-6.742.605-11.107 4.552-14.242 10.381-25.293 47.03-50.656 94.023-76.01 141.021-.86 1.596-1.844 3.125-3.426 5.788-.796-5.681-1.357-9.78-1.945-13.875-5.514-38.387-11.048-76.771-16.545-115.16-5.709-39.873-11.35-79.756-17.1-119.622-1.171-8.125-7.26-13.75-15.395-14.702-8.27-.969-14.795 3.102-18.692 11.846-26.81 60.145-53.628 120.285-80.3 180.49-1.642 3.706-3.512 5.036-7.656 5.028-76.165-.142-152.33-.112-228.497-.094-10.668.002-18.301 7.433-18.246 17.612.053 9.906 7.659 17.36 18.036 17.364 81.666.035 163.331.026 244.997.008 7.972-.001 13.622-3.722 16.87-11.02 11.426-25.676 22.845-51.355 34.64-77.694m598.933-38.167-28.195 23.377c-4.22-4.036-8.438-8.303-12.911-12.284-4.225-3.76-8.69-7.254-13.097-10.806-26.38-21.26-55.365-12.63-73.831 2.323-34.971 28.318-37.146 85.048-4.542 117.893 33.925 34.173 68.07 68.128 102.131 102.166.898.897 1.941 1.648 3.325 2.81 1.41-1.593 2.553-3.029 3.84-4.32 32.706-32.8 65.39-65.62 98.154-98.36 26.037-26.02 31.244-56.592 19.396-90.527-12.897-36.938-58.391-59.783-94.27-32.272M117.89 338.49c1.39 10.702 1.778 21.654 4.367 32.058 6.107 24.534 20.433 41.941 46.07 48.043 15.935 3.792 32.04 4.061 48.092 1.047 22.278-4.184 37.883-16.861 46.863-37.764 4.72-10.989 7.859-22.463 8.075-34.299.244-13.413.261-27.063-1.913-40.231-3.156-19.119-13.464-33.984-32.78-41.944 18.011-6.796 27.38-20.34 32.131-37.233 5.207-18.514 4.744-37.276-.827-55.69-6.75-22.316-21.803-36.6-44.054-43.024-17.77-5.13-35.86-5.276-53.85-1.143-12.923 2.969-24.252 9.076-33.299 19.02-18.934 20.813-19.61 46.274-18.76 72.41h54.508c0-2.726-.217-5.218.038-7.661.98-9.4 1.32-18.962 3.392-28.126 2.386-10.555 8.362-14.438 18.65-14.44 11.125-.002 17.393 4.328 20.422 14.656 3.731 12.72 3.546 25.67 1.198 38.581-3.229 17.749-11.783 24.818-29.84 25.071-3.27.046-6.542.007-9.882.007v39.848c5.131.4 9.934.737 14.73 1.154 12.178 1.06 20.153 7.481 23.286 19.248 4.72 17.722 4.388 35.6.248 53.376-1.523 6.54-5.462 11.258-12.36 13.083-12.82 3.393-22.954-2.148-26.688-14.856-.794-2.701-1.486-5.491-1.733-8.284-.775-8.731-1.314-17.483-1.943-26.203H117.84c0 4.343 0 8.323.05 13.295m531.246 34.984 6.447 44.494h16.72l11.715-69.29c.863.95 1.109 1.867 1.267 2.8 2.952 17.386 5.962 34.762 8.815 52.164 2.506 15.277 2.427 15.292 17.769 14.43.3-.017.588-.277 1.125-.546l15.51-108.725h-16.709l-8.455 65.77-1.038-.08-11.152-65.588h-13.77l-10.8 64.572-1.302-.178-8.308-64.61h-17.012c3.045 21.485 6.05 42.698 9.178 64.787m369.87 10.217c-.452-11.5-4.812-20.384-17.567-24.408 9.725-2.953 13.144-9.556 14.242-17.914 2.069-15.752-3.704-27.168-16.468-30.814-13.815-3.946-28.002-1.517-42.023-2.022v109.645c11.178 0 21.99.039 32.803-.009 16.481-.072 26.278-8.41 28.704-24.559.442-2.941.223-5.982.31-9.92m-514.214-19.401-.889 2.9c-1.234-2.54-2.07-4.105-2.773-5.73-7.06-16.327-14.062-32.68-21.198-48.975-.66-1.507-2.008-3.65-3.24-3.797-4.042-.483-8.177-.181-12.385-.181v109.372h17.413v-60.412c1.665 1.363 2.445 2.911 3.11 4.507 7.277 17.5 14.501 35.022 21.87 52.484.608 1.443 2.048 3.389 3.3 3.549 3.71.473 7.52.17 11.085.17V308.706h-16.278c0 18.365 0 36.491-.015 55.58m32.2 43.192v10.397c12.19 0 23.863.705 35.414-.178 14.471-1.106 23.602-9.867 24.278-24.445.938-20.252.767-40.597.05-60.866-.39-11.036-6.457-20.087-17.841-21.824-13.674-2.087-27.68-1.991-41.9-2.863zM619.995 189.5v49.674c9.227 0 17.865.025 26.503-.015 2.663-.012 5.344-.04 7.985-.34 15.377-1.74 24.61-10.09 25.262-25.334.852-19.946.768-39.976.013-59.93-.494-13.04-8.086-21.276-20.993-22.931-12.615-1.618-25.465-1.402-38.77-2.016zm-92.966-46.928c-4.197-9.155-11.948-12.869-21.392-14.225-21.338-3.066-36.197 6.407-37.323 25.804-1.145 19.742-.891 39.627-.06 59.399.623 14.832 8.938 23.983 21.736 26.14 4.702.793 9.641.84 14.408.448 14.24-1.173 22.194-8.202 25.249-22.029.785-3.554 1.268-7.248 1.301-10.883.141-15.327.398-30.667-.11-45.977-.2-6.023-2.29-11.982-3.809-18.677m514.8 5.928v90.36h20.304v-49.117h21.848v49.165h19.827V129.521h-19.92v45.33h-22.097v-45.436h-19.962zm-315 18v72.359h20.307v-49.115h21.847v49.163h19.824V129.522h-19.921v45.328h-22.098v-45.435H726.83zm-129.07-30.776c-9.184-8.258-20.13-8.532-31.487-6.952-11.768 1.636-18.854 8.49-21.648 19.82-.91 3.686-1.519 7.544-1.559 11.331-.169 15.994-.323 31.996.069 47.982.132 5.39 1.392 10.898 3.033 16.069 2.412 7.602 7.788 13.395 15.627 14.687 7.72 1.273 15.868 1.323 23.66.437 8.527-.969 14.576-6.602 17.428-14.697 1.74-4.944 3.017-10.309 3.142-15.517.393-16.486.282-32.988.09-49.48-.098-8.48-2.07-16.508-8.356-23.68m563.606 225.31c-7.113-16.488-14.188-32.992-21.412-49.432-.557-1.269-2.078-2.84-3.285-2.963-3.758-.385-7.581-.14-11.552-.14v109.278h17.037v-61.14c1.141.871 1.586 1.751 1.964 2.658 7.612 18.265 15.176 36.549 22.892 54.769.67 1.58 2.19 3.703 3.564 3.908 3.665.548 7.466.187 11.25.187V308.86h-16.962v58.21l-.749.054c-.79-1.812-1.58-3.624-2.747-6.09m34.627-22.363c.001 16.658-.217 33.32.099 49.972.152 8.06 2.026 15.94 7.262 22.42 9.875 12.224 28.44 11.532 40.28-1.58l1.457 8.307h12.873v-54.973h-29.55v12.614h11.927c-.436 6.618-.43 12.768-1.342 18.778-1.125 7.408-5.202 10.653-11.696 10.393-6.406-.256-9.97-3.217-10.306-11.027-.714-16.624-.647-33.284-.78-49.93-.032-3.981.153-8 .688-11.942.906-6.687 4.799-9.84 11.153-9.513 6.24.32 9.405 3.435 9.864 10.228.277 4.08.051 8.193.051 12.298h20.146c-.776-6.775-.932-13.29-2.376-19.507-2.145-9.24-8.39-15.181-17.773-16.806-5.502-.952-11.31-1.294-16.844-.683-13.954 1.54-21.088 8.422-23.985 22.098-.55 2.598-.764 5.268-1.148 8.853M424.994 188.573v7.978h12.403c-.495 6.715-.546 12.87-1.498 18.884-1.116 7.052-5.182 10.202-11.53 10.018-6.191-.18-9.743-3.216-10.361-10.472-.747-8.769-.77-17.614-.788-26.427-.024-11.652-.098-23.324.544-34.948.422-7.634 4.437-10.847 11.166-10.576 6.705.27 9.69 3.638 10.057 11.63.165 3.593.028 7.2.028 10.848h20.341c-1.074-7.328-1.534-14.286-3.21-20.938-2.197-8.73-8.626-13.753-17.29-15.348-5.022-.925-10.288-1.308-15.375-.953-14.686 1.027-23.047 8.881-25.482 23.445-.656 3.925-1.084 7.932-1.123 11.907-.134 13.826-.334 27.664.078 41.48.181 6.074 1.2 12.27 2.86 18.12 2.676 9.426 9.194 15.17 19.05 16.85 10.042 1.712 18.95.436 24.87-9.1.076-.122.577.02.944.042l1.495 7.786h12.711v-55.35h-29.68c-.08 1.584-.145 2.885-.21 5.124M876.11 141.54l-19.755 97.637c5.702 0 10.673-.12 15.634.048 2.685.09 3.744-.777 4.154-3.547 1.066-7.201 2.53-14.344 3.834-21.493h18.706l4.429 24.639h18.818l-22.234-109.669h-8.772c-12.017 0-12.017 0-14.814 12.385M449.095 392.225c-5.392-26.748-10.75-53.503-16.279-80.223-.275-1.33-1.999-3.293-3.136-3.355-6.1-.334-12.23-.158-18.6-.158-7.453 36.67-14.821 72.924-22.24 109.42h19.084l4.504-24.729h18.651c1.294 7.229 2.481 14.417 3.948 21.548.26 1.265 1.624 3.218 2.57 3.273 5.432.315 10.891.154 16.808.154-1.816-8.815-3.493-16.953-5.31-25.93m314.404 25.964h23.017v-14.13h-25.564v-35.617h19.741V353.89H760.83v-31.046h24.952v-14.061h-45.41v109.405zm287.686-18.627v-31.01h20.303v-14.776h-20.127v-30.92h25.415v-14.05h-45.323v109.118h45.711v-13.78c-7.682 0-15.004-.099-22.32.052-2.75.057-4.107-.72-3.66-4.634M826.823 143.897h24.039v-14.43h-45.533v109.47h45.831v-13.963h-25.703v-35.827h20.072v-14.303h-19.62c0-10.588 0-20.645.914-30.947m153.18-14.731c-.828.767-2.322 1.494-2.37 2.307-.245 4.098-.113 8.22-.113 12.84h18.428v94.509h20.316V143.91h17.273v-14.752c-17.74 0-35.18 0-53.535.008M855.31 418.153h44.113v-14.3h-26.197v-95.02h-19.444c-.137 1.17-.313 1.974-.314 2.78-.015 34.279-.026 68.558.024 102.837.002 1.2.624 2.397 1.818 3.703M797.142 348.5v69.464h46.361v-13.927h-26.142v-95.239h-20.219zm134.687-154v44.415h45.98V225.01h-26.067v-95.584H931.83zm156.994 126.02v97.251h19.806v-108.97h-19.806zm-179.839 50.35v10.379h32.499v-12.772c-10.341 0-20.304-.031-30.265.064-.736.007-1.464.924-2.234 2.33"/><path fill="#FEFEFE" d="M559.517 913.607c-11.608 26.009-23.027 51.688-34.453 77.364-3.248 7.298-8.898 11.019-16.87 11.02-81.666.018-163.331.027-244.997-.008-10.377-.005-17.983-7.458-18.036-17.364-.055-10.179 7.578-17.61 18.246-17.612 76.166-.018 152.332-.048 228.497.094 4.144.008 6.014-1.322 7.656-5.028 26.672-60.205 53.49-120.345 80.3-180.49 3.897-8.744 10.422-12.815 18.692-11.846 8.136.952 14.224 6.577 15.396 14.702 5.749 39.866 11.39 79.749 17.1 119.621 5.496 38.39 11.03 76.774 16.544 115.16.588 4.096 1.15 8.195 1.945 13.876 1.582-2.663 2.566-4.192 3.427-5.788 25.353-46.998 50.716-93.99 76.009-141.02 3.135-5.83 7.5-9.777 14.242-10.382 10.323-.927 17.72 4.959 19.587 15.703 4.787 27.545 9.432 55.114 14.167 82.668 9.582 55.757 19.192 111.51 28.775 167.267 2.055 11.958 4.04 23.928 7.018 36.046.46-1.384.952-2.758 1.372-4.154 49.589-164.628 99.176-329.257 148.752-493.89 10.117-33.594 20.152-67.213 30.308-100.796 4.054-13.407 17.997-18.411 28.249-10.086 2.236 1.816 4.102 4.43 5.369 7.05a97707 97707 0 0 1 94.713 196.385c4.886 10.16.584 21.07-9.379 24.753-8.828 3.263-17.817-.587-22.338-9.832-8.327-17.031-16.53-34.122-24.761-51.2-16.39-34.007-32.764-68.022-49.151-102.03-.354-.735-.793-1.428-1.612-2.889-1.895 6.16-3.604 11.616-5.252 17.09-61.316 203.642-122.691 407.266-183.78 610.976-3.794 12.65-15.814 18.098-25.803 12.933-5.418-2.801-8.348-7.453-9.364-13.391-13.08-76.436-26.15-152.873-39.251-229.304-4.639-27.059-9.36-54.104-14.26-82.405-1.304 2.205-2.184 3.585-2.96 5.021-25.914 48.017-51.799 96.05-77.74 144.052-6.058 11.21-19.64 14.096-27.972 5.541-2.813-2.888-4.984-7.314-5.575-11.314-7.01-47.42-13.662-94.892-20.414-142.35-4.384-30.815-8.774-61.63-13.184-92.442-.18-1.262-.59-2.491-1.14-4.753-9.549 21.478-18.717 42.1-28.072 63.052"/><path fill="#FFF" d="M1158.937 874.91c35.579-27.31 81.073-4.466 93.97 32.472 11.848 33.935 6.641 64.507-19.396 90.526-32.764 32.741-65.448 65.561-98.153 98.36-1.288 1.292-2.432 2.728-3.84 4.321-1.385-1.162-2.428-1.913-3.326-2.81-34.061-34.038-68.206-67.993-102.13-102.166-32.605-32.845-30.43-89.575 4.54-117.893 18.467-14.954 47.451-23.583 73.832-2.323 4.407 3.552 8.872 7.046 13.097 10.806 4.473 3.981 8.691 8.248 12.91 12.284 9.361-7.76 18.779-15.569 28.496-23.576"/><path fill="#FEFEFE" d="M117.865 337.994c-.025-4.477-.025-8.457-.025-12.8h54.191c.629 8.72 1.168 17.472 1.943 26.203.247 2.793.939 5.583 1.733 8.284 3.734 12.708 13.868 18.249 26.689 14.856 6.897-1.825 10.836-6.543 12.359-13.083 4.14-17.776 4.471-35.654-.248-53.376-3.133-11.767-11.108-18.189-23.286-19.248-4.796-.417-9.599-.755-14.73-1.154v-39.848c3.34 0 6.611.04 9.882-.007 18.057-.253 26.611-7.322 29.84-25.07 2.348-12.911 2.533-25.862-1.198-38.582-3.03-10.328-9.297-14.658-20.422-14.655-10.288.001-16.264 3.884-18.65 14.439-2.072 9.164-2.412 18.726-3.392 28.126-.255 2.443-.038 4.935-.038 7.662h-54.509c-.85-26.137-.173-51.598 18.761-72.41 9.047-9.945 20.376-16.052 33.298-19.021 17.991-4.133 36.081-3.987 53.85 1.143 22.252 6.423 37.304 20.708 44.055 43.024 5.57 18.414 6.034 37.176.827 55.69-4.75 16.893-14.12 30.437-32.13 37.233 19.315 7.96 29.623 22.825 32.78 41.944 2.173 13.168 2.156 26.818 1.912 40.231-.216 11.836-3.354 23.31-8.075 34.299-8.98 20.903-24.585 33.58-46.863 37.764-16.051 3.014-32.157 2.745-48.092-1.047-25.637-6.102-39.963-23.51-46.07-48.043-2.59-10.404-2.978-21.356-4.392-32.554"/><path fill="#FBFDFB" d="M649.075 373.035c-3.066-21.651-6.072-42.864-9.117-64.35h17.012l8.308 64.61 1.303.18 10.8-64.573h13.769l11.152 65.589 1.038.079 8.455-65.77h16.71l-15.51 108.725c-.538.269-.826.53-1.126.546-15.342.862-15.263.847-17.769-14.43-2.853-17.402-5.863-34.778-8.815-52.164-.158-.933-.404-1.85-1.267-2.8l-11.714 69.29h-16.721c-2.163-14.928-4.305-29.71-6.508-44.932"/><path fill="#FCFEFC" d="M1019.006 384.161c-.086 3.466.133 6.507-.31 9.448-2.425 16.149-12.222 24.487-28.703 24.559-10.812.048-21.625.009-32.803.009V308.532c14.021.505 28.208-1.924 42.023 2.022 12.764 3.646 18.537 15.062 16.468 30.814-1.098 8.358-4.517 14.961-14.242 17.914 12.755 4.024 17.115 12.908 17.567 24.88m-42.023-15.569v35.402c2.712 0 4.852.011 6.991-.002 10.27-.066 14.526-3.4 15.474-13.466 1.827-19.393-5.786-24.34-22.465-21.934m-.14-40.011v24.651c7.175-.479 14.661 1.688 18.838-5.216 3.789-6.263 4.261-13.815.395-20.028-4.238-6.81-11.975-4.808-18.957-5.112-.107 1.826-.191 3.275-.275 5.705"/><path fill="#FAFCF9" d="M504.8 363.806c.008-18.608.008-36.734.008-55.1h16.278v109.468c-3.565 0-7.375.304-11.085-.17-1.252-.159-2.692-2.105-3.3-3.548-7.369-17.462-14.593-34.984-21.87-52.484-.665-1.596-1.445-3.144-3.11-4.507v60.412h-17.413V308.505c4.208 0 8.343-.302 12.385.181 1.232.147 2.58 2.29 3.24 3.797 7.136 16.294 14.139 32.648 21.198 48.976.702 1.624 1.539 3.19 2.773 5.73.49-1.599.69-2.25.897-3.383"/><path fill="#FDFEFC" d="M536.994 406.98V307.7c14.22.872 28.226.776 41.9 2.863 11.384 1.737 17.45 10.788 17.84 21.824.718 20.27.89 40.614-.05 60.866-.675 14.578-9.806 23.339-24.277 24.445-11.551.883-23.223.178-35.413.178zm20.172-79.263v75.999c3.765 0 7.079.319 10.306-.075 4.77-.583 8.524-3.419 8.589-8.277.285-21.423.221-42.853.009-64.279-.04-4.08-3.08-6.59-7.049-7.342-2.752-.52-5.614-.425-8.407-.769-3.068-.377-3.779 1.188-3.448 4.743"/><path fill="#FDFEFD" d="M619.995 189v-60.392c13.305.614 26.155.398 38.77 2.016 12.907 1.655 20.5 9.89 20.993 22.931.755 19.954.84 39.984-.013 59.93-.651 15.243-9.885 23.594-25.262 25.334-2.641.3-5.322.328-7.985.34-8.638.04-17.276.015-26.503.015zm20.17 23.483V224.7c15.455 1.207 19.61-2.187 19.781-16.287.201-16.646.08-33.297.004-49.945-.011-2.304.064-4.979-1.022-6.821-1.562-2.65-3.758-5.76-6.401-6.74-3.644-1.352-7.956-.9-12.363-1.251z"/><path fill="#FBFDFB" d="M527.173 142.926c1.374 6.34 3.466 12.3 3.666 18.323.507 15.31.25 30.65.11 45.977-.034 3.635-.517 7.329-1.302 10.883-3.055 13.827-11.01 20.856-25.249 22.03-4.767.392-9.706.344-14.408-.449-12.798-2.157-21.113-11.308-21.736-26.14-.831-19.772-1.085-39.657.06-59.399 1.126-19.397 15.985-28.87 37.323-25.804 9.444 1.356 17.195 5.07 21.536 14.579m-33.957 1.487c-5.354 3.689-5.105 9.438-5.153 14.869-.148 16.494-.11 32.991-.006 49.486.02 3.136.438 6.316 1.083 9.39.882 4.203 3.73 6.462 8 7.09 7.588 1.117 12.696-2.592 12.85-10.754.37-19.808.467-39.634.06-59.44-.218-10.552-5.93-14.01-16.834-10.641"/><path fill="#FEFEFE" d="M1041.83 148v-18.585h19.96v45.437h22.098V129.52h19.92v109.387h-19.827v-49.165h-21.848v49.117h-20.304zM726.83 166v-36.585h19.958v45.435h22.098v-45.328h19.92v109.385h-19.823v-49.163h-21.847v49.115h-20.307z"/><path fill="#FCFEFC" d="M597.979 136.008c6.065 6.888 8.037 14.916 8.135 23.395.192 16.493.303 32.995-.09 49.481-.125 5.208-1.401 10.573-3.142 15.517-2.852 8.095-8.901 13.728-17.427 14.697-7.793.886-15.94.836-23.661-.437-7.839-1.292-13.215-7.085-15.627-14.687-1.64-5.17-2.901-10.68-3.033-16.07-.392-15.985-.238-31.987-.069-47.98.04-3.788.65-7.646 1.559-11.332 2.794-11.33 9.88-18.184 21.648-19.82 11.357-1.58 22.303-1.306 31.707 7.236m-20.06 89.032c7.373-1.96 7.755-8.139 7.829-13.945.229-17.993.092-35.992.065-53.988-.001-1.322-.18-2.657-.404-3.965-1.254-7.337-4.569-10.32-11.186-10.124-6.609.194-10.183 3.251-10.32 10.894-.362 20.145-.422 40.307.02 60.449.192 8.718 4.413 11.568 13.996 10.679"/><path fill="#FDFEFC" d="M1161.553 361.362c.978 2.139 1.768 3.951 2.558 5.763l.75-.055v-58.209h16.96v109.298c-3.783 0-7.584.36-11.249-.187-1.374-.205-2.894-2.328-3.564-3.908-7.716-18.22-15.28-36.504-22.892-54.769-.378-.907-.823-1.787-1.964-2.658v61.14h-17.037V308.498c3.97 0 7.794-.244 11.552.141 1.207.124 2.728 1.694 3.285 2.963 7.224 16.44 14.3 32.944 21.6 49.76"/><path fill="#FCFEFC" d="M1195.999 338.198c.376-3.111.59-5.781 1.14-8.38 2.897-13.675 10.03-20.558 23.985-22.097 5.535-.611 11.342-.269 16.844.683 9.384 1.625 15.628 7.565 17.773 16.806 1.444 6.217 1.6 12.732 2.376 19.507h-20.146c0-4.105.226-8.219-.05-12.298-.46-6.793-3.625-9.907-9.865-10.228-6.354-.327-10.247 2.826-11.153 9.513-.535 3.941-.72 7.96-.688 11.943.133 16.645.066 33.305.78 49.929.335 7.81 3.9 10.771 10.306 11.027 6.494.26 10.571-2.985 11.696-10.393.913-6.01.906-12.16 1.342-18.778h-11.928v-12.614h29.55v54.973h-12.872l-1.456-8.308c-11.842 13.113-30.406 13.805-40.281 1.582-5.236-6.48-7.11-14.361-7.262-22.421-.316-16.652-.098-33.314-.091-50.446"/><path fill="#FDFEFC" d="M424.994 188.104c.065-1.77.13-3.07.21-4.654h29.68v55.349h-12.711l-1.495-7.786c-.367-.023-.868-.164-.944-.042-5.92 9.536-14.828 10.812-24.87 9.1-9.856-1.68-16.374-7.424-19.05-16.85-1.66-5.85-2.679-12.046-2.86-18.12-.412-13.816-.212-27.654-.078-41.48.039-3.975.467-7.982 1.123-11.907 2.435-14.564 10.796-22.418 25.482-23.445 5.087-.355 10.353.028 15.375.953 8.664 1.595 15.093 6.619 17.29 15.348 1.676 6.652 2.136 13.61 3.21 20.938h-20.341c0-3.647.137-7.255-.028-10.848-.367-7.992-3.352-11.36-10.057-11.63-6.729-.271-10.744 2.942-11.166 10.576-.642 11.624-.568 23.296-.544 34.948.017 8.813.04 17.658.788 26.427.618 7.256 4.17 10.292 10.362 10.472 6.347.184 10.413-2.966 11.53-10.018.951-6.013 1.002-12.17 1.497-18.884h-12.403z"/><path fill="#FCFEFC" d="M876.185 141.12c2.722-11.966 2.722-11.966 14.739-11.966h8.772l22.234 109.669h-18.818l-4.429-24.639h-18.706c-1.303 7.15-2.768 14.292-3.834 21.493-.41 2.77-1.47 3.637-4.154 3.547-4.961-.167-9.932-.048-15.634-.048 6.658-32.908 13.206-65.272 19.83-98.055m10.59 31.043-4.63 28.147h14.25l-6.676-41.498-.69-.094c-.713 4.195-1.427 8.389-2.255 13.445M449.165 392.645c1.747 8.557 3.424 16.695 5.24 25.51-5.917 0-11.376.161-16.807-.154-.947-.055-2.311-2.008-2.571-3.273-1.467-7.13-2.654-14.32-3.948-21.548h-18.651l-4.504 24.73h-19.083l22.238-109.42c6.372 0 12.5-.177 18.601.157 1.137.062 2.86 2.026 3.136 3.355 5.53 26.72 10.887 53.475 16.35 80.643m-29.818-42.84-4.735 29.779h14.296l-6.801-41.45-.814.075c-.576 3.585-1.152 7.169-1.946 11.595"/><path fill="#F9FCF9" d="M763 418.19H740.37V308.783h45.41v14.061H760.83v31.046h19.864v14.55h-19.741v35.618h25.564v14.13z"/><path fill="#FBFDFA" d="M1051.185 400.07c-.448 3.407.91 4.183 3.659 4.126 7.316-.15 14.638-.051 22.32-.051v13.78h-45.711v-109.12h45.323v14.052h-25.415v30.919h20.127v14.775h-20.303z"/><path fill="#FDFEFD" d="M826.365 144.02c-.458 10.18-.458 20.236-.458 30.824h19.62v14.303h-20.071v35.827h25.703v13.963h-45.831v-109.47h45.533v14.43c-8.144 0-16.092 0-24.496.123M980.46 129.162c17.897-.004 35.335-.004 53.076-.004v14.752h-17.273v94.912h-20.316v-94.509h-18.428c0-4.62-.132-8.742.113-12.84.048-.813 1.542-1.54 2.828-2.311"/><path fill="#F7FBF6" d="M854.879 418.1c-.763-1.253-1.385-2.45-1.387-3.65-.05-34.279-.04-68.558-.024-102.838 0-.805.177-1.61.314-2.779h19.444v95.02h26.197v14.3c-14.602 0-29.358 0-44.544-.053"/><path fill="#F9FCF9" d="M797.142 348v-39.202h20.219v95.239h26.142v13.927h-46.36z"/><path fill="#FEFEFE" d="M931.83 194v-64.574h19.912v95.584h26.068v13.905h-45.98z"/><path fill="#FCFEFC" d="M1088.823 320.025v-11.224h19.806v108.97h-19.806z"/><path fill="#F7FBF6" d="M909.004 370.415c.75-.95 1.478-1.867 2.214-1.874 9.961-.095 19.924-.064 30.265-.064v12.772h-32.499c0-3.523 0-6.95.02-10.834"/><path fill="#4D9F39" d="M977.277 368.197c16.385-2.01 23.998 2.937 22.17 22.33-.947 10.067-5.203 13.4-15.473 13.466-2.14.013-4.28.002-6.991.002 0-11.974 0-23.688.294-35.798M976.844 328.091c.084-1.94.168-3.388.275-5.214 6.982.304 14.72-1.699 18.957 5.112 3.866 6.213 3.394 13.765-.395 20.028-4.177 6.904-11.663 4.737-18.837 5.216z"/><path fill="#4FA13B" d="M557.167 327.245c-.332-3.082.379-4.647 3.447-4.27 2.793.344 5.655.248 8.407.77 3.97.751 7.008 3.26 7.049 7.341.212 21.426.276 42.856-.009 64.28-.065 4.857-3.82 7.693-8.59 8.276-3.226.394-6.54.075-10.305.075zM640.164 211.985v-68.328c4.407.35 8.72-.101 12.363 1.25 2.643.98 4.839 4.09 6.401 6.741 1.086 1.842 1.011 4.517 1.022 6.821.076 16.648.197 33.299-.004 49.945-.17 14.1-4.326 17.494-19.782 16.287z"/><path fill="#4D9F39" d="M493.573 144.246c10.547-3.202 16.26.256 16.476 10.808.408 19.806.311 39.632-.06 59.44-.153 8.162-5.26 11.87-12.849 10.754-4.27-.628-7.118-2.887-8-7.09-.645-3.074-1.063-6.254-1.083-9.39-.103-16.495-.142-32.992.006-49.486.048-5.431-.2-11.18 5.51-15.036"/><path fill="#4FA13B" d="M577.496 225.1c-9.16.829-13.381-2.02-13.573-10.74-.442-20.141-.382-40.303-.02-60.448.137-7.643 3.711-10.7 10.32-10.894 6.617-.195 9.932 2.787 11.186 10.124.224 1.308.403 2.643.404 3.965.027 17.996.164 35.995-.065 53.988-.074 5.806-.456 11.984-8.252 14.005"/><path fill="#55A442" d="M886.83 171.733c.772-4.625 1.486-8.82 2.2-13.014l.689.094 6.676 41.498h-14.25c1.578-9.592 3.103-18.87 4.686-28.578M419.457 349.383c.685-4.005 1.261-7.59 1.837-11.174l.814-.075 6.801 41.45h-14.296a7540 7540 0 0 1 4.844-30.201"/></svg>