<svg xmlns="http://www.w3.org/2000/svg" xml:space="preserve" viewBox="0 0 1500 1500"><path fill="#C5192D" d="M1501 529v971.96H1.103V1.165H1501zM757.091 130.017c-1.606-.291-3.212-.83-4.819-.836-15.998-.063-31.996-.047-47.994-.022-1.27.002-2.54.236-3.954.376v14.636h18.087v94.642h20.573v-94.7h17.552c0-3.243-.17-6.057.068-8.837.13-1.528.95-2.996 1.467-3.704 6.867 20.82 13.776 41.625 20.544 62.477.802 2.472 1.131 5.194 1.156 7.806.118 12.277.053 24.556.053 37.075h19.182c0-5.27.249-10.403-.047-15.504-.943-16.284.398-32.186 7.037-47.33.664-1.515 1.116-3.125 1.63-4.703 4.51-13.863 9.012-27.73 13.726-42.236-5.549 0-10.49.16-15.416-.062-2.749-.123-3.712 1.037-4.388 3.496-2.07 7.529-4.372 14.995-6.619 22.475-1.602 5.333-3.26 10.65-5.278 17.233-4.3-13.893-8.125-26.432-12.114-38.92-.491-1.54-1.823-3.978-2.81-4-5.544-.125-11.102.363-17.636.638m184.61 534.199c-80.508 46.506-161.002 93.036-241.57 139.438-3.569 2.055-5.078 4.135-5.074 8.431.13 139.805.107 279.61.107 419.416v6.179l272.685-81.98V649.205c-8.883 5.113-17.19 9.894-26.148 15.01M394.163 934.5v221.099l271.342 81.867v-7.088c0-139.296-.038-278.592.144-417.888.007-5.47-1.816-8.102-6.4-10.739-80.733-46.433-161.352-93.065-242.001-139.645-7.438-4.296-14.91-8.532-23.085-13.206zm423.38 292.616c-35.73 11.581-71.572 22.832-107.14 34.891-16.308 5.53-33.06 7.195-49.079 2.856-85.362-23.118-170.459-47.217-255.644-70.991-13.24-3.695-26.457-7.47-40.034-11.307V647.738c-8.682 6.86-16.477 13.324-24.622 19.312-3.475 2.555-4.645 5.27-4.642 9.547.113 173.485.116 346.97-.007 520.455-.003 4.75 1.188 6.745 6.015 8.071 91.05 25.022 182.022 50.334 273.053 75.43 25.55 7.044 50.701 16.72 78.046 13.443 2.781-.333 5.649-.505 8.292-1.338 28.69-9.043 57.323-18.265 86.01-27.32 77.655-24.51 155.315-49.005 233.032-73.319 4.417-1.382 5.824-3.089 5.82-7.798-.146-164.82-.312-329.639.223-494.456.045-13.828-2.498-23.844-14.964-30.702-5.097-2.804-9.357-7.13-14.75-11.352v7.018c0 169.32-.027 338.638.132 507.956.004 5.078-1.464 7-6.256 8.533-57.62 18.42-115.153 37.107-173.485 55.898M1181 1079.5V696.285h-64.169v6.697c0 145.807-.017 291.616.08 437.424.002 4.409.737 8.938 1.893 13.204 4.343 16.038 8.978 31.996 13.55 47.971 5.324 18.603 10.697 37.192 16.352 56.841.737-2.033 1.173-3.043 1.474-4.092 9.618-33.542 19.296-67.067 28.745-100.657 1.283-4.561 1.932-9.442 1.984-14.184.217-19.661.091-39.326.091-59.989M134.485 255.936c-4.425 10.397-8.451 20.986-13.377 31.14-5.789 11.93-8.926 24.12-7.723 37.474.595 6.61.081 13.32.124 19.984.008 1.258.273 2.514.463 4.135h86.182v67.517h49.913V348.34h28.135v-41.514h-28.42V130.029c-.942-.22-1.573-.494-2.205-.495-18.827-.03-37.656-.133-56.479.139-1.55.022-3.75 2.313-4.493 4.045-17.355 40.47-34.551 81.01-52.12 122.218m316.472-5.877c-.614-1.517-.851-3.41-1.916-4.477-2.57-2.578-5.526-4.77-8.404-7.183 10.984-9.455 14.196-12.92 14.737-24.585.918-19.762.896-39.63-.017-59.394-.567-12.252-6.565-22.306-19.777-25.02-6.067-1.246-12.627-1.363-18.793-.605-13.366 1.64-21.684 8.64-22.546 22.025-1.377 21.37-1.936 42.97-.39 64.295 1.27 17.523 11.199 24.754 28.845 25.3 3.094.095 4.74 1.335 6.458 3.618 5.078 6.748 10.657 13.024 18.636 17.169 1.088-3.745 2.059-7.085 3.167-11.143m.514 68.522v99.605c9.885 0 19.188.019 28.491-.013 2.327-.008 4.673-.021 6.977-.302 14.124-1.722 23.047-9.371 23.926-23.68 1.22-19.884 1.1-39.889.631-59.82-.258-10.974-5.17-20.091-16.681-23.537-14.128-4.23-28.605-1.705-43.344-2.428zm513.707 57.92v-67.58h-17.012v57.88c-1.63-1.454-2.395-3.037-3.093-4.65-7.2-16.627-14.34-33.28-21.659-49.855-.672-1.523-2.347-3.438-3.767-3.633-3.729-.511-7.574-.173-11.57-.173v109.458h16.887V356.09c1.35.93 1.854 2.06 2.33 3.201 7.6 18.255 15.156 36.528 22.864 54.738.673 1.591 2.187 3.738 3.564 3.946 3.67.553 7.48.188 11.456.188zm-71.173 11.798c-.005-16.979.364-33.968-.115-50.933-.53-18.806-9.871-28.88-27.843-30.026-19.593-1.248-32.75 5.448-34.224 24.745-1.566 20.505-1.423 41.283-.093 61.817.973 15.03 8.9 22.852 21.132 24.87 5.177.853 10.63.933 15.859.397 13.264-1.358 20.795-8.193 23.922-21.059.704-2.894.916-5.908 1.362-9.811M567.147 332.5c0 16.987.09 33.974-.06 50.96-.04 4.46-.438 8.993-1.356 13.348-1.056 5.006-4.889 7.64-9.768 7.637-4.97-.003-8.742-2.504-9.864-7.492a63 63 0 0 1-1.504-13.324c-.142-23.148-.066-46.297-.066-69.445v-5.322h-19.407c0 27.191-.546 54.008.18 80.79.545 20.152 9.536 29.369 28.538 30.032 20.659.72 28.517-7.048 31.81-23.045.866-4.207 1.132-8.598 1.152-12.907.107-23.481.055-46.963.04-70.445-.001-1.442-.161-2.885-.258-4.497h-19.437zm-52.34-203.35c-4.015-.673-3.674 2.035-3.672 4.62.023 23.994.07 47.988-.042 71.981-.02 3.962-.41 8.003-1.284 11.859-1.172 5.171-4.59 7.514-9.737 7.536-5.13.022-8.607-2.38-9.944-7.338-.728-2.704-1.2-5.563-1.222-8.357-.199-24.651-.27-49.303-.378-73.954-.009-1.959-.002-3.918-.002-6.02h-19.35c-.076 1.132-.179 1.947-.18 2.763-.008 24.66-.06 49.32.048 73.98.018 3.973.487 7.994 1.225 11.903 2.131 11.28 8.078 19.453 19.967 21.415 5.507.91 11.299.913 16.877.404 11.056-1.01 18.603-6.994 21.411-17.898 1.316-5.108 2.176-10.48 2.226-15.743.23-24.159.107-48.32.088-72.48-.001-1.438-.191-2.876-.319-4.672zm95.643 183.735c-7.647 6.156-10.207 14.755-10.394 23.931-.363 17.801-.541 35.629.019 53.42.585 18.598 10.02 28.281 28.457 29.415 10.73.66 21.272-.975 27.42-11.549 5.604-9.637 5.06-20.29 4.76-30.728H640.95c0 6.025.227 11.682-.061 17.313-.316 6.17-3.637 9.526-9.1 9.91-5.937.418-9.692-2.413-10.794-8.623-.636-3.583-.918-7.27-.944-10.913-.103-14.493-.076-28.987-.016-43.48.013-3.153.146-6.337.601-9.452 1.053-7.203 4.808-10.406 11.253-9.934 6.092.446 8.846 3.62 9.074 10.842.156 4.957.03 9.922.03 15.034h20.217c-.454-6.779-.418-13.143-1.404-19.345-1.44-9.054-5.818-16.54-15.101-19.407-11.53-3.562-22.97-3.378-34.256 3.566m-28.638-183.692H562.1L539.783 238.95h19.072l4.57-24.91h18.658c1.299 7.287 2.46 14.481 3.96 21.604.278 1.324 1.858 3.297 2.945 3.37 5.265.352 10.566.159 16.081.159-.155-1.66-.157-2.812-.38-3.918-4.963-24.597-9.894-49.201-14.959-73.777-2.21-10.723-4.705-21.386-7.918-32.286M692.98 393.03h17.213c1.312 7.469 2.478 14.679 3.933 21.83.251 1.23 1.683 3.103 2.656 3.159 5.406.309 10.839.148 16.16.148.096-.837.16-1.01.128-1.166-7.072-35.36-14.13-70.723-21.333-106.056-.2-.98-1.934-2.306-2.994-2.345-6.114-.225-12.24-.11-18.564-.11L667.93 417.961h19.016c.372-1.882.706-3.66 1.076-5.429 1.348-6.447 2.708-12.893 4.957-19.502m446.346 212.553c-12.118 4.025-20.51 12.31-21.852 24.804-1.425 13.27-.32 26.813-.32 40.383h63.718c0-13.008 1.008-25.887-.232-38.545-1.947-19.87-21.466-32.124-41.314-26.642m-710.017-251.6h-14.072v-31.325h25.369v-13.764h-45.947v109.028h46.086v-13.834h-25.575v-35.626h19.781v-14.48zm341.234 60.053v-90.517h17.384v-14.721h-55.758v14.969h18.056v94.415c6.273 0 12.088.133 17.882-.145.86-.041 1.626-2.022 2.436-4.001M647.501 225.143h-12.168v-95.714h-19.858v109.4h45.939v-13.686zM816.554 336.5v-27.744H796.72V417.93h19.833zM672 175.5v63.353h19.63v-109.44H672z"/><path fill="#FFF" d="M942.027 664.048c8.633-4.95 16.94-9.73 25.822-14.843V1155.7l-272.685 81.98v-6.18c0-139.804.022-279.61-.107-419.415-.004-4.296 1.505-6.376 5.074-8.431 80.568-46.402 161.062-92.932 241.896-139.606"/><path fill="#FFFEFE" d="M394.163 934V648.9c8.175 4.674 15.647 8.91 23.085 13.206 80.649 46.58 161.268 93.212 242.001 139.645 4.584 2.637 6.407 5.27 6.4 10.74-.182 139.295-.144 278.591-.144 417.887v7.088L394.163 1155.6z"/><path fill="#FEFBFB" d="M817.931 1227.03c57.944-18.705 115.478-37.392 173.097-55.812 4.792-1.532 6.26-3.455 6.256-8.533-.16-169.318-.132-338.637-.132-507.956v-7.018c5.393 4.223 9.653 8.548 14.75 11.352 12.466 6.858 15.01 16.874 14.964 30.702-.535 164.817-.369 329.637-.223 494.456.004 4.71-1.403 6.416-5.82 7.798-77.717 24.314-155.377 48.81-233.032 73.32-28.687 9.054-57.32 18.276-86.01 27.32-2.643.832-5.511 1.004-8.292 1.337-27.345 3.276-52.496-6.4-78.046-13.443-91.03-25.096-182.002-50.408-273.053-75.43-4.827-1.326-6.018-3.32-6.015-8.07.123-173.486.12-346.97.007-520.456-.003-4.277 1.167-6.992 4.642-9.547 8.145-5.988 15.94-12.453 24.622-19.312v534.827c13.577 3.836 26.794 7.612 40.034 11.307 85.185 23.774 170.282 47.873 255.644 70.991 16.02 4.339 32.77 2.673 49.079-2.856 35.568-12.059 71.41-23.31 107.528-34.978"/><path fill="#FFF" d="M1181 1080c0 20.163.126 39.828-.09 59.489-.053 4.742-.702 9.623-1.985 14.184-9.45 33.59-19.127 67.115-28.745 100.657-.3 1.049-.737 2.06-1.474 4.092-5.655-19.649-11.028-38.238-16.352-56.84-4.572-15.976-9.207-31.934-13.55-47.972-1.156-4.266-1.89-8.795-1.893-13.204-.097-145.808-.08-291.617-.08-437.424v-6.697H1181z"/><path fill="#FEFDFD" d="M134.657 255.595c17.397-40.868 34.593-81.406 51.948-121.877.743-1.732 2.943-4.023 4.493-4.045 18.823-.272 37.652-.17 56.48-.139.631.001 1.262.276 2.203.495v176.797h28.421v41.514h-28.135v67.846h-49.913v-67.517h-86.182c-.19-1.621-.455-2.877-.463-4.135-.043-6.664.471-13.373-.124-19.984-1.203-13.354 1.934-25.543 7.723-37.475 4.926-10.153 8.952-20.742 13.549-31.48m65.34 40.878V188.908l-.96-.147-42.164 117.93h43.125zM450.888 250.418c-1.04 3.699-2.01 7.04-3.098 10.784-7.98-4.145-13.558-10.421-18.636-17.17-1.718-2.282-3.364-3.522-6.458-3.617-17.646-.546-27.575-7.777-28.845-25.3-1.546-21.325-.987-42.925.39-64.295.862-13.385 9.18-20.384 22.546-22.025 6.166-.758 12.726-.641 18.793.605 13.212 2.714 19.21 12.768 19.777 25.02.913 19.764.935 39.632.017 59.394-.541 11.665-3.753 15.13-14.737 24.585 2.878 2.413 5.834 4.605 8.404 7.183 1.065 1.068 1.302 2.96 1.847 4.836M435.527 187.5c-.1-11.321.131-22.66-.417-33.959-.356-7.323-3.804-10.311-10.144-10.53-6.77-.234-10.938 2.588-11.105 9.95-.474 20.95-.112 41.92-.052 62.883.002.817.223 1.653.457 2.447 1.201 4.06 3.757 6.42 8.112 6.992 8.093 1.063 12.64-2.879 13.043-12.294.349-8.15.094-16.325.106-25.489"/><path fill="#FDF9F9" d="M451.471 318.096v-9.69c14.739.723 29.216-1.801 43.344 2.428 11.51 3.446 16.423 12.563 16.681 23.537.47 19.931.59 39.936-.631 59.82-.879 14.309-9.802 21.958-23.926 23.68-2.304.28-4.65.294-6.977.302-9.303.032-18.606.013-28.49.013zm20.38 26.404v59.429c3.296 0 5.957.197 8.578-.04 6.547-.589 10.352-3.955 10.448-10.51.293-19.963.306-39.935.082-59.899-.07-6.33-3.326-9.44-9.51-10.183-3.057-.368-6.195-.064-9.597-.064z"/><path fill="#FEFCFC" d="M965.178 377v41.164c-3.977 0-7.785.365-11.456-.188-1.377-.208-2.89-2.355-3.564-3.946-7.708-18.21-15.265-36.483-22.865-54.738-.475-1.141-.98-2.27-2.329-3.2v61.856h-16.887V308.49c3.996 0 7.841-.338 11.57.173 1.42.195 3.095 2.11 3.767 3.633 7.32 16.574 14.46 33.228 21.659 49.855.698 1.613 1.463 3.196 3.093 4.65v-57.88h17.012z"/><path fill="#FFFDFD" d="M894.002 388.77c-.443 3.431-.655 6.445-1.359 9.34-3.127 12.865-10.658 19.7-23.922 21.058-5.229.536-10.682.456-15.86-.398-12.23-2.017-20.158-9.839-21.131-24.87-1.33-20.533-1.473-41.311.093-61.816 1.474-19.297 14.631-25.993 34.224-24.745 17.972 1.145 27.312 11.22 27.843 30.026.479 16.965.11 33.954.112 51.405m-20.474-28.27c-.16-9.82.054-19.664-.615-29.45-.415-6.07-4.136-8.741-10.09-8.893-6.016-.153-10.52 2.397-10.638 8.144-.451 22.106-.306 44.23.01 66.343.06 4.317 3.315 7.004 7.872 7.76 8.408 1.393 13.14-2.888 13.394-12.91.253-9.992.063-19.995.067-30.994"/><path fill="#FDF9F9" d="M567.147 332v-23.21h19.437c.097 1.612.257 3.055.258 4.497.015 23.482.067 46.964-.04 70.445-.02 4.309-.286 8.7-1.151 12.907-3.294 15.997-11.152 23.766-31.811 23.045-19.002-.663-27.993-9.88-28.539-30.031-.725-26.783-.179-53.6-.179-80.791h19.407v5.322c0 23.148-.076 46.297.066 69.445a63 63 0 0 0 1.504 13.324c1.122 4.988 4.894 7.489 9.864 7.492 4.88.003 8.712-2.63 9.768-7.637.918-4.355 1.317-8.889 1.356-13.348.15-16.986.06-33.973.06-51.46"/><path fill="#FEF9FA" d="M515.277 129.149h15.242c.128 1.796.318 3.234.32 4.672.018 24.16.141 48.321-.089 72.48-.05 5.262-.91 10.635-2.226 15.743-2.808 10.904-10.355 16.888-21.411 17.898-5.578.509-11.37.506-16.877-.404-11.889-1.962-17.836-10.134-19.967-21.415-.738-3.909-1.207-7.93-1.225-11.903-.109-24.66-.056-49.32-.047-73.98 0-.816.103-1.63.179-2.764h19.35c0 2.103-.007 4.062.002 6.02.107 24.652.18 49.304.378 73.955.023 2.794.494 5.653 1.222 8.357 1.337 4.959 4.814 7.36 9.944 7.338 5.147-.022 8.565-2.365 9.737-7.536.874-3.856 1.265-7.897 1.284-11.859.112-23.993.065-47.987.042-71.98-.002-2.586-.343-5.294 4.142-4.622"/><path fill="#FEFBFB" d="M610.73 312.655c11.006-6.715 22.446-6.899 33.976-3.337 9.283 2.867 13.661 10.353 15.1 19.407.987 6.202.951 12.566 1.405 19.345h-20.217c0-5.112.126-10.077-.03-15.034-.228-7.221-2.982-10.396-9.074-10.842-6.445-.472-10.2 2.731-11.253 9.934-.455 3.115-.588 6.299-.601 9.452-.06 14.493-.087 28.987.016 43.48.026 3.643.308 7.33.944 10.913 1.102 6.21 4.857 9.04 10.794 8.623 5.463-.384 8.784-3.74 9.1-9.91.288-5.631.061-11.288.061-17.313h19.76c.3 10.437.845 21.09-4.759 30.728-6.148 10.574-16.69 12.21-27.42 11.55-18.437-1.135-27.872-10.818-28.457-29.416-.56-17.791-.382-35.619-.019-53.42.187-9.176 2.747-17.775 10.673-24.16"/><path fill="#FEFCFC" d="M582.236 129.297a665 665 0 0 1 7.494 32.18c5.065 24.577 9.996 49.18 14.959 73.778.223 1.106.225 2.258.38 3.918-5.515 0-10.816.193-16.081-.16-1.087-.072-2.667-2.045-2.945-3.369-1.5-7.123-2.661-14.317-3.96-21.605h-18.658l-4.57 24.911h-19.072l22.316-109.758c6.752 0 13.233 0 20.137.105m-3.384 64.221-5.837-34.7-.765.131-6.614 41.192h14.13zM692.532 393.112c-1.802 6.527-3.162 12.973-4.51 19.42-.37 1.77-.704 3.547-1.076 5.429H667.93l22.248-109.47c6.324 0 12.45-.116 18.564.109 1.06.039 2.794 1.364 2.994 2.345 7.203 35.333 14.261 70.696 21.333 106.056.031.155-.032.33-.129 1.166-5.32 0-10.753.16-16.159-.148-.973-.056-2.405-1.928-2.656-3.16-1.455-7.15-2.62-14.36-3.933-21.829-5.937 0-11.575 0-17.66.082m12.919-29.091-4.223-25.637-.92.14-6.624 40.969h14.26c-.796-5.139-1.531-9.884-2.493-15.472"/><path fill="#FFFEFE" d="M1139.7 605.424c19.473-5.323 38.992 6.93 40.939 26.8 1.24 12.66.232 25.538.232 38.546h-63.718c0-13.57-1.105-27.112.32-40.383 1.343-12.493 9.734-20.779 22.227-24.963"/><path fill="#FDF7F8" d="M429.778 353.982h5.172v14.48H415.17v35.626h25.575v13.834h-46.086V308.894h45.947v13.764h-25.37v31.324z"/><path fill="#FEFCFD" d="M758.072 130.021c5.553-.279 11.11-.767 16.654-.643.988.023 2.32 2.461 2.811 4.001 3.989 12.488 7.815 25.027 12.114 38.92 2.019-6.583 3.676-11.9 5.278-17.233 2.247-7.48 4.55-14.946 6.619-22.475.676-2.46 1.64-3.62 4.388-3.496 4.925.221 9.867.062 15.416.062-4.714 14.507-9.216 28.373-13.727 42.236-.513 1.578-.965 3.188-1.629 4.703-6.64 15.144-7.98 31.046-7.037 47.33.296 5.101.047 10.234.047 15.504h-19.182c0-12.519.065-24.798-.053-37.075-.025-2.612-.354-5.334-1.156-7.806-6.768-20.852-13.677-41.657-20.54-62.998.013-.69.01-.86-.003-1.03"/><path fill="#FDF6F7" d="M770.542 414.482c-.81 1.532-1.576 3.513-2.436 3.554-5.794.278-11.609.145-17.882.145v-94.415h-18.056v-14.969h55.758v14.72h-17.384z"/><path fill="#FDF7F8" d="M757.582 130.02c.503.17.506.34.49.638-.518 1.622-1.337 3.09-1.468 4.618-.239 2.78-.068 5.594-.068 8.836h-17.552v94.7h-20.573v-94.64h-18.087v-14.637c1.415-.14 2.684-.374 3.954-.376 15.998-.025 31.996-.041 47.994.022 1.607.006 3.213.545 5.31.838M647.996 225.143h13.418v13.686h-45.939v-109.4h19.858v95.714z"/><path fill="#FCF3F4" d="M816.554 337v80.93H796.72V308.756h19.833z"/><path fill="#FFF" d="M672 175v-45.587h19.63v109.44H672z"/><path fill="#C51A2E" d="M199.998 296.967v9.724h-43.125l42.163-117.93.962.147z"/><path fill="#C72134" d="M435.527 188c-.012 8.664.243 16.84-.106 24.989-.404 9.415-4.95 13.357-13.043 12.294-4.355-.572-6.91-2.933-8.112-6.992-.234-.794-.455-1.63-.457-2.447-.06-20.963-.422-41.932.052-62.883.167-7.362 4.335-10.184 11.105-9.95 6.34.219 9.788 3.207 10.144 10.53.548 11.3.317 22.638.417 34.46"/><path fill="#C5192D" d="M471.853 344v-20.767c3.402 0 6.54-.304 9.597.064 6.184.743 9.44 3.853 9.51 10.183.224 19.964.211 39.936-.082 59.899-.096 6.555-3.901 9.921-10.448 10.51-2.621.237-5.282.04-8.577.04z"/><path fill="#C72134" d="M873.528 361c-.004 10.499.186 20.502-.067 30.494-.254 10.022-4.986 14.303-13.394 12.91-4.557-.756-7.811-3.443-7.873-7.76-.315-22.113-.46-44.237-.009-66.343.118-5.747 4.622-8.297 10.638-8.144 5.954.152 9.675 2.822 10.09 8.894.669 9.785.455 19.63.615 29.95"/><path fill="#C82639" d="m578.91 193.936.855 6.205h-14.129l6.614-41.192.765-.13c1.946 11.566 3.891 23.133 5.895 35.117M705.564 364.443c.849 5.166 1.584 9.911 2.38 15.05h-14.26l6.625-40.97.92-.14c1.407 8.546 2.814 17.092 4.335 26.06"/></svg>