<svg xmlns="http://www.w3.org/2000/svg" xml:space="preserve" viewBox="0 0 1500 1500"><path fill="#26BDE2" d="M1501 553v947.96H1.102V1.165H1501zm-612.5 51.161H480.076c-9.673.001-11.41 2.072-9.816 11.715 15.664 94.75 31.326 189.5 46.995 284.248 14.637 88.506 29.28 177.012 43.92 265.518 1.215 7.35 2.589 8.522 10.151 8.523 34.495.005 68.99.002 103.485.002h6.316l7.735 90.718h-46.22l109.533 109.547 109.827-109.834h-46.156c.166-2.872.243-5.187.442-7.49 2.191-25.383 4.432-50.76 6.587-76.145.624-7.345-.74-6.786 7.413-6.79 35.328-.015 70.656 0 105.984-.013 5.99-.002 7.876-1.41 8.682-6.61 5.377-34.706 10.717-69.417 16.077-104.124 7.113-46.06 14.219-92.122 21.355-138.18 8.511-54.936 17.067-109.865 25.576-164.802 7.515-48.524 14.972-97.056 22.51-145.577 1.284-8.267-.629-10.701-8.991-10.703-43.994-.006-87.987-.003-132.981-.003m-673.558-424.25 3.088 23.568h51.324c-.038-13.044-.861-25.579-4.877-37.77-6.36-19.302-19.299-31.545-38.957-36.46-16.373-4.094-32.933-4.353-49.569-1.536-23.025 3.9-38.485 16.829-47.018 38.532-7.585 19.289-9.317 39.443-9.422 59.831-.167 32.661-.127 65.325-.008 97.986.056 15.529 1.29 30.948 6.29 45.82 7.179 21.349 19.264 38.325 41.498 46.075 12.97 4.52 26.37 5.174 39.95 4.098 27.18-2.153 46.985-14.695 56.972-40.728 10.912-28.441 11.985-57.805 7.144-87.53-2.193-13.468-6.56-26.359-15.826-36.694-15.222-16.98-35-18.996-56.009-15.47-9.486 1.592-17.68 6.003-24.485 13.351.034-18.603.216-36.927 1.295-55.199.394-6.676 2.29-13.461 4.635-19.776 2.932-7.895 9.816-10.353 17.818-9.989 7.634.347 13.57 3.193 16.157 11.89m551.894-50.654h-15.831c5.27 36.883 10.465 73.224 15.708 109.91 4.951 0 9.447.226 13.892-.15 1.198-.101 3-1.886 3.238-3.142 1.892-9.966 3.466-19.993 5.151-29.999 2.033-12.067 4.078-24.13 6.118-36.196 1.122 1.955 1.55 3.882 1.879 5.826 3.383 20.015 6.704 40.04 10.226 60.03.237 1.343 1.882 3.356 3.019 3.46 4.43.404 8.92.165 13.757.165l15.68-109.711h-16.728l-8.329 64.624c-1.591-1.87-2.107-3.71-2.423-5.586-2.794-16.57-5.553-33.144-8.32-49.717-1.658-9.94-1.654-9.836-11.536-9.683-2.874.044-4.032.857-4.477 3.835-1.82 12.175-3.921 24.308-5.945 36.452-1.37 8.22-2.785 16.432-4.179 24.647l-1.33-.02c-1.137-8.8-2.22-17.607-3.422-26.397-1.733-12.677-3.551-25.342-6.148-38.348m268.792 109.939h11.925v-5.897c0-12.997.164-25.997-.09-38.988-.084-4.326 1.506-5.36 5.501-5.217 3.223.115 3.729 1.947 4.343 4.336 3.56 13.856 7.15 27.706 10.878 41.517.412 1.53 1.688 3.95 2.685 4.013 6.04.376 12.116.187 18.59.187-.54-2.171-.824-3.454-1.177-4.718-4.216-15.06-8.375-30.135-12.725-45.155-.825-2.848-.033-4.065 2.137-6.115 3.36-3.176 6.92-7.21 7.995-11.483 1.587-6.301 1.735-13.179 1.291-19.73-.735-10.844-6.76-18.802-17.358-20.446-13.668-2.121-27.647-2.237-41.767-3.236v110.931zM481.558 371.51v-13.833l1.3-.056c.672 1.488 1.382 2.96 2.008 4.466 7.207 17.353 14.358 34.73 21.675 52.036.667 1.577 2.228 3.652 3.63 3.872 3.539.555 7.223.184 11.387.184v-44.353c0-20.154.024-40.308-.04-60.461-.006-1.92 1.04-4.78-2.515-4.866-4.593-.111-9.19-.027-14.614-.027v57.287c-1.909-1.501-2.694-3.106-3.403-4.744-7.004-16.177-13.959-32.375-21.046-48.515-.664-1.512-2.02-3.657-3.26-3.807-4.026-.487-8.147-.182-12.326-.182v109.31h17.203zm109.005 37.529c2.126-5.338 5.889-10.616 6.088-16.026.74-20.106.831-40.274.123-60.382-.428-12.164-7.492-20.747-18.62-22.293-13.403-1.862-27.073-1.8-40.866-2.586v109.991c12.236 0 24.195.37 36.114-.15 6.38-.278 12.282-2.93 17.16-8.554m511.43-24.602c.372 3.97.412 8.004 1.177 11.895 2.265 11.524 8.199 20.113 20.453 22.318 5.162.929 10.633 1.159 15.845.602 14.44-1.542 22.591-8.253 24.49-22.608 2.97-22.452 3.024-45.163-.14-67.623-1.735-12.322-9.805-19.18-21.538-21.097-26.462-4.324-40.21 7.293-40.28 34.082-.037 13.816-.007 27.633-.007 42.431M649.448 149.5v89.3h17.475v-60.915c1.565 1.256 2.306 2.656 2.912 4.112 7.353 17.66 14.645 35.345 22.094 52.965.678 1.605 2.176 3.785 3.554 3.995 3.665.56 7.473.19 11.229.19V129.47h-16.725v58.508c-1.579-1.446-2.282-2.936-2.936-4.446-7.272-16.787-14.491-33.597-21.877-50.334-.696-1.576-2.29-3.637-3.706-3.844-3.714-.542-7.559-.183-12.02-.183zm130 205v63.305h17.509v-60.8c1.604 1.48 2.372 3.073 3.052 4.704 7.29 17.498 14.535 35.015 21.906 52.478.631 1.495 1.962 3.615 3.18 3.77 3.84.49 7.782.18 11.676.18V308.915h-16.96v58.202c-1.478-1.462-2.156-2.973-2.814-4.492-7.277-16.779-14.501-33.58-21.904-50.304-.682-1.539-2.369-3.47-3.807-3.674-3.7-.522-7.522-.174-11.838-.174zm408.738-46.052h-8.724v109.31h16.885v-61.441c1.465 1.307 2.14 2.768 2.756 4.252 7.408 17.818 14.754 35.663 22.3 53.423.708 1.665 2.502 3.703 4.078 3.99 3.365.611 6.919.187 10.731.187V308.807h-16.393v58.291c-1.695-1.22-2.361-2.525-2.943-3.867-7.338-16.943-14.72-33.869-21.94-50.863-1.199-2.82-2.678-4.47-6.75-3.92M415.794 221.54c-.873-4.353-2.412-8.693-2.5-13.061-.308-15.483-.153-30.976-.092-46.464.012-3.148.163-6.327.634-9.434 1.044-6.875 4.708-9.92 11.069-9.545 6.023.354 8.862 3.566 9.122 10.773.184 5.076.036 10.164.036 15.278h19.66c0-4.934.304-9.442-.065-13.893-.748-9.014-2.879-17.57-11.219-22.84-20.582-13.002-46.348-.985-49.255 22.92-.24 1.978-.333 3.986-.337 5.98-.027 15.323-.099 30.646.043 45.967.035 3.8.46 7.67 1.292 11.375 2.226 9.908 7.484 17.653 17.78 20.25 11.801 2.976 23.53 3.214 33.553-5.343 1.948-1.664 3.403-4.128 4.536-6.486 4.404-9.17 4.045-18.93 3.566-28.767H434.04c0 5.723.072 11.028-.023 16.33-.075 4.188-1.126 8.23-5.363 9.908-4.386 1.735-8.845 1.523-12.859-2.948m308.034 193.843c1.28-7.346 2.562-14.692 3.902-22.375 5.36 0 10.334.13 15.296-.05 2.77-.102 3.72.964 4.084 3.642.808 5.93 1.882 11.831 3.088 17.695.283 1.372 1.463 3.591 2.336 3.644 5.553.334 11.136.17 17.135.17-.983-4.871-1.799-8.938-2.625-13.003-6.292-30.957-12.637-61.903-18.796-92.887-.584-2.936-1.697-3.931-4.545-3.8-3.655.17-7.363.373-10.979-.043-4.937-.568-6.821 1.29-7.74 6.186-3.616 19.283-7.712 38.476-11.603 57.708-3.054 15.096-6.068 30.199-9.216 45.878 6.024 0 11.487.083 16.942-.086.85-.026 1.664-1.198 2.72-2.679m280.413.469c-1.07-5.385-2.128-10.772-3.214-16.154-5.79-28.693-11.668-57.37-17.295-86.096-.798-4.074-2.34-5.635-6.524-5.227-3.96.386-7.992.216-11.981.042-2.868-.125-3.952.9-4.53 3.817-4.808 24.312-9.827 48.581-14.778 72.865-2.21 10.837-4.407 21.677-6.676 32.842 2.133.097 3.608.243 5.08.217 4.48-.08 10.28 1.418 13.065-.816 2.72-2.181 2.374-8.198 3.338-12.539.216-.97.256-1.98.424-2.963 1.504-8.834 1.507-8.834 10.71-8.834 1.666 0 3.348.152 4.993-.032 3.363-.376 5.009.481 5.454 4.364.789 6.887 2.383 13.681 3.695 20.812 5.68 0 10.99.054 16.298-.066.698-.016 1.376-.923 1.941-2.232m-558.63-41.127c-4.197-20.701-8.402-41.401-12.58-62.107-.436-2.163-.571-4.274-3.731-4.193-5.957.154-11.92.045-18.215.045L388.85 417.865h19.074l4.514-24.649H431.1c1.303 7.34 2.476 14.554 3.958 21.705.252 1.218 1.774 3.027 2.797 3.087 5.272.313 10.571.146 16.48.146a13884 13884 0 0 0-8.726-43.428m157.081-245.572c-5.085-1.022-6.769 1.484-7.656 6.227-3.304 17.664-7.013 35.253-10.579 52.868-3.395 16.767-6.8 33.533-10.329 50.925h7.894c11.182 0 11.182 0 13.163-11.216 2.621-14.843 2.618-14.776 17.843-14.171 2.698.107 3.709.937 4.112 3.65 1.07 7.188 2.511 14.32 3.794 21.412h18.54c-.286-1.982-.442-3.631-.77-5.245a96101 96101 0 0 0-18.453-90.5c-.898-4.393-.496-10.5-3.212-12.682-2.919-2.346-8.804-1.002-14.347-1.268M843.218 233.6l-.69 5.572c5.31 0 10.131-.21 14.924.073 3.344.197 4.252-1.266 4.659-4.246.764-5.6 2.094-11.122 2.837-16.723.423-3.194 1.482-4.772 4.984-4.49 3.475.28 6.998.21 10.485.016 2.99-.167 4.405.622 4.847 3.947.938 7.057 2.442 14.038 3.71 21.029h18.773c-6.443-31.893-12.757-63.357-19.197-94.795-1.012-4.94-1.137-11.753-4.323-14.095-3.378-2.484-9.928-.477-15.07-.8-3.478-.22-4.846.856-5.56 4.437-6.597 33.113-13.424 66.18-20.38 100.075M662.096 341.077c-.654-1.875-1.592-3.704-1.91-5.635-1.137-6.921 1.69-11.648 7.332-12.654 6.201-1.106 10.1 2.1 11.43 9.494.461 2.56.757 5.15 1.193 8.18l16.465-3.282c1.211-16.263-8.072-28.018-23.22-29.855-21.41-2.597-35.453 12.2-31.95 33.446 1.35 8.19 5.627 14.47 11.643 19.797 6.11 5.41 12.3 10.73 18.407 16.144 4.951 4.39 7.867 9.882 8.295 16.527.33 5.133-2.163 9.329-5.97 10.485-4.75 1.442-9.796-.64-11.957-5.668-1.484-3.451-2.03-7.314-2.908-11.014-.325-1.368-.4-2.795-.652-4.65l-16.907 3.527c-1.631 19.401 9.906 32.89 28.607 33.903 16.98.92 28.997-10.61 29.042-27.628.036-13.526-7.13-23.145-16.516-31.726-6.748-6.17-13.36-12.488-20.424-19.39m328.463-132.579c0-4.664.23-9.343-.069-13.987-.259-4.037.924-5.724 5.235-5.41 4.917.358 9.88.083 14.98.083V174.91h-19.745v-31.17h25.18v-14.182h-45.665V238.79h46.044v-13.743h-25.96zm-426.172 30.67 4.498-.332v-13.692h-25.442v-36.222h19.655v-14.104H543.36v-31.104h25.297v-14.142h-45.48V239.17zm316.75 80.053c-.452 3.139.683 4.643 4.068 4.388 2.814-.21 5.687.224 8.48-.099 4.63-.535 5.876 1.277 5.843 5.831-.197 27.466-.097 54.933-.097 82.4v6.09h20.726V323.57h7.58c9.95-.002 9.775-.005 9.922-10.124.056-3.901-1.041-5.16-5.046-5.104-15.478.218-30.961.078-46.442.104-1.587.003-3.173.224-5.034.364zm162.508 4.453c1.83-.035 3.66-.098 5.489-.1 10.83-.016 10.692-.009 10.516-11.022-.054-3.389-1.295-4.2-4.426-4.176-15.144.12-30.289.053-45.434.053h-6.422v15.14c4.354 0 8.35.283 12.29-.073 4.583-.414 5.907 1.213 5.873 5.816-.204 27.458-.1 54.919-.1 82.379v6.166h20.434v-5.792c0-27.46-.016-54.92.037-82.38.003-1.919.521-3.836 1.743-6.011M944.856 184.5v-40.457h17.358v-14.56h-55.798v14.757h17.914v94.584h20.526zm-457.854-43.974v-11.01h-19.734v109.235h45.524v-13.756h-25.79zm365.996 179.995v97.23h19.8V308.79h-19.8zm234.848 1.988v-13.632h-19.461V417.75h19.46z"/><path fill="#FEFFFF" d="M889 604.161c44.494 0 88.487-.003 132.48.003 8.363.002 10.276 2.436 8.992 10.703-7.538 48.52-14.995 97.053-22.51 145.577-8.51 54.937-17.065 109.866-25.576 164.803-7.136 46.057-14.242 92.118-21.355 138.179-5.36 34.707-10.7 69.418-16.077 104.123-.806 5.202-2.692 6.61-8.682 6.611-35.328.013-70.656-.002-105.984.014-8.153.003-6.79-.556-7.413 6.789-2.155 25.385-4.396 50.762-6.587 76.144-.199 2.304-.276 4.62-.442 7.491h46.156l-109.827 109.834-109.534-109.547h46.22l-7.734-90.718h-6.316c-34.495 0-68.99.003-103.485-.002-7.562-.001-8.936-1.174-10.151-8.523-14.64-88.506-29.283-177.012-43.92-265.518-15.669-94.749-31.331-189.498-46.995-284.248-1.594-9.643.143-11.714 9.816-11.714zM585.359 726.937c11.306-3.941 22.564-8.026 33.927-11.793 25.454-8.439 50.364-4.667 74.844 4.096 21.922 7.848 43.41 16.987 65.555 24.11 33.266 10.703 67.375 13.891 102.08 7.66 25.37-4.557 49.551-12.948 73.312-22.616 18.092-7.361 36.307-12.07 56.239-5.242l15.346-94.242H493.983l21.492 110.07c24.178.316 46.835-4.632 69.884-12.043m174.107 348.473c4.631-.463 9.308-.66 13.888-1.43 39.822-6.687 69.512-40.984 70.657-81.424.683-24.095-6.337-46.05-19.164-66.106-20.537-32.111-41.509-63.944-62.314-95.883-3.326-5.107-6.74-10.158-10.38-15.634-1.005 1.263-1.664 1.965-2.182 2.759-23.739 36.388-47.55 72.73-71.153 109.206-9.995 15.448-15.802 32.47-18.365 50.733-5.91 42.114 20.563 82.818 61.398 94.458 12.079 3.442 24.347 3.013 37.615 3.321M214.836 179.523c-2.48-8.31-8.417-11.156-16.05-11.503-8.003-.364-14.887 2.094-17.82 9.989-2.344 6.315-4.24 13.1-4.634 19.776-1.08 18.272-1.26 36.596-1.295 55.2 6.806-7.35 14.999-11.76 24.485-13.352 21.01-3.526 40.787-1.51 56.01 15.47 9.265 10.335 13.632 23.226 15.825 36.695 4.84 29.724 3.768 59.088-7.144 87.53-9.987 26.032-29.793 38.574-56.972 40.727-13.58 1.076-26.98.423-39.95-4.098-22.234-7.75-34.32-24.726-41.497-46.075-5.001-14.872-6.235-30.291-6.291-45.82-.12-32.661-.159-65.325.008-97.986.105-20.388 1.837-40.542 9.422-59.831 8.533-21.703 23.993-34.633 47.018-38.532 16.636-2.817 33.196-2.558 49.57 1.536 19.657 4.915 32.596 17.158 38.956 36.46 4.016 12.191 4.839 24.726 4.877 37.77H218.03a3621 3621 0 0 0-3.194-23.956M195.72 379.407c11.173.047 16.691-3.77 19.396-14.67 1.67-6.73 2.99-13.743 3.033-20.638.093-15.424.278-30.965-1.435-46.25-1.626-14.507-13.678-21.157-27.057-16.135-4.33 1.626-8.27 4.863-11.698 8.094-1.766 1.664-2.778 4.92-2.829 7.481-.269 13.64-.599 27.311.04 40.927.425 9.046 1.739 18.193 3.952 26.968 1.923 7.625 7.199 13.049 16.598 14.223"/><path fill="#FBFEFE" d="M767.243 129.424c2.19 12.838 4.008 25.503 5.741 38.18 1.202 8.79 2.285 17.597 3.421 26.396l1.331.021c1.394-8.215 2.809-16.428 4.179-24.647 2.024-12.144 4.125-24.277 5.945-36.452.445-2.978 1.603-3.79 4.477-3.835 9.882-.153 9.878-.258 11.537 9.683 2.766 16.573 5.525 33.148 8.319 49.717.316 1.875.832 3.717 2.423 5.586l8.329-64.624h16.727L823.993 239.16c-4.838 0-9.327.24-13.757-.165-1.137-.104-2.782-2.117-3.019-3.46-3.522-19.99-6.843-40.015-10.226-60.03-.329-1.944-.757-3.871-1.88-5.826-2.039 12.065-4.084 24.13-6.117 36.196-1.685 10.006-3.26 20.033-5.151 30-.239 1.255-2.04 3.04-3.238 3.141-4.445.376-8.94.15-13.892.15l-15.708-109.91c5.587 0 10.709 0 16.238.168"/><path fill="#F9FDFE" d="M1035.163 239.194h-7.307V128.263c14.12.999 28.1 1.115 41.767 3.236 10.597 1.644 16.623 9.602 17.358 20.447.444 6.55.296 13.428-1.29 19.729-1.077 4.274-4.636 8.307-7.996 11.483-2.17 2.05-2.962 3.267-2.137 6.115 4.35 15.02 8.51 30.096 12.725 45.155.353 1.264.637 2.547 1.176 4.718-6.473 0-12.549.189-18.59-.187-.996-.062-2.272-2.484-2.684-4.013-3.728-13.811-7.317-27.661-10.878-41.517-.614-2.389-1.12-4.221-4.343-4.336-3.995-.143-5.585.891-5.5 5.217.253 12.991.09 25.99.089 38.988v5.897zm33.24-82.192c-1.39-11.737-7.629-15.799-20.552-13.193v32.223c2.368 0 4.342.084 6.308-.014 9.431-.47 13.16-3.954 14.145-13.217.175-1.643.134-3.31.098-5.799"/><path fill="#F8FDFE" d="M481.558 372.008v45.812h-17.204V308.51c4.179 0 8.3-.305 12.325.182 1.24.15 2.597 2.295 3.261 3.807 7.087 16.14 14.042 32.338 21.046 48.515.709 1.638 1.494 3.243 3.403 4.744V308.47c5.423 0 10.021-.084 14.614.027 3.554.086 2.509 2.947 2.515 4.866.064 20.153.04 40.307.04 60.46v44.354c-4.164 0-7.848.371-11.388-.184-1.4-.22-2.962-2.295-3.63-3.872-7.316-17.307-14.467-34.683-21.674-52.036-.626-1.507-1.336-2.978-2.007-4.466l-1.301.056z"/><path fill="#FCFEFF" d="M590.322 409.306c-4.639 5.356-10.54 8.01-16.92 8.288-11.92.52-23.88.149-36.115.149V307.752c13.793.785 27.463.724 40.866 2.586 11.128 1.546 18.192 10.13 18.62 22.293.708 20.108.618 40.276-.123 60.382-.2 5.41-3.962 10.688-6.328 16.293m-14.793-11.677c.488-3.94 1.356-7.876 1.398-11.821.163-15.47.089-30.942.043-46.413-.007-2.316-.138-4.666-.548-6.94-1.099-6.089-3.777-8.619-9.954-9.231-2.909-.289-5.87-.05-8.937-.05v80.863c6.653-.404 13.562 1.577 17.998-6.408"/><path fill="#FBFEFE" d="M1101.991 383.946c0-14.307-.03-28.124.007-41.94.07-26.789 13.818-38.406 40.28-34.082 11.733 1.917 19.803 8.775 21.539 21.097 3.163 22.46 3.11 45.17.14 67.623-1.9 14.355-10.051 21.066-24.49 22.608-5.213.557-10.684.327-15.846-.602-12.254-2.205-18.188-10.794-20.453-22.318-.765-3.891-.805-7.926-1.177-12.386m43-30.446c-.064-6.485.134-12.988-.28-19.451-.3-4.67-1.233-9.376-6.715-11.156-8.222-2.67-14.752 1.24-14.986 9.926-.487 18.117-.369 36.25-.44 54.377-.01 2.653.133 5.333.508 7.956.883 6.171 4.382 9.302 10.283 9.468 5.988.169 9.617-2.635 10.78-8.774.584-3.079.786-6.266.814-9.408.096-10.645.037-21.292.037-32.938"/><path fill="#F9FDFE" d="M649.448 149v-19.83c4.461 0 8.306-.359 12.02.183 1.415.207 3.01 2.268 3.706 3.844 7.386 16.737 14.605 33.547 21.877 50.334.654 1.51 1.357 3 2.936 4.446V129.47h16.725v109.679c-3.756 0-7.564.37-11.229-.19-1.378-.211-2.876-2.391-3.554-3.996-7.45-17.62-14.741-35.305-22.094-52.965-.606-1.456-1.347-2.856-2.912-4.112v60.914h-17.475zM779.448 354v-45.527c4.316 0 8.139-.348 11.838.174 1.438.203 3.125 2.135 3.807 3.674 7.403 16.723 14.627 33.525 21.904 50.304.658 1.52 1.336 3.03 2.814 4.492v-58.202h16.96v109.222c-3.894 0-7.835.31-11.675-.18-1.219-.155-2.55-2.275-3.18-3.77-7.372-17.463-14.616-34.98-21.907-52.478-.68-1.63-1.448-3.224-3.052-4.703v60.799h-17.51zM1188.62 308.448c3.638-.55 5.117 1.1 6.316 3.92 7.22 16.994 14.602 33.92 21.94 50.863.582 1.342 1.248 2.647 2.943 3.867v-58.291h16.393v109.362c-3.812 0-7.366.424-10.73-.187-1.577-.287-3.371-2.325-4.079-3.99-7.546-17.76-14.892-35.605-22.3-53.423-.617-1.484-1.291-2.945-2.756-4.252v61.441h-16.885v-109.31z"/><path fill="#FCFEFF" d="M416.008 221.88c3.8 4.132 8.26 4.344 12.645 2.609 4.237-1.677 5.288-5.72 5.363-9.908.095-5.302.023-10.607.023-16.33h19.578c.479 9.838.838 19.596-3.566 28.767-1.133 2.358-2.588 4.822-4.536 6.486-10.023 8.557-21.752 8.319-33.553 5.343-10.296-2.597-15.554-10.342-17.78-20.25-.833-3.706-1.257-7.575-1.292-11.375-.142-15.32-.07-30.644-.043-45.966.004-1.995.096-4.003.337-5.982 2.907-23.904 28.673-35.921 49.255-22.918 8.34 5.269 10.47 13.825 11.219 22.839.37 4.451.064 8.959.064 13.893h-19.66c0-5.114.149-10.202-.035-15.278-.26-7.207-3.099-10.42-9.122-10.773-6.361-.374-10.025 2.67-11.069 9.545-.471 3.107-.622 6.286-.634 9.434-.061 15.488-.216 30.981.093 46.464.087 4.368 1.626 8.708 2.713 13.4M723.715 415.804c-.944 1.06-1.758 2.233-2.608 2.26-5.455.168-10.918.085-16.942.085 3.148-15.679 6.162-30.782 9.216-45.878 3.89-19.232 7.987-38.425 11.603-57.708.919-4.896 2.803-6.754 7.74-6.186 3.616.416 7.324.213 10.979.044 2.848-.132 3.961.863 4.545 3.8 6.16 30.983 12.504 61.93 18.796 92.886.826 4.065 1.642 8.132 2.625 13.002-6 0-11.582.165-17.135-.17-.873-.052-2.053-2.27-2.336-3.643-1.206-5.864-2.28-11.765-3.088-17.695-.364-2.678-1.313-3.744-4.084-3.643-4.962.181-9.936.051-15.296.051-1.34 7.683-2.621 15.03-4.015 22.795m9.649-57.945-3.41 21.63h14.251l-6.584-40.365-1.12-.02a2424 2424 0 0 1-3.137 18.755M1004.302 416.26c-.627.902-1.305 1.81-2.003 1.825-5.307.12-10.618.066-16.298.066-1.312-7.131-2.906-13.925-3.695-20.812-.445-3.883-2.09-4.74-5.454-4.364-1.645.184-3.327.032-4.993.032-9.203 0-9.206 0-10.71 8.834-.168.983-.208 1.992-.424 2.963-.964 4.341-.619 10.358-3.338 12.54-2.784 2.233-8.584.735-13.065.815-1.472.026-2.947-.12-5.08-.217 2.27-11.165 4.467-22.005 6.676-32.842 4.95-24.284 9.97-48.553 14.779-72.865.577-2.916 1.661-3.942 4.529-3.817 3.989.174 8.021.344 11.98-.042 4.184-.408 5.727 1.153 6.525 5.227 5.627 28.726 11.504 57.403 17.295 86.096a2748 2748 0 0 1 3.276 16.56m-30.158-68.027-1.55-9.632-.97-.055-6.655 40.916h14.298c-1.712-10.435-3.348-20.403-5.123-31.23M445.717 375.138c2.9 14.397 5.694 28.381 8.618 43.016-5.908 0-11.207.167-16.479-.146-1.023-.06-2.545-1.87-2.797-3.087-1.482-7.15-2.655-14.365-3.958-21.705h-18.663l-4.514 24.65H388.85l22.234-109.395c6.295 0 12.258.109 18.215-.045 3.16-.08 3.295 2.03 3.731 4.193 4.178 20.706 8.383 41.406 12.687 62.52m-27.73-16.704-3.321 20.997h14.233l-6.765-41.082-.873.12a3365 3365 0 0 0-3.274 19.965M603.167 129.154c5.067.266 10.952-1.078 13.871 1.268 2.716 2.183 2.314 8.289 3.212 12.682q9.247 45.245 18.453 90.5c.328 1.614.484 3.263.77 5.245h-18.54c-1.283-7.091-2.725-14.224-3.794-21.412-.403-2.713-1.414-3.543-4.112-3.65-15.225-.605-15.222-.672-17.843 14.171-1.981 11.217-1.981 11.217-13.163 11.216h-7.894c3.528-17.392 6.934-34.158 10.33-50.925 3.565-17.615 7.274-35.204 10.578-52.868.887-4.743 2.571-7.25 8.132-6.227m5.306 35.922-.964-5.534-.948.016-6.61 40.624h14.239c-1.886-11.731-3.7-23.019-5.717-35.106M843.315 233.193c6.858-33.487 13.685-66.555 20.283-99.668.713-3.58 2.081-4.656 5.559-4.438 5.142.324 11.692-1.683 15.07.8 3.186 2.343 3.31 9.156 4.323 14.096 6.44 31.438 12.754 62.902 19.197 94.795h-18.774c-1.267-6.99-2.77-13.972-3.709-21.029-.442-3.325-1.857-4.114-4.847-3.947-3.487.194-7.01.263-10.485-.016-3.502-.282-4.56 1.296-4.984 4.49-.743 5.601-2.073 11.124-2.837 16.723-.407 2.98-1.315 4.443-4.66 4.246-4.792-.284-9.613-.073-14.923-.073.262-2.113.476-3.842.787-5.979m25.427-37.251-.546 4.355h14.072l-6.604-40.832-1.017-.066c-1.924 11.901-3.848 23.803-5.905 36.543M662.29 341.403c6.869 6.577 13.48 12.896 20.229 19.065 9.387 8.581 16.552 18.2 16.516 31.726-.045 17.019-12.062 28.548-29.042 27.628-18.701-1.013-30.238-14.502-28.607-33.903l16.907-3.528c.251 1.856.327 3.283.652 4.651.878 3.7 1.424 7.563 2.908 11.014 2.16 5.027 7.206 7.11 11.957 5.668 3.807-1.156 6.3-5.352 5.97-10.485-.428-6.645-3.344-12.137-8.295-16.527-6.106-5.414-12.297-10.734-18.407-16.144-6.016-5.328-10.294-11.606-11.644-19.797-3.502-21.246 10.542-36.043 31.951-33.446 15.148 1.837 24.431 13.592 23.22 29.855l-16.465 3.281c-.436-3.029-.732-5.619-1.193-8.179-1.33-7.393-5.229-10.6-11.43-9.494-5.641 1.006-8.469 5.733-7.331 12.654.317 1.93 1.255 3.76 2.104 5.96"/><path fill="#F8FDFE" d="M990.558 208.999v16.048h25.96v13.743h-46.044V129.558h45.665v14.182h-25.18v31.17h19.745v14.275c-5.1 0-10.063.275-14.98-.083-4.31-.314-5.494 1.373-5.235 5.41.299 4.644.069 9.323.069 14.487"/><path fill="#FEFFFF" d="M563.895 239.168h-40.718V129.574h45.48v14.142H543.36v31.104h19.737v14.104h-19.655v36.222h25.442v13.692c-1.61.119-3.054.225-4.989.331"/><path fill="#F6FCFE" d="M881.136 318.761v-9.95c1.86-.141 3.447-.362 5.034-.365 15.48-.026 30.964.114 46.442-.104 4.005-.057 5.102 1.203 5.046 5.104-.147 10.12.027 10.122-9.922 10.124h-7.58v94.261H899.43v-6.09c0-27.466-.1-54.933.097-82.399.033-4.554-1.213-6.366-5.843-5.83-2.793.322-5.666-.113-8.48.098-3.385.255-4.52-1.249-4.068-4.849M1043.172 323.803c-.75 2.047-1.268 3.964-1.271 5.883-.053 27.46-.037 54.92-.037 82.38v5.792h-20.434v-6.166c0-27.46-.104-54.92.1-82.38.034-4.602-1.29-6.23-5.873-5.815-3.94.356-7.936.074-12.29.074V308.43h6.422c15.145 0 30.29.066 45.434-.053 3.131-.024 4.372.787 4.426 4.176.176 11.013.313 11.006-10.516 11.022-1.83.002-3.66.065-5.96.228"/><path fill="#F8FDFE" d="M944.856 185v53.824H924.33V144.24h-17.914v-14.758h55.798v14.561h-17.358z"/><path fill="#FEFFFF" d="M487.002 141.022v83.973h25.79v13.756h-45.524V129.516h19.734zM852.998 320.027v-11.238h19.8v108.962h-19.8z"/><path fill="#FCFEFF" d="M1087.846 323.008v94.743h-19.461V308.877h19.46z"/><path fill="#26BDE2" d="M584.97 727.033c-22.66 7.316-45.317 12.264-69.495 11.947l-21.492-110.07h512.68l-15.347 94.243c-19.932-6.828-38.147-2.12-56.239 5.242-23.761 9.668-47.942 18.06-73.312 22.615-34.705 6.232-68.814 3.044-102.08-7.658-22.145-7.124-43.633-16.263-65.555-24.11-24.48-8.764-49.39-12.536-74.844-4.097-11.363 3.767-22.621 7.852-34.315 11.888M758.97 1075.43c-12.772-.327-25.04.102-37.119-3.34-40.835-11.64-67.308-52.344-61.398-94.458 2.563-18.264 8.37-35.285 18.365-50.733 23.602-36.477 47.414-72.818 71.153-109.206.518-.794 1.177-1.496 2.183-2.76 3.639 5.477 7.053 10.528 10.38 15.635 20.804 31.94 41.776 63.772 62.313 95.883 12.827 20.056 19.847 42.011 19.164 66.106-1.145 40.44-30.835 74.737-70.657 81.424-4.58.77-9.257.967-14.385 1.45M195.281 379.329c-8.961-1.096-14.237-6.52-16.16-14.145-2.213-8.775-3.527-17.922-3.952-26.968-.639-13.616-.309-27.286-.04-40.927.05-2.562 1.063-5.817 2.829-7.481 3.429-3.231 7.367-6.468 11.698-8.094 13.379-5.022 25.431 1.628 27.057 16.135 1.713 15.285 1.528 30.826 1.435 46.25-.042 6.895-1.364 13.909-3.033 20.638-2.705 10.9-8.223 14.717-19.834 14.592"/><path fill="#31C0E4" d="M1068.45 157.42c-.012 2.072.029 3.739-.146 5.382-.985 9.263-4.714 12.746-14.145 13.217-1.966.098-3.94.014-6.308.014V143.81c12.923-2.606 19.162 1.456 20.599 13.61"/><path fill="#26BDE2" d="M575.335 397.975c-4.242 7.64-11.15 5.658-17.804 6.062v-80.863c3.068 0 6.028-.239 8.937.05 6.177.612 8.855 3.142 9.954 9.232.41 2.273.541 4.623.548 6.94.046 15.47.12 30.943-.043 46.412-.042 3.945-.91 7.88-1.592 12.167M1144.992 354c0 11.146.059 21.793-.037 32.438-.028 3.142-.23 6.33-.813 9.408-1.164 6.14-4.793 8.943-10.78 8.774-5.902-.166-9.401-3.297-10.284-9.468-.375-2.623-.518-5.303-.508-7.956.071-18.127-.047-36.26.44-54.377.234-8.687 6.764-12.595 14.986-9.926 5.482 1.78 6.415 6.485 6.715 11.156.414 6.463.216 12.966.28 19.951"/><path fill="#31C0E4" d="M733.46 357.434c1.078-6.393 2.06-12.361 3.041-18.33l1.12.02 6.584 40.366h-14.25c1.155-7.332 2.282-14.481 3.505-22.056M974.213 348.66l5.054 30.8h-14.298l6.656-40.915.97.055zM418.037 358.001c1.109-6.8 2.166-13.166 3.224-19.532l.873-.12 6.765 41.083h-14.233c1.124-7.106 2.222-14.052 3.371-21.43M608.574 165.476c1.916 11.687 3.73 22.975 5.616 34.706h-14.24l6.611-40.624.948-.016c.322 1.845.643 3.69 1.065 5.934M868.808 195.522l5.839-36.123 1.017.066 6.604 40.832h-14.072c.198-1.583.372-2.97.612-4.775"/></svg>