<svg xmlns="http://www.w3.org/2000/svg" xml:space="preserve" viewBox="0 0 1500 1500"><path fill="#A21942" d="M1 548V1h1500v1500H1zm874.163 579.5q-.002 92.996.002 185.991c.001 8.834 2.931 11.993 11.473 11.999 51.33.035 102.662.037 153.993-.005 8.044-.006 11.199-3.267 11.199-11.27.01-189.825.01-379.65-.032-569.474 0-2.124-.28-4.358-.973-6.351-1.42-4.087-4.51-5.26-8.32-3.286-1.6.83-3.093 1.985-4.409 3.232a32786 32786 0 0 0-52.505 49.917c-32.928 31.352-65.683 62.89-98.892 93.942-8.09 7.565-11.648 15.938-11.623 26.815.168 72.497.087 144.993.087 218.49m-42.996-46c0-39.826.019-79.652-.025-119.478-.005-4.378 1.23-9.79-3.992-11.866-5.269-2.095-8.538 2.406-11.782 5.662-23.402 23.488-46.753 47.027-70.13 70.54-5.463 5.494-5.609 5.515-10.986.037-21.47-21.875-42.875-43.813-64.41-65.623-2.972-3.011-6.318-7.073-11.036-5.357-5.082 1.848-3.944 7.149-3.945 11.363-.036 115.477-.03 230.955-.026 346.433 0 9.564 2.623 12.282 12.05 12.285 50.658.02 101.314.018 151.971.003 9.774-.003 12.31-2.62 12.31-12.543.003-76.819.001-153.638.001-231.456m-34.215-175.048 248.104-248.105c9.36 9.403 18.122 18.31 27.012 27.088 4.077 4.026 7.688 2.893 8.876-2.64 8.416-39.187 16.822-78.376 25.193-117.572 1.498-7.013-.886-9.23-8.002-7.627-38.452 8.659-76.909 17.294-115.334 26.07-2.033.465-5.107 1.902-5.356 3.303-.342 1.914 1.061 4.715 2.588 6.293 8.548 8.833 17.36 17.412 25.405 25.407L739.774 885.34c-.697-.798-1.724-2.123-2.9-3.3A376319 376319 0 0 0 619.87 765.024c-4.283-4.28-4.988-4.29-9.292.014q-113.307 113.29-226.597 226.598c-4.198 4.2-4.208 5.271-.1 9.396 9.29 9.328 18.611 18.624 27.921 27.932 6.065 6.063 6.327 6.068 12.252.143C486.39 966.77 548.73 904.44 611.032 842.073c1.398-1.4 2.384-3.21 4.026-5.47 2.09 2.492 3.17 3.996 4.462 5.29 38.865 38.901 77.749 77.784 116.635 116.664 4.396 4.396 5.277 4.404 9.682.004 17.214-17.194 34.411-34.405 52.115-52.11m-188.784 100.05c0-18.16.003-36.32-.002-54.48-.002-6.331.378-12.7-.217-18.975-.264-2.776-1.9-6.518-4.062-7.675-1.771-.947-5.268 1.218-7.948 2.155-.727.254-1.28 1.039-1.883 1.612a37483 37483 0 0 0-27.152 25.803c-41.731 39.708-83.405 79.476-125.245 119.069-6.745 6.382-9.97 13.601-9.916 22.933.216 37.15.09 74.304.09 111.457 0 35.486-.083 70.974.15 106.459.02 2.952 1.412 6.766 3.534 8.584 2.055 1.76 5.873 1.979 8.92 1.985 49.98.11 99.961.08 149.942.076 11.585 0 13.788-2.183 13.788-13.619zM137.823 147.338c-14.794 17.202-17.727 37.805-16.972 59.435.826 23.705 9.841 43.51 28.77 58.85-16.674 9.048-25.894 23.32-29.94 40.888-5.653 24.547-4.623 48.973 4.178 72.698 7.688 20.727 22.764 33.54 44.193 38.78 15.26 3.73 30.65 3.752 46.088 1.102 23.802-4.086 40.234-17.264 49.016-39.808 7.76-19.92 8.583-40.606 5.841-61.458-2.873-21.855-11.325-40.673-31.819-52.296 13.292-10.086 21.526-23.314 25.297-39.182 4.06-17.085 4.328-34.371.095-51.441-5.778-23.296-19.785-39.678-43.418-45.522-10.967-2.712-22.755-3.337-34.109-2.973-17.98.577-34.214 6.612-47.22 20.927M748.444 335.9l-5.581-27.02h-20.808l-1.803 108.89h16.336v-69.653l1.268-.037c4.228 19.982 8.427 39.971 12.695 59.945 2.285 10.698 2.338 10.69 13.225 10.03.306-.018.598-.261 1.068-.48l14.291-67.99 1.67.098v68.169h16.128l-1.931-109.367c-6.349 0-12.165-.185-17.948.164-1.094.066-2.68 2.113-2.988 3.482-2.848 12.654-5.454 25.363-8.153 38.05-2.303 10.824-4.637 21.641-6.957 32.461l-.874-.041c-3.135-15.294-6.27-30.589-9.638-46.7m416.003 5.2c3.502 24.368 6.962 48.744 10.61 73.09.217 1.444 1.85 3.693 2.992 3.803 4.584.438 9.235.18 14.143.18l11.769-69.573c3.925 18.391 7.11 36.706 10.054 55.06 2.451 15.282 2.325 15.304 17.803 14.4.303-.018.592-.27 1.105-.517l15.565-109.07c-4.607 0-8.577.213-12.512-.065-3.42-.241-4.56 1.027-4.945 4.388-1.95 17.027-4.13 34.028-6.281 51.031-.45 3.553-1.115 7.079-1.68 10.617l-.874-.148-11.156-65.573h-13.706l-10.973 65.73-1.04-.122-8.394-65.533h-17.022a12066 12066 0 0 0 4.542 32.302M835.933 178.455l-8.383-49.082h-13.645l-11.132 66.86c-.756-.982-.962-1.938-1.087-2.905-2.568-19.971-5.078-39.95-7.787-59.903-.206-1.519-1.71-3.966-2.794-4.07-4.717-.45-9.501-.193-14.752-.193l15.67 109.686h16.762l11.534-68.442 1.125-.078 11.709 68.852c3.962 0 7.798-.302 11.563.081 4.05.412 4.904-1.377 5.4-4.997 3.362-24.561 6.992-49.085 10.51-73.624 1.48-10.325 2.897-20.659 4.362-31.126H848.26l-8.506 66.68-.709.11c-1.012-5.66-2.025-11.32-3.112-17.849m158.832 14.221-2.02-7.12c13.603-8.057 13.94-20.73 12.407-33.882-1.308-11.216-7.271-18.863-18.082-20.386-13.536-1.907-27.322-2.042-41.288-2.961v110.58h20.161V189.59c8.285-.859 8.244-.848 10.141 6.416 3.729 14.273 7.507 28.533 11.288 42.884h20.31c-4.307-15.386-8.513-30.41-12.917-46.214m157.244 149.887c-.07-1.996-.031-4.002-.224-5.986-1.83-18.77-9.823-27.782-27.207-29.167-20.408-1.626-34.651 5.51-35.61 29.372a661 661 0 0 0 .06 53.903c.813 19.597 12.214 29.5 31.791 29.16 17.27-.298 27.306-8.202 30.068-23.93a73 73 0 0 0 1.073-11.904c.129-13.488.05-26.977.05-41.448m-506.543-3.678c.128 17.637-.4 35.31.568 52.9.978 17.773 9.94 26.465 27.771 27.768 19.773 1.444 32.844-6.476 34.207-27.238 1.207-18.4 1.418-36.98.355-55.383-1.146-19.827-9.346-27.708-27.122-29.632-19.218-2.08-31.537 6.09-34.897 23.229-.478 2.44-.587 4.953-.882 8.356m-82.248-9.51c-3.313-14.153-10.419-20.631-25.822-21.914-21.637-1.8-34.448 6.412-35.598 27.727-1.02 18.913-1.058 37.992.196 56.883 1.235 18.601 10.1 26.63 28.46 27.575 17.954.925 31.648-5.278 33.499-27.658 1.177-14.236.825-28.612.814-42.924-.005-6.293-.867-12.585-1.55-19.689m324.472-91.39c6.718.75 13.492 2.449 20.142 2.056 15.21-.9 25.004-9.567 25.809-24.658a597 597 0 0 0 .082-61.853c-.777-15.359-9.63-23.608-24.916-25.14-21.878-2.19-36.048 5.22-37.124 28.717-.882 19.258-.381 38.626.506 57.899.452 9.83 5.13 18.22 15.501 22.98M633.851 382.5v-73.704h-17.128v60.41c-1.02-2.222-1.448-3.114-1.841-4.022-7.6-17.534-15.153-35.089-22.857-52.577-.7-1.588-2.22-3.74-3.594-3.93-3.882-.536-7.886-.187-11.993-.187v109.462h17.196v-60.704c1.769 1.373 2.554 2.92 3.219 4.517 7.34 17.64 14.634 35.3 22.045 52.91.56 1.332 1.828 3.205 2.925 3.32 3.875.407 7.818.159 12.028.159zm678.979 5v30.387h20.374V369.1h21.947v48.697h19.823V308.904h-20.257V353.9h-21.771v-45.122h-20.116zm-27.994-257.806h-32.768V239.01c10.51 0 20.799.312 31.062-.068 18.292-.678 28.15-10.126 28.729-28.317.565-17.805.53-35.652.04-53.46-.476-17.257-9.03-25.727-27.063-27.472m-266.84 284.667c.773 1.267 1.487 3.585 2.329 3.632 5.752.323 11.531.17 17.8.17v-49.63c8.39-.788 8.423-.797 10.409 6.713 3.482 13.169 6.857 26.367 10.475 39.499.367 1.331 2.033 3.203 3.187 3.27 5.784.335 11.598.153 17.893.153l-15.077-53.773c6.111-2.82 10.506-7.335 11.415-13.746.99-6.99 1.47-14.241.774-21.24-1.061-10.662-7.95-17.693-18.223-19.07-13.411-1.796-27.065-1.78-40.983-2.564zM437.133 150.559c-1.847-9.919-7.32-17.614-17.26-19.11-13.69-2.063-27.675-2.179-41.695-3.14v110.724c10.324 0 20.312.31 30.274-.065 19.525-.735 28.896-9.98 29.49-29.65.509-16.815.21-33.655.173-50.483-.006-2.477-.538-4.953-.982-8.276M626.995 181.5v57.39h17.355v-61.55c1.457 1.43 2.119 2.936 2.75 4.456 7.395 17.804 14.74 35.628 22.253 53.381.662 1.564 2.261 3.59 3.673 3.81 3.523.549 7.189.18 10.756.18V129.382h-16.388v58.153c-1.767-1.429-2.57-2.985-3.262-4.589-7.186-16.632-14.309-33.292-21.606-49.875-.68-1.545-2.305-3.532-3.714-3.73-3.716-.525-7.554-.178-11.817-.178zm612.177 51.932V129.55h-17.22v58.337c-1.456-1.535-2.222-3.147-2.93-4.784-7.192-16.627-14.343-33.27-21.608-49.865-.66-1.507-1.909-3.72-3.092-3.861-4.03-.483-8.154-.185-12.238-.185V238.94h16.913v-61.814c1.256.817 1.71 1.795 2.124 2.79q10.266 24.616 20.523 49.238c4.366 10.482 4.364 10.486 15.609 9.989.469-.021.931-.193 1.708-.362.07-1.463.14-2.912.211-5.348M943.15 374.494c.29 6.15.261 12.334.93 18.442 1.776 16.225 9.284 24.611 23.556 26.638 9.592 1.363 17.788-.905 22.877-9.775 3.113 2.27-1.064 7.965 4.633 8.337 3.424.224 6.874.041 10.357.041v-55.464h-29.368v13.006h12.06c-.858 7.758-1.136 14.905-2.582 21.808-1.063 5.073-5.4 7.288-10.712 7.054-5.625-.247-8.56-2.498-9.882-8.038-.651-2.729-1.085-5.58-1.102-8.379a4591 4591 0 0 1-.01-50.486c.014-2.637.335-5.34.987-7.893 1.37-5.357 5.1-7.854 10.732-7.594 5.525.255 8.648 2.733 9.477 8.322.695 4.688.754 9.47 1.099 14.261h18.82c0-3.35.12-6.474-.02-9.586-.788-17.654-8.695-26.493-26.2-27.811-20.286-1.528-32.937 5.615-34.781 28.181-1.029 12.586-.628 25.289-.87 38.936m94.022-158.994c0-5.832-.345-11.693.14-17.484.26-3.12 1.945-6.12 2.988-9.173 6.974 15.833 12.606 31.287 18.405 46.677.535 1.42 2.08 3.408 3.256 3.48 5.88.358 11.793.164 18.204.164-7.368-19.334-14.555-37.912-21.435-56.602-.85-2.312-.835-5.537.085-7.81 5.487-13.55 11.368-26.939 17.084-40.395.672-1.582 1.154-3.244 1.838-5.197-5.265 0-9.94.213-14.583-.072-3.326-.204-4.971.888-6.337 4.033-5.627 12.956-11.593 25.765-17.468 38.613-.397.87-1.068 1.614-2.456 3.663v-45.914h-19.547v109.326h19.826zm-494.001-15.706c-.093 5.494.094 11.01-.353 16.474-.476 5.818-3.948 8.927-9.304 9.156-5.841.25-9.337-2.478-10.501-8.419-.478-2.437-.84-4.94-.86-7.417-.116-13.49-.184-26.98-.108-40.469.032-5.644.1-11.332.803-16.918.827-6.574 4.625-9.466 10.826-9.177 5.988.278 8.98 3.371 9.266 10.114.223 5.27.045 10.558.045 16.085h20.103c-.319-5.928-.356-11.557-.973-17.122-1.612-14.54-8.64-22.183-23.108-23.68-22.841-2.365-34.936 6.174-36.281 24.984-1.467 20.513-.958 41.237-.099 61.818.443 10.615 5.897 19.428 16.876 23.192 8.774 3.008 17.695 2.914 26.496.173 6.177-1.923 10.575-6.019 13.215-12.034 4.008-9.132 3.772-18.677 3.462-29.19-6.775.518-13.09 1.001-19.505 2.43m-71.987 199.454c-1.922 1.643-3.597 4.125-5.811 4.777-7.715 2.27-13.132-1.807-13.308-10.784-.393-20.14-.312-40.297-.026-60.44.102-7.2 4.15-10.692 10.593-10.616 6.36.075 9.382 3.198 9.76 10.658.258 5.088.05 10.2.05 15.381h19.566c0-4.622.086-8.945-.016-13.265-.395-16.758-8.665-26.226-25.325-27.532-21.42-1.68-33.6 6.613-34.802 26.904-1.157 19.566-1.185 39.324.142 58.872 1.203 17.724 11.244 26.064 28.983 26.53 10.61.278 20.833-1.537 26.691-12.092 5.343-9.628 4.537-20.074 4.107-30.315h-18.456c-.594 7.31-1.16 14.258-2.148 21.922m415.714-22.252c-.805 1.095-2.21 2.138-2.31 3.293-.384 4.469-.288 8.976-.491 13.464-.316 6.965-3.312 10.432-9.198 10.821-6.313.418-10.153-2.645-10.877-9.654-.682-6.602-.817-13.285-.798-19.932.04-14.149.018-28.311.658-42.439.343-7.564 4.592-10.856 11.261-10.359 6.172.46 8.821 3.744 8.988 11.411.106 4.908.02 9.82.02 14.627h19.546c0-5.275.467-10.31-.085-15.229-1.901-16.955-9.193-24.577-25.67-25.628-23.138-1.476-33.042 8.138-34.284 26.455-1.338 19.716-1.385 39.677.073 59.377 1.311 17.716 10.537 25.479 28.006 26.448 10.724.595 21.233-.962 27.407-11.57 5.626-9.668 4.9-20.317 4.758-31.088-5.761 0-10.915 0-17.004.003m245.273-160.23c.722-.96 1.411-2.719 2.171-2.75 5.737-.233 11.488-.127 17.102-.127l4.52 25.04h18.804l-22.26-109.775c-5.78 0-11.095.203-16.384-.072-3.411-.178-4.851.684-5.562 4.348-4.364 22.512-9.058 44.96-13.634 67.43-2.57 12.617-5.122 25.236-7.776 38.312 5.914 0 11.235.194 16.52-.152 1.15-.075 2.858-1.934 3.14-3.227 1.31-6.002 2.21-12.094 3.359-19.027m-662.642-.279V189.06h20.154v-14.18h-19.889v-31.074h25.065V129.56h-45.42v109.31h46.01v-13.925h-25.92zm-51.018 149.417v-12.052h-20.257v-31.105h25.513v-14h-45.68v109.059h45.81v-13.663H398.27V368.52c5.56 0 10.868.116 16.164-.08 1.364-.05 2.692-1.077 4.077-2.536m178.167-190.908c-1.223-.81-3.487-1.593-3.51-2.435-.252-9.443-.159-18.895-.159-28.86h25.648V129.52h-45.581v109.289h45.821v-13.657h-25.556v-36.04h19.911v-14.116zm680.836 243.184h11.652v-94.808h17.456V308.82h-55.711v15.02h18.119v94.34zM703.226 144.174l4.813.353v94.282h20.244V143.92h17.285v-14.478h-56.066v14.73zM810.823 359.5v58.285h19.81V308.787h-19.81z"/><path fill="#FFFEFE" d="M875.163 1127c0-72.997.08-145.493-.087-217.99-.025-10.877 3.533-19.25 11.623-26.815 33.209-31.052 65.964-62.59 98.892-93.942a32786 32786 0 0 1 52.505-49.917c1.316-1.247 2.809-2.402 4.41-3.232 3.81-1.973 6.899-.8 8.32 3.286.692 1.993.971 4.227.972 6.351.042 189.825.041 379.65.032 569.474 0 8.003-3.155 11.264-11.2 11.27-51.33.042-102.661.04-153.992.005-8.542-.006-11.472-3.165-11.473-11.999-.004-61.997-.002-123.994-.002-186.491"/><path fill="#FFF" d="M832.167 1082c0 77.318.002 154.137 0 230.956-.001 9.923-2.537 12.54-12.31 12.543-50.658.015-101.314.017-151.971-.003-9.428-.003-12.051-2.721-12.051-12.285-.003-115.478-.01-230.956.026-346.433.001-4.214-1.137-9.515 3.945-11.363 4.718-1.716 8.064 2.346 11.036 5.357 21.535 21.81 42.94 43.748 64.41 65.623 5.377 5.478 5.523 5.457 10.986-.038 23.377-23.512 46.728-47.051 70.13-70.539 3.244-3.256 6.513-7.757 11.782-5.662 5.222 2.076 3.987 7.488 3.992 11.866.044 39.826.025 79.652.025 119.978"/><path fill="#FEFEFE" d="M797.702 906.702c-17.454 17.454-34.651 34.665-51.865 51.859-4.405 4.4-5.286 4.392-9.682-.004-38.886-38.88-77.77-77.763-116.635-116.664-1.292-1.294-2.373-2.798-4.462-5.29-1.642 2.26-2.628 4.07-4.026 5.47-62.303 62.367-124.642 124.698-186.978 187.033-5.925 5.925-6.187 5.92-12.252-.143-9.31-9.308-18.632-18.604-27.922-27.932-4.107-4.125-4.097-5.197.101-9.396q113.29-113.307 226.597-226.598c4.304-4.303 5.01-4.295 9.292-.014 39.009 38.999 78.013 78.002 117.005 117.017 1.175 1.176 2.202 2.501 2.899 3.3l266.664-266.67c-8.046-7.996-16.857-16.575-25.405-25.408-1.527-1.578-2.93-4.379-2.588-6.293.25-1.401 3.323-2.838 5.356-3.303 38.425-8.776 76.882-17.411 115.334-26.07 7.116-1.603 9.5.614 8.002 7.627-8.37 39.196-16.777 78.385-25.193 117.572-1.188 5.533-4.799 6.666-8.876 2.64-8.89-8.778-17.651-17.685-27.012-27.088z"/><path fill="#FFF" d="M609.168 1007v304.885c0 11.436-2.204 13.618-13.789 13.62-49.98.003-99.962.033-149.943-.077-3.046-.006-6.864-.225-8.919-1.985-2.122-1.818-3.515-5.632-3.534-8.584-.233-35.485-.15-70.973-.15-106.46 0-37.152.126-74.305-.09-111.456-.054-9.332 3.171-16.551 9.916-22.933 41.84-39.593 83.514-79.361 125.245-119.07q13.57-12.908 27.152-25.802c.603-.573 1.156-1.358 1.883-1.612 2.68-.937 6.177-3.102 7.948-2.155 2.162 1.157 3.798 4.899 4.062 7.675.595 6.275.215 12.644.217 18.975.005 18.16.002 36.32.002 54.98"/><path fill="#FFFEFE" d="M138.07 147.085c12.758-14.062 28.991-20.097 46.972-20.674 11.354-.364 23.142.26 34.11 2.973 23.632 5.844 37.639 22.226 43.417 45.522 4.233 17.07 3.966 34.356-.095 51.441-3.771 15.868-12.005 29.096-25.297 39.182 20.494 11.623 28.946 30.44 31.82 52.296 2.74 20.852 1.917 41.538-5.842 61.458-8.782 22.544-25.214 35.722-49.016 39.808-15.437 2.65-30.829 2.628-46.088-1.103-21.429-5.239-36.505-18.052-44.193-38.779-8.8-23.725-9.83-48.15-4.178-72.698 4.046-17.567 13.266-31.84 29.94-40.888-18.929-15.34-27.944-35.145-28.77-58.85-.755-21.63 2.178-42.233 17.22-59.688m32.093 183.552c-.208 12.365.33 24.641 4.709 36.404 2.981 8.009 9.034 12.627 16.578 12.8 12.67.293 20.332-5.653 22.295-19.162 1.597-10.995 2.278-22.236 2.066-33.343-.156-8.18-1.697-16.519-3.911-24.426-2.538-9.064-9.086-13.044-18.398-13.073-9.287-.03-15.967 3.959-18.468 12.967-2.425 8.735-3.31 17.898-4.871 27.833m43.002-121.862c.685-10.023.507-19.969-3.26-29.48-2.17-5.478-5.59-9.796-11.663-11.359-9.947-2.56-18.776 1.96-22.209 12.655-5.676 17.683-4.56 35.469 1.712 52.815 2.558 7.074 7.877 11.643 15.86 11.52 8.1-.125 13.085-5.204 15.17-12.326 2.173-7.427 2.98-15.253 4.39-23.825"/><path fill="#FDFAFB" d="M748.561 336.31c3.251 15.702 6.386 30.997 9.521 46.29q.437.022.874.042c2.32-10.82 4.654-21.637 6.957-32.46 2.7-12.688 5.305-25.397 8.153-38.051.308-1.37 1.894-3.416 2.988-3.482 5.783-.349 11.6-.164 17.948-.164l1.931 109.367h-16.128v-68.17l-1.67-.097-14.29 67.99c-.471.219-.763.462-1.069.48-10.887.66-10.94.668-13.225-10.03-4.268-19.974-8.467-39.963-12.695-59.945l-1.268.037v69.652h-16.336l1.803-108.888h20.808c1.83 8.857 3.705 17.938 5.698 27.428M1164.37 340.665c-1.521-10.79-2.967-21.144-4.465-31.866h17.022l8.394 65.533 1.04.122 10.973-65.73h13.706l11.156 65.573.874.148c.565-3.538 1.23-7.064 1.68-10.617 2.151-17.003 4.332-34.004 6.281-51.031.385-3.36 1.525-4.629 4.945-4.388 3.935.278 7.905.065 12.512.065l-15.565 109.07c-.513.248-.802.499-1.105.517-15.478.904-15.352.882-17.803-14.4-2.944-18.354-6.129-36.669-10.054-55.06l-11.769 69.574c-4.908 0-9.559.257-14.143-.181-1.142-.11-2.775-2.359-2.992-3.803-3.648-24.346-7.108-48.722-10.686-73.526M835.97 178.89c1.05 6.094 2.063 11.754 3.075 17.415l.71-.11 8.505-66.68h16.728c-1.465 10.466-2.882 20.8-4.362 31.125-3.518 24.539-7.148 49.063-10.51 73.624-.496 3.62-1.35 5.409-5.4 4.997-3.765-.383-7.6-.081-11.563-.081l-11.709-68.852-1.125.078-11.534 68.442h-16.762l-15.67-109.686c5.25 0 10.035-.258 14.752.193 1.083.104 2.588 2.551 2.794 4.07 2.71 19.952 5.219 39.932 7.787 59.903.125.967.331 1.923 1.087 2.905l11.132-66.86h13.645c2.802 16.404 5.592 32.743 8.42 49.516"/><path fill="#FDF9FA" d="M994.864 193.067c4.305 15.413 8.51 30.437 12.819 45.823h-20.31c-3.782-14.351-7.56-28.61-11.289-42.884-1.897-7.264-1.856-7.275-10.14-6.416v49.317h-20.162v-110.58c13.966.919 27.752 1.054 41.288 2.96 10.81 1.524 16.774 9.171 18.082 20.387 1.533 13.151 1.196 25.825-12.406 33.881.676 2.387 1.348 4.754 2.118 7.512m-15.953-18.22c8.144-2.257 9.06-15.278 6.586-23.61-1.984-6.68-8.97-9.28-19.653-7.423v32.752c4.525-.56 8.404-1.041 13.067-1.718"/><path fill="#FDFAFB" d="M1152.01 343.054c0 13.98.079 27.47-.05 40.957a73 73 0 0 1-1.073 11.904c-2.762 15.728-12.798 23.632-30.068 23.93-19.577.34-30.978-9.563-31.792-29.16a661 661 0 0 1-.06-53.903c.96-23.862 15.203-30.998 35.611-29.372 17.384 1.385 25.377 10.396 27.207 29.167.193 1.984.155 3.99.224 6.477m-28.157 61.026c5.333-1.334 6.892-5.544 7.147-10.214.407-7.474.474-14.975.452-22.464-.038-12.986-.033-25.98-.488-38.955-.233-6.64-3.87-9.89-9.969-10.259-6.446-.39-10.117 2.488-11.385 9.27-.485 2.597-.565 5.296-.576 7.95a4160 4160 0 0 0-.005 38.48c.027 5.487-.183 11.032.527 16.445 1.1 8.388 4.884 10.902 14.297 9.747"/><path fill="#FDFBFC" d="M645.475 338.423c.287-2.94.396-5.454.874-7.894 3.36-17.139 15.679-25.31 34.897-23.23 17.776 1.925 25.976 9.806 27.122 29.633 1.063 18.402.852 36.983-.355 55.383-1.363 20.762-14.434 28.682-34.207 27.238-17.83-1.303-26.793-9.995-27.77-27.768-.968-17.59-.44-35.263-.561-53.362m20.532 32.077c.283 8.79.347 17.596.945 26.365.29 4.262 3.221 6.704 7.523 7.465 7.79 1.38 12.963-2.398 13.412-10.657.451-8.299.255-16.636.258-24.957.003-11.65.087-23.304-.178-34.95-.15-6.598-2.571-9.787-7.353-11.084-8.604-2.333-14.348 2.16-14.542 11.864-.233 11.647-.062 23.302-.065 35.954M563.323 329.781c.578 6.698 1.44 12.99 1.445 19.283.01 14.312.363 28.688-.814 42.924-1.85 22.38-15.545 28.583-33.5 27.658-18.359-.945-27.224-8.974-28.46-27.575-1.253-18.891-1.215-37.97-.195-56.883 1.15-21.315 13.96-29.527 35.598-27.727 15.403 1.283 22.509 7.761 25.926 22.32m-19.33 61.381c0-17.986.018-35.971-.023-53.957-.004-2.148-.08-4.35-.541-6.434-1.35-6.1-4.492-8.583-10.452-8.591-6.143-.009-9.47 2.684-10.662 8.964-.43 2.268-.447 4.636-.452 6.96-.035 16.82-.041 33.64.006 50.46.007 2.484.056 5.03.581 7.44 1.693 7.769 9.902 11.158 16.667 6.987 4.076-2.512 4.39-6.765 4.876-11.829M887.325 237.861c-10.005-4.635-14.684-13.026-15.136-22.855-.887-19.273-1.388-38.641-.506-57.899 1.076-23.497 15.246-30.908 37.124-28.716 15.287 1.53 24.14 9.78 24.916 25.139a597 597 0 0 1-.082 61.853c-.805 15.09-10.6 23.759-25.81 24.658-6.65.393-13.423-1.306-20.506-2.18m26.67-44.361c-.002-12.653.085-25.306-.039-37.957-.072-7.389-2.938-11.323-8.472-12.336-7.975-1.46-13.114 2.541-13.41 11.236-.38 11.141-.22 22.302-.219 33.455 0 8.821-.19 17.658.258 26.46.43 8.436 5.354 12.163 13.23 10.813 5.485-.94 8.3-4.532 8.573-11.695.241-6.317.068-12.65.078-19.976"/><path fill="#FDF9FA" d="M633.851 383v35.154c-4.21 0-8.153.248-12.028-.159-1.097-.115-2.365-1.988-2.925-3.32-7.411-17.61-14.705-35.27-22.045-52.91-.665-1.597-1.45-3.144-3.219-4.517v60.704h-17.196V308.49c4.107 0 8.111-.349 11.993.187 1.374.19 2.894 2.342 3.594 3.93 7.704 17.488 15.258 35.043 22.857 52.577.393.908.822 1.8 1.84 4.022v-60.41h17.129z"/><path fill="#FEFEFE" d="M1312.83 387v-78.222h20.116V353.9h21.771v-44.996h20.257v108.893h-19.823V369.1h-21.947v48.787h-20.374zM1285.278 129.753c17.59 1.686 26.145 10.156 26.62 27.413.49 17.808.526 35.655-.04 53.46-.578 18.19-10.436 27.64-28.728 28.317-10.263.38-20.552.068-31.062.068V129.694c10.947 0 21.857 0 33.21.06m-13.28 51.746v43.502c2.097 0 3.578.02 5.059-.003 10.263-.164 13.792-2.904 14.254-13.104.626-13.794.488-27.627.48-41.443-.003-5.978-.35-11.968-.824-17.93-.341-4.282-2.957-7.197-7.108-7.956-3.793-.693-7.733-.58-11.861-.839z"/><path fill="#FEFDFD" d="M1017.995 413.874V307.775c13.918.785 27.572.768 40.983 2.565 10.272 1.376 17.162 8.407 18.223 19.07.696 6.998.217 14.248-.774 21.239-.91 6.41-5.304 10.926-11.415 13.746l15.077 53.773c-6.295 0-12.11.182-17.893-.154-1.154-.066-2.82-1.938-3.187-3.27-3.618-13.131-6.993-26.33-10.475-39.498-1.986-7.51-2.018-7.501-10.41-6.712v49.628c-6.268 0-12.047.154-17.799-.169-.842-.047-1.556-2.365-2.33-4.119m20.008-67.414v8.723c7.19-.223 14.802 1.475 18.676-5.841 3.81-7.195 4.073-15.407-.633-22.298-4.226-6.188-11.367-4.383-18.043-4.377z"/><path fill="#FEFEFE" d="M437.21 150.982c.367 2.9.899 5.376.905 7.853.037 16.828.336 33.668-.172 50.483-.595 19.67-9.966 28.915-29.491 29.65-9.962.374-19.95.065-30.274.065V128.31c14.02.961 28.004 1.077 41.695 3.14 9.94 1.496 15.413 9.191 17.337 19.533M397.997 178.5v46.502c2.11 0 3.594.017 5.078-.003 10.307-.14 13.79-2.808 14.28-13.091.644-13.463.463-26.97.438-40.458-.012-6.313-.36-12.633-.798-18.933-.302-4.338-3.01-7.164-7.119-7.94-3.79-.715-7.737-.59-11.879-.851z"/><path fill="#FEFCFD" d="M626.995 181v-51.838c4.263 0 8.101-.347 11.817.177 1.41.2 3.035 2.186 3.714 3.73 7.297 16.584 14.42 33.244 21.606 49.876.693 1.604 1.495 3.16 3.262 4.59V129.38h16.388v109.787c-3.567 0-7.233.368-10.756-.181-1.412-.22-3.011-2.246-3.673-3.81-7.512-17.753-14.858-35.577-22.253-53.38-.631-1.52-1.293-3.028-2.75-4.457v61.55h-17.355z"/><path fill="#FEFDFD" d="M1239.172 233.925c-.07 1.943-.14 3.392-.211 4.855-.777.17-1.24.341-1.708.362-11.245.497-11.243.493-15.61-9.99q-10.256-24.62-20.522-49.238c-.415-.994-.868-1.972-2.124-2.789v61.814h-16.913V129.192c4.084 0 8.208-.298 12.238.185 1.183.142 2.432 2.354 3.092 3.861 7.265 16.595 14.416 33.238 21.608 49.865.708 1.637 1.474 3.249 2.93 4.784V129.55h17.22z"/><path fill="#FDF9FA" d="M943.149 373.995c.243-13.148-.158-25.851.87-38.437 1.845-22.566 14.496-29.71 34.782-28.181 17.505 1.318 25.412 10.157 26.2 27.81.14 3.113.02 6.237.02 9.587h-18.82c-.345-4.79-.404-9.573-1.1-14.26-.828-5.59-3.951-8.068-9.476-8.323-5.633-.26-9.363 2.237-10.732 7.594-.652 2.552-.973 5.256-.986 7.893a4591 4591 0 0 0 .01 50.486c.016 2.799.45 5.65 1.101 8.379 1.323 5.54 4.257 7.791 9.882 8.038 5.312.234 9.649-1.981 10.712-7.054 1.446-6.903 1.724-14.05 2.582-21.808h-12.06v-13.006h29.368v55.464c-3.483 0-6.933.183-10.357-.04-5.697-.373-1.52-6.067-4.633-8.338-5.089 8.87-13.285 11.138-22.877 9.775-14.272-2.027-21.78-10.413-23.556-26.638-.669-6.108-.64-12.292-.93-18.94"/><path fill="#FEFDFD" d="M1037.172 216v22.81h-19.826V129.482h19.547v45.914c1.388-2.049 2.059-2.794 2.456-3.663 5.875-12.848 11.841-25.657 17.468-38.613 1.366-3.145 3.01-4.237 6.337-4.033 4.643.285 9.318.072 14.583.072-.684 1.953-1.166 3.615-1.838 5.197-5.716 13.456-11.597 26.845-17.084 40.395-.92 2.273-.936 5.498-.085 7.81 6.88 18.69 14.067 37.268 21.435 56.602-6.411 0-12.325.194-18.204-.164-1.176-.072-2.72-2.06-3.256-3.48-5.8-15.39-11.43-30.844-18.405-46.677-1.043 3.054-2.727 6.054-2.988 9.173-.485 5.791-.14 11.652-.14 17.984"/><path fill="#FDFAFB" d="M543.22 199.321c6.366-.956 12.681-1.439 19.456-1.957.31 10.513.546 20.058-3.462 29.19-2.64 6.015-7.038 10.111-13.215 12.034-8.801 2.74-17.722 2.835-26.496-.173-10.979-3.764-16.433-12.577-16.876-23.192-.86-20.581-1.368-41.305.099-61.818 1.345-18.81 13.44-27.35 36.281-24.985 14.468 1.498 21.496 9.141 23.108 23.681.617 5.565.654 11.194.973 17.122h-20.103c0-5.527.178-10.814-.045-16.085-.285-6.743-3.278-9.836-9.266-10.114-6.201-.289-9.999 2.603-10.826 9.177-.703 5.586-.77 11.274-.803 16.918-.076 13.49-.008 26.98.107 40.469.021 2.477.383 4.98.86 7.417 1.165 5.94 4.661 8.67 10.502 8.42 5.356-.23 8.828-3.34 9.304-9.157.447-5.464.26-10.98.403-16.947M471.396 398.89c.776-7.306 1.342-14.253 1.936-21.564h18.456c.43 10.241 1.236 20.687-4.107 30.315-5.858 10.555-16.081 12.37-26.691 12.092-17.739-.466-27.78-8.806-28.983-26.53-1.327-19.548-1.3-39.306-.142-58.872 1.201-20.291 13.383-28.584 34.802-26.904 16.66 1.306 24.93 10.774 25.325 27.532.102 4.32.016 8.643.016 13.265H472.44c0-5.182.209-10.293-.049-15.38-.378-7.46-3.4-10.584-9.76-10.659-6.442-.076-10.491 3.416-10.593 10.615-.286 20.144-.367 40.3.026 60.44.176 8.978 5.593 13.055 13.308 10.785 2.214-.652 3.889-3.134 6.023-5.135"/><path fill="#FDFBFC" d="M887.365 376.995c5.622-.002 10.776-.002 16.537-.002.142 10.771.868 21.42-4.758 31.088-6.174 10.608-16.683 12.165-27.407 11.57-17.469-.97-26.695-8.732-28.006-26.448-1.458-19.7-1.41-39.661-.073-59.377 1.242-18.317 11.146-27.93 34.284-26.455 16.477 1.051 23.769 8.673 25.67 25.628.552 4.92.085 9.954.085 15.229h-19.546c0-4.807.086-9.719-.02-14.627-.167-7.667-2.816-10.95-8.988-11.41-6.67-.498-10.918 2.794-11.26 10.358-.641 14.128-.618 28.29-.66 42.44-.018 6.646.117 13.329.799 19.931.724 7.01 4.564 10.072 10.877 9.654 5.886-.389 8.882-3.856 9.198-10.821.203-4.488.107-8.995.491-13.464.1-1.155 1.505-2.198 2.777-3.294M1132.12 217.202c-1.099 6.497-1.997 12.589-3.307 18.591-.283 1.293-1.99 3.152-3.14 3.227-5.286.346-10.607.152-16.52.152 2.653-13.076 5.206-25.695 7.775-38.311 4.576-22.471 9.27-44.919 13.634-67.43.71-3.665 2.15-4.527 5.562-4.35 5.29.276 10.604.073 16.384.073l22.26 109.776h-18.804l-4.52-25.041c-5.614 0-11.365-.106-17.102.127-.76.031-1.45 1.79-2.223 3.186m5.867-35.755L1135 200.12h14.252l-6.63-40.5-.99.022c-1.184 6.98-2.367 13.96-3.645 21.805"/><path fill="#FDF9FA" d="m469.53 216.985-.001 7.96h25.92v13.925h-46.01V129.56h45.42v14.245h-25.065v31.074h19.889v14.18h-20.154z"/><path fill="#FDFBFC" d="M418.49 366.344c-1.364 1.02-2.692 2.047-4.056 2.097-5.296.195-10.603.08-16.164.08v35.622h25.628v13.663h-45.811V308.748h45.68v13.999h-25.513v31.105h20.257c0 4.243 0 8.148-.02 12.492"/><path fill="#FEFDFD" d="M597.16 174.996h16.092v14.115h-19.911v36.04h25.556v13.658h-45.821V129.52h45.58v14.182H593.01c0 9.964-.093 19.416.16 28.859.022.842 2.286 1.624 3.991 2.435"/><path fill="#FDFAFB" d="M1277.022 418.18h-7.992v-94.342h-18.12V308.82h55.712v14.553h-17.456v94.808z"/><path fill="#FEFDFD" d="M702.755 144.172h-13.253v-14.729h56.066v14.478h-17.285v94.887h-20.244v-94.282c-1.953-.144-3.383-.249-5.284-.354"/><path fill="#FDFBFC" d="M810.823 359v-50.213h19.81v108.998h-19.81z"/><path fill="#A31C44" d="M170.163 330.157c1.561-9.455 2.446-18.618 4.871-27.353 2.501-9.008 9.181-12.997 18.468-12.967 9.312.029 15.86 4.01 18.398 13.073 2.214 7.907 3.755 16.246 3.911 24.426.212 11.107-.469 22.348-2.066 33.343-1.963 13.51-9.624 19.455-22.295 19.163-7.544-.174-13.597-4.792-16.578-12.8-4.38-11.764-4.917-24.04-4.71-36.885"/><path fill="#A21A43" d="M213.163 209.235c-1.408 8.112-2.215 15.938-4.389 23.365-2.084 7.122-7.07 12.201-15.168 12.326-7.984.123-13.303-4.446-15.861-11.52-6.272-17.346-7.388-35.132-1.712-52.815 3.433-10.694 12.262-15.215 22.21-12.655 6.072 1.563 9.492 5.881 11.662 11.36 3.767 9.51 3.945 19.456 3.258 29.94"/><path fill="#A31C44" d="M978.519 174.946c-4.27.579-8.15 1.06-12.675 1.62v-32.752c10.682-1.857 17.67.744 19.653 7.423 2.474 8.332 1.558 21.353-6.978 23.709"/><path fill="#A21A43" d="M1123.434 404.177c-8.995 1.058-12.779-1.456-13.879-9.844-.71-5.413-.5-10.958-.527-16.444-.063-12.827-.051-25.655.005-38.482.011-2.653.091-5.352.576-7.948 1.268-6.783 4.94-9.66 11.385-9.271 6.1.369 9.736 3.619 9.969 10.26.455 12.974.45 25.968.488 38.954.022 7.49-.045 14.99-.452 22.464-.255 4.67-1.814 8.88-7.565 10.311M666.007 370c.003-12.152-.168-23.807.065-35.454.194-9.703 5.938-14.197 14.542-11.864 4.782 1.297 7.203 4.486 7.353 11.085.265 11.645.18 23.299.178 34.95-.003 8.32.193 16.657-.258 24.956-.45 8.26-5.621 12.036-13.412 10.657-4.302-.761-7.233-3.203-7.523-7.465-.598-8.769-.662-17.574-.945-26.865M543.99 391.62c-.483 4.606-.797 8.859-4.873 11.371-6.765 4.17-14.974.782-16.667-6.986-.525-2.41-.574-4.957-.581-7.442-.047-16.82-.041-33.64-.006-50.46.005-2.323.022-4.691.452-6.96 1.192-6.279 4.52-8.972 10.662-8.963 5.96.008 9.102 2.491 10.452 8.591.46 2.085.537 4.286.541 6.434.04 17.986.023 35.971.02 54.414M913.994 194c-.01 6.826.163 13.159-.078 19.476-.274 7.163-3.088 10.754-8.574 11.695-7.875 1.35-12.8-2.377-13.23-10.813-.447-8.802-.256-17.639-.257-26.46 0-11.153-.161-22.314.219-33.455.296-8.695 5.435-12.697 13.41-11.236 5.534 1.013 8.4 4.947 8.472 12.336.124 12.651.037 25.304.038 38.457"/><path fill="#A31C44" d="M1271.998 181v-37.273c4.128.258 8.068.146 11.86.839 4.152.759 6.768 3.674 7.109 7.956.474 5.962.821 11.952.824 17.93.008 13.816.146 27.65-.48 41.443-.462 10.2-3.99 12.94-14.254 13.104-1.48.023-2.962.003-5.06.003z"/><path fill="#A21A43" d="M1038.003 345.963v-23.296c6.676-.006 13.817-1.811 18.043 4.377 4.706 6.891 4.442 15.103.633 22.298-3.874 7.316-11.485 5.618-18.676 5.84z"/><path fill="#A31C44" d="M397.997 178v-34.274c4.142.261 8.09.136 11.88.851 4.108.776 6.816 3.602 7.118 7.94.438 6.3.786 12.62.798 18.933.025 13.487.206 26.995-.437 40.458-.492 10.283-3.974 12.952-14.28 13.091-1.485.02-2.97.003-5.079.003z"/><path fill="#A8274E" d="M1138.033 181.015c1.23-7.412 2.414-14.393 3.598-21.373l.99-.023 6.63 40.501H1135c1.01-6.313 1.999-12.493 3.034-19.105"/></svg>