<svg xmlns="http://www.w3.org/2000/svg" xml:space="preserve" viewBox="0 0 1500 1500"><path fill="#FD6925" d="M1501 510v990.959H1.104V1.166H1501zM634.526 628.041c-21.178 12.245-42.23 24.718-63.605 36.607-7.215 4.014-9.895 9.212-9.87 17.293.196 65.657.051 131.315.234 196.973.014 4.69-1.615 7-5.492 9.228-56.851 32.668-113.561 65.582-170.467 98.153-7.113 4.07-9.981 9.067-9.956 17.211.213 68.49.241 136.982-.027 205.471-.034 8.777 3.059 13.994 10.661 18.341 59.664 34.119 119.161 68.53 178.615 103.015 6.363 3.691 11.795 3.603 18.138-.078 56.996-33.084 114.125-65.938 171.139-98.992 3.837-2.225 6.67-2.565 10.747-.195 56.977 33.115 114.114 65.954 171.095 99.062 6.716 3.903 12.38 3.765 19.052-.108 59.87-34.763 119.836-69.36 179.867-103.845 6.04-3.47 8.63-7.858 8.613-14.874-.162-69.657-.183-139.314.025-208.97.023-7.477-2.772-11.967-9.113-15.606-57.304-32.881-114.476-65.994-171.766-98.9-3.625-2.082-5.017-4.305-5.007-8.552.143-65.99.018-131.982.209-197.973.022-7.737-2.689-12.617-9.453-16.496-60.2-34.52-120.282-69.248-180.331-104.033-5.824-3.374-10.984-3.43-16.82-.037-38.558 22.416-77.214 44.665-116.488 67.305m-419.697-327.29c0 10.332.506 20.695-.137 30.987-.702 11.25-1.96 22.524-3.952 33.612-1.246 6.936-5.817 11.792-13.527 12.801-13.733 1.798-21.352-4.062-23.125-18.235-.696-5.563-1.017-11.173-1.503-16.688h-52.228c.916 9.056 1.352 17.702 2.73 26.196 4.465 27.539 19.562 43.829 46.914 48.7 11.98 2.133 24.574 2.425 36.744 1.544 27.94-2.023 47.1-16.394 56.321-43.366 5.336-15.609 7.816-31.664 7.885-48.06.16-37.995.353-75.995-.138-113.984-.143-11.057-1.51-22.34-4.14-33.072-5.509-22.49-17.102-40.809-39.85-49.734-13.286-5.212-27.224-6.234-41.295-5.249-32.98 2.31-54.773 19.62-63.312 51.471-3.119 11.632-4.7 23.857-5.443 35.906-1.309 21.25.528 42.26 9.268 62.143 7.999 18.199 21.357 29.59 41.378 31.857 17.35 1.965 33.961.366 47.41-14.635zm274.587 5.72h-21.533v109.328c12.214 0 24.089.852 35.787-.22 14.07-1.288 22.39-9.578 23.192-23.784 1.098-19.422 1.554-38.987.504-58.395-.982-18.16-9.663-25.316-27.997-26.576-2.988-.205-5.988-.24-9.953-.354m533.103 41.422c.442-4.955 1.377-9.925 1.234-14.864-.424-14.578-7.128-22.359-21.343-25.283-3.078-.634-6.253-1.05-9.39-1.094-9.74-.139-19.483-.05-29.215-.05v109.614h20.268v-49.799c8.211-.48 8.202-.477 10.017 6.44 3.5 13.344 6.951 26.701 10.611 40 .384 1.396 1.973 3.418 3.106 3.488 5.758.356 11.55.164 18.065.164l-15.008-53.619c8.027-5.831 9.162-7.267 11.655-14.997m-300.816-41.417h-6.228V416.19h20.142v-49.384c8.17-1.317 8.175-1.319 10.063 5.771.47 1.768.875 3.552 1.34 5.321 3.377 12.834 6.761 25.667 10.08 38.261h20.095c-.344-1.526-.543-2.633-.845-3.711-4.26-15.209-8.588-30.398-12.722-45.64-.436-1.608-.393-4.566.52-5.132 11.215-6.946 11.703-17.962 11.01-29.112-1.01-16.295-9.255-24.438-25.546-25.5-8.96-.585-17.967-.418-27.909-.59M488.785 143.95c-2.945-7.954-8.545-13.693-16.811-14.706-13.427-1.646-27.014-1.982-40.847-2.892V236.73c11.907 0 23.592.87 35.092-.218 14.617-1.383 22.825-9.01 23.756-23.687 1.283-20.203.572-40.536.555-60.813-.002-2.433-.993-4.866-1.745-8.061m840.98 244.939c2.107 8.214 4.121 16.454 6.424 24.613.339 1.198 2.01 2.81 3.132 2.866 5.757.29 11.536.135 17.923.135l-15.173-54.208c6.464-2.73 10.478-7.414 11.42-13.559 1.07-6.978 1.501-14.247.82-21.255-1.041-10.694-7.982-17.716-18.232-19.114-13.416-1.83-27.087-1.8-40.893-2.584v110.293h20.252v-49.565c8.225-.736 8.236-.739 10.176 6.629 1.312 4.985 2.586 9.981 4.151 15.749m57.434-169.495c2.04 4.914 3.964 9.882 6.201 14.704.583 1.256 2.065 2.797 3.273 2.928 3.578.389 7.226.139 11.024.139V127.464h-16.72v58.523c-1.614-1.59-2.367-3.235-3.086-4.894-7.212-16.623-14.36-33.275-21.714-49.836-.732-1.647-2.55-3.654-4.125-3.915-3.543-.589-7.25-.185-11.232-.185v109.744h17.11v-61.148l1.055-.165a16395 16395 0 0 1 18.214 43.807m-473.332-7.66c3.05 7.377 6.03 14.784 9.218 22.1.569 1.304 1.918 3.054 3.06 3.178 3.725.405 7.52.152 11.258.152V127.54h-16.557v58.547c-1.405-1.255-2.145-2.651-2.772-4.097-7.341-16.94-14.761-33.848-21.908-50.87-1.33-3.17-2.982-4.355-6.313-4.033-2.916.281-5.88.058-8.987.058v109.737h16.914v-61.074l1.06-.108c4.911 11.776 9.824 23.553 15.027 36.036M434.543 355.874c-6.596-15.256-13.148-30.53-19.857-45.736-.634-1.437-2.151-3.323-3.438-3.475-3.885-.46-7.86-.166-11.82-.166V416.14h16.913V354.3c1.482 1.331 2.142 2.794 2.76 4.274 7.56 18.096 15.186 36.165 22.595 54.322 1.133 2.777 2.518 3.916 5.477 3.684 2.927-.23 5.887-.05 8.948-.05V306.728h-16.49v58.358l-1.018.091c-1.254-2.87-2.508-5.738-4.07-9.303m302.204-209.882c-2.27-8.942-8.105-15.254-16.872-16.498-13.71-1.945-27.656-2.217-41.665-3.208V236.78h19.952v-49.103c8.098-1.104 8.085-1.1 10.021 6.242 3.477 13.184 6.928 26.375 10.522 39.528.37 1.353 1.581 3.475 2.491 3.522 6.053.316 12.13.164 18.676.164l-15.068-53.852c8.197-3.968 11.84-10.505 12.386-18.624.398-5.92-.149-11.902-.443-18.666m284.488-13.32c-2.747 5.028-7.229 9.822-7.942 15.124-3.068 22.816-3.162 45.84-.072 68.662 1.564 11.558 8.856 19.264 20.836 21.257 4.393.731 8.985.946 13.426.605 15.84-1.217 25.352-8.846 26.349-24.682 1.324-21.03.72-42.222.055-63.316-.262-8.329-4.196-16.241-12.198-20.05-13.42-6.387-26.976-6.367-40.454 2.4M385.297 182.3c7.09 17.035 14.145 34.086 21.338 51.078.618 1.46 2.035 3.443 3.287 3.607 3.687.483 7.478.172 11.294.172V127.484h-16.662v58.508c-1.534-1.246-2.127-2.587-2.709-3.932-7.325-16.938-14.618-33.891-22.026-50.794-.668-1.525-1.95-3.744-3.162-3.893-4.02-.493-8.137-.186-12.185-.186V236.78h16.831v-61.535l.968-.262c.917 2.203 1.834 4.407 3.026 7.317m228.709 227.07v-54.516c1.613 1.35 2.321 2.796 2.938 4.28 7.397 17.808 14.736 35.64 22.248 53.4.66 1.56 2.292 3.56 3.717 3.781 3.529.547 7.199.18 10.887.18V306.902h-16.747v58.09c-1.344-.895-1.884-2.025-2.383-3.173-7.486-17.227-14.917-34.478-22.535-51.646-.666-1.501-2.428-3.3-3.888-3.51-3.56-.51-7.24-.166-11.07-.166v109.657h16.833zm725.556-268.28c-4.27-9.559-12.206-13.783-22.104-14.698-22.638-2.091-35.339 6.011-36.772 25.769-1.43 19.699-.754 39.592-.167 59.376.249 8.385 3.405 16.387 10.737 21.67 19.902 14.34 47.676 3.011 51.433-20.947.385-2.455.457-4.978.463-7.47.041-14.988.328-29.986-.13-44.961-.184-6.042-2.042-12.032-3.46-18.74m-359.93 68.875c3.31 7.98 6.552 15.992 10.002 23.912.566 1.298 1.961 3.003 3.125 3.13 3.698.403 7.467.15 11.1.15V127.527H987.38v57.94c-1.658-1.19-2.414-2.56-3.035-3.988-7.349-16.921-14.64-33.869-22.083-50.749-.623-1.412-2.131-3.247-3.41-3.403-3.731-.457-7.555-.163-11.571-.163v109.652h16.895V175.03l.862-.15c4.74 11.47 9.478 22.94 14.593 35.083m292.057 96.516h-6.535v6.313c0 23.81.052 47.62-.056 71.43-.016 3.622-.41 7.33-1.275 10.84-1.232 4.99-4.958 7.482-9.92 7.388-4.917-.093-8.624-2.737-9.737-7.693-.831-3.698-1.245-7.564-1.262-11.358-.11-23.643-.056-47.287-.056-70.93v-5.595h-19.772c0 25.525-.038 50.656.042 75.786.012 3.646.35 7.33.951 10.927 1.675 10.022 5.627 18.621 16.156 22.08 9.265 3.044 18.68 3.026 27.958-.112 6.16-2.084 11.055-6.106 12.843-12.34 1.949-6.797 3.672-13.918 3.806-20.93.459-23.968.18-47.95.166-71.927 0-1.125-.164-2.25-.29-3.879zm-205.674 95.69c-7.869.634-11.671-2.113-12.938-9.684a61.6 61.6 0 0 1-.852-9.927c-.07-23.487-.032-46.975-.048-70.463-.001-1.751-.153-3.502-.231-5.173h-18.858c0 28.25-.27 56.053.169 83.844.126 8.017 2.739 15.866 9.587 21.203 18.957 14.776 47.005 4.06 50.857-19.385.296-1.8.437-3.646.447-5.472.143-25.98.255-51.96.346-77.941.003-.775-.302-1.55-.454-2.279h-19.226v5.87c0 23.488.042 46.976-.045 70.463-.013 3.474-.402 6.988-1.028 10.408-.724 3.952-2.697 7.16-7.726 8.535M497.821 187.5c.066 7.494-.326 15.027.305 22.474.926 10.942 3.644 21.369 15.314 25.932 9.619 3.761 19.525 3.594 29.347.403 6.26-2.033 10.745-6.216 12.938-12.297 1.616-4.484 3.121-9.303 3.199-13.997.44-26.64.441-53.29.552-79.935.004-.912-.416-1.825-.598-2.57h-18.885v5.795c0 22.489.071 44.978-.058 67.466-.027 4.798-.39 9.668-1.305 14.368-1.068 5.488-4.608 7.984-9.895 8.012-5.362.028-8.822-2.326-10.06-7.791-.947-4.181-1.408-8.557-1.433-12.85-.133-23.153-.063-46.309-.063-69.463v-5.618H497.82zm645.314 138.306 1.552 20.35h18.707c0-5.502.5-10.697-.091-15.767-1.934-16.61-8.984-23.876-25.652-24.97-22.331-1.466-32.68 7.592-33.971 25.628-1.448 20.202-1.417 40.663-.006 60.87 1.171 16.77 10.502 24.226 27.121 25.826 14.642 1.41 25.771-4.192 30.094-15.369 3.373-8.721 3.245-17.815 2.727-27.052h-19.654c0 6.116.252 11.928-.07 17.708-.338 6.077-3.845 9.43-9.358 9.72-5.553.29-9.356-2.694-10.477-8.538-.53-2.762-.82-5.61-.84-8.421a2709 2709 0 0 1-.011-37.982c.044-6.149.155-12.313.65-18.436.36-4.46 2.54-7.889 7.417-8.796 4.783-.89 8.974-.26 11.862 5.23m-303.95 62.284-16.442-81.611c-5.87 0-11.51.15-17.134-.06-3.112-.115-4.218.954-4.84 4.069-6.09 30.512-12.392 60.983-18.602 91.471-.947 4.646-1.732 9.326-2.693 14.539 6.03 0 11.343.2 16.615-.167 1.068-.074 2.583-2.162 2.876-3.537 1.514-7.128 2.698-14.325 3.99-21.46h18.698l4.504 24.827h18.786c-1.917-9.362-3.748-18.3-5.759-28.07m-467.192 10.567 3.128 17.629h18.533c-.152-1.22-.208-2.183-.397-3.12-6.06-29.993-12.12-59.987-18.213-89.974-1.09-5.362-.627-12.845-3.945-15.458-3.565-2.808-10.752-.887-16.338-1.31-3.443-.262-4.415 1.188-5.052 4.404-5.045 25.449-10.333 50.85-15.514 76.272-1.949 9.562-3.812 19.14-5.856 29.42 5.486 0 10.275-.147 15.05.053 3.083.129 4.352-.837 4.8-4.07.995-7.168 2.514-14.262 3.79-21.225h18.586c.468 2.328.89 4.423 1.428 7.379m823.979-190.153c-5.28-25.92-10.528-51.848-15.937-77.742-.282-1.348-1.901-3.377-2.988-3.436-6.111-.334-12.25-.161-18.614-.161l-22.305 109.73h19.115c1.26-7.09 2.618-14.093 3.703-21.138.422-2.745 1.287-4.171 4.38-3.97 3.816.249 7.67.223 11.491.008 3.035-.172 3.924 1.1 4.334 3.963 1.013 7.057 2.444 14.055 3.723 21.17h18.77c-1.904-9.426-3.738-18.503-5.672-28.424M893.263 413.91c9.441-5.988 12.703-14.894 12.204-25.636-.567-12.212-7.085-21.201-15.69-29.018-5.418-4.923-11.06-9.6-16.502-14.497-4.237-3.813-7.04-8.359-6.76-14.382.265-5.713 2.922-8.988 8.087-9.663 5.224-.682 8.727 1.667 10.21 7.26.872 3.288 1.257 6.704 1.937 10.485l16.52-3.361c-.591-18.534-8.364-28.038-23.81-29.8-15.724-1.793-28.797 6.411-31.27 19.937-2.43 13.291 1.086 24.656 11.565 33.645 6.816 5.847 13.574 11.777 20.103 17.94 4.72 4.455 6.703 10.214 6.211 16.737-.284 3.768-1.78 6.893-5.594 8.052-3.942 1.197-7.933.606-10.34-2.906-1.911-2.789-3.068-6.192-4.081-9.471-.816-2.64-.916-5.501-1.402-8.72-5.123 1.03-10.016 1.834-14.781 3.115-1.005.27-2.223 2.306-2.192 3.498.646 24.833 22.636 38.054 45.585 26.785M617.945 228.362c1.688-5.13 4.356-10.164 4.873-15.41 1.388-14.058-5.989-24.428-15.94-33.308-5.341-4.767-10.83-9.37-16.13-14.181-4.22-3.83-7.018-8.426-6.737-14.427.261-5.6 2.923-8.685 8.317-9.536 4.773-.753 8.37 1.607 9.899 6.953.982 3.439 1.442 7.027 2.197 10.857l16.829-3.455c-1.4-11.824-3.447-22.728-15.484-27.58-9.401-3.79-18.974-3.125-28.065 1.433-6.325 3.171-10.202 8.5-11.683 15.378-2.995 13.912.744 25.594 11.693 34.95 6.83 5.836 13.643 11.731 20.036 18.033 4.987 4.916 7.204 11.203 5.529 18.28-1.336 5.64-6.933 8.517-11.96 5.68-2.642-1.49-5.092-4.39-6.233-7.216-1.64-4.066-2.007-8.645-3.02-13.497l-16.856 3.545c-.143 15.913 6.255 27.235 17.47 31.608 12.384 4.828 26.228 1.829 35.265-8.107m494.681-42.377-2.736 14.328c-1.077-1.817-1.508-3.58-1.844-5.361-4.041-21.404-8.025-42.818-12.2-64.195-.262-1.344-1.916-3.345-3.046-3.431-4.935-.379-9.916-.163-15.423-.163.412 2.426.686 4.36 1.074 6.273 5.842 28.84 11.67 57.682 17.576 86.51 1.157 5.648.881 13.425 4.426 16.24 3.616 2.872 11.127.847 16.932.936.473.007.95-.219 1.819-.434l22.238-109.243h-18.438a38583 38583 0 0 1-10.378 58.54m296.4 230.502c.709-.712 1.991-1.394 2.03-2.141.206-3.919.096-7.854.096-12.325h-25.757v-35.693h19.716v-14.487h-19.81v-31.155h25.381v-13.849h-45.64v109.68c14.498 0 28.778 0 43.984-.03M776.382 237.176c3.192.53 3.895-1.01 3.853-3.956-.15-10.49-.222-20.986.027-31.472.093-3.912.678-7.949 1.847-11.675 4.676-14.903 9.69-29.701 14.538-44.55 1.934-5.922 3.765-11.876 5.817-18.366-5.489 0-10.148.193-14.781-.068-3.141-.177-4.28 1.085-5.068 3.991-2.392 8.817-5.117 17.544-7.749 26.296-1.118 3.717-2.328 7.406-3.928 12.48-1.026-2.963-1.586-4.448-2.057-5.96-3.41-10.946-6.72-21.925-10.297-32.815-.5-1.522-2.209-3.632-3.5-3.737-5.244-.426-10.545-.177-16.442-.177.675 2.335 1.116 4.064 1.672 5.755 5.04 15.308 9.88 30.688 15.228 45.887 3.79 10.771 6.362 21.54 5.562 33.11-.57 8.236-.11 16.545-.11 25.258zm166.175 173.08v-88.698h7.65c10.566-.004 10.369-.006 10.45-10.587.032-4.005-1.547-4.627-5.021-4.593-15.651.15-31.305.058-46.958.077-1.461.002-2.922.171-4.522.271v14.917h18.286v11.585c0 25.977.116 51.955-.108 77.93-.04 4.538 1.351 5.915 5.665 5.463a45 45 0 0 1 9.478.002c4.4.477 5.665-1.502 5.08-6.366M664.991 345.5v70.605h20.392v-49.627h19.522v-14.436h-19.424v-31.621h24.386v-13.637H664.99zM639.5 127.145h-19.263v15.35h18.082v94.398h20.422V142.09h17.048v-14.946zm562 179.329h-37.096v15.046h18.34v94.567h20.456v-94.704h17.401v-14.909zm10.503-72.162c.781.947 1.53 2.68 2.349 2.714 5.77.238 11.553.127 17.958.127V142.03h17.27v-14.589h-55.39v14.94H1212c0 30.683 0 60.821.003 91.931M334.442 185.5v51.373h19.726v-109.45h-19.725zm250.746 170v-49.033c-5.007 0-9.352.304-13.635-.081-4.696-.423-6.304.988-6.205 5.946.318 15.803.118 31.618.118 47.428 0 17.308-.026 34.616.037 51.923.007 1.927-1.009 4.76 2.562 4.809 5.584.075 11.17.02 17.123.02zM1272.002 180.5v-53.016h-19.678V236.77h19.678zm-406.643 56.679 5.17-.278V127.419h-19.263v109.76zm-47.03 1.629v-19.554H800.2v17.632l10.253.76c-1.44 2.942-2.153 5.369-3.635 7.16-1.502 1.815-3.763 3.002-5.867 4.597l2.255 6.35c9.836-2.534 13.649-6.732 15.123-16.945"/><path fill="#FFFEFE" d="M634.85 627.873c38.95-22.472 77.606-44.72 116.164-67.137 5.836-3.392 10.996-3.337 16.82.037 60.049 34.785 120.13 69.513 180.331 104.033 6.764 3.88 9.475 8.759 9.453 16.496-.19 65.991-.066 131.982-.21 197.973-.009 4.247 1.383 6.47 5.008 8.552 57.29 32.906 114.462 66.019 171.766 98.9 6.341 3.639 9.136 8.129 9.113 15.605-.208 69.657-.187 139.314-.025 208.971.016 7.016-2.572 11.404-8.613 14.874-60.03 34.484-119.997 69.082-179.867 103.845-6.671 3.873-12.336 4.01-19.052.108-56.981-33.108-114.118-65.947-171.095-99.062-4.076-2.37-6.91-2.03-10.747.195-57.014 33.054-114.143 65.908-171.139 98.992-6.343 3.681-11.775 3.77-18.138.078-59.454-34.485-118.95-68.896-178.615-103.015-7.602-4.347-10.695-9.564-10.661-18.34.268-68.49.24-136.982.027-205.472-.025-8.144 2.843-13.14 9.956-17.211 56.906-32.571 113.616-65.485 170.467-98.153 3.877-2.227 5.506-4.538 5.492-9.228-.183-65.658-.038-131.316-.235-196.973-.024-8.08 2.656-13.28 9.871-17.293 21.376-11.89 42.427-24.362 63.93-36.775M520.324 1090.13 400.42 1020.96c-.134 1.568-.238 2.216-.238 2.863-.008 59.81-.038 119.62.13 179.429.005 1.765 1.671 4.252 3.272 5.18 51.223 29.737 102.534 59.324 153.841 88.916 1.05.606 2.221 1 3.552 1.59.085-1.188.173-1.85.173-2.511.009-59.643-.013-119.286.08-178.93.004-2.944-1.083-4.42-3.523-5.801-12.308-6.964-24.516-14.104-37.383-21.565m428.98-.251 156.643-90.492c-1.874-1.125-3.126-1.9-4.4-2.635-50.705-29.269-101.433-58.5-152.073-87.88-3.153-1.829-5.36-1.917-8.53-.079-49.785 28.868-99.651 57.595-149.49 86.37-2.205 1.272-4.333 2.68-6.627 4.107.677.575.904.834 1.186.998 52.126 30.138 104.24 60.295 156.459 90.273 1.497.86 4.089-.186 6.832-.662m169.188 33.621v-102.324c-2.117 1.06-3.157 1.515-4.134 2.08-51.14 29.529-102.262 59.092-153.45 88.538-2.757 1.585-3.453 3.433-3.45 6.376.068 58.8.049 117.6.069 176.399 0 1.38.26 2.76.435 4.497 1.103-.502 1.71-.72 2.259-1.037 51.73-29.84 103.438-59.716 155.22-89.464 2.93-1.684 3.08-3.852 3.075-6.609-.042-25.818-.024-51.637-.024-78.456M813.495 767.988l-29.218 16.838 148.257 85.607V699.216c-39.905 23.055-79.154 45.732-119.04 68.772m-86.04 20.945 6.938-4.194-148.051-85.46v171.133c47.183-27.254 93.82-54.191 141.113-81.479m-87.957 370.062-53.075-30.633v171.005l148.096-85.51c-32.143-18.568-63.259-36.544-95.021-54.862m-10.29-34.688 117.448 67.827v-171.088l-148.121 85.536a11813 11813 0 0 0 30.673 17.725m-1.473-249.104-29.152 16.938 148.136 85.492V806.508c-39.813 22.998-79.075 45.676-118.984 68.695M916.1 894.507l3.808-2.637-147.639-85.25v170.9c48.142-27.77 95.669-55.184 143.83-83.013M214.829 300.296v-7.351c-13.449 15.001-30.06 16.6-47.41 14.635-20.021-2.267-33.38-13.658-41.378-31.857-8.74-19.884-10.577-40.893-9.268-62.143.743-12.049 2.324-24.274 5.443-35.906 8.54-31.85 30.332-49.16 63.312-51.47 14.071-.986 28.01.036 41.295 5.248 22.748 8.925 34.341 27.245 39.85 49.734 2.63 10.732 3.997 22.015 4.14 33.072.491 37.989.298 75.989.138 113.984-.069 16.396-2.549 32.451-7.885 48.06-9.22 26.972-28.38 41.343-56.321 43.366-12.17.88-24.765.59-36.744-1.544-27.352-4.871-42.449-21.161-46.915-48.7-1.377-8.494-1.813-17.14-2.73-26.196h52.229c.486 5.515.807 11.125 1.503 16.688 1.773 14.173 9.392 20.033 23.125 18.235 7.71-1.01 12.28-5.865 13.527-12.8 1.992-11.089 3.25-22.363 3.952-33.613.643-10.292.137-20.655.137-31.442m-6.504-126.016c-4.498-6.67-11.087-8.153-18.442-7.008-7.431 1.158-11.846 6.148-13.474 13.09-5.388 22.978-5.083 46.271-1.497 69.36 1.958 12.6 10.235 17.63 22.206 16.269 10.244-1.165 17.714-9.45 17.714-19.648 0-14.315.178-28.632-.062-42.943-.165-9.84-1.25-19.599-6.445-29.12"/><path fill="#FFFBF9" d="M489.901 306.47c3.48.113 6.48.148 9.468.353 18.334 1.26 27.015 8.416 27.997 26.576 1.05 19.408.594 38.973-.504 58.395-.802 14.206-9.121 22.496-23.192 23.784-11.698 1.072-23.573.22-35.787.22V306.469zm11.737 16.002-13.41-1.888v81.411c2.524 0 4.679.106 6.82-.019 7.971-.466 11.745-3.818 11.853-11.77.261-19.303.319-38.616-.09-57.912-.068-3.161-2.932-6.263-5.173-9.822M1022.38 348.272c-2.354 7.349-3.49 8.785-11.516 14.616l15.008 53.619c-6.515 0-12.307.192-18.065-.164-1.133-.07-2.722-2.092-3.106-3.487-3.66-13.3-7.11-26.657-10.611-40-1.815-6.918-1.806-6.92-10.017-6.44v49.798h-20.268V306.6c9.732 0 19.475-.088 29.215.051 3.137.045 6.312.46 9.39 1.094 14.215 2.924 20.92 10.705 21.343 25.283.143 4.939-.792 9.909-1.373 15.245m-21.607-24.613c-5.064-3.814-10.763-3.241-16.574-2.87v32.219c3.15 0 5.976.243 8.743-.054 4.699-.506 8.777-2.337 10.328-7.271 2.32-7.384 2.527-14.664-2.497-22.024"/><path fill="#FFFCFA" d="M722.181 306.474c9.464.172 18.472.005 27.43.59 16.292 1.062 24.537 9.205 25.548 25.5.692 11.15.204 22.166-11.01 29.112-.914.566-.957 3.524-.521 5.131 4.134 15.243 8.463 30.432 12.722 45.64.302 1.079.5 2.186.845 3.712H757.1c-3.319-12.594-6.703-25.427-10.08-38.26-.465-1.77-.87-3.554-1.34-5.322-1.888-7.09-1.893-7.088-10.063-5.771v49.384h-20.142V306.474zm32.349 40.215c.425-5.412 1.352-10.846 1.125-16.23-.195-4.623-3.057-8.25-7.885-9.154-3.828-.716-7.801-.654-11.916-.952v32.692c6.99.093 13.85 1.21 18.676-6.356"/><path fill="#FFFDFC" d="M488.894 144.332c.643 2.814 1.634 5.247 1.636 7.68.017 20.277.728 40.61-.555 60.813-.931 14.676-9.139 22.304-23.756 23.687-11.5 1.088-23.185.218-35.092.218V126.353c13.833.91 27.42 1.246 40.847 2.892 8.266 1.013 13.866 6.752 16.92 15.087m-38.05 65.16v13.5c2.222 0 3.705.014 5.188-.001 10.16-.106 13.529-3.018 14.098-13.24.462-8.303.359-16.642.328-24.965-.04-10.986-.01-21.983-.49-32.954-.268-6.158-3.894-9.33-9.946-9.745-2.929-.2-5.882-.034-9.178-.034zM1329.628 388.501c-1.428-5.379-2.702-10.375-4.014-15.36-1.94-7.368-1.951-7.365-10.176-6.629v49.565h-20.252V305.784c13.806.784 27.477.753 40.893 2.584 10.25 1.398 17.19 8.42 18.231 19.114.682 7.008.251 14.277-.819 21.255-.942 6.145-4.956 10.828-11.42 13.56l15.173 54.207c-6.387 0-12.166.156-17.923-.135-1.123-.056-2.793-1.668-3.132-2.866-2.303-8.16-4.317-16.4-6.56-25.002m-7.556-67.991h-6.628v32.088c12.308 2.091 19.29-1.487 20.283-10.974 1.513-14.464-1.824-20.617-13.655-21.114"/><path fill="#FFFCFA" d="M1387.073 219.034c-6.113-14.724-12.1-29.085-18.088-43.446l-1.055.165v61.148h-17.11V127.157c3.982 0 7.69-.404 11.232.185 1.575.261 3.393 2.268 4.125 3.915 7.353 16.561 14.502 33.213 21.714 49.836.72 1.66 1.472 3.305 3.087 4.894v-58.523h16.719v109.702c-3.798 0-7.446.25-11.024-.14-1.208-.13-2.69-1.671-3.273-2.927-2.237-4.822-4.16-9.79-6.327-15.065"/><path fill="#FFFBF9" d="M913.721 211.382c-5.057-12.13-9.97-23.906-14.882-35.682l-1.059.108v61.074h-16.914V127.145c3.107 0 6.071.223 8.987-.058 3.33-.322 4.982.864 6.313 4.033 7.147 17.022 14.567 33.93 21.908 50.87.627 1.446 1.367 2.842 2.772 4.097V127.54h16.557v109.625c-3.738 0-7.533.253-11.257-.152-1.143-.124-2.492-1.874-3.06-3.178-3.19-7.316-6.168-14.723-9.365-22.453M434.697 356.222c1.408 3.217 2.662 6.086 3.916 8.955l1.018-.091v-58.358h16.49V416.53c-3.061 0-6.021-.18-8.948.05-2.959.232-4.344-.907-5.477-3.684-7.41-18.157-15.034-36.226-22.594-54.322-.619-1.48-1.279-2.943-2.761-4.273v61.84h-16.912V306.496c3.96 0 7.934-.293 11.819.166 1.287.152 2.804 2.038 3.438 3.475 6.71 15.205 13.261 30.48 20.011 46.084"/><path fill="#FFFEFD" d="M736.831 146.397c.21 6.36.757 12.342.359 18.261-.546 8.12-4.19 14.656-12.386 18.624l15.068 53.852c-6.546 0-12.623.152-18.676-.164-.91-.047-2.12-2.169-2.49-3.522-3.595-13.153-7.046-26.344-10.523-39.528-1.936-7.342-1.923-7.346-10.021-6.242v49.103H678.21V126.286c14.01.991 27.956 1.263 41.665 3.208 8.767 1.244 14.601 7.556 16.956 16.903m-29.988-4.846-8.532-.444v32.71c15.847 1.57 22.228-4.684 20.395-19.653-.08-.66-.223-1.313-.345-1.968-1.308-6.987-3.502-9.148-11.518-10.645"/><path fill="#FFFDFC" d="M1021.51 132.439c13.203-8.534 26.758-8.554 40.18-2.167 8.001 3.809 11.935 11.721 12.197 20.05.664 21.094 1.269 42.286-.055 63.316-.997 15.836-10.51 23.465-26.35 24.682-4.44.34-9.032.126-13.425-.605-11.98-1.993-19.272-9.7-20.836-21.257-3.09-22.822-2.996-45.846.072-68.662.713-5.302 5.195-10.096 8.217-15.357m10.647 41.061c0 11.49-.046 22.982.036 34.472.018 2.475.281 4.995.808 7.412 1.209 5.55 4.602 8.104 10.342 8.111 5.656.008 9.224-2.617 10.368-8.127.603-2.907.764-5.946.777-8.928.071-16.153.054-32.306.012-48.46-.006-2.488-.13-5-.49-7.458-1.037-7.072-5.632-10.395-12.693-9.353-5.885.868-8.746 4.503-9.08 12.35-.268 6.316-.07 12.653-.08 19.981"/><path fill="#FFFCFA" d="M385.16 181.947c-1.055-2.557-1.972-4.76-2.89-6.964l-.967.262v61.535h-16.831V127.187c4.048 0 8.166-.307 12.185.186 1.212.148 2.494 2.368 3.162 3.893 7.408 16.903 14.701 33.856 22.026 50.794.582 1.345 1.175 2.686 2.71 3.932v-58.508h16.66v109.673c-3.815 0-7.606.31-11.293-.172-1.252-.164-2.669-2.148-3.287-3.607-7.193-16.992-14.247-34.043-21.476-51.431"/><path fill="#FFFDFC" d="M614.006 409.849v6.305h-16.833V306.497c3.83 0 7.51-.343 11.07.166 1.46.21 3.222 2.009 3.888 3.51 7.618 17.168 15.049 34.42 22.535 51.646.5 1.148 1.039 2.278 2.383 3.174v-58.09h16.747v109.592c-3.688 0-7.358.367-10.887-.18-1.425-.22-3.057-2.22-3.717-3.782-7.512-17.759-14.85-35.591-22.248-53.399-.617-1.484-1.325-2.93-2.938-4.28z"/><path fill="#FFFEFD" d="M1339.723 141.435c1.257 6.361 3.115 12.351 3.3 18.393.457 14.975.17 29.973.13 44.961-.007 2.492-.079 5.015-.464 7.47-3.757 23.958-31.531 35.287-51.433 20.947-7.332-5.283-10.488-13.285-10.737-21.67-.587-19.784-1.262-39.677.167-59.376 1.433-19.758 14.134-27.86 36.772-25.769 9.898.915 17.835 5.14 22.265 15.044m-39.25 30.065c0 12.158-.029 24.316.026 36.473.01 2.32.147 4.678.584 6.949 1.113 5.779 4.686 8.603 10.505 8.583 5.873-.02 9.33-2.781 10.432-8.63.491-2.601.78-5.28.79-7.926.07-16.487.065-32.975.005-49.462-.01-2.481-.268-4.99-.702-7.435-1.105-6.23-4.506-9.059-10.574-9.04-6.333.02-9.98 2.936-10.563 9.541-.584 6.613-.368 13.296-.503 20.947"/><path fill="#FFFDFC" d="M979.443 209.627c-4.927-11.806-9.666-23.277-14.405-34.747l-.862.15v61.787h-16.895V127.165c4.016 0 7.84-.294 11.572.163 1.278.156 2.786 1.991 3.41 3.403 7.442 16.88 14.733 33.828 22.082 50.749.62 1.428 1.377 2.797 3.035 3.989v-57.94h16.478v109.625c-3.632 0-7.401.254-11.1-.149-1.163-.127-2.558-1.832-3.124-3.13-3.45-7.92-6.692-15.932-10.19-24.248"/><path fill="#FFFCFB" d="M1272.162 306.479h12.545c.126 1.629.29 2.754.29 3.88.014 23.976.293 47.958-.166 71.926-.134 7.012-1.857 14.133-3.806 20.93-1.788 6.234-6.683 10.256-12.843 12.34-9.278 3.138-18.693 3.156-27.958.112-10.53-3.459-14.481-12.058-16.156-22.08-.6-3.597-.94-7.281-.95-10.927-.081-25.13-.043-50.26-.043-75.786h19.772v5.594c0 23.644-.054 47.288.056 70.931.017 3.794.431 7.66 1.262 11.358 1.113 4.956 4.82 7.6 9.737 7.693 4.962.094 8.688-2.398 9.92-7.389.865-3.508 1.259-7.217 1.275-10.839.108-23.81.056-47.62.056-71.43v-6.313z"/><path fill="#FFFBF9" d="M1066.425 402.091c4.618-1.299 6.591-4.506 7.315-8.458.626-3.42 1.015-6.934 1.028-10.408.087-23.487.045-46.975.045-70.462v-5.87h19.226c.152.728.457 1.503.454 2.278-.091 25.98-.203 51.961-.346 77.941a35 35 0 0 1-.447 5.472c-3.852 23.445-31.9 34.16-50.857 19.385-6.848-5.337-9.46-13.186-9.587-21.203-.438-27.791-.17-55.593-.17-83.844h18.859c.078 1.67.23 3.422.23 5.173.017 23.488-.021 46.976.05 70.463.01 3.313.304 6.66.85 9.927 1.268 7.571 5.07 10.318 13.35 9.606"/><path fill="#FFFDFC" d="M497.821 187v-59.571h19.358v5.618c0 23.154-.07 46.31.063 69.464.025 4.292.486 8.668 1.433 12.849 1.238 5.465 4.698 7.82 10.06 7.791 5.287-.028 8.827-2.524 9.895-8.012.915-4.7 1.278-9.57 1.305-14.368.13-22.488.058-44.977.058-67.466v-5.795h18.885c.182.745.602 1.658.598 2.57-.11 26.646-.112 53.294-.552 79.935-.078 4.694-1.583 9.513-3.2 13.997-2.192 6.08-6.678 10.264-12.937 12.297-9.822 3.191-19.728 3.358-29.347-.403-11.67-4.563-14.388-14.99-15.314-25.932-.63-7.447-.24-14.98-.305-22.974M1143.005 325.416c-2.758-5.1-6.95-5.73-11.732-4.84-4.877.907-7.056 4.335-7.417 8.796-.495 6.123-.606 12.287-.65 18.436-.09 12.66-.076 25.321.01 37.982.02 2.811.311 5.66.84 8.42 1.122 5.845 4.925 8.83 10.478 8.538 5.513-.289 9.02-3.642 9.359-9.72.321-5.779.069-11.59.069-17.707h19.654c.518 9.237.646 18.33-2.727 27.052-4.323 11.177-15.452 16.778-30.094 15.369-16.619-1.6-25.95-9.056-27.121-25.826-1.411-20.207-1.442-40.668.006-60.87 1.292-18.036 11.64-27.094 33.971-25.628 16.668 1.094 23.718 8.36 25.652 24.97.59 5.07.091 10.265.091 15.768h-18.707c-.526-6.898-1.04-13.624-1.682-20.74"/><path fill="#FFFCFB" d="M839.275 388.507c1.92 9.354 3.75 18.292 5.668 27.654h-18.786l-4.504-24.828h-18.698c-1.292 7.136-2.476 14.333-3.99 21.46-.293 1.376-1.808 3.464-2.876 3.538-5.272.367-10.584.167-16.615.167.961-5.213 1.746-9.893 2.693-14.539 6.21-30.488 12.513-60.959 18.602-91.471.622-3.115 1.728-4.184 4.84-4.069 5.625.21 11.263.06 17.134.06 5.54 27.5 10.99 54.555 16.532 82.028m-32.135-10.68h12.332l-6.726-41.317c-3.02 12.762-5.1 25.505-7.086 38.262-.145.93.396 1.965 1.48 3.055M371.934 398.228c-.48-2.526-.902-4.621-1.37-6.949h-18.587c-1.275 6.963-2.794 14.057-3.789 21.224-.448 3.234-1.717 4.2-4.8 4.07-4.775-.199-9.564-.052-15.05-.052 2.044-10.28 3.907-19.858 5.856-29.42 5.181-25.422 10.47-50.823 15.514-76.272.637-3.216 1.609-4.666 5.052-4.405 5.586.424 12.773-1.497 16.338 1.31 3.318 2.614 2.856 10.097 3.945 15.46 6.093 29.986 12.153 59.98 18.213 89.973.189.937.245 1.9.397 3.12H375.12a6463 6463 0 0 1-3.186-18.06m-3.895-22.757-6.295-39.061-.91-.063-6.897 42.196c5.21-.8 9.672-1.487 14.102-3.072"/><path fill="#FFFDFC" d="M1196.02 208.928c1.885 9.498 3.719 18.575 5.624 28.001h-18.771c-1.28-7.115-2.71-14.113-3.723-21.17-.41-2.862-1.299-4.135-4.334-3.963-3.82.215-7.675.24-11.492-.008-3.092-.201-3.957 1.225-4.38 3.97-1.084 7.045-2.441 14.048-3.702 21.137h-19.115l22.305-109.73c6.364 0 12.503-.172 18.614.162 1.087.06 2.706 2.088 2.988 3.436 5.41 25.894 10.656 51.822 15.987 78.165m-22.94-29.62-3.48-21.323-1.122-.033-6.568 40.225h14.256a2734 2734 0 0 1-3.087-18.87"/><path fill="#FFFCFB" d="M892.929 414.072c-22.615 11.106-44.605-2.115-45.251-26.948-.031-1.192 1.187-3.227 2.192-3.498 4.765-1.281 9.658-2.086 14.78-3.115.487 3.219.587 6.08 1.403 8.72 1.013 3.279 2.17 6.682 4.081 9.471 2.407 3.512 6.398 4.103 10.34 2.906 3.814-1.159 5.31-4.284 5.594-8.052.492-6.523-1.49-12.282-6.21-16.737-6.53-6.163-13.288-12.093-20.104-17.94-10.479-8.99-13.995-20.354-11.565-33.645 2.473-13.526 15.546-21.73 31.27-19.937 15.446 1.762 23.219 11.266 23.81 29.8l-16.52 3.361c-.68-3.781-1.065-7.197-1.936-10.485-1.484-5.593-4.987-7.942-10.211-7.26-5.165.675-7.822 3.95-8.088 9.663-.28 6.023 2.524 10.569 6.761 14.382 5.442 4.897 11.084 9.574 16.503 14.497 8.604 7.817 15.122 16.806 15.69 29.018.498 10.742-2.764 19.648-12.54 25.799M617.72 228.643c-8.812 9.655-22.656 12.654-35.04 7.826-11.215-4.373-17.613-15.695-17.47-31.608l16.855-3.545c1.014 4.852 1.381 9.431 3.021 13.497 1.14 2.827 3.591 5.726 6.233 7.217 5.027 2.836 10.624-.041 11.96-5.681 1.675-7.077-.542-13.364-5.529-18.28-6.393-6.302-13.205-12.197-20.036-18.034-10.949-9.355-14.688-21.037-11.693-34.949 1.481-6.878 5.358-12.207 11.683-15.378 9.09-4.558 18.664-5.223 28.065-1.433 12.037 4.852 14.083 15.756 15.484 27.58l-16.829 3.455c-.755-3.83-1.215-7.418-2.197-10.857-1.528-5.346-5.126-7.706-9.9-6.953-5.393.851-8.055 3.937-8.316 9.536-.281 6 2.517 10.597 6.736 14.427 5.3 4.811 10.79 9.414 16.131 14.18 9.951 8.881 17.328 19.25 15.94 33.31-.517 5.245-3.185 10.278-5.098 15.69M1112.717 185.562c3.475-19.575 6.86-38.728 10.287-58.117h18.438l-22.238 109.243c-.87.215-1.346.44-1.819.434-5.805-.089-13.316 1.936-16.932-.935-3.545-2.816-3.269-10.593-4.426-16.242-5.905-28.827-11.734-57.67-17.576-86.51-.388-1.911-.662-3.846-1.074-6.272 5.507 0 10.488-.216 15.423.163 1.13.086 2.784 2.087 3.046 3.431 4.175 21.377 8.159 42.791 12.2 64.195.336 1.781.767 3.544 1.844 5.361.912-4.776 1.824-9.552 2.827-14.751"/><path fill="#FFFCFA" d="M1408.563 416.502c-14.743.015-29.023.015-43.521.015v-109.68h45.64v13.849h-25.381v31.155h19.81v14.487h-19.716v35.693h25.757c0 4.471.11 8.406-.096 12.325-.039.747-1.321 1.43-2.493 2.156"/><path fill="#FFFDFC" d="M775.895 237.176h-14.901c0-8.712-.46-17.02.11-25.258.8-11.57-1.771-22.338-5.562-33.109-5.349-15.2-10.188-30.579-15.228-45.887-.556-1.691-.997-3.42-1.672-5.755 5.897 0 11.198-.25 16.443.177 1.29.105 3 2.215 3.5 3.737 3.577 10.89 6.886 21.869 10.296 32.814.471 1.513 1.03 2.998 2.057 5.96 1.6-5.073 2.81-8.762 3.928-12.48 2.632-8.75 5.357-17.478 7.75-26.295.788-2.906 1.926-4.168 5.067-3.99 4.633.26 9.292.067 14.781.067-2.052 6.49-3.883 12.444-5.817 18.365-4.849 14.85-9.862 29.648-14.538 44.55-1.17 3.727-1.754 7.764-1.847 11.676-.25 10.486-.177 20.982-.027 31.472.042 2.946-.66 4.486-4.34 3.956"/><path fill="#FFF7F3" d="M942.557 410.72c.585 4.401-.68 6.38-5.08 5.903a45 45 0 0 0-9.478-.002c-4.314.452-5.704-.925-5.665-5.463.224-25.975.108-51.953.108-77.93v-11.585h-18.286v-14.917c1.6-.1 3.061-.27 4.522-.27 15.653-.02 31.307.071 46.958-.078 3.474-.034 5.053.588 5.022 4.593-.082 10.581.115 10.583-10.452 10.587h-7.649z"/><path fill="#FFFCFB" d="M664.99 345v-38.216h44.877v13.637H685.48v31.621h19.424v14.436h-19.522v49.627h-20.392z"/><path fill="#FFFBF9" d="M640 127.145h35.79v14.946h-17.048v94.802H638.32v-94.398h-18.082v-15.35z"/><path fill="#FFFCFA" d="M1201.999 306.474h18.602v14.91H1203.2v94.703h-20.457V321.52h-18.34v-15.046z"/><path fill="#FFFEFE" d="M1212 233.826 1212 142.38h-17.81v-14.939h55.39v14.59h-17.27v95.122c-6.405 0-12.189.111-17.958-.127-.82-.033-1.568-1.767-2.35-3.2"/><path fill="#FFF7F3" d="M334.443 185v-57.577h19.725v109.45h-19.725z"/><path fill="#FFFBF9" d="M585.189 356v60.512c-5.953 0-11.539.055-17.123-.02-3.57-.048-2.555-2.882-2.562-4.809-.063-17.307-.037-34.615-.037-51.923 0-15.81.2-31.625-.118-47.428-.1-4.958 1.51-6.369 6.205-5.946 4.283.385 8.628.081 13.635.081z"/><path fill="#FFFEFE" d="M1272.002 181v55.77h-19.678V127.484h19.678z"/><path fill="#FFFDFC" d="M864.877 237.179h-13.611v-109.76h19.263v109.482c-1.684.09-3.427.184-5.652.278"/><path fill="#FFFBF9" d="M818.263 239.237c-1.408 9.784-5.22 13.982-15.057 16.515l-2.255-6.35c2.104-1.594 4.365-2.781 5.867-4.596 1.482-1.791 2.196-4.218 3.635-7.16l-10.253-.76v-17.632h18.129c0 6.481 0 13.018-.066 19.983"/><path fill="#FD6926" d="M520.636 1090.322c12.555 7.27 24.763 14.409 37.07 21.373 2.44 1.38 3.528 2.857 3.524 5.802-.093 59.643-.071 119.286-.08 178.929 0 .661-.088 1.323-.173 2.51-1.33-.589-2.502-.983-3.552-1.59-51.307-29.591-102.618-59.178-153.841-88.914-1.6-.93-3.267-3.416-3.272-5.181-.168-59.81-.138-119.62-.13-179.43 0-.646.104-1.294.238-2.862 40.251 23.22 80.077 46.196 120.216 69.363M948.973 1090.038c-2.412.317-5.004 1.363-6.501.503-52.218-29.978-104.333-60.135-156.46-90.273-.281-.164-.508-.423-1.185-.998 2.294-1.426 4.422-2.835 6.627-4.108 49.839-28.774 99.705-57.5 149.49-86.369 3.17-1.838 5.377-1.75 8.53.079 50.64 29.38 101.368 58.611 152.073 87.88 1.274.735 2.526 1.51 4.4 2.635-52.548 30.356-104.595 60.424-156.974 90.65"/><path fill="#FD6925" d="M1118.492 1124c0 26.319-.018 52.138.024 77.956.005 2.757-.144 4.925-3.075 6.609-51.782 29.748-103.49 59.623-155.22 89.464-.55.317-1.156.535-2.259 1.037-.175-1.738-.435-3.117-.435-4.497-.02-58.8 0-117.6-.068-176.399-.004-2.943.692-4.79 3.448-6.376 51.19-29.446 102.31-59.01 153.45-88.539.978-.564 2.018-1.019 4.135-2.079z"/><path fill="#FD6A26" d="M813.813 767.806c39.567-22.858 78.816-45.535 118.72-68.59v171.217l-148.256-85.607z"/><path fill="#FD6926" d="M727.125 789.108c-46.965 27.113-93.601 54.05-140.784 81.304V699.279l148.051 85.46c-2.757 1.667-4.847 2.93-7.267 4.37M639.82 1159.166c31.439 18.147 62.555 36.123 94.698 54.691l-148.096 85.51v-171.005a95795 95795 0 0 0 53.398 30.804M628.882 1124.139a22893 22893 0 0 1-30.348-17.557l148.121-85.536v171.088c-39.313-22.704-78.38-45.265-117.773-67.995M628.058 875.033c39.585-22.849 78.847-45.527 118.66-68.525v171.125l-148.136-85.492c10.104-5.87 19.628-11.404 29.476-17.108M915.784 894.714A443283 443283 0 0 1 772.27 977.52v-170.9l147.64 85.25a756 756 0 0 1-4.126 2.844"/><path fill="#FD6A26" d="M208.54 174.58c4.98 9.221 6.065 18.98 6.23 28.82.24 14.31.062 28.628.062 42.943 0 10.198-7.47 18.483-17.714 19.648-11.971 1.36-20.248-3.669-22.206-16.27-3.586-23.088-3.891-46.381 1.498-69.36 1.627-6.941 6.042-11.931 13.473-13.089 7.355-1.145 13.944.337 18.657 7.307"/><path fill="#FD6926" d="M501.973 322.686c1.906 3.344 4.77 6.446 4.837 9.607.41 19.296.352 38.609.09 57.911-.107 7.953-3.88 11.305-11.852 11.771-2.141.125-4.296.02-6.82.02v-81.412c4.474.63 8.942 1.26 13.745 2.103"/><path fill="#FD6C29" d="M1001.048 323.934c4.75 7.085 4.542 14.365 2.222 21.749-1.551 4.934-5.63 6.765-10.328 7.27-2.767.298-5.593.055-8.743.055v-32.219c5.811-.371 11.51-.944 16.849 3.145"/><path fill="#FD6E2C" d="M754.333 347.027c-4.63 7.228-11.488 6.111-18.48 6.018v-32.692c4.116.298 8.09.236 11.917.952 4.828.905 7.69 4.531 7.885 9.154.227 5.384-.7 10.818-1.322 16.568"/><path fill="#FD6926" d="M450.844 208.993v-66.94c3.296 0 6.25-.166 9.178.034 6.052.414 9.678 3.587 9.946 9.745.48 10.971.45 21.968.49 32.954.031 8.323.134 16.662-.328 24.964-.57 10.223-3.937 13.135-14.098 13.24-1.483.016-2.966.003-5.188.003z"/><path fill="#FD6E2C" d="M1322.493 320.553c11.41.454 14.748 6.607 13.235 21.07-.992 9.488-7.975 13.066-20.283 10.975V320.51c2.17 0 4.4 0 7.048.043"/><path fill="#FD6C29" d="M707.26 141.61c7.599 1.438 9.793 3.6 11.1 10.586.123.655.265 1.308.346 1.968 1.833 14.97-4.548 21.222-20.395 19.653v-32.71c2.996.156 5.764.3 8.95.504"/><path fill="#FD6E2C" d="M1032.157 173c.01-6.828-.188-13.165.08-19.482.334-7.846 3.195-11.48 9.08-12.35 7.061-1.041 11.656 2.282 12.693 9.354.36 2.458.484 4.97.49 7.458.042 16.154.06 32.307-.012 48.46-.013 2.982-.174 6.021-.777 8.928-1.144 5.51-4.712 8.135-10.368 8.127-5.74-.007-9.133-2.56-10.342-8.11a36.3 36.3 0 0 1-.808-7.413c-.082-11.49-.036-22.981-.036-34.972M1300.473 171c.135-7.151-.08-13.834.503-20.447.582-6.605 4.23-9.522 10.563-9.541 6.068-.019 9.469 2.81 10.574 9.04.434 2.445.693 4.954.702 7.435.06 16.487.066 32.975-.004 49.462-.011 2.646-.3 5.325-.79 7.926-1.104 5.849-4.56 8.61-10.433 8.63-5.819.02-9.392-2.804-10.505-8.583-.437-2.271-.573-4.63-.584-6.95-.055-12.156-.026-24.314-.026-36.971"/><path fill="#FD7131" d="M806.71 377.776c-.654-1.039-1.195-2.075-1.05-3.004 1.986-12.757 4.067-25.5 7.086-38.262l6.726 41.317c-4.512 0-8.422 0-12.763-.051M368.055 375.92c-4.446 1.135-8.908 1.821-14.118 2.622l6.897-42.196.91.063c2.098 13.02 4.197 26.04 6.311 39.51M1173.129 179.74a5099 5099 0 0 0 3.038 18.437h-14.256l6.568-40.225 1.122.033a7610 7610 0 0 1 3.528 21.755"/></svg>