<svg xmlns="http://www.w3.org/2000/svg" version="1.1" xmlns:xlink="http://www.w3.org/1999/xlink" width="1000" height="1000"><style>
    #light-icon {
      display: inline;
    }
    #dark-icon {
      display: none;
    }

    @media (prefers-color-scheme: dark) {
      #light-icon {
        display: none;
      }
      #dark-icon {
        display: inline;
      }
    }
  </style><g id="light-icon"><svg xmlns="http://www.w3.org/2000/svg" version="1.1" xmlns:xlink="http://www.w3.org/1999/xlink" width="1000" height="1000"><g><g transform="matrix(1.530221882172915,0,0,1.530221882172915,0,0)"><svg xmlns="http://www.w3.org/2000/svg" version="1.1" xmlns:xlink="http://www.w3.org/1999/xlink" width="653.5" height="653.5"><svg version="1.1" id="Layer_1" xmlns="http://www.w3.org/2000/svg" xmlns:xlink="http://www.w3.org/1999/xlink" x="0px" y="0px" viewBox="0 0 653.5 653.5" style="enable-background:new 0 0 653.5 653.5;" xml:space="preserve">
<style type="text/css">
	.st0{fill-rule:evenodd;clip-rule:evenodd;}
</style>
<g>
	<g>
		<path d="M23.34,326.4c0.15,0,0.46,1.79,0.55,6.16C23.12,328.82,23.12,326.4,23.34,326.4z"></path>
		<path d="M22.94,350.05c0.7,0.58,1.18,4.88,0.94,5.88C23.24,354.78,22.91,352.14,22.94,350.05z"></path>
		<path d="M36.71,360.54c-0.64-1.21-1.09-3.46-1.61-4.79C35.04,355.02,37.22,358.84,36.71,360.54z"></path>
		<path d="M38.62,358.05c0.15,1.33,0.3,2.67,0.45,3.97C38.38,363.3,37.65,356.87,38.62,358.05z"></path>
		<path d="M39.62,354.05c0.48,2.4,1.46,8.64,1.39,10.28C40.07,361.15,39.68,357.93,39.62,354.05z"></path>
		<path d="M50.32,419.43c-0.97,0-1.91-3.03-2.82-5.12C48.47,414.52,49.38,417.64,50.32,419.43z"></path>
		<path d="M52.11,371.4C53.87,374.97,53.36,381.68,52.11,371.4L52.11,371.4z"></path>
		<path d="M50.66,399.02c2.15,5.19,3.12,9.25,4.79,15.07C53.84,411.91,51.75,403.27,50.66,399.02z"></path>
		<path d="M58.9,424.55c-0.88-0.61-1.64-4.67-2.49-6.64C57.27,419.28,58.87,422.7,58.9,424.55z"></path>
		<path d="M62.3,414.82c-0.88,0.09,1.24,4.12-0.36,3.27c-0.67-1.76-0.03-1.73-0.94-3.73c0.36-0.33,0.7,0.58,1.06,0.52
			c-1.06-3.7-2.09-5.61-2.97-8.79c0.33,0.36,0.67,0.7,1.03,0.58c-2.58-3.79-1.91-9.22-4.49-17.89c3.03,8.19,7.73,26.71,10.64,33.72
			C64.91,421.79,63.7,415.18,62.3,414.82z"></path>
		<path d="M70.37,390.95c1.03-0.7,1.43,3.15,2.21,5.49C71.76,395.2,71,392.89,70.37,390.95z"></path>
		<path d="M72.19,384.04c0.73,0.42,0.97,3.94,1.52,5.58C72.67,388.1,72.61,386.56,72.19,384.04z"></path>
		<path d="M74.52,379.37c0.27,1.7,0.82,1.46,1.03,3.46c-0.91-0.61-2.18-5.82-0.49-4.97C75.43,379.34,74.94,379.25,74.52,379.37z"></path>
		<path d="M70.67,351.9l1.09-0.03c-0.33-4.52-1.33-11.77-0.3-14.83c0.36,2.64,0.52,6.82,0.64,10.83c0.06,3.97,0.52,7.76,1.64,9.55
			c-0.18,0.94,0.03,2.61-0.15,3.55c3.37,12.07,4.15,25.68,8.98,37.78c-4.37-4.61-3.85-17.53-7.4-23.74
			c-0.12-0.24-0.24-0.45-0.39-0.67c-0.03-1,0.21-0.21,0.36,0.49c-0.48-2.79-1.15-6.7-1.76-10.79
			C72.79,359.84,71.88,355.51,70.67,351.9z"></path>
		<path d="M74.13,402.08c3.43,8.43,4.94,15.53,9.22,24.59c-1.39-1.88-3.06-5.19-4.52-8.76c-1.27-3.61-2.33-7.49-2.79-10.31
			c-0.39-0.67-0.85-0.58-1.21-1.94C73.76,402.42,72.16,394.99,74.13,402.08z"></path>
		<path d="M83.07,508.33c-1.12-0.91-2.4-2.4-3.34-2.85c-0.61-2.79-4.25-6.03-5.7-9.28C77.37,499.12,78.86,503.69,83.07,508.33z"></path>
		<path d="M84.01,390.62c1.61,3,1.64,7.94,3.4,11.34C85.22,398.87,84.74,393.56,84.01,390.62z"></path>
		<path d="M82.74,399.44c0.88,0.64,3.37,9.58,1.21,3.34c-0.27-0.76-0.39-0.33-0.27,0.06C83.01,402.81,82.71,399.9,82.74,399.44z"></path>
		<path d="M88.65,415.3c-1.27-1.36-2.3-5.15-3.49-7.03C85.56,406.09,87.59,412.85,88.65,415.3z"></path>
		<path d="M91.2,410.97c-1.21-1-2.24-4.91-3.37-7.7C89.05,404.75,90.08,408.48,91.2,410.97z"></path>
		<path d="M94.84,418.52c-0.76-0.82-1.52-2.37-2.24-4.37C93.38,414.39,94.81,417.67,94.84,418.52z"></path>
		<path d="M101.6,446.44c-0.03-0.61,0.21-0.94,0.67-1.06l1.27,2.49C102.96,448.36,102.33,448.14,101.6,446.44z"></path>
		<path d="M128.74,530.83c-3.49-3.27-11.01-9.7-12.34-13.13C119.76,522.55,125.31,526.56,128.74,530.83z"></path>
		<path d="M131.38,496.42c-2.61-3.06-5.03-6.46-7.61-8.88c0.24-0.82,1.85,1.18,3.67,3.46c1.79,2.3,4.03,4.76,5.06,5.19
			c1,1.33,1.64,2.43,2.33,3.58c1.3,1.43,3.18,2.15,4,4.09C136.32,502.48,133.89,499.51,131.38,496.42z"></path>
		<path d="M186.62,502.81c-1.67-0.33-3.7-1.88-6.22-4.31C181.89,498.66,184.35,501.33,186.62,502.81z"></path>
		<path d="M181.83,514.73c0.64-0.27,2.58,1.94,3.76,2.67C184.59,517.16,182.44,515.85,181.83,514.73z"></path>
		<path d="M206.94,518.19c-0.61,0.33-2.64-1.61-3.82-2.18C203.63,515.4,206.45,517.43,206.94,518.19z"></path>
		<path d="M211.21,522.95c-1.15-0.3-4.55-1.76-3.52-2.64C209.49,521.31,210,522.1,211.21,522.95z"></path>
		<path d="M241.81,618.68c-1.15,0.06-2.97-0.27-5-1C237.47,617.25,240.29,617.68,241.81,618.68z"></path>
		<path d="M630.55,327.73c-0.27,6.43-0.24,12.8-0.91,19.16c-0.27,3.18-0.55,6.4-0.85,9.61c-0.39,3.18-0.82,6.43-1.24,9.67
			c-1.46,11.58-2.82,23.59-5.64,35.05c-1.15,4.21-3.28,8.19-4.46,12.37c-0.73,2.79-1.18,5.73-1.82,8.16
			c-3.85,13.89-11.67,31.17-19.74,46.24c-2.73,5.28-5.73,10.28-8.61,15.31c-3.12,4.85-6.03,9.82-9.37,14.59
			c-3.34,4.76-6.61,9.64-10.28,14.37c-1.82,2.4-3.61,4.85-5.52,7.25c-1.94,2.4-3.91,4.82-5.91,7.31
			c-13.1,13.65-27.02,28.41-43.88,41.42c-21.38,16.37-46.3,30.66-72.74,41.27c-14.16,5.7-28.69,10.67-43.48,14.07
			c-14.8,3.46-29.78,5.79-44.6,6.22c-1.09-0.55-2.94-0.82-4.91-1.03c-3.18,0.12-2.27,1.33-5.82,1.24c-2.85,0.27-1.33-0.97-3.27-1.03
			c-12.86,0.33-25.59-0.61-38.09-1.94c-12.46-1.64-24.62-3.76-36.21-6.82c-4.09-0.91,0.09-0.91-2.88-1.79
			c-13.55-2.97-32.54-9.7-48.15-16.28c-6.22-2.7-13.19-6.06-19.04-9.49c-1.58-0.91-1.39-0.06-2.46-0.7
			c-1.88-1.06-0.36-0.91-1.73-1.82c-0.24-0.12-3.49-1.82-4.97-2.82c-14.77-8.98-29.29-17.62-42.45-28.99
			c-2.03-2.52-1.88-2.55-5.61-5.88c-2.85-2.61-2.55-2.03-5.28-3.94c-0.36-0.18-3.52-3.03-4.03-3.49c0.03,0.06,0.06,0.09,0.09,0.15
			c-0.21-0.21-0.24-0.24-0.12-0.18c-0.33-0.52,0.67-0.21,0.3-0.76c-0.88-1.3-3.37-3.58-6.16-6.06c-2.79-2.49-5.7-5.43-7.76-7.64
			c-1.21-1.36-2.46-2.79-3.67-4.31c-1.18-1.55-2.4-3.12-3.64-4.76c-2.46-3.21-5.09-6.52-7.82-9.95c2.91,3.15,5.88,5.67,8.49,7.43
			c2.61,1.73,4.88,2.61,6.7,2.37c-1.85-3.79-5.94-8.07-9.61-12.64c-3.73-4.58-7.46-9.16-8.92-13.07
			c-12.1-14.83-24.44-35.96-32.57-56.28c-0.58-1.61-1.12-2.27-1.67-1.97c-7.28-20.98-15.4-42.69-18.59-67.47
			c4.06,21.98,10.1,43.24,18.35,63.4c8.28,20.16,18.68,39.36,31.81,56.58c1.27,2,3.15,4.82,5.4,8.1c2.24,3.24,5.06,6.82,7.91,10.55
			c2.88,3.73,6.16,7.34,9.16,10.83c3.03,3.46,6.16,6.52,8.73,9.16c6.4,6.25,11.19,7.43,10.4,2.33c-6.97-8.98-14.86-14.89-21.2-23.53
			c-0.36-2.15-0.76-4.49,1.91-3.24c7.61,7.85,15.31,16.62,23.53,24.14c8.01,7.73,16.37,14.31,24.02,18.65
			c1.97,2.4,5.12,3.97,7.91,5.91c1.88,0.64,3.31,0.55,5.03,0.94c-0.18-0.82-1.33-1.97-0.79-2.58c-4.15-2.97-7.94-5.94-11.28-9.22
			c-3.4-3.21-6.58-6.43-9.58-9.85c-1.55-1.67-3.09-3.37-4.64-5.03c-1.55-1.73-3.09-3.46-4.67-5.22c-1.58-1.76-3.27-3.46-5-5.25
			c-1.67-1.79-3.46-3.61-5.34-5.43c-1.03-2.85-2.09-5.73-3.09-8.76c-4.58-4.7-10.61-12.43-16.19-18.8c-1.3-1.52-0.33-1.46-0.55-2.24
			c-12.04-15.65-21.65-31.02-27.08-47.27c6.61,13.34,13.46,27.41,21.83,38.6c1.4,1.76,2.52,2.03,3.79,2.79
			c6.19,10.7,18.47,24.38,28.69,35.23c2.12,0.79,3.97-0.33-0.15-4.58c1.64,0.79,1.97,1.64,3.61,3.49c0.39-0.27,0.18-0.85-0.33-1.58
			c2.73,2.88,4.55,4.34,6.19,5.94c1.7,1.55,3.28,3.21,6.19,5.79c1.27,0.85,2.49,0.3,1.91-0.85c-2.64-1.94-4.64-4.34-6.7-6.55
			c-2.03-2.24-4-4.43-5.97-6.61c-2.43-2.61-4.79-3.76-7.1-6c-1.06-1.15-0.7-1.64-1.85-3.03c-1.06-1.3-3.34-2.7-4.31-3.82
			c-1.24-1.46-1.46-2.4-2.67-4.15c-2.15-3.06-4.91-5.88-7.52-8.85c-2.58-3-5.22-6.03-7.31-9.25c-3.03-5.15-4.55-10.67-8.28-16.34
			c2.82,1.43,4.21,6.09,6.82,9.89c8.25,12.74,20.62,24.93,29.05,34.2c2.09,0.12,0.49-2.24,0.52-3.94c-3-2.85-4.61-5.03-7.1-7.52
			c-1.46-1.33,0.03,1.21-1.33,0.09c-2.85-3.67-5.82-6.94-8.67-10.58c-2.76-3.67-5.88-7.34-8.73-11.92c0.3-1.43-1.12-3.67,1.06-2.94
			c-0.88-1.15-0.79-1.64-1.21-2.46c-1.43-2.43-0.27,0.27-1.33-0.06c0.33-2.43-3.18-4.67-3.06-6.94
			c-8.01-9.92-10.58-20.32-17.86-32.78c4.88,8.13,10.55,19.38,17.01,30.17c1.39,2.3,0.52-0.82,1.64,0.7
			c1.88,3.06,2.3,5.94,4.09,8.64c2.12,3.37,3.73,4.12,5.88,6.85c2.73,3.09,5,7.22,7.88,10.31c2.91,2.94,5.94,4.4,8.19,8.34
			c1.64,0.73,1.73-0.15,4.15,1.94c1.09-0.18-1.12-3.55,0.91-2.33c1.85,1.58-0.52,0.88,0.61,2.03c1.73,1.67,2.94,1.85,4.34,2.55
			c1.58,2.46,3.61,4.58,5.7,6.7c2.06,2.15,4.4,4.09,6.82,6.09c1.61,1.09-1.46-2.55,0.55-1.36c0.67,1.09,2.55,2.97,4.52,4.64
			c2.03,1.64,4.25,2.94,5.4,3.12c4.7,5.09,8.55,6.46,14.16,11.73c2.09,1.52,1-0.97,1.94-0.27c2.3,1,3.88,2.06,5.49,3.24
			c1.55,1.21,3.18,2.49,5.52,3.88c3.06,0.7,8.16,3.34,11.8,5.79c0.88-1.03-2.09-2.58-4.21-4.09c2.03-0.12,5.55,3.43,6.91,4.73
			c13.31,6.03,25.5,8.25,41.3,13.31c2.33,0.85,3.82-0.33,5.67,1.15c0.79,0.15,0.79-0.33,0.18-0.52c4.52,0.79,11.52,3.09,18.38,4.37
			c3.4,0.82,6.76,1.21,9.64,1.39c2.91,0.15,5.34,0.18,6.91-0.49c2.46,0.85-1,0.27,0.33,1.43c3.67-0.94,9.01,1.21,11.49-0.39
			c9.16,0.36,18.32,2.18,25.59,0.18c2.03,0.15,4.7,0.06,5.58,0.76c2-0.39,4.73-1,7.52-1.36c2.79-0.39,5.7-0.36,8.01-0.15
			c28.62-4.52,57.04-13.77,82.78-28.29c25.68-14.46,48.58-34.2,65.62-57.4c9.64-9.85,17.47-24.93,22.92-36.63
			c1.67-3.85,4.76-6.67,5-11.07c3.82-8.19,7.31-17.8,10.28-27.2c1.21-4.79,2.7-9.43,3.4-13.98c0.39-2.24,0.76-4.46,1.12-6.58
			c0.27-2.12,0.39-4.18,0.55-6.13c3.37-11.73,3.21-24.89,3.06-37.75c0.03-2.64,0.03-5.15,0.03-7.61c0.03-2.49,0.09-4.94-0.3-7.43
			c-0.27-1.91-0.97-3.88-1.21-5.97c-0.42-4.12-0.91-8.31-1.09-12.55c-0.42-4.18-0.97-8.4-2-12.4c-1.52-4.79-2.97-8.34-4.28-12.55
			c-3.67-13.83-9.55-31.99-18.74-45.7c-2.46-3.49-3.85-7.61-6.13-10.92c-1.3-1.76-3.15-3.18-4.43-5c-2.12-3.12-4.79-6.64-7.28-10.37
			c-2.73-3.55-5.4-7.22-8.19-9.95c-2.85-2.79-4.94-6.55-7.97-9.58c-1.58-1.61-3.18-3.18-4.79-4.64c-1.7-1.43-3.34-2.82-4.94-4.15
			c-3.12-2.82-6.28-5.22-8.58-8.19c-8.22-4.94-20.26-13.98-30.08-21.13c-0.58-0.12-1.03-0.03-1.46,0.09
			c-7.04-5.37-16.1-7.1-23.41-11.25c-1.33-0.67-1.61,0-2.55-0.18c-3.73-1.97-6.55-2.88-10.55-3.61c-7.31-3.52-14.13-5.28-20.68-6.58
			c-6.55-1.39-12.86-2.27-19.47-4.18c-7.73,1-16.13-1-24.17-0.76c-2.18,0.06-4.4,1.03-6.55,1.09c-2.03,0.09-3.27-0.45-5.22-0.49
			c-1.46-0.03-2.88,0.55-4.67,0.58c-2.43,0-5.06-0.49-7.61-0.39c-2.52,0.15-4.67,0.97-6.91,1.33c-2.7,0.36-5.19-0.21-7.61,0.06
			c-6.49,0.91-11.37,4.91-19.44,4.09c-2.37,0.85-4.79,1.76-7.34,2.61c-2.58,0.88-5.31,1.67-8.04,3c-3.24,1.49-6.43,3.34-8.95,4.46
			c-1.52,0.61-3.49,0.79-5,1.33c-3.82,1.24-7.13,3.67-10.64,5.64c-3.4,2.21-6.88,4.25-10.95,5.52c-2.18,1.88-5,3.61-7.97,5.4
			c-2.88,1.94-6.06,3.73-9.01,5.73c-2.85,2.03-5.67,3.97-7.82,6.06c-2.12,2.15-3.76,4.21-4.46,6.25c1.52,1.49,0.91,3.7-0.79,5.55
			c-1.88,2.03-3.79,1.91-6.82,4c-1.85,1.43-4.97,3.88-7.94,6.7c-2.85,2.91-5.85,5.88-7.25,8.34c-1.12,1.85-1.33,4.52-2.55,6.13
			c-1.33,1.76-3,3.27-4.85,4.76c-1.82,1.55-3.73,3.09-4.91,5.28c-1.64,2.88-1.73,5.97-2.55,7.22c-0.15,0.24-0.27,0.45-0.45,0.67
			c-2.37,3.34-6.73,5.88-8.28,6.16c-1.03,1.39-0.45,1.7-1.49,3.09c-5.09,2.76-12.46,15.89-15.95,24.89
			c-0.52,1.36-1.67,3.61-2.21,4.67c-5.76,11.73-12.34,20.01-17.92,29.05c-0.88-0.06-1.49,0.97-2.21,1.27
			c-1.97,4.49-4.61,7.7-6.37,12.31c-1.79,0.52-2.67,4.43-4.7,4.15c-2.43,2.37-4.21,5.58-6.43,8.64c-1.94,2.67-4.06,6.91-5.85,9.1
			c-3,3.55-6.58,2.4-9.82,7.19c-5.19-1.82-10.98,1-17.77,0.79c-0.52,0.3-0.76,1.43-1.39,1.43c-0.09,0-0.18-0.03-0.3-0.09
			c-2.37-7.64-6.76-4.12-10.07-8.43c-0.88-1.15-1.39-4.79-2.21-6.4c-1.73-3.7-3.97-5.09-5.43-7.07c-0.18-2.7-0.45-5.25-0.76-7.7
			c-0.18-2.43-0.45-4.76-0.76-7c-0.61-4.52-1.43-8.73-2-12.83c-0.61-4.12-1.39-8.25-1.79-12.52c-0.39-4.25-0.64-8.73-0.61-13.68
			c0.03-0.45,0.85-2.85,0.91-4.06c0.21-3.85,0.67-8.52,1.49-13.25c0.85-4.73,1.67-9.64,2.33-14.04c-0.36-3,0.55-6.88,2-11.49
			c1.46-4.61,3.82-9.82,5.97-15.8c1.58-4,2.21-6.06,4.94-11.92c1.82-3.97,3.64-7.7,5.25-11.52c1.61-3.85,3.37-7.55,5.46-11.22
			c2.33-4.15,4.88-7.88,7.7-11.4c2.79-3.52,5.49-7.1,8.46-10.76c2.49-3.09,4.21-7,6.64-9.95c0.03-0.06,0.09-0.09,0.12-0.15
			l0.15-0.15c5.55-6.28,10.49-7.97,15.31-12.04c3.34-4.28,6.58-8.46,11.31-11.58c3.49-0.18,4.09,1.61,9.4-1.67
			c4.76-3.31,7.43-8.28,10.04-12.22c2.67-3.85,5.16-6.7,9.01-5.79c10.43-4.21,24.47-15.43,37.51-21.92
			c9.01-4.7,18.44-8.43,27.38-12.16c9.04-3.73,17.74-8.01,25.83-9.07c3.46-1.91,7-3,10.61-3.73c3.61-0.73,7.25-1.43,11.01-2.18
			c22.1-4.61,44.18-9.95,66.32-8.49c3.24-0.36,6.73-0.73,10.34-0.67c3.58,0,7.28,0.15,10.89,0.39c3.64,0.18,7.19,0.79,10.55,1.24
			c3.34,0.52,6.49,0.91,9.28,1.58c7.4,0.15,14.43,1.24,21.1,2.94c6.7,1.46,13.01,3.61,19.29,4.88c8.31,2.03,15.95,3.15,23.26,5.97
			c2.4,0.88,4.4,2.12,6.79,2.94c7.19,2.79,14.49,4.52,21.62,8.28c6.7,3.27,11.98,7.91,19.71,10.34
			c8.92,5.85,19.95,11.89,30.81,19.44c5.58,3.58,10.89,7.79,16.22,11.92c5.09,4.43,10.28,8.76,14.68,13.68
			c1.24,1.36,1.82,2.49,3.12,3.79c11.98,12.37,24.11,23.08,31.57,36.63c11.74,14.74,24.05,35.48,31.48,53.7
			c8.67,15.65,13.65,33.2,17.74,50.21c2.82,12.8,6.91,26.41,8.4,40.27c0.76,4.91,0.18,9.98,0.67,14.74c0.36,3.58,0.7,7.1,1,10.61
			C630.24,320.55,630.64,324.09,630.55,327.73z"></path>
		<path class="st0" d="M241.81,618.68c-1.15,0.06-2.97-0.27-5-1C237.47,617.25,240.29,617.68,241.81,618.68z"></path>
		<path class="st0" d="M211.21,522.95c-1.15-0.3-4.55-1.76-3.52-2.64C209.49,521.31,210,522.1,211.21,522.95z"></path>
		<path class="st0" d="M206.94,518.19c-0.61,0.33-2.64-1.61-3.82-2.18C203.63,515.4,206.45,517.43,206.94,518.19z"></path>
		<path class="st0" d="M185.59,517.4c-1-0.24-3.15-1.55-3.76-2.67C182.47,514.46,184.41,516.67,185.59,517.4z"></path>
		<path class="st0" d="M186.62,502.81c-1.67-0.33-3.7-1.88-6.22-4.31C181.89,498.66,184.35,501.33,186.62,502.81z"></path>
		<path class="st0" d="M128.74,530.83c-3.49-3.27-11.01-9.7-12.34-13.13C119.76,522.55,125.31,526.56,128.74,530.83z"></path>
		<path class="st0" d="M138.83,503.85c-2.52-1.36-4.94-4.34-7.46-7.43c-2.61-3.06-5.03-6.46-7.61-8.88
			c0.24-0.82,1.85,1.18,3.67,3.46c1.79,2.3,4.03,4.76,5.06,5.19c1,1.33,1.64,2.43,2.33,3.58
			C136.14,501.18,138.02,501.91,138.83,503.85z"></path>
		<path class="st0" d="M103.54,447.87c-0.58,0.49-1.21,0.27-1.94-1.43c-0.03-0.61,0.21-0.94,0.67-1.06L103.54,447.87z"></path>
		<path class="st0" d="M83.34,426.67c-1.39-1.88-3.06-5.19-4.52-8.76c-1.27-3.61-2.33-7.49-2.79-10.31
			c-0.39-0.67-0.85-0.58-1.21-1.94c-1.06-3.24-2.67-10.67-0.7-3.58C77.55,410.51,79.07,417.61,83.34,426.67z"></path>
		<path class="st0" d="M94.84,418.52c-0.76-0.82-1.52-2.37-2.24-4.37C93.38,414.39,94.81,417.67,94.84,418.52z"></path>
		<path class="st0" d="M58.9,424.55c-0.88-0.61-1.64-4.67-2.49-6.64C57.27,419.28,58.87,422.7,58.9,424.55z"></path>
		<path class="st0" d="M88.65,415.3c-1.27-1.36-2.3-5.15-3.49-7.03C85.56,406.09,87.59,412.85,88.65,415.3z"></path>
		<path class="st0" d="M91.2,410.97c-1.21-1-2.24-4.91-3.37-7.7C89.05,404.75,90.08,408.48,91.2,410.97z"></path>
		<path class="st0" d="M50.32,419.43c-0.97,0-1.91-3.03-2.82-5.12C48.47,414.52,49.38,417.64,50.32,419.43z"></path>
		<path class="st0" d="M55.45,414.09c-1.61-2.18-3.7-10.83-4.79-15.07C52.81,404.21,53.78,408.27,55.45,414.09z"></path>
		<path class="st0" d="M87.41,401.96c-2.18-3.09-2.67-8.4-3.4-11.34C85.62,393.62,85.65,398.57,87.41,401.96z"></path>
		<path class="st0" d="M72.58,396.44c-0.82-1.24-1.58-3.55-2.21-5.49C71.4,390.26,71.79,394.11,72.58,396.44z"></path>
		<path class="st0" d="M73.7,389.62c-1.03-1.52-1.09-3.06-1.52-5.58C72.91,384.47,73.16,387.98,73.7,389.62z"></path>
		<path class="st0" d="M75.55,382.83c-0.91-0.61-2.18-5.82-0.49-4.97c0.36,1.49-0.12,1.39-0.55,1.52
			C74.79,381.07,75.34,380.83,75.55,382.83z"></path>
		<path class="st0" d="M52.11,371.4C53.87,374.97,53.36,381.68,52.11,371.4L52.11,371.4z"></path>
		<path class="st0" d="M41.01,364.33c-0.94-3.18-1.33-6.4-1.39-10.28C40.1,356.45,41.07,362.69,41.01,364.33z"></path>
		<path class="st0" d="M39.07,362.03c-0.7,1.27-1.43-5.15-0.45-3.97C38.77,359.39,38.92,360.72,39.07,362.03z"></path>
		<path class="st0" d="M23.88,355.93c-0.64-1.15-0.97-3.79-0.94-5.88C23.64,350.63,24.12,354.93,23.88,355.93z"></path>
		<path class="st0" d="M23.88,332.55c-0.76-3.73-0.76-6.16-0.55-6.16C23.49,326.4,23.79,328.19,23.88,332.55z"></path>
		<path class="st0" d="M83.07,508.33c-1.12-0.91-2.4-2.4-3.34-2.85c-0.61-2.79-4.25-6.03-5.7-9.28
			C77.37,499.12,78.86,503.69,83.07,508.33z"></path>
		<path class="st0" d="M62.3,414.82c-0.88,0.09,1.24,4.12-0.36,3.27c-0.67-1.76-0.03-1.73-0.94-3.73c0.36-0.33,0.7,0.58,1.06,0.52
			c-1.06-3.7-2.09-5.61-2.97-8.79c0.33,0.36,0.67,0.7,1.03,0.58c-2.58-3.79-1.91-9.22-4.49-17.89c3.03,8.19,7.73,26.71,10.64,33.72
			C64.91,421.79,63.7,415.18,62.3,414.82z"></path>
		<path class="st0" d="M83.95,402.78c-0.27-0.76-0.39-0.33-0.27,0.06c-0.67-0.03-0.97-2.94-0.94-3.4
			C83.62,400.08,86.1,409.03,83.95,402.78z"></path>
		<path class="st0" d="M82.56,398.75c-4.37-4.61-3.85-17.53-7.4-23.74c-0.12-0.24-0.24-0.45-0.39-0.67c-0.03-1,0.21-0.21,0.36,0.49
			c-0.48-2.79-1.15-6.7-1.76-10.79c-0.58-4.18-1.49-8.52-2.7-12.13l1.09-0.03c-0.33-4.52-1.33-11.77-0.3-14.83
			c0.36,2.64,0.52,6.82,0.64,10.83c0.06,3.97,0.52,7.76,1.64,9.55c-0.18,0.94,0.03,2.61-0.15,3.55
			C76.95,373.03,77.73,386.65,82.56,398.75z"></path>
		<path class="st0" d="M36.71,360.54c-0.64-1.21-1.09-3.46-1.61-4.79C35.04,355.02,37.22,358.84,36.71,360.54z"></path>
		<path class="st0" d="M630.43,323.14c-0.08-1.24-0.16-2.48-0.28-3.72c-0.08-0.8-0.12-1.64-0.2-2.44c-0.28-3.52-0.64-7-1-10.6
			c-0.04-0.6-0.12-1.2-0.12-1.8c-0.08-1.2-0.08-2.44-0.08-3.68s0-2.44-0.04-3.68c0-0.56,0-1.08-0.04-1.64
			c-0.04-1.32-0.16-2.64-0.36-3.92c-0.36-3.48-0.92-6.92-1.56-10.36c-0.64-3.4-1.36-6.8-2.16-10.2c-1.56-6.72-3.28-13.32-4.68-19.72
			c-4.12-17-9.08-34.56-17.76-50.2c-1.04-2.56-2.2-5.16-3.4-7.8c-0.64-1.32-1.28-2.64-1.92-4c-1.28-2.64-2.68-5.32-4.12-8
			c-0.56-1.08-1.16-2.16-1.76-3.28c-0.32-0.56-0.6-1.08-0.92-1.64c-0.68-1.16-1.32-2.32-2-3.44c-0.68-1.16-1.36-2.32-2.08-3.48
			c-3.04-5.04-6.24-9.88-9.48-14.4c-0.64-0.88-1.28-1.76-1.92-2.64c-0.64-0.88-1.28-1.72-1.96-2.6c-0.64-0.8-1.28-1.64-1.92-2.44
			c-1.16-2.12-2.44-4.16-3.8-6.16c-0.72-1-1.4-2-2.16-2.96c-0.72-0.96-1.48-1.92-2.24-2.88c-0.48-0.6-0.96-1.16-1.48-1.76
			c-0.48-0.6-0.96-1.16-1.48-1.72c-0.96-1.12-1.92-2.2-2.92-3.28c-0.08-0.04-0.12-0.12-0.16-0.16c-1.32-1.44-2.64-2.84-4.04-4.24
			c-1.32-1.4-2.68-2.76-4.08-4.16c-1-1-2-2.04-3.04-3.04c-2.04-2.08-4.12-4.16-6.16-6.28c-1.28-1.28-1.88-2.4-3.12-3.76
			c-4.4-4.92-9.56-9.28-14.68-13.68c-5.32-4.12-10.64-8.36-16.2-11.92c-10.88-7.56-21.92-13.6-30.84-19.44
			c-7.72-2.44-13-7.08-19.68-10.36c-7.12-3.76-14.44-5.48-21.64-8.28c-2.4-0.8-4.4-2.04-6.8-2.92c-7.28-2.84-14.92-3.96-23.24-6
			c-6.28-1.24-12.6-3.4-19.28-4.88c-6.68-1.68-13.72-2.76-21.12-2.92c-2.8-0.68-5.92-1.08-9.28-1.6c-3.36-0.44-6.92-1.04-10.56-1.24
			c-3.6-0.24-7.28-0.36-10.88-0.36c-3.6-0.08-7.08,0.28-10.32,0.64c-22.16-1.44-44.24,3.88-66.32,8.48c-3.76,0.76-7.4,1.48-11,2.2
			c-3.64,0.72-7.16,1.84-10.64,3.72c-8.08,1.08-16.8,5.36-25.84,9.08c-8.92,3.72-18.36,7.44-27.36,12.16
			c-13.04,6.48-27.08,17.72-37.52,21.92c-3.84-0.92-6.32,1.96-9,5.8c-2.6,3.92-5.28,8.92-10.04,12.2c-5.32,3.28-5.92,1.48-9.4,1.68
			c-2.36,1.56-4.36,3.4-6.16,5.36c-0.92,1-1.76,2-2.64,3.08c-0.4,0.52-0.84,1.04-1.24,1.56c-0.44,0.52-0.84,1.04-1.28,1.6
			c-4.8,4.04-9.76,5.76-15.28,12.04l-0.16,0.12c-0.04,0.08-0.08,0.12-0.12,0.16c-2.44,2.96-4.16,6.84-6.64,9.96
			c-1.48,1.8-2.88,3.64-4.32,5.44c-1.4,1.8-2.76,3.56-4.16,5.32c-2.8,3.52-5.36,7.24-7.68,11.4c-2.12,3.68-3.88,7.36-5.48,11.2
			c-1.6,3.84-3.4,7.56-5.24,11.52c-2.72,5.88-3.36,7.92-4.92,11.92c-2.16,6-4.52,11.2-6,15.8c-1.44,4.64-2.36,8.52-2,11.52
			c-0.68,4.4-1.48,9.28-2.32,14.04c-0.2,1.16-0.4,2.36-0.56,3.52c-0.32,2.32-0.56,4.6-0.72,6.68c-0.08,1.08-0.16,2.08-0.2,3.04
			c-0.08,1.2-0.88,3.6-0.92,4.04c-0.04,4.96,0.2,9.44,0.6,13.68c0.4,4.28,1.2,8.4,1.8,12.52c0.56,4.12,1.4,8.32,2,12.84
			c0.32,2.24,0.56,4.6,0.76,7c0.28,2.48,0.56,5,0.76,7.72c1.08,1.48,2.6,2.64,4.04,4.68c0.48,0.68,0.92,1.44,1.36,2.36
			c0.12,0.2,0.2,0.44,0.32,0.68c0.64,1.84,1.16,4.72,1.92,5.72c0.2,0.28,0.4,0.52,0.64,0.72c0.2,0.2,0.44,0.4,0.64,0.56
			c0.24,0.16,0.44,0.32,0.68,0.44c0.2,0.12,0.36,0.2,0.52,0.28c0.16,0.08,0.32,0.16,0.48,0.2c0.36,0.12,0.72,0.24,1.04,0.36
			c0.16,0.04,0.36,0.12,0.52,0.16c0.08,0.04,0.12,0.04,0.2,0.04c0.6,0.2,1.2,0.4,1.8,0.72c0.16,0.08,0.32,0.2,0.48,0.28
			c0.32,0.2,0.6,0.44,0.92,0.76c0.4,0.4,0.8,0.88,1.16,1.52c0.2,0.32,0.36,0.68,0.52,1.08s0.32,0.84,0.44,1.32h0.04
			c0.12,0.08,0.2,0.08,0.28,0.08c0.64,0,0.88-1.12,1.4-1.4c6.8,0.2,12.56-2.6,17.76-0.8c3.24-4.8,6.84-3.64,9.84-7.2
			c0.24-0.28,0.44-0.56,0.68-0.92c0.44-0.64,0.92-1.4,1.44-2.2c0.24-0.4,0.52-0.84,0.76-1.24c0.48-0.8,1-1.68,1.48-2.48
			c0.52-0.8,1-1.56,1.48-2.24c0.56-0.76,1.08-1.56,1.6-2.32c1.04-1.52,2.04-3.04,3.12-4.4c0.56-0.68,1.12-1.32,1.72-1.92
			c2.04,0.28,2.92-3.64,4.68-4.16c0.16-0.44,0.32-0.88,0.52-1.28c0.16-0.4,0.36-0.8,0.56-1.16c0.36-0.8,0.76-1.56,1.2-2.28
			c0.24-0.48,0.52-1,0.84-1.48c0.52-0.96,1.12-1.96,1.68-2.96c0.52-1,1.08-2.04,1.56-3.16h0.04c0.2-0.08,0.36-0.2,0.52-0.32
			c0.16-0.16,0.32-0.32,0.52-0.44c0.16-0.16,0.32-0.28,0.52-0.36c0.08-0.04,0.16-0.08,0.24-0.12c0.12-0.04,0.24-0.04,0.4-0.04
			c5.56-9,12.16-17.28,17.92-29.04c0.08-0.12,0.12-0.28,0.24-0.44c0.16-0.32,0.36-0.72,0.56-1.12c0.28-0.64,0.64-1.32,0.92-1.96
			c0.16-0.4,0.36-0.8,0.48-1.16c1.32-3.4,3.2-7.36,5.24-11.08c0.68-1.28,1.4-2.48,2.16-3.68c0.72-1.2,1.48-2.32,2.2-3.4
			c1.52-2.16,3.08-4.04,4.48-5.32c0.32-0.28,0.64-0.56,0.92-0.76c0.32-0.24,0.64-0.48,0.96-0.64c1.04-1.4,0.44-1.68,1.48-3.08
			c1.56-0.28,5.92-2.84,8.28-6.16c0.12-0.08,0.2-0.2,0.24-0.32c0.08-0.12,0.12-0.24,0.2-0.36c0.08-0.12,0.16-0.24,0.24-0.4
			c0-0.04,0.04-0.12,0.08-0.16c0.08-0.28,0.16-0.56,0.28-0.88c0.04-0.2,0.12-0.44,0.16-0.64c0.12-0.56,0.28-1.2,0.48-1.92
			c0.16-0.52,0.36-1.04,0.56-1.56c0.2-0.56,0.44-1.12,0.76-1.64c0.6-1.08,1.36-2.04,2.24-2.88c0.84-0.84,1.76-1.64,2.68-2.4
			c1.84-1.48,3.52-3,4.84-4.76c0.32-0.4,0.56-0.88,0.76-1.36c0.2-0.52,0.36-1.04,0.56-1.6c0.24-0.84,0.52-1.68,0.84-2.44
			c0.12-0.24,0.24-0.48,0.4-0.72c1.4-2.48,4.4-5.44,7.24-8.36c2.96-2.8,6.08-5.28,7.96-6.68c3-2.12,4.92-2,6.8-4
			c1.72-1.88,2.32-4.08,0.8-5.56c0.68-2.04,2.32-4.08,4.44-6.24c2.16-2.12,5-4.04,7.84-6.08c2.92-2,6.12-3.8,9-5.72
			c2.96-1.8,5.8-3.52,7.96-5.4c4.08-1.28,7.56-3.32,10.96-5.52c3.52-1.96,6.84-4.4,10.64-5.64c1.52-0.56,3.48-0.72,5-1.32
			c2.52-1.12,5.72-3,8.96-4.48c2.72-1.32,5.44-2.12,8.04-3c2.52-0.84,4.96-1.76,7.32-2.6c8.08,0.8,12.96-3.2,19.44-4.08
			c2.44-0.28,4.92,0.28,7.6-0.08c2.24-0.36,4.4-1.16,6.92-1.32c2.56-0.12,5.2,0.4,7.64,0.4c1.76-0.04,3.2-0.64,4.64-0.6
			c1.96,0.04,3.2,0.6,5.24,0.48c2.12-0.04,4.36-1,6.52-1.08c8.04-0.24,16.44,1.76,24.2,0.76c6.6,1.92,12.88,2.8,19.44,4.2
			c6.56,1.28,13.4,3.04,20.68,6.56c4,0.72,6.84,1.64,10.56,3.6c0.96,0.2,1.2-0.48,2.56,0.2c7.28,4.16,16.36,5.88,23.4,11.24
			c0.44-0.12,0.88-0.2,1.44-0.08c9.84,7.16,21.88,16.2,30.08,21.12c0.16,0.2,0.32,0.4,0.48,0.56c0.28,0.36,0.6,0.72,0.92,1.04
			c0.16,0.2,0.32,0.36,0.52,0.52c0.96,1,2.04,1.96,3.12,2.92c1.16,1.04,2.36,2.08,3.56,3.16c1.6,1.32,3.24,2.72,4.92,4.16
			c1.64,1.44,3.24,3.04,4.8,4.64c0.76,0.76,1.48,1.56,2.12,2.4c0.36,0.4,0.68,0.8,1,1.24c0.96,1.24,1.88,2.52,2.84,3.68
			c0.64,0.8,1.32,1.56,2.04,2.24c0.36,0.36,0.68,0.72,1.04,1.08c0.68,0.72,1.36,1.52,2.04,2.36c0.68,0.8,1.36,1.68,2.04,2.52
			c1,1.32,2.04,2.68,3.04,4c1.88,2.8,3.84,5.48,5.6,7.96c0.6,0.8,1.16,1.64,1.68,2.4c1.28,1.84,3.12,3.24,4.44,5
			c2.28,3.32,3.68,7.44,6.12,10.92c0.8,1.2,1.56,2.4,2.28,3.64c0.36,0.56,0.68,1.12,1,1.68c0.68,1.16,1.32,2.32,1.92,3.52
			c4.84,9.24,8.48,19.48,11.24,28.68c0.44,1.44,0.84,2.84,1.2,4.2c0.2,0.68,0.4,1.36,0.56,2.04c0.16,0.68,0.32,1.32,0.52,1.96
			c0.16,0.52,0.32,1.04,0.52,1.56c0.52,1.52,1.04,3,1.56,4.48c0.68,2.04,1.44,4.12,2.2,6.48c0.52,2,0.92,4.04,1.24,6.12
			c0.16,1.04,0.28,2.12,0.44,3.16c0.12,1.04,0.24,2.08,0.32,3.12c0.04,1.08,0.12,2.12,0.2,3.2c0.24,3.16,0.6,6.28,0.92,9.36
			c0.24,2.12,0.92,4.08,1.2,6c0.16,0.84,0.24,1.72,0.28,2.56c0,0.04,0,0.04,0,0.08c0.08,1.56,0.08,3.16,0.04,4.76
			c0,2.48,0,5-0.04,7.64c0.16,12.84,0.28,26-3.08,37.72c-0.16,1.96-0.28,4-0.52,6.16c-0.36,2.12-0.76,4.32-1.12,6.56
			c-0.72,4.56-2.2,9.2-3.4,14c-0.72,2.36-1.52,4.72-2.32,7.08c-0.8,2.32-1.64,4.68-2.52,6.96c-0.84,2.32-1.72,4.56-2.64,6.76
			c-0.92,2.2-1.84,4.36-2.8,6.4c-0.24,4.36-3.36,7.2-5,11.04c-5.48,11.72-13.28,26.8-22.92,36.64
			c-17.08,23.2-39.96,42.92-65.64,57.4c-25.76,14.52-54.16,23.76-82.76,28.28c-2.32-0.2-5.24-0.24-8.04,0.16
			c-2.76,0.36-5.52,0.96-7.52,1.36c-0.88-0.68-3.52-0.6-5.56-0.76c-7.28,2-16.44,0.2-25.6-0.16c-2.48,1.6-7.8-0.56-11.48,0.4
			c-0.48-0.4-0.36-0.6-0.12-0.68c0.08-0.08,0.16-0.12,0.28-0.12c0.04,0,0.08,0,0.12-0.04c0.12,0,0.2-0.04,0.24-0.08
			c0.04,0,0.04,0,0.04-0.04c0,0,0-0.08-0.04-0.12c-0.12-0.08-0.36-0.2-0.88-0.36c-1.56,0.68-4,0.64-6.88,0.48
			c-2.88-0.2-6.28-0.56-9.64-1.4c-6.88-1.28-13.88-3.56-18.4-4.36c0.16,0.04,0.24,0.12,0.32,0.16c0.12,0.08,0.16,0.16,0.12,0.24
			c0,0.04-0.04,0.08-0.08,0.12c-0.08,0.04-0.28,0.04-0.52,0c-1.88-1.48-3.36-0.32-5.68-1.16c-15.8-5.08-28-7.28-41.32-13.32
			c-0.08-0.08-0.16-0.16-0.28-0.24c-0.08-0.12-0.2-0.2-0.32-0.32c-0.2-0.2-0.4-0.4-0.64-0.6c-0.08-0.08-0.16-0.16-0.24-0.24
			c-0.08-0.04-0.16-0.12-0.24-0.24c-0.28-0.28-0.6-0.52-0.92-0.8c-0.28-0.24-0.56-0.44-0.84-0.64l-0.12-0.12
			c-0.24-0.2-0.52-0.36-0.8-0.56s-0.6-0.36-0.88-0.52c-0.24-0.12-0.44-0.2-0.64-0.28c-0.08-0.04-0.16-0.04-0.2-0.04
			c-0.24-0.08-0.44-0.12-0.64-0.12h-0.12c2.12,1.52,5.08,3.08,4.2,4.08c-3.64-2.44-8.72-5.08-11.8-5.76
			c-2.32-1.4-3.96-2.68-5.52-3.88c-1.6-1.2-3.2-2.28-5.48-3.28c-0.2-0.12-0.32-0.16-0.36-0.08c-0.04,0.04-0.04,0.08-0.04,0.12
			c-0.04,0.04-0.04,0.08-0.04,0.12c-0.08,0.2-0.12,0.48-0.28,0.6c-0.08,0.04-0.28,0.04-0.56-0.08c-0.16-0.08-0.36-0.2-0.64-0.4
			h-0.04c-0.64-0.6-1.28-1.16-1.88-1.68c-0.64-0.52-1.2-1-1.8-1.48c-0.36-0.28-0.76-0.56-1.12-0.88c-2.96-2.2-5.56-3.84-8.44-6.76
			c-0.32-0.28-0.6-0.6-0.92-0.92c-1.12-0.2-3.36-1.48-5.4-3.12c-0.96-0.84-1.92-1.72-2.72-2.56c-0.24-0.2-0.4-0.4-0.6-0.6
			c-0.36-0.36-0.64-0.72-0.88-1.04c-0.12-0.16-0.24-0.32-0.32-0.44c-0.28-0.16-0.48-0.24-0.56-0.24s-0.12,0.04-0.12,0.12
			s0,0.24,0.08,0.36c0.04,0.16,0.12,0.32,0.24,0.48c0.16,0.32,0.32,0.6,0.32,0.76c0,0.12-0.12,0.12-0.48-0.12
			c-2.44-2-4.76-3.96-6.84-6.08c-2.08-2.16-4.12-4.28-5.68-6.72c-1.4-0.68-2.64-0.88-4.36-2.56c-0.32-0.32-0.36-0.52-0.24-0.64
			c0.08-0.12,0.24-0.16,0.32-0.28s0.08-0.24-0.08-0.48c-0.12-0.16-0.28-0.36-0.6-0.6c-0.92-0.56-0.96-0.2-0.84,0.44
			c0.04,0.2,0.12,0.44,0.16,0.64c0.08,0.44,0.16,0.84,0,1.08c-0.04,0.08-0.12,0.12-0.24,0.16c-2.4-2.08-2.52-1.2-4.12-1.96
			c-0.28-0.48-0.6-0.96-0.88-1.36c-0.6-0.84-1.28-1.56-1.96-2.24c-1.68-1.64-3.52-2.88-5.36-4.72c-2.88-3.08-5.16-7.2-7.88-10.32
			c-2.16-2.72-3.76-3.48-5.88-6.84c-0.68-1-1.16-2.08-1.6-3.12c-0.44-1.08-0.84-2.16-1.32-3.28c-0.36-0.72-0.72-1.48-1.2-2.24
			c-0.12-0.16-0.2-0.28-0.28-0.36c-0.52-0.4-0.32,0.76-0.72,0.48c-0.12-0.08-0.32-0.32-0.64-0.84c-0.8-1.36-1.6-2.68-2.36-4.04
			c-5.48-9.48-10.36-19-14.64-26.12c7.28,12.48,9.88,22.88,17.88,32.8c-0.12,2.24,3.4,4.52,3.04,6.92c1.08,0.36-0.08-2.36,1.36,0.08
			c0.4,0.8,0.32,1.28,1.2,2.44c-1.48-0.48-1.32,0.36-1.12,1.44c0.04,0.36,0.12,0.72,0.12,1.08c0,0.16-0.04,0.32-0.08,0.44
			c0.72,1.16,1.44,2.24,2.2,3.28c0.4,0.6,0.84,1.16,1.24,1.72c0.68,0.92,1.4,1.84,2.08,2.72c0.56,0.72,1.08,1.4,1.64,2.12
			c0.56,0.68,1.08,1.4,1.6,2.08c1.44,1.8,2.88,3.56,4.32,5.28s2.88,3.44,4.32,5.28h0.04c0.28,0.24,0.44,0.32,0.52,0.28
			c0.16-0.04,0.08-0.36,0.12-0.56c-0.04-0.08,0-0.12,0.04-0.16c0.04-0.08,0.24,0,0.64,0.36c2.48,2.48,4.08,4.68,7.08,7.52
			c0,0.52,0.12,1.12,0.28,1.68c0.2,0.76,0.44,1.48,0.16,1.92c0,0.04-0.08,0.12-0.12,0.16c-0.04,0.04-0.12,0.08-0.2,0.12
			c-0.16,0.04-0.36,0.04-0.6,0.04h-0.04c-3.16-3.48-6.88-7.36-10.68-11.52c-1.28-1.4-2.6-2.84-3.88-4.28
			c-1.28-1.44-2.6-2.92-3.88-4.44c-1.28-1.48-2.52-3-3.76-4.52c-2.44-3.08-4.76-6.24-6.84-9.44c-2.6-3.76-4-8.44-6.8-9.88
			c1.84,2.84,3.16,5.64,4.4,8.36c1.2,2.76,2.32,5.44,3.84,8c0.52,0.8,1.08,1.6,1.68,2.36c1.16,1.56,2.44,3.12,3.72,4.64
			c0.64,0.72,1.28,1.48,1.92,2.24c2.6,2.96,5.36,5.8,7.52,8.84c1.24,1.76,1.44,2.72,2.68,4.16c0.96,1.12,3.24,2.52,4.32,3.84
			c0.16,0.16,0.24,0.32,0.36,0.48c0.2,0.32,0.36,0.56,0.44,0.8c0.12,0.24,0.2,0.44,0.28,0.64c0.12,0.24,0.24,0.44,0.4,0.68
			c0.12,0.12,0.24,0.28,0.36,0.4c2.28,2.28,4.68,3.4,7.08,6.04c1.96,2.16,3.96,4.36,6,6.6c2.04,2.2,4.04,4.6,6.68,6.56
			c0.56,1.12-0.64,1.68-1.92,0.84c-2.88-2.6-4.48-4.24-6.16-5.8c-1.64-1.6-3.48-3.08-6.2-5.96c0.16,0.24,0.28,0.44,0.36,0.64
			l0.04,0.04c0.16,0.4,0.2,0.68-0.08,0.88c-0.44-0.44-0.72-0.8-1-1.16l-0.04-0.04c-0.28-0.36-0.52-0.64-0.76-0.92
			c-0.48-0.52-0.96-0.96-1.8-1.32c4.12,4.24,2.28,5.36,0.16,4.56c-2.4-2.52-4.92-5.24-7.44-8.04c-1.48-1.64-3-3.32-4.48-5.04
			c-2.68-3.04-5.28-6.12-7.64-9.16c-1.24-1.52-2.4-3.04-3.44-4.52c-0.88-1.16-1.72-2.32-2.44-3.44c-0.36-0.48-0.72-1-1.04-1.52
			c-0.36-0.48-0.68-0.96-0.96-1.48c-0.44-0.68-0.84-1.36-1.24-2.04c-1.28-0.76-2.4-1-3.8-2.76c-1.04-1.4-2.08-2.84-3.08-4.32
			c-2-2.96-3.92-6.08-5.76-9.32c-0.92-1.6-1.84-3.24-2.72-4.88c-1.8-3.28-3.56-6.64-5.24-10c-1.72-3.36-3.4-6.76-5.04-10.08
			c5.44,16.24,15.04,31.6,27.08,47.24c0.04,0.08,0.04,0.16,0.04,0.24c0,0.36-0.28,0.56-0.12,1c0.04,0.24,0.24,0.56,0.64,1
			c5.56,6.4,11.6,14.12,16.2,18.8c1,3.04,2.04,5.92,3.08,8.8c0.96,0.92,1.84,1.8,2.76,2.68c0.88,0.92,1.72,1.84,2.56,2.72
			c1.76,1.8,3.44,3.48,5,5.24c1.6,1.76,3.16,3.52,4.68,5.24c1.56,1.64,3.12,3.36,4.64,5.04c3,3.4,6.2,6.64,9.6,9.84
			c3.32,3.28,7.12,6.24,11.28,9.2c-0.24,0.24-0.16,0.56-0.04,0.92c0.12,0.28,0.32,0.56,0.48,0.84c0.08,0.16,0.12,0.28,0.2,0.44
			c0.04,0.04,0.04,0.12,0.08,0.2s0.04,0.16,0.04,0.2c-1.72-0.4-3.12-0.32-5-0.96c-2.8-1.92-5.96-3.52-7.92-5.88
			c-7.64-4.36-16.04-10.92-24.04-18.68c-2.04-1.88-4.04-3.8-6.04-5.84c-1-0.96-2-2-3-3.04c-1-1-1.96-2.04-2.92-3.08
			c-1-1.04-1.96-2.04-2.92-3.08c-1-1.04-1.96-2.08-2.88-3.08c-1.96-2.04-3.88-4.04-5.76-6c-0.84-0.4-1.36-0.44-1.68-0.24
			c-0.12,0.08-0.2,0.16-0.28,0.28c-0.28,0.48-0.24,1.2-0.12,2.04c0.04,0.4,0.08,0.8,0.16,1.16c0.8,1.08,1.64,2.12,2.48,3.12
			c0.84,1,1.68,2,2.56,2.92c0.88,0.96,1.76,1.92,2.64,2.84c1.8,1.84,3.6,3.68,5.44,5.52c2.72,2.84,5.48,5.76,8.08,9.12
			c0.8,5.12-4,3.92-10.4-2.32c-2.56-2.64-5.68-5.72-8.72-9.16c-3-3.48-6.28-7.08-9.16-10.84c-2.84-3.72-5.68-7.28-7.92-10.52
			c-2.24-3.28-4.12-6.12-5.4-8.12c-13.12-17.2-23.52-36.4-31.8-56.56c-0.76-1.88-1.52-3.8-2.24-5.72c-0.56-1.4-1.08-2.8-1.56-4.2
			c-0.08-0.2-0.16-0.4-0.24-0.6c-0.64-1.6-1.2-3.2-1.72-4.84c-0.92-2.56-1.76-5.16-2.6-7.8c-1.64-5.24-3.16-10.52-4.56-15.88
			c-1.4-5.32-2.68-10.72-3.8-16.2c-0.56-2.44-1-4.92-1.48-7.4c0-0.04,0-0.04,0-0.08c-0.04-0.04-0.04-0.04-0.04-0.08
			c-0.04-0.2-0.08-0.44-0.12-0.64c0.4,3.08,0.88,6.16,1.44,9.16c0.24,1.28,0.48,2.56,0.72,3.8c0.24,1.28,0.52,2.52,0.8,3.76
			c0.64,2.96,1.32,5.88,2.08,8.72c0.48,1.88,1,3.72,1.48,5.52c0.44,1.56,0.92,3.12,1.36,4.64c0.72,2.28,1.4,4.52,2.16,6.76
			c0.16,0.56,0.32,1.12,0.52,1.68c0.84,2.52,1.68,5.04,2.52,7.52c1.84,5.4,3.72,10.68,5.52,15.92c0.56-0.28,1.08,0.36,1.68,1.96
			c2.04,5.08,4.32,10.2,6.8,15.28c1.4,2.88,2.88,5.72,4.4,8.52c1.16,2.12,2.32,4.2,3.48,6.24c1.44,2.48,2.92,4.92,4.4,7.28
			c0.76,1.2,1.52,2.4,2.28,3.56c0.72,1.08,1.44,2.16,2.16,3.2c0.72,1.12,1.48,2.2,2.24,3.24c0.76,1.08,1.52,2.12,2.28,3.12
			c0.48,0.68,0.96,1.32,1.44,1.96c0.48,0.6,0.92,1.16,1.4,1.76c0.56,0.72,1.12,1.44,1.68,2.12c1.44,3.92,5.16,8.52,8.92,13.08
			c0.44,0.56,0.92,1.16,1.4,1.72c0.92,1.12,1.88,2.2,2.76,3.28c2.24,2.72,4.28,5.28,5.44,7.64c-1.8,0.24-4.08-0.64-6.68-2.36
			c-2.64-1.76-5.6-4.28-8.52-7.44c2.72,3.44,5.36,6.76,7.84,9.96c1.24,1.64,2.44,3.2,3.64,4.76c1.2,1.52,2.44,2.96,3.68,4.32
			c2.04,2.2,4.96,5.16,7.76,7.64c1.4,1.24,2.68,2.44,3.76,3.48c0.28,0.24,0.52,0.52,0.76,0.76c0.24,0.2,0.48,0.44,0.68,0.68
			c0.36,0.4,0.68,0.8,0.92,1.12c0.08,0.08,0.08,0.16,0.08,0.24c0,0.04,0,0.08-0.08,0.08c-0.04,0.04-0.08,0.04-0.12,0.08
			c-0.04,0-0.12,0.04-0.16,0.08c-0.04,0-0.04,0.04-0.04,0.08c0,0.08,0,0.12,0.04,0.2c-0.12-0.04-0.08,0,0.12,0.2
			c-0.04-0.08-0.08-0.08-0.08-0.16c0.52,0.44,3.64,3.32,4,3.48c2.76,1.92,2.44,1.36,5.28,3.96c3.76,3.32,3.6,3.36,5.64,5.88
			c13.16,11.36,27.68,20,42.44,29c1.48,1,4.72,2.68,4.96,2.8c0.16,0.12,0.28,0.2,0.4,0.28c0.16,0.16,0.24,0.28,0.24,0.4
			c0.04,0.04,0.04,0.12,0.08,0.2c-0.04,0.04,0,0.08,0.04,0.16c0,0.04,0.04,0.12,0.12,0.2c0.16,0.16,0.4,0.36,0.84,0.6
			c1.08,0.6,0.88-0.24,2.48,0.68c5.84,3.44,12.84,6.8,19.04,9.48c15.6,6.6,34.6,13.32,48.16,16.28c1.16,0.36,1.2,0.56,1.12,0.72
			c-0.08,0.12-0.24,0.28-0.12,0.4c-0.04,0.04,0,0.04,0.04,0.08c0.2,0.16,0.72,0.36,1.84,0.6c11.56,3.08,23.72,5.2,36.2,6.84
			c12.48,1.32,25.24,2.24,38.08,1.92c1.96,0.08,0.44,1.32,3.28,1.04c3.56,0.08,2.64-1.12,5.8-1.24c2,0.2,3.84,0.48,4.92,1.04
			c14.84-0.44,29.8-2.76,44.6-6.24c14.8-3.4,29.32-8.36,43.48-14.08h0.04c3.28-1.32,6.56-2.72,9.8-4.12c0.04,0,0.04,0,0.04,0
			c3.24-1.48,6.44-2.96,9.64-4.48h0.04c2.4-1.16,4.76-2.36,7.08-3.56c1.76-0.92,3.52-1.84,5.28-2.8c2.16-1.16,4.28-2.32,6.4-3.52
			c3.04-1.72,6.08-3.52,9.04-5.32c2.2-1.36,4.4-2.76,6.56-4.16c4.28-2.8,8.48-5.64,12.52-8.6c2.16-1.52,4.24-3.08,6.32-4.68
			c16.88-13,30.76-27.8,43.88-41.44c2-2.48,3.96-4.92,5.92-7.28c1.92-2.4,3.68-4.88,5.52-7.28c0.92-1.16,1.8-2.36,2.68-3.56
			c1.32-1.8,2.56-3.6,3.84-5.4c1.24-1.8,2.52-3.64,3.76-5.4c3.32-4.76,6.24-9.72,9.36-14.6c2.88-5,5.88-10.04,8.6-15.28
			c2-3.8,4-7.68,5.96-11.64c1.64-3.4,3.28-6.84,4.8-10.28c0.24-0.56,0.48-1.12,0.72-1.64c0.68-1.6,1.36-3.2,2-4.8
			c0.92-2.24,1.76-4.4,2.56-6.56c0.4-1.08,0.8-2.16,1.16-3.2c0.64-1.88,1.24-3.72,1.8-5.48c0.28-0.88,0.52-1.76,0.76-2.64
			c0.64-2.44,1.08-5.4,1.8-8.16c1.2-4.2,3.32-8.16,4.48-12.4c2.8-11.44,4.16-23.44,5.64-35.04c0.4-3.24,0.84-6.48,1.24-9.68
			c0.28-3.2,0.56-6.44,0.84-9.6c0.68-6.36,0.64-12.76,0.92-19.16v-1.92C630.55,324.9,630.51,324.06,630.43,323.14z M155.87,503.94
			c-2.12-1.84-4.64-4.2-7-6.36c-2.4-2.16-4.52-4.32-5.48-6.24c-0.68-0.84-0.48,1.76-1.92,0.64c-1.08-2.28-2.64-4.72-5.24-8
			c1.48-1.56,5.88,5.52,7.6,4.48c1.96,2.48,2.84,3.8,4.6,4.12c3.96,5.12,5.84,5.32,8.8,9.24
			C155.39,501.86,157.19,503.14,155.87,503.94z M157.27,504.5c0.32-0.12,0.24-0.4-0.08-0.84
			C159.15,503.74,160.11,507.3,157.27,504.5z"></path>
	</g>
	<g>
		<path d="M393.39,279.67c-0.06,0.67-0.36,1.12-0.55,0.52C392.94,279.79,393.15,279.7,393.39,279.67z"></path>
		<path d="M401.98,356.27c-0.3,0.12-0.42-0.24-0.64-0.33C401.49,355.6,402.04,354.96,401.98,356.27z"></path>
		<path d="M402.88,357.42c0,0.79-0.52,0.61-0.64,0.21C402.28,357.02,402.7,357.57,402.88,357.42z"></path>
		<path d="M405.49,345.89c-0.03,0.61-0.45,0.06-0.64,0.21C404.98,345.68,405.34,345.38,405.49,345.89z"></path>
		<path d="M407.16,357.48c-0.18,0.85-0.73,0.58-1.12,0.73C406.25,357.51,406.64,357.27,407.16,357.48z"></path>
		<path d="M411.41,298.83c-0.7-0.79-1.49,0.52-2.15-0.15C409.83,298.62,410.98,297.56,411.41,298.83z"></path>
		<path d="M413.68,323.88c0.12,1.33-1.33,0.15-1.61,1.24c-0.21-0.12-0.36-0.36-0.55-0.61c-0.24,0.09-0.48,1-0.73,0.21
			C411.5,323.12,412.77,324.91,413.68,323.88z"></path>
		<path d="M416.32,278.49c-0.49,1.21-1-0.33-1.67,0.42c0.15-0.36,0.36-0.55,0.45-1.06C415.41,278.94,415.92,277.97,416.32,278.49z"></path>
		<path d="M419.83,328.73c-0.12-0.03-0.24-0.03-0.36-0.03c-0.03-0.73,0.03-1.18,0.27-1.06
			C419.83,327.88,419.87,328.25,419.83,328.73z"></path>
		<path d="M424.17,332.61c-0.09,0.67-0.55,0.79-0.67,0.49C423.66,332.7,423.87,332.55,424.17,332.61z"></path>
		<path d="M425.75,331.64c-0.24,0.67-0.76,0.45-1.12,0.73C424.81,331.55,425.35,331.79,425.75,331.64z"></path>
		<path d="M425.23,297.2c-0.18,0.36-0.64,0.79-0.85,0.21C424.5,296.8,424.96,297.35,425.23,297.2z"></path>
		<path d="M425.23,327.52c0.24,1.06-0.67,0.88-1.03,1C424.41,327.82,424.93,328.03,425.23,327.52z"></path>
		<path d="M425.93,289.89c-0.03,0.85-0.42,0.73-0.64,1.03C425.32,290.01,425.69,290.1,425.93,289.89z"></path>
		<path d="M426.45,327.88c-0.12,0.76-1.36,0.33-0.49,0.24c0.12-0.06,0.06-0.27,0-0.27C425.99,327.22,426.38,327.73,426.45,327.88z"></path>
		<path d="M426.41,318.88c-1.15,0.85-2.06,0-3.34,0.55c0.58-1.21,1.88-1.3,2.61-0.33c0.09-0.18,0.09-0.64,0.27-0.52
			C426.38,318.42,427.35,318.91,426.41,318.88z"></path>
		<path d="M427.54,297.14c-0.64,0.61-1.15,0.55-1.85,0.39C425.99,296.74,427.02,296.98,427.54,297.14z"></path>
		<path d="M427.51,331.52c-0.42,0.73-1.06-0.61-1.58,0.15C426.41,330.4,427.11,331.4,427.51,331.52z"></path>
		<path d="M427.9,318.18c0.06,1.18-0.42,0.7-0.73,0.76C427.35,318.45,427.66,318.39,427.9,318.18z"></path>
		<path d="M428.6,304.29c-1.06,1.58-3.37,0.39-4.28,0.76c0.12-1.06,0.94-0.09,1.03-1.27c0.03-0.88-0.52-0.15-0.36-1.39
			c0.24-0.09,0.21,0.52,0.45,0.3c0.03,0.45-0.09,0.45-0.09,0.82c0.45,0.21,0.73-0.21,1.12-0.18c-0.06,0.21-0.12,0.42-0.12,0.79
			C426.9,302.65,427.51,304.99,428.6,304.29z"></path>
		<path d="M428.72,321.52c-0.09,0.61-0.52,0.06-0.76,0.21C428.2,321.06,428.39,321.36,428.72,321.52z"></path>
		<path d="M429.42,325.67c-0.21,0.09-0.18-0.42-0.18-0.85c-0.21-0.12-0.21,0.49-0.45,0.24
			C428.87,324.34,429.57,324.21,429.42,325.67z"></path>
		<path d="M429.81,326.25c0-0.09,0.03-0.18,0.06-0.27C429.99,326.09,429.9,326.22,429.81,326.25z"></path>
		<path d="M423.41,332.55c-1.24,1.7-2.94,2.03-4.64,2.37c-0.36,0.06,0.06,0.85-0.21,1.09c-0.48,0.06-0.85-0.91-1.27-0.94
			c-0.55,0-0.76,0.94-1.21,1.27c-0.58,0.39-1.21-0.06-1.79,0.39c-0.55,0.45-0.97,2-1.58,1.24c-0.21,0.76-0.12,1.43-0.58,1.88
			c-0.06,0.94,0.48,1.49,0.18,2.18c-0.33,0.39-0.06-0.91-0.27-0.82c-0.33,0.18-0.49,0.97-0.67,1.58c-0.82-0.85-1.64-0.33-2.52,0.06
			c-0.27,0.33,0.39,0.85,0.09,1.39c-0.36-0.7-1.49-0.3-1.79,0.94c-0.97-0.67-1.49,0.49-2.58-0.21c-0.36-0.03-0.03,1.36-0.21,1.36
			c-0.67,0.97-1.09,0.27-1.85,0.39c-0.42,1.06-1.24,1.64-1.85,1.21c-0.06,1.33,0.42,1.24,0.82,1.43c-0.24,1.18-0.94-0.18-1.21-0.64
			c-2.09,1.15-3.82,4.34-6.25,4.7c-0.36-0.06-0.52,1.55-0.85,0.76c-0.12,0.06-0.09,0.52,0,0.55c-1.33,0.88-4.34-0.64-5.22,2.58
			c-0.39-0.55,0.12-0.39-0.09-1.36c-0.52,1.33-1.33,0-1.67,1.79c-1.36,0.42-2.73-1.03-3.82,0.79c-0.3-0.24-0.7-0.18-0.82-0.91
			c-0.61,0.79-1.67,1.52-2.33,0.36c-8.64,3-17.74,1.85-26.47,4.49c-2.06-1.18-4.61,0.52-6.58,1.09c-0.64,0.21-1.24-1.09-1.85,0.42
			c-2.79,0.27-6.28-0.3-8.64,1.49c-1.88-1.27-3.88,0.24-5.85,0.36c-0.82,0.06-1.55-0.49-2.3-0.18c-0.3,0.12-0.64,0.67-0.94,0.76
			c-1.27,0.33-2.61-1.12-3.88-0.61c-0.79,0.33-1.36,1.21-2.06,1.21c-2.24,0-5.16-1.06-7.7,0.49c-0.67,0.39-1.33-0.39-1.94-0.15
			c-0.33,0.12-0.7,0.91-1.03,1c-1.18,0.36-2.76-0.33-4,0.24c-0.61,0.3-1.27-0.45-1.94-0.42c-1.4,0.03-2.73,1.61-3.88,0.24
			c-1.49,1.58-3.88,1.39-5.76,0.09c-0.09,0.18-0.15,0.49-0.18,0.79c-1.36-0.97-2.76,1.3-4.09,0.52c-0.24-0.09-0.24,0.58-0.36,0.79
			c-0.67-0.55-1.15-0.15-1.79,0.39c-2.55-1.82-4.4,0.91-6.55-0.79c-1.21,2.03-2.58,0.91-3.82,1.33c-0.36,0.12-0.7,1.15-1.03,1.27
			c-0.33,0.12-0.52-0.52-0.85-0.61c-0.21-0.06-0.45,0.49-0.73,0.49c-0.39,0.03-0.82-0.85-1.21-0.91c-0.39-0.06-0.76,0.73-1.12,0.73
			c-0.42,0-0.79-0.85-1.18-0.91c-1.03-0.12-1.94,3.03-3.15,0.3c-0.79,0.73-1.64,0.58-2.61,1.15c-0.58,0.33-1.15,1.21-1.58,1.24
			c-0.27,0.03-0.58-0.55-0.85-0.61c-1.27-0.3-2.55,2.43-3.88,0.79c-1.85,2-4.88-1.55-6.06,3.06c0.03,2.09-0.27,3.52-0.7,3.76
			c-0.45,0.27-0.67-1.03-1.27-1.46c-0.76-0.55-2.61-1.21-3.52-0.27c-0.36,0.33-0.7,1.94-1.03,2.09c-0.76,0.36-1.52-2-2.3-1.55
			c-0.55,0.3-1,2.06-1.24,2.09h-0.03c-0.73,0-1.52-2.43-1.7-3.7c-0.27-0.21-0.27,0.45-0.55,0.24c-0.82-2.73-3.24-3.46-4.79-3.4
			c-0.24,0.03-0.64-0.21-0.85-0.33c-2.09-1.33-3.64-5.64-5.19-9.13c-0.03-0.85-0.18-1.27-0.27-1.94c-0.73-1.24-1.27-3-2-4.25
			c-0.12-1.73-0.7-2.12-0.7-4.15c-0.39-2.03-0.88-3.58-1.33-5.58c-0.42-1.76-1.03-3.46-1.33-5.28c-0.52-2.94-0.39-6.55-1.03-9.64
			c0.21-5.28-0.15-10.98-0.12-17.77c-0.06-0.52-0.18-0.76-0.18-1.43v-0.21c0.97-2.58,0.52-6.88,1.03-10.31
			c0.12-0.91,0.58-1.49,0.76-2.4c0.42-2,0.58-4.34,0.79-5.94c2.55-3.09,3.85-10.19,5.97-14.52c0.06-0.12,0.33,0.03,0.48-0.24
			c0.85-1.73,2.03-2.82,3-4.67c0.61-2.82,1.73-2.3,3.09-3.31c0.45-0.36,0.7-0.76,1.39-1c0.94-0.3,1.79-1.76,2.7-2.24
			c1.03-0.55,1.94,0.52,2.97,0.52c0.42,0,0.91-1,1.3-1c0.91,0.03,1.43,2.85,2.12,3.46c0.58-0.49,1.15-1.06,1.76-0.12
			c0.27,2.24,0.18,3.97,0.88,5.25c1.27,1.24,2.33-7.88,2.88-1.7c1.21,3,3.18,1.82,4.79,2.3c1.12,0.33,2.24,1.18,3.34,1.36
			c1.09,0.15,2.15-0.7,3.06,0.79c0.85-1.3,1.64,0.15,2.49,0.45c2.55,0.94,5.03-1.46,7.52,0.61c1.46-1.3,3.34-0.12,4.61,0.91
			c1.67-1.46,3.18,0.88,4.64,0.64c0.97-0.18,1.82-1.09,2.7-0.88c0.27,0.06,0.55,0.61,0.82,0.61c0.88-0.03,1.7-0.97,2.61-0.61
			c0.82,0.3,1.61,1.88,2.49,0.45c2.4,1.43,5.67-1.49,8.64,0.12c0.21,0.12,0.33,0.55,0.55,0.61c1.94,0.49,3.73-1.73,5.46,0.42
			c2.12-0.49,4.82-0.42,7.04,0.3c2.03-1.33,4.06-0.15,6.03,0.18c1.49,0.24,3.09-0.94,4.64-1c0.58,0,1.12,0.73,1.67,0.7
			c0.82-0.09,1.61-0.97,2.43-0.91c1.46,0.09,2.88,0.27,4.37,0.33c1.3,0.06,2.67-1.06,3.97-1.03c0.52,0,1,0.94,1.49,0.94
			c0.33-0.03,0.67-0.64,0.94-0.76c1.61-0.64,3.73,0,5.64-0.09c2.67-0.15,5.15-0.09,8-1.03c2.12,0.79,4.4-0.36,6.76-0.55
			c3-0.21,6.19-0.18,9.37-0.64c3.4-0.45,6.82-1.55,10.13-0.55c0.12,0.64,0.3,1.03,0.55,1.39c0.33,0.09,0.24-1.24,0.64-1.03
			c0.33-0.18,0.15,1.03,0.36,1.12c2.88,0.27,5.73,0.82,8.43,1.49c0.49-0.03,0,0.91,0.36,1.12c1.55-0.15,3.82,0.61,5.73,0.45
			c0.79-0.06,1.64,0.21,2.43,0.45c0.18,0.06,0.12-0.58,0.27-0.52c0.24,0.09,0.09,0.64,0.27,0.82c0.03,0.03,0.45,0,0.64,0.06
			c1.97,0.67,3.88-0.3,5.85,0.18c0.36,0.73,0.33,0.79,0.91,0.91c0.45,0.09,0.36-0.15,0.76-0.49c0.06-0.06,0.45-0.12,0.58-0.21
			c0.12,0.12-0.03,0.64,0.06,0.79c0.36,0.7,1.55-0.24,2.21-0.09c0.85,0.21,1.79,1.21,2.79,1.03c-0.97,0.79-1.76,2.21-2,5.31
			c0.94,2,2.76-0.3,3.7,1.67c2.24-1.06,5.06-1.09,7.61-0.76c0.21,0.06,0.3-0.21,0.27-0.82c2.61,1.21,5.28-0.52,8.16,0.12
			c-5.19,1.49-10.22,0.7-15.31,2.61c-1.12-0.45-4.09-0.76-5.82-0.45c-1.06,0.18-1.58,2.43-1.09,5.64c1.36,1.7,2.52-0.21,3.79,0.58
			c0.24,1.15,0.49,2.18,0.15,3.55c-2.64,1.43-5.67-0.33-7.79,2.12c-0.36-0.61-0.79-0.15-1.21-0.09c-0.24,0.58-0.36,1.46-0.58,2.12
			c0.09,0.58,0.27,0.85,0.27,1.67c2.52,0,4.46,4.82,7.1,3.85c0.36,1.24,0.73,2.46,1.09,3.61c0.82-0.27,2.09-0.06,3.15-0.82
			c0.24-0.18,0.18,0.58,0.27,0.82c2.52-0.64,4.79-1.61,6.94,0c-1.88,0.67-3.88-0.03-5.64,0.67c-0.3,0.24-0.39,1-0.58,1.58
			c-1.58-0.79-3.94,0.18-5.85-0.18c-0.27,0.97-0.33,3.09,0.45,3.03c-0.24,0.64-0.33,0.3-0.67,0.21c0,0.49,0.06,0.73,0.18,0.85
			c-1.03,0.09-1.21,0.18-2.21,0.09c-0.21,0.21-0.27,1.43-0.12,1.91c0.85-0.33,1.61,0.67,2.4,0.73c0.48,0.03,0.79-0.88,1.21-1
			c0.21-0.06,0.21,0.55,0.45,0.61c0.24,0,0.58-0.76,0.76-0.76c0.24-0.03,0.36,0.49,0.64,0.58c1,0.36,2.06-1.33,3.06-1.12
			c0.79,0.18,1.52,2.09,2.43,1.55c-0.36,1.73-1,0.64-1.61,0.7c-1.97,0.24-4.28,2.37-5.94,2.27c-0.21,1.39,0.18,1.94,0.33,3.03
			c0.58-0.42,0.94-0.21,1.39-0.45c0.27-0.24-0.12-0.73,0.12-1.06c1.24-0.03,2.37-0.73,3.79-0.82c0.15,1.03,0.52,1.03,0.27,2.49
			c0.18-0.09,0.24,0.21,0.36,0.3c0.36,0.12-0.03-0.36,0.09-1.09c0.27,1.67,0.76-0.3,1.03,0.91
			C420.07,332.43,421.49,334.71,423.41,332.55z"></path>
		<path d="M430.72,304.2C430.27,305.32,429.48,303.63,430.72,304.2L430.72,304.2z"></path>
		<path d="M432.51,292.59c-0.15,0-0.3,0-0.49-0.03C431.9,291.71,432.66,291.77,432.51,292.59z"></path>
		<path d="M432.96,293.98c-0.3,0.36-1.03,0.42-1.21,0.18C432.12,293.62,432.51,293.77,432.96,293.98z"></path>
		<path d="M432.24,290.4c0.15-0.49,0.42-0.61,0.58-1.06C432.9,289.4,432.42,291.13,432.24,290.4z"></path>
		<path d="M433.57,277.67c-0.06,0.67-0.55,0.79-0.67,0.49C433.06,277.61,433.33,277.46,433.57,277.67z"></path>
		<path d="M434.78,326.91c-0.7,0.76-2.18-1.12-2.7,0.61c-0.12-0.3-0.33-0.3-0.45-0.61c-1.64,1.73-3.4-0.12-5.09,0.97
			c0.73-2.82,2.36,0.85,3.27-1.64c0.76-0.06,2.06,0.58,3.03-1.12v1.09C433.45,326.15,434.39,325.88,434.78,326.91z"></path>
		<path d="M436.18,279.03c0,0.18-0.21,0.42-0.7,0.42C435.91,278.79,436.18,278.85,436.18,279.03z"></path>
		<path class="st0" d="M393.39,279.67c-0.06,0.67-0.36,1.12-0.55,0.52C392.94,279.79,393.15,279.7,393.39,279.67z"></path>
		<path class="st0" d="M401.98,356.27c-0.3,0.12-0.42-0.24-0.64-0.33C401.49,355.6,402.04,354.96,401.98,356.27z"></path>
		<path class="st0" d="M402.88,357.42c0,0.79-0.52,0.61-0.64,0.21C402.28,357.02,402.7,357.57,402.88,357.42z"></path>
		<path class="st0" d="M405.49,345.89c-0.03,0.61-0.45,0.06-0.64,0.21C404.98,345.68,405.34,345.38,405.49,345.89z"></path>
		<path class="st0" d="M407.16,357.48c-0.18,0.85-0.73,0.58-1.12,0.73C406.25,357.51,406.64,357.27,407.16,357.48z"></path>
		<path class="st0" d="M411.41,298.83c-0.7-0.79-1.49,0.52-2.15-0.15C409.83,298.62,410.98,297.56,411.41,298.83z"></path>
		<path class="st0" d="M413.68,323.88c0.12,1.33-1.33,0.15-1.61,1.24c-0.21-0.12-0.36-0.36-0.55-0.61c-0.24,0.09-0.48,1-0.73,0.21
			C411.5,323.12,412.77,324.91,413.68,323.88z"></path>
		<path class="st0" d="M419.83,328.73c-0.12-0.03-0.24-0.03-0.36-0.03c-0.03-0.73,0.03-1.18,0.27-1.06
			C419.83,327.88,419.87,328.25,419.83,328.73z"></path>
		<path class="st0" d="M426.41,318.88c-1.15,0.85-2.06,0-3.34,0.55c0.58-1.21,1.88-1.3,2.61-0.33c0.09-0.18,0.09-0.64,0.27-0.52
			C426.38,318.42,427.35,318.91,426.41,318.88z"></path>
		<path class="st0" d="M424.17,332.61c-0.09,0.67-0.55,0.79-0.67,0.49C423.66,332.7,423.87,332.55,424.17,332.61z"></path>
		<path class="st0" d="M425.23,297.2c-0.18,0.36-0.64,0.79-0.85,0.21C424.5,296.8,424.96,297.35,425.23,297.2z"></path>
		<path class="st0" d="M425.23,327.52c0.24,1.06-0.67,0.88-1.03,1C424.41,327.82,424.93,328.03,425.23,327.52z"></path>
		<path class="st0" d="M425.75,331.64c-0.24,0.67-0.76,0.45-1.12,0.73C424.81,331.55,425.35,331.79,425.75,331.64z"></path>
		<path class="st0" d="M425.93,289.89c-0.03,0.85-0.42,0.73-0.64,1.03C425.32,290.01,425.69,290.1,425.93,289.89z"></path>
		<path class="st0" d="M427.54,297.14c-0.64,0.61-1.15,0.55-1.85,0.39C425.99,296.74,427.02,296.98,427.54,297.14z"></path>
		<path class="st0" d="M427.51,331.52c-0.42,0.73-1.06-0.61-1.58,0.15C426.41,330.4,427.11,331.4,427.51,331.52z"></path>
		<path class="st0" d="M427.9,318.18c0.06,1.18-0.42,0.7-0.73,0.76C427.35,318.45,427.66,318.39,427.9,318.18z"></path>
		<path class="st0" d="M428.72,321.52c-0.09,0.61-0.52,0.06-0.76,0.21C428.2,321.06,428.39,321.36,428.72,321.52z"></path>
		<path class="st0" d="M429.42,325.67c-0.21,0.09-0.18-0.42-0.18-0.85c-0.21-0.12-0.21,0.49-0.45,0.24
			C428.87,324.34,429.57,324.21,429.42,325.67z"></path>
		<path class="st0" d="M430.72,304.2C430.27,305.32,429.48,303.63,430.72,304.2L430.72,304.2z"></path>
		<path class="st0" d="M432.96,293.98c-0.3,0.36-1.03,0.42-1.21,0.18C432.12,293.62,432.51,293.77,432.96,293.98z"></path>
		<path class="st0" d="M432.51,292.59c-0.15,0-0.3,0-0.49-0.03C431.9,291.71,432.66,291.77,432.51,292.59z"></path>
		<path class="st0" d="M433.57,277.67c-0.06,0.67-0.55,0.79-0.67,0.49C433.06,277.61,433.33,277.46,433.57,277.67z"></path>
		<path class="st0" d="M436.18,279.03c0,0.18-0.21,0.42-0.7,0.42C435.91,278.79,436.18,278.85,436.18,279.03z"></path>
		<path class="st0" d="M416.32,278.49c-0.49,1.21-1-0.33-1.67,0.42c0.15-0.36,0.36-0.55,0.45-1.06
			C415.41,278.94,415.92,277.97,416.32,278.49z"></path>
		<path class="st0" d="M428.6,304.29c-1.06,1.58-3.37,0.39-4.28,0.76c0.12-1.06,0.94-0.09,1.03-1.27c0.03-0.88-0.52-0.15-0.36-1.39
			c0.24-0.09,0.21,0.52,0.45,0.3c0.03,0.45-0.09,0.45-0.09,0.82c0.45,0.21,0.73-0.21,1.12-0.18c-0.06,0.21-0.12,0.42-0.12,0.79
			C426.9,302.65,427.51,304.99,428.6,304.29z"></path>
		<path class="st0" d="M426.45,327.88c-0.12,0.76-1.36,0.33-0.49,0.24c0.12-0.06,0.06-0.27,0-0.27
			C425.99,327.22,426.38,327.73,426.45,327.88z"></path>
		<path class="st0" d="M429.81,326.25c0-0.09,0.03-0.18,0.06-0.27C429.99,326.09,429.9,326.22,429.81,326.25z"></path>
		<path class="st0" d="M434.78,326.91c-0.7,0.76-2.18-1.12-2.7,0.61c-0.12-0.3-0.33-0.3-0.45-0.61c-1.64,1.73-3.4-0.12-5.09,0.97
			c0.73-2.82,2.36,0.85,3.27-1.64c0.76-0.06,2.06,0.58,3.03-1.12v1.09C433.45,326.15,434.39,325.88,434.78,326.91z"></path>
		<path class="st0" d="M432.24,290.4c0.15-0.49,0.42-0.61,0.58-1.06C432.9,289.4,432.42,291.13,432.24,290.4z"></path>
		<path class="st0" d="M418.39,334.34c-0.28-1.2-0.76,0.76-1-0.92c-0.16,0.72,0.24,1.24-0.12,1.12c-0.12-0.12-0.16-0.4-0.36-0.32
			c0.24-1.44-0.12-1.44-0.28-2.48c-1.4,0.08-2.52,0.8-3.76,0.8c-0.24,0.36,0.12,0.84-0.12,1.08c-0.48,0.24-0.84,0.04-1.4,0.44
			c-0.16-1.08-0.56-1.64-0.36-3.04c1.68,0.12,4-2,5.96-2.24c0.6-0.08,1.24,1,1.6-0.72c-0.92,0.56-1.64-1.36-2.44-1.56
			c-1-0.2-2.04,1.52-3.04,1.12c-0.28-0.08-0.4-0.6-0.64-0.56c-0.2,0-0.52,0.76-0.76,0.76c-0.24-0.08-0.24-0.68-0.44-0.6
			c-0.44,0.12-0.76,1.04-1.24,1c-0.76-0.08-1.52-1.08-2.4-0.72c-0.12-0.48-0.08-1.72,0.12-1.92c1,0.08,1.2,0,2.24-0.08
			c-0.12-0.12-0.2-0.36-0.2-0.88c0.36,0.12,0.44,0.44,0.68-0.2c-0.8,0.08-0.72-2.04-0.44-3.04c1.88,0.36,4.24-0.6,5.84,0.2
			c0.16-0.6,0.28-1.36,0.56-1.6c1.76-0.68,3.76,0,5.64-0.64c-2.16-1.6-4.4-0.64-6.92,0c-0.12-0.24-0.04-1-0.28-0.84
			c-1.08,0.76-2.36,0.56-3.16,0.84c-0.36-1.16-0.72-2.36-1.08-3.6c-2.64,0.96-4.6-3.88-7.12-3.88c0-0.8-0.16-1.08-0.24-1.64
			c0.2-0.68,0.32-1.56,0.56-2.12c0.44-0.08,0.84-0.52,1.2,0.08c2.12-2.48,5.16-0.72,7.8-2.12c0.32-1.36,0.08-2.4-0.16-3.56
			c-1.28-0.8-2.4,1.12-3.76-0.56c-0.52-3.24,0-5.48,1.08-5.64c1.72-0.32,4.68,0,5.8,0.44c5.12-1.92,10.16-1.12,15.32-2.6
			c-2.88-0.64-5.56,1.08-8.16-0.12c0.04,0.6-0.04,0.88-0.28,0.8c-2.52-0.32-5.36-0.28-7.6,0.76c-0.92-1.96-2.76,0.36-3.68-1.68
			c0.24-3.08,1-4.48,2-5.28c-1,0.16-1.96-0.84-2.8-1.04c-0.68-0.16-1.84,0.8-2.2,0.08c-0.12-0.12,0.04-0.64-0.08-0.76
			c-0.12,0.08-0.52,0.12-0.56,0.2c-0.4,0.32-0.32,0.56-0.76,0.48c-0.6-0.12-0.56-0.16-0.92-0.92c-1.96-0.48-3.88,0.48-5.84-0.16
			c-0.2-0.08-0.6-0.04-0.64-0.08c-0.2-0.16-0.04-0.72-0.28-0.8c-0.16-0.08-0.08,0.56-0.28,0.52c-0.8-0.24-1.64-0.52-2.44-0.48
			c-1.88,0.16-4.16-0.6-5.72-0.44c-0.36-0.2,0.12-1.16-0.36-1.12c-2.68-0.68-5.56-1.2-8.44-1.48c-0.2-0.12,0-1.32-0.36-1.12
			c-0.4-0.24-0.28,1.12-0.64,1c-0.24-0.36-0.4-0.72-0.52-1.36c-3.32-1-6.76,0.08-10.12,0.52c-3.2,0.48-6.4,0.44-9.4,0.64
			c-2.36,0.2-4.64,1.36-6.76,0.56c-2.84,0.92-5.32,0.88-8,1.04c-1.92,0.08-4.04-0.56-5.64,0.08c-0.28,0.12-0.6,0.72-0.92,0.76
			c-0.52,0-1-0.96-1.52-0.96c-1.28,0-2.64,1.12-3.96,1.04c-1.48-0.04-2.92-0.24-4.36-0.32c-0.8-0.08-1.6,0.8-2.44,0.88
			c-0.52,0.04-1.08-0.68-1.64-0.68c-1.56,0.08-3.16,1.24-4.64,1c-2-0.32-4-1.52-6.04-0.16c-2.24-0.76-4.92-0.8-7.04-0.32
			c-1.72-2.16-3.52,0.04-5.48-0.44c-0.2-0.04-0.32-0.48-0.52-0.6c-2.96-1.6-6.24,1.32-8.64-0.12c-0.88,1.44-1.68-0.16-2.48-0.44
			c-0.92-0.36-1.76,0.56-2.64,0.6c-0.24,0-0.52-0.56-0.8-0.6c-0.88-0.24-1.72,0.68-2.72,0.88c-1.44,0.24-2.96-2.12-4.6-0.64
			c-1.28-1.04-3.16-2.24-4.64-0.92c-2.48-2.04-4.96,0.32-7.52-0.6c-0.84-0.32-1.64-1.76-2.48-0.44c-0.92-1.52-1.96-0.64-3.04-0.8
			c-1.12-0.2-2.24-1.04-3.36-1.36c-1.6-0.48-3.56,0.68-4.8-2.32c-0.52-6.2-1.6,2.96-2.88,1.72c-0.68-1.28-0.6-3-0.88-5.28
			c-0.6-0.92-1.16-0.36-1.76,0.12c-0.68-0.6-1.2-3.4-2.12-3.44c-0.36,0-0.88,1-1.28,1c-1.04,0-1.96-1.04-3-0.52
			c-0.88,0.48-1.72,1.96-2.68,2.24c-0.68,0.24-0.92,0.64-1.4,1c-1.36,1-2.48,0.48-3.08,3.32c-0.96,1.84-2.16,2.92-3,4.68
			c-0.16,0.24-0.44,0.12-0.48,0.24c-2.12,4.32-3.44,11.4-6,14.52c-0.2,1.6-0.36,3.92-0.76,5.92c-0.2,0.92-0.64,1.52-0.76,2.4
			c-0.52,3.44-0.08,7.76-1.04,10.32v0.2c0,0.68,0.12,0.92,0.16,1.44c0,6.8,0.36,12.48,0.12,17.76c0.64,3.12,0.52,6.72,1.04,9.64
			c0.32,1.84,0.92,3.52,1.36,5.28c0.44,2,0.92,3.56,1.32,5.6c0,2,0.56,2.4,0.68,4.16c0.76,1.24,1.28,3,2,4.24
			c0.12,0.64,0.24,1.08,0.28,1.92c1.56,3.48,3.12,7.8,5.2,9.12c0.2,0.12,0.6,0.36,0.84,0.36c1.56-0.08,3.96,0.64,4.8,3.4
			c0.28,0.2,0.28-0.48,0.52-0.24c0.2,1.24,1,3.68,1.72,3.68h0.04c0.24-0.04,0.68-1.8,1.24-2.08c0.76-0.48,1.52,1.88,2.28,1.52
			c0.36-0.12,0.68-1.76,1.04-2.08c0.92-0.92,2.76-0.28,3.52,0.28c0.6,0.4,0.84,1.72,1.28,1.44c0.44-0.24,0.72-1.64,0.68-3.76
			c1.2-4.6,4.24-1.04,6.08-3.04c1.32,1.64,2.6-1.12,3.88-0.8c0.28,0.04,0.56,0.64,0.84,0.6c0.44-0.04,1-0.92,1.6-1.24
			c0.96-0.56,1.8-0.44,2.6-1.16c1.2,2.72,2.12-0.4,3.16-0.28c0.4,0.04,0.76,0.88,1.16,0.88c0.36,0,0.72-0.76,1.12-0.72
			c0.4,0.08,0.84,0.96,1.24,0.92c0.24,0,0.52-0.56,0.72-0.48c0.32,0.08,0.52,0.72,0.84,0.6s0.68-1.16,1.04-1.28
			c1.24-0.4,2.6,0.72,3.8-1.32c2.16,1.68,4-1.04,6.56,0.76c0.64-0.52,1.12-0.92,1.8-0.36c0.12-0.24,0.12-0.88,0.36-0.8
			c1.32,0.8,2.72-1.48,4.08-0.52c0.04-0.32,0.12-0.6,0.2-0.8c1.88,1.32,4.28,1.48,5.76-0.08c1.16,1.36,2.48-0.2,3.88-0.24
			c0.68-0.04,1.32,0.72,1.92,0.44c1.24-0.6,2.84,0.12,4-0.24c0.36-0.12,0.72-0.88,1.04-1c0.6-0.28,1.28,0.52,1.96,0.12
			c2.52-1.52,5.44-0.48,7.68-0.48c0.72,0,1.28-0.88,2.08-1.2c1.28-0.52,2.6,0.92,3.88,0.6c0.28-0.08,0.64-0.64,0.92-0.76
			c0.76-0.32,1.52,0.24,2.32,0.2c1.96-0.12,3.96-1.64,5.84-0.36c2.36-1.8,5.88-1.24,8.64-1.52c0.64-1.52,1.24-0.2,1.88-0.4
			c1.96-0.6,4.52-2.28,6.56-1.12c8.72-2.6,17.84-1.48,26.48-4.48c0.68,1.16,1.72,0.44,2.32-0.36c0.12,0.72,0.52,0.68,0.84,0.92
			c1.08-1.84,2.44-0.36,3.8-0.8c0.36-1.76,1.16-0.44,1.68-1.76c0.2,0.96-0.32,0.8,0.08,1.36c0.88-3.24,3.88-1.72,5.24-2.6
			c-0.12-0.04-0.12-0.48,0-0.52c0.32,0.76,0.48-0.84,0.84-0.76c2.4-0.4,4.16-3.56,6.24-4.72c0.28,0.44,0.96,1.84,1.2,0.64
			c-0.4-0.2-0.88-0.08-0.8-1.44c0.6,0.44,1.4-0.12,1.84-1.2c0.76-0.12,1.2,0.56,1.84-0.4c0.2,0-0.12-1.4,0.24-1.36
			c1.08,0.72,1.6-0.44,2.56,0.2c0.32-1.24,1.44-1.64,1.8-0.92c0.28-0.56-0.36-1.08-0.08-1.4c0.84-0.4,1.68-0.92,2.48-0.08
			c0.2-0.6,0.36-1.36,0.68-1.56c0.2-0.08-0.04,1.2,0.28,0.84c0.32-0.72-0.24-1.28-0.2-2.2c0.48-0.44,0.36-1.12,0.6-1.88
			c0.6,0.76,1.04-0.8,1.56-1.24c0.6-0.44,1.24,0,1.8-0.4c0.44-0.32,0.68-1.28,1.2-1.28c0.44,0.04,0.8,1,1.28,0.96
			c0.28-0.24-0.16-1.04,0.2-1.12c1.72-0.32,3.4-0.64,4.64-2.36C421.51,334.7,420.07,332.42,418.39,334.34z M408.99,337.42
			c0,0.32,0,0.48,0.12,0.56C408.87,339.3,408.47,337.38,408.99,337.42z M411.87,338.74c-0.44-0.2-0.64-0.28-0.88,0.76
			c-0.88-0.76-1.04,0.64-1.76-0.16c0.2-1.28-0.12-0.96-0.04-2.44c0.8-0.12,1.84-1.36,2.4-0.36c0.16,0-0.12-1.56,0.12-1.88
			c0.32,0.64,0.72,1.16,1.28,1.16C413.03,338.1,411.91,336.74,411.87,338.74z"></path>
	</g>
</g>
</svg></svg></g></g></svg></g><g id="dark-icon"><svg xmlns="http://www.w3.org/2000/svg" version="1.1" xmlns:xlink="http://www.w3.org/1999/xlink" width="1000" height="1000"><g><g transform="matrix(1.530221882172915,0,0,1.530221882172915,0,0)"><svg xmlns="http://www.w3.org/2000/svg" version="1.1" xmlns:xlink="http://www.w3.org/1999/xlink" width="653.5" height="653.5"><svg xmlns="http://www.w3.org/2000/svg" xml:space="preserve" id="Layer_1" x="0" y="0" fill="white" viewBox="0 0 653.5 653.5"><style>.st0{fill-rule:evenodd;clip-rule:evenodd}</style><path d="M23.34 326.4c.15 0 .46 1.79.55 6.16-.77-3.74-.77-6.16-.55-6.16M22.94 350.05c.7.58 1.18 4.88.94 5.88-.64-1.15-.97-3.79-.94-5.88M36.71 360.54c-.64-1.21-1.09-3.46-1.61-4.79-.06-.73 2.12 3.09 1.61 4.79M38.62 358.05c.15 1.33.3 2.67.45 3.97-.69 1.28-1.42-5.15-.45-3.97M39.62 354.05c.48 2.4 1.46 8.64 1.39 10.28-.94-3.18-1.33-6.4-1.39-10.28M50.32 419.43c-.97 0-1.91-3.03-2.82-5.12.97.21 1.88 3.33 2.82 5.12M52.11 371.4c1.76 3.57 1.25 10.28 0 0M50.66 399.02c2.15 5.19 3.12 9.25 4.79 15.07-1.61-2.18-3.7-10.82-4.79-15.07M58.9 424.55c-.88-.61-1.64-4.67-2.49-6.64.86 1.37 2.46 4.79 2.49 6.64M62.3 414.82c-.88.09 1.24 4.12-.36 3.27-.67-1.76-.03-1.73-.94-3.73.36-.33.7.58 1.06.52-1.06-3.7-2.09-5.61-2.97-8.79.33.36.67.7 1.03.58-2.58-3.79-1.91-9.22-4.49-17.89 3.03 8.19 7.73 26.71 10.64 33.72-1.36-.71-2.57-7.32-3.97-7.68M70.37 390.95c1.03-.7 1.43 3.15 2.21 5.49-.82-1.24-1.58-3.55-2.21-5.49M72.19 384.04c.73.42.97 3.94 1.52 5.58-1.04-1.52-1.1-3.06-1.52-5.58M74.52 379.37c.27 1.7.82 1.46 1.03 3.46-.91-.61-2.18-5.82-.49-4.97.37 1.48-.12 1.39-.54 1.51M70.67 351.9l1.09-.03c-.33-4.52-1.33-11.77-.3-14.83.36 2.64.52 6.82.64 10.83.06 3.97.52 7.76 1.64 9.55-.18.94.03 2.61-.15 3.55 3.37 12.07 4.15 25.68 8.98 37.78-4.37-4.61-3.85-17.53-7.4-23.74-.12-.24-.24-.45-.39-.67-.03-1 .21-.21.36.49-.48-2.79-1.15-6.7-1.76-10.79-.59-4.2-1.5-8.53-2.71-12.14M74.13 402.08c3.43 8.43 4.94 15.53 9.22 24.59-1.39-1.88-3.06-5.19-4.52-8.76-1.27-3.61-2.33-7.49-2.79-10.31-.39-.67-.85-.58-1.21-1.94-1.07-3.24-2.67-10.67-.7-3.58M83.07 508.33c-1.12-.91-2.4-2.4-3.34-2.85-.61-2.79-4.25-6.03-5.7-9.28 3.34 2.92 4.83 7.49 9.04 12.13M84.01 390.62c1.61 3 1.64 7.94 3.4 11.34-2.19-3.09-2.67-8.4-3.4-11.34M82.74 399.44c.88.64 3.37 9.58 1.21 3.34-.27-.76-.39-.33-.27.06-.67-.03-.97-2.94-.94-3.4M88.65 415.3c-1.27-1.36-2.3-5.15-3.49-7.03.4-2.18 2.43 4.58 3.49 7.03M91.2 410.97c-1.21-1-2.24-4.91-3.37-7.7 1.22 1.48 2.25 5.21 3.37 7.7M94.84 418.52c-.76-.82-1.52-2.37-2.24-4.37.78.24 2.21 3.52 2.24 4.37M101.6 446.44c-.03-.61.21-.94.67-1.06l1.27 2.49c-.58.49-1.21.27-1.94-1.43M128.74 530.83c-3.49-3.27-11.01-9.7-12.34-13.13 3.36 4.85 8.91 8.86 12.34 13.13M131.38 496.42c-2.61-3.06-5.03-6.46-7.61-8.88.24-.82 1.85 1.18 3.67 3.46 1.79 2.3 4.03 4.76 5.06 5.19 1 1.33 1.64 2.43 2.33 3.58 1.3 1.43 3.18 2.15 4 4.09-2.51-1.38-4.94-4.35-7.45-7.44M186.62 502.81c-1.67-.33-3.7-1.88-6.22-4.31 1.49.16 3.95 2.83 6.22 4.31M181.83 514.73c.64-.27 2.58 1.94 3.76 2.67-1-.24-3.15-1.55-3.76-2.67M206.94 518.19c-.61.33-2.64-1.61-3.82-2.18.51-.61 3.33 1.42 3.82 2.18M211.21 522.95c-1.15-.3-4.55-1.76-3.52-2.64 1.8 1 2.31 1.79 3.52 2.64M241.81 618.68c-1.15.06-2.97-.27-5-1 .66-.43 3.48 0 5 1"></path><path d="M630.55 327.73c-.27 6.43-.24 12.8-.91 19.16-.27 3.18-.55 6.4-.85 9.61-.39 3.18-.82 6.43-1.24 9.67-1.46 11.58-2.82 23.59-5.64 35.05-1.15 4.21-3.28 8.19-4.46 12.37-.73 2.79-1.18 5.73-1.82 8.16-3.85 13.89-11.67 31.17-19.74 46.24-2.73 5.28-5.73 10.28-8.61 15.31-3.12 4.85-6.03 9.82-9.37 14.59-3.34 4.76-6.61 9.64-10.28 14.37-1.82 2.4-3.61 4.85-5.52 7.25-1.94 2.4-3.91 4.82-5.91 7.31-13.1 13.65-27.02 28.41-43.88 41.42-21.38 16.37-46.3 30.66-72.74 41.27-14.16 5.7-28.69 10.67-43.48 14.07-14.8 3.46-29.78 5.79-44.6 6.22-1.09-.55-2.94-.82-4.91-1.03-3.18.12-2.27 1.33-5.82 1.24-2.85.27-1.33-.97-3.27-1.03-12.86.33-25.59-.61-38.09-1.94-12.46-1.64-24.62-3.76-36.21-6.82-4.09-.91.09-.91-2.88-1.79-13.55-2.97-32.54-9.7-48.15-16.28-6.22-2.7-13.19-6.06-19.04-9.49-1.58-.91-1.39-.06-2.46-.7-1.88-1.06-.36-.91-1.73-1.82-.24-.12-3.49-1.82-4.97-2.82-14.77-8.98-29.29-17.62-42.45-28.99-2.03-2.52-1.88-2.55-5.61-5.88-2.85-2.61-2.55-2.03-5.28-3.94-.36-.18-3.52-3.03-4.03-3.49.03.06.06.09.09.15-.21-.21-.24-.24-.12-.18-.33-.52.67-.21.3-.76-.88-1.3-3.37-3.58-6.16-6.06-2.79-2.49-5.7-5.43-7.76-7.64-1.21-1.36-2.46-2.79-3.67-4.31-1.18-1.55-2.4-3.12-3.64-4.76-2.46-3.21-5.09-6.52-7.82-9.95 2.91 3.15 5.88 5.67 8.49 7.43 2.61 1.73 4.88 2.61 6.7 2.37-1.85-3.79-5.94-8.07-9.61-12.64-3.73-4.58-7.46-9.16-8.92-13.07-12.1-14.83-24.44-35.96-32.57-56.28-.58-1.61-1.12-2.27-1.67-1.97-7.28-20.98-15.4-42.69-18.59-67.47 4.06 21.98 10.1 43.24 18.35 63.4 8.28 20.16 18.68 39.36 31.81 56.58 1.27 2 3.15 4.82 5.4 8.1 2.24 3.24 5.06 6.82 7.91 10.55 2.88 3.73 6.16 7.34 9.16 10.83 3.03 3.46 6.16 6.52 8.73 9.16 6.4 6.25 11.19 7.43 10.4 2.33-6.97-8.98-14.86-14.89-21.2-23.53-.36-2.15-.76-4.49 1.91-3.24 7.61 7.85 15.31 16.62 23.53 24.14 8.01 7.73 16.37 14.31 24.02 18.65 1.97 2.4 5.12 3.97 7.91 5.91 1.88.64 3.31.55 5.03.94-.18-.82-1.33-1.97-.79-2.58-4.15-2.97-7.94-5.94-11.28-9.22-3.4-3.21-6.58-6.43-9.58-9.85-1.55-1.67-3.09-3.37-4.64-5.03-1.55-1.73-3.09-3.46-4.67-5.22s-3.27-3.46-5-5.25c-1.67-1.79-3.46-3.61-5.34-5.43-1.03-2.85-2.09-5.73-3.09-8.76-4.58-4.7-10.61-12.43-16.19-18.8-1.3-1.52-.33-1.46-.55-2.24-12.04-15.65-21.65-31.02-27.08-47.27 6.61 13.34 13.46 27.41 21.83 38.6 1.4 1.76 2.52 2.03 3.79 2.79 6.19 10.7 18.47 24.38 28.69 35.23 2.12.79 3.97-.33-.15-4.58 1.64.79 1.97 1.64 3.61 3.49.39-.27.18-.85-.33-1.58 2.73 2.88 4.55 4.34 6.19 5.94 1.7 1.55 3.28 3.21 6.19 5.79 1.27.85 2.49.3 1.91-.85-2.64-1.94-4.64-4.34-6.7-6.55-2.03-2.24-4-4.43-5.97-6.61-2.43-2.61-4.79-3.76-7.1-6-1.06-1.15-.7-1.64-1.85-3.03-1.06-1.3-3.34-2.7-4.31-3.82-1.24-1.46-1.46-2.4-2.67-4.15-2.15-3.06-4.91-5.88-7.52-8.85-2.58-3-5.22-6.03-7.31-9.25-3.03-5.15-4.55-10.67-8.28-16.34 2.82 1.43 4.21 6.09 6.82 9.89 8.25 12.74 20.62 24.93 29.05 34.2 2.09.12.49-2.24.52-3.94-3-2.85-4.61-5.03-7.1-7.52-1.46-1.33.03 1.21-1.33.09-2.85-3.67-5.82-6.94-8.67-10.58-2.76-3.67-5.88-7.34-8.73-11.92.3-1.43-1.12-3.67 1.06-2.94-.88-1.15-.79-1.64-1.21-2.46-1.43-2.43-.27.27-1.33-.06.33-2.43-3.18-4.67-3.06-6.94-8.01-9.92-10.58-20.32-17.86-32.78 4.88 8.13 10.55 19.38 17.01 30.17 1.39 2.3.52-.82 1.64.7 1.88 3.06 2.3 5.94 4.09 8.64 2.12 3.37 3.73 4.12 5.88 6.85 2.73 3.09 5 7.22 7.88 10.31 2.91 2.94 5.94 4.4 8.19 8.34 1.64.73 1.73-.15 4.15 1.94 1.09-.18-1.12-3.55.91-2.33 1.85 1.58-.52.88.61 2.03 1.73 1.67 2.94 1.85 4.34 2.55 1.58 2.46 3.61 4.58 5.7 6.7 2.06 2.15 4.4 4.09 6.82 6.09 1.61 1.09-1.46-2.55.55-1.36.67 1.09 2.55 2.97 4.52 4.64 2.03 1.64 4.25 2.94 5.4 3.12 4.7 5.09 8.55 6.46 14.16 11.73 2.09 1.52 1-.97 1.94-.27 2.3 1 3.88 2.06 5.49 3.24 1.55 1.21 3.18 2.49 5.52 3.88 3.06.7 8.16 3.34 11.8 5.79.88-1.03-2.09-2.58-4.21-4.09 2.03-.12 5.55 3.43 6.91 4.73 13.31 6.03 25.5 8.25 41.3 13.31 2.33.85 3.82-.33 5.67 1.15.79.15.79-.33.18-.52 4.52.79 11.52 3.09 18.38 4.37 3.4.82 6.76 1.21 9.64 1.39 2.91.15 5.34.18 6.91-.49 2.46.85-1 .27.33 1.43 3.67-.94 9.01 1.21 11.49-.39 9.16.36 18.32 2.18 25.59.18 2.03.15 4.7.06 5.58.76 2-.39 4.73-1 7.52-1.36 2.79-.39 5.7-.36 8.01-.15 28.62-4.52 57.04-13.77 82.78-28.29 25.68-14.46 48.58-34.2 65.62-57.4 9.64-9.85 17.47-24.93 22.92-36.63 1.67-3.85 4.76-6.67 5-11.07 3.82-8.19 7.31-17.8 10.28-27.2 1.21-4.79 2.7-9.43 3.4-13.98.39-2.24.76-4.46 1.12-6.58.27-2.12.39-4.18.55-6.13 3.37-11.73 3.21-24.89 3.06-37.75.03-2.64.03-5.15.03-7.61.03-2.49.09-4.94-.3-7.43-.27-1.91-.97-3.88-1.21-5.97-.42-4.12-.91-8.31-1.09-12.55-.42-4.18-.97-8.4-2-12.4-1.52-4.79-2.97-8.34-4.28-12.55-3.67-13.83-9.55-31.99-18.74-45.7-2.46-3.49-3.85-7.61-6.13-10.92-1.3-1.76-3.15-3.18-4.43-5-2.12-3.12-4.79-6.64-7.28-10.37-2.73-3.55-5.4-7.22-8.19-9.95-2.85-2.79-4.94-6.55-7.97-9.58a115 115 0 0 0-4.79-4.64c-1.7-1.43-3.34-2.82-4.94-4.15-3.12-2.82-6.28-5.22-8.58-8.19-8.22-4.94-20.26-13.98-30.08-21.13-.58-.12-1.03-.03-1.46.09-7.04-5.37-16.1-7.1-23.41-11.25-1.33-.67-1.61 0-2.55-.18-3.73-1.97-6.55-2.88-10.55-3.61-7.31-3.52-14.13-5.28-20.68-6.58-6.55-1.39-12.86-2.27-19.47-4.18-7.73 1-16.13-1-24.17-.76-2.18.06-4.4 1.03-6.55 1.09-2.03.09-3.27-.45-5.22-.49-1.46-.03-2.88.55-4.67.58-2.43 0-5.06-.49-7.61-.39-2.52.15-4.67.97-6.91 1.33-2.7.36-5.19-.21-7.61.06-6.49.91-11.37 4.91-19.44 4.09-2.37.85-4.79 1.76-7.34 2.61-2.58.88-5.31 1.67-8.04 3-3.24 1.49-6.43 3.34-8.95 4.46-1.52.61-3.49.79-5 1.33-3.82 1.24-7.13 3.67-10.64 5.64-3.4 2.21-6.88 4.25-10.95 5.52-2.18 1.88-5 3.61-7.97 5.4-2.88 1.94-6.06 3.73-9.01 5.73-2.85 2.03-5.67 3.97-7.82 6.06-2.12 2.15-3.76 4.21-4.46 6.25 1.52 1.49.91 3.7-.79 5.55-1.88 2.03-3.79 1.91-6.82 4-1.85 1.43-4.97 3.88-7.94 6.7-2.85 2.91-5.85 5.88-7.25 8.34-1.12 1.85-1.33 4.52-2.55 6.13-1.33 1.76-3 3.27-4.85 4.76-1.82 1.55-3.73 3.09-4.91 5.28-1.64 2.88-1.73 5.97-2.55 7.22-.15.24-.27.45-.45.67-2.37 3.34-6.73 5.88-8.28 6.16-1.03 1.39-.45 1.7-1.49 3.09-5.09 2.76-12.46 15.89-15.95 24.89-.52 1.36-1.67 3.61-2.21 4.67-5.76 11.73-12.34 20.01-17.92 29.05-.88-.06-1.49.97-2.21 1.27-1.97 4.49-4.61 7.7-6.37 12.31-1.79.52-2.67 4.43-4.7 4.15-2.43 2.37-4.21 5.58-6.43 8.64-1.94 2.67-4.06 6.91-5.85 9.1-3 3.55-6.58 2.4-9.82 7.19-5.19-1.82-10.98 1-17.77.79-.52.3-.76 1.43-1.39 1.43a.7.7 0 0 1-.3-.09c-2.37-7.64-6.76-4.12-10.07-8.43-.88-1.15-1.39-4.79-2.21-6.4-1.73-3.7-3.97-5.09-5.43-7.07-.18-2.7-.45-5.25-.76-7.7-.18-2.43-.45-4.76-.76-7-.61-4.52-1.43-8.73-2-12.83-.61-4.12-1.39-8.25-1.79-12.52-.39-4.25-.64-8.73-.61-13.68.03-.45.85-2.85.91-4.06.21-3.85.67-8.52 1.49-13.25.85-4.73 1.67-9.64 2.33-14.04-.36-3 .55-6.88 2-11.49 1.46-4.61 3.82-9.82 5.97-15.8 1.58-4 2.21-6.06 4.94-11.92 1.82-3.97 3.64-7.7 5.25-11.52 1.61-3.85 3.37-7.55 5.46-11.22 2.33-4.15 4.88-7.88 7.7-11.4 2.79-3.52 5.49-7.1 8.46-10.76 2.49-3.09 4.21-7 6.64-9.95.03-.06.09-.09.12-.15l.15-.15c5.55-6.28 10.49-7.97 15.31-12.04 3.34-4.28 6.58-8.46 11.31-11.58 3.49-.18 4.09 1.61 9.4-1.67 4.76-3.31 7.43-8.28 10.04-12.22 2.67-3.85 5.16-6.7 9.01-5.79 10.43-4.21 24.47-15.43 37.51-21.92 9.01-4.7 18.44-8.43 27.38-12.16 9.04-3.73 17.74-8.01 25.83-9.07 3.46-1.91 7-3 10.61-3.73s7.25-1.43 11.01-2.18c22.1-4.61 44.18-9.95 66.32-8.49 3.24-.36 6.73-.73 10.34-.67 3.58 0 7.28.15 10.89.39 3.64.18 7.19.79 10.55 1.24 3.34.52 6.49.91 9.28 1.58 7.4.15 14.43 1.24 21.1 2.94 6.7 1.46 13.01 3.61 19.29 4.88 8.31 2.03 15.95 3.15 23.26 5.97 2.4.88 4.4 2.12 6.79 2.94 7.19 2.79 14.49 4.52 21.62 8.28 6.7 3.27 11.98 7.91 19.71 10.34 8.92 5.85 19.95 11.89 30.81 19.44 5.58 3.58 10.89 7.79 16.22 11.92 5.09 4.43 10.28 8.76 14.68 13.68 1.24 1.36 1.82 2.49 3.12 3.79 11.98 12.37 24.11 23.08 31.57 36.63 11.74 14.74 24.05 35.48 31.48 53.7 8.67 15.65 13.65 33.2 17.74 50.21 2.82 12.8 6.91 26.41 8.4 40.27.76 4.91.18 9.98.67 14.74.36 3.58.7 7.1 1 10.61.25 3.53.65 7.07.56 10.71"></path><path d="M241.81 618.68c-1.15.06-2.97-.27-5-1 .66-.43 3.48 0 5 1M211.21 522.95c-1.15-.3-4.55-1.76-3.52-2.64 1.8 1 2.31 1.79 3.52 2.64M206.94 518.19c-.61.33-2.64-1.61-3.82-2.18.51-.61 3.33 1.42 3.82 2.18M185.59 517.4c-1-.24-3.15-1.55-3.76-2.67.64-.27 2.58 1.94 3.76 2.67M186.62 502.81c-1.67-.33-3.7-1.88-6.22-4.31 1.49.16 3.95 2.83 6.22 4.31M128.74 530.83c-3.49-3.27-11.01-9.7-12.34-13.13 3.36 4.85 8.91 8.86 12.34 13.13M138.83 503.85c-2.52-1.36-4.94-4.34-7.46-7.43-2.61-3.06-5.03-6.46-7.61-8.88.24-.82 1.85 1.18 3.67 3.46 1.79 2.3 4.03 4.76 5.06 5.19 1 1.33 1.64 2.43 2.33 3.58 1.32 1.41 3.2 2.14 4.01 4.08M103.54 447.87c-.58.49-1.21.27-1.94-1.43-.03-.61.21-.94.67-1.06zM83.34 426.67c-1.39-1.88-3.06-5.19-4.52-8.76-1.27-3.61-2.33-7.49-2.79-10.31-.39-.67-.85-.58-1.21-1.94-1.06-3.24-2.67-10.67-.7-3.58 3.43 8.43 4.95 15.53 9.22 24.59M94.84 418.52c-.76-.82-1.52-2.37-2.24-4.37.78.24 2.21 3.52 2.24 4.37M58.9 424.55c-.88-.61-1.64-4.67-2.49-6.64.86 1.37 2.46 4.79 2.49 6.64M88.65 415.3c-1.27-1.36-2.3-5.15-3.49-7.03.4-2.18 2.43 4.58 3.49 7.03M91.2 410.97c-1.21-1-2.24-4.91-3.37-7.7 1.22 1.48 2.25 5.21 3.37 7.7M50.32 419.43c-.97 0-1.91-3.03-2.82-5.12.97.21 1.88 3.33 2.82 5.12M55.45 414.09c-1.61-2.18-3.7-10.83-4.79-15.07 2.15 5.19 3.12 9.25 4.79 15.07M87.41 401.96c-2.18-3.09-2.67-8.4-3.4-11.34 1.61 3 1.64 7.95 3.4 11.34M72.58 396.44c-.82-1.24-1.58-3.55-2.21-5.49 1.03-.69 1.42 3.16 2.21 5.49M73.7 389.62c-1.03-1.52-1.09-3.06-1.52-5.58.73.43.98 3.94 1.52 5.58M75.55 382.83c-.91-.61-2.18-5.82-.49-4.97.36 1.49-.12 1.39-.55 1.52.28 1.69.83 1.45 1.04 3.45M52.11 371.4c1.76 3.57 1.25 10.28 0 0M41.01 364.33c-.94-3.18-1.33-6.4-1.39-10.28.48 2.4 1.45 8.64 1.39 10.28M39.07 362.03c-.7 1.27-1.43-5.15-.45-3.97.15 1.33.3 2.66.45 3.97M23.88 355.93c-.64-1.15-.97-3.79-.94-5.88.7.58 1.18 4.88.94 5.88M23.88 332.55c-.76-3.73-.76-6.16-.55-6.16.16.01.46 1.8.55 6.16M83.07 508.33c-1.12-.91-2.4-2.4-3.34-2.85-.61-2.79-4.25-6.03-5.7-9.28 3.34 2.92 4.83 7.49 9.04 12.13M62.3 414.82c-.88.09 1.24 4.12-.36 3.27-.67-1.76-.03-1.73-.94-3.73.36-.33.7.58 1.06.52-1.06-3.7-2.09-5.61-2.97-8.79.33.36.67.7 1.03.58-2.58-3.79-1.91-9.22-4.49-17.89 3.03 8.19 7.73 26.71 10.64 33.72-1.36-.71-2.57-7.32-3.97-7.68M83.95 402.78c-.27-.76-.39-.33-.27.06-.67-.03-.97-2.94-.94-3.4.88.64 3.36 9.59 1.21 3.34M82.56 398.75c-4.37-4.61-3.85-17.53-7.4-23.74-.12-.24-.24-.45-.39-.67-.03-1 .21-.21.36.49-.48-2.79-1.15-6.7-1.76-10.79-.58-4.18-1.49-8.52-2.7-12.13l1.09-.03c-.33-4.52-1.33-11.77-.3-14.83.36 2.64.52 6.82.64 10.83.06 3.97.52 7.76 1.64 9.55-.18.94.03 2.61-.15 3.55 3.36 12.05 4.14 25.67 8.97 37.77M36.71 360.54c-.64-1.21-1.09-3.46-1.61-4.79-.06-.73 2.12 3.09 1.61 4.79" class="st0"></path><path d="M630.43 323.14c-.08-1.24-.16-2.48-.28-3.72-.08-.8-.12-1.64-.2-2.44-.28-3.52-.64-7-1-10.6-.04-.6-.12-1.2-.12-1.8-.08-1.2-.08-2.44-.08-3.68s0-2.44-.04-3.68c0-.56 0-1.08-.04-1.64-.04-1.32-.16-2.64-.36-3.92-.36-3.48-.92-6.92-1.56-10.36q-.96-5.1-2.16-10.2c-1.56-6.72-3.28-13.32-4.68-19.72-4.12-17-9.08-34.56-17.76-50.2-1.04-2.56-2.2-5.16-3.4-7.8-.64-1.32-1.28-2.64-1.92-4-1.28-2.64-2.68-5.32-4.12-8-.56-1.08-1.16-2.16-1.76-3.28-.32-.56-.6-1.08-.92-1.64-.68-1.16-1.32-2.32-2-3.44-.68-1.16-1.36-2.32-2.08-3.48-3.04-5.04-6.24-9.88-9.48-14.4l-1.92-2.64c-.64-.88-1.28-1.72-1.96-2.6-.64-.8-1.28-1.64-1.92-2.44-1.16-2.12-2.44-4.16-3.8-6.16-.72-1-1.4-2-2.16-2.96-.72-.96-1.48-1.92-2.24-2.88-.48-.6-.96-1.16-1.48-1.76-.48-.6-.96-1.16-1.48-1.72-.96-1.12-1.92-2.2-2.92-3.28-.08-.04-.12-.12-.16-.16-1.32-1.44-2.64-2.84-4.04-4.24-1.32-1.4-2.68-2.76-4.08-4.16-1-1-2-2.04-3.04-3.04-2.04-2.08-4.12-4.16-6.16-6.28-1.28-1.28-1.88-2.4-3.12-3.76-4.4-4.92-9.56-9.28-14.68-13.68-5.32-4.12-10.64-8.36-16.2-11.92-10.88-7.56-21.92-13.6-30.84-19.44-7.72-2.44-13-7.08-19.68-10.36-7.12-3.76-14.44-5.48-21.64-8.28-2.4-.8-4.4-2.04-6.8-2.92-7.28-2.84-14.92-3.96-23.24-6-6.28-1.24-12.6-3.4-19.28-4.88-6.68-1.68-13.72-2.76-21.12-2.92-2.8-.68-5.92-1.08-9.28-1.6-3.36-.44-6.92-1.04-10.56-1.24-3.6-.24-7.28-.36-10.88-.36-3.6-.08-7.08.28-10.32.64-22.16-1.44-44.24 3.88-66.32 8.48-3.76.76-7.4 1.48-11 2.2-3.64.72-7.16 1.84-10.64 3.72-8.08 1.08-16.8 5.36-25.84 9.08-8.92 3.72-18.36 7.44-27.36 12.16-13.04 6.48-27.08 17.72-37.52 21.92-3.84-.92-6.32 1.96-9 5.8-2.6 3.92-5.28 8.92-10.04 12.2-5.32 3.28-5.92 1.48-9.4 1.68-2.36 1.56-4.36 3.4-6.16 5.36-.92 1-1.76 2-2.64 3.08-.4.52-.84 1.04-1.24 1.56-.44.52-.84 1.04-1.28 1.6-4.8 4.04-9.76 5.76-15.28 12.04l-.16.12c-.04.08-.08.12-.12.16-2.44 2.96-4.16 6.84-6.64 9.96-1.48 1.8-2.88 3.64-4.32 5.44-1.4 1.8-2.76 3.56-4.16 5.32-2.8 3.52-5.36 7.24-7.68 11.4-2.12 3.68-3.88 7.36-5.48 11.2s-3.4 7.56-5.24 11.52c-2.72 5.88-3.36 7.92-4.92 11.92-2.16 6-4.52 11.2-6 15.8-1.44 4.64-2.36 8.52-2 11.52-.68 4.4-1.48 9.28-2.32 14.04-.2 1.16-.4 2.36-.56 3.52-.32 2.32-.56 4.6-.72 6.68-.08 1.08-.16 2.08-.2 3.04-.08 1.2-.88 3.6-.92 4.04-.04 4.96.2 9.44.6 13.68.4 4.28 1.2 8.4 1.8 12.52.56 4.12 1.4 8.32 2 12.84.32 2.24.56 4.6.76 7 .28 2.48.56 5 .76 7.72 1.08 1.48 2.6 2.64 4.04 4.68.48.68.92 1.44 1.36 2.36.12.2.2.44.32.68.64 1.84 1.16 4.72 1.92 5.72.2.28.4.52.64.72.2.2.44.4.64.56.24.16.44.32.68.44.2.12.36.2.52.28s.32.16.48.2c.36.12.72.24 1.04.36.16.04.36.12.52.16.08.04.12.04.2.04.6.2 1.2.4 1.8.72.16.08.32.2.48.28.32.2.6.44.92.76.4.4.8.88 1.16 1.52.2.32.36.68.52 1.08s.32.84.44 1.32h.04c.12.08.2.08.28.08.64 0 .88-1.12 1.4-1.4 6.8.2 12.56-2.6 17.76-.8 3.24-4.8 6.84-3.64 9.84-7.2.24-.28.44-.56.68-.92.44-.64.92-1.4 1.44-2.2.24-.4.52-.84.76-1.24.48-.8 1-1.68 1.48-2.48.52-.8 1-1.56 1.48-2.24.56-.76 1.08-1.56 1.6-2.32 1.04-1.52 2.04-3.04 3.12-4.4.56-.68 1.12-1.32 1.72-1.92 2.04.28 2.92-3.64 4.68-4.16.16-.44.32-.88.52-1.28.16-.4.36-.8.56-1.16q.54-1.2 1.2-2.28c.24-.48.52-1 .84-1.48.52-.96 1.12-1.96 1.68-2.96.52-1 1.08-2.04 1.56-3.16h.04c.2-.08.36-.2.52-.32.16-.16.32-.32.52-.44.16-.16.32-.28.52-.36l.24-.12c.12-.04.24-.04.4-.04 5.56-9 12.16-17.28 17.92-29.04.08-.12.12-.28.24-.44l.56-1.12c.28-.64.64-1.32.92-1.96.16-.4.36-.8.48-1.16 1.32-3.4 3.2-7.36 5.24-11.08.68-1.28 1.4-2.48 2.16-3.68.72-1.2 1.48-2.32 2.2-3.4 1.52-2.16 3.08-4.04 4.48-5.32.32-.28.64-.56.92-.76.32-.24.64-.48.96-.64 1.04-1.4.44-1.68 1.48-3.08 1.56-.28 5.92-2.84 8.28-6.16.12-.08.2-.2.24-.32.08-.12.12-.24.2-.36s.16-.24.24-.4c0-.04.04-.12.08-.16.08-.28.16-.56.28-.88.04-.2.12-.44.16-.64q.18-.84.48-1.92c.16-.52.36-1.04.56-1.56.2-.56.44-1.12.76-1.64.6-1.08 1.36-2.04 2.24-2.88.84-.84 1.76-1.64 2.68-2.4 1.84-1.48 3.52-3 4.84-4.76.32-.4.56-.88.76-1.36.2-.52.36-1.04.56-1.6.24-.84.52-1.68.84-2.44.12-.24.24-.48.4-.72 1.4-2.48 4.4-5.44 7.24-8.36 2.96-2.8 6.08-5.28 7.96-6.68 3-2.12 4.92-2 6.8-4 1.72-1.88 2.32-4.08.8-5.56.68-2.04 2.32-4.08 4.44-6.24 2.16-2.12 5-4.04 7.84-6.08 2.92-2 6.12-3.8 9-5.72 2.96-1.8 5.8-3.52 7.96-5.4 4.08-1.28 7.56-3.32 10.96-5.52 3.52-1.96 6.84-4.4 10.64-5.64 1.52-.56 3.48-.72 5-1.32 2.52-1.12 5.72-3 8.96-4.48 2.72-1.32 5.44-2.12 8.04-3 2.52-.84 4.96-1.76 7.32-2.6 8.08.8 12.96-3.2 19.44-4.08 2.44-.28 4.92.28 7.6-.08 2.24-.36 4.4-1.16 6.92-1.32 2.56-.12 5.2.4 7.64.4 1.76-.04 3.2-.64 4.64-.6 1.96.04 3.2.6 5.24.48 2.12-.04 4.36-1 6.52-1.08 8.04-.24 16.44 1.76 24.2.76 6.6 1.92 12.88 2.8 19.44 4.2 6.56 1.28 13.4 3.04 20.68 6.56 4 .72 6.84 1.64 10.56 3.6.96.2 1.2-.48 2.56.2 7.28 4.16 16.36 5.88 23.4 11.24.44-.12.88-.2 1.44-.08 9.84 7.16 21.88 16.2 30.08 21.12.16.2.32.4.48.56.28.36.6.72.92 1.04.16.2.32.36.52.52.96 1 2.04 1.96 3.12 2.92 1.16 1.04 2.36 2.08 3.56 3.16 1.6 1.32 3.24 2.72 4.92 4.16 1.64 1.44 3.24 3.04 4.8 4.64.76.76 1.48 1.56 2.12 2.4.36.4.68.8 1 1.24.96 1.24 1.88 2.52 2.84 3.68.64.8 1.32 1.56 2.04 2.24.36.36.68.72 1.04 1.08.68.72 1.36 1.52 2.04 2.36.68.8 1.36 1.68 2.04 2.52 1 1.32 2.04 2.68 3.04 4 1.88 2.8 3.84 5.48 5.6 7.96.6.8 1.16 1.64 1.68 2.4 1.28 1.84 3.12 3.24 4.44 5 2.28 3.32 3.68 7.44 6.12 10.92.8 1.2 1.56 2.4 2.28 3.64.36.56.68 1.12 1 1.68a60 60 0 0 1 1.92 3.52c4.84 9.24 8.48 19.48 11.24 28.68q.66 2.16 1.2 4.2c.2.68.4 1.36.56 2.04s.32 1.32.52 1.96c.16.52.32 1.04.52 1.56.52 1.52 1.04 3 1.56 4.48.68 2.04 1.44 4.12 2.2 6.48.52 2 .92 4.04 1.24 6.12.16 1.04.28 2.12.44 3.16.12 1.04.24 2.08.32 3.12.04 1.08.12 2.12.2 3.2.24 3.16.6 6.28.92 9.36.24 2.12.92 4.08 1.2 6 .16.84.24 1.72.28 2.56v.08c.08 1.56.08 3.16.04 4.76 0 2.48 0 5-.04 7.64.16 12.84.28 26-3.08 37.72-.16 1.96-.28 4-.52 6.16-.36 2.12-.76 4.32-1.12 6.56-.72 4.56-2.2 9.2-3.4 14-.72 2.36-1.52 4.72-2.32 7.08-.8 2.32-1.64 4.68-2.52 6.96-.84 2.32-1.72 4.56-2.64 6.76s-1.84 4.36-2.8 6.4c-.24 4.36-3.36 7.2-5 11.04-5.48 11.72-13.28 26.8-22.92 36.64-17.08 23.2-39.96 42.92-65.64 57.4-25.76 14.52-54.16 23.76-82.76 28.28-2.32-.2-5.24-.24-8.04.16-2.76.36-5.52.96-7.52 1.36-.88-.68-3.52-.6-5.56-.76-7.28 2-16.44.2-25.6-.16-2.48 1.6-7.8-.56-11.48.4-.48-.4-.36-.6-.12-.68.08-.08.16-.12.28-.12.04 0 .08 0 .12-.04.12 0 .2-.04.24-.08.04 0 .04 0 .04-.04 0 0 0-.08-.04-.12-.12-.08-.36-.2-.88-.36-1.56.68-4 .64-6.88.48-2.88-.2-6.28-.56-9.64-1.4-6.88-1.28-13.88-3.56-18.4-4.36.16.04.24.12.32.16q.18.12.12.24c0 .04-.04.08-.08.12-.08.04-.28.04-.52 0-1.88-1.48-3.36-.32-5.68-1.16-15.8-5.08-28-7.28-41.32-13.32a1.7 1.7 0 0 0-.28-.24c-.08-.12-.2-.2-.32-.32-.2-.2-.4-.4-.64-.6l-.24-.24a.7.7 0 0 1-.24-.24c-.28-.28-.6-.52-.92-.8-.28-.24-.56-.44-.84-.64l-.12-.12c-.24-.2-.52-.36-.8-.56s-.6-.36-.88-.52c-.24-.12-.44-.2-.64-.28-.08-.04-.16-.04-.2-.04a2 2 0 0 0-.64-.12h-.12c2.12 1.52 5.08 3.08 4.2 4.08-3.64-2.44-8.72-5.08-11.8-5.76-2.32-1.4-3.96-2.68-5.52-3.88-1.6-1.2-3.2-2.28-5.48-3.28-.2-.12-.32-.16-.36-.08-.04.04-.04.08-.04.12-.04.04-.04.08-.04.12-.08.2-.12.48-.28.6-.08.04-.28.04-.56-.08-.16-.08-.36-.2-.64-.4h-.04c-.64-.6-1.28-1.16-1.88-1.68-.64-.52-1.2-1-1.8-1.48-.36-.28-.76-.56-1.12-.88-2.96-2.2-5.56-3.84-8.44-6.76-.32-.28-.6-.6-.92-.92-1.12-.2-3.36-1.48-5.4-3.12-.96-.84-1.92-1.72-2.72-2.56-.24-.2-.4-.4-.6-.6-.36-.36-.64-.72-.88-1.04-.12-.16-.24-.32-.32-.44-.28-.16-.48-.24-.56-.24s-.12.04-.12.12 0 .24.08.36q.06.24.24.48c.16.32.32.6.32.76 0 .12-.12.12-.48-.12-2.44-2-4.76-3.96-6.84-6.08-2.08-2.16-4.12-4.28-5.68-6.72-1.4-.68-2.64-.88-4.36-2.56-.32-.32-.36-.52-.24-.64.08-.12.24-.16.32-.28s.08-.24-.08-.48c-.12-.16-.28-.36-.6-.6-.92-.56-.96-.2-.84.44.04.2.12.44.16.64.08.44.16.84 0 1.08-.04.08-.12.12-.24.16-2.4-2.08-2.52-1.2-4.12-1.96-.28-.48-.6-.96-.88-1.36-.6-.84-1.28-1.56-1.96-2.24-1.68-1.64-3.52-2.88-5.36-4.72-2.88-3.08-5.16-7.2-7.88-10.32-2.16-2.72-3.76-3.48-5.88-6.84-.68-1-1.16-2.08-1.6-3.12-.44-1.08-.84-2.16-1.32-3.28-.36-.72-.72-1.48-1.2-2.24-.12-.16-.2-.28-.28-.36-.52-.4-.32.76-.72.48-.12-.08-.32-.32-.64-.84-.8-1.36-1.6-2.68-2.36-4.04-5.48-9.48-10.36-19-14.64-26.12 7.28 12.48 9.88 22.88 17.88 32.8-.12 2.24 3.4 4.52 3.04 6.92 1.08.36-.08-2.36 1.36.08.4.8.32 1.28 1.2 2.44-1.48-.48-1.32.36-1.12 1.44.04.36.12.72.12 1.08 0 .16-.04.32-.08.44a52 52 0 0 0 2.2 3.28c.4.6.84 1.16 1.24 1.72.68.92 1.4 1.84 2.08 2.72.56.72 1.08 1.4 1.64 2.12.56.68 1.08 1.4 1.6 2.08q2.16 2.7 4.32 5.28c2.16 2.58 2.88 3.44 4.32 5.28h.04c.28.24.44.32.52.28.16-.04.08-.36.12-.56-.04-.08 0-.12.04-.16.04-.08.24 0 .64.36 2.48 2.48 4.08 4.68 7.08 7.52 0 .52.12 1.12.28 1.68.2.76.44 1.48.16 1.92 0 .04-.08.12-.12.16s-.12.08-.2.12c-.16.04-.36.04-.6.04h-.04c-3.16-3.48-6.88-7.36-10.68-11.52-1.28-1.4-2.6-2.84-3.88-4.28s-2.6-2.92-3.88-4.44c-1.28-1.48-2.52-3-3.76-4.52-2.44-3.08-4.76-6.24-6.84-9.44-2.6-3.76-4-8.44-6.8-9.88 1.84 2.84 3.16 5.64 4.4 8.36 1.2 2.76 2.32 5.44 3.84 8 .52.8 1.08 1.6 1.68 2.36 1.16 1.56 2.44 3.12 3.72 4.64.64.72 1.28 1.48 1.92 2.24 2.6 2.96 5.36 5.8 7.52 8.84 1.24 1.76 1.44 2.72 2.68 4.16.96 1.12 3.24 2.52 4.32 3.84.16.16.24.32.36.48.2.32.36.56.44.8.12.24.2.44.28.64.12.24.24.44.4.68.12.12.24.28.36.4 2.28 2.28 4.68 3.4 7.08 6.04q2.94 3.24 6 6.6c2.04 2.2 4.04 4.6 6.68 6.56.56 1.12-.64 1.68-1.92.84-2.88-2.6-4.48-4.24-6.16-5.8-1.64-1.6-3.48-3.08-6.2-5.96.16.24.28.44.36.64l.04.04c.16.4.2.68-.08.88-.44-.44-.72-.8-1-1.16l-.04-.04c-.28-.36-.52-.64-.76-.92-.48-.52-.96-.96-1.8-1.32 4.12 4.24 2.28 5.36.16 4.56-2.4-2.52-4.92-5.24-7.44-8.04-1.48-1.64-3-3.32-4.48-5.04-2.68-3.04-5.28-6.12-7.64-9.16a80 80 0 0 1-3.44-4.52c-.88-1.16-1.72-2.32-2.44-3.44-.36-.48-.72-1-1.04-1.52-.36-.48-.68-.96-.96-1.48-.44-.68-.84-1.36-1.24-2.04-1.28-.76-2.4-1-3.8-2.76-1.04-1.4-2.08-2.84-3.08-4.32-2-2.96-3.92-6.08-5.76-9.32-.92-1.6-1.84-3.24-2.72-4.88-1.8-3.28-3.56-6.64-5.24-10-1.72-3.36-3.4-6.76-5.04-10.08 5.44 16.24 15.04 31.6 27.08 47.24.04.08.04.16.04.24 0 .36-.28.56-.12 1 .04.24.24.56.64 1 5.56 6.4 11.6 14.12 16.2 18.8 1 3.04 2.04 5.92 3.08 8.8.96.92 1.84 1.8 2.76 2.68.88.92 1.72 1.84 2.56 2.72 1.76 1.8 3.44 3.48 5 5.24 1.6 1.76 3.16 3.52 4.68 5.24 1.56 1.64 3.12 3.36 4.64 5.04 3 3.4 6.2 6.64 9.6 9.84 3.32 3.28 7.12 6.24 11.28 9.2-.24.24-.16.56-.04.92.12.28.32.56.48.84.08.16.12.28.2.44.04.04.04.12.08.2s.04.16.04.2c-1.72-.4-3.12-.32-5-.96-2.8-1.92-5.96-3.52-7.92-5.88-7.64-4.36-16.04-10.92-24.04-18.68-2.04-1.88-4.04-3.8-6.04-5.84-1-.96-2-2-3-3.04-1-1-1.96-2.04-2.92-3.08-1-1.04-1.96-2.04-2.92-3.08-1-1.04-1.96-2.08-2.88-3.08q-2.94-3.06-5.76-6c-.84-.4-1.36-.44-1.68-.24-.12.08-.2.16-.28.28-.28.48-.24 1.2-.12 2.04.04.4.08.8.16 1.16.8 1.08 1.64 2.12 2.48 3.12s1.68 2 2.56 2.92c.88.96 1.76 1.92 2.64 2.84 1.8 1.84 3.6 3.68 5.44 5.52 2.72 2.84 5.48 5.76 8.08 9.12.8 5.12-4 3.92-10.4-2.32-2.56-2.64-5.68-5.72-8.72-9.16-3-3.48-6.28-7.08-9.16-10.84-2.84-3.72-5.68-7.28-7.92-10.52-2.24-3.28-4.12-6.12-5.4-8.12-13.12-17.2-23.52-36.4-31.8-56.56-.76-1.88-1.52-3.8-2.24-5.72q-.84-2.1-1.56-4.2l-.24-.6c-.64-1.6-1.2-3.2-1.72-4.84-.92-2.56-1.76-5.16-2.6-7.8-1.64-5.24-3.16-10.52-4.56-15.88-1.4-5.32-2.68-10.72-3.8-16.2-.56-2.44-1-4.92-1.48-7.4v-.08c-.04-.04-.04-.04-.04-.08-.04-.2-.08-.44-.12-.64.4 3.08.88 6.16 1.44 9.16.24 1.28.48 2.56.72 3.8.24 1.28.52 2.52.8 3.76.64 2.96 1.32 5.88 2.08 8.72.48 1.88 1 3.72 1.48 5.52.44 1.56.92 3.12 1.36 4.64.72 2.28 1.4 4.52 2.16 6.76.16.56.32 1.12.52 1.68.84 2.52 1.68 5.04 2.52 7.52 1.84 5.4 3.72 10.68 5.52 15.92.56-.28 1.08.36 1.68 1.96 2.04 5.08 4.32 10.2 6.8 15.28 1.4 2.88 2.88 5.72 4.4 8.52q1.74 3.18 3.48 6.24a251 251 0 0 0 6.68 10.84c.72 1.08 1.44 2.16 2.16 3.2.72 1.12 1.48 2.2 2.24 3.24q1.14 1.62 2.28 3.12c.48.68.96 1.32 1.44 1.96.48.6.92 1.16 1.4 1.76.56.72 1.12 1.44 1.68 2.12 1.44 3.92 5.16 8.52 8.92 13.08.44.56.92 1.16 1.4 1.72.92 1.12 1.88 2.2 2.76 3.28 2.24 2.72 4.28 5.28 5.44 7.64-1.8.24-4.08-.64-6.68-2.36-2.64-1.76-5.6-4.28-8.52-7.44 2.72 3.44 5.36 6.76 7.84 9.96 1.24 1.64 2.44 3.2 3.64 4.76 1.2 1.52 2.44 2.96 3.68 4.32 2.04 2.2 4.96 5.16 7.76 7.64 1.4 1.24 2.68 2.44 3.76 3.48.28.24.52.52.76.76.24.2.48.44.68.68.36.4.68.8.92 1.12.08.08.08.16.08.24 0 .04 0 .08-.08.08-.04.04-.08.04-.12.08-.04 0-.12.04-.16.08-.04 0-.04.04-.04.08 0 .08 0 .12.04.2-.12-.04-.08 0 .12.2-.04-.08-.08-.08-.08-.16.52.44 3.64 3.32 4 3.48 2.76 1.92 2.44 1.36 5.28 3.96 3.76 3.32 3.6 3.36 5.64 5.88 13.16 11.36 27.68 20 42.44 29 1.48 1 4.72 2.68 4.96 2.8.16.12.28.2.4.28.16.16.24.28.24.4.04.04.04.12.08.2-.04.04 0 .08.04.16 0 .04.04.12.12.2.16.16.4.36.84.6 1.08.6.88-.24 2.48.68 5.84 3.44 12.84 6.8 19.04 9.48 15.6 6.6 34.6 13.32 48.16 16.28 1.16.36 1.2.56 1.12.72-.08.12-.24.28-.12.4-.04.04 0 .04.04.08.2.16.72.36 1.84.6 11.56 3.08 23.72 5.2 36.2 6.84 12.48 1.32 25.24 2.24 38.08 1.92 1.96.08.44 1.32 3.28 1.04 3.56.08 2.64-1.12 5.8-1.24 2 .2 3.84.48 4.92 1.04 14.84-.44 29.8-2.76 44.6-6.24 14.8-3.4 29.32-8.36 43.48-14.08h.04c3.28-1.32 6.56-2.72 9.8-4.12h.04c3.24-1.48 6.44-2.96 9.64-4.48h.04c2.4-1.16 4.76-2.36 7.08-3.56 1.76-.92 3.52-1.84 5.28-2.8 2.16-1.16 4.28-2.32 6.4-3.52 3.04-1.72 6.08-3.52 9.04-5.32 2.2-1.36 4.4-2.76 6.56-4.16 4.28-2.8 8.48-5.64 12.52-8.6 2.16-1.52 4.24-3.08 6.32-4.68 16.88-13 30.76-27.8 43.88-41.44 2-2.48 3.96-4.92 5.92-7.28 1.92-2.4 3.68-4.88 5.52-7.28.92-1.16 1.8-2.36 2.68-3.56 1.32-1.8 2.56-3.6 3.84-5.4 1.24-1.8 2.52-3.64 3.76-5.4 3.32-4.76 6.24-9.72 9.36-14.6 2.88-5 5.88-10.04 8.6-15.28 2-3.8 4-7.68 5.96-11.64 1.64-3.4 3.28-6.84 4.8-10.28.24-.56.48-1.12.72-1.64.68-1.6 1.36-3.2 2-4.8.92-2.24 1.76-4.4 2.56-6.56.4-1.08.8-2.16 1.16-3.2.64-1.88 1.24-3.72 1.8-5.48.28-.88.52-1.76.76-2.64.64-2.44 1.08-5.4 1.8-8.16 1.2-4.2 3.32-8.16 4.48-12.4 2.8-11.44 4.16-23.44 5.64-35.04.4-3.24.84-6.48 1.24-9.68.28-3.2.56-6.44.84-9.6.68-6.36.64-12.76.92-19.16v-1.92c0-.92-.04-1.76-.12-2.68m-474.56 180.8c-2.12-1.84-4.64-4.2-7-6.36-2.4-2.16-4.52-4.32-5.48-6.24-.68-.84-.48 1.76-1.92.64-1.08-2.28-2.64-4.72-5.24-8 1.48-1.56 5.88 5.52 7.6 4.48 1.96 2.48 2.84 3.8 4.6 4.12 3.96 5.12 5.84 5.32 8.8 9.24-1.84.04-.04 1.32-1.36 2.12m1.4.56c.32-.12.24-.4-.08-.84 1.96.08 2.92 3.64.08.84" class="st0"></path><path d="M393.39 279.67c-.06.67-.36 1.12-.55.52.1-.4.31-.49.55-.52M401.98 356.27c-.3.12-.42-.24-.64-.33.15-.34.7-.98.64.33M402.88 357.42c0 .79-.52.61-.64.21.04-.61.46-.06.64-.21M405.49 345.89c-.03.61-.45.06-.64.21.13-.42.49-.72.64-.21M407.16 357.48c-.18.85-.73.58-1.12.73.21-.7.6-.94 1.12-.73M411.41 298.83c-.7-.79-1.49.52-2.15-.15.57-.06 1.72-1.12 2.15.15M413.68 323.88c.12 1.33-1.33.15-1.61 1.24-.21-.12-.36-.36-.55-.61-.24.09-.48 1-.73.21.71-1.6 1.98.19 2.89-.84M416.32 278.49c-.49 1.21-1-.33-1.67.42.15-.36.36-.55.45-1.06.31 1.09.82.12 1.22.64M419.83 328.73c-.12-.03-.24-.03-.36-.03-.03-.73.03-1.18.27-1.06.09.24.13.61.09 1.09M424.17 332.61c-.09.67-.55.79-.67.49.16-.4.37-.55.67-.49M425.75 331.64c-.24.67-.76.45-1.12.73.18-.82.72-.58 1.12-.73M425.23 297.2c-.18.36-.64.79-.85.21.12-.61.58-.06.85-.21M425.23 327.52c.24 1.06-.67.88-1.03 1 .21-.7.73-.49 1.03-1M425.93 289.89c-.03.85-.42.73-.64 1.03.03-.91.4-.82.64-1.03M426.45 327.88c-.12.76-1.36.33-.49.24.12-.06.06-.27 0-.27.03-.63.42-.12.49.03M426.41 318.88c-1.15.85-2.06 0-3.34.55.58-1.21 1.88-1.3 2.61-.33.09-.18.09-.64.27-.52.43-.16 1.4.33.46.3M427.54 297.14c-.64.61-1.15.55-1.85.39.3-.79 1.33-.55 1.85-.39M427.51 331.52c-.42.73-1.06-.61-1.58.15.48-1.27 1.18-.27 1.58-.15M427.9 318.18c.06 1.18-.42.7-.73.76.18-.49.49-.55.73-.76M428.6 304.29c-1.06 1.58-3.37.39-4.28.76.12-1.06.94-.09 1.03-1.27.03-.88-.52-.15-.36-1.39.24-.09.21.52.45.3.03.45-.09.45-.09.82.45.21.73-.21 1.12-.18-.06.21-.12.42-.12.79.55-1.47 1.16.87 2.25.17M428.72 321.52c-.09.61-.52.06-.76.21.24-.67.43-.37.76-.21M429.42 325.67c-.21.09-.18-.42-.18-.85-.21-.12-.21.49-.45.24.08-.72.78-.85.63.61M429.81 326.25c0-.09.03-.18.06-.27.12.11.03.24-.06.27"></path><path d="M423.41 332.55c-1.24 1.7-2.94 2.03-4.64 2.37-.36.06.06.85-.21 1.09-.48.06-.85-.91-1.27-.94-.55 0-.76.94-1.21 1.27-.58.39-1.21-.06-1.79.39-.55.45-.97 2-1.58 1.24-.21.76-.12 1.43-.58 1.88-.06.94.48 1.49.18 2.18-.33.39-.06-.91-.27-.82-.33.18-.49.97-.67 1.58-.82-.85-1.64-.33-2.52.06-.27.33.39.85.09 1.39-.36-.7-1.49-.3-1.79.94-.97-.67-1.49.49-2.58-.21-.36-.03-.03 1.36-.21 1.36-.67.97-1.09.27-1.85.39-.42 1.06-1.24 1.64-1.85 1.21-.06 1.33.42 1.24.82 1.43-.24 1.18-.94-.18-1.21-.64-2.09 1.15-3.82 4.34-6.25 4.7-.36-.06-.52 1.55-.85.76-.12.06-.09.52 0 .55-1.33.88-4.34-.64-5.22 2.58-.39-.55.12-.39-.09-1.36-.52 1.33-1.33 0-1.67 1.79-1.36.42-2.73-1.03-3.82.79-.3-.24-.7-.18-.82-.91-.61.79-1.67 1.52-2.33.36-8.64 3-17.74 1.85-26.47 4.49-2.06-1.18-4.61.52-6.58 1.09-.64.21-1.24-1.09-1.85.42-2.79.27-6.28-.3-8.64 1.49-1.88-1.27-3.88.24-5.85.36-.82.06-1.55-.49-2.3-.18-.3.12-.64.67-.94.76-1.27.33-2.61-1.12-3.88-.61-.79.33-1.36 1.21-2.06 1.21-2.24 0-5.16-1.06-7.7.49-.67.39-1.33-.39-1.94-.15-.33.12-.7.91-1.03 1-1.18.36-2.76-.33-4 .24-.61.3-1.27-.45-1.94-.42-1.4.03-2.73 1.61-3.88.24-1.49 1.58-3.88 1.39-5.76.09-.09.18-.15.49-.18.79-1.36-.97-2.76 1.3-4.09.52-.24-.09-.24.58-.36.79-.67-.55-1.15-.15-1.79.39-2.55-1.82-4.4.91-6.55-.79-1.21 2.03-2.58.91-3.82 1.33-.36.12-.7 1.15-1.03 1.27s-.52-.52-.85-.61c-.21-.06-.45.49-.73.49-.39.03-.82-.85-1.21-.91s-.76.73-1.12.73c-.42 0-.79-.85-1.18-.91-1.03-.12-1.94 3.03-3.15.3-.79.73-1.64.58-2.61 1.15-.58.33-1.15 1.21-1.58 1.24-.27.03-.58-.55-.85-.61-1.27-.3-2.55 2.43-3.88.79-1.85 2-4.88-1.55-6.06 3.06.03 2.09-.27 3.52-.7 3.76-.45.27-.67-1.03-1.27-1.46-.76-.55-2.61-1.21-3.52-.27-.36.33-.7 1.94-1.03 2.09-.76.36-1.52-2-2.3-1.55-.55.3-1 2.06-1.24 2.09h-.03c-.73 0-1.52-2.43-1.7-3.7-.27-.21-.27.45-.55.24-.82-2.73-3.24-3.46-4.79-3.4-.24.03-.64-.21-.85-.33-2.09-1.33-3.64-5.64-5.19-9.13-.03-.85-.18-1.27-.27-1.94-.73-1.24-1.27-3-2-4.25-.12-1.73-.7-2.12-.7-4.15-.39-2.03-.88-3.58-1.33-5.58-.42-1.76-1.03-3.46-1.33-5.28-.52-2.94-.39-6.55-1.03-9.64.21-5.28-.15-10.98-.12-17.77-.06-.52-.18-.76-.18-1.43v-.21c.97-2.58.52-6.88 1.03-10.31.12-.91.58-1.49.76-2.4.42-2 .58-4.34.79-5.94 2.55-3.09 3.85-10.19 5.97-14.52.06-.12.33.03.48-.24.85-1.73 2.03-2.82 3-4.67.61-2.82 1.73-2.3 3.09-3.31.45-.36.7-.76 1.39-1 .94-.3 1.79-1.76 2.7-2.24 1.03-.55 1.94.52 2.97.52.42 0 .91-1 1.3-1 .91.03 1.43 2.85 2.12 3.46.58-.49 1.15-1.06 1.76-.12.27 2.24.18 3.97.88 5.25 1.27 1.24 2.33-7.88 2.88-1.7 1.21 3 3.18 1.82 4.79 2.3 1.12.33 2.24 1.18 3.34 1.36 1.09.15 2.15-.7 3.06.79.85-1.3 1.64.15 2.49.45 2.55.94 5.03-1.46 7.52.61 1.46-1.3 3.34-.12 4.61.91 1.67-1.46 3.18.88 4.64.64.97-.18 1.82-1.09 2.7-.88.27.06.55.61.82.61.88-.03 1.7-.97 2.61-.61.82.3 1.61 1.88 2.49.45 2.4 1.43 5.67-1.49 8.64.12.21.12.33.55.55.61 1.94.49 3.73-1.73 5.46.42 2.12-.49 4.82-.42 7.04.3 2.03-1.33 4.06-.15 6.03.18 1.49.24 3.09-.94 4.64-1 .58 0 1.12.73 1.67.7.82-.09 1.61-.97 2.43-.91 1.46.09 2.88.27 4.37.33 1.3.06 2.67-1.06 3.97-1.03.52 0 1 .94 1.49.94.33-.03.67-.64.94-.76 1.61-.64 3.73 0 5.64-.09 2.67-.15 5.15-.09 8-1.03 2.12.79 4.4-.36 6.76-.55 3-.21 6.19-.18 9.37-.64 3.4-.45 6.82-1.55 10.13-.55.12.64.3 1.03.55 1.39.33.09.24-1.24.64-1.03.33-.18.15 1.03.36 1.12 2.88.27 5.73.82 8.43 1.49.49-.03 0 .91.36 1.12 1.55-.15 3.82.61 5.73.45.79-.06 1.64.21 2.43.45.18.06.12-.58.27-.52.24.09.09.64.27.82.03.03.45 0 .64.06 1.97.67 3.88-.3 5.85.18.36.73.33.79.91.91.45.09.36-.15.76-.49.06-.06.45-.12.58-.21.12.12-.03.64.06.79.36.7 1.55-.24 2.21-.09.85.21 1.79 1.21 2.79 1.03-.97.79-1.76 2.21-2 5.31.94 2 2.76-.3 3.7 1.67 2.24-1.06 5.06-1.09 7.61-.76.21.06.3-.21.27-.82 2.61 1.21 5.28-.52 8.16.12-5.19 1.49-10.22.7-15.31 2.61-1.12-.45-4.09-.76-5.82-.45-1.06.18-1.58 2.43-1.09 5.64 1.36 1.7 2.52-.21 3.79.58.24 1.15.49 2.18.15 3.55-2.64 1.43-5.67-.33-7.79 2.12-.36-.61-.79-.15-1.21-.09-.24.58-.36 1.46-.58 2.12.09.58.27.85.27 1.67 2.52 0 4.46 4.82 7.1 3.85.36 1.24.73 2.46 1.09 3.61.82-.27 2.09-.06 3.15-.82.24-.18.18.58.27.82 2.52-.64 4.79-1.61 6.94 0-1.88.67-3.88-.03-5.64.67-.3.24-.39 1-.58 1.58-1.58-.79-3.94.18-5.85-.18-.27.97-.33 3.09.45 3.03-.24.64-.33.3-.67.21 0 .49.06.73.18.85-1.03.09-1.21.18-2.21.09-.21.21-.27 1.43-.12 1.91.85-.33 1.61.67 2.4.73.48.03.79-.88 1.21-1 .21-.06.21.55.45.61.24 0 .58-.76.76-.76.24-.03.36.49.64.58 1 .36 2.06-1.33 3.06-1.12.79.18 1.52 2.09 2.43 1.55-.36 1.73-1 .64-1.61.7-1.97.24-4.28 2.37-5.94 2.27-.21 1.39.18 1.94.33 3.03.58-.42.94-.21 1.39-.45.27-.24-.12-.73.12-1.06 1.24-.03 2.37-.73 3.79-.82.15 1.03.52 1.03.27 2.49.18-.09.24.21.36.3.36.12-.03-.36.09-1.09.27 1.67.76-.3 1.03.91 1.64-1.86 3.06.42 4.98-1.74M430.72 304.2c-.45 1.12-1.24-.57 0 0M432.51 292.59c-.15 0-.3 0-.49-.03-.12-.85.64-.79.49.03M432.96 293.98c-.3.36-1.03.42-1.21.18.37-.54.76-.39 1.21-.18M432.24 290.4c.15-.49.42-.61.58-1.06.08.06-.4 1.79-.58 1.06M433.57 277.67c-.06.67-.55.79-.67.49.16-.55.43-.7.67-.49M434.78 326.91c-.7.76-2.18-1.12-2.7.61-.12-.3-.33-.3-.45-.61-1.64 1.73-3.4-.12-5.09.97.73-2.82 2.36.85 3.27-1.64.76-.06 2.06.58 3.03-1.12v1.09c.61-.06 1.55-.33 1.94.7M436.18 279.03c0 .18-.21.42-.7.42.43-.66.7-.6.7-.42"></path><path d="M393.39 279.67c-.06.67-.36 1.12-.55.52.1-.4.31-.49.55-.52M401.98 356.27c-.3.12-.42-.24-.64-.33.15-.34.7-.98.64.33M402.88 357.42c0 .79-.52.61-.64.21.04-.61.46-.06.64-.21M405.49 345.89c-.03.61-.45.06-.64.21.13-.42.49-.72.64-.21M407.16 357.48c-.18.85-.73.58-1.12.73.21-.7.6-.94 1.12-.73M411.41 298.83c-.7-.79-1.49.52-2.15-.15.57-.06 1.72-1.12 2.15.15M413.68 323.88c.12 1.33-1.33.15-1.61 1.24-.21-.12-.36-.36-.55-.61-.24.09-.48 1-.73.21.71-1.6 1.98.19 2.89-.84M419.83 328.73c-.12-.03-.24-.03-.36-.03-.03-.73.03-1.18.27-1.06.09.24.13.61.09 1.09M426.41 318.88c-1.15.85-2.06 0-3.34.55.58-1.21 1.88-1.3 2.61-.33.09-.18.09-.64.27-.52.43-.16 1.4.33.46.3M424.17 332.61c-.09.67-.55.79-.67.49.16-.4.37-.55.67-.49M425.23 297.2c-.18.36-.64.79-.85.21.12-.61.58-.06.85-.21M425.23 327.52c.24 1.06-.67.88-1.03 1 .21-.7.73-.49 1.03-1M425.75 331.64c-.24.67-.76.45-1.12.73.18-.82.72-.58 1.12-.73M425.93 289.89c-.03.85-.42.73-.64 1.03.03-.91.4-.82.64-1.03M427.54 297.14c-.64.61-1.15.55-1.85.39.3-.79 1.33-.55 1.85-.39M427.51 331.52c-.42.73-1.06-.61-1.58.15.48-1.27 1.18-.27 1.58-.15M427.9 318.18c.06 1.18-.42.7-.73.76.18-.49.49-.55.73-.76M428.72 321.52c-.09.61-.52.06-.76.21.24-.67.43-.37.76-.21M429.42 325.67c-.21.09-.18-.42-.18-.85-.21-.12-.21.49-.45.24.08-.72.78-.85.63.61M430.72 304.2c-.45 1.12-1.24-.57 0 0M432.96 293.98c-.3.36-1.03.42-1.21.18.37-.54.76-.39 1.21-.18M432.51 292.59c-.15 0-.3 0-.49-.03-.12-.85.64-.79.49.03M433.57 277.67c-.06.67-.55.79-.67.49.16-.55.43-.7.67-.49M436.18 279.03c0 .18-.21.42-.7.42.43-.66.7-.6.7-.42M416.32 278.49c-.49 1.21-1-.33-1.67.42.15-.36.36-.55.45-1.06.31 1.09.82.12 1.22.64M428.6 304.29c-1.06 1.58-3.37.39-4.28.76.12-1.06.94-.09 1.03-1.27.03-.88-.52-.15-.36-1.39.24-.09.21.52.45.3.03.45-.09.45-.09.82.45.21.73-.21 1.12-.18-.06.21-.12.42-.12.79.55-1.47 1.16.87 2.25.17M426.45 327.88c-.12.76-1.36.33-.49.24.12-.06.06-.27 0-.27.03-.63.42-.12.49.03M429.81 326.25c0-.09.03-.18.06-.27.12.11.03.24-.06.27" class="st0"></path><path d="M434.78 326.91c-.7.76-2.18-1.12-2.7.61-.12-.3-.33-.3-.45-.61-1.64 1.73-3.4-.12-5.09.97.73-2.82 2.36.85 3.27-1.64.76-.06 2.06.58 3.03-1.12v1.09c.61-.06 1.55-.33 1.94.7M432.24 290.4c.15-.49.42-.61.58-1.06.08.06-.4 1.79-.58 1.06M418.39 334.34c-.28-1.2-.76.76-1-.92-.16.72.24 1.24-.12 1.12-.12-.12-.16-.4-.36-.32.24-1.44-.12-1.44-.28-2.48-1.4.08-2.52.8-3.76.8-.24.36.12.84-.12 1.08-.48.24-.84.04-1.4.44-.16-1.08-.56-1.64-.36-3.04 1.68.12 4-2 5.96-2.24.6-.08 1.24 1 1.6-.72-.92.56-1.64-1.36-2.44-1.56-1-.2-2.04 1.52-3.04 1.12-.28-.08-.4-.6-.64-.56-.2 0-.52.76-.76.76-.24-.08-.24-.68-.44-.6-.44.12-.76 1.04-1.24 1-.76-.08-1.52-1.08-2.4-.72-.12-.48-.08-1.72.12-1.92 1 .08 1.2 0 2.24-.08-.12-.12-.2-.36-.2-.88.36.12.44.44.68-.2-.8.08-.72-2.04-.44-3.04 1.88.36 4.24-.6 5.84.2.16-.6.28-1.36.56-1.6 1.76-.68 3.76 0 5.64-.64-2.16-1.6-4.4-.64-6.92 0-.12-.24-.04-1-.28-.84-1.08.76-2.36.56-3.16.84q-.54-1.74-1.08-3.6c-2.64.96-4.6-3.88-7.12-3.88 0-.8-.16-1.08-.24-1.64.2-.68.32-1.56.56-2.12.44-.08.84-.52 1.2.08 2.12-2.48 5.16-.72 7.8-2.12.32-1.36.08-2.4-.16-3.56-1.28-.8-2.4 1.12-3.76-.56-.52-3.24 0-5.48 1.08-5.64 1.72-.32 4.68 0 5.8.44 5.12-1.92 10.16-1.12 15.32-2.6-2.88-.64-5.56 1.08-8.16-.12.04.6-.04.88-.28.8-2.52-.32-5.36-.28-7.6.76-.92-1.96-2.76.36-3.68-1.68.24-3.08 1-4.48 2-5.28-1 .16-1.96-.84-2.8-1.04-.68-.16-1.84.8-2.2.08-.12-.12.04-.64-.08-.76-.12.08-.52.12-.56.2-.4.32-.32.56-.76.48-.6-.12-.56-.16-.92-.92-1.96-.48-3.88.48-5.84-.16-.2-.08-.6-.04-.64-.08-.2-.16-.04-.72-.28-.8-.16-.08-.08.56-.28.52-.8-.24-1.64-.52-2.44-.48-1.88.16-4.16-.6-5.72-.44-.36-.2.12-1.16-.36-1.12-2.68-.68-5.56-1.2-8.44-1.48-.2-.12 0-1.32-.36-1.12-.4-.24-.28 1.12-.64 1-.24-.36-.4-.72-.52-1.36-3.32-1-6.76.08-10.12.52-3.2.48-6.4.44-9.4.64-2.36.2-4.64 1.36-6.76.56-2.84.92-5.32.88-8 1.04-1.92.08-4.04-.56-5.64.08-.28.12-.6.72-.92.76-.52 0-1-.96-1.52-.96-1.28 0-2.64 1.12-3.96 1.04-1.48-.04-2.92-.24-4.36-.32-.8-.08-1.6.8-2.44.88-.52.04-1.08-.68-1.64-.68-1.56.08-3.16 1.24-4.64 1-2-.32-4-1.52-6.04-.16-2.24-.76-4.92-.8-7.04-.32-1.72-2.16-3.52.04-5.48-.44-.2-.04-.32-.48-.52-.6-2.96-1.6-6.24 1.32-8.64-.12-.88 1.44-1.68-.16-2.48-.44-.92-.36-1.76.56-2.64.6-.24 0-.52-.56-.8-.6-.88-.24-1.72.68-2.72.88-1.44.24-2.96-2.12-4.6-.64-1.28-1.04-3.16-2.24-4.64-.92-2.48-2.04-4.96.32-7.52-.6-.84-.32-1.64-1.76-2.48-.44-.92-1.52-1.96-.64-3.04-.8-1.12-.2-2.24-1.04-3.36-1.36-1.6-.48-3.56.68-4.8-2.32-.52-6.2-1.6 2.96-2.88 1.72-.68-1.28-.6-3-.88-5.28-.6-.92-1.16-.36-1.76.12-.68-.6-1.2-3.4-2.12-3.44-.36 0-.88 1-1.28 1-1.04 0-1.96-1.04-3-.52-.88.48-1.72 1.96-2.68 2.24-.68.24-.92.64-1.4 1-1.36 1-2.48.48-3.08 3.32-.96 1.84-2.16 2.92-3 4.68-.16.24-.44.12-.48.24-2.12 4.32-3.44 11.4-6 14.52-.2 1.6-.36 3.92-.76 5.92-.2.92-.64 1.52-.76 2.4-.52 3.44-.08 7.76-1.04 10.32v.2c0 .68.12.92.16 1.44 0 6.8.36 12.48.12 17.76.64 3.12.52 6.72 1.04 9.64.32 1.84.92 3.52 1.36 5.28.44 2 .92 3.56 1.32 5.6 0 2 .56 2.4.68 4.16.76 1.24 1.28 3 2 4.24.12.64.24 1.08.28 1.92 1.56 3.48 3.12 7.8 5.2 9.12.2.12.6.36.84.36 1.56-.08 3.96.64 4.8 3.4.28.2.28-.48.52-.24.2 1.24 1 3.68 1.72 3.68h.04c.24-.04.68-1.8 1.24-2.08.76-.48 1.52 1.88 2.28 1.52.36-.12.68-1.76 1.04-2.08.92-.92 2.76-.28 3.52.28.6.4.84 1.72 1.28 1.44.44-.24.72-1.64.68-3.76 1.2-4.6 4.24-1.04 6.08-3.04 1.32 1.64 2.6-1.12 3.88-.8.28.04.56.64.84.6.44-.04 1-.92 1.6-1.24.96-.56 1.8-.44 2.6-1.16 1.2 2.72 2.12-.4 3.16-.28.4.04.76.88 1.16.88.36 0 .72-.76 1.12-.72.4.08.84.96 1.24.92.24 0 .52-.56.72-.48.32.08.52.72.84.6s.68-1.16 1.04-1.28c1.24-.4 2.6.72 3.8-1.32 2.16 1.68 4-1.04 6.56.76.64-.52 1.12-.92 1.8-.36.12-.24.12-.88.36-.8 1.32.8 2.72-1.48 4.08-.52.04-.32.12-.6.2-.8 1.88 1.32 4.28 1.48 5.76-.08 1.16 1.36 2.48-.2 3.88-.24.68-.04 1.32.72 1.92.44 1.24-.6 2.84.12 4-.24.36-.12.72-.88 1.04-1 .6-.28 1.28.52 1.96.12 2.52-1.52 5.44-.48 7.68-.48.72 0 1.28-.88 2.08-1.2 1.28-.52 2.6.92 3.88.6.28-.08.64-.64.92-.76.76-.32 1.52.24 2.32.2 1.96-.12 3.96-1.64 5.84-.36 2.36-1.8 5.88-1.24 8.64-1.52.64-1.52 1.24-.2 1.88-.4 1.96-.6 4.52-2.28 6.56-1.12 8.72-2.6 17.84-1.48 26.48-4.48.68 1.16 1.72.44 2.32-.36.12.72.52.68.84.92 1.08-1.84 2.44-.36 3.8-.8.36-1.76 1.16-.44 1.68-1.76.2.96-.32.8.08 1.36.88-3.24 3.88-1.72 5.24-2.6-.12-.04-.12-.48 0-.52.32.76.48-.84.84-.76 2.4-.4 4.16-3.56 6.24-4.72.28.44.96 1.84 1.2.64-.4-.2-.88-.08-.8-1.44.6.44 1.4-.12 1.84-1.2.76-.12 1.2.56 1.84-.4.2 0-.12-1.4.24-1.36 1.08.72 1.6-.44 2.56.2.32-1.24 1.44-1.64 1.8-.92.28-.56-.36-1.08-.08-1.4.84-.4 1.68-.92 2.48-.08.2-.6.36-1.36.68-1.56.2-.08-.04 1.2.28.84.32-.72-.24-1.28-.2-2.2.48-.44.36-1.12.6-1.88.6.76 1.04-.8 1.56-1.24.6-.44 1.24 0 1.8-.4.44-.32.68-1.28 1.2-1.28.44.04.8 1 1.28.96.28-.24-.16-1.04.2-1.12 1.72-.32 3.4-.64 4.64-2.36-1.88 2.16-3.32-.12-5 1.8m-9.4 3.08c0 .32 0 .48.12.56-.24 1.32-.64-.6-.12-.56m2.88 1.32c-.44-.2-.64-.28-.88.76-.88-.76-1.04.64-1.76-.16.2-1.28-.12-.96-.04-2.44.8-.12 1.84-1.36 2.4-.36.16 0-.12-1.56.12-1.88.32.64.72 1.16 1.28 1.16.04 2.28-1.08.92-1.12 2.92" class="st0"></path></svg></svg></g></g></svg></g></svg>