<svg xmlns="http://www.w3.org/2000/svg" xml:space="preserve" viewBox="0 0 1500 1500"><path fill="#0A97D9" d="M1501 572v928.961H1.101V1.163H1501zM897.461 921.008c-19.192-1.837-38.364-4.903-57.582-5.23-31.169-.53-61.53 5.773-91.28 14.913-56.802 17.452-108.747 44.883-157.995 77.62-19.936 13.252-39.07 27.712-58.788 41.778-.38-.579-1.098-1.663-1.806-2.754-7.054-10.886-13.529-22.205-21.265-32.582-27.336-36.669-60.663-66.175-103.3-84.156-18.232-7.689-37.227-12.39-56.91-14.156-2.15-.193-5.196.791-6.457 2.343-.976 1.2-.07 4.212.489 6.288.416 1.547 1.622 2.878 2.458 4.317 19.146 32.937 34.521 67.49 44.48 104.336 8.55 31.638 12.127 63.674 7.872 96.406-4.656 35.823-15.677 69.733-30.868 102.296-7.3 15.649-16.027 30.628-23.908 46.013-.927 1.81-1.38 4.67-.569 6.311.658 1.332 3.502 1.72 5.455 2.22 1.075.277 2.318-.021 3.475-.152 29.91-3.373 57.716-12.963 83.281-28.79 40.567-25.116 71.338-59.562 95.035-100.648.891-1.545 1.81-3.075 2.647-4.494 14.5 10.672 28.464 21.445 42.925 31.503 50.068 34.82 102.94 64.366 160.886 84.15 32.941 11.246 66.666 18.694 101.59 19.231 51.133.787 99.244-11.78 144.704-34.627 69-34.676 124.949-84.95 172.172-145.471 4.451-5.706 4.372-6.252-.061-12.06-18.132-23.754-38.19-45.777-60.067-66.11-56.28-52.307-119.335-92.439-196.613-108.495M741.292 597.525c-3.511 3.07-6.931 6.251-10.549 9.189-25.874 21.01-55.317 32.519-88.831 31.663-40.763-1.042-76.255-16.908-108.527-40.775-4.024-2.976-6.433-2.624-9.823.541-4.982 4.652-10.21 9.09-15.665 13.175-25.45 19.059-54.097 29.09-85.94 29.093-26.237.002-51.03-6.524-74.54-18.083-5.353-2.631-8.317-.828-8.4 5.105-.084 5.832-.02 11.666-.02 17.5 0 19.314-.045 19.38 16.084 30.425 25.527 17.479 53.476 25.114 84.275 19.586 31.353-5.627 57.308-21.614 80.204-43.11 4.508-4.234 5.914-4.24 10.41-.327 5.776 5.025 11.512 10.15 17.692 14.645 30.879 22.464 65.136 31.942 103.183 25.954 33.948-5.342 63.402-20.518 89.935-41.811 3.15-2.528 5.285-2.921 8.556-.19 15.7 13.105 33.1 23.476 52.02 31.244 31.082 12.762 62.913 16.749 95.684 7.484 23.716-6.705 43.99-19.494 62.014-36.068 6.268-5.764 6.493-5.697 12.533-.04 11.48 10.749 24.056 20.003 37.91 27.5 19.364 10.477 39.918 16.83 62.042 16.474 29.067-.47 53.81-12.212 75.833-30.519 2.64-2.194 3.943-4.526 3.87-8.071-.207-9.996-.043-19.999-.083-29.999-.029-7.019-2.583-8.462-9.053-5.408-37.288 17.604-75.773 23.526-115.916 11.254-22.877-6.993-42.52-19.59-59.784-35.995-2.722-2.585-5.121-3.879-8.638-1.096-16.046 12.699-33.818 22.46-52.861 29.8-31.403 12.102-63.443 16.07-96.328 6.386-22.167-6.527-41.186-18.45-57.989-34.1-2.602-2.424-5.102-4.47-9.298-1.426m237.672 136.029c-4.41-3.807-8.892-7.533-13.201-11.449-2.613-2.374-4.957-2.842-7.913-.517-16.88 13.276-35.54 23.43-55.643 30.855-34.724 12.825-69.685 15.356-104.819 1.532-17.577-6.916-32.901-17.371-46.73-30.131-4.556-4.204-6.507-4.171-10.985-.102-2.341 2.128-4.686 4.257-7.119 6.277-29.55 24.546-63.294 36.38-101.792 32.474-36.766-3.73-69.08-18.708-98.297-40.829-2.97-2.248-5.312-2.07-7.918.376-3.155 2.961-6.354 5.892-9.7 8.632-26.353 21.575-56.235 33.826-90.604 34.345-27.021.408-52.377-6.136-76.569-17.819-5.697-2.751-8.614-.966-8.66 5.265-.064 8.665.466 17.366-.168 25.984-.514 6.982 2.168 11.244 7.53 15.41 30.261 23.515 63.667 33.49 101.544 24.042 27.647-6.896 50.906-21.762 71.455-41.14 4.918-4.639 5.804-4.68 10.697-.329 4.602 4.093 9.202 8.22 14.093 11.95 33.086 25.231 70.007 35.358 111.265 27.656 32.156-6.003 60.222-20.703 85.48-41.076 3.248-2.62 5.37-2.618 8.573.059 14.652 12.244 30.872 22.057 48.384 29.627 30.274 13.086 61.538 18.023 94.071 10.242 26.242-6.276 48.42-19.95 67.995-38.19 5.1-4.752 6.084-4.685 11.059.134 11.313 10.957 23.93 20.187 37.718 27.748 19.578 10.735 40.401 17.215 62.93 16.835 29.313-.496 54.14-12.373 76.051-31.04 1.84-1.567 3.233-4.662 3.323-7.103.37-9.985.175-19.99.148-29.989-.02-7.376-2.526-8.976-9.216-5.756-21.246 10.225-43.549 16.455-67.154 17.434-35.55 1.475-67.203-9.283-95.828-31.407M209.94 297.377c-1.152 5.275-2.776 10.503-3.327 15.84-.578 5.608-.13 11.32-.13 16.987v18.287h86.559v67.687h49.865v-67.733h28.177v-41.582h-28.176V129.78c-2.017-.113-3.64-.281-5.262-.283-17.166-.019-34.333.109-51.497-.105-3.805-.048-5.437 1.296-6.882 4.712-22.933 54.222-46.02 108.379-69.327 163.273M182.84 196.5v-67.013c-10.412 0-20.382.33-30.32-.105-7.92-.347-15.111.24-20.618 6.895-1.33 1.607-3.38 2.726-5.273 3.741-12.155 6.519-24.383 12.9-36.515 19.46-1.53.827-3.746 2.406-3.774 3.678-.281 12.74-.17 25.49-.17 38.833 14.217-5.11 27.74-9.97 41.9-15.057v229.257h54.77zm599.17 152.824-6.854-40.54h-13.724l-10.804 64.527-1.336-.12-8.28-64.31h-17.066l15.61 109.088h16.762l11.72-69.254.834.017 11.745 69.103h16.332l15.613-109.127h-16.717l-8.474 65.671q-.53-.06-1.06-.123a6344 6344 0 0 1-4.301-24.932m122.227.745c-1.766-10.668-3.566-21.33-5.29-32.003-1.6-9.909-1.562-9.82-11.557-9.651-2.829.047-4.055.77-4.504 3.805-1.829 12.342-3.955 24.64-6.012 36.947-1.365 8.168-2.799 16.324-4.202 24.485l-1.19-.037-8.356-64.899h-16.778c.076 1.222.07 2.195.205 3.149 4.444 31.134 8.97 62.256 13.325 93.402 1.918 13.719 1.769 13.826 15.384 12.774 1.32-.102 3.353-1.938 3.598-3.243 2.245-11.934 4.161-23.93 6.186-35.907 1.69-9.994 3.398-19.984 5.097-29.976 1.06 1.323 1.446 2.586 1.663 3.877 3.42 20.341 6.815 40.686 10.223 61.03.345 2.056.08 4.484 3.414 4.383 4.455-.135 8.918-.033 13.603-.033l15.607-109.4h-16.7l-8.356 65.035-1.215-.027a7490 7490 0 0 0-4.145-23.711m-417.619 68.114c9.33-.002 18.666.2 27.99-.065 9.487-.268 17.739-3.58 22.723-12.15 5.574-9.587 5.679-20.026 3.26-30.522-1.889-8.192-7.431-13.257-15.565-15.932 10.484-5.765 13.134-10.11 13.796-22.135.76-13.79-5.215-24.73-17.316-26.765-13.608-2.289-27.64-2.053-41.666-2.927v110.496zm167.374-71.674c0 9.323-.132 18.648.042 27.967.134 7.138.087 14.351 1.122 21.383 1.893 12.855 9.032 20.751 20.46 22.806 5.162.928 10.63 1.12 15.85.587 14.276-1.455 23.387-8.408 24.304-22.629 1.439-22.303 1.056-44.809-.04-67.156-.532-10.869-7.79-18.641-19.07-20.99-4.673-.974-9.604-1.456-14.356-1.162-16.818 1.04-25.006 8.649-27.533 25.275-.646 4.25-.54 8.613-.78 13.92m515.015-8.035c-.009-17.55-6.123-26.768-21.874-28.68-12.417-1.507-25.164-.303-38.035-.303v108.414h20.014v-49.347c8.379-.843 8.37-.841 10.257 6.318 3.475 13.182 6.901 26.377 10.524 39.518.391 1.418 1.887 3.527 2.974 3.592 5.903.355 11.84.169 18.203.169l-15.048-53.629c10.564-5.203 12.815-14.629 12.985-26.052m-186.646-4.427c-1.491-7.501-2.852-15.033-4.6-22.474-.29-1.233-2.23-2.883-3.48-2.948-5.948-.31-11.92-.139-18.134-.139L933.901 417.94h19.066l4.518-24.605h18.725c1.296 7.31 2.446 14.362 3.876 21.357.26 1.272 1.606 3.248 2.544 3.302 5.426.317 10.88.155 16.797.155-5.689-28.224-11.24-55.76-17.068-84.1m-431.9 14.45v69.342h46.3v-13.72h-25.54v-35.74h19.603v-14.6h-19.59v-31.1h25.322v-14.186c-14.757 0-29.22-.075-43.676.192-.832.016-2.285 2.804-2.31 4.322-.196 11.494-.108 22.993-.108 35.49m528.165 5.482c-1.014-.728-2.894-1.438-2.91-2.188-.2-9.447-.132-18.9-.132-28.888h25.204v-14.108h-45.364V417.93h46.023v-14.003h-25.568V368.4h19.869v-14.416c-5.552 0-10.845 0-17.122-.003m-421.27-165.993v-13.122h-20.077v-31.092h25.224v-14.359h-45.36v109.486h45.643v-13.937h-25.49V188.78c6.72 0 13.16 0 20.06-.792m-92.212 47.123c.713 1.347 1.364 3.82 2.15 3.863 5.933.327 11.893.179 18.478.179V189.02h19.43v-14.155h-19.21v-31.33c7.256 0 14.072.14 20.873-.124 1.252-.049 3.37-1.621 3.493-2.675.43-3.72.167-7.522.167-11.226h-45.381zM1012.821 398.5v19.363h20.293v-94.454h17.494v-14.534h-55.8v14.737h18.013zM511.488 239.188h14.104v-14.18H499.78v-95.553h-19.99v109.733zm96.429 69.275c-3.775-.551-3.807 1.824-3.804 4.575.046 33.615.027 67.23.04 100.844 0 1.293.155 2.585.25 4.079h46.093v-13.937H624.54v-42.411c0-16.142-.106-32.285.079-48.424.042-3.73-1.049-5.09-4.805-4.791-3.638.289-7.317.062-11.897.065m-74.77-178.572c-.107 1.32-.308 2.64-.309 3.96-.017 33.824-.015 67.647-.005 101.47 0 1.122.108 2.243.17 3.472h19.537V129.307c-6.412 0-12.53 0-19.392.584"/><path fill="#FFF" d="M897.883 921.073c76.856 15.991 139.912 56.123 196.19 108.43 21.878 20.333 41.936 42.356 60.068 66.11 4.433 5.808 4.512 6.354.06 12.06-47.222 60.52-103.171 110.795-172.17 145.471-45.46 22.846-93.572 35.414-144.704 34.627-34.925-.537-68.65-7.985-101.591-19.231-57.947-19.784-110.818-49.33-160.886-84.15-14.46-10.058-28.424-20.83-42.925-31.503-.836 1.419-1.756 2.949-2.647 4.494-23.697 41.086-54.468 75.532-95.035 100.647-25.565 15.828-53.37 25.418-83.281 28.791-1.157.131-2.4.429-3.475.152-1.953-.5-4.797-.888-5.455-2.22-.81-1.641-.358-4.5.57-6.311 7.88-15.385 16.608-30.364 23.907-46.013 15.19-32.563 26.212-66.473 30.868-102.296 4.255-32.732.678-64.768-7.873-96.406-9.958-36.845-25.333-71.399-44.479-104.336-.836-1.439-2.042-2.77-2.458-4.317-.558-2.076-1.465-5.087-.489-6.288 1.26-1.552 4.308-2.536 6.458-2.343 19.682 1.767 38.677 6.467 56.909 14.156 42.637 17.98 75.964 47.487 103.3 84.156 7.736 10.377 14.21 21.696 21.265 32.582.708 1.091 1.426 2.175 1.806 2.754 19.718-14.066 38.852-28.526 58.788-41.779 49.248-32.736 101.193-60.167 157.994-77.619 29.75-9.14 60.112-15.442 91.281-14.913 19.218.327 38.39 3.393 58.004 5.295m63.404 106.056c-10.547-5.401-21.576-7.311-33.353-5.17-26.985 4.907-45.2 31.948-39.753 59.26 5.328 26.719 32.379 44.734 58.797 39.16 20.66-4.36 36.473-20.39 39.893-40.438 3.6-21.1-5.818-40.882-25.584-52.812"/><path fill="#FEFEFF" d="M741.588 597.292c3.9-2.811 6.4-.765 9.002 1.659 16.803 15.65 35.822 27.573 57.99 34.1 32.884 9.684 64.924 5.716 96.327-6.387 19.043-7.339 36.815-17.1 52.861-29.799 3.517-2.783 5.916-1.49 8.638 1.096 17.264 16.406 36.907 29.002 59.784 35.995 40.143 12.272 78.628 6.35 115.916-11.254 6.47-3.054 9.024-1.611 9.053 5.408.04 10-.124 20.003.082 29.999.074 3.545-1.23 5.877-3.869 8.071-22.023 18.307-46.766 30.05-75.833 30.519-22.124.357-42.678-5.997-62.042-16.475-13.854-7.496-26.43-16.75-37.91-27.5-6.04-5.656-6.265-5.723-12.533.04-18.024 16.575-38.298 29.364-62.014 36.069-32.77 9.265-64.602 5.278-95.683-7.484-18.92-7.768-36.321-18.139-52.02-31.245-3.272-2.73-5.407-2.337-8.557.19-26.533 21.294-55.987 36.47-89.935 41.812-38.047 5.988-72.304-3.49-103.183-25.954-6.18-4.496-11.916-9.62-17.691-14.645-4.497-3.912-5.903-3.907-10.411.326-22.896 21.497-48.85 37.484-80.204 43.11-30.799 5.529-58.748-2.106-84.275-19.585-16.13-11.045-16.084-11.111-16.084-30.425 0-5.834-.064-11.668.02-17.5.083-5.933 3.047-7.736 8.4-5.105 23.51 11.559 48.303 18.085 74.54 18.083 31.843-.003 60.49-10.034 85.94-29.093 5.455-4.085 10.683-8.523 15.665-13.175 3.39-3.165 5.799-3.517 9.823-.54 32.272 23.866 67.764 39.732 108.527 40.774 33.514.856 62.957-10.652 88.831-31.663 3.618-2.938 7.038-6.12 10.845-9.422M979.243 733.777c28.346 21.901 59.998 32.659 95.549 31.184 23.605-.979 45.908-7.21 67.154-17.434 6.69-3.22 9.197-1.62 9.216 5.756.027 9.998.223 20.004-.148 29.989-.09 2.441-1.483 5.536-3.323 7.103-21.912 18.667-46.738 30.544-76.051 31.04-22.529.38-43.352-6.1-62.93-16.835-13.789-7.561-26.405-16.79-37.718-27.748-4.975-4.819-5.959-4.886-11.06-.133-19.574 18.239-41.752 31.913-67.994 38.19-32.533 7.78-63.797 2.843-94.07-10.243-17.513-7.57-33.733-17.383-48.385-29.627-3.203-2.677-5.325-2.68-8.573-.06-25.258 20.374-53.324 35.074-85.48 41.077-41.258 7.702-78.18-2.425-111.265-27.655-4.891-3.73-9.49-7.858-14.093-11.95-4.893-4.352-5.779-4.31-10.697.328-20.549 19.378-43.808 34.244-71.455 41.14-37.877 9.447-71.283-.527-101.544-24.041-5.362-4.167-8.044-8.429-7.53-15.41.634-8.62.104-17.32.168-25.985.046-6.231 2.963-8.016 8.66-5.265 24.192 11.683 49.548 18.227 76.569 17.82 34.369-.52 64.25-12.771 90.604-34.346 3.346-2.74 6.545-5.67 9.7-8.632 2.606-2.447 4.948-2.624 7.918-.376 29.218 22.121 61.531 37.099 98.297 40.829 38.498 3.906 72.242-7.928 101.792-32.474 2.433-2.02 4.778-4.15 7.119-6.277 4.478-4.07 6.43-4.102 10.985.102 13.829 12.76 29.153 23.215 46.73 30.13 35.134 13.825 70.095 11.294 104.819-1.53 20.103-7.425 38.763-17.58 55.643-30.856 2.956-2.325 5.3-1.857 7.913.517 4.309 3.916 8.791 7.642 13.48 11.672"/><path fill="#FDFEFF" d="M210.069 297.016c23.179-54.533 46.266-108.69 69.2-162.912 1.444-3.416 3.076-4.76 6.881-4.712 17.164.214 34.331.086 51.497.105 1.623.002 3.245.17 5.262.283v177.083h28.176v41.582h-28.177v67.733h-49.865v-67.687h-86.558v-18.287c0-5.667-.45-11.38.13-16.986.55-5.338 2.174-10.566 3.454-16.202m82.928-40.516v-67.419l-1-.102-42.08 117.71h43.08zM182.84 197v219.19h-54.77V186.931l-41.902 15.057c0-13.343-.11-26.092.171-38.833.028-1.272 2.244-2.851 3.774-3.678 12.132-6.56 24.36-12.941 36.515-19.46 1.894-1.015 3.943-2.134 5.273-3.741 5.507-6.654 12.698-7.242 20.619-6.895 9.937.436 19.907.105 30.32.105z"/><path fill="#FAFDFE" d="M782.066 349.755c1.452 8.454 2.848 16.477 4.243 24.5l1.061.124 8.474-65.671h16.717l-15.613 109.127h-16.332l-11.745-69.103-.834-.017-11.72 69.254h-16.762l-15.61-109.087h17.066l8.28 64.31 1.336.12 10.804-64.529h13.724c2.268 13.416 4.56 26.978 6.91 40.972M904.324 350.495c1.411 8.047 2.734 15.666 4.057 23.285l1.215.027 8.355-65.036h16.7l-15.606 109.4c-4.685 0-9.148-.1-13.603.034-3.334.101-3.07-2.327-3.414-4.384-3.408-20.343-6.803-40.688-10.223-61.029-.217-1.291-.603-2.554-1.663-3.877-1.7 9.992-3.407 19.982-5.097 29.976-2.025 11.976-3.94 23.973-6.186 35.907-.245 1.305-2.279 3.141-3.598 3.243-13.615 1.052-13.466.945-15.384-12.774-4.355-31.146-8.881-62.268-13.325-93.402-.136-.954-.129-1.927-.205-3.149h16.778l8.356 64.9 1.19.036c1.403-8.161 2.837-16.317 4.202-24.485 2.057-12.307 4.183-24.605 6.012-36.947.45-3.034 1.675-3.758 4.504-3.805 9.995-.168 9.957-.258 11.557 9.65 1.724 10.675 3.524 21.336 5.378 32.43"/><path fill="#F8FCFE" d="M486.135 418.183h-6.296V307.687c14.027.874 28.058.638 41.666 2.927 12.1 2.035 18.075 12.974 17.316 26.765-.662 12.025-3.312 16.37-13.796 22.135 8.134 2.675 13.676 7.74 15.564 15.932 2.42 10.496 2.315 20.935-3.26 30.521-4.983 8.57-13.235 11.883-22.723 12.151-9.323.264-18.658.063-28.47.065m13.713-42.649v28.446c7.828-.311 16.203 2.04 20.249-6.091 3.992-8.025 4.078-17.046-.873-24.792-4.388-6.865-11.966-5.589-19.376-5.368zm5.538-22.38c5.562-.23 11.46-.211 13.877-6.56 2.497-6.561 3.666-13.793-1.047-19.534-4.569-5.564-11.638-4.225-18.03-4.045v30.14z"/><path fill="#FAFDFE" d="M653.99 346.012c.24-4.809.134-9.173.78-13.422 2.527-16.626 10.715-24.234 27.533-25.275 4.752-.294 9.683.188 14.356 1.161 11.28 2.35 18.538 10.122 19.07 20.991 1.096 22.347 1.479 44.853.04 67.156-.917 14.22-10.028 21.174-24.303 22.629-5.222.532-10.689.341-15.852-.587-11.427-2.055-18.566-9.951-20.459-22.806-1.035-7.032-.988-14.245-1.122-21.383-.174-9.319-.042-18.644-.042-28.464m23.124-20.21c-.867 4.345-2.403 8.678-2.483 13.038-.297 16.327-.14 32.663-.095 48.995.007 2.49.144 5.008.536 7.462 1.128 7.041 5.82 10.28 12.878 9.065 6.192-1.064 8.828-5.115 8.86-14.09.062-17.332.025-34.665.009-51.997-.002-1.828.033-3.68-.237-5.478-1.593-10.576-10.131-13.98-19.468-6.995"/><path fill="#FDFEFF" d="M1169.005 338.95c-.17 10.948-2.421 20.374-12.985 25.577l15.048 53.629c-6.364 0-12.3.186-18.203-.169-1.087-.065-2.583-2.174-2.974-3.592-3.623-13.141-7.05-26.336-10.524-39.518-1.886-7.159-1.878-7.161-10.257-6.318v49.347h-20.014V309.492c12.871 0 25.618-1.204 38.035.303 15.751 1.912 21.865 11.13 21.874 29.154m-40.002 8.485v7.607c7.145.064 14.082 1.295 18.583-5.353 3.539-5.228 3.416-17.816-.29-22.501-4.749-6.002-11.466-4.544-18.293-4.517z"/><path fill="#FBFDFE" d="M982.498 334.451c5.69 27.939 11.24 55.474 16.929 83.698-5.917 0-11.371.162-16.797-.155-.938-.054-2.285-2.03-2.544-3.302-1.43-6.995-2.58-14.046-3.876-21.357h-18.725l-4.518 24.605H933.9l22.244-109.453c6.214 0 12.186-.171 18.133.139 1.25.065 3.19 1.715 3.48 2.948 1.749 7.441 3.11 14.973 4.74 22.877m-12.495 20.977-2.849-16.938-.864.113-6.608 40.962h14.253a7595 7595 0 0 1-3.932-24.137"/><path fill="#F6FBFE" d="M550.46 348c0-11.998-.088-23.497.107-34.991.026-1.518 1.479-4.306 2.31-4.322 14.457-.267 28.92-.192 43.677-.192v14.186h-25.321v31.1h19.589v14.6h-19.604v35.74h25.542v13.72h-46.3z"/><path fill="#F7FCFE" d="M1079.117 353.982c5.785.002 11.078.002 16.63.002V368.4h-19.87v35.526h25.569v14.003h-46.023V308.797h45.364v14.108h-25.204c0 9.988-.069 19.441.132 28.888.016.75 1.896 1.46 3.402 2.19"/><path fill="#FDFEFF" d="M657.124 188.384c-6.67.396-13.108.396-19.829.396v36.184h25.49V238.9h-45.643V129.415h45.36v14.359h-25.224v31.092h20.076c0 4.624 0 8.873-.23 13.518"/><path fill="#F6FBFE" d="M565.143 234.65V129.51h45.381c0 3.704.263 7.505-.167 11.226-.122 1.054-2.24 2.626-3.493 2.675-6.8.264-13.617.125-20.873.125v31.329h19.21v14.155h-19.43v50.132c-6.585 0-12.545.148-18.479-.18-.785-.043-1.436-2.515-2.15-4.324"/><path fill="#FAFDFE" d="M1012.821 398v-74.388h-18.014v-14.737h55.8v14.534h-17.493v94.454h-20.293z"/><path fill="#F7FCFE" d="M510.99 239.188h-31.198V129.455h19.989v95.553h25.81v14.18z"/><path fill="#F6FBFE" d="M608.376 308.462c4.121-.002 7.8.225 11.438-.064 3.756-.3 4.847 1.06 4.805 4.79-.185 16.14-.079 32.283-.079 48.425v42.411h25.956v13.937h-46.093c-.095-1.494-.25-2.786-.25-4.079-.013-33.614.006-67.23-.04-100.844-.003-2.751.029-5.126 4.263-4.576"/><path fill="#FBFDFE" d="M533.52 129.599c6.49-.292 12.608-.292 19.02-.292v109.486h-19.536c-.063-1.229-.171-2.35-.171-3.471-.01-33.824-.012-67.647.005-101.47 0-1.32.202-2.64.682-4.253"/><path fill="#0B97D9" d="M961.6 1027.324c19.453 11.735 28.87 31.516 25.27 52.617-3.419 20.048-19.233 36.077-39.892 40.437-26.418 5.575-53.469-12.44-58.797-39.158-5.447-27.313 12.768-54.354 39.753-59.26 11.777-2.142 22.806-.232 33.666 5.364M292.997 257v49.688h-43.08l42.08-117.709 1 .102zM499.85 375.038v-7.31c7.409-.22 14.987-1.496 19.375 5.369 4.951 7.746 4.865 16.767.873 24.792-4.046 8.131-12.421 5.78-20.249 6.09z"/><path fill="#0D98DA" d="M504.919 353.155h-4.733v-30.14c6.393-.18 13.462-1.52 18.03 4.045 4.714 5.741 3.545 12.973 1.048 19.534-2.416 6.349-8.315 6.33-14.345 6.561M677.354 325.488c9.098-6.672 17.636-3.267 19.229 7.309.27 1.797.235 3.65.237 5.478.016 17.332.053 34.665-.01 51.997-.031 8.975-2.667 13.026-8.859 14.09-7.057 1.214-11.75-2.024-12.878-9.065-.392-2.454-.53-4.973-.536-7.462-.046-16.332-.202-32.668.095-48.995.08-4.36 1.616-8.693 2.722-13.352"/><path fill="#0B97D9" d="M1129.003 346.943V322.67c6.827-.027 13.544-1.485 18.292 4.517 3.707 4.685 3.83 17.273.29 22.5-4.5 6.649-11.437 5.418-18.582 5.354z"/><path fill="#0D98DA" d="M970.06 355.861c1.316 8.102 2.574 15.772 3.875 23.704h-14.253l6.608-40.962.864-.113c.95 5.646 1.9 11.292 2.906 17.371"/></svg>