<svg xmlns="http://www.w3.org/2000/svg" xml:space="preserve" viewBox="0 0 1500 1500"><path fill="#56C02B" d="M1 739V1h1500v1500H1zm696.896-320.894h17.396l4.504-24.712h18.722l4.443 24.492h18.596c-.276-1.776-.447-3.263-.742-4.725-6.058-29.978-12.084-59.962-18.245-89.918-1.013-4.929-1.17-11.731-4.357-14.051-3.397-2.474-9.927-.498-15.073-.768-3.337-.175-4.873.61-5.587 4.331-4.006 20.89-8.41 41.704-12.609 62.559-2.72 13.518-5.321 27.06-8.803 40.31l-1.132-11.694h-26.01V308.78h-19.564v109.025c16.045 0 31.806 0 48.46.302m-17.663 568.758c1.14-.24 2.278-.502 3.424-.716 54.213-10.102 93.595-54.983 97.754-111.41 3.89-52.781-30.1-103.384-81.141-120.752-4.032-1.372-8.137-2.529-12.243-3.797 29.832-65.775-8.622-133.741-67.888-150.333-66.577-18.638-132.176 28.065-137.48 94.778-38.852.677-67.66 17.682-79.84 55.088-12.809 39.341 1.386 70.904 34.997 94.277-.43.609-.766 1.175-1.188 1.667-16.5 19.21-23.225 41.342-20.762 66.586 3.931 40.293 40.594 74.41 81.185 74.888 29.976.354 59.954.492 89.93.69 15.493.102 30.987.282 46.477.137 15.304-.144 30.604-.654 46.775-1.103M936.5 1233c56.826 0 113.652.003 170.478-.004 6.31 0 6.845-.536 6.854-6.84.015-12.164.005-24.33.004-36.495 0-8.66-.002-8.66-8.553-8.66L408.871 1181c-9.999 0-20 .151-29.995-.067-4.601-.1-6.172 1.708-6.106 6.201.185 12.496.063 24.996.064 37.494.001 8.37.003 8.372 8.236 8.372zm-335 89.002h503.43c8.909 0 8.91 0 8.91-9.16v-33.495c-.001-9.186-.001-9.186-8.962-9.186H489.965c-36.828 0-73.656-.006-110.485.006-6.1.001-6.633.528-6.643 6.515-.021 12.665-.011 25.33-.004 37.995.004 7.238.091 7.324 7.198 7.324 73.49.002 146.98.001 221.469.001M230.85 401.64c6.787 7.436 15.06 12.457 24.665 15.427 14.088 4.355 28.547 4.856 43.035 3.7 33.282-2.657 53.304-19.867 60.48-52.405 2.39-10.839 3.795-22.002 4.472-33.089 1.363-22.316 1.31-44.655-5.553-66.307-6.97-21.992-19.139-39.186-43.894-42.336-8.749-1.112-18.077-.523-26.73 1.267-8.687 1.798-16.864 6.062-25.043 9.16l3.06-60.238h86.885v-47.011H220.074l-3.903 163.035h36.817c9.601 0 9.601 0 13.081-9.137q.179-.465.37-.925c4.875-11.71 12.736-16.818 24.306-15.793 10.124.897 15.634 6.45 18.444 19.172 4.361 19.75 3.021 39.761 2.276 59.718-.324 8.657-1.027 17.298-5.409 25.128-4.218 7.537-10.97 9.631-19.038 9.085-7.549-.51-12.878-4.189-15.725-11.177-1.059-2.597-1.945-5.367-2.288-8.136-1.118-9.024-1.949-18.083-2.902-27.25H212.89c.746 9.665 1.052 18.973 2.267 28.16 1.89 14.295 5.206 28.195 15.692 39.952m-48.848-5.14V129.505c-14.19 0-27.664-.028-41.139.057-1.03.007-2.257.594-3.052 1.297-14.426 12.74-31.501 20.988-48.87 28.672-2.856 1.264-3.581 2.792-3.5 5.606.165 5.66.05 11.328.05 16.993v19.858l41.482-14.955V416.22h55.03zM882.64 875.105c-.936.344-1.873.684-2.807 1.033-11.541 4.312-21.659 10.907-30.67 19.24-3.5 3.235-4.54 11.093-1.598 14.083 3.751 3.812 7.388 1.742 11.203-.545 2.94-1.763 6.3-3.032 9.636-3.886 12.64-3.236 25.402-2.936 38.124-.484 21.85 4.211 40.444 14.722 56.763 29.6 5.098 4.648 9.257 4.583 14.454.027 1.377-1.207 2.726-2.448 4.13-3.623 22.86-19.125 48.81-29.77 78.973-27.338 7.412.598 14.87 3.203 21.826 6.057 5.335 2.19 9.243 3.038 11.72-.123 2.598-3.315 1.859-9.747-1.779-13.123-23.448-21.76-50.493-29.956-81.883-21.474-14.809 4.002-27.934 11.37-39.888 20.289-5.497-3.475-10.548-7.025-15.918-10.002-22.529-12.49-46.14-17.649-72.286-9.731M624.842 1122.42c0-32.982-.048-65.964.055-98.945.014-4.594-1.429-6.643-6.344-6.557-13.155.229-26.32.213-39.476.005-4.694-.074-5.998 1.856-5.984 6.272.117 34.98.13 69.962-.013 104.942-.02 4.716 1.791 6.023 6.225 5.94 11.656-.216 23.319-.04 34.98-.083 9.76-.036 10.795 2.013 10.557-11.574M862.8 733.66c12.668 9.393 12.608 9.332 22.707-.514 12.053-11.75 26.147-20.08 42.67-23.61 13.133-2.806 26.281-3.961 38.948 2.726 5.136 2.712 9.68-.577 9.973-6.287.202-3.93-1.488-6.548-4.466-8.874-23.219-18.13-48.433-21.893-75.346-9.712-8.83 3.996-16.833 9.815-25.494 14.966-.307-.19-1.154-.72-2.01-1.236-17.896-10.794-36.909-16.777-58.044-13.145-15.892 2.73-28.736 11.01-39.681 22.488-2.91 3.053-2.95 9.636-.441 12.484 2.548 2.893 6.013 2.443 10.684-.423 3.204-1.965 6.83-3.571 10.48-4.424 25.497-5.959 48.362.598 70.02 15.561M825.536 340.5v-31.782h-16.818v57.325l-1.196.317c-.819-1.689-1.703-3.35-2.447-5.072-7.056-16.32-14.051-32.668-21.19-48.952-.648-1.478-2.065-3.518-3.315-3.665-4.015-.47-8.119-.175-12.232-.175V417.85h17.441v-60.371c1.57 1.243 2.28 2.652 2.884 4.105 7.266 17.497 14.475 35.02 21.842 52.474.669 1.587 2.185 3.724 3.558 3.93 3.674.549 7.484.187 11.473.187zm-289.439 65.016c1.305-4.783 3.618-9.54 3.735-14.351.448-18.468.69-36.97.055-55.427-.609-17.659-9.846-26.68-27.3-28.465-18.39-1.88-30.87 5.877-34.282 21.572-.842 3.875-1.218 7.918-1.257 11.89a2375 2375 0 0 0-.007 43.988c.034 3.975.383 8.002 1.11 11.907 2.548 13.7 10.35 21.073 24.16 22.574 4.578.498 9.306.327 13.9-.164 8.615-.92 15.422-4.967 19.886-13.524M837.83 330.5v87.302c12.358 0 24.205.823 35.888-.213 13.98-1.239 22.274-8.87 23.186-23.076 1.317-20.533 1.097-41.213.506-61.801-.323-11.24-6.434-20.402-18.05-22.179-13.516-2.066-27.363-1.96-41.53-2.824zm-246.674-10.96v47.495c-1.497-1.044-2.05-2.2-2.56-3.376-7.478-17.22-14.911-34.461-22.498-51.633-.624-1.41-2.184-3.208-3.486-3.366-3.738-.455-7.567-.16-11.5-.16v109.282h17.019v-61.14c1.245.995 1.743 2.023 2.181 3.076 7.595 18.257 15.146 36.533 22.84 54.749.608 1.44 2.078 3.358 3.343 3.52 3.696.472 7.49.167 11.171.167V308.817h-16.51zm398.35 290.453c-2.548-1.866-4.98-3.923-7.666-5.568-18.302-11.21-37.074-11.305-56.118-2.033-3.868 1.883-6.072 7.45-4.462 11.005 1.911 4.22 5.47 3.953 9.356 3.427 3.564-.483 7.321-.852 10.822-.26 20.175 3.415 34.763 14.97 45.436 31.984 4.327 6.897 6.915 7.71 14.403 4.23 12.333-5.734 25.205-8.5 38.783-6.725 9.489 1.24 18.76 3.511 25.712 10.721 3.09 3.206 6.208 4.482 10.13 2.29 3.209-1.792 4.267-7.496 2.106-11.209-7.088-12.175-16.749-21.413-30.304-26.129-13.761-4.787-27.51-3.912-41.149.322-3.131.972-4.99.858-7.144-1.93-2.726-3.528-6.205-6.473-9.904-10.125m-373.51-379.536v8.33H662.2v-13.686h-25.625V188.9h20.004v-13.933h-20.09V143.64h25.412v-14.21h-45.906zm-31.136-33.963v-7.434h19.648v-14.16h-19.293v-31.498h24.363v-13.972h-44.795v109.382h20.077zm-98.312 42.674h38.371v-13.963h-25.976v-95.709h-19.723V239.17zm55.943-.002h9.107V129.455h-19.294v109.712z"/><path fill="#FFF" d="M679.797 986.914c-15.736.4-31.036.91-46.34 1.053-15.49.145-30.984-.035-46.476-.138-29.977-.197-59.955-.335-89.93-.689-40.592-.479-77.255-34.595-81.186-74.888-2.463-25.244 4.263-47.376 20.762-66.586.422-.492.757-1.058 1.188-1.667-33.611-23.373-47.806-54.936-34.996-94.277 12.18-37.406 40.987-54.41 79.84-55.088 5.303-66.713 70.902-113.416 137.479-94.778 59.266 16.592 97.72 84.558 67.888 150.333 4.106 1.268 8.211 2.425 12.243 3.797 51.041 17.368 85.03 67.97 81.14 120.752-4.158 56.427-43.54 101.308-97.753 111.41-1.146.214-2.283.477-3.859.766M936 1233H381.07c-8.233 0-8.235-.002-8.236-8.372-.001-12.498.12-24.998-.064-37.494-.066-4.493 1.505-6.302 6.106-6.201 9.994.218 19.996.067 29.995.067h696.412c8.551 0 8.552.001 8.553 8.661.001 12.166.011 24.33-.004 36.496-.009 6.303-.544 6.839-6.854 6.84-56.826.006-113.652.003-170.978.003"/><path fill="#FEFFFE" d="M601 1322.002H380.031c-7.107 0-7.194-.087-7.198-7.325-.007-12.665-.017-25.33.004-37.995.01-5.987.542-6.514 6.643-6.515 36.829-.012 73.657-.006 110.485-.006h614.913c8.96 0 8.961 0 8.961 9.186v33.495c0 9.16 0 9.16-8.91 9.16z"/><path fill="#FDFEFD" d="M230.615 401.375c-10.251-11.493-13.566-25.393-15.457-39.688-1.215-9.187-1.521-18.495-2.267-28.16h53.212c.953 9.167 1.784 18.226 2.902 27.25.343 2.769 1.23 5.539 2.288 8.136 2.847 6.988 8.176 10.667 15.725 11.177 8.069.546 14.82-1.548 19.038-9.085 4.382-7.83 5.085-16.47 5.409-25.128.745-19.957 2.085-39.967-2.276-59.718-2.81-12.722-8.32-18.275-18.444-19.172-11.57-1.025-19.431 4.082-24.305 15.793q-.192.459-.37.925c-3.48 9.137-3.48 9.137-13.082 9.137h-36.817l3.903-163.035h132.153v47.01h-86.885l-3.06 60.24c8.179-3.1 16.356-7.363 25.042-9.16 8.654-1.791 17.982-2.38 26.73-1.268 24.756 3.15 36.924 20.344 43.895 42.336 6.862 21.652 6.916 43.99 5.553 66.307-.677 11.087-2.083 22.25-4.473 33.089-7.175 32.538-27.197 49.748-60.48 52.404-14.487 1.157-28.946.656-43.034-3.7-9.605-2.97-17.878-7.99-24.9-15.69"/><path fill="#FEFFFE" d="M182.002 397v19.22h-55.03V187.032L85.49 201.987V182.13c0-5.665.116-11.333-.048-16.993-.082-2.814.643-4.342 3.5-5.606 17.368-7.684 34.443-15.931 48.869-28.672.795-.703 2.022-1.29 3.052-1.297 13.475-.085 26.95-.057 41.14-.057z"/><path fill="#FDFEFD" d="M883.031 875.018c25.755-7.83 49.366-2.671 71.895 9.818 5.37 2.977 10.421 6.527 15.918 10.002 11.954-8.919 25.08-16.287 39.888-20.289 31.39-8.482 58.435-.287 81.883 21.474 3.638 3.376 4.377 9.808 1.779 13.123-2.477 3.161-6.385 2.312-11.72.123-6.956-2.854-14.414-5.46-21.826-6.057-30.163-2.433-56.112 8.213-78.973 27.338-1.404 1.175-2.753 2.416-4.13 3.623-5.197 4.556-9.356 4.62-14.454-.027-16.319-14.878-34.913-25.389-56.763-29.6-12.722-2.452-25.484-2.752-38.124.484-3.335.854-6.696 2.123-9.636 3.886-3.815 2.287-7.452 4.357-11.203.545-2.942-2.99-1.902-10.848 1.598-14.084 9.011-8.332 19.129-14.927 30.67-19.239a72 72 0 0 1 3.198-1.12M624.842 1122.906c.238 13.101-.797 11.052-10.558 11.088-11.66.044-23.323-.133-34.98.084-4.433.082-6.243-1.225-6.224-5.94.144-34.981.13-69.962.013-104.943-.014-4.416 1.29-6.346 5.984-6.272 13.156.208 26.32.224 39.476-.005 4.915-.086 6.358 1.963 6.344 6.557-.103 32.981-.055 65.963-.055 99.43M862.513 733.441c-21.372-14.744-44.237-21.3-69.734-15.342-3.65.853-7.276 2.46-10.48 4.424-4.67 2.866-8.136 3.316-10.684.423-2.509-2.848-2.47-9.431.441-12.484 10.945-11.479 23.79-19.757 39.68-22.488 21.136-3.632 40.15 2.35 58.045 13.145.856.516 1.703 1.047 2.01 1.236 8.66-5.151 16.665-10.97 25.494-14.966 26.913-12.181 52.127-8.419 75.346 9.712 2.978 2.326 4.668 4.944 4.466 8.874-.294 5.71-4.837 8.999-9.973 6.287-12.667-6.687-25.815-5.532-38.948-2.726-16.523 3.53-30.617 11.86-42.67 23.61-10.099 9.846-10.039 9.907-22.993.295"/><path fill="#FAFDF8" d="M825.536 341v77.174c-3.989 0-7.8.362-11.473-.188-1.373-.205-2.889-2.342-3.558-3.929-7.367-17.455-14.576-34.977-21.842-52.474-.603-1.453-1.314-2.862-2.884-4.105v60.371h-17.441V308.496c4.113 0 8.217-.295 12.232.175 1.25.147 2.667 2.187 3.315 3.665 7.139 16.284 14.134 32.631 21.19 48.952.744 1.722 1.628 3.383 2.447 5.072l1.196-.317v-57.325h16.818z"/><path fill="#FCFEFB" d="M535.958 405.86c-4.325 8.213-11.132 12.26-19.748 13.18-4.593.491-9.32.662-13.9.164-13.81-1.5-21.61-8.875-24.16-22.574-.726-3.905-1.075-7.932-1.109-11.907-.127-14.662-.137-29.326.007-43.988.039-3.972.415-8.015 1.257-11.89 3.413-15.695 15.892-23.453 34.281-21.572 17.455 1.785 26.692 10.806 27.3 28.465.636 18.456.394 36.959-.054 55.427-.117 4.81-2.43 9.568-3.874 14.696M497.513 363.5c.147 10.48-.031 20.977.561 31.432.362 6.397 4.078 9.418 9.975 9.678 6.22.275 9.791-2.54 11.078-8.982.453-2.263.661-4.61.672-6.92.062-13.151.048-26.302.021-39.453-.01-5.324.244-10.682-.268-15.962-.763-7.858-4.191-11.087-10.79-11.117-7.013-.032-10.466 3.136-10.896 11.382-.502 9.627-.268 19.293-.353 29.942"/><path fill="#FEFFFD" d="M837.829 330V307.71c14.167.864 28.014.758 41.53 2.824 11.616 1.777 17.727 10.938 18.05 22.179.59 20.588.811 41.268-.506 61.8-.912 14.206-9.206 21.838-23.186 23.077-11.683 1.036-23.53.213-35.888.213zm40.008 48.398c-.233-15.113-.253-30.235-.803-45.337-.229-6.274-3.565-9.203-9.794-9.844-2.91-.3-5.877-.051-8.843-.051V404c2.391 0 4.384.043 6.375-.007 8.316-.207 11.635-3.275 12.385-11.702.383-4.294.463-8.616.68-13.894"/><path fill="#FDFEFC" d="M591.155 319.05v-10.233h16.51v109.337c-3.68 0-7.475.305-11.17-.168-1.266-.161-2.736-2.08-3.345-3.52-7.693-18.215-15.244-36.49-22.839-54.748-.438-1.053-.936-2.081-2.181-3.077v61.14h-17.018V308.5c3.932 0 7.761-.294 11.5.16 1.301.16 2.861 1.956 3.485 3.367 7.587 17.172 15.02 34.412 22.498 51.633.51 1.175 1.063 2.332 2.56 3.376z"/><path fill="#FDFEFD" d="M989.778 610.221c3.427 3.425 6.906 6.37 9.632 9.898 2.155 2.788 4.013 2.902 7.144 1.93 13.639-4.234 27.388-5.11 41.149-.322 13.555 4.716 23.216 13.954 30.304 26.129 2.161 3.713 1.103 9.417-2.106 11.21-3.922 2.19-7.04.915-10.13-2.29-6.953-7.21-16.223-9.482-25.712-10.722-13.578-1.775-26.45.991-38.783 6.724-7.488 3.481-10.076 2.668-14.403-4.229-10.673-17.014-25.261-28.569-45.436-31.983-3.5-.593-7.258-.224-10.822.259-3.886.526-7.445.792-9.356-3.427-1.61-3.555.594-9.122 4.462-11.005 19.044-9.272 37.816-9.177 56.118 2.033 2.685 1.645 5.118 3.702 7.94 5.795"/><path fill="#FDFEFC" d="M696.968 415.906c2.655-13.532 5.255-27.074 7.976-40.592 4.198-20.855 8.603-41.668 12.609-62.559.714-3.722 2.25-4.506 5.587-4.33 5.146.269 11.676-1.707 15.073.767 3.187 2.32 3.344 9.122 4.357 14.05 6.16 29.957 12.187 59.941 18.245 89.919.295 1.462.466 2.95.742 4.725H742.96l-4.443-24.492h-18.722l-4.504 24.712c-5.871 0-11.634 0-17.846-.468-.459-.889-.468-1.31-.478-1.732m27.88-53.73-2.909 17.418h14.34l-6.622-40.779-1.063.015c-1.213 7.495-2.427 14.99-3.746 23.347"/><path fill="#FDFEFD" d="M615.995 229.962V129.43h45.906v14.21h-25.412v31.326h20.09v13.933h-20.004v36.203H662.2v13.685h-46.205z"/><path fill="#F9FDF8" d="M584.86 196.998v41.815h-20.078V129.431h44.795v13.972h-24.363v31.499h19.293v14.16H584.86z"/><path fill="#FCFEFB" d="M696.555 415.765c.423.562.432.984.445 1.723-15.759.316-31.52.316-47.565.316V308.779H669v95.151h26.01c.408 4.222.77 7.958 1.546 11.835"/><path fill="#FEFFFE" d="M486.053 239.17h-6.834V129.496h19.723v95.709h25.976v13.963z"/><path fill="#FFF" d="M542 239.167h-9.697V129.455h19.294v109.712z"/><path fill="#58C12E" d="M497.513 363c.085-10.15-.15-19.815.353-29.442.43-8.246 3.883-11.414 10.895-11.382 6.6.03 10.028 3.26 10.79 11.117.513 5.28.258 10.638.27 15.962.026 13.15.04 26.302-.022 39.452-.01 2.31-.22 4.658-.672 6.921-1.287 6.442-4.857 9.257-11.078 8.982-5.897-.26-9.613-3.281-9.975-9.678-.592-10.455-.414-20.953-.561-31.932M877.837 378.883c-.217 4.793-.297 9.115-.68 13.41-.75 8.426-4.07 11.494-12.385 11.701-1.99.05-3.984.007-6.375.007v-80.835c2.966 0 5.932-.248 8.843.051 6.23.64 9.565 3.57 9.794 9.844.55 15.102.57 30.224.803 45.822"/><path fill="#5FC336" d="M724.901 361.745c1.266-7.926 2.48-15.42 3.693-22.915l1.063-.015 6.622 40.779h-14.34a5711 5711 0 0 0 2.962-17.849"/></svg>