<svg xmlns="http://www.w3.org/2000/svg" xml:space="preserve" viewBox="0 0 1500 1500"><path fill="#FF3A21" d="M1 529V1h1500v1500H1zm814.078-218.412c4.773 14.528 9.436 29.094 14.351 43.574 4.33 12.753 8.835 25.33 7.533 39.263-.752 8.04-.137 16.207-.137 24.489h19.18c0-12.546-.05-24.836.045-37.125.018-2.283.315-4.655.994-6.826 2.83-9.04 5.871-18.016 8.808-27.024 4.102-12.583 8.18-25.173 12.494-38.454-5.434 0-10.213.154-14.977-.058-2.81-.125-4.167.742-4.867 3.58-1.313 5.318-3.033 10.536-4.61 15.788-2.228 7.427-4.479 14.847-7.053 23.371-.89-2.523-1.406-3.855-1.832-5.216-3.328-10.625-6.565-21.28-10.022-31.862-.604-1.85-2.038-4.804-3.207-4.863-5.554-.277-11.148.272-17.615.533-1.713-.435-3.423-1.238-5.138-1.248-15.822-.097-31.644-.068-47.466-.04-1.41.003-2.82.258-4.07.38v14.842h18.107v94.253H796v-94.58h17.547c0-3.068-.19-5.562.062-8.011.194-1.884.946-3.71 1.468-4.766M952.5 634.509h29.03l-81.483 81.482c-88.372-60.963-181.478-71.756-275.529-16.834-88.061 51.425-127.657 132.053-121.132 233.962 2.962 46.258 19.882 88.124 47.912 125.081 41.622 54.879 97.084 86.769 164.791 97.014v71.616h-5.805c-21.664 0-43.329.093-64.992-.081-4.148-.034-5.421 1.221-5.381 5.394.193 20.163.23 40.33-.02 60.49-.058 4.656 1.314 6.011 5.914 5.967 21.495-.205 42.994-.09 64.492-.09h6.194v6.67c0 20.33.1 40.663-.08 60.992-.038 4.324 1.247 5.8 5.69 5.755 20.162-.203 40.329-.214 60.49.005 4.643.05 6.05-1.422 6.006-6.014-.202-20.495-.088-40.994-.088-61.492v-5.917h5.948c21.498 0 42.997-.134 64.491.102 4.896.054 6.21-1.533 6.154-6.289-.237-19.828-.253-39.663.009-59.49.065-4.938-1.567-6.15-6.281-6.101-21.495.225-42.994.099-64.491.099h-5.335c-.233-1.251-.457-1.896-.458-2.54-.024-22.331.031-44.662-.098-66.992-.019-3.219 1.616-3.793 4.17-4.268 53.101-9.885 98.853-33.992 135.102-73.918 62.425-68.759 80.774-148.745 56.522-238.311-6.97-25.74-19.104-49.233-33.912-70.507l80.832-80.849v4.6c0 20.164.08 40.329-.068 60.492-.03 4.04 1.128 5.59 5.393 5.547a2995 2995 0 0 1 56.992-.007c4.236.04 5.427-1.526 5.421-5.57-.09-60.66-.088-121.32-.004-181.979.005-3.957-1.01-5.617-5.34-5.61-60.827.117-121.653.105-182.48.02-3.789-.006-5.352 1.003-5.318 5.065.162 19.164.178 38.33-.013 57.492-.04 4.1 1.52 5.108 5.26 5.069 13.497-.142 26.996-.055 41.495-.055M172.589 237.024l-2.732 1.555 3.175-61.84h86.711v-46.966H127.74l-3.893 162.785h46.939c1.433-4.025 2.547-7.867 4.148-11.493 2.713-6.142 6.843-10.97 13.524-13.145 13.942-4.539 25.01 2.333 28.436 18.14 4.023 18.573 3.506 37.434 2.29 56.213-.563 8.705-1.746 17.605-4.352 25.88-2.96 9.396-9.695 12.583-20.057 11.933-8.605-.54-14.342-4.904-16.672-13.915-1.654-6.397-2.373-13.058-3.188-19.642-.539-4.36-.508-8.79-.724-13.037h-53.187c.038 15.69 1.153 30.902 5.455 45.725 5.993 20.646 19.59 33.452 40.337 38.855 12.906 3.362 26.044 3.744 39.192 2.712 33.88-2.658 54.157-20.336 60.992-53.676 2.296-11.2 3.507-22.693 4.296-34.115 1.534-22.197.825-44.318-6.232-65.713-5.682-17.224-14.657-32.235-32.981-38.15-20.53-6.627-40.406-3.975-59.474 7.894m340.385 153.192c.01-17.66.403-35.332-.078-52.979-.504-18.446-9.44-28.379-26.991-29.796-21.272-1.717-33.822 5.918-35.302 25.836-1.477 19.87-1.409 40.02.042 59.897 1.293 17.7 9.89 24.836 27.496 26.317 4.305.362 6.774 1.947 9.253 5.214 4.683 6.174 9.988 11.841 17.435 15.675 1.016-3.538 1.709-6.62 2.797-9.554 1.084-2.923.474-4.835-2.032-6.799-2.657-2.082-4.811-4.806-7.408-7.48 10.293-5.875 13.438-15.12 14.788-26.331m91.86-151.032c8.987-.062 17.987.17 26.957-.25 16.478-.773 26.286-9.6 27.143-26.02.952-18.246.638-36.569.486-54.855-.036-4.389-1.171-8.911-2.58-13.11-1.99-5.939-6.216-10.314-12.143-12.472-14.794-5.387-30.103-2.727-45.372-3.282v109.783c1.64.073 3.116.14 5.51.206m166.132-5.55 1.446 5.152h20.103c-.422-1.705-.705-2.992-1.059-4.26-4.251-15.212-8.551-30.41-12.705-45.65-.363-1.331-.295-3.84.44-4.25 8.915-4.987 10.732-13.486 11.555-22.503 1.466-16.068-4.76-27.257-17.736-30.758-13.83-3.732-28-1.806-42.16-2.25v109.8h20.213v-49.409c8.124-.7 8.105-.695 10.048 6.681 3.22 12.22 6.468 24.433 9.855 37.446M583.851 194.5V129.54h-17.122v58.816c-1.347-1.393-2.04-2.865-2.685-4.356-7.388-17.077-14.729-34.175-22.22-51.206-.63-1.433-2.149-3.313-3.433-3.464-3.887-.457-7.862-.165-11.87-.165v109.674h17.007V177.79c1.93 1.586 2.705 3.208 3.394 4.865 7.337 17.642 14.635 35.3 22.04 52.913.568 1.35 1.775 3.296 2.852 3.411 3.872.415 7.815.163 12.037.163zm-29.753 209.561c-2.37-2.535-5.519-4.714-6.89-7.707-1.376-3.004-1.296-6.818-1.31-10.28-.096-23.985-.046-47.971-.06-71.957-.002-1.75-.145-3.501-.226-5.349H526.22c-.091 1.101-.217 1.919-.217 2.736-.01 24.32-.059 48.639.04 72.957.017 3.977.434 7.995 1.105 11.919 1.92 11.22 7.352 19.741 19.246 22.136 4.824.971 9.957 1.373 14.84.901 16.614-1.603 24.57-8.944 25.718-25.571 1.179-17.078.838-34.265 1.034-51.406.127-11.134.024-22.272.024-33.6h-19.856v5.823c0 23.652.031 47.305-.038 70.958-.01 3.139-.221 6.342-.873 9.401-1.577 7.404-4.684 9.588-13.144 9.04m-99.582-241.868c-.182-3.653-.13-7.336-.588-10.954-1.655-13.12-8.49-20.526-21.594-22.342-5.828-.808-11.948-.554-17.812.189-8.105 1.026-14.69 5.432-17.343 13.259-2.306 6.806-3.837 14.13-4.17 21.297-.637 13.792-.554 27.649-.026 41.45.256 6.71 1.15 13.76 3.56 19.953 7.198 18.497 30.96 21.52 43.134 5.94.113-.145.575-.018.992-.018l1.485 7.882h12.607v-55.298h-29.424v13.004h11.65c0 3.685.123 6.985-.038 10.272-.137 2.815-.406 5.653-.955 8.414-1.408 7.089-5.091 10.292-11.412 10.22-6.349-.074-10.017-3.19-10.601-10.756-.754-9.768-.74-19.607-.761-29.415-.024-10.646-.078-21.315.582-31.93.465-7.488 4.626-10.721 11.368-10.322 6.5.385 9.437 3.688 9.805 11.354.18 3.733.031 7.481.031 11.447 6.165 0 11.326.152 16.465-.125 1.057-.057 2.027-1.716 3.045-3.521m201.79 225.865q-.638-3.177-1.278-6.353c-4.679-23.13-9.322-46.266-14.124-69.37-.294-1.411-1.787-3.605-2.82-3.662-6.248-.344-12.524-.171-18.974-.171l-22.24 109.444h19.076l4.507-24.66h18.732c1.299 7.421 2.454 14.634 3.919 21.782.241 1.177 1.799 2.902 2.829 2.96 5.272.302 10.57.14 16.447.14-2.027-10.155-3.937-19.722-6.075-30.11M394.46 326.501v91.375h46.155v-14.024H415.15v-35.321h19.79v-14.777h-19.663V322.58h25.256v-13.782H394.46zm308.073-182.646h16.539v-14.362h-45.235v109.322h45.92v-13.688h-25.58v-36.07h19.81v-14.253h-19.759v-30.95zM469.146 170.5v68.431h46.312v-13.976h-25.585v-35.922h19.796v-14.184h-19.824v-31h25.38v-14.264h-46.079zm223.393 205v-66.672h-20.088v109.096h46.01v-13.971h-25.922zm56.463-32v-34.767h-19.66v109.222h19.66z"/><path fill="#FFFEFE" d="M952 634.51c-13.999-.001-27.498-.088-40.995.054-3.74.04-5.3-.97-5.26-5.069.191-19.162.175-38.328.013-57.492-.034-4.062 1.53-5.07 5.319-5.066 60.826.086 121.652.098 182.478-.018 4.331-.008 5.346 1.652 5.34 5.609-.082 60.66-.085 121.319.005 181.978.006 4.045-1.185 5.61-5.421 5.571a2995 2995 0 0 0-56.992.007c-4.265.042-5.422-1.507-5.393-5.547.148-20.163.068-40.328.068-60.493v-4.599l-80.832 80.85c14.808 21.273 26.943 44.766 33.912 70.506 24.252 89.566 5.903 169.552-56.522 238.31-36.249 39.927-82 64.034-135.101 73.919-2.555.475-4.19 1.05-4.171 4.268.13 22.33.074 44.66.098 66.992 0 .644.225 1.289.458 2.54h5.335c21.497 0 42.996.126 64.49-.099 4.715-.05 6.347 1.163 6.282 6.1-.262 19.828-.246 39.663-.01 59.491.058 4.756-1.257 6.343-6.153 6.289-21.494-.236-42.993-.102-64.49-.102h-5.949v5.917c0 20.498-.114 40.997.088 61.492.045 4.592-1.363 6.065-6.005 6.014-20.162-.22-40.329-.208-60.491-.005-4.443.045-5.728-1.431-5.69-5.755.18-20.33.08-40.661.08-60.992v-6.67h-6.194c-21.498 0-42.997-.115-64.492.09-4.6.044-5.972-1.311-5.914-5.966.25-20.161.213-40.328.02-60.49-.04-4.174 1.233-5.429 5.381-5.395 21.663.174 43.328.08 64.992.08h5.805v-71.615c-67.707-10.245-123.169-42.135-164.791-97.014-28.03-36.957-44.95-78.823-47.912-125.08-6.525-101.91 33.07-182.538 121.132-233.963 94.05-54.922 187.157-44.129 275.53 16.834l81.482-81.482zM628.307 775.805c-49.721 46.48-69.443 103.35-57.223 170.325 14.73 80.738 87.406 142.997 169.12 145.633 55.507 1.79 102.76-17.482 140.794-58.022 65.082-69.37 64.289-178.513-1.424-247.315-67.583-70.76-177.066-75.607-251.267-10.62"/><path fill="#FFFDFD" d="M172.867 236.796c18.79-11.641 38.666-14.293 59.196-7.666 18.324 5.915 27.3 20.926 32.981 38.15 7.057 21.395 7.766 43.516 6.232 65.713-.789 11.422-2 22.916-4.296 34.115-6.835 33.34-27.112 51.018-60.992 53.676-13.148 1.032-26.286.65-39.192-2.712-20.748-5.403-34.344-18.21-40.337-38.855-4.302-14.823-5.417-30.036-5.455-45.725h53.187c.216 4.247.185 8.677.724 13.037.815 6.584 1.534 13.245 3.188 19.642 2.33 9.011 8.067 13.375 16.672 13.915 10.362.65 17.097-2.537 20.057-11.933 2.606-8.275 3.789-17.175 4.352-25.88 1.216-18.779 1.733-37.64-2.29-56.212-3.425-15.808-14.494-22.68-28.436-18.141-6.681 2.175-10.81 7.003-13.524 13.145-1.601 3.626-2.715 7.468-4.148 11.493h-46.94l3.894-162.785h132.003v46.966h-86.711l-3.175 61.84c1.23-.7 1.98-1.128 3.01-1.783M512.935 390.678c-1.311 10.748-4.456 19.994-14.75 25.869 2.598 2.674 4.752 5.398 7.41 7.48 2.505 1.964 3.115 3.876 2.03 6.799-1.087 2.935-1.78 6.016-2.796 9.554-7.447-3.834-12.752-9.5-17.435-15.675-2.48-3.267-4.948-4.852-9.253-5.214-17.607-1.481-26.203-8.616-27.496-26.317-1.45-19.877-1.52-40.026-.042-59.897 1.48-19.918 14.03-27.553 35.302-25.836 17.552 1.417 26.487 11.35 26.99 29.796.482 17.647.088 35.318.04 53.44m-42.774-6.243c.287 3.979.315 7.998.933 11.924.637 4.053 2.89 6.94 7.254 7.88 7.688 1.658 13.287-1.622 13.663-9.513.73-15.289.688-30.618.784-45.931.036-5.815-.086-11.673-.76-17.438-.744-6.35-4.266-9.12-10.401-9.19-6.346-.073-9.769 2.817-10.772 9.357a58 58 0 0 0-.671 8.447c-.065 14.494-.03 28.988-.03 44.464"/><path fill="#FFFAF9" d="M604.375 239.184c-1.934-.066-3.41-.133-5.05-.206V129.195c15.269.555 30.578-2.105 45.372 3.282 5.927 2.158 10.153 6.533 12.144 12.471 1.408 4.2 2.543 8.722 2.58 13.11.15 18.287.465 36.61-.487 54.857-.857 16.42-10.665 25.246-27.143 26.018-8.97.42-17.97.189-27.416.251m15.151-40.684v26.132c15.365 1.316 19.185-1.891 19.431-16.476.267-15.813.18-31.632.138-47.449-.008-2.973.225-6.317-1.012-8.818-1.395-2.819-3.918-5.898-6.693-7.008-3.449-1.38-7.659-.858-11.864-1.183zM770.891 233.235c-3.311-12.615-6.559-24.828-9.779-37.048-1.943-7.376-1.924-7.38-10.048-6.68v49.407H730.85v-109.8c14.16.445 28.331-1.481 42.16 2.25 12.976 3.502 19.203 14.69 17.737 30.759-.823 9.017-2.64 17.516-11.554 22.502-.736.412-.804 2.92-.441 4.251 4.154 15.24 8.454 30.438 12.705 45.65.354 1.268.637 2.555 1.06 4.26h-20.104c-.47-1.675-.958-3.414-1.522-5.551m-.87-83.327c-3.606-5.982-9.387-7.88-18.82-6.124v32.101c15.014 1.078 20.734-3.503 20.478-16.37-.06-2.952-.901-5.889-1.659-9.607"/><path fill="snow" d="M583.85 195v44.143c-4.22 0-8.164.252-12.036-.163-1.077-.115-2.284-2.061-2.852-3.411-7.405-17.613-14.703-35.271-22.04-52.913-.69-1.657-1.464-3.279-3.394-4.865v61.047h-17.007V129.164c4.008 0 7.983-.292 11.87.165 1.284.15 2.803 2.03 3.433 3.464 7.491 17.031 14.832 34.129 22.22 51.206.645 1.491 1.338 2.963 2.685 4.356v-58.816h17.122z"/><path fill="#FFFBFB" d="M554.509 404.143c8.049.467 11.156-1.717 12.733-9.12.652-3.06.864-6.263.873-9.402.07-23.653.038-47.306.038-70.958v-5.824h19.856c0 11.33.103 22.467-.024 33.601-.196 17.14.145 34.328-1.034 51.406-1.148 16.627-9.104 23.968-25.718 25.571-4.883.472-10.016.07-14.84-.9-11.894-2.396-17.326-10.916-19.246-22.137-.671-3.924-1.088-7.942-1.105-11.919-.099-24.318-.05-48.638-.04-72.957 0-.817.126-1.635.217-2.736h19.393c.081 1.848.224 3.598.225 5.349.015 23.986-.035 47.972.061 71.957.014 3.462-.066 7.276 1.31 10.28 1.371 2.993 4.52 5.172 7.3 7.789"/><path fill="#FFFCFC" d="M454.512 162.636c-1.014 1.363-1.984 3.022-3.041 3.08-5.139.276-10.3.124-16.465.124 0-3.966.148-7.714-.031-11.447-.368-7.666-3.305-10.97-9.805-11.354-6.742-.4-10.903 2.834-11.368 10.321-.66 10.616-.606 21.285-.582 31.93.022 9.81.007 19.648.76 29.416.585 7.566 4.253 10.682 10.602 10.755 6.32.073 10.004-3.13 11.412-10.219.549-2.76.818-5.599.955-8.414.16-3.287.038-6.587.038-10.272h-11.65v-13.004h29.424v55.298h-12.607l-1.485-7.882c-.417 0-.879-.127-.992.018-12.175 15.58-35.936 12.557-43.134-5.94-2.41-6.193-3.304-13.243-3.56-19.952-.528-13.802-.611-27.659.027-41.451.332-7.167 1.863-14.49 4.17-21.297 2.652-7.827 9.237-12.233 17.342-13.26 5.864-.742 11.984-.996 17.812-.188 13.103 1.816 19.939 9.222 21.594 22.342.457 3.618.406 7.3.584 11.396M656.419 388.47c2.024 9.977 3.934 19.544 5.961 29.7-5.877 0-11.175.16-16.447-.14-1.03-.059-2.588-1.784-2.829-2.96-1.465-7.15-2.62-14.362-3.92-21.783h-18.73l-4.508 24.66H596.87c7.42-36.513 14.78-72.74 22.24-109.444 6.449 0 12.725-.173 18.973.17 1.033.058 2.526 2.252 2.82 3.663 4.802 23.104 9.445 46.24 14.124 69.37.428 2.117.852 4.235 1.39 6.764m-30.499-29.156-3.28 20.26h14.324l-6.826-41.401-.824.109a2452 2452 0 0 0-3.394 21.032"/><path fill="#FFF8F7" d="M394.46 326.002v-17.204h46.073v13.782h-25.256v31.174h19.663v14.777h-19.79v35.321h25.465v14.024H394.46z"/><path fill="#FFF9F8" d="M702.04 143.855h-7.812v30.95h19.76v14.253h-19.811v36.069h25.58v13.688h-45.92V129.493h45.235v14.362z"/><path fill="#FFF9F9" d="M469.146 170v-40.415h46.079v14.265h-25.38v30.999h19.824v14.184h-19.796v35.922h25.585v13.976h-46.312z"/><path fill="#FFFDFC" d="M815.05 309.752c5.58-.255 11.174-.804 16.728-.527 1.17.059 2.603 3.012 3.207 4.863 3.457 10.583 6.694 21.237 10.022 31.862.426 1.361.942 2.693 1.832 5.216 2.574-8.524 4.825-15.944 7.054-23.37 1.576-5.253 3.296-10.471 4.609-15.79.7-2.837 2.057-3.704 4.867-3.579 4.764.212 9.543.058 14.977.058-4.314 13.281-8.392 25.871-12.494 38.454-2.937 9.008-5.977 17.983-8.808 27.024-.68 2.171-.976 4.543-.994 6.826-.094 12.289-.044 24.579-.044 37.125h-19.18c0-8.282-.616-16.45.136-24.489 1.302-13.934-3.204-26.51-7.533-39.263-4.915-14.48-9.578-29.046-14.35-43.986.002-.413-.029-.424-.029-.424"/><path fill="#FFF6F5" d="M814.607 309.755c.443-.003.474.008.463.022-.514 1.866-1.266 3.693-1.46 5.577-.253 2.449-.062 4.943-.062 8.011h-17.547v94.58h-20.405v-94.253h-18.107V308.85c1.25-.122 2.66-.377 4.07-.38 15.822-.028 31.644-.057 47.466.04 1.715.01 3.425.813 5.582 1.245"/><path fill="#FFF8F7" d="M692.54 376v27.953h25.92v13.971h-46.009V308.828h20.088z"/><path fill="#FFFEFE" d="M749.002 344v73.955h-19.66V308.733h19.66z"/><path fill="#FF3B22" d="M628.567 775.565c73.941-64.746 183.424-59.899 251.007 10.861 65.713 68.802 66.506 177.945 1.424 247.315-38.034 40.54-85.287 59.812-140.794 58.022-81.714-2.636-154.39-64.895-169.12-145.633-12.22-66.974 7.502-123.845 57.483-170.565m8.261 173.937c0 11.327.165 22.657-.085 33.978-.093 4.247.998 5.793 5.546 5.784 71.29-.132 142.58-.122 213.87-.015 4.086.006 5.5-1.094 5.44-5.318-.22-15.488-.283-30.984.025-46.469.1-5.008-1.684-6.07-6.325-6.062-70.624.127-141.248.088-211.871.088-.833 0-1.67.056-2.498-.005-2.913-.212-4.267.93-4.142 4.03.173 4.324.041 8.66.04 13.99m48.672-55.331c56.795 0 113.59-.044 170.386.088 4.308.01 5.798-1.056 5.724-5.556-.255-15.652-.23-31.312-.012-46.965.06-4.284-1.511-5.323-5.522-5.318q-106.928.14-213.857 0c-4.048-.005-5.536 1.12-5.477 5.362.217 15.653.251 31.314-.016 46.966-.079 4.597 1.592 5.575 5.803 5.507 13.987-.223 27.98-.084 42.97-.084"/><path fill="#FF3E25" d="M470.16 383.943c0-14.985-.034-29.479.031-43.973a58 58 0 0 1 .671-8.447c1.003-6.54 4.426-9.43 10.772-9.358 6.135.07 9.657 2.841 10.4 9.191.675 5.765.797 11.623.76 17.438-.095 15.313-.054 30.642-.783 45.93-.376 7.892-5.975 11.172-13.663 9.515-4.364-.94-6.617-3.828-7.254-7.88-.618-3.927-.646-7.946-.933-12.416"/><path fill="#FF3B22" d="M619.526 198v-54.302c4.205.325 8.415-.197 11.864 1.183 2.775 1.11 5.298 4.19 6.693 7.008 1.237 2.501 1.004 5.845 1.012 8.818.042 15.817.129 31.636-.138 47.449-.246 14.585-4.066 17.792-19.43 16.476z"/><path fill="#FF3C24" d="M770.159 150.295c.619 3.331 1.46 6.268 1.52 9.22.256 12.867-5.464 17.448-20.477 16.37v-32.101c9.432-1.755 15.213.142 18.957 6.511"/><path fill="#FF452D" d="M625.958 358.88c1.144-7.156 2.25-13.877 3.355-20.598l.824-.11 6.826 41.402h-14.324a4755 4755 0 0 0 3.32-20.694"/><path fill="#FFFDFD" d="M636.828 949.003c.001-4.83.133-9.166-.04-13.49-.125-3.1 1.229-4.242 4.142-4.03.828.06 1.665.005 2.498.005 70.623 0 141.247.039 211.87-.088 4.642-.008 6.426 1.054 6.326 6.062-.308 15.485-.245 30.981-.026 46.469.06 4.224-1.353 5.324-5.44 5.318-71.29-.107-142.58-.117-213.87.015-4.547.009-5.638-1.537-5.545-5.784.25-11.321.085-22.651.085-34.477M685 894.172c-14.49 0-28.484-.139-42.47.084-4.212.068-5.883-.91-5.804-5.507.267-15.652.233-31.313.016-46.966-.06-4.242 1.43-5.367 5.477-5.362q106.929.14 213.857 0c4.011-.005 5.581 1.034 5.522 5.318-.218 15.653-.243 31.313.012 46.965.074 4.5-1.416 5.566-5.724 5.556-56.795-.132-113.59-.088-170.886-.088"/></svg>