<svg xmlns="http://www.w3.org/2000/svg" xml:space="preserve" viewBox="0 0 1500 1500"><path fill="#FCC30B" d="M1 550V1h1500v1500H1zm548.146 312.672c-20.417 46.595-24.935 94.772-12.705 144.068 28.324 114.156 139.71 185.55 255.708 164.428 119.439-21.749 199.485-137.74 177.61-257.365-21.454-117.328-131.484-197.342-249.03-179.811-79.578 11.868-136.281 55.741-171.583 128.68m-297.73-687.65c4.53-14.842 1.51-29.987 2.544-45.276H122.355v41.895h77.528l-59.97 244.239c.866.289 1.31.565 1.753.566 16.165.042 32.331-.012 48.495.136 3.404.03 3.515-2.114 4.075-4.444 8.095-33.646 16.262-67.274 24.37-100.916 10.878-45.127 21.72-90.263 32.81-136.2m630.133-41.19c-15.47-7.64-31.904-3.528-48.129-4.84v110.652c14.018-.517 27.77-.674 41.458-1.687 6.317-.467 11.414-4.323 15.234-9.53 11.345-15.467 6.064-39.44-10.617-48.166 16.599-10.663 18.022-34.998 2.054-46.43m-221.548 88.776 4.314 16.272h20.098c-.482-1.979-.824-3.583-1.265-5.16-4.167-14.9-8.39-29.783-12.465-44.708-.372-1.362-.35-3.915.387-4.332 9.68-5.49 11.07-14.825 11.696-24.498.958-14.785-4.994-24.925-17.338-28.59-13.95-4.14-28.284-1.969-42.69-2.448v109.772h20.195v-49.298c8.261-.914 8.23-.906 10.057 6.125 2.258 8.695 4.572 17.375 7.011 26.865M547.15 182.5c.28 10.638.054 21.32.964 31.903 1.216 14.157 8.95 23.006 21.508 25.245 4.684.835 9.63.9 14.388.495 15.306-1.302 24.824-9.602 25.751-24.79 1.174-19.225.81-38.559.644-57.841-.04-4.525-1.53-9.181-3.077-13.519-2.91-8.163-9.044-13.359-17.484-14.668-6.309-.979-12.93-1.09-19.282-.402-11.99 1.3-19.713 8.56-21.482 20.294-1.601 10.617-1.36 21.511-1.93 33.283m147.681-3v59.287c12.1 0 23.612.774 34.976-.193 14.761-1.255 23.36-8.507 24.239-23.178 1.298-21.678.732-43.528-.226-65.253-.44-9.968-7.332-17.375-17.298-18.806-13.544-1.944-27.345-2.102-41.691-3.07zm549.338-7c-.074-5.329.057-10.67-.26-15.984-.792-13.255-6.435-21.703-17.16-24.896-13.968-4.159-28.31-1.968-42.484-2.46v109.802c11.088 0 21.76.4 32.39-.094 15.617-.726 24.753-8.44 26.399-23.973 1.45-13.684.824-27.588 1.115-42.395m-281.84 181.172c2.922-7.85 3.266-15.875 1.918-24.092-1.667-10.166-7.462-17.44-17.356-18.888-13.71-2.007-27.696-2.12-41.709-3.053v110.16h19.944v-49.077c8.14-1.21 8.149-1.212 10.084 6.128 3.477 13.187 6.883 26.394 10.497 39.544.39 1.418 1.897 3.521 2.99 3.587 5.904.355 11.84.168 18.218.168l-14.641-52.187c3.692-4.378 6.729-7.979 10.055-12.29M836.175 355.5v-46.717h-16.83v57.707c-1.822-1.416-2.633-2.97-3.328-4.574-7.14-16.485-14.214-32.999-21.46-49.436-.691-1.568-2.292-3.61-3.704-3.814-3.72-.537-7.57-.182-11.598-.182v109.35h16.907v-61.728c1.113.788 1.531 1.656 1.9 2.545 7.723 18.58 15.406 37.179 23.226 55.719.617 1.463 2.063 3.438 3.33 3.604 3.692.485 7.489.172 11.557.172zm-191.937 8.812c6.9 16.584 13.768 33.18 20.752 49.729.642 1.52 1.892 3.738 3.086 3.893 3.842.5 7.79.187 11.709.187V308.904h-16.773v58.046c-1.52-1.427-2.308-2.997-3.005-4.606-7.208-16.635-14.354-33.297-21.676-49.882-.69-1.566-2.321-3.583-3.747-3.789-3.713-.536-7.555-.18-11.407-.18v109.312H640.3v-61.043l.753-.04c.976 2.29 1.951 4.58 3.186 7.59m500.77-153.738c3.518 8.446 6.989 16.912 10.604 25.316.528 1.229 1.663 2.995 2.65 3.087 3.875.358 7.803.147 11.535.147v-109.74h-16.436v58.092c-1.83-1.46-2.62-3.032-3.32-4.644-7.213-16.633-14.376-33.287-21.678-49.881-.64-1.456-2.046-3.452-3.29-3.602-3.873-.47-7.84-.172-11.819-.172v109.655h16.876v-61.824l.826-.133c4.605 10.99 9.21 21.98 14.053 33.7M902.125 1176.41c-6.945-7.622-17.51-9.252-25.166-3.88-7.933 5.565-10.018 16.22-4.798 25.322 15.479 26.993 31.05 53.933 46.505 80.94 3.283 5.735 8.275 8.575 14.586 9.116 7.022.602 12.81-1.992 16.621-8.04 3.927-6.233 4.52-12.74.714-19.356-16.016-27.84-32.016-55.688-48.462-84.102m-474.31-24.479c5.592 1.741 10.686.774 15.757-2.167 26.766-15.527 53.63-30.885 80.43-46.352 9.167-5.29 12.328-16.708 7.185-25.44-5.184-8.802-16.483-11.614-25.688-6.324-26.686 15.336-53.295 30.808-80.072 45.985-7.177 4.067-10.696 9.802-10.387 17.849.31 8.033 4.748 13.226 12.775 16.45m45.638-218.937c-29.663 0-59.327-.027-88.99.016-10.053.014-18.266 8.033-18.465 17.832-.2 9.883 7.592 18.83 17.455 18.901 32.16.23 64.326.204 96.487.016 9.14-.054 16.499-7.698 17.293-16.929.763-8.872-5.225-17.497-13.848-19.4-2.877-.634-5.963-.318-9.932-.436m611.142 188.997c-1.657-1.364-3.159-2.996-4.993-4.05-27.41-15.765-54.834-31.503-82.321-47.131-8.881-5.05-20.283-1.772-25.15 6.917-4.866 8.691-1.716 20.03 7.15 25.12a20568 20568 0 0 0 81.884 46.806c2.104 1.195 4.61 2.063 7.006 2.293 7.371.706 13.576-1.932 17.573-8.221 4.468-7.032 3.722-14.233-1.149-21.734M946.048 648.599c1.243-2.164 2.523-4.308 3.721-6.496 5.05-9.22 1.972-20.807-6.785-25.618-8.904-4.892-20-1.543-25.312 7.717a67087 67087 0 0 0-46.136 80.546c-5.441 9.515-2.603 21.008 6.365 26.066 9.039 5.097 20.108 1.705 25.623-7.914a68894 68894 0 0 0 42.524-74.3m-212.891 593.9c0 25.328-.044 50.657.022 75.985.026 10.172 8.409 18.491 18.39 18.515 10.092.023 18.393-8.162 18.412-18.439.06-31.494.064-62.988-.001-94.482-.022-10.29-8.314-18.549-18.334-18.567-9.993-.018-18.314 8.262-18.472 18.492-.09 5.83-.017 11.664-.017 18.496M486.266 778.265c-14.727-8.42-29.416-16.906-44.193-25.236-8.922-5.029-20.297-1.88-25.181 6.741-4.932 8.706-1.907 20.066 6.952 25.164a19871 19871 0 0 0 81.887 46.87c8.874 5.05 20.288 1.921 25.253-6.659 5.108-8.826 1.917-20.078-7.294-25.392-12.248-7.067-24.539-14.06-37.424-21.488m83.037-107.018c10.04 17.45 20.047 34.92 30.134 52.342 5.379 9.29 16.388 12.47 25.372 7.467 8.979-5 11.824-16.469 6.354-26.012a48270 48270 0 0 0-46.256-80.5c-5.351-9.293-16.462-12.59-25.357-7.625-8.992 5.017-11.914 16.623-6.529 26.003 5.3 9.233 10.62 18.454 16.282 28.325m22.922 521.462c-13.049 22.825-26.171 45.608-39.11 68.496-5.002 8.848-1.543 20.22 7.238 25.047 8.407 4.622 19.727 1.721 24.502-6.575a17745 17745 0 0 0 47.324-82.731c4.927-8.669 1.804-19.914-6.594-24.857-8.587-5.055-20.11-2.105-25.293 6.567-2.645 4.426-5.11 8.96-8.067 14.053m430.458-418.489c-14.42 8.303-28.907 16.49-43.2 25.003-2.874 1.712-5.657 4.277-7.358 7.12-4.325 7.232-2.87 16.649 2.75 22.13 6.095 5.946 14.884 7.067 22.53 2.688a52920 52920 0 0 0 80.936-46.484c9.482-5.454 12.753-16.756 7.504-25.746-5.081-8.702-16.517-11.475-25.733-6.195-12.271 7.03-24.522 14.096-37.43 21.484M761.556 568.774c-14.031-7.69-28.377.792-28.39 16.832-.027 30.634-.02 61.267-.002 91.9.007 11.223 7.747 19.502 18.25 19.615 10.746.115 18.58-8.16 18.586-19.711.015-30.633-.067-61.267.06-91.9.028-6.887-2.4-12.263-8.504-16.736m321.945 401.07c11.497 0 22.995.046 34.492-.014 11.053-.059 19.278-8.137 19.17-18.7-.105-10.385-8.233-18.124-19.106-18.13-30.993-.013-61.985-.016-92.978.023-1.972.003-4.025.12-5.903.66-8.878 2.55-14.441 11.274-13.157 20.361 1.249 8.838 9.118 15.714 18.496 15.766 19.328.107 38.657.033 58.986.033m-87.647-622.338c.31-5.805.155-11.684 1.06-17.394.886-5.58 4.741-8.035 10.421-7.921 5.76.115 8.979 2.63 9.846 8.485.674 4.55.67 9.202.977 13.97h18.873c0-3.516.139-6.675-.023-9.819-.89-17.352-8.763-26.096-26.053-27.428-21.723-1.674-32.821 6.588-34.259 24.596-1.661 20.815-1.531 41.942-.06 62.784 1.12 15.875 9.556 23.126 23.415 24.87 9.376 1.181 17.438-1.075 22.42-9.72 3.203 2.217-.946 8.035 4.892 8.224 3.4.11 6.808.02 10.199.02v-55.304h-29.429v12.384l12.048.688c-.86 7.654-1.124 14.81-2.618 21.697-1.119 5.159-5.29 7.18-10.771 6.906-5.614-.282-8.459-2.565-9.792-8.162-.536-2.25-.933-4.593-.956-6.898-.134-13.66-.14-27.32-.19-41.978m-584.004 55.1c-9.275 4.69-16.492 1.31-16.774-8.983-.56-20.47-.356-40.969-.031-61.45.107-6.783 4.327-10.123 10.635-9.98 6.102.138 9.057 3.157 9.464 10.366.295 5.224.057 10.478.057 15.646h19.585c0-5.488.46-10.689-.085-15.781-1.72-16.068-9.29-23.882-25.214-25.03-21.857-1.578-33.472 6.998-34.67 26.568-1.219 19.894-1.316 40.013.199 59.873 1.377 18.049 12.836 26.42 31.018 26.015 15.298-.34 24.148-6.152 27.186-19.328 1.72-7.463 1.652-15.338 2.418-23.326h-20.183c0 4.4.4 8.74-.115 12.97-.486 4-1.931 7.882-3.49 12.44m-2.655-188.754c1.253 1.12 3.318 2.057 3.621 3.393 1.358 5.996 2.077 12.134 3.356 18.151.297 1.396 1.816 3.519 2.895 3.596 5.265.374 10.571.17 16.534.17-1.274-6.388-2.417-12.2-3.595-18.005-5.956-29.344-11.888-58.692-17.985-88.006-.308-1.485-2.007-3.737-3.173-3.81-6.108-.384-12.252-.18-18.5-.18l-22.312 109.753h18.698c.273-.608.579-1.043.665-1.518.922-5.074 1.838-10.149 2.697-15.233 1.404-8.311 1.385-8.314 9.657-8.314 2.166 0 4.332 0 7.442.003m640.008-23.17-9.625 48.07h19.027l4.518-24.635h18.653l4.462 24.765h18.826L1082.8 129.153c-6.086 0-11.575.186-17.044-.07-3.192-.15-4.243 1.033-4.841 4.076-3.715 18.923-7.655 37.801-11.713 57.523m-450.135 149.55-6.436-31.766c-5.865 0-11.191.21-16.491-.074-3.516-.188-4.813.955-5.514 4.5-6.098 30.825-12.433 61.603-18.693 92.397-.84 4.138-1.655 8.281-2.575 12.886 5.456 0 10.103-.154 14.735.052 3.192.143 4.686-.656 5.143-4.215.9-7.008 2.46-13.931 3.718-20.733h18.632l4.44 24.482h18.815c-5.269-25.866-10.445-51.28-15.774-77.53m180.923-106.69 3.452-19.442h18.711c1.309 7.38 2.509 14.59 3.933 21.756.237 1.19 1.406 3.085 2.22 3.126 5.544.277 11.108.145 17.164.145L803.22 129.44h-21.13l-22.252 109.485h18.93c.394-1.638.742-3.084 1.222-5.384M499.992 357.5v60.465h46.193V404.01h-25.731v-35.454h19.999v-14.693h-19.961v-31.061h25.271v-14.026h-45.771zm370.016-14.03v-20.805h25.505v-13.938h-45.396v109.042h45.714v-13.737h-25.409v-35.723h19.847v-14.38h-20.26zM723.823 340.5v77.382h45.938V403.91h-25.465v-35.573h19.928v-14.541h-19.82V322.64h25.34v-13.864h-45.921zm282.347-109.893v-5.426H980.37v-36.103h19.858v-14.253h-19.852v-31.144h25.315v-14.18h-45.465v109.317h45.946zm65.614 111.947c-3.181-10.155-6.307-20.328-9.61-30.444-.443-1.353-1.728-3.385-2.724-3.446-5.53-.337-11.092-.162-17.094-.162.728 2.518 1.133 4.11 1.647 5.668 5.578 16.898 11.063 33.828 16.814 50.667 2.556 7.483 4.034 14.97 3.73 22.95-.38 9.947-.092 19.919-.092 30.041h19.555c0-5.484.38-10.655-.068-15.754-1.563-17.784 1.864-34.667 8.281-51.15 2.41-6.192 4.267-12.601 6.33-18.927 2.498-7.66 4.947-15.336 7.59-23.542-4.92 0-9.094.298-13.206-.082-4.245-.392-6.04 1.16-7.166 5.287-3.359 12.32-7.21 24.507-11.181 37.791-1.093-3.438-1.841-5.79-2.806-8.897m-588.72-167.322h-18.91v-31.808h24.3v-13.897h-44.747v109.288h20.304v-49.83h19.668c0-4.753 0-8.904-.615-13.753m23.476-46.094h-10.054v109.762h20.35v-49.928h19.294V174.78h-19.19v-31.314h24.288V129.14zm-60.54 286.167c.787.947 1.563 2.712 2.36 2.72 14.43.167 28.861.122 43.407.122v-14.203H465.95v-95.166h-19.951c0 35.367 0 70.461.004 106.527m459.83-192.807v16.344h45.88v-13.82H925.86V129.42h-20.029z"/><path fill="#FFFFFE" d="M549.32 862.336c35.128-72.603 91.831-116.476 171.408-128.344 117.547-17.53 227.577 62.483 249.031 179.81 21.875 119.626-58.171 235.617-177.61 257.366-115.997 21.123-227.384-50.272-255.708-164.428-12.23-49.296-7.712-97.473 12.878-144.404m166.399 198.568c45.419 13.202 85.962 4.2 118.68-29.963 32.692-34.137 40.835-75.192 24.72-119.746-12.57-34.76-37.821-57.265-73.281-69.63 0 13.258.11 25.573-.072 37.884-.05 3.378.946 5.255 3.987 7.05 29.84 17.611 43.812 52.106 34.697 85.07-9.179 33.197-38.557 55.433-73.233 55.43-33.031-.002-62.269-21.649-71.923-53.248-9.778-32.004 2.486-66.884 30.595-84.899 5.668-3.633 7.858-7.181 7.429-13.765-.606-9.291-.144-18.65-.163-27.981-.003-1.595-.13-3.19-.204-4.866-34.471 9.258-78.156 45.67-80.358 105.502-1.879 51.028 30.221 96.594 79.126 113.162m19.445-166.8c.919 9.878 8.274 16.869 17.238 16.383 8.98-.487 15.588-8.067 15.596-17.974q.027-35.233 0-70.465c-.008-10.53-6.95-18.103-16.475-18.05-9.474.052-16.35 7.684-16.356 18.221-.015 23.655-.005 47.31-.003 71.885"/><path fill="#FFFEFC" d="M251.3 175.424c-10.973 45.535-21.816 90.67-32.693 135.798-8.11 33.642-16.276 67.27-24.37 100.916-.561 2.33-.672 4.475-4.076 4.444-16.164-.148-32.33-.094-48.495-.136-.444-.001-.887-.277-1.753-.566l59.97-244.239h-77.528v-41.895H253.96c-1.034 15.289 1.987 30.434-2.66 45.678"/><path fill="#FFFEFB" d="M881.869 134.013c15.648 11.25 14.225 35.585-2.374 46.248 16.68 8.725 21.962 32.699 10.617 48.166-3.82 5.207-8.917 9.063-15.234 9.53-13.688 1.013-27.44 1.17-41.458 1.687V128.991c16.225 1.313 32.66-2.8 48.449 5.022m-15.752 55.067-12.28-1.13v36.84c3.522 0 6.688.219 9.814-.044 7.096-.595 10.976-3.701 11.94-10.518.667-4.705.512-9.631-.029-14.373-.583-5.115-3.544-8.881-9.445-10.775m-12.657-42.005v27.26c4.738-.408 8.7-.532 12.588-1.14 4.415-.693 7.158-3.688 7.85-7.939.63-3.873.756-7.895.54-11.82-.27-4.884-3.255-7.96-7.999-8.88-3.393-.658-6.899-.93-10.355-.935-.87-.002-1.742 1.679-2.624 3.454"/><path fill="#FFFEF9" d="M659.927 222.205c-2.365-9.088-4.68-17.768-6.937-26.463-1.826-7.031-1.796-7.039-10.057-6.125v49.298h-20.196V129.143c14.407.48 28.741-1.692 42.69 2.449 12.345 3.664 18.297 13.804 17.34 28.59-.627 9.672-2.017 19.008-11.697 24.497-.736.417-.759 2.97-.387 4.332 4.074 14.925 8.298 29.809 12.465 44.708.441 1.577.783 3.181 1.265 5.16h-20.098c-1.435-5.415-2.874-10.843-4.388-16.674m-11.678-79.028h-5.404v32.893c6.875-.076 13.756 1.124 17.817-5.012 4.304-6.502 3.677-13.99 1.224-21.085-2.049-5.928-7.636-6.141-13.637-6.796"/><path fill="#FFFEFA" d="M547.15 182c.57-11.272.329-22.166 1.93-32.783 1.77-11.733 9.491-18.995 21.482-20.294 6.353-.688 12.973-.577 19.282.402 8.44 1.31 14.574 6.505 17.484 14.668 1.546 4.338 3.038 8.994 3.077 13.519.165 19.282.53 38.616-.644 57.841-.927 15.188-10.445 23.488-25.751 24.79-4.757.405-9.704.34-14.388-.495-12.558-2.239-20.292-11.088-21.508-25.245-.91-10.584-.684-21.265-.964-32.403m41.533 37.824c.49-3.274 1.376-6.545 1.402-9.823.141-17.324.076-34.65.052-51.975-.003-1.828-.043-3.681-.337-5.479-1.307-7.989-8.778-11.915-16.103-8.447-4.821 2.284-5.594 6.855-5.63 11.402-.148 18.32-.103 36.643-.066 54.964.004 2.144.29 4.306.64 6.428.716 4.325 2.933 7.444 7.518 8.182 4.86.782 9.37.375 12.524-5.252"/><path fill="#FFFFFE" d="M694.831 179v-50.713c14.346.968 28.147 1.126 41.691 3.07 9.966 1.431 16.858 8.838 17.298 18.806.958 21.725 1.524 43.575.226 65.253-.88 14.67-9.478 21.923-24.239 23.178-11.364.967-22.877.193-34.976.193zm39.991 30.163c.006-13.156.084-26.312-.016-39.466-.043-5.645-.3-11.3-.747-16.927-.398-5.022-3.63-7.841-8.38-8.486-3.366-.458-6.844-.089-10.401-.089v80.734c2.572 0 4.877.144 7.16-.026 7.983-.596 10.8-3.343 11.867-11.358.153-1.155.298-2.312.517-4.382M1244.169 173c-.291 14.307.335 28.211-1.115 41.895-1.646 15.533-10.782 23.247-26.398 23.973-10.63.494-21.303.094-32.39.094V129.16c14.173.493 28.515-1.698 42.483 2.461 10.725 3.193 16.368 11.64 17.16 24.896.317 5.314.186 10.655.26 16.484m-23.733-25.93c-4.794-4.156-10.437-3.166-16.183-3.006v80.94h4.117c10.958-.017 14.676-3.025 14.99-13.984.478-16.623.443-33.27.194-49.9-.068-4.504-1.692-8.984-3.118-14.05"/><path fill="#FFFEFD" d="M962.184 354.027c-3.181 3.956-6.218 7.557-9.91 11.935l14.641 52.187c-6.377 0-12.314.187-18.218-.168-1.093-.066-2.6-2.17-2.99-3.587-3.614-13.15-7.02-26.357-10.497-39.544-1.935-7.34-1.945-7.337-10.084-6.128V417.8h-19.944V307.64c14.013.933 28 1.046 41.709 3.053 9.894 1.449 15.689 8.722 17.356 18.888 1.348 8.217 1.004 16.243-2.063 24.447m-22.929-30.08-13.877-1.867v32.83c11.654.84 16.727-1.16 19.141-7.37 3.248-8.355 1.218-18.786-5.264-23.592"/><path fill="#FFFEFB" d="M836.175 356v62.146c-4.068 0-7.865.313-11.557-.172-1.267-.166-2.713-2.14-3.33-3.604-7.82-18.54-15.503-37.138-23.225-55.72-.37-.888-.788-1.756-1.901-2.544v61.728h-16.907v-109.35c4.028 0 7.877-.355 11.598.182 1.412.203 3.013 2.246 3.704 3.814 7.246 16.437 14.32 32.951 21.46 49.436.695 1.605 1.506 3.158 3.328 4.574v-57.707h16.83z"/><path fill="#FFFEFD" d="M644.108 363.952c-1.105-2.65-2.08-4.94-3.056-7.23l-.753.04v61.043h-17.122V308.493c3.852 0 7.694-.356 11.407.18 1.426.206 3.056 2.223 3.747 3.789 7.322 16.585 14.468 33.247 21.676 49.882.697 1.61 1.485 3.179 3.005 4.606v-58.046h16.773V418.12c-3.918 0-7.867.314-11.71-.187-1.193-.155-2.443-2.373-3.085-3.893-6.984-16.548-13.852-33.145-20.882-50.089"/><path fill="#FFFEFC" d="M1144.89 210.21a14168 14168 0 0 0-13.934-33.335l-.826.133v61.824h-16.876V129.177c3.979 0 7.946-.297 11.82.172 1.243.15 2.649 2.146 3.29 3.602 7.3 16.594 14.464 33.248 21.678 49.881.699 1.612 1.489 3.185 3.32 4.644v-58.093h16.435v109.74c-3.732 0-7.66.212-11.535-.146-.987-.092-2.122-1.858-2.65-3.087-3.615-8.404-7.086-16.87-10.722-25.68"/><path fill="#FFFEFD" d="M902.345 1176.695c16.226 28.13 32.226 55.979 48.242 83.818 3.807 6.617 3.213 13.123-.714 19.355-3.81 6.049-9.599 8.643-16.62 8.04-6.312-.54-11.304-3.38-14.587-9.116-15.454-27.006-31.026-53.946-46.505-80.939-5.22-9.102-3.135-19.757 4.798-25.323 7.656-5.37 18.221-3.741 25.386 4.165M427.438 1151.812c-7.65-3.103-12.089-8.296-12.398-16.33-.31-8.046 3.21-13.78 10.387-17.848 26.777-15.177 53.386-30.649 80.072-45.985 9.205-5.29 20.504-2.478 25.688 6.324 5.143 8.732 1.982 20.15-7.185 25.44-26.8 15.467-53.664 30.825-80.43 46.352-5.071 2.941-10.165 3.908-16.134 2.047M473.943 932.996c3.48.118 6.565-.198 9.442.436 8.623 1.903 14.611 10.528 13.848 19.4-.794 9.23-8.154 16.875-17.293 16.929-32.161.188-64.326.215-96.487-.016-9.863-.07-17.656-9.018-17.455-18.901.2-9.799 8.412-17.818 18.465-17.832 29.663-.043 59.327-.016 89.48-.016M1084.817 1122.288c4.65 7.206 5.395 14.407.927 21.439-3.997 6.29-10.202 8.927-17.573 8.22-2.395-.229-4.902-1.097-7.006-2.292a20568 20568 0 0 1-81.885-46.806c-8.865-5.09-12.015-16.429-7.148-25.12 4.866-8.69 16.268-11.966 25.149-6.917 27.487 15.628 54.912 31.366 82.32 47.13 1.835 1.055 3.337 2.687 5.216 4.346M945.873 648.922c-14.231 24.875-28.277 49.434-42.35 73.978-5.514 9.619-16.583 13.011-25.622 7.914-8.968-5.058-11.806-16.55-6.365-26.066q23.04-40.29 46.136-80.546c5.312-9.26 16.408-12.609 25.312-7.717 8.757 4.81 11.836 16.397 6.785 25.618-1.198 2.188-2.478 4.332-3.896 6.819M733.157 1242c0-6.332-.073-12.165.017-17.996.158-10.23 8.479-18.51 18.472-18.492 10.02.018 18.312 8.277 18.334 18.567.065 31.494.062 62.988.001 94.482-.02 10.277-8.32 18.462-18.413 18.439-9.98-.024-18.363-8.343-18.389-18.515-.066-25.328-.022-50.657-.022-76.485M486.572 778.467c12.579 7.226 24.87 14.219 37.118 21.286 9.21 5.314 12.402 16.566 7.294 25.392-4.965 8.58-16.38 11.71-25.253 6.659a19871 19871 0 0 1-81.887-46.87c-8.86-5.098-11.884-16.458-6.952-25.164 4.884-8.622 16.26-11.77 25.181-6.74 14.777 8.329 29.466 16.815 44.499 25.437M569.128 670.924c-5.486-9.548-10.806-18.77-16.107-28.002-5.385-9.38-2.463-20.986 6.53-26.003 8.894-4.964 20.005-1.668 25.356 7.625a48270 48270 0 0 1 46.256 80.5c5.47 9.543 2.625 21.011-6.354 26.012-8.984 5.003-19.993 1.823-25.372-7.467-10.087-17.423-20.094-34.892-30.309-52.665M592.43 1192.404c2.752-4.789 5.217-9.322 7.862-13.748 5.183-8.672 16.706-11.622 25.293-6.567 8.398 4.943 11.52 16.188 6.594 24.857a17745 17745 0 0 1-47.324 82.731c-4.775 8.296-16.095 11.197-24.502 6.575-8.78-4.827-12.24-16.2-7.238-25.047 12.939-22.888 26.061-45.671 39.315-68.8M1023.007 774.052c12.583-7.22 24.834-14.285 37.105-21.316 9.216-5.28 20.652-2.507 25.733 6.195 5.25 8.99 1.978 20.292-7.504 25.746-26.97 15.51-53.939 31.02-80.935 46.484-7.647 4.38-16.436 3.258-22.531-2.688-5.62-5.481-7.075-14.898-2.75-22.13 1.7-2.843 4.484-5.408 7.358-7.12 14.293-8.513 28.78-16.7 43.524-25.171M761.867 568.977c5.793 4.27 8.22 9.646 8.192 16.533-.127 30.633-.045 61.267-.06 91.9-.006 11.551-7.84 19.826-18.586 19.71-10.503-.112-18.243-8.391-18.25-19.613-.019-30.634-.025-61.267.001-91.9.014-16.041 14.36-24.522 28.703-16.63M1083 969.843c-19.829 0-39.158.074-58.486-.033-9.378-.052-17.247-6.928-18.496-15.766-1.284-9.087 4.28-17.812 13.157-20.362 1.878-.54 3.93-.656 5.903-.659 30.993-.039 61.985-.036 92.978-.022 10.873.005 19.001 7.744 19.107 18.129.107 10.563-8.118 18.641-19.171 18.7-11.497.06-22.995.013-34.992.013"/><path fill="#FFFEF9" d="M995.853 348.004c.05 14.159.056 27.82.19 41.479.023 2.305.42 4.647.956 6.898 1.333 5.597 4.178 7.88 9.792 8.162 5.481.274 9.652-1.747 10.771-6.906 1.494-6.888 1.757-14.043 2.618-21.697l-12.048-.688v-12.384h29.429v55.304c-3.391 0-6.799.09-10.2-.02-5.837-.19-1.688-6.007-4.892-8.224-4.981 8.645-13.043 10.901-22.42 9.72-13.858-1.744-22.293-8.995-23.414-24.87-1.471-20.842-1.601-41.969.06-62.784 1.438-18.008 12.536-26.27 34.26-24.596 17.289 1.332 25.163 10.076 26.052 27.428.162 3.144.023 6.303.023 9.82h-18.873c-.308-4.769-.303-9.42-.977-13.971-.867-5.855-4.086-8.37-9.846-8.485-5.68-.114-9.535 2.34-10.42 7.92-.906 5.711-.751 11.59-1.06 17.894M412.117 402.293c1.29-4.246 2.736-8.128 3.222-12.127.514-4.23.115-8.571.115-12.971h20.183c-.766 7.988-.697 15.863-2.418 23.326-3.038 13.176-11.888 18.987-27.186 19.328-18.182.405-29.641-7.966-31.018-26.015-1.515-19.86-1.418-39.979-.2-59.873 1.199-19.57 12.814-28.146 34.671-26.569 15.923 1.15 23.493 8.963 25.214 25.03.545 5.093.085 10.294.085 15.782H415.2c0-5.168.238-10.422-.057-15.646-.407-7.209-3.362-10.228-9.464-10.366-6.308-.143-10.528 3.197-10.635 9.98-.325 20.481-.53 40.98.03 61.45.283 10.292 7.5 13.674 17.043 8.671"/><path fill="#FFFEFB" d="M408.722 213.85c-2.638-.002-4.804-.003-6.97-.002-8.272 0-8.253.003-9.657 8.314-.859 5.084-1.775 10.16-2.697 15.233-.086.475-.392.91-.665 1.518h-18.698l22.312-109.752c6.248 0 12.392-.205 18.5.179 1.166.073 2.865 2.325 3.173 3.81 6.097 29.314 12.029 58.662 17.985 88.006 1.178 5.805 2.32 11.617 3.595 18.004-5.963 0-11.27.205-16.534-.17-1.079-.076-2.598-2.199-2.895-3.595-1.28-6.017-1.998-12.155-3.356-18.15-.303-1.337-2.368-2.273-4.093-3.395m-1.272-29.905-3.968-24.11-1.114.084-6.563 40.37h14.242c-.829-5.385-1.606-10.44-2.597-16.344M1049.299 190.267c3.961-19.307 7.9-38.185 11.616-57.108.598-3.043 1.65-4.226 4.84-4.077 5.47.257 10.96.071 17.045.071l22.263 109.728h-18.826l-4.462-24.765h-18.653l-4.518 24.635h-19.027c3.242-16.192 6.433-32.13 9.722-48.484m25.541-19.611-2.105-11.616-.791.037-6.666 41.204h14.21a5394 5394 0 0 1-4.648-29.625M599.144 340.65c5.252 25.831 10.428 51.245 15.697 77.111h-18.815l-4.44-24.482h-18.632c-1.258 6.802-2.818 13.725-3.718 20.733-.457 3.559-1.951 4.358-5.143 4.215-4.632-.206-9.28-.052-14.735-.052.92-4.605 1.734-8.748 2.575-12.886 6.26-30.794 12.595-61.572 18.693-92.398.701-3.544 1.998-4.687 5.514-4.499 5.3.283 10.626.074 16.491.074 2.173 10.723 4.304 21.244 6.513 32.183m-22.896 31.047-1.008 7.787h14.127l-6.657-41.165-.86-.116c-1.814 10.883-3.628 21.766-5.602 33.494M779.924 233.968c-.414 1.873-.762 3.319-1.156 4.957h-18.93L782.09 129.44h21.13l22.25 109.686c-6.056 0-11.62.132-17.163-.145-.815-.04-1.984-1.936-2.22-3.126-1.425-7.166-2.625-14.376-3.934-21.756h-18.711c-1.146 6.45-2.299 12.946-3.518 19.87m11.987-72.101-6.288 38.323h14.305l-6.81-41.424-.836.074c-.101.78-.203 1.558-.37 3.027M499.992 357v-48.224h45.771v14.026h-25.271v31.06h19.96v14.694h-19.998v35.454h25.731v13.955h-46.193zM870.008 343.964v9.965h20.261v14.38h-19.847v35.723h25.41v13.737h-45.715V308.727h45.396v13.938h-25.505zM723.824 340v-31.224h45.921v13.864h-25.34v31.157h19.82v14.541h-19.928v35.573h25.465v13.97h-45.938z"/><path fill="#FFFEFD" d="M1006.171 231.083v7.735h-45.946V129.501h45.465v14.18h-25.315v31.144h19.852v14.253h-19.858v36.103h25.802z"/><path fill="#FFFEF9" d="M1071.894 342.932c.856 2.73 1.604 5.082 2.697 8.52 3.971-13.284 7.822-25.47 11.181-37.791 1.125-4.127 2.92-5.679 7.166-5.287 4.112.38 8.286.082 13.206.082-2.643 8.206-5.092 15.882-7.59 23.542-2.063 6.326-3.92 12.735-6.33 18.927-6.417 16.483-9.844 33.366-8.281 51.15.448 5.099.068 10.27.068 15.754h-19.555c0-10.122-.288-20.094.091-30.041.305-7.98-1.173-15.467-3.729-22.95-5.75-16.84-11.236-33.77-16.814-50.667-.514-1.557-.92-3.15-1.647-5.668 6.002 0 11.564-.175 17.094.162.996.06 2.281 2.093 2.723 3.446 3.304 10.116 6.43 20.29 9.72 30.821"/><path fill="#FFFDF6" d="M483.373 175.582c.307 4.5.307 8.651.307 13.403h-19.668v49.83h-20.304V129.529h44.747v13.897h-24.3v31.808c6.373 0 12.642 0 19.218.349M507.036 129.14h34.193v14.327H516.94v31.314h19.19v14.192h-19.294V238.9h-20.35V129.14z"/><path fill="#FFFFFE" d="M446 414.82c-.002-35.58-.002-70.674-.002-106.041h19.951v95.166h25.82v14.203c-14.547 0-28.979.045-43.408-.121-.797-.01-1.573-1.774-2.361-3.207M905.831 221.999v-92.58h20.03v95.605h25.851v13.82h-45.88z"/><path fill="#FCC30C" d="M715.343 1060.776c-48.53-16.44-80.63-62.006-78.751-113.034 2.202-59.833 45.887-96.244 80.358-105.502.073 1.677.2 3.271.204 4.866.02 9.33-.443 18.69.163 27.98.429 6.585-1.761 10.133-7.43 13.766-28.108 18.015-40.372 52.895-30.594 84.899 9.654 31.6 38.892 53.246 71.923 53.248 34.676.003 64.054-22.233 73.233-55.43 9.115-32.964-4.857-67.459-34.697-85.07-3.04-1.795-4.037-3.672-3.987-7.05.181-12.311.072-24.626.072-37.883 35.46 12.364 60.71 34.87 73.282 69.629 16.114 44.554 7.97 85.609-24.722 119.746-32.717 34.163-73.26 43.165-119.054 29.835"/><path fill="#FCC40D" d="M735.162 893.644c0-24.115-.01-47.77.004-71.425.006-10.537 6.882-18.169 16.356-18.221 9.525-.053 16.467 7.52 16.475 18.05q.027 35.232 0 70.465c-.008 9.907-6.616 17.487-15.596 17.974-8.964.486-16.32-6.505-17.239-16.843"/><path fill="#FCC514" d="M866.502 189.185c5.516 1.789 8.477 5.555 9.06 10.67.541 4.742.696 9.668.03 14.374-.965 6.816-4.845 9.922-11.941 10.517-3.126.263-6.292.045-9.813.045V187.95c4.209.387 8.244.759 12.664 1.235M853.466 146.64c.876-1.34 1.748-3.02 2.618-3.02 3.456.006 6.962.278 10.355.936 4.744.92 7.73 3.996 7.999 8.88.216 3.925.09 7.947-.54 11.82-.692 4.25-3.435 7.246-7.85 7.938-3.887.61-7.85.733-12.588 1.14 0-9.484 0-18.372.006-27.693"/><path fill="#FCC40E" d="M648.685 143.187c5.565.645 11.152.858 13.201 6.786 2.453 7.095 3.08 14.583-1.224 21.085-4.06 6.136-10.942 4.936-17.817 5.012v-32.893c2.184 0 3.794 0 5.84.01"/><path fill="#FCC30C" d="M588.487 220.174c-2.959 5.277-7.468 5.684-12.328 4.902-4.585-.738-6.802-3.857-7.518-8.182-.35-2.122-.636-4.284-.64-6.428-.037-18.321-.082-36.643.066-54.964.036-4.547.809-9.118 5.63-11.402 7.325-3.468 14.796.458 16.103 8.447.294 1.798.334 3.651.337 5.479.024 17.325.09 34.65-.052 51.975-.026 3.278-.913 6.549-1.598 10.173"/><path fill="#FCC40E" d="M734.787 209.62c-.184 1.613-.329 2.77-.482 3.925-1.067 8.015-3.884 10.762-11.867 11.358-2.283.17-4.588.026-7.16.026v-80.734c3.557 0 7.035-.369 10.402.089 4.748.645 7.981 3.464 8.38 8.486.445 5.627.703 11.282.746 16.927.1 13.154.022 26.31-.02 39.923M1220.694 147.358c1.168 4.778 2.792 9.258 2.86 13.762.25 16.63.284 33.277-.193 49.9-.315 10.959-4.033 13.967-14.991 13.983-1.295.002-2.59 0-4.117 0v-80.939c5.746-.16 11.39-1.15 16.441 3.294M939.619 324.087c6.118 4.667 8.148 15.098 4.9 23.453-2.414 6.21-7.487 8.21-19.141 7.37v-32.83c4.617.622 9.247 1.245 14.24 2.007"/><path fill="#FCC71A" d="M407.557 184.37a2135 2135 0 0 1 2.49 15.92h-14.242l6.563-40.371 1.114-.084c1.323 8.037 2.645 16.073 4.075 24.535M1074.88 171.091c1.543 9.893 3.046 19.352 4.609 29.19h-14.21l6.665-41.204.791-.037c.702 3.872 1.403 7.744 2.146 12.051M576.328 371.273c1.894-11.305 3.708-22.188 5.523-33.07l.859.115c2.194 13.57 4.39 27.14 6.657 41.165H575.24c.344-2.656.676-5.222 1.088-8.21M791.944 161.523a233 233 0 0 1 .338-2.682l.836-.074 6.81 41.424h-14.305c2.12-12.92 4.204-25.621 6.321-38.668"/></svg>